<svg xmlns="http://www.w3.org/2000/svg" width="12" height="12" viewBox="0 0 12 12">
    <g fill="#F4F4F4" fill-rule="nonzero">
        <ellipse cx="9.099" cy="2.919" rx="1" ry="1"/>
        <path d="M5.994 9a3.001 3.001 0 0 1-2.997-3c0-1.654 1.344-3 2.997-3A3.001 3.001 0 0 1 8.99 6c0 1.654-1.344 3-2.997 3zm0-4.5a1.5 1.5 0 0 0 0 3 1.5 1.5 0 0 0 0-3z"/>
        <path d="M8.99 12H2.998C1.457 12 0 10.542 0 9V3c0-1.542 1.456-3 2.997-3H8.99c1.54 0 2.997 1.458 2.997 3v6c0 1.542-1.457 3-2.997 3zM2.998 1.5c-.7 0-1.499.799-1.499 1.5v6c0 .715.785 1.5 1.499 1.5H8.99c.7 0 1.498-.799 1.498-1.5V3c0-.701-.798-1.5-1.498-1.5H2.997z"/>
    </g>
</svg>
