<svg xmlns="http://www.w3.org/2000/svg" width="12" height="12" viewBox="0 0 12 12">
    <path fill="#FFF" fill-rule="nonzero" d="M11.114 0H.887A.873.873 0 0 0 0 .86v10.28c0 .475.397.86.887.86h10.227c.49 0 .886-.385.886-.86V.86a.873.873 0 0 0-.886-.86zM3.638 10.045H1.825V4.627h1.813v5.418zm-.906-6.158h-.013c-.608 0-1.002-.416-1.002-.937 0-.53.406-.935 1.026-.935s1.002.404 1.014.935c0 .521-.394.937-1.025.937zm7.442 6.158H8.36V7.146c0-.728-.262-1.225-.918-1.225-.501 0-.799.335-.93.659-.048.115-.06.277-.06.439v3.026H4.64s.023-4.91 0-5.418h1.812v.768c.24-.37.67-.896 1.633-.896 1.193 0 2.088.774 2.088 2.44v3.106zM6.462 5.47l.042-.061v.061h-.042z"/>
</svg>
