<svg xmlns="http://www.w3.org/2000/svg" width="12" height="11" viewBox="0 0 12 11">
    <path fill="#F4F4F4" fill-rule="nonzero" d="M11.988 1.5c-.45.225-.9.3-1.424.375.524-.3.9-.75 1.049-1.35-.45.3-.974.45-1.573.6A2.615 2.615 0 0 0 8.24.375C6.968.375 5.844 1.5 5.844 2.85c0 .225 0 .375.075.525A6.892 6.892 0 0 1 .824.825c-.225.375-.3.75-.3 1.275 0 .825.45 1.575 1.124 2.025-.374 0-.749-.15-1.124-.3 0 1.2.825 2.175 1.948 2.4-.224.075-.45.075-.674.075-.15 0-.3 0-.45-.075A2.428 2.428 0 0 0 3.672 7.95C2.847 8.625 1.798 9 .6 9H0c1.124.675 2.398 1.125 3.746 1.125 4.495 0 6.968-3.75 6.968-6.975v-.3c.524-.375.974-.825 1.274-1.35z"/>
</svg>
