<svg xmlns="http://www.w3.org/2000/svg" viewBox="0 0 29.028 22.807">
    <defs>
        <style>
            .cls-1{fill:#fff}
        </style>
    </defs>
    <g id="Email_Footer" data-name="Email Footer" transform="translate(0 -59.013)">
        <g id="Group_452" data-name="Group 452" transform="translate(0 59.013)">
            <path id="Path_80" d="M42.489 332.392a2.481 2.481 0 0 0 1.7-.641l-8.224-8.224-.569.409q-.923.68-1.5 1.061a9.236 9.236 0 0 1-1.531.778 4.665 4.665 0 0 1-1.782.4h-.033a4.664 4.664 0 0 1-1.782-.4 9.206 9.206 0 0 1-1.53-.775q-.575-.38-1.5-1.061a76.024 76.024 0 0 0-.568-.412l-8.226 8.227a2.482 2.482 0 0 0 1.7.641z" class="cls-1" data-name="Path 80" transform="translate(-16.053 -309.585)"/>
            <path id="Path_81" d="M1.636 199.964A8.588 8.588 0 0 1 0 198.555v12.513l7.249-7.249q-2.176-1.519-5.613-3.855z" class="cls-1" data-name="Path 81" transform="translate(0 -191.201)"/>
            <path id="Path_82" d="M418.935 199.964q-3.31 2.24-5.626 3.857l7.246 7.246v-12.512a8.941 8.941 0 0 1-1.62 1.409z" class="cls-1" data-name="Path 82" transform="translate(-391.527 -191.201)"/>
            <path id="Path_83" d="M26.441 59.013H2.6a2.313 2.313 0 0 0-1.919.842 3.268 3.268 0 0 0-.672 2.106A3.785 3.785 0 0 0 .9 64.172a8.036 8.036 0 0 0 1.9 1.871q.551.389 3.321 2.308a657.365 657.365 0 0 1 4.244 2.957l.242.172.447.322q.526.381.875.616t.842.526a4.916 4.916 0 0 0 .931.437 2.578 2.578 0 0 0 .81.146h.032a2.579 2.579 0 0 0 .81-.146 4.9 4.9 0 0 0 .931-.437q.494-.292.842-.526t.875-.616l.446-.322.242-.173 1.639-1.139 5.942-4.126a7.7 7.7 0 0 0 1.976-1.992 4.286 4.286 0 0 0 .793-2.446 2.613 2.613 0 0 0-2.592-2.592z" class="cls-1" data-name="Path 83" transform="translate(-.006 -59.013)"/>
        </g>
    </g>
</svg>
