<svg xmlns="http://www.w3.org/2000/svg" width="448" height="350" viewBox="0 0 448 350">
    <defs>
        <linearGradient id="a" x1="-.01%" x2="100.005%" y1="50.015%" y2="50.015%">
            <stop offset="0%" stop-color="gray" stop-opacity=".25"/>
            <stop offset="54%" stop-color="gray" stop-opacity=".12"/>
            <stop offset="100%" stop-color="gray" stop-opacity=".1"/>
        </linearGradient>
        <linearGradient id="b" x1="100.029%" x2="-.001%" y1="49.975%" y2="49.975%">
            <stop offset="0%" stop-color="gray" stop-opacity=".25"/>
            <stop offset="54%" stop-color="gray" stop-opacity=".12"/>
            <stop offset="100%" stop-color="gray" stop-opacity=".1"/>
        </linearGradient>
    </defs>
    <g fill="none" fill-rule="evenodd" transform="translate(7 -1)">
        <ellipse cx="223.105" cy="174.924" fill="#EA0B4B" opacity=".1" rx="196" ry="174.924"/>
        <ellipse cx="72.269" cy="264.403" fill="#EA0B4B" opacity=".1" rx="72.269" ry="11.202"/>
        <ellipse cx="107.004" cy="323.164" fill="#EA0B4B" opacity=".1" rx="28.109" ry="5.807"/>
        <ellipse cx="299.076" cy="300.824" fill="#EA0B4B" opacity=".1" rx="28.109" ry="5.807"/>
        <ellipse cx="203.693" cy="294.013" fill="#EA0B4B" opacity=".1" rx="45.71" ry="7.744"/>
        <ellipse cx="338.378" cy="255.681" fill="#EA0B4B" opacity=".1" rx="95.34" ry="14.933"/>
        <path fill="#A8A8A8" d="M19.76 229.618a26.53 26.53 0 0 0 1.383 26.634c.84 1.26 1.613 2.168 2.23 2.408 2.963 1.164 8.896 4.025 8.896 4.025l14.286-5.614s2.319-12.268 4.512-22.802c1.496-7.185 2.941-13.559 3.534-14.677 1.479-2.752 0-32.714 0-32.714s-14.286-.958-18.214 10.055l-1.719 3.361-14.907 29.324z"/>
        <path fill="#FFF" d="M38.727 232.929c8.685 9.953 12.349 1.344 12.349 1.344 1.495-7.185 2.94-13.559 3.533-14.676 1.48-2.752 0-32.715 0-32.715s-14.285-.958-18.214 10.055l-1.719 3.361c-1.1 8.811-2.189 25.467 4.05 32.63z" opacity=".1"/>
        <path fill="#A8A8A8" d="M40.634 260.672l50.42-5.823 8.996-59.194-6.802-15.373a62.294 62.294 0 0 0-11.765-17.748c-3.424-3.61-7.563-7.08-11.916-8.824a17.882 17.882 0 0 0-1.82-.622 4.71 4.71 0 0 0-4.2.744c-6.22 4.407-8.442 23.147-9.16 32.168a100.672 100.672 0 0 1-1.5 11.046l-12.253 63.626z"/>
        <path fill="#FFF" d="M74.202 195.017l-10.505 25.84c5.505-4.025 13.66-25.945 13.66-25.945l7.307 24.991-5.824-26.34c.853-5.72 1.1-11.514.74-17.286-.462-6.613-6.668-17.227-10.038-22.571a17.882 17.882 0 0 0-1.82-.622 4.71 4.71 0 0 0-4.201.744c2.647 5.315 9.265 18.605 11.282 22.554 2.558 4.975-.601 18.635-.601 18.635z" opacity=".1"/>
        <path fill="#A8A8A8" d="M82.777 262.685h27.357a8.298 8.298 0 0 0 8.29-8.719c-.605-11.73-2.138-32.647-5.785-45.924-1.97-7.164-4.26-10.924-6.362-12.777a6.206 6.206 0 0 0-3.617-1.702 4.748 4.748 0 0 0-2.942.714c-5.08 4.87-11.012 30.496-11.012 30.496l-5.929 37.912z"/>
        <path fill="#FFF" d="M108.034 239.958c1.126 3.122 1.571 6.723 0 10.231l-6.097 3.013s-16.387-6.946-14.395-21.181c0 0 .538-2.941 6.18-2.714a15.996 15.996 0 0 1 14.312 10.651zM101.521 202.538c-.19-4.992 2.521-6.723 4.76-7.273a6.206 6.206 0 0 0-3.617-1.702 9.605 9.605 0 0 0-3.156 5.042l-5.714 27.853s8.046-15.555 7.727-23.92z" opacity=".1"/>
        <path fill="#A8A8A8" d="M75.58 224.563l13.546 18.53 2.349 15.294-8.706 4.298-12.55 2.773c-1.21.268-2.452.35-3.685.24l-34.248-3.013 4.66-10.803 16.092-22.592 22.542-4.727z"/>
        <path fill="#FFF" d="M70.336 218.202s9.244.634 5.773 16.516c-3.47 15.883-39.18 17.156-39.18 17.156s7.588-13.445 19.26-23.08a53.731 53.731 0 0 0 3.782-3.407c2.684-2.685 7.819-7.404 10.365-7.185z" opacity=".1"/>
        <path fill="#000" d="M78.651 230.176s12.525 11.4 11.345 28.942M99.723 194.277s-13.143 17.48-14.618 44.374M54.613 186.87s6.362 28.886-9.52 50.66" opacity=".1"/>
        <path fill="#464353" fill-rule="nonzero" d="M170.475 293.853h68.546a3.84 3.84 0 0 0 3.361-5.66l-34.256-63.647a3.836 3.836 0 0 0-6.756 0l-34.273 63.647a3.84 3.84 0 0 0 3.378 5.66zm38.634-11.63h-8.722v-8.719h8.722v8.719zm0-14.534h-8.722v-17.441h8.722v17.441z"/>
        <path fill="#000" fill-rule="nonzero" d="M170.475 293.853h68.546a3.84 3.84 0 0 0 3.361-5.66l-34.256-63.647a3.836 3.836 0 0 0-6.756 0l-34.273 63.647a3.84 3.84 0 0 0 3.378 5.66zm38.634-11.63h-8.722v-8.719h8.722v8.719zm0-14.534h-8.722v-17.441h8.722v17.441z" opacity=".1"/>
        <path fill="#464353" fill-rule="nonzero" d="M170.475 295.954h68.546a3.84 3.84 0 0 0 3.361-5.66l-34.256-63.647a3.836 3.836 0 0 0-6.756 0l-34.273 63.647a3.84 3.84 0 0 0 3.378 5.66zm38.634-11.63h-8.722v-8.719h8.722v8.719zm0-14.534h-8.722v-17.441h8.722v17.44z"/>
        <path fill="url(#a)" fill-rule="nonzero" d="M132.824 261.676a4.706 4.706 0 0 0-.971-.47c-1.126-.42-2.328-.53-3.454-.933a4.945 4.945 0 0 1-1.735-1.025 4.554 4.554 0 0 1-.24-.256c.42-.265.803-.53 1.219-.778a14.437 14.437 0 0 0-5.067-5.042c.676-.996 2.201-.916 3.092-1.718.45-.446.746-1.025.84-1.651.332-1.652-.08-3.362-.491-4.988-.799-3.18-1.605-6.382-2.9-9.39a37.004 37.004 0 0 1-1.57-3.807c-1.089-3.622-.329-7.563-1.152-11.265-.265-1.19-.693-2.416-.395-3.592.458-1.824 2.496-2.904 2.941-4.727 1.614-6.492 1.904-13.227 2.82-19.853a25.55 25.55 0 0 0 .34-3.811c0-1.34-.24-2.668-.336-4.004-.26-3.753.491-7.5.815-11.248a11.765 11.765 0 0 1 1.525 3.76 15.18 15.18 0 0 1 .088 3.731c-.029.833-.117 1.663-.264 2.483-.206.975-.568 1.908-.807 2.883a8.912 8.912 0 0 0 .399 5.781c.571 1.26 1.828 2.429 3.134 2.05.904-.26 1.45-1.159 1.853-2.012 1.26-2.672 1.963-5.769 1.114-8.61-.559-1.89-1.786-3.6-1.9-5.575-.002-.79.06-1.578.186-2.357.525-4.563-.61-9.147-.862-13.735-.067-1.214.042-2.723-.23-4.013a5.214 5.214 0 0 0-.119-.458c.108.029.21.076.303.139a2.74 2.74 0 0 0-.059-2.349 5.97 5.97 0 0 1-.395-.74c-.16-.42-.13-.907-.328-1.31a5.592 5.592 0 0 0-.42-.61c-.542-.785-.571-1.802-.584-2.756a489.333 489.333 0 0 0-.42-14.907c-.113-2.521-.256-5.101-1.139-7.467a11.193 11.193 0 0 0-3.95-5.24 9.201 9.201 0 0 0-.886-.554c.156-.359.241-.744.252-1.134a2.714 2.714 0 0 0 0-.37l-.025-.21a8.865 8.865 0 0 0-.84-2.521 7.084 7.084 0 0 1-.803-2.756c0-.175.01-.349.03-.522.143-1.21.773-2.344.996-3.554.066-.376.097-.757.092-1.139v-.399a11.454 11.454 0 0 0-1.349-4.244c-.21-.42-.42-.84-.655-1.26a144.18 144.18 0 0 0-.353-2.353 21.3 21.3 0 0 0-.235-1.357 9.334 9.334 0 0 0-.164-.656c.651-.613.273-1.512-.143-2.344-.803-1.58-.635-3.467-.975-5.206a15.731 15.731 0 0 0-1.235-3.496 7.79 7.79 0 0 0-1.34-2.202 8.218 8.218 0 0 0-1.736-1.26 5.525 5.525 0 0 0-1.723-.777c-.382-.076-.773-.072-1.15-.16a3.647 3.647 0 0 1-.707-.256 4.803 4.803 0 0 0-1.508-.55c-.5-.018-.996.077-1.454.277a5.349 5.349 0 0 1-1.563.42h-.592a1.315 1.315 0 0 0-.803.193c-.124.108-.24.226-.344.353a4.651 4.651 0 0 1-1.013.693 9.979 9.979 0 0 0-4.9 8.53c.037.464-.005.931-.121 1.382-.122.353-.361.66-.462 1.021-.07.314-.085.638-.046.958.033.492.084.979.138 1.47a3.092 3.092 0 0 0-.613 1.358 1.853 1.853 0 0 0-.038.26v.034c-.046.878.387 1.68.639 2.52a8.958 8.958 0 0 1-.126 4.946c-.307 1.105-.744 2.248-.84 3.362v.075c-.055.568.01 1.14.193 1.68.138.383.344.74.47 1.127.445 1.37-.202 2.807-1.059 4.008-.134.19-.273.37-.42.546h.021l-.02.022.873.617c-.256.135-.513.282-.773.42a7.95 7.95 0 0 0-2.849 1.055 11.58 11.58 0 0 0-2.31 1.538 9.803 9.803 0 0 0-1.824 2.52 31.685 31.685 0 0 0-1.546 3.261 10.21 10.21 0 0 0-.79 2.828c-.362.769-.66 1.597-.992 2.34-.168.383-.332.765-.496 1.147L71.126 98.076l-2.244.932.177.42-.467.198.635 1.546a6.372 6.372 0 0 0-.273.194l-.118.092-.235.185-.118.096-.24.202-.088.076-.298.273c-.32.29-.626.597-.924.903l-.77.794-.146.156-.256.26-.143.147-.366.366-.025.025-.227.219-.143.134c-.059.059-.122.114-.185.168l-.176.164-.286.244-.084.075-.39.311c-.527.41-1.09.772-1.681 1.08-2.299 1.19-4.731 2.185-6.975 3.458a20.084 20.084 0 0 0-3.454 2.42c-1.483 1.315-2.74 2.941-4.458 3.895l-.189.101c-3.042 1.563-6.626.626-10.084.559-.517 0-1.025 0-1.53.034-2.806.218-5.373 1.357-7.857 2.743-1.747.98-3.453 2.08-5.168 3.076a86.618 86.618 0 0 0-3.264 2.004c-2.773 1.76-5.58 3.61-8.484 4.941-2.697 1.236-5.462 2.021-8.403 1.87h-.038c-.281 0-.563-.038-.84-.071-.273 2.205 1.492 3.983 2.668 5.924.562.837.905 1.802.996 2.807.014.377-.014.755-.084 1.126-.236 1.361-.866 2.697-.694 4.067a4.71 4.71 0 0 0 .895 2.21c.748 1.067 1.786 2.017 2.492 3.13 1.067 1.68 1.345 3.727 1.76 5.706a12.004 12.004 0 0 0 1.383 3.954c.907 1.462 2.294 2.52 3.597 3.643.239.206.474.42.701.63.168.151.332.311.488.475 1.525 1.559 2.66 3.962 1.74 5.912-.03.067-.064.126-.098.189.074.052.15.098.232.138 1.172.572 2.642-.344 3.605-1.315.474-.475.924-.979 1.36-1.491 1.173-1.303 2.249-2.715 3.362-4.068.303-.365.605-.722.916-1.075a15.546 15.546 0 0 1 4.152-3.362c.815-.42 1.668-.766 2.546-1.033 1.302-.42 2.647-.731 3.954-1.143a32.483 32.483 0 0 0 5.205-2.185 80.063 80.063 0 0 0 8.404-5.21l.42-.273c.905-.57 1.743-1.24 2.5-1.996.134-.147.265-.298.386-.454.656-.84 1.08-1.836 1.681-2.71a8.718 8.718 0 0 1 2.357-2.273c2.593-1.744 6.034-2.407 9.114-3.361h.033a35.42 35.42 0 0 0 14.357-8.525l2.303 5.638c-.238.667-.464 1.34-.676 2.021-.513 1.68-.933 3.412-1.937 4.832-.332.377-.58.82-.732 1.298a4.202 4.202 0 0 1-.172 1.042c-.143.286-.441.475-.563.77-.176.42.055.962-.18 1.357a2.134 2.134 0 0 1-.4.42c-.6.533-.76 1.374-.76 2.138a7.492 7.492 0 0 1-.19 2.32c.176-.104.357-.198.543-.282-.027.139-.043.28-.046.42a4.68 4.68 0 0 0 .147 1.181c.285.874.699 1.7 1.227 2.454.396.658.835 1.29 1.315 1.89a17.227 17.227 0 0 0 2.781 2.488l4.235 3.269-.42 1.769c-.924 3.706-1.857 7.458-1.903 11.281.012 1.81.126 3.619.34 5.416l.366 3.69c.294 2.97.588 5.94.912 8.911.205 1.878.42 3.782 1.084 5.555 1 2.693-.105 5.735.319 8.584.336 2.23 1 4.538.332 6.693-.269.84-.74 1.647-1.084 2.479-.862 2.067-.95 4.366-1.021 6.605a28.071 28.071 0 0 0 .214 5.882c.361 2.009 1.16 3.98 1.004 6.017-.218 2.895-2.336 5.37-2.592 8.265-.206 2.307.798 4.538 1.878 6.584.794 1.508-.315 3.458-.735 5.118-.84 3.256.554 6.66 2.256 9.546a.47.47 0 0 0 .214.227c.194.071.374-.122.5-.286.126-.164.164-.202.252-.298 0 .13.026.26.034.386 0 .273.021.546.021.84a8.445 8.445 0 0 0 .571 3.11c.068.192.147.38.236.563.104.246.246.474.42.676a2.567 2.567 0 0 0 1.68.706c1.396.151 2.799-.139 4.202-.26 1.48-.126 2.962-.072 4.446-.105a.643.643 0 0 0 .332-.072.567.567 0 0 0 .189-.302 3.361 3.361 0 0 0 .071-1.656 11.74 11.74 0 0 0-.315-1.315 54.886 54.886 0 0 1-.643-2.492l.067.03c.905-2.034 1.811-4.067 2.719-6.101.458-1.03.924-2.143.697-3.248-.164-.79-.668-1.458-1.025-2.18-.84-1.706-.874-3.698-.886-5.606l-.05-10.806c2.1-2.673 3.398-5.853 4.2-9.173a29.668 29.668 0 0 1 .249 14.286 13.307 13.307 0 0 0-.4 2.177c-.163 2.995 2.169 5.533 2.79 8.466.058.225.073.458.047.69a2.584 2.584 0 0 1-.345.797c-1.118 2.047-.996 4.517-.84 6.845l.491.08c.122.217.302.395.521.512.204.12.423.21.652.27.805.187 1.624.312 2.45.373 1.184.118 2.373.236 3.562.311.47.03.941.055 1.412.067.66 0 1.32.047 1.975.139.715.15 1.417.353 2.1.61 3.064 1.024 6.492 1.609 9.459.331a4.26 4.26 0 0 0 1.727-1.222 2.034 2.034 0 0 0-.509-3.16l-.033.012zM92.184 141.9c.446.887.892 1.77 1.261 2.69.727 1.78 1.168 3.78.706 5.638-.134.546-1.012.966-1.008 1.53a1.26 1.26 0 0 0-.067.13l-2.744-6.723a23.983 23.983 0 0 1 1.853-3.265zm-3.012 14.286a11.626 11.626 0 0 1-1.487-2.567c-.05-.114-.105-.223-.156-.336.156-.065.294-.168.4-.299.42-.53.193-1.302.256-1.983.1-.601.328-1.174.668-1.68l2.576 6.302c-.26.683-.505 1.374-.732 2.071a14.706 14.706 0 0 1-1.525-1.508z"/>
        <path fill="#464353" d="M98.24 99.462c-.047.878.39 1.68.647 2.521a8.92 8.92 0 0 1-.122 4.933c-.47 1.68-1.26 3.458-.66 5.1.139.387.349.74.475 1.127.52 1.596-.446 3.277-1.504 4.584l4.155 2.912a4.777 4.777 0 0 0 2.1 1.004c.778.092 1.682-.324 1.841-1.088.055-.26 0-.534.05-.799a2.168 2.168 0 0 1 1.165-1.613 3.807 3.807 0 0 1 2.012-.374c2.55.139 4.719 1.815 7.038 2.89a28.31 28.31 0 0 0 4.735 1.572c.92.24 1.941.458 2.773 0 .832-.458 1.215-1.52 1.152-2.483a8.122 8.122 0 0 0-.883-2.735 6.958 6.958 0 0 1-.81-2.752c0-1.412.772-2.698 1.033-4.085.366-1.97-.378-3.974-1.286-5.764-.907-1.79-2.008-3.513-2.45-5.462a7.983 7.983 0 0 0-.457-1.727 3.933 3.933 0 0 0-.84-1.126c-1.56-1.542-3.782-2.273-5.959-2.433-2.176-.16-4.374.197-6.533.571a13.66 13.66 0 0 0-2.425.576 15.4 15.4 0 0 0-3.189 1.727c-.983.68-1.995 1.676-2.059 2.924z"/>
        <g fill="#000" opacity=".1">
            <path d="M122.39 113.4c0 .125 0 .251.026.373.13-1.231.777-2.386 1.008-3.618.09-.493.116-.995.08-1.495 0 .218-.042.42-.08.655-.264 1.387-1.05 2.672-1.033 4.084zM99.168 103.664a7.525 7.525 0 0 0-.281-2.521 14.613 14.613 0 0 1-.61-1.958c0 .088-.033.172-.038.26-.046.879.391 1.681.648 2.521.162.553.256 1.123.281 1.698zM124.059 119.517a2.403 2.403 0 0 1-1.126 1.853c-.84.458-1.853.24-2.773 0a27.95 27.95 0 0 1-4.736-1.576c-2.319-1.071-4.487-2.748-7.037-2.886a3.807 3.807 0 0 0-2.013.374 2.168 2.168 0 0 0-1.164 1.613c-.03.265 0 .538-.05.798-.164.765-1.063 1.18-1.84 1.089a4.777 4.777 0 0 1-2.102-1.005l-3.735-2.622c-.138.19-.277.374-.42.547l4.155 2.916a4.777 4.777 0 0 0 2.101 1.004c.778.092 1.681-.324 1.84-1.088.055-.26 0-.534.051-.799a2.168 2.168 0 0 1 1.164-1.613 3.807 3.807 0 0 1 2.013-.374c2.55.139 4.718 1.815 7.037 2.886a27.95 27.95 0 0 0 4.736 1.576c.92.24 1.94.458 2.773 0 .832-.458 1.214-1.52 1.151-2.483-.004-.072-.017-.139-.025-.21zM98.58 113.122c.052.169.09.342.113.517.065-.455.027-.92-.113-1.357-.126-.387-.336-.74-.475-1.127a3.513 3.513 0 0 1-.193-.87 3.95 3.95 0 0 0 .193 1.71c.139.387.349.744.475 1.127z"/>
        </g>
        <path fill="#464353" d="M103.513 272.555a.55.55 0 0 1-.194.302.643.643 0 0 1-.332.072c-1.495.033-2.991 0-4.483.105-1.412.121-2.828.42-4.235.26a2.172 2.172 0 0 1-2.1-1.382 5.492 5.492 0 0 1-.236-.563 8.366 8.366 0 0 1-.576-3.11v-.84a6.374 6.374 0 0 0-.122-.916 1.39 1.39 0 0 1 .042-1.063c.597-1.088 2.038-1.307 3.147-1.39a25.987 25.987 0 0 1 7.668.562 75.194 75.194 0 0 0 1.21 4.984c.132.432.239.87.32 1.315a3.361 3.361 0 0 1-.11 1.664z"/>
        <path fill="#000" d="M103.513 272.555a.55.55 0 0 1-.194.302.643.643 0 0 1-.332.072c-1.495.033-2.991 0-4.483.105-1.412.121-2.828.42-4.235.26a2.172 2.172 0 0 1-2.1-1.382 5.492 5.492 0 0 1-.236-.563h.538c1.768 0 3.542-.063 5.31-.063.534 0 1.072-.025 1.601-.089.53-.063.963-.15 1.446-.21.723-.069 1.45-.098 2.176-.088h.597c.11.55.079 1.12-.088 1.656z" opacity=".06"/>
        <path fill="#464353" d="M134.458 264.752a4.298 4.298 0 0 1-1.74 1.223c-2.991 1.26-6.45.693-9.537-.332-.691-.257-1.4-.46-2.122-.61a14.286 14.286 0 0 0-1.988-.138c-.474 0-.95-.038-1.424-.067-1.202-.076-2.4-.194-3.592-.311a16.231 16.231 0 0 1-2.471-.374 2.626 2.626 0 0 1-.66-.269 1.013 1.013 0 0 1-.605-.903c.034-.534.589-.84 1.076-1.072 4.323-1.87 9.021-2.68 13.685-3.332.474-.079.936-.22 1.374-.42.525-.21.58.135.84.521.123.179.264.345.42.496a5 5 0 0 0 1.748 1.025c1.135.42 2.349.534 3.483.933.344.119.672.277.98.47a2.025 2.025 0 0 1 .512 3.16h.021z"/>
        <path fill="#000" d="M134.458 264.752a4.298 4.298 0 0 1-1.74 1.223c-2.991 1.26-6.45.693-9.537-.332-.691-.257-1.4-.46-2.122-.61a14.286 14.286 0 0 0-1.988-.138c-.474 0-.95-.038-1.424-.067.387-.366.782-.723 1.185-1.067a3.53 3.53 0 0 1 .996-.656c.456-.15.943-.183 1.416-.097 2.403.332 4.563 2.017 6.987 1.87a8.597 8.597 0 0 0 3.214-1.038 5.61 5.61 0 0 0 2.101-1.495c.174-.226.306-.48.391-.753a2.025 2.025 0 0 1 .513 3.16h.008z" opacity=".06"/>
        <path fill="#FBBEBE" d="M133.613 191.731c-.42.84-.958 1.752-1.865 2.013-1.32.378-2.588-.807-3.164-2.05a8.857 8.857 0 0 1-.42-5.782c.24-.97.605-1.904.81-2.878.15-.82.24-1.65.27-2.484a15.18 15.18 0 0 0-.089-3.73c-.676-3.61-3.781-6.303-4.815-9.85-.52-1.768-.495-3.65-.466-5.495-.01-.467.038-.932.143-1.387.031-.124.073-.245.126-.361.693-1.538 2.748-1.748 4.176-2.643.79-.492 2.584-2.076 3.248-.63.144.322.25.658.32 1.004.273 1.286.163 2.794.23 4.008.257 4.589 1.4 9.168.87 13.731a14.324 14.324 0 0 0-.184 2.353c.113 1.975 1.348 3.685 1.915 5.576.874 2.845.173 5.941-1.105 8.605z"/>
        <path fill="#000" d="M131.908 157.466a1.416 1.416 0 0 0-.967 0l-2.844.84c-.997.267-1.969.62-2.904 1.055a6.81 6.81 0 0 0-1.155.719c.031-.124.073-.245.126-.362.693-1.537 2.748-1.747 4.176-2.642.79-.492 2.584-2.076 3.248-.63.145.327.252.67.32 1.02z" opacity=".1"/>
        <path fill="#464353" d="M132.092 157.147a1.286 1.286 0 0 0-1.15-.092l-2.845.84c-.997.266-1.969.619-2.904 1.055-.496.241-.96.543-1.382.899-1.328-2.307-1.68-5.042-1.924-7.69a95.41 95.41 0 0 1-.295-4.621 20.731 20.731 0 0 1 .068-3.311c.16-1.26.525-2.492.752-3.744.135-.733.222-1.474.26-2.218.11-1.627.035-3.26-.222-4.87a30.185 30.185 0 0 0-1.168-5.042c-.27-.752-.593-1.48-.887-2.219l-.1-.26a30.63 30.63 0 0 1-1.3-4.164c-.134-.58-.142-1.189-.587-1.584.418-.05.84-.067 1.26-.05h.252a9.424 9.424 0 0 1 4.807 1.68 11.231 11.231 0 0 1 3.983 5.27c.887 2.365 1.034 4.936 1.147 7.461.227 4.964.367 9.93.42 14.9 0 .953.042 1.97.589 2.756.153.193.293.397.42.61.197.42.168.886.327 1.31.118.255.251.502.4.74a2.71 2.71 0 0 1 .08 2.344z"/>
        <path fill="#FBBEBE" d="M104.126 107.828c-.42-.139-.84-.286-1.26-.42l.873.067c.146.098.276.217.387.353zM121.332 122.992c-.084.285-.168.571-.26.84-.214.69-.474 1.366-.778 2.02a9.403 9.403 0 0 1-1.987 2.883 2.639 2.639 0 0 1-.992.656 3.151 3.151 0 0 1-.975.092c-1.12 0-2.24-.017-3.361-.05-.872.01-1.743-.077-2.597-.257a9.273 9.273 0 0 1-2.647-1.193c-3.138-1.941-5.718-4.899-6.823-8.403-.139-.446-.236-.98.071-1.328a1.626 1.626 0 0 1 1.072-.365h.05a6.769 6.769 0 0 0 2.559-.879 2.63 2.63 0 0 0 1.168-1.193c.17-.61.157-1.255-.038-1.857l-.933-4.235a4.387 4.387 0 0 0-.743-1.887c.273.097.546.185.84.26 2.597.702 5.437.278 7.983 1.198.975.357 1.95 1 2.244 2 .491 1.68-1.151 3.424-.68 5.105.314 1.143 1.478 1.803 2.52 2.336l.702.357 1.945.988.27.134.041.021c.614.311 1.26.698 1.475 1.357.091.47.048.955-.126 1.4z"/>
        <path fill="#000" d="M126.458 132.857a9.071 9.071 0 0 1-.773 3.11 12.702 12.702 0 0 0-1.324 5.462c-.323 5.672-2.479 12.424.61 17.189.075.117.15.235.222.357-.496.241-.96.543-1.382.899-1.328-2.307-1.68-5.042-1.924-7.69a95.41 95.41 0 0 1-.295-4.621 20.731 20.731 0 0 1 .068-3.31c.16-1.261.525-2.492.752-3.745.135-.733.222-1.474.26-2.218.11-1.627.035-3.26-.222-4.87a30.185 30.185 0 0 0-1.168-5.042c-.27-.752-.593-1.479-.887-2.218l-.1-.26a9.403 9.403 0 0 1-1.988 2.882 2.639 2.639 0 0 1-.992.655 3.151 3.151 0 0 1-.975.092c-1.12 0-2.24-.016-3.361-.05-.872.01-1.743-.076-2.597-.256a9.273 9.273 0 0 1-2.647-1.194c-3.138-1.94-5.718-4.899-6.823-8.403-.139-.445-.236-.979.071-1.328a1.626 1.626 0 0 1 1.072-.365h.05l3.782 4.676a7.563 7.563 0 0 1 1.092 1.635.975.975 0 0 0 .336.5c.132.06.276.086.42.075h11.832a3.071 3.071 0 0 0-.52-1.769c-.11.026-.257.034-.03-.033a11.908 11.908 0 0 0-1.303-3.895 2.71 2.71 0 0 0-.13-.244 4.479 4.479 0 0 1-.622-1.361c.448-.143.93-.143 1.378 0 .517.222.786.781 1.013 1.298.193.42.386.87.559 1.311 0 .046.042.097.059.143.366.87.601 1.788.697 2.727.025.344.11.781.395.895.045.02.094.032.143.033a1.588 1.588 0 0 1 1.718.42c.414.474.703 1.043.84 1.656s.337 1.21.597 1.782c.542 1.033-.285 1.495.694 2.13.457.252.851.605 1.15 1.033.278.597.366 1.264.253 1.912zM102.055 264.61c.197.966.42 1.924.655 2.882l-.025.058c-1.92-.84-3.887-1.718-5.983-1.903-1.946-.168-4.06.357-5.383 1.769a6.374 6.374 0 0 0-.122-.916 1.39 1.39 0 0 1 .042-1.063c.597-1.088 2.038-1.307 3.148-1.39a25.987 25.987 0 0 1 7.668.562z" opacity=".1"/>
        <path fill="#000" d="M118.605 123.82c.198 0 .126 0 .03.033-.097.034-.257.034-.03-.034zM127.735 259.164a36.496 36.496 0 0 0-5.26 4.071 5.508 5.508 0 0 1-1.66 1.215 4.849 4.849 0 0 1-2 .205 68.067 68.067 0 0 1-7.89-.781 1.013 1.013 0 0 1-.606-.903c.034-.534.589-.84 1.076-1.072 4.323-1.87 9.021-2.68 13.685-3.332.474-.079.936-.22 1.374-.42.525-.21.58.135.84.521.13.18.278.346.441.496z" opacity=".1"/>
        <path fill="#EA0B4B" d="M96.908 118.945c.617.55 1.323.996 1.95 1.53 1.68 1.424 2.739 3.416 3.78 5.357a3.504 3.504 0 0 1-1.928.13 13.832 13.832 0 0 0 .164 5.618 5.21 5.21 0 0 0-1.878 2.332 15.588 15.588 0 0 0-.614 2.94c-.605 4.373-1.213 8.746-1.823 13.119-.012.428-.16.84-.42 1.18-.117.094-.224.2-.32.315-.128.283-.179.595-.147.904-.025.306-.227.672-.533.63a.664.664 0 0 1-.374-.244 8.58 8.58 0 0 1-.84-1.042c-2.48 4.757-3.673 9.883-4.984 15.084-.937 3.706-1.874 7.454-1.92 11.278.013 1.808.126 3.615.34 5.411l.37 3.69c.298 2.966.597 5.936.92 8.903.21 1.882.42 3.781 1.097 5.554 1.008 2.694-.11 5.732.32 8.58.335 2.231 1.003 4.538.331 6.69-.269.86-.74 1.646-1.092 2.478-.866 2.068-.954 4.366-1.03 6.605a27.731 27.731 0 0 0 .219 5.883c.361 2.012 1.172 3.983 1.012 6.017-.222 2.895-2.357 5.37-2.617 8.26-.206 2.307.806 4.534 1.895 6.58.802 1.508-.315 3.458-.74 5.118-.84 3.252.559 6.655 2.273 9.542.044.099.121.179.219.226.197.072.374-.121.504-.285 1.29-1.656 3.576-2.282 5.672-2.101 2.097.18 4.06 1.046 5.983 1.903l2.727-6.071c.463-1.03.933-2.143.702-3.248-.164-.79-.672-1.458-1.034-2.18-.84-1.707-.882-3.694-.89-5.606l-.05-10.798c2.125-2.672 3.424-5.849 4.243-9.168a29.412 29.412 0 0 1 .252 14.286c-.202.712-.342 1.44-.42 2.176-.164 2.996 2.185 5.53 2.81 8.462.061.225.079.458.051.69-.07.283-.188.553-.349.798-1.126 2.042-1.004 4.516-.84 6.844 2.947.513 5.924.832 8.912.954a5.008 5.008 0 0 0 2-.206 5.521 5.521 0 0 0 1.66-1.218 36.647 36.647 0 0 1 6.247-4.727 14.546 14.546 0 0 0-5.105-5.042c.677-.996 2.219-.916 3.118-1.715a2.941 2.941 0 0 0 .84-1.655c.337-1.647-.08-3.361-.495-4.98-.807-3.184-1.618-6.381-2.942-9.39a36.084 36.084 0 0 1-1.58-3.802c-1.1-3.622-.331-7.563-1.163-11.265-.27-1.185-.702-2.408-.4-3.588.463-1.82 2.522-2.9 2.975-4.723 1.626-6.492 1.916-13.219 2.84-19.845.207-1.265.318-2.545.333-3.827 0-1.34-.24-2.668-.336-4.004-.379-5.35 1.331-10.685.894-16.03a20.168 20.168 0 0 0-3.16-9.244c-3.087-4.769-.932-11.516-.608-17.189a12.639 12.639 0 0 1 1.319-5.462 8.962 8.962 0 0 0 .777-3.11c.13-.662.047-1.348-.235-1.961a3.315 3.315 0 0 0-1.147-1.034c-.98-.639-.151-1.1-.693-2.134a8.966 8.966 0 0 1-.597-1.782 3.748 3.748 0 0 0-.84-1.651 1.588 1.588 0 0 0-1.719-.42c-.399 0-.508-.53-.542-.929-.113-1.462-.718-2.836-1.31-4.18-.228-.517-.497-1.076-1.013-1.299-.45-.14-.933-.14-1.383 0 .13.487.342.95.626 1.366a11.866 11.866 0 0 1 1.429 4.134c-.42.126.42 0 0 0 .376.524.57 1.158.55 1.803h-11.827a.84.84 0 0 1-.42-.076 1.008 1.008 0 0 1-.341-.5 7.281 7.281 0 0 0-1.092-1.63l-4.16-5.13a1.05 1.05 0 0 0-.357-.324.966.966 0 0 0-.525 0c-1.35.197-2.345.76-3.521 1.445z"/>
        <path fill="#000" d="M111.836 188.458a4.008 4.008 0 0 1 2.046.53 2.063 2.063 0 0 1 1.017 1.773c-.046.794-.655 1.424-1.096 2.1a5.63 5.63 0 0 0-.648 1.328.534.534 0 0 0-.033.34c.05.16.223.24.37.311a3.155 3.155 0 0 1 1.853 2.757c-.038 1.638-1.64 2.966-1.55 4.621.04.345.098.687.176 1.026a7.832 7.832 0 0 1-.568 4.155c-.508 1.32-1.201 2.559-1.748 3.866-1.474 3.55-1.794 7.483-1.68 11.344.088 2.622-.84 5.118-1.68 7.614.474-5.028.6-10.082.377-15.126-.059-1.37-.23-2.664-.168-4.038.101-2.18 1.32-4.164 1.63-6.303.177-1.222.06-2.466.089-3.701.059-2.521.743-5.009.79-7.538.058-1.786-.105-3.626.823-5.059z" opacity=".1"/>
        <path fill="#464353" d="M94.303 119.845c-.836.416-1.617.932-2.328 1.537a9.916 9.916 0 0 0-1.84 2.521 32.202 32.202 0 0 0-1.56 3.26c-.592 1.446-1.083 3.047-.676 4.555.37 1.366 1.416 2.43 2.139 3.643.723 1.215 1.147 2.639 1.701 3.97.74 1.778 1.753 3.434 2.484 5.215.73 1.782 1.172 3.782.71 5.635-.135.546-1.021.97-1.021 1.53 0 .923 1.336 1.928 2.222 2.197 1.021.315 2.135-.156 2.971-.84 1.534-1.215 2.466-3.034 3.156-4.866 1.109-2.941 1.701-6.063 2.235-9.164.386-2.277.748-4.559.954-6.853.189-2.067.247-4.202-.299-6.185a10.504 10.504 0 0 0-2.87-4.773c-1.092-1.05-2.882-2.462-4.47-2.5-1.256-.004-2.433.525-3.508 1.118z"/>
        <path fill="#FBBEBE" d="M106.248 170.496a2.008 2.008 0 0 1-.937 1.399 5.517 5.517 0 0 1-1.6.655c-1.127.328-2.32.63-3.459.34a6.941 6.941 0 0 1-2.428-1.382l-12.723-9.74a17.18 17.18 0 0 1-2.803-2.486c-.482-.6-.926-1.23-1.327-1.887a9.244 9.244 0 0 1-1.236-2.454 4.492 4.492 0 0 1-.151-1.18c-.003-.377.09-.749.269-1.08.307-.513.962-.618 1.5-.76a15.74 15.74 0 0 1 5.534-.421.752.752 0 0 1 .747.508c.282.517.526 1.055.778 1.593.387.917.89 1.78 1.5 2.567.586.638 1.21 1.24 1.87 1.803 1.344 1.26 2.445 2.773 3.878 3.932 1.66 1.34 3.676 2.143 5.567 3.13 1.89.988 3.756 2.27 4.706 4.181.22.39.33.834.315 1.282z"/>
        <path fill="#000" d="M120.975 102.546a10.403 10.403 0 1 1-20.807.004 10.403 10.403 0 0 1 20.807-.004z" opacity=".1"/>
        <path fill="#FBBEBE" d="M120.975 102.126a10.403 10.403 0 1 1-20.807.004 10.403 10.403 0 0 1 20.807-.004z"/>
        <path fill="#000" d="M88.412 153.584c-.48.307-1.19.206-1.782.071-2.336-.52-4.916-.894-7.046.106-.003-.377.09-.749.269-1.08.307-.513.962-.618 1.5-.76a15.74 15.74 0 0 1 5.534-.421.752.752 0 0 1 .747.508c.282.5.526 1.038.778 1.576z" opacity=".1"/>
        <path fill="#464353" d="M84.021 139.437c-.517 1.68-.941 3.408-1.954 4.832a3.571 3.571 0 0 0-.74 1.294c-.01.353-.069.704-.172 1.042-.142.286-.445.475-.567.769-.18.42.055.962-.185 1.357-.112.159-.246.3-.399.42-.571.53-.714 1.374-.727 2.156-.012.781.063 1.58-.193 2.315 2.219-1.324 5.042-.929 7.563-.366.702.156 1.571.273 2.025-.29.454-.563.194-1.302.257-1.979.084-.882.689-1.613 1.063-2.416.42-.903.563-1.911.886-2.853.668-1.979 2.101-3.592 3.021-5.462.34-.643.544-1.35.597-2.075a6.193 6.193 0 0 0-.719-2.694 36.84 36.84 0 0 0-3.109-5.55c-.534-.786-1.454-2.24-2.281-.983-.673 1.012-1.093 2.302-1.589 3.412a62.445 62.445 0 0 0-2.777 7.071zM121.933 123.126a8.492 8.492 0 0 1-6.799-2.685 1.042 1.042 0 0 1-.302-.491.987.987 0 0 1 .193-.69c.504-.777 1.374-1.29 1.778-2.126.403-.836.264-1.798.302-2.714.067-1.643.714-3.269.769-4.886a5.105 5.105 0 0 0-.092-1.236 7.744 7.744 0 0 1-.353-1.861c.054-1.231 1.163-2.19 1.348-3.403.24-1.547-1.042-2.891-2.332-3.782a13.895 13.895 0 0 0-3.176-1.643 10.34 10.34 0 0 0-2.135-.517 8.32 8.32 0 0 0-4.02.45c-.532.2-1.034.469-1.496.798a2.025 2.025 0 0 0-.668.694c-.135.316-.195.66-.177 1.004-.025 1.718.168 3.546-.651 5.042-.42.802-1.135 1.454-1.483 2.302a3.828 3.828 0 0 0-.265 1.105c-.042.394-.063.79-.063 1.185-.025 2.215 0 4.55 1.126 6.47.397.581.758 1.186 1.08 1.812a2.063 2.063 0 0 1-.105 2.012 2.29 2.29 0 0 1-.84.63 6.723 6.723 0 0 1-5.375.194 6.81 6.81 0 0 0 1.589-7.597 4.483 4.483 0 0 1-.58-1.68 4.265 4.265 0 0 1 .42-1.538 8.403 8.403 0 0 0 .256-4.925c-.256-1-.701-1.966-.781-2.995a9.063 9.063 0 0 1 .1-2.328 7.563 7.563 0 0 1 5.181-5.962c.215-.072.42-.139.656-.198 1.02-.226 2.06-.337 3.105-.332 2.332-.075 4.697-.143 6.945.467a9.32 9.32 0 0 1 3.597 1.848 6.492 6.492 0 0 1 1.74 2.299c.218.51.383 1.043.491 1.588.097.45.168.903.24 1.357.508 3.231 1.016 6.525.474 9.752-.214 1.26-.588 2.521-.756 3.807-.408 2.962.328 5.908 1.059 8.773z"/>
        <circle cx="107.004" cy="126.496" r="1" fill="#FFF"/>
        <circle cx="120.193" cy="126.126" r="1" fill="#FFF"/>
        <path fill="#000" d="M107.004 87l-1.68-3.172c.106-.127.223-.245.348-.353.243-.15.527-.217.811-.193l.521 3.718zM111.639 83.134l-1.904 2.816-1.084-3.089a3.437 3.437 0 0 1 1.467-.277 4.874 4.874 0 0 1 1.52.55z" opacity=".1"/>
        <g fill="#000" opacity=".1">
            <path d="M104.412 119.134a2.29 2.29 0 0 1-.84.63 6.752 6.752 0 0 1-4.778.4 6.542 6.542 0 0 1-.597.634 6.723 6.723 0 0 0 5.374-.193 2.29 2.29 0 0 0 .84-.63 1.81 1.81 0 0 0 .27-1.454 1.492 1.492 0 0 1-.27.613zM99.853 105.063c.137.55.217 1.114.24 1.68a8.374 8.374 0 0 0-.24-2.52c-.256-1-.702-1.967-.782-2.996 0-.13 0-.26-.02-.395-.02.412-.014.824.02 1.235.08 1.03.526 1.996.782 2.996zM121.6 110.559c.18-1.111.255-2.236.228-3.362-.015.845-.09 1.688-.227 2.521-.214 1.261-.588 2.521-.756 3.807a13.26 13.26 0 0 0-.097 2.08c.011-.414.044-.828.097-1.24.168-1.285.542-2.533.756-3.806zM99.769 112.361a6.908 6.908 0 0 1-.53-1.298 1.9 1.9 0 0 0-.05.462c.08.594.276 1.165.58 1.68.308.705.486 1.46.525 2.228a6.513 6.513 0 0 0-.525-3.072zM117.782 108.282c.036.191.063.385.08.58v-.186a5.105 5.105 0 0 0-.093-1.235c-.093-.441-.244-.878-.315-1.323-.021.1-.034.2-.038.302.045.633.168 1.258.366 1.862zM115.134 119.584a2.214 2.214 0 0 1-.18-.214.87.87 0 0 0-.122.563c.052.189.157.36.302.491a8.492 8.492 0 0 0 6.799 2.685c-.072-.277-.143-.55-.21-.84a8.479 8.479 0 0 1-6.589-2.685zM118.769 102.235a.18.18 0 0 1 0-.046c.24-1.546-1.042-2.89-2.332-3.781a13.895 13.895 0 0 0-3.176-1.643 10.34 10.34 0 0 0-2.135-.517 8.32 8.32 0 0 0-4.021.45c-.531.2-1.034.468-1.496.798a2.025 2.025 0 0 0-.668.693c-.134.317-.195.66-.176 1.004v.874-.033a2.256 2.256 0 0 1 .176-1.005c.164-.281.393-.519.668-.693.462-.33.965-.598 1.496-.798a8.32 8.32 0 0 1 4.021-.45c.728.096 1.443.27 2.135.517 1.125.409 2.192.96 3.176 1.643 1.071.723 2.126 1.765 2.332 2.987zM104.122 104.248c-.42.802-1.135 1.454-1.483 2.302a3.828 3.828 0 0 0-.265 1.105c-.042.394-.063.79-.063 1.185V109.68c0-.395.02-.79.063-1.184.033-.38.122-.752.265-1.105.348-.84 1.046-1.5 1.483-2.303.676-1.26.664-2.71.651-4.151a7.008 7.008 0 0 1-.651 3.31z"/>
        </g>
        <path fill="#000" d="M120.887 99.466a1.223 1.223 0 0 1-.202.223 1.924 1.924 0 0 1-.492.294c-1.222.53-1.172-1.197-1.81-1.79a2.172 2.172 0 0 0-1.42-.42c-1.23-.062-2.462-.116-3.694-.164a103.733 103.733 0 0 0-6.156-.067c-.983.017-1.963.057-2.94.122-1.135.075-2.354.223-3.32.76-.33.182-.63.416-.887.694-.23.252-.474.571-.794.63a7.563 7.563 0 0 1 5.18-5.962 10.4 10.4 0 0 1 14.287 1.785 6.492 6.492 0 0 1 1.74 2.299c.224.513.395 1.048.508 1.596z" opacity=".1"/>
        <path fill="#FED253" d="M120.193 99.143c-1.222.53-1.172-1.198-1.81-1.79a2.172 2.172 0 0 0-1.42-.42c-4.259-.28-8.529-.317-12.79-.11-1.518.101-3.181.328-4.202 1.454-.26.286-.534.656-.925.643-.13-.84-.222-1.714-.285-2.575a2.866 2.866 0 0 1 .05-.967c.105-.361.344-.668.466-1.02.12-.45.163-.916.126-1.379a9.958 9.958 0 0 1 4.9-8.47 4.45 4.45 0 0 0 1.02-.69c.107-.127.224-.245.35-.353.242-.15.526-.217.81-.193h.597a5.424 5.424 0 0 0 1.575-.42 3.437 3.437 0 0 1 1.467-.277 4.874 4.874 0 0 1 1.52.55c.228.11.466.195.71.256.383.089.778.084 1.16.16a5.66 5.66 0 0 1 1.74.773 8.298 8.298 0 0 1 1.748 1.26 7.735 7.735 0 0 1 1.353 2.202c.556 1.112.98 2.285 1.26 3.496.34 1.74.173 3.622.98 5.202.491.991.94 2.092-.4 2.668z"/>
        <path fill="#000" d="M98.895 97.824s8.71-7.925 21.68-1.353c0 0-14.642-3.332-21.68 1.353z" opacity=".1"/>
        <path fill="url(#b)" d="M3.987 138.315c-1.184-1.941-2.966-3.718-2.689-5.92 3.26.374 6.353-.42 9.34-1.803 2.988-1.382 5.761-3.176 8.56-4.937 1.1-.693 2.197-1.373 3.29-2.004 1.73-.991 3.449-2.1 5.21-3.071 2.52-1.387 5.092-2.521 7.924-2.74.513-.04 1.028-.052 1.542-.037 3.487.067 7.1 1.004 10.168-.56l.189-.1c1.74-.954 3.004-2.576 4.496-3.89a20.08 20.08 0 0 1 3.483-2.421c2.265-1.26 4.718-2.269 7.034-3.458a10.668 10.668 0 0 0 1.68-1.076l.395-.315.088-.075c.097-.08.194-.16.286-.244l.18-.16.186-.168.143-.134.23-.219.026-.03.365-.36.148-.148.256-.264.151-.152c.256-.264.513-.533.773-.794.26-.26.614-.613.929-.903l.302-.269.089-.076.243-.201.114-.097.24-.185.117-.092c.117-.088.24-.173.361-.257a2.63 2.63 0 0 1 .353-.205l-.786-1.904 2.26-.933 31.177 75.652-2.264.932-17.832-43.277-.126.126a35.798 35.798 0 0 1-14.744 8.773h-.034c-3.105.937-6.58 1.601-9.193 3.34a8.824 8.824 0 0 0-2.374 2.274c-.613.874-1.042 1.87-1.68 2.71a6.654 6.654 0 0 1-.391.45 14.61 14.61 0 0 1-2.521 2l-.4.273a81.714 81.714 0 0 1-8.445 5.205 33.32 33.32 0 0 1-5.248 2.185c-1.315.42-2.672.727-3.987 1.143-.885.268-1.744.614-2.567 1.034-2.227 1.164-3.937 2.987-5.555 4.933-1.416 1.705-2.76 3.512-4.315 5.067-.975.966-2.458 1.882-3.635 1.315l-.24-.139c.039-.063.068-.126.102-.193.928-1.945-.215-4.349-1.752-5.908a10.45 10.45 0 0 0-.492-.474c-.168-.152-.47-.42-.71-.63-1.315-1.13-2.714-2.181-3.626-3.64a11.87 11.87 0 0 1-1.395-3.953c-.42-1.98-.702-4.017-1.777-5.702-.706-1.113-1.757-2.063-2.521-3.13a4.769 4.769 0 0 1-.925-2.16c-.172-1.365.462-2.701.702-4.063.071-.37.1-.748.088-1.126a5.962 5.962 0 0 0-.996-2.815z"/>
        <path fill="#D6D8E1" d="M102.01 173.13l-2.227.918-30.657-74.38 2.226-.917z"/>
        <path fill="#F86D70" d="M8.39 151.345c1.055 1.66 1.337 3.66 1.744 5.605a11.807 11.807 0 0 0 1.374 3.89c.9 1.433 2.274 2.467 3.563 3.576.236.206.471.42.698.622.164.147.328.307.483.462 1.513 1.534 2.635 3.9 1.723 5.81a1.6 1.6 0 0 1-.097.19c.074.05.151.095.231.134 1.16.563 2.618-.336 3.576-1.29 1.53-1.529 2.853-3.302 4.244-4.978 1.588-1.916 3.273-3.71 5.462-4.853a15.126 15.126 0 0 1 2.52-1.017c1.29-.42 2.627-.719 3.92-1.122a32.996 32.996 0 0 0 5.16-2.147 80.895 80.895 0 0 0 8.32-5.122l.395-.269a14.433 14.433 0 0 0 2.479-1.962c.134-.143.265-.29.386-.445.647-.84 1.072-1.803 1.681-2.664a8.68 8.68 0 0 1 2.336-2.236c2.572-1.71 5.983-2.365 9.038-3.285h.034a35.269 35.269 0 0 0 14.495-8.626c.337-.282.589-.651.727-1.068.13-.592-.189-1.18-.495-1.701a99.735 99.735 0 0 1-1.05-1.849 82.559 82.559 0 0 1-4.913-10.676 80.117 80.117 0 0 1-2.24-6.837c-.029-.109-.062-.226-.092-.353-.697-2.802-1.63-9.36-4.504-7.399a16.626 16.626 0 0 0-2.374 2.063c-.559.568-1.105 1.152-1.68 1.715-.47.46-.964.894-1.484 1.298-.526.403-1.089.758-1.68 1.059-2.282 1.168-4.694 2.147-6.916 3.399a19.66 19.66 0 0 0-3.429 2.378c-1.466 1.294-2.71 2.89-4.42 3.828l-.185.1c-3.017 1.534-6.567.614-10 .547-.504-.013-1.01 0-1.512.038-2.786.21-5.332 1.327-7.795 2.693-1.73.958-3.42 2.042-5.121 3.02a90.183 90.183 0 0 0-3.236 1.972c-2.748 1.73-5.533 3.546-8.403 4.857-2.941 1.336-5.98 2.134-9.185 1.769-.273 2.163 1.475 3.911 2.643 5.819.56.82.901 1.77.987 2.76.016.37-.011.741-.08 1.105-.235 1.34-.84 2.652-.689 4 .12.77.43 1.496.904 2.114.73 1.046 1.76 1.983 2.458 3.076z"/>
        <path fill="#FBBEBE" d="M93.815 160.097s3.68 3.21 7.412 4.92c3.731 1.71 1.26 7.844 1.26 7.844s-3.953.908-6.722-2.94c-2.77-3.85-1.95-9.824-1.95-9.824z"/>
        <path fill="#444176" d="M292.151 214.74s-9.748 12.827-17.836 12.932c-8.088.105-12.836 5.404-8.996 8.715 3.84 3.31 45.69-1.891 45.69-1.891s.394-15.765-3.232-18.067c-3.626-2.303-15.626-1.69-15.626-1.69zM396.962 230.139s1.492 10.16-3.117 17.088c-4.61 6.928 8.327 9.6 8.327 9.6s9.4 2.618 10.084-6.667c.685-9.286.462-16.387-.42-17.143-.882-.756-1.618-5.98-1.618-5.98l-13.256 3.102z"/>
        <path fill="#A8A8A8" d="M249.4 249.328s-.341-32.862 32.176-46.219l7.55-14.365 3.622-8.824a21.47 21.47 0 0 1 15.164-12.798l5.857-1.315 1.81-7.63a21.462 21.462 0 0 1 17.148-16.194 60.046 60.046 0 0 1 10.798-1.008 9.294 9.294 0 0 1 7.895 4.622s30.807-.34 32.172 16.432c0 0 3.084 15.4 7.534 18.14 0 0 7.53-1.711 15.059 9.243l8.214 28.067s21.563 20.193 15.059 38.655c0 0-8.9 12.664-54.08 4.105 0 0-48.26 14.706-73.95-5.462-.004.026-42.785 8.24-52.029-5.45z"/>
        <path stroke="#000" d="M270.962 244.193s6.849-9.584 6.504-16.432c-.344-6.85 1.614-23.53 1.614-23.53M295.95 218.521s6.844-12.664 6.16-19.508c0 0 7.188-13.026 12.663-11.984M333.6 182.58s18.824-6.845 19.854-12.32M340.445 198.328s19.853-8.9 19.853-11.299h9.92s14.379 18.828 12.669 27.042M363.723 212.017s-19.168-1.37-26.017 4.109-19.168 8.214-19.168 8.214-7.19 15.404-9.929 18.139c-2.74 2.735-7.189 12.324-7.189 12.324M363.723 230.16s2.05 7.185 4.79 11.294c2.74 4.109 6.844 18.823 6.844 18.823M395.895 251.038s4.344 12.088 8.164 12.206" opacity=".1"/>
        <path stroke="#000" d="M367.437 199.151s11.286 3.05 16.004 10.441c4.719 7.391 19.13 14.093 19.13 14.093M372.277 162.74s0 15.743 4.45 15.743 14.378 1.71 14.378 1.71M350.47 144.042s-1.138 27.197-6.957 34.24" opacity=".1"/>
        <g fill="#000" opacity=".05">
            <path d="M413.693 217.151l-8.214-28.067c-7.53-10.954-15.059-9.244-15.059-9.244-4.45-2.74-7.53-18.143-7.53-18.143-1.369-16.773-32.176-16.428-32.176-16.428a9.294 9.294 0 0 0-7.911-4.622c-1.454 0-2.942.046-4.43.168.841.084 1.647.203 2.417.357l2.395 4.11s30.802-.345 32.172 16.428c0 0 3.084 15.403 7.534 18.143 0 0 7.53-1.714 15.059 9.244l8.214 28.067s21.563 20.193 15.059 38.655c0 0-4.391 6.248-22.656 7.005 24.626.903 30.185-7.005 30.185-7.005 6.504-18.474-15.059-38.668-15.059-38.668zM293.21 254.458a159.823 159.823 0 0 1-21.928 2.4c8.575.327 17.495-.602 23.243-1.392-.445-.34-.882-.668-1.315-1.008zM367.143 259.937a140.576 140.576 0 0 1-32.32 5.11c15.778.57 30.723-2.72 36.883-4.3-1.488-.247-2.996-.529-4.563-.81z"/>
        </g>
        <path fill="#A8A8A8" d="M93.634 313.324s9.416-.29 12.253-2.311c2.836-2.021 14.479-4.433 15.184-1.194.706 3.24 14.147 16.114 3.517 16.202-10.63.088-24.693-1.655-27.525-3.382-2.832-1.727-3.429-9.315-3.429-9.315z"/>
        <path fill="#000" d="M124.782 324.89c-10.63.089-24.698-1.655-27.53-3.36-2.155-1.316-3.017-6.03-3.302-8.202h-.316s.597 7.592 3.429 9.315c2.832 1.723 16.9 3.466 27.525 3.382 3.072-.025 4.13-1.117 4.072-2.735-.425.975-1.597 1.584-3.878 1.6z" opacity=".2"/>
        <path fill="#A8A8A8" d="M323.19 289.71s-11.09-2.218-14.043-5.176c-2.954-2.958-16.26-8.126-17.74-4.433-1.478 3.693-19.953 16.26-7.39 18.487 12.563 2.227 29.563 2.941 33.26 1.48 3.698-1.463 5.912-10.358 5.912-10.358z"/>
        <path fill="#000" d="M284.017 297.193c12.567 2.215 29.563 2.941 33.26 1.475 2.811-1.126 4.77-6.534 5.542-9.05l.37.08s-2.218 8.865-5.912 10.344c-3.693 1.479-20.693.74-33.26-1.479-3.626-.639-4.664-2.143-4.273-4.042.31 1.252 1.575 2.206 4.273 2.672z" opacity=".2"/>
        <path fill="#940016" d="M217.017 48.256h-2.639a1.849 1.849 0 1 0 0-3.697H193a1.849 1.849 0 1 0 0 3.697h2.639a1.849 1.849 0 0 0 0 3.694h-3.694a1.849 1.849 0 0 0 0 3.697h21.379a1.849 1.849 0 1 0 0-3.697h3.693a1.849 1.849 0 1 0 0-3.694zM300.05 113.303h-2.638a1.849 1.849 0 0 0 0-3.694h-21.4a1.849 1.849 0 1 0 0 3.694h2.64a1.849 1.849 0 0 0 0 3.693h-3.694a1.849 1.849 0 0 0 0 3.697h21.374a1.849 1.849 0 0 0 0-3.697h3.718a1.849 1.849 0 1 0 0-3.693zM177.013 101.269h-2.639a1.849 1.849 0 1 0 0-3.693h-21.382a1.849 1.849 0 1 0 0 3.693h2.638a1.849 1.849 0 1 0 0 3.693h-3.697a1.849 1.849 0 1 0 0 3.698h21.378a1.849 1.849 0 1 0 0-3.698h3.693a1.849 1.849 0 1 0 0-3.693h.009z" opacity=".1"/>
    </g>
</svg>
