<?xml version="1.0" encoding="UTF-8"?>
<svg width="19px" height="10px" viewBox="0 0 19 10" version="1.1" xmlns="http://www.w3.org/2000/svg" xmlns:xlink="http://www.w3.org/1999/xlink">
    <!-- Generator: Sketch 54.1 (76490) - https://sketchapp.com -->
    <title>arrow red copy</title>
    <desc>Created with Sketch.</desc>
    <g id="Health" stroke="none" stroke-width="1" fill="none" fill-rule="evenodd">
        <path d="M14.9906648,0.150392918 C14.8234304,-0.0501309728 14.5450964,-0.0501309728 14.3720148,0.150392918 C14.2047805,0.344142354 14.2047805,0.666606449 14.3720148,0.859904254 L17.5089249,4.49417397 L0.433093968,4.49417397 C0.191793188,4.4946256 0,4.71682775 0,4.99638696 C0,5.27594617 0.191793188,5.5053744 0.433093968,5.5053744 L17.5089249,5.5053744 L14.3720148,9.13286966 C14.2047805,9.33339355 14.2047805,9.65630928 14.3720148,9.84960708 C14.5450964,10.050131 14.8238203,10.050131 14.9906648,9.84960708 L18.8701888,5.35498148 C19.0432704,5.16123205 19.0432704,4.83876795 18.8701888,4.64547015 L14.9906648,0.150392918 Z" id="arrow-red-copy" fill="#EA0B4B" fill-rule="nonzero" transform="translate(9.500000, 5.000000) scale(-1, 1) translate(-9.500000, -5.000000) "></path>
    </g>
</svg>