<svg xmlns="http://www.w3.org/2000/svg" width="103" height="19" viewBox="0 0 103 19">
    <g fill="none" fill-rule="evenodd">
        <path fill="#D40A46" d="M35.284 16.673a.973.973 0 0 0-.968.971c0 .57.48.965.968.965.161 0 .318-.04.462-.122a.186.186 0 0 0 .09-.154.187.187 0 0 0-.19-.185.183.183 0 0 0-.103.03.52.52 0 0 1-.25.076c-.31 0-.575-.263-.575-.612 0-.345.265-.613.574-.613a.54.54 0 0 1 .254.076.187.187 0 0 0 .29-.154.186.186 0 0 0-.09-.155.964.964 0 0 0-.462-.123zm35.028.198v.616h-.881v-.616c0-.1-.086-.187-.192-.187a.192.192 0 0 0-.193.187v1.54c0 .1.087.188.193.188a.192.192 0 0 0 .192-.187v-.608h.88v.608a.193.193 0 0 0 .386 0v-1.54a.193.193 0 0 0-.385 0zm3.866-.19c-.072 0-.12.066-.15.125l-.717 1.546a.168.168 0 0 0-.017.076c0 .1.087.181.187.181a.193.193 0 0 0 .173-.108l.187-.404h.675l.19.404a.194.194 0 0 0 .17.111.19.19 0 0 0 .189-.184.219.219 0 0 0-.017-.076l-.716-1.546c-.031-.06-.078-.124-.154-.124zm0 .624l.22.478h-.437l.217-.478zm4.226-.613h-.51c-.123 0-.212.087-.212.206v1.524a.19.19 0 0 0 .192.187.19.19 0 0 0 .193-.187v-.566h.337c.435 0 .714-.253.714-.58 0-.323-.279-.584-.714-.584zm-.022.844h-.315v-.524h.315c.203 0 .362.063.362.263 0 .207-.159.26-.362.26zm4.084-.844h-.51c-.123 0-.212.087-.212.206v1.524a.19.19 0 0 0 .192.187.19.19 0 0 0 .192-.187v-.566h.338c.435 0 .713-.253.713-.58 0-.323-.278-.584-.713-.584zm-.023.844h-.315v-.524h.315c.204 0 .363.063.363.263 0 .207-.16.26-.363.26zm3.535-.852a.198.198 0 0 0-.198.193v1.54c0 .103.09.192.198.192.106 0 .195-.089.195-.192v-1.54a.197.197 0 0 0-.195-.193zm4.204 0a.196.196 0 0 0-.198.193v1.011l-.784-1.095a.25.25 0 0 0-.206-.109.17.17 0 0 0-.173.174v1.556c0 .103.09.193.198.193.106 0 .192-.09.192-.193v-1.022l.806 1.104c.048.07.114.113.204.113.078 0 .153-.062.153-.173v-1.56a.197.197 0 0 0-.192-.192zm3.247 1.581v-.464h.488c.092 0 .17-.073.17-.165 0-.09-.078-.16-.17-.16h-.488v-.458h.767c.092 0 .17-.073.17-.166 0-.086-.078-.16-.17-.16h-.951c-.123 0-.212.087-.212.206v1.486c0 .12.09.206.212.206h.978c.093 0 .17-.073.17-.165 0-.087-.077-.16-.17-.16h-.794zm4.173-1.592c-.34 0-.639.198-.639.505 0 .295.22.453.533.55l.086.027c.229.07.327.16.327.301 0 .171-.165.234-.302.234a.461.461 0 0 1-.34-.158.165.165 0 0 0-.14-.07.174.174 0 0 0-.172.17.16.16 0 0 0 .034.098c.153.174.365.28.618.28.288 0 .683-.182.683-.554 0-.268-.164-.477-.616-.626l-.086-.027c-.184-.068-.243-.117-.243-.225 0-.114.115-.187.257-.187.109 0 .203.027.267.092.031.043.078.062.134.062.09 0 .16-.067.16-.157a.156.156 0 0 0-.034-.106.715.715 0 0 0-.527-.209zm3.883 0c-.34 0-.639.198-.639.505 0 .295.22.453.533.55l.086.027c.229.07.327.16.327.301 0 .171-.165.234-.302.234a.461.461 0 0 1-.34-.158.165.165 0 0 0-.14-.07.174.174 0 0 0-.172.17.16.16 0 0 0 .034.098c.153.174.365.28.618.28.288 0 .683-.182.683-.554 0-.268-.164-.477-.616-.626l-.086-.027c-.184-.068-.243-.117-.243-.225 0-.114.115-.187.257-.187.109 0 .203.027.267.092.031.043.079.062.134.062.09 0 .16-.067.16-.157a.156.156 0 0 0-.034-.106.716.716 0 0 0-.527-.209zm-63.45 0a.975.975 0 0 0-.97.969c0 .572.483.967.97.967.492 0 .974-.395.974-.967 0-.573-.482-.969-.973-.969zm0 .356c.31 0 .57.246.57.613 0 .365-.265.612-.57.612-.3 0-.568-.246-.568-.612 0-.367.268-.613.569-.613zm3.704-.345a.196.196 0 0 0-.198.193v1.011l-.784-1.095a.25.25 0 0 0-.206-.109.17.17 0 0 0-.173.174v1.556c0 .103.09.193.198.193.106 0 .193-.09.193-.193v-1.022l.805 1.104c.048.07.115.113.204.113.078 0 .153-.062.153-.173v-1.56a.197.197 0 0 0-.192-.192zm2.97 0a.196.196 0 0 0-.198.193v1.011l-.784-1.095a.25.25 0 0 0-.206-.109.17.17 0 0 0-.173.174v1.556c0 .103.09.193.198.193.106 0 .192-.09.192-.193v-1.022l.806 1.104c.047.07.114.113.204.113.078 0 .153-.062.153-.173v-1.56a.197.197 0 0 0-.192-.192zm2.005 1.581v-.464h.488c.092 0 .17-.073.17-.165 0-.09-.078-.16-.17-.16h-.488v-.458h.766c.092 0 .17-.073.17-.166 0-.086-.078-.16-.17-.16h-.95c-.123 0-.212.087-.212.206v1.486c0 .12.089.206.212.206h.978c.092 0 .17-.073.17-.165 0-.087-.078-.16-.17-.16h-.794zm3.25-1.592a.973.973 0 0 0-.967.971c0 .57.48.965.968.965.161 0 .318-.04.463-.122a.186.186 0 0 0 .089-.154.187.187 0 0 0-.19-.185.183.183 0 0 0-.103.03.52.52 0 0 1-.25.076c-.31 0-.575-.263-.575-.612 0-.345.265-.613.574-.613a.54.54 0 0 1 .254.076.187.187 0 0 0 .29-.154.186.186 0 0 0-.09-.155.965.965 0 0 0-.462-.123zm3.233.02h-1.219a.169.169 0 0 0-.17.165c0 .092.078.165.17.165h.407v1.389c0 .105.092.197.207.197.108 0 .2-.092.2-.197v-1.389h.405c.092 0 .17-.073.17-.165a.169.169 0 0 0-.17-.166zm3.926 0h-1.218a.168.168 0 0 0-.17.165c0 .092.078.165.17.165h.407v1.389c0 .105.092.197.206.197.11 0 .201-.092.201-.197v-1.389h.404c.092 0 .17-.073.17-.165a.168.168 0 0 0-.17-.166zm2.287-.02a.975.975 0 0 0-.97.969c0 .572.482.967.97.967.49 0 .973-.395.973-.967 0-.573-.482-.969-.973-.969zm0 .356c.31 0 .569.246.569.613 0 .365-.265.612-.569.612-.301 0-.569-.246-.569-.612 0-.367.268-.613.569-.613z"/>
        <path fill="#5E5971" d="M42.087 8.709h-4.013a.732.732 0 0 0-.739.739.743.743 0 0 0 .739.738h3.199a3.65 3.65 0 1 1-3.595-4.397 3.671 3.671 0 0 1 2.966 1.402.828.828 0 0 0 1.036.267.714.714 0 0 0 .267-1.017 4.98 4.98 0 0 0-4.263-2.123 5.15 5.15 0 0 0-1.978.395 5.32 5.32 0 0 0-1.622 1.105 5.22 5.22 0 0 0-1.105 1.623 5.026 5.026 0 0 0-.408 2c0 .683.135 1.36.396 1.99a5.32 5.32 0 0 0 1.105 1.623 5.22 5.22 0 0 0 1.623 1.105 5.253 5.253 0 0 0 3.996 0 5.32 5.32 0 0 0 1.622-1.105 5.22 5.22 0 0 0 1.105-1.623c.264-.63.398-1.306.396-1.99a.722.722 0 0 0-.727-.732zm5.252-1.507a3.705 3.705 0 0 0-3.705 3.694v2.96a.73.73 0 0 0 1.46 0v-2.96a2.236 2.236 0 0 1 2.245-2.234.74.74 0 0 0 .739-.738.729.729 0 0 0-.739-.722zm4.397 7.393a3.71 3.71 0 1 1 3.705-3.71 3.722 3.722 0 0 1-3.705 3.71zm0-5.962a2.25 2.25 0 1 0-.011 4.502 2.25 2.25 0 0 0 .011-4.502zm9.795-1.43a.729.729 0 0 0-.739.72V11.6a1.527 1.527 0 0 1-3.053 0V7.924a.73.73 0 0 0-1.46 0v3.71a2.987 2.987 0 1 0 5.973 0v-3.71a.721.721 0 0 0-.721-.721zm5.328 7.45a3.705 3.705 0 1 0-3.705-3.705v6.625a.729.729 0 0 0 .738.721.721.721 0 0 0 .722-.72v-3.677a3.677 3.677 0 0 0 2.245.756zm0-5.944a2.245 2.245 0 1 1-2.245 2.263v-.018a2.243 2.243 0 0 1 2.245-2.245zm12.069.384c.41-.524.639-1.167.651-1.832a3.002 3.002 0 0 0-2.88-2.95h-2.85a.75.75 0 0 0-.75.74v8.805a.732.732 0 0 0 .74.74h3.925a2.946 2.946 0 0 0 2.757-2.897 2.99 2.99 0 0 0-1.593-2.606zm-.815-1.844a1.528 1.528 0 0 1-1.535 1.507H74.57V5.789h2.007a1.493 1.493 0 0 1 1.535 1.46zm-.46 5.869h-3.082v-2.891h3.007c.799.03 1.44.667 1.478 1.466a1.438 1.438 0 0 1-1.402 1.425zm4.444 1.477a.729.729 0 0 0 .722-.739V7.924a.73.73 0 0 0-1.46 0v5.932a.732.732 0 0 0 .738.74zm0-8.87a.76.76 0 0 0 .518-.203.744.744 0 0 0-.714-1.239.732.732 0 0 0 .196 1.442zM94.12 10.17a2.96 2.96 0 0 0-2.967-2.949 2.923 2.923 0 0 0-2.227 1.018 2.923 2.923 0 0 0-2.228-1.018 2.96 2.96 0 0 0-2.966 2.949v3.717a.73.73 0 0 0 1.46 0v-3.717a1.498 1.498 0 1 1 2.995 0v3.717a.74.74 0 0 0 .739.738.729.729 0 0 0 .721-.738v-3.717a1.506 1.506 0 0 1 3.013 0v3.717a.729.729 0 0 0 .721.738.743.743 0 0 0 .739-.738v-3.583a.121.121 0 0 0-.018-.076c.018-.017.018-.029.018-.058zm4.618-2.955a3.71 3.71 0 0 0-3.734 3.74 3.623 3.623 0 0 0 3.734 3.635 3.215 3.215 0 0 0 2.181-.738c.017.39.321.705.71.738a.712.712 0 0 0 .738-.738v-2.897a3.626 3.626 0 0 0-3.629-3.74zm0 5.933a2.234 2.234 0 0 1-2.286-2.193 2.318 2.318 0 0 1 2.286-2.292 2.23 2.23 0 0 1 2.181 2.292 2.145 2.145 0 0 1-2.181 2.193z"/>
        <path fill="#EA0B4B" d="M8.733 9.31a.788.788 0 1 1 1.57.106 11.3 11.3 0 0 0 1.123 6.016c.623 1.127 1.654 2.222 3.065 1.828a5.095 5.095 0 0 0 2.364-1.778.788.788 0 0 1 1.21 1.008 6.593 6.593 0 0 1-3.15 2.283c-2.171.605-3.872-.788-4.866-2.589A12.88 12.88 0 0 1 8.733 9.31zm-.019-3.886c-.58.158-.924.754-.77 1.334.71-.52 1.675-.52 2.385 0a1.007 1.007 0 0 0-.032-.664 1.273 1.273 0 0 0-1.581-.669h-.002zm2.438-3.358A4.267 4.267 0 0 0 8.767.526 10.295 10.295 0 0 0 5.243.228a8.12 8.12 0 0 0-3.62.958A3.11 3.11 0 0 0 .008 3.72 5.632 5.632 0 0 0 .75 6.634a19.731 19.731 0 0 0 4.404 5.28l.724.609a.788.788 0 0 0 .995-1.222l-.688-.581a18.161 18.161 0 0 1-4.032-4.812 4.175 4.175 0 0 1-.573-2.08 1.61 1.61 0 0 1 .856-1.301 6.71 6.71 0 0 1 2.923-.732 8.624 8.624 0 0 1 2.974.239c.6.131 1.139.46 1.53.934a.792.792 0 0 0 1.425-.315.782.782 0 0 0-.132-.587h-.004zm4.563 3.359c.58.157.924.753.77 1.333a2.017 2.017 0 0 0-2.384 0 1.007 1.007 0 0 1 .032-.664c.274-.598.96-.888 1.58-.669h.002zm-1.15-2.457c.392-.473.93-.801 1.53-.934a8.854 8.854 0 0 1 2.974-.239 6.71 6.71 0 0 1 2.919.729c.49.258.815.749.86 1.301a4.13 4.13 0 0 1-.574 2.08 18.161 18.161 0 0 1-4.032 4.812 12.836 12.836 0 0 1-3.368 2.31c-.426.146-.29-.17-.21-.578.222-.957.546-1.888.966-2.777a.787.787 0 1 0-1.443-.627c-.862 1.97-1.196 3.28-1.15 4.091a1.495 1.495 0 0 0 .847 1.411 2.01 2.01 0 0 0 1.503-.027 14.013 14.013 0 0 0 3.886-2.607 19.802 19.802 0 0 0 4.404-5.28 5.63 5.63 0 0 0 .742-2.914A3.11 3.11 0 0 0 22.8 1.185a8.139 8.139 0 0 0-3.62-.957 10.411 10.411 0 0 0-3.523.298 4.267 4.267 0 0 0-2.385 1.54.788.788 0 1 0 1.293.902z"/>
    </g>
</svg>
