<svg xmlns="http://www.w3.org/2000/svg" width="474" height="360" viewBox="0 0 474 360">
    <defs>
        <linearGradient id="a" x1="50.006%" x2="50.006%" y1="100.001%" y2="-.003%">
            <stop offset="0%" stop-color="gray" stop-opacity=".25"/>
            <stop offset="54%" stop-color="gray" stop-opacity=".12"/>
            <stop offset="100%" stop-color="gray" stop-opacity=".1"/>
        </linearGradient>
    </defs>
    <g fill="none" fill-rule="nonzero">
        <path fill="#EA0B4B" d="M467.588 103.731c-.082.386-.16.773-.251 1.154-2.846 13.124-7.495 25.771-14.409 37.386a107.426 107.426 0 0 1-16.937 21.667c-3.443 3.4-7.2 6.633-11.666 8.963-6.259 3.27-13.576 4.598-20.767 5.683-7.469 1.132-15.041 2.078-22.592 3.098-2.684.356-5.351.733-8.002 1.132-7.296 1.08-14.539 2.33-21.608 3.987-8.74 2.044-17.21 4.72-25.212 8.486-.64.29-1.271.596-1.896.92a103.555 103.555 0 0 0-4.628 2.438c-.308.178-.611.335-.91.508-.903.503-1.787 1.02-2.672 1.54l-.035.022a96.68 96.68 0 0 0-1.735 1.046c-3.27 1.987-6.47 4.06-9.672 6.147l-2.012 1.302-3.119 2.017c-.607.395-1.227.79-1.838 1.18-.434.287-.868.573-1.34.868a174.942 174.942 0 0 1-8.632 5.133 96.12 96.12 0 0 1-14.928 6.733l-.07.026a68.078 68.078 0 0 1-7.928 2.239 58.786 58.786 0 0 1-4.671.828 50.062 50.062 0 0 1-12.665.178c-8.27-.959-16.021-4.134-24.288-5.206-17.02-2.17-33.548 4.82-49.553 10.295a288.153 288.153 0 0 1-11.892 3.78 306.827 306.827 0 0 1-8.002 2.242 301.016 301.016 0 0 1-50.182 8.803c-7.083.694-14.21.853-21.317.473-2.702-.165-5.374-.434-7.998-.868-8.978-1.388-17.349-4.3-24.106-9.631-5.534-4.378-9.494-10.083-12.508-16.053a70.065 70.065 0 0 1-6.467-19.324 59.584 59.584 0 0 1-.434-2.755 68.337 68.337 0 0 1-.486-4.746 67.957 67.957 0 0 1 2.984-25.098c2.863-9.077 7.634-17.789 9.733-26.934.087-.388.17-.774.247-1.159.287-1.389.5-2.792.638-4.204 1.071-11.236-3.036-22.191-6.259-33.18a176.553 176.553 0 0 1-1.332-4.811c-2.983-11.62-3.812-24.058-1.153-35.655.082-.386.182-.773.278-1.154a52.208 52.208 0 0 1 9.81-20.1c4.98-6.248 11.516-11.45 18.498-16.019a135.878 135.878 0 0 1 10.557-6.243 140.598 140.598 0 0 1 7.998-3.944c21.881-9.978 46.842-14.85 71.525-13.774 1.3.056 2.602.125 3.903.22 1.301.096 2.724.21 4.086.335 15.9 1.544 31.37 5.271 46.733 9.345 5.148 1.367 10.288 2.768 15.423 4.143 2.286.608 4.567 1.215 6.853 1.805 11.194 2.894 22.553 5.515 34.056 7.471 2.663.46 5.329.88 7.997 1.258a229.021 229.021 0 0 0 27.97 2.374c3.641.072 7.283.04 10.926-.096 1.84-.066 3.68-.166 5.522-.3 19.018-1.34 37.4-5.826 55.81-10.017 2.664-.607 5.331-1.206 8.003-1.796a458.131 458.131 0 0 1 10.53-2.208c21.916-4.309 41.451-1.831 61.827 7.058 4.632 2.018 9.26 4.456 12.097 8.244 2.836 3.787 3.547 8.438 4.077 12.929.75 6.395 1.24 12.872 1.426 19.384 0 .382 0 .768.026 1.154.295 13.155-.685 26.435-3.36 39.281z" opacity=".1"/>
        <path fill="#EA0B4B" d="M322.241 142.29h-1.431v1.159h1.622l-.19-1.16zm-16.236 0a.074.074 0 0 0 0 .03c-.04.317-.083.634-.126.955v.174h12.406v-.07l.868-1.09h-13.148zm-33.25 0v-37.441h14.271c-.152-.1-.308-.204-.468-.3l-.208-.135-.27-.165c-.156-.09-.312-.182-.477-.269-.164-.087-.264-.148-.403-.222l-.095-.052h-12.35v-2.064l-.334.13-.352.166h-.026l-.073.039-.222.117-.22.118c-.218.117-.435.247-.652.382l-.208.139-.434.278c-.56.374-1.11.765-1.678 1.13a8.904 8.904 0 0 1-.434.265c-.308.182-.625.356-.95.513a3.62 3.62 0 0 1-.434.186l-.234.092-.217.073c-.509.178-1.031.314-1.562.409v36.601h-21.398c0 .044.03.079.043.122.117.348.234.69.347 1.038h21.039v40.13h.325l.377.022.681.039 1.09.13.498.048.542.056h.083l.958.118.204.026.464.065.664.096 1.592-.07.217.04c.087 0 .178.025.269.043v-40.734h33.115v-.174c.044-.321.087-.638.126-.956a.074.074 0 0 1 0-.03h-33.206zm49.486 0h-1.431v1.159h1.622l-.19-1.16zm-17.13 0c-.052.386-.1.772-.152 1.16h13.834l.94-1.16h-14.622zm-32.356 0v-37.441h14.271c-.152-.1-.308-.204-.468-.3l-.208-.135-.27-.165c-.156-.09-.312-.182-.477-.269-.164-.087-.264-.148-.403-.222l-.095-.052h-12.35v-2.064l-.334.13-.352.166h-.026l-.073.039-.222.117-.22.118c-.218.117-.435.247-.652.382l-.208.139-.434.278c-.56.374-1.11.765-1.678 1.13a8.904 8.904 0 0 1-.434.265c-.308.182-.625.356-.95.513a3.62 3.62 0 0 1-.434.186l-.234.092-.217.073c-.509.178-1.031.314-1.562.409v36.601h-21.398c0 .044.03.079.043.122.117.343.238.69.351 1.038h21.035v40.126h.325l.377.021.681.04 1.09.134.498.048.542.056h.083l.958.118.204.026.464.065.664.096 1.592-.07.217.04c.087 0 .178.025.269.043v-40.734h32.248c.052-.387.1-.773.152-1.16h-32.365zm108.247-77.966H471c0-.387 0-.773-.026-1.156h-89.972V17.712c-2.672.58-5.34 1.179-8.003 1.799v43.657h-97.88l-.247-.221.373-.33 36.407-32.77c-3.643.14-7.286.171-10.927.096L272.75 55.117V27.575c-2.672-.38-5.338-.8-7.999-1.26v27.533L223.85 17.025c-5.136-1.377-10.276-2.78-15.425-4.149l55.625 50.07-.248.222H161.688V3.556a176.45 176.45 0 0 0-4.087-.334A130.561 130.561 0 0 0 153.697 3v60.168H82.148V16.795a157.576 157.576 0 0 0-7.999 3.95v42.423H35.278c-.096.383-.196.77-.278 1.156h39.15v39.37H37.151c.108.386.22.773.334 1.155h36.663v37.44H43.107c-.078.385-.16.772-.247 1.16h31.29v104.682a93.43 93.43 0 0 0 7.998.869V143.45h71.536v96.252a306.56 306.56 0 0 0 8.004-2.246v-94.007h103.068v84.096a68.019 68.019 0 0 0 7.93-2.242l.069-.026v-81.828h100.244v39.443c2.66-.39 5.328-.766 8.003-1.125v-38.318h71.28c.234-.387.464-.773.694-1.16h-71.974v-37.44h86.385c.09-.382.169-.77.251-1.156h-86.636V64.324zm-298.854 0h71.536v39.37H82.148v-39.37zm0 77.965v-37.44h71.536v37.44H82.148zm79.54-77.965h103.068v39.37H161.688v-39.37zm0 77.965v-37.44h103.068v37.44H161.688zm211.31 0H272.756v-37.44h100.244v37.44zm0-38.596H272.756V65.38l1.405-1.056H373v39.37zm-66.993 38.596a.074.074 0 0 0 0 .03c-.04.318-.083.635-.126.956v.174h12.406v-.07l.868-1.09h-13.148zm16.236 0h-1.431V143.45h1.622l-.19-1.16zm-49.486 0v-37.44h14.271c-.152-.1-.308-.204-.468-.3l-.208-.135-.27-.165c-.156-.09-.312-.182-.477-.269-.164-.087-.264-.148-.403-.222l-.095-.052h-12.35v-2.064l-.334.13-.352.166h-.026l-.073.039-.222.117-.22.118c-.218.117-.435.247-.652.382l-.208.139-.434.278c-.56.374-1.11.765-1.678 1.13a8.904 8.904 0 0 1-.434.265c-.308.182-.625.356-.95.513a3.62 3.62 0 0 1-.434.186l-.234.092-.217.073c-.509.178-1.031.314-1.562.409v36.601h-21.398c0 .044.03.079.043.122.117.348.234.69.347 1.038h21.039v40.13h.325l.377.022.681.039 1.09.13.498.048.542.056h.083l.958.118.204.026.464.065.664.096 1.592-.07.217.04c.087 0 .178.025.269.043v-40.734h33.115v-.174c.044-.321.087-.638.126-.956a.074.074 0 0 1 0-.03h-33.206z" opacity=".1"/>
        <path fill="#EA0B4B" d="M116.663 37.397h.625a1.232 1.232 0 0 1-.764-.985c0-.778 1.2-1.412 2.667-1.412h18.67c1.467 0 2.664.634 2.664 1.412 0 .774-1.197 1.413-2.664 1.413h-.624c.42.168.712.544.764.98 0 .664-.873 1.222-2.04 1.37h5.376c1.462 0 2.663.635 2.663 1.413S142.8 43 141.337 43h-18.675C121.2 43 120 42.362 120 41.588c0-.664.873-1.218 2.04-1.37h-5.376c-1.467 0-2.663-.634-2.663-1.413 0-.778 1.196-1.408 2.663-1.408zM317.663 51.397h.625a1.231 1.231 0 0 1-.76-.985c0-.778 1.196-1.412 2.663-1.412h18.67c1.467 0 2.668.634 2.668 1.412 0 .774-1.2 1.408-2.668 1.408h-.62c.417.173.707.549.76.985 0 .664-.873 1.222-2.04 1.37h5.376c1.467 0 2.663.635 2.663 1.413S343.804 57 342.337 57h-18.67c-1.467 0-2.668-.638-2.668-1.412 0-.664.873-1.222 2.04-1.37h-5.376c-1.462 0-2.663-.634-2.663-1.413 0-.778 1.2-1.408 2.663-1.408zM88.667 110.397h.62a1.227 1.227 0 0 1-.76-.985c0-.774 1.201-1.412 2.664-1.412h18.671c1.463 0 2.663.638 2.663 1.412 0 .778-1.2 1.413-2.663 1.413h-.624c.418.169.709.544.76.98 0 .664-.874 1.222-2.04 1.37h5.375c1.466 0 2.667.639 2.667 1.413S114.8 116 113.333 116h-18.65c-1.467 0-2.663-.634-2.663-1.412 0-.66.873-1.218 2.039-1.37h-5.392c-1.466 0-2.667-.634-2.667-1.413 0-.778 1.218-1.408 2.667-1.408z" opacity=".1"/>
        <ellipse cx="346.645" cy="246.356" fill="#EA0B4B" opacity=".1" rx="28.209" ry="92.792" transform="rotate(-78.45 346.645 246.356)"/>
        <path fill="#3A3768" d="M336 166.588s5-24.729 24.092-22.438c0 0 13.194.913 15.908 9.615V173l-40-6.412z"/>
        <path fill="#D48A9B" d="M439 175.979L271.496 162 250 166.51l1.343 30.204 1.465.179 1.668 45.356L418.843 272l17.47-14.877v-49.169l2.236-1.322z"/>
        <path fill="#000" d="M440 176l-.455 30.482L421.228 215 421 183.17zM436.785 208l.215 48.15L420 271l1.092-55.8zM253.126 198.53L420.913 219l.087-3.885L253 197z" opacity=".05"/>
        <path fill="#000" d="M437 209.728V208l-17 7.186V219z" opacity=".05"/>
        <path fill="#EFC6CD" d="M250 166.47l21.496-4.47L439 175.854 420.19 183z"/>
        <path fill="#000" d="M421.004 177l7.996.582L415.748 182l-6.748-.54z" opacity=".1"/>
        <path fill="#FFF" d="M421.004 176l7.996.582L415.748 181l-6.748-.544z"/>
        <path fill="#D3DAE1" d="M420 177.08c.348-.28.714.255 1.085.387.213.08.431 0 .645.08.43.105.857.65 1.27.378"/>
        <path fill="#D3DAE1" d="M420 177.081c.343-.28.714.246 1.085.387.213.07.431 0 .645.07.43.114.857.659 1.27.387M419 178.082c.348-.283.719.247 1.09.38.208.079.43 0 .64.079.435.114.862.661 1.27.379"/>
        <path fill="#000" d="M386.004 173l7.996.586L380.748 178l-6.748-.544z" opacity=".1"/>
        <path fill="#FFF" d="M386.004 172l7.996.582L380.748 177l-6.748-.54z"/>
        <path fill="#D3DAE1" d="M384 173.081c.348-.28.714.246 1.085.387.213.07.431 0 .645.07.43.114.857.659 1.27.387"/>
        <path fill="#D3DAE1" d="M384 173.082c.343-.283.714.247 1.085.38.213.079.431 0 .645.079.43.114.857.661 1.27.379M383 174.08c.348-.28.719.254 1.09.386.208.079.43 0 .64.079.435.105.862.657 1.27.376"/>
        <path fill="#000" d="M402.002 174l7.998.582L396.75 179l-6.75-.544z" opacity=".1"/>
        <path fill="#FFF" d="M402.002 174l7.998.582L396.75 179l-6.75-.545z"/>
        <path fill="#D3DAE1" d="M402 175.082c.348-.283.719.247 1.09.38.208.079.426 0 .64.079.43.106.862.662 1.27.38M401 175.08c.348-.28.719.254 1.09.386.208.079.426 0 .64.079.43.105.862.657 1.27.376M400 176.081c.343-.28.714.246 1.085.387.213.07.431 0 .645.07.43.114.857.659 1.27.387"/>
        <ellipse cx="216.5" cy="325.5" fill="#EA0B4B" opacity=".1" rx="87.5" ry="18.5"/>
        <path fill="url(#a)" d="M312.738 176.58c-.938-8.233-4.648-16.09-4.648-16.09l.282-2.777s.06-1.388-.03-3.47c.01-1.3.18-2.594.507-3.853.76-2.408-.95-5.366-1.141-5.64-.191-.273.095-5.553-1.615-8.143-1.71-2.59-13.098-7.405-13.098-7.405s-.612-1.28-1.476-2.777l.079-.152a16.313 16.313 0 0 0-2.604-3.51c-.7-.746-1.372-1.17-1.914-.963-.221-.72-.39-1.455-.504-2.2.113.031.23.062.343.083.47.11.957.121 1.432.035 1.06-.239 1.762-1.189 2.353-2.082 2.942-4.469 5.477-9.371 5.993-14.66a9.315 9.315 0 0 0-.152-3.236 10.917 10.917 0 0 0-1.015-2.365 19.002 19.002 0 0 0-2.865-4.22c-2.027-2.135-4.822-3.441-7.695-4.213a26.65 26.65 0 0 0-9.938-.742c-.868.1-1.736.243-2.604.3-1.101.048-2.204.029-3.303-.057l-5.681-.33-.026-.087-.946-.056c-.374.742 0 1.622.464 2.317.464.694.998 1.418.96 2.238-.04.82-.634 1.48-1.099 2.17-.464.69-.816 1.592-.351 2.268.065.094.142.179.23.252.49.508 1.345.564 2.087.555h.13a14.126 14.126 0 0 0-2.877 8.556 14.385 14.385 0 0 0 7.851 12.746c.083.282.165.572.243.867a26.567 26.567 0 0 1 .911 9.38l-.1.217-.06-.23s-6.692 4.538-8.68 5.74c-1.988 1.201-3.984 5.275-4.08 6.385-.095 1.111-3.229 17.861-3.229 17.861a41.025 41.025 0 0 0-1.57 5.172l-3.998 3.51s-8.246.741-10.633.186l.07.46a36.074 36.074 0 0 0-6.407-.868 6.795 6.795 0 0 0-3.472.464l-.082.04-.065.03a13.762 13.762 0 0 0-3.646 1.024 8.503 8.503 0 0 0-.386.169l.026-.568-8.923-.46-4.557-.924s-1.615-1.302-2.565-1.111c-.95.19-2.943-1.11-2.943-1.11a7.956 7.956 0 0 0-1.467-.912c-.151-1.05-.247-1.687-.247-1.687s-3.546-14.065-6.202-22.334c-1.78-5.523-4.34-8.243-5.85-9.427-.673-1.172-1.116-1.927-1.116-1.927-.29-1.015-1.888-3.301-2.295-3.357-.066-.105-.113-.157-.14-.157a.508.508 0 0 0-.255.04c-.747-3.714-1.18-8.37-.04-12.426 3.164-2.599 5.001-6.474 5.009-10.568v-.182-.187a13.65 13.65 0 0 0-3.225-8.806l-.147-.165a1.15 1.15 0 0 0 .113-.091c.664-.54.979-1.399.82-2.239-.195-.833-.846-1.488-1.18-2.278-.201-.607-.362-1.228-.482-1.856a5.726 5.726 0 0 0-1.368-2.382l.066.173c-1.702-1.913-4.627-2.863-7.261-2.438-1.958.313-3.78 1.224-5.746 1.506-1.411.2-2.848.069-4.267.212a11.075 11.075 0 0 0-3.784 1.093 2.17 2.17 0 0 0-.803.59 3.175 3.175 0 0 0-.4 1.115c-.481 1.757-2.009 3.011-3.116 4.478a10.475 10.475 0 0 0-2.1 5.787 4.528 4.528 0 0 0 .152 1.583c.095.308.243.6.312.911.217.955-.282 1.905-.525 2.85a5.547 5.547 0 0 0 .308 3.619c1.715 3.835 7.344 5.115 8.515 9.14.897.413 1.844.705 2.817.869.078.399.148.802.204 1.21a.326.326 0 0 0-.074.043c-1.519 1.48-1.896 4.339-1.896 4.339l-.183.147c-.62.512-2.743 2.23-4.66 3.553-2.28 1.575-6.077 6.85-8.733 8.425-2.656 1.575-4.843 11.28-4.27 14.807.572 3.527 2.942 13.419 1.992 17.028-.95 3.61 1.423 20.082 1.423 20.082 1.593.304 3.152.766 4.653 1.38l-.048.72-.143 2.17s-4.301 15.548-2.656 27.518c1.644 11.97-.76 13.201-.76 13.201s.503 5.306-.76 7.158c-1.262 1.853-1.519 5.922-1.519 5.922s-.125 9.133.126 11.714c.252 2.581.378 7.284-.507 8.395-.886 1.11-2.53 8.386-2.405 10.607.126 2.221-3.164 7.284-1.393 13.822 1.77 6.538-5.208 6.664-5.208 6.664s.89 9.978 2.786 12.832l.278.408c-.048.165-.095.339-.147.525-.717 2.603-1.697 6.712-1.016 7.705 1.011 1.484 1.519 1.232 1.519 1.232l.378 6.664s7.595 6.416 13.419 6.173c5.824-.243 4.683-6.173 4.683-6.173l-4.96-12.859-.17-.434 5.512-10.412s1.519-4.564 1.896-6.169c.378-1.605 2.44-7.293 2.44-7.293s5.207-12.338 5.316-13.822c.108-1.484.508-9.496 1.519-11.106 1.011-1.61 3.797-10.846 3.797-10.846l.07.06a3.656 3.656 0 0 1 .946 3.64c-.638 2.343-.256 7.155-.256 7.155s-.252 4.073-.76 6.173c-.507 2.1-.629 19.25.257 23.319.707 3.258.685 9.358.65 11.666-.594 2.45-1.115 5.496-.147 5.856 1.65.62 10.004.495 10.004.495s3.541-1.236 8.354 3.085c4.813 4.32 19.617-1.233 19.617-1.233s4.557-1.236-4.43-4.81c-6.272-2.495-10.321-4.157-12.969-5.936.06-.117.126-.234.182-.36 0 0-3.671-3.47-.633-9.622 3.038-6.152 2.912-11.354 2.912-11.354l.508-20.733-1.52-27.522-1.175-28.885.208-.07c.2 5.31 1.237 17.953 6.666 15.502 6.836-3.085 1.011-11.107 1.011-11.107l-3.068-5.978.916-.312-3.433-11.089a25.001 25.001 0 0 1-.13-6.538 25.894 25.894 0 0 0-.079-3.818c4.497-.785 8.802-1.618 9.575-1.427.91.221 6.01.265 8.016.273-.656.512-1.18 1.02-1.18 1.02l8.163 5.492s2.769-1.514 3.346-3.12a3.603 3.603 0 0 0 1.528-.815c.086 1.896.59 3.948 2.343 3.996.439.01.874-.077 1.276-.252l13.35-2.642-1.146 7.154.799 1.419c-.404 6.034-.868 12.442-1.276 18.078l-.187 1.232.096.022a4042.26 4042.26 0 0 1-1.142 15.249 7.997 7.997 0 0 1 3.33-3.345l.086 12.876s.668 20.36.668 23.137c0 2.776.091 8.976.091 8.976s1.428 7.587 2.279 10.086c.85 2.5 1.519 13.883 1.519 13.883s1.996 3.145 1.141 4.338c-.855 1.194 3.325 3.792 3.325 3.792s-2.66 3.61-2.852 6.017c-.021.278.252.573.747.868a7.744 7.744 0 0 1-.495.373c-1.232.825-3.038 1.397-5.755 1.163-7.408-.65-12.63 6.2-8.072 7.588 4.557 1.388 18.228 1.666 18.228 1.666s4.14-2.582 7.378-1.419a78.805 78.805 0 0 0 .108 5.536l-.039.03c-1.935 1.735-5.642 4.72-9.261 5.94-5.208 1.756-6.363 8.884.377 9.808 6.74.924 16.614-1.11 16.614-1.11s5.126-3.792 9.019-4.625c3.893-.833 7.217-2.685 6.553-4.907-.434-1.418-1.55-5.136-2.304-7.635-.044-.15-.087-.295-.13-.434.116-.26.234-.53.342-.807 0 0-1.992-10.364-.377-12.954 1.614-2.59.76-28.508.76-28.508s-2.757-6.568-1.329-10.546c1.428-3.978-2.278-9.627-2.278-9.627s.403-11.319 1.488-17.627l.143-.78a35.562 35.562 0 0 0 5.295-2.044s.95-14.256 1.52-17.492c.056-.304.134-.794.23-1.432l.433-2.286.512-2.603 1.736-8.872 3.134-4.052 8.072-8.243s1.94-4.356.99-12.594zm-124.49-50.901l-.06.043a.754.754 0 0 1-.022-.095.39.39 0 0 0 .082.052zm79.757 10.104l-.312.681 1.141-1.137-1.55 1.736.522-1.094.2-.186zm-7.708 15.922c-.3.794-.62 1.653-.955 2.546l.612-1.826.343-.72z"/>
        <path fill="#585B8A" d="M235.179 178.757s-1.117 7.15 2.233 7.242c3.35.092 5.588-5.515 5.588-5.515L241.633 176l-6.454 2.757z"/>
        <path fill="#000" d="M235.179 178.757s-1.117 7.15 2.233 7.242c3.35.092 5.588-5.515 5.588-5.515L241.633 176l-6.454 2.757z" opacity=".2"/>
        <path fill="#636992" d="M164.304 331.993c-5.733.248-13.21-6.182-13.21-6.182l-.373-6.678s-.495.248-1.494-1.236c-.671-.996.293-5.125.999-7.722.342-1.27.622-2.175.622-2.175l12.58 3.341.6 1.58 4.883 12.886s1.122 5.938-4.607 6.186zM221.86 312.961s-14.565 5.863-19.274 1.302c-4.71-4.561-8.218-3.26-8.218-3.26s-8.219.134-9.84-.522c-.954-.38-.437-3.64.158-6.234.403-1.793.841-3.273.841-3.273s14.316-5.084 16.56-1.958a10.965 10.965 0 0 0 2.387 2.384c2.593 1.962 6.645 3.74 13.054 6.477 8.814 3.778 4.333 5.084 4.333 5.084z"/>
        <path fill="#FFD6D6" d="M208.292 200l3.632 7.769s5.226 7.893-.907 10.925c-6.133 3.032-6.017-17.477-6.017-17.477l3.292-1.217z"/>
        <path fill="#DCE6F2" d="M191 131s4.464 1.964 7.142 10.18c2.679 8.217 6.25 22.204 6.25 22.204s2.423 15.82 2.037 19.747a24.5 24.5 0 0 0 .13 6.5L210 200.67l-6.887 2.33-10.583-39.004L191 131z"/>
        <path fill="#000" d="M191 131s4.464 1.964 7.142 10.18c2.679 8.217 6.25 22.204 6.25 22.204s2.423 15.82 2.037 19.747a24.5 24.5 0 0 0 .13 6.5L210 200.67l-6.887 2.33-10.583-39.004L191 131z" opacity=".05"/>
        <path fill="#000" d="M163.391 310.368l.609 1.595-.746 1.41c-2.905 1.247-10.1.25-10.1.25s-1.333-1.674-3.154-4.427c.346-1.283.63-2.196.63-2.196l12.761 3.368zM204 302.676c-3.581 7.884-15.754 4.958-19.136 3.971-.557-.163-.864-.272-.864-.272s.022-.643.03-1.654c.398-1.642.83-2.998.83-2.998s14.116-4.655 16.328-1.792a10.464 10.464 0 0 0 2.354 2.183c.135.2.289.388.458.562z" opacity=".1"/>
        <path fill="#565988" d="M203.648 292.213c-2.96 6.15.621 9.601.621 9.601-3.599 8.129-15.833 5.115-19.233 4.093-.56-.165-.868-.278-.868-.278s.247-8.496-.617-12.558c-.864-4.062-.742-21.168-.247-23.26.495-2.091.738-6.158.738-6.158s-.37-4.798.247-7.136a3.679 3.679 0 0 0-.92-3.63l-.065-.064s-2.714 9.232-3.703 10.826c-.99 1.594-1.355 9.6-1.48 11.078-.127 1.476-5.185 13.788-5.185 13.788s-1.97 5.66-2.34 7.258c-.369 1.598-1.854 6.158-1.854 6.158l-5.947 11.45c-2.84 1.23-9.873.247-9.873.247s-1.355-1.732-3.209-4.556C147.86 306.25 147 296.275 147 296.275s6.786-.125 5.058-6.647c-1.728-6.522 1.48-11.571 1.359-13.788-.122-2.218 1.48-9.476 2.344-10.584.864-1.109.738-5.786.49-8.371-.247-2.586-.12-11.693-.12-11.693s.247-4.062 1.48-5.907c1.233-1.844.742-7.14.742-7.14s2.34-1.23.738-13.17c-1.602-11.94 2.605-27.447 2.605-27.447l.143-2.165.226-3.508s35.292-2.217 38.132.49a9.336 9.336 0 0 1 1.802 2.576 25.59 25.59 0 0 1 2.04 6.552l1.48 37.295L207 260.215l-.495 20.678s.109 5.162-2.857 11.32z"/>
        <path fill="#000" d="M193 218l-3.607 80.648-4.33 7.352c-.545-.166-.845-.28-.845-.28s.241-8.565-.6-12.66c-.842-4.094-.723-21.338-.241-23.447.482-2.108.719-6.207.719-6.207s-.36-4.837.24-7.195a3.8 3.8 0 0 0-.896-3.658l.06-.437L193 218zM153.233 304.425s9.233-4.605 10.653-3.136C165.306 302.758 153 305 153 305l.233-.575zM201 294c-.372.13-9.813 3.578-8.943 7.246C192.927 304.914 201 294 201 294z" opacity=".1"/>
        <path fill="#FFD6D6" d="M172 111.448s3.134 7.425 1.476 11.23C171.818 126.485 191.374 133 191.374 133s-5.718-14.488-.182-22.64c5.536-8.15-19.192 1.088-19.192 1.088z"/>
        <path fill="#505484" d="M286.535 331.018c-3.793.834-8.787 4.63-8.787 4.63s-9.62 2.036-16.189 1.111c-6.569-.925-5.454-8.056-.368-9.815 3.527-1.216 7.141-4.217 9.029-5.937.833-.768 1.328-1.303 1.328-1.303l18.41-3.704.716 2.45c.738 2.505 1.827 6.223 2.243 7.639.647 2.245-2.59 4.095-6.382 4.929zM281 317.802s-7.712.882-10.925-1.075c-3.212-1.957-7.802 1.176-7.802 1.176s-13.22-.294-17.625-1.764c-4.405-1.47.642-8.729 7.803-8.03 2.61.252 4.375-.359 5.567-1.232 1.246-.91 2.115-2.3 2.425-3.877l15.502.979 2.153 5.861 2.902 7.962z"/>
        <path fill="#000" d="M278 312s-17.736-2.972-20-5.332a5.928 5.928 0 0 0 2.387-3.668l15.26.926 2.12 5.545L278 312z" opacity=".1"/>
        <path fill="#575988" d="M252 208.198l.187 27.012s.649 20.286.649 23.055c0 2.768.091 8.94.091 8.94s1.393 7.561 2.229 10.053c.835 2.491 1.484 13.84 1.484 13.84s1.95 3.137 1.114 4.326c-.835 1.19 3.247 3.78 3.247 3.78s-2.611 3.6-2.78 5.996C258.05 307.596 279 311 279 311l-8.161-83.165L264.34 207 252 208.198z"/>
        <path fill="#000" d="M252 208.198l.187 27.012s.649 20.286.649 23.055c0 2.768.091 8.94.091 8.94s1.393 7.561 2.229 10.053c.835 2.491 1.484 13.84 1.484 13.84s1.95 3.137 1.114 4.326c-.835 1.19 3.247 3.78 3.247 3.78s-2.611 3.6-2.78 5.996C258.05 307.596 279 311 279 311l-8.161-83.165L264.34 207 252 208.198zM290 318.255c-5.91 13.162-19.966 3.004-19.966 3.004s0-.253-.034-.69c.815-.7 1.298-1.188 1.298-1.188L289.3 316s.293.96.7 2.255z" opacity=".1"/>
        <path fill="#575988" d="M290.419 317.134c-5.844 15.13-20.354 3.778-20.354 3.778s-.458-7.832.458-11.424c.916-3.592-1.006-14.377-1.006-14.377s-1.096-9.583-2.098-11.792c-1.002-2.209-.912-6.635-.912-7.003 0-.367.364-3.32-.458-5.347-.822-2.027-1.285-7.002-1.285-7.002s0-7.003-.822-11.148l-2.83-14.264L256 209.343l1.597-.277L286.21 204s5.386 27.664 3.558 30.5c-.394.622-.74 1.984-1.027 3.739-1.045 6.276-1.435 17.545-1.435 17.545s3.558 5.62 2.192 9.583c-1.365 3.964 1.285 10.504 1.285 10.504s.822 25.802-.732 28.382c-1.555 2.58.368 12.881.368 12.881z"/>
        <path fill="#D28690" d="M288 128.28s-26.755 18.314-20.727 9.155c3.248-4.932 2.651-11.212 1.379-15.955a36.984 36.984 0 0 0-2.652-6.998s22.734-9.4 19.72-.975a15.376 15.376 0 0 0-.884 6.117 16.038 16.038 0 0 0 3.164 8.657zM240.951 170.477s-11.395-3.28-13.292-.063c-1.898 3.219.57 10.281 4.009 11.418 3.439 1.136 11.332-3.85 11.332-3.85l-2.049-7.505z"/>
        <path fill="#585B8A" d="M253.18 165l-4.703 4.165s-8.185.721-10.537.178c0 0 2.166 13.938-.94 15.657l19-3.71-2.82-16.29z"/>
        <path fill="#000" d="M253.18 165l-4.703 4.165s-8.185.721-10.537.178c0 0 2.166 13.938-.94 15.657l19-3.71-2.82-16.29zM193 104.271c0 7.582-6.042 13.729-13.495 13.729-6.924-3.385-13.494-6.14-13.494-13.729-.196-5.03 2.33-9.766 6.583-12.34a13.297 13.297 0 0 1 13.802 0c4.252 2.574 6.778 7.31 6.583 12.34H193z" opacity=".1"/>
        <path fill="#FFD6D6" d="M193 103.491a13.499 13.499 0 1 1-26.998.017 13.499 13.499 0 0 1 26.998-.017z"/>
        <path fill="#000" d="M202 188.925a31.255 31.255 0 0 1-4.286 2.228s-7.007-1.018-8.02.182c-1.011 1.201-9.947 1.665-9.947 1.665s-13.647-.646-15.675-2.402a8.3 8.3 0 0 0-2.072-1.23l.225-3.512s35.16-2.22 37.989.49a9.347 9.347 0 0 1 1.786 2.58z" opacity=".1"/>
        <path fill="#DCE6F2" d="M203.96 186.132c-.279 1.582-6.04 4.002-6.04 4.002s-7.058-1.022-8.078.188c-1.02 1.21-10.022 1.678-10.022 1.678s-13.748-.655-15.791-2.425c-2.044-1.77-6.598-2.621-6.598-2.621s-2.322-16.576-1.39-20.207c.933-3.63-1.394-13.6-1.952-17.139-.557-3.539 1.578-13.317 4.18-14.898 2.6-1.582 6.317-6.894 8.544-8.476 1.878-1.332 3.952-3.058 4.558-3.578l.179-.149s.374-2.887 1.86-4.369c1.486-1.48 15.138 9.407 15.138 9.407s.096.839 1.024-.743c.209-.354 2.009 2.25 2.322 3.351 0 0 7.43 13.041 7.896 15.728.466 2.687 2.414 11.456 2.784 13.597.096.55.253 2.481.436 5.067.035.507.066 1.045.105 1.604.274 4.29.57 9.769.75 13.91 0 .472.038.927.052 1.364.094 1.568.108 3.14.043 4.71z"/>
        <path fill="#000" d="M157 152s5.107 6 6.78 6c1.674 0-6.78-6-6.78-6zM167 166s-7.965 9.16-6.902 10.844C161.16 178.528 167 166 167 166zM161 185s9.565-11.153 10-15l-10 15zM173 184s11.027-5.655 11.952-10.144C185.878 169.366 173 184 173 184zM187.538 128.207L186 131.905l2.56 1.202 2.518 6.988s6.94 13.786 6.66 20.957c-.28 7.17 1.259 17.948 1.259 17.948l4.003-.738-1.888-21.09a30.257 30.257 0 0 0-2.438-9.467c-3.2-7.275-9.152-20.705-9.527-20.705-.512 0-.153.187-.153.187l-1.456 1.02z" opacity=".1"/>
        <path fill="#575989" d="M187.538 128.202L186 131.905l2.565 1.202 2.512 6.988s6.938 13.786 6.658 20.957c-.28 7.17 1.259 17.948 1.259 17.948l4.006-.738-1.892-21.09a30.147 30.147 0 0 0-2.433-9.467c-3.199-7.28-9.15-20.705-9.52-20.705-.516 0-.158.187-.158.187l-1.46 1.015z"/>
        <path fill="#FFD6D6" d="M233.185 181.994c-1.931-.149-6.565-2.517-8.405-3.502l-.78-.438.095-7.23c.455-.27.927-.511 1.412-.722 2.46-1.085 7.505-2.56 10.034 2.19 3.412 6.37.09 9.869-2.356 9.702z"/>
        <path fill="#000" d="M190 95.094a1.974 1.974 0 0 1-.63.263c-1.567.35-3.35-1.027-4.692-.142-.82.544-1.01 1.67-1.12 2.664-.191 1.727-.383 3.442-.574 5.146a6.471 6.471 0 0 1-.372 1.774c-.663 1.55-2.484 2.28-4.144 2.254a2.437 2.437 0 0 1-1.787-.604c-.291-.303-.447-.726-.768-1.002-2.112-1.809-2.755 2.625-2.197 3.886.896 2.059 4.076 4.045 2.741 6.661a2.47 2.47 0 0 1-.98 1.006c-5.518-1.766-9.326-6.925-9.473-12.833-.147-5.908 3.4-11.257 8.823-13.308 5.423-2.05 11.522-.348 15.173 4.235z" opacity=".1"/>
        <path fill="#353045" d="M175.337 104.892c.327.275.492.703.793 1.008.51.438 1.172.658 1.843.61 1.712.027 3.59-.706 4.269-2.28a6.216 6.216 0 0 0 .388-1.789l.592-5.198c.113-1.003.305-2.142 1.155-2.691 1.385-.872 3.224.497 4.84.144a2.368 2.368 0 0 0 1.742-2.73c-.187-.833-.823-1.492-1.15-2.286a14.946 14.946 0 0 1-.475-1.862c-.901-3.384-4.87-5.286-8.32-4.719-1.917.319-3.7 1.234-5.62 1.514-1.377.2-2.784.07-4.174.218a10.526 10.526 0 0 0-3.703 1.094 2.152 2.152 0 0 0-.784.593c-.198.346-.33.724-.392 1.117-.467 1.744-1.965 3.031-3.05 4.5a10.732 10.732 0 0 0-2.065 5.806 4.658 4.658 0 0 0 .148 1.591c.092.306.235.602.305.916.214.955-.274 1.91-.514 2.861a5.728 5.728 0 0 0 .305 3.638c1.673 3.85 7.184 5.137 8.33 9.18a9.141 9.141 0 0 0 3.241.872c1.124.022 2.335-.462 2.858-1.46 1.372-2.617-1.904-4.65-2.828-6.726-.579-1.278.07-5.752 2.266-3.92z"/>
        <path fill="#000" d="M285.725 113.499a15.305 15.305 0 0 0-.884 6.102c-.68.562-1.423-1.118-2.21-.685-2.157 1.208-4.65 4.084-7.319 4.084a15.034 15.034 0 0 1-6.66-1.547 36.84 36.84 0 0 0-2.652-6.981s22.739-9.378 19.725-.973z" opacity=".1"/>
        <path fill="#D28690" d="M290 107.5c0 8.008-6.492 14.5-14.5 14.5s-14.5-6.492-14.5-14.5S267.492 93 275.5 93a14.496 14.496 0 0 1 14.5 14.5z"/>
        <path fill="#F0F3F7" d="M289 131.066s-2.743 2.933-3.116 3.173c-.372.241-8.326 33.108-8.466 33.491-.14.383-9.47 30.06-9.47 30.06L253 205l1.249-36.298 10.956-29.935s3.615-4.033 4.732-5.5c1.118-1.465 15.07-10.267 15.07-10.267l2.385 4.82 1.608 3.246z"/>
        <path fill="#000" d="M287 128.136L270.269 141l-.269-7.064c1.092-1.563 14.67-10.936 14.67-10.936l2.33 5.136z" opacity=".1"/>
        <path fill="#F0F3F7" d="M287 128.136L270.26 141l-.26-7.06c1.093-1.567 14.678-10.94 14.678-10.94l2.322 5.136z"/>
        <path fill="#585B8A" d="M269.42 131l.58 2.973-3.888 3.86 3.103-6.79s-6.65 4.528-8.645 5.729c-1.996 1.2-3.99 5.265-4.066 6.374-.076 1.11-3.215 17.826-3.215 17.826s-2.363 6.188-1.698 7.943S248 226 248 226c1.152-2.176 3.235-3.737 5.684-4.26l-1.516-32.697s1.844-21.753 1.937-22.03l4.3-12.887L269.42 131z"/>
        <path fill="#000" d="M271 134l-.297 6.088s-4.15 13.025-5.546 15.156c-1.395 2.13-5.642 14.833-5.642 14.833l-2.392 22.066L253.02 194 251 190.3l3.359-21.31s6.337-17.982 7.273-19.839l4.675-9.793L271 134z" opacity=".1"/>
        <path fill="#663D5C" d="M270 134l-.293 6.09s-4.148 13.026-5.546 15.157c-1.399 2.131-5.634 14.836-5.634 14.836l-2.378 22.064-4.1 1.853-2.049-3.706 3.357-21.312s6.333-17.989 7.264-19.842l4.707-9.782L270 134z"/>
        <path fill="#D28690" d="M223 180.145l7.73 5.855s5.452-3.345 2.277-5.509c-3.176-2.163-5.993-2.491-7.013-2.491-1.02 0-2.994 2.145-2.994 2.145zM228.581 169.652c-.363.2-.583.552-.581.931 0 1.503.192 5.484 1.617 3.687 1.748-2.2 1.43-4.174 4.1-2.748A15.191 15.191 0 0 1 238 175l-.743-4.722s-5.49-2.396-8.676-.626z"/>
        <path fill="#000" d="M289.619 234.894c-.397.63-.746 2.01-1.035 3.788-16.114 4.908-27.903-5.469-27.903-5.469a144.74 144.74 0 0 1-3.492-14.93c-.289-1.726-.224-5.07.043-9.151L286.041 204s5.418 28 3.578 30.894z" opacity=".1"/>
        <path fill="#585B8A" d="M306.81 151.701c-.741 2.414-.462 7.323-.462 7.323l-6.701 31.52s-3.257 24.287-3.816 27.531c-.559 3.244-1.489 17.521-1.489 17.521-18.986 9.272-33.616-3.335-33.616-3.335a141.65 141.65 0 0 1-3.536-14.834c-.934-5.505 1.816-27.562 3.117-37.36.389-2.9.65-4.726.65-4.726l4.886-18.078s6.003-15.25 8.238-19.7c2.235-4.448 11.211-14.441 11.211-14.441 1.113-.705 2.894 1.783 4.217 4.048 1 1.714 1.747 3.305 1.747 3.305s11.167 4.819 12.84 7.393c1.671 2.574 1.396 7.88 1.584 8.158.188.279 1.877 3.266 1.13 5.675z"/>
        <path fill="#000" d="M280.644 140.095s.832 4.908-1.3 6.389c-2.06 1.433-17.39 31.631-18.344 33.516.386-2.901.646-4.725.646-4.725l4.851-18.05s5.966-15.232 8.181-19.68c2.216-4.447 11.138-14.423 11.138-14.423 1.106-.704 2.87 1.78 4.184 4.043-1.981 4.122-6.113 11.913-9.356 12.93z" opacity=".1"/>
        <path fill="#585B8A" d="M279.653 140.096s.828 4.908-1.3 6.39c-2.13 1.48-17.386 31.629-18.353 33.514.386-2.897.646-4.721.646-4.721l4.851-18.056s5.962-15.233 8.181-19.677c2.22-4.443 11.134-14.424 11.134-14.424 1.105-.704 2.874 1.78 4.188 4.043-1.973 4.118-6.109 11.915-9.347 12.931z"/>
        <path fill="#EA0B4B" d="M302 184.412l-5.194 27.141v.004l-.496 2.598v.004L295.19 220l-4.77-1.015-2.224-.472-30.77-6.548-2.263-.481-5.164-1.097 1.01-6.739.42-2.801L255.154 176z"/>
        <path fill="#D28690" d="M272.87 207s-12.139 4.312-9.493 9.433c2.646 5.122 19.623-3.953 19.623-3.953L272.87 207z"/>
        <path fill="#000" d="M282 244c0 .37.5 5.112 2.49 6.782C286.48 252.45 282 244 282 244zM270 261s2.175 6.125 10.794 8.632C289.412 272.14 270 261 270 261zM290 107.446A14.494 14.494 0 0 1 282.782 120a7.674 7.674 0 0 1-2.165-1.816c-.627-.766-1.117-1.811-.74-2.726.303-.736 1.104-1.202 1.299-1.964a2.907 2.907 0 0 0-.07-1.402c-.16-.718-.311-1.437-.467-2.151-.134-.61-.372-1.328-.974-1.476-.602-.148-1.104.357-1.576.731-1.156.92-3.373 1.542-4.763.788-1.39-.753-1-3.274-1.225-4.637a.812.812 0 0 0-.303-.614 1.257 1.257 0 0 0-.628-.044c-.749 0-1.35-.675-1.567-1.398a12.098 12.098 0 0 1-.251-2.242c-.083-.754-.355-1.55-.996-1.938a3.063 3.063 0 0 0-1.641-.27l-2.715.03c3.694-5.022 10.173-7.097 16.074-5.146 5.901 1.95 9.893 7.487 9.904 13.734l.022-.013z" opacity=".1"/>
        <path fill="#663D5C" d="M277.722 110.193c.465-.376.976-.875 1.551-.73.576.144.823.875.955 1.478l.46 2.157c.137.458.161.943.073 1.413-.218.77-1.002 1.234-1.304 1.973-.371.919.115 1.969.728 2.734a7.637 7.637 0 0 0 4.386 2.69c.448.111.915.122 1.368.031 1.014-.24 1.704-1.199 2.25-2.095 2.817-4.506 5.242-9.445 5.736-14.773a9.721 9.721 0 0 0-.145-3.26 11.097 11.097 0 0 0-.971-2.384 19.3 19.3 0 0 0-2.74-4.256c-1.94-2.144-4.616-3.46-7.365-4.239a24.32 24.32 0 0 0-9.508-.766c-.852.101-1.67.245-2.51.302-1.054.05-2.11.033-3.162-.052l-6.273-.385c-.358.748 0 1.636.426 2.336s.955 1.426.92 2.257c-.034.831-.609 1.488-1.052 2.187-.443.7-.78 1.606-.337 2.288.443.683 1.347.727 2.131.718l3.162-.035c.551-.058 1.107.04 1.607.284.63.39.9 1.194.98 1.947.018.757.1 1.51.247 2.253.218.726.806 1.413 1.543 1.404.206-.042.42-.026.618.048a.812.812 0 0 1 .298.613c.222 1.369-.187 3.897 1.206 4.659 1.394.76 3.584.126 4.722-.797z"/>
        <path fill="#000" d="M296.549 138.04c-3.312-.35-6.426 1.627-7.5 4.761-1.75 4.952-4.667 13.888-3.937 17.418 1.028 5.005 2.24 13.349 2.24 13.349s5.313 3.043 2.623 6.113c-2.69 3.07-3.45 7.418-3.45 7.418s-3.451 1.482-4.195 4.635c-.743 3.152-5.781 7.504-5.781 7.504l-7.549 7.51s12.49 12.608 15.01 13.252l7.737-8.992 9.136-12.048 7.925-8.261s1.863-4.348.931-12.61c-.931-8.26-4.57-16.126-4.57-16.126l.28-2.783s.857-19.936-8.9-21.14z" opacity=".1"/>
        <path fill="#585B8A" d="M297.558 138.039c-3.31-.345-6.421 1.63-7.496 4.761-1.75 4.953-4.668 13.888-3.938 17.419 1.024 5.004 2.236 13.348 2.236 13.348s5.317 3.044 2.626 6.113c-2.691 3.07-3.448 7.418-3.448 7.418s-3.453 1.483-4.201 4.635c-.748 3.153-5.78 7.505-5.78 7.505l-7.557 7.51s12.497 12.608 15.017 13.252l7.74-8.992 9.12-12.048 7.928-8.262s1.869-4.348.932-12.609c-.936-8.261-4.568-16.127-4.568-16.127l.28-2.783s.871-19.936-8.891-21.14z"/>
        <path fill="#000" d="M289 166s8.07 9.867 11.49 7.685C303.91 171.503 289 166 289 166zM292 159c.852.285 7.852 10.062 11.445 8.905C307.04 166.747 292 159 292 159zM295 175s.486 5.703 6.395 4.928C307.303 179.152 295 175 295 175zM269.402 131L267 137l3-3.412z" opacity=".1"/>
        <path fill="#F0F3F7" d="M269.402 131L267 137l3-3.412z"/>
        <path fill="#000" d="M257 212l-2.116-.476L251 203.77l.392-2.771zM296 212l-.461 2.448v.004L290.066 219l-2.066-.445z" opacity=".3"/>
        <path fill="#000" d="M204 181.447a91.145 91.145 0 0 1-3.297.495c-5.686.743-19.208-5.92-19.208-5.92s-16.5-13.695-21.254-26.647c-4.754-12.953 5.685-14.897 5.685-14.897 3.936-2.223 12.495 3.976 13.706 4.996 1.211 1.02 2.24 3.607 2.143 5.273-.096 1.667 2.799 3.794 2.799 3.794s4.942 8.512 6.153 9.437c1.211.924 1.491 1.758 1.863 3.333.372 1.576 3.634 2.87 5.034 2.774 1.4-.096 3.061.464 3.061 1.202 0 .595 1.369.89 2.493.986.332 4.744.66 10.96.822 15.174z" opacity=".1"/>
        <path fill="#000" d="M204 180.573c-.87.14-1.707.265-2.49.37-5.66.742-19.117-5.921-19.117-5.921s-16.426-13.695-21.158-26.647c-4.732-12.953 5.66-14.897 5.66-14.897 3.918-2.223 12.433 3.976 13.64 4.996 1.205 1.02 2.228 3.607 2.137 5.273-.091 1.667 2.782 3.794 2.782 3.794s4.92 8.512 6.125 9.437c1.206.924 1.485 1.758 1.86 3.333.374 1.576 3.617 2.865 5.01 2.774 1.393-.091 3.048.464 3.048 1.202 0 .434.775.725 1.637.868.034.504.065 1.038.104 1.593.287 4.267.584 9.71.762 13.825zM225 170l-.466 8h-.5l-1.034-.418.126-6.893A19.7 19.7 0 0 1 225 170z" opacity=".1"/>
        <path fill="#DCE6F2" d="M165.903 134.476s-10.404 1.945-5.666 14.896c4.738 12.952 21.183 26.65 21.183 26.65s13.474 6.659 19.144 5.92c5.671-.737 14.306-2.681 15.422-2.404 1.116.278 8.644.278 8.644.278l.37-8.68-8.718-.465-4.459-.925s-1.582-1.302-2.51-1.11c-.929.19-2.877-1.112-2.877-1.112s-1.49-1.202-2.616-1.202c-1.124 0-3.251-.278-3.251-1.016s-1.674-1.302-3.051-1.202c-1.378.1-4.669-1.202-5.052-2.795-.384-1.593-.65-2.405-1.857-3.33-1.208-.924-6.133-9.44-6.133-9.44s-2.881-2.127-2.79-3.79c.092-1.661-.928-4.257-2.135-5.277-1.208-1.02-9.751-7.214-13.648-4.996z"/>
        <path fill="#000" d="M192 163s-3.814 4.218-2.841 5l2.841-5zM196 167s-5.144 3.728-3.765 3.989C193.613 171.249 196 167 196 167zM188 173c.746.327 11.811 6.083 16 6l-16-6zM189 128.558S187.068 135 186.33 135c-.577 0-10.28-7.979-14.33-11.333l.177-.149s.366-2.895 1.837-4.38c1.47-1.484 14.986 9.42 14.986 9.42z" opacity=".1"/>
        <path fill="#DCE6F2" d="M188 128.558S186.072 135 185.335 135c-.582 0-10.286-7.979-14.335-11.333l.177-.149s.37-2.895 1.841-4.38c1.47-1.484 14.982 9.42 14.982 9.42z"/>
        <g fill="#000" opacity=".15">
            <path d="M162.165 107.843c1.305 3.003 4.896 4.458 6.978 6.852-1.239-2.942-4.86-4.384-6.978-6.852zM175.457 114.76c-.518 1.004-1.74 1.491-2.853 1.469a8.267 8.267 0 0 1-2.86-.736c.327.486.576 1.022.739 1.586a9.029 9.029 0 0 0 3.234.877c1.126.026 2.335-.46 2.853-1.468.83-1.6-.035-2.968-1.048-4.261a2.804 2.804 0 0 1-.065 2.534zM191.591 92.79c-.187-.842-.821-1.503-1.148-2.297a14.44 14.44 0 0 1-.473-1.876 5.826 5.826 0 0 0-1.335-2.407c.087.216.161.437.222.662.121.639.284 1.268.486 1.885.327.794.961 1.456 1.148 2.297a2.38 2.38 0 0 1-1.739 2.744c-1.609.355-3.443-1.047-4.826-.144-.848.548-1.043 1.692-1.156 2.7a1145.67 1145.67 0 0 1-.592 5.23 6.313 6.313 0 0 1-.382 1.797c-.683 1.578-2.557 2.319-4.266 2.292a2.547 2.547 0 0 1-1.834-.613 12.202 12.202 0 0 0-.796-1.017c-2.174-1.841-2.835 2.66-2.26 3.945a7.948 7.948 0 0 0 1.06 1.609c-.478-1.447.191-5.611 2.313-3.827.283.323.547.663.791 1.017.511.438 1.17.658 1.84.614 1.708.026 3.582-.715 4.265-2.293a6.313 6.313 0 0 0 .382-1.802c.197-1.753.395-3.495.592-5.225.113-1.008.308-2.152 1.152-2.7 1.387-.903 3.222.5 4.83.14a2.376 2.376 0 0 0 1.726-2.73z"/>
        </g>
        <path fill="#000" d="M287.225 119.918c-.459.087-.93.075-1.383-.035a7.731 7.731 0 0 1-4.428-2.688c-.625-.771-1.116-1.822-.737-2.742.302-.74 1.095-1.204 1.293-1.974a2.98 2.98 0 0 0-.074-1.415l-.465-2.158c-.133-.613-.366-1.336-.965-1.48-.598-.145-1.098.354-1.567.73-1.15.925-3.36 1.555-4.739.793-1.378-.761-.995-3.292-1.219-4.663a.824.824 0 0 0-.301-.613 1.209 1.209 0 0 0-.629-.048c-.745 0-1.34-.679-1.56-1.406a12.629 12.629 0 0 1-.245-2.255c-.086-.753-.353-1.559-.995-1.948a3.053 3.053 0 0 0-1.624-.285l-3.196.035c-.788 0-1.723-.052-2.153-.718-.431-.665-.112-1.611.34-2.29s1.025-1.353 1.064-2.19c.039-.836-.495-1.558-.93-2.259a4.084 4.084 0 0 1-.543-1.252L261.25 89c-.357.744 0 1.633.431 2.338.43.705.97 1.428.93 2.255-.038.828-.611 1.493-1.064 2.19-.452.696-.783 1.607-.336 2.29.448.683 1.357.73 2.154.722l3.196-.04a3.049 3.049 0 0 1 1.624.29c.642.39.913 1.195.995 1.948.014.758.097 1.513.25 2.255.215.723.814 1.415 1.56 1.402.208-.038.423-.021.624.048a.828.828 0 0 1 .301.617c.224 1.366-.19 3.901 1.22 4.663 1.408.762 3.605.132 4.737-.792.47-.377.991-.876 1.573-.736.581.14.83.876.96 1.48l.47 2.163c.136.459.16.945.069 1.415-.216.766-1.013 1.234-1.314 1.97-.375.92.112 1.975.736 2.741a7.73 7.73 0 0 0 4.458 2.689c.454.11.925.122 1.383.035.74-.23 1.376-.72 1.792-1.384a2.377 2.377 0 0 1-.775.36z" opacity=".1"/>
        <ellipse cx="88.5" cy="310.5" fill="#EA0B4B" opacity=".1" rx="10.5" ry="1.5"/>
        <ellipse cx="454.5" cy="268.5" fill="#EA0B4B" opacity=".1" rx="10.5" ry="1.5"/>
        <ellipse cx="347.5" cy="333.5" fill="#EA0B4B" opacity=".1" rx="30.5" ry="4.5"/>
        <ellipse cx="434.5" cy="313.5" fill="#EA0B4B" opacity=".1" rx="23.5" ry="3.5"/>
        <ellipse cx="431" cy="349.5" fill="#EA0B4B" opacity=".1" rx="40" ry="6.5"/>
        <ellipse cx="43.5" cy="355.5" fill="#EA0B4B" opacity=".1" rx="30.5" ry="4.5"/>
        <path fill="#EA0B4B" d="M89.295 259s1.196 1.442-.55 3.626c-1.746 2.183-3.187 4.028-2.62 5.374 0 0 2.62-4.029 4.802-4.101 2.183-.073.73-2.466-1.632-4.899z"/>
        <path fill="#000" d="M89.254 259c.108.138.191.29.247.452 2.12 2.276 3.246 4.395 1.21 4.44-1.894.048-4.168 3.147-4.711 3.93.017.06.037.12.062.178 0 0 2.649-4.036 4.857-4.109 2.207-.072.724-2.453-1.665-4.891z" opacity=".1"/>
        <path fill="#FFD037" d="M91.82 261.262c0 .408-.15.738-.32.738s-.32-.324-.32-.738.18-.213.35-.213c.17 0 .29-.195.29.213z"/>
        <path fill="#FFD037" d="M91.762 261.504c-.389.347-.732.578-.76.468-.028-.11.262-.44.654-.792.393-.353.237-.093.265 0 .029.092.234-.03-.159.324z"/>
        <path fill="#EA0B4B" d="M82.692 259s-1.2 1.442.552 3.626c1.752 2.183 3.202 4.028 2.629 5.374 0 0-2.629-4.029-4.797-4.101-2.169-.073-.767-2.466 1.616-4.899z"/>
        <path fill="#000" d="M82.732 259c-.106.14-.19.291-.249.452-2.125 2.276-3.255 4.395-1.213 4.44 1.9.048 4.18 3.147 4.73 3.93-.018.06-.04.12-.066.178 0 0-2.658-4.036-4.85-4.109-2.192-.072-.762-2.453 1.648-4.891z" opacity=".1"/>
        <path fill="#FFD037" d="M80.185 261.262c0 .408.14.738.31.738.17 0 .32-.324.32-.738s-.18-.213-.35-.213c-.17 0-.28-.195-.28.213zM79.237 261.504c.39.347.729.578.76.468.032-.11-.263-.44-.654-.792-.391-.353-.236-.093-.265 0-.028.092-.232-.03.159.324z"/>
        <ellipse cx="85.5" cy="279" fill="#EA0B4B" opacity=".1" rx="12.5" ry="2"/>
        <path fill="#65617D" d="M91.997 266.731l-.061.49-.084.692-.035.289-.084.691-.04.29-.084.69-.965 7.88c-.084.7-1.239 1.247-2.645 1.247h-4.998c-1.393 0-2.548-.547-2.645-1.247l-.965-7.88-.084-.69-.035-.29-.089-.691-.035-.29-.084-.69-.061-.491c-.049-.398.577-.731 1.366-.731h10.266c.785 0 1.41.333 1.362.731z"/>
        <path fill="#9D9CB5" d="M92 266l-.085 1h-12.83L79 266zM92 268l-.086 1H79.09L79 268zM91 269l-.085 1H79.08L79 269z"/>
        <path fill="#EA0B4B" d="M447.126 253s-1.31 7.155 4.514 8l.36-.796s-4.514-4.984-4.874-7.204z"/>
        <path fill="#EA0B4B" d="M454 259.631l-1.608.333-.159.036s-4.287-3.403-4.232-11a18.704 18.704 0 0 0 2.048 3.168c1.698 2.199 3.629 5.13 3.951 7.463z"/>
        <path fill="#EA0B4B" d="M454.574 260.842a.917.917 0 0 1-.808.11c-3.862-.933-2.552-13.952-2.552-13.952.213.101.425 1.76 1.335 3.898 1.553 3.753 3.266 9.002 2.025 9.944zM462.999 253s.227 7.155-5.633 8l-.366-.809s5.637-4.97 5.999-7.191z"/>
        <path fill="#EA0B4B" d="M461 249c.052 7.597-5.301 11-5.301 11l-.158-.036-1.541-.333c.306-2.332 2.183-5.264 3.795-7.463A16.935 16.935 0 0 1 461 249z"/>
        <path fill="#EA0B4B" d="M456.409 260.165c-.23.292-.522.526-.854.682-.103.048-.21.085-.32.11-.952.23-1.281-.48-1.23-1.686.09-2.143 1.396-5.862 2.562-8.649.56-1.366 1.39-2.6 2.433-3.622 0 0-.06 10.137-2.591 13.165z"/>
        <path fill="#EA0B4B" d="M454.755 242s-3.591 15.488-.5 17.802c3.092 2.315 1.293-16.434.5-17.802z"/>
        <path fill="#000" d="M447.126 253s-1.31 7.155 4.514 8l.36-.796s-4.514-4.984-4.874-7.204z" opacity=".1"/>
        <path fill="#000" d="M454 259.631l-1.608.333-.159.036s-4.287-3.403-4.232-11a18.704 18.704 0 0 0 2.048 3.168c1.698 2.199 3.629 5.13 3.951 7.463z" opacity=".1"/>
        <path fill="#000" d="M454.574 260.842a.917.917 0 0 1-.808.11c-3.862-.933-2.552-13.952-2.552-13.952.213.101.425 1.76 1.335 3.898 1.553 3.753 3.266 9.002 2.025 9.944zM462.999 253s.227 7.155-5.633 8l-.366-.809s5.637-4.97 5.999-7.191z" opacity=".1"/>
        <path fill="#000" d="M461 249c.052 7.597-5.301 11-5.301 11l-.158-.036-1.541-.333c.306-2.332 2.183-5.264 3.795-7.463A16.935 16.935 0 0 1 461 249z" opacity=".1"/>
        <path fill="#000" d="M456.409 260.165c-.23.292-.522.526-.854.682-.103.048-.21.085-.32.11-.952.23-1.281-.48-1.23-1.686.09-2.143 1.396-5.862 2.562-8.649.56-1.366 1.39-2.6 2.433-3.622 0 0-.06 10.137-2.591 13.165z" opacity=".1"/>
        <path fill="#000" d="M454.755 242s-3.591 15.488-.5 17.802c3.092 2.315 1.293-16.434.5-17.802z" opacity=".1"/>
        <path fill="#EA0B4B" d="M447.037 253s-.844 7.155 5.567 8l.396-.796s-5.567-4.984-5.963-7.204z"/>
        <path fill="#EA0B4B" d="M455 259.63l-1.45.334-.143.036s-4.444-3.407-4.407-11c0 0 1.139 1.334 2.425 3.171 1.544 2.189 3.284 5.125 3.575 7.46z"/>
        <path fill="#000" d="M455 259.658l-1.22.342c-1.156-1.34-1.614-4.841-1.78-8 1.29 2.256 2.755 5.265 3 7.658z" opacity=".1"/>
        <path fill="#EA0B4B" d="M455.522 260.842a1.153 1.153 0 0 1-.914.11c-4.346-.933-3.551-13.952-3.551-13.952.24.101 1.177 1.76 2.178 3.898 1.756 3.753 3.68 9.002 2.287 9.944zM462.963 253s.844 7.155-5.567 8l-.396-.796s5.567-4.984 5.963-7.204z"/>
        <path fill="#EA0B4B" d="M461 249c.049 7.597-4.404 11-4.404 11l-.143-.036-1.453-.333c.287-2.332 2.052-5.264 3.57-7.463A46.454 46.454 0 0 1 461 249z"/>
        <path fill="#000" d="M459 252c-.159 2.945-.566 6.186-1.555 7.7-.068.108-.143.209-.224.3l-1.221-.342c.241-2.393 1.71-5.402 3-7.658z" opacity=".1"/>
        <path fill="#EA0B4B" d="M456.708 260.165a2.58 2.58 0 0 1-.96.682 2.043 2.043 0 0 1-.356.11c-1.075.23-1.44-.48-1.387-1.686.106-2.143 1.575-5.862 2.88-8.649.96-2.002 1.83-3.52 2.06-3.622 0-.004.61 10.137-2.237 13.165z"/>
        <path fill="#000" d="M455.526 260a1.295 1.295 0 0 1-.684-.183c-2.028-1.06-2.071-5.034-1.587-8.817 1.744 3.397 3.653 8.148 2.27 9z" opacity=".1"/>
        <path fill="#000" d="M456.48 260.33c-.217.46-.507.701-.881.667a1.201 1.201 0 0 1-.533-.198 2.79 2.79 0 0 1-1.066-1.343c.097-2.096 1.444-5.732 2.642-8.456.432 3.774.577 7.776-.163 9.33z" opacity=".1"/>
        <path fill="#EA0B4B" d="M454.401 242s-3.152 15.488 0 17.802c3.152 2.315.81-16.434 0-17.802z"/>
        <path fill="#4B4770" d="M462 259h-16v2.614h2.441l.062.31.978 5.076h9.302l.978-5.077.058-.309H462z"/>
        <path fill="#000" d="M462 259h-16v2.614h2.441l.062.31.978 5.076h9.302l.978-5.077.058-.309H462z" opacity=".1"/>
        <path fill="#4B4770" d="M461 261l-.25 1.288-.913 4.712h-8.674l-.912-4.712L450 261z"/>
        <path fill="#000" d="M461 261l-.25 1h-10.5l-.25-1z" opacity=".1"/>
        <path fill="#4B4770" d="M447 260h16v2h-16z"/>
        <path fill="#EA0B4B" d="M60.568 304.245a7.67 7.67 0 0 0-.971 1.875c-.06.162-.12.35-.179.528a1.827 1.827 0 0 0-.336-.122 4.576 4.576 0 0 0-1.52-.131c0-.205.025-.436.03-.641.063-2.298-.2-5.5-2.342-4.143-2.053 1.308-.588 3.489.736 4.884.115.122.23.236.34.345-1.208.872-1.438 2.935-1.638 5.076-.2 2.141-1.976 4.483-3.155 5.813-.12.135-.226.257-.332.37a4.246 4.246 0 0 0-3.428-.902c-.047-.187-.102-.384-.157-.589-.954-3.528-2.934-9.637-5.459-10.976l.332-.436c1.073-1.435 2.282-3.572.498-4.117-1.784-.545-1.945 1.849-1.847 3.646l.05.64a2.588 2.588 0 0 0-1.864.934l-.277-.336c-1.448-1.744-4.1-4.522-4.905-2.424-.75 1.953 1.588 4.491 3.232 5.961l.102.092c-1.103 4.583 3.713 8.32 6.306 9.956l.336.209c-3.577 4.317-5.786 12.411-5.786 12.411L48.348 334s6.642-5.87 5.79-11.382h.069c6.637-1.36 8.145-8.609 7.11-12.913l.12-.048a7.536 7.536 0 0 0 3.073-2.381c1.857-2.639-2.026-5.621-3.942-3.031z"/>
        <path fill="#000" d="M60.568 304.245a7.67 7.67 0 0 0-.971 1.875c-.06.162-.12.35-.179.528a1.827 1.827 0 0 0-.336-.122 4.576 4.576 0 0 0-1.52-.131c0-.205.025-.436.03-.641.063-2.298-.2-5.5-2.342-4.143-2.053 1.308-.588 3.489.736 4.884.115.122.23.236.34.345-1.208.872-1.438 2.935-1.638 5.076-.2 2.141-1.976 4.483-3.155 5.813-.12.135-.226.257-.332.37a4.246 4.246 0 0 0-3.428-.902c-.047-.187-.102-.384-.157-.589-.954-3.528-2.934-9.637-5.459-10.976l.332-.436c1.073-1.435 2.282-3.572.498-4.117-1.784-.545-1.945 1.849-1.847 3.646l.05.64a2.588 2.588 0 0 0-1.864.934l-.277-.336c-1.448-1.744-4.1-4.522-4.905-2.424-.75 1.953 1.588 4.491 3.232 5.961l.102.092c-1.103 4.583 3.713 8.32 6.306 9.956l.336.209c-3.577 4.317-5.786 12.411-5.786 12.411L48.348 334s6.642-5.87 5.79-11.382h.069c6.637-1.36 8.145-8.609 7.11-12.913l.12-.048a7.536 7.536 0 0 0 3.073-2.381c1.857-2.639-2.026-5.621-3.942-3.031z" opacity=".1"/>
        <path fill="#EA0B4B" d="M40 307.479L38.833 311s-.65-.475-1.468-1.224c-1.638-1.483-3.968-4.044-3.221-6.016.802-2.117 3.446.678 4.888 2.447.582.704.968 1.272.968 1.272zM42.486 304.763c-.386.431-.799.844-1.237 1.237a14.113 14.113 0 0 1-.226-1.66c-.107-1.612.097-3.752 2.003-3.271 1.907.481.623 2.407-.54 3.694zM56.996 306.094c-.03 1.059-.129 1.906-.129 1.906a13.51 13.51 0 0 1-1.301-1.227c-1.18-1.29-2.486-3.28-.657-4.475 1.89-1.247 2.125 1.69 2.087 3.796zM65.509 307.554a7.523 7.523 0 0 1-3.088 2.107 9.918 9.918 0 0 1-1.035.339L60 308.245c.145-.58.337-1.15.573-1.705.238-.592.566-1.15.975-1.659 1.916-2.291 5.825.347 3.96 2.673z"/>
        <path fill="#000" d="M38.899 306c.661.738 1.101 1.31 1.101 1.31L38.671 311s-.739-.498-1.671-1.282a7.084 7.084 0 0 1 1.498-3.261c.13-.153.27-.31.4-.457zM42 304.51c-.264.519-.546 1.016-.845 1.49a29.43 29.43 0 0 1-.155-2c.36.011.71.19 1 .51z" opacity=".1"/>
        <path fill="#EA0B4B" d="M48 319.7l-2.929 1.3s-.637-.312-1.558-.893c-3.078-1.916-9.265-6.742-5.138-12.43 4.128-5.688 7.608 4.513 8.991 9.503A54.82 54.82 0 0 1 48 319.7z"/>
        <path fill="#000" d="M56 306.713c.528-.43 1.243-.685 2-.713-.042 1.111-.18 2-.18 2a17.819 17.819 0 0 1-1.82-1.287zM62 309.608a6.695 6.695 0 0 1-.855.392L60 307.971c.12-.67.278-1.33.473-1.971.732.544 1.276 1.9 1.527 3.608z" opacity=".1"/>
        <path fill="#EA0B4B" d="M54.18 322.63a8.849 8.849 0 0 1-.517.094c-10.304 1.554-3.397-3.97-3.397-3.97s.45-.446 1.092-1.12c1.245-1.363 3.114-3.747 3.33-5.954.323-3.318.696-6.43 4.638-5.52 3.869.903 4.61 14.528-5.146 16.47z"/>
        <path fill="#D4DFEC" d="M35 348h19v5H35z"/>
        <path fill="#D4DFEC" d="M32 331h25v18H32z"/>
        <path fill="#000" d="M35 348h19v5H35z" opacity=".1"/>
        <path fill="#000" d="M32 331h25v18H32z" opacity=".1"/>
        <path fill="#D4DFEC" d="M36 348h19v5H36z"/>
        <path fill="#000" d="M48.294 316c.477 1.564.706 2.636.706 2.636L45.737 320s-.711-.327-1.737-.936c1.279-1.541 2.72-2.705 4.294-3.064zM54 322.656a8.919 8.919 0 0 1-.502.087c-10.004 1.448-3.298-3.699-3.298-3.699s.436-.416 1.06-1.044c1.867 1.427 2.64 3.033 2.74 4.656z" opacity=".1"/>
        <path fill="#EA0B4B" d="M38 332.16s5.506-20.197 13.228-13.967c7.723 6.23-3.143 15.807-3.143 15.807L38 332.16z"/>
        <circle cx="41.5" cy="310.5" r="1" fill="#000" opacity=".1"/>
        <circle cx="41.5" cy="312.5" r="1" fill="#000" opacity=".1"/>
        <circle cx="58.5" cy="310.5" r="1" fill="#000" opacity=".1"/>
        <circle cx="44.5" cy="326.5" r="1" fill="#000" opacity=".1"/>
        <circle cx="57.5" cy="315.5" r="1" fill="#000" opacity=".1"/>
        <circle cx="51.5" cy="321.5" r="1" fill="#000" opacity=".1"/>
        <circle cx="43.5" cy="311.5" r="1" fill="#000" opacity=".1"/>
        <circle cx="57.5" cy="312.5" r="1" fill="#000" opacity=".1"/>
        <circle cx="55.5" cy="317.5" r="1" fill="#000" opacity=".1"/>
        <circle cx="48.5" cy="325.5" r="1" fill="#000" opacity=".1"/>
        <circle cx="47.5" cy="322.5" r="1" fill="#000" opacity=".1"/>
        <circle cx="44.5" cy="315.5" r="1" fill="#000" opacity=".1"/>
        <path fill="#000" d="M36 348h19v2H36z" opacity=".1"/>
        <path fill="#D4DFEC" d="M33 331h25v18H33z"/>
        <circle cx="49.5" cy="327.5" r="1" fill="#000" opacity=".1"/>
        <circle cx="46.5" cy="329.5" r="1" fill="#000" opacity=".1"/>
        <circle cx="21.5" cy="22.5" r="4.5" fill="#EA0B4B" opacity=".1"/>
        <circle cx="458" cy="166" r="6" fill="#EA0B4B" opacity=".1"/>
        <circle cx="469.5" cy="151.5" r="4.5" fill="#EA0B4B" opacity=".1"/>
        <circle cx="29" cy="6" r="6" fill="#EA0B4B" opacity=".1"/>
        <circle cx="6" cy="34" r="6" fill="#EA0B4B" opacity=".1"/>
    </g>
</svg>
