<svg xmlns="http://www.w3.org/2000/svg" width="31" height="29" viewBox="0 0 31 29">
    <g fill="#FFF" fill-rule="evenodd">
        <path d="M20.936 28.72c-.898 0-1.835-.063-2.711-.18-3.142-.42-7.743-1.76-11.819-5.759-8.584-8.416-6-17.253-4.815-18.415l2.752-2.698A3.023 3.023 0 0 1 6.476.803a3.03 3.03 0 0 1 2.134.866c.034.034.067.071.096.108l3.57 4.488c.539.55.834 1.275.834 2.043 0 .79-.312 1.532-.886 2.097l-4.38 4.055c1.908 4.437 6.385 6.53 7.82 6.969.592-.877 2.681-3.078 3.65-4.084a3.023 3.023 0 0 1 2.13-.864c.77 0 1.5.282 2.058.794l4.703 3.381c.049.036.097.076.14.118.569.559.881 1.302.881 2.092s-.312 1.532-.881 2.09l-2.88 2.824c-.888.872-3.692.94-4.529.94zM28.624 11.754a10.156 10.156 0 0 0-3.024-6.56 10.51 10.51 0 0 0-6.68-2.971.922.922 0 0 1-.87-.975.924.924 0 0 1 .995-.85c2.982.196 5.779 1.44 7.876 3.503a11.963 11.963 0 0 1 3.566 7.732.921.921 0 0 1-.932.975.926.926 0 0 1-.93-.854z"/>
        <path d="M17.74 5.699a.924.924 0 0 1 .995-.85c1.88.123 3.643.908 4.966 2.208a7.536 7.536 0 0 1 2.246 4.87.921.921 0 0 1-.931.977.925.925 0 0 1-.93-.854 5.726 5.726 0 0 0-1.705-3.7 5.939 5.939 0 0 0-3.773-1.676.921.921 0 0 1-.867-.975zM20.984 13.17a.925.925 0 0 1-.992-.853 1.718 1.718 0 0 0-.51-1.126 1.799 1.799 0 0 0-1.153-.504.922.922 0 0 1-.866-.977.924.924 0 0 1 .996-.849 3.704 3.704 0 0 1 2.344 1.037 3.55 3.55 0 0 1 1.05 2.3.92.92 0 0 1-.87.973z"/>
    </g>
</svg>
