<svg xmlns="http://www.w3.org/2000/svg" width="29" height="26" viewBox="0 0 29 26">
    <g fill="#FFF" fill-rule="evenodd">
        <path d="M21.474 0H3.735a.774.774 0 0 0-.734.81v5.055a8.998 8.998 0 0 1 3.05-.503h14.237a2.192 2.192 0 0 1 2.2 2.18v5.806a8.368 8.368 0 0 1-.838 3.796h1.454l5.6 7.789c.043.06.122.083.191.056a.162.162 0 0 0 .104-.17V8.292C28.999 3.14 26.147 0 21.474 0z"/>
        <path d="M.227 25.95l4.308-5.607h9.676c3.595 0 5.789-2.262 5.789-5.969V8.582A.574.574 0 0 0 19.435 8H5.789C2.194 8 0 10.262 0 13.969v11.9c0 .056.034.105.086.124a.125.125 0 0 0 .141-.043z"/>
    </g>
</svg>
