<svg xmlns="http://www.w3.org/2000/svg" xmlns:xlink="http://www.w3.org/1999/xlink" width="18" height="19" viewBox="0 0 18 19">
    <defs>
        <path id="b" d="M0 0h222v764H0z"/>
        <filter id="a" width="106.3%" height="101.8%" x="-3.2%" y="-.7%" filterUnits="objectBoundingBox">
            <feOffset dy="2" in="SourceAlpha" result="shadowOffsetOuter1"/>
            <feGaussianBlur in="shadowOffsetOuter1" result="shadowBlurOuter1" stdDeviation="2"/>
            <feColorMatrix in="shadowBlurOuter1" values="0 0 0 0 0 0 0 0 0 0 0 0 0 0 0 0 0 0 0.0696022727 0"/>
        </filter>
    </defs>
    <g fill="none" fill-rule="evenodd">
        <path fill="#FFF" d="M-34-502h1440v1658H-34z"/>
        <g transform="translate(-34 -502)">
            <use fill="#000" filter="url(#a)" xlink:href="#b"/>
            <use fill="#FFF" xlink:href="#b"/>
        </g>
        <path fill="#F4F4F4" d="M-34-14h222v48H-34z"/>
        <path d="M-34-14h222v48H-34z"/>
        <g fill="#EA0B4B" fill-rule="nonzero">
            <path d="M7.05 15.178a.371.371 0 1 0 0-.743.371.371 0 0 0 0 .743z"/>
            <path d="M15.957 6.16h-1.855V.371A.371.371 0 0 0 13.73 0H3.34a.371.371 0 0 0-.371.371v5.79H1.113C.5 6.16 0 6.66 0 7.272v2.97c0 .483.31.895.742 1.049v6.595c0 .614.5 1.113 1.113 1.113h13.36c.614 0 1.113-.5 1.113-1.113v-6.595c.432-.154.742-.566.742-1.05V7.273c0-.613-.5-1.113-1.113-1.113zm-1.855 2.227h.742v.742h-.742v-.742zM3.71.742h9.648V9.13H3.711V.742zM2.227 9.13v-.742h.742v.742h-.742zm12.988 9.129H1.855a.371.371 0 0 1-.37-.371v-6.532h14.1v6.532a.371.371 0 0 1-.37.37zm1.113-8.016a.371.371 0 0 1-.371.371H1.113a.371.371 0 0 1-.37-.37v-2.97c0-.204.166-.37.37-.37H2.97v.742H1.855a.371.371 0 0 0-.37.37V9.5c0 .205.165.371.37.371h13.36a.371.371 0 0 0 .37-.371V8.016a.371.371 0 0 0-.37-.371h-1.113v-.743h1.855c.205 0 .371.167.371.371v2.97z"/>
            <path d="M12.246 12.951H4.824a.371.371 0 0 0-.37.371v2.969c0 .205.165.371.37.371h7.422a.371.371 0 0 0 .371-.371v-2.969a.371.371 0 0 0-.37-.37zm-.371 2.969h-6.68v-2.227h6.68v2.227z"/>
            <path d="M8.535 15.178h1.485a.371.371 0 1 0 0-.742H8.535a.371.371 0 1 0 0 .742zM6.309 7.645a.371.371 0 0 0 .37-.372c0-1.023.833-1.855 1.856-1.855 1.023 0 1.856.832 1.856 1.855a.371.371 0 1 0 .742 0 2.6 2.6 0 0 0-2.598-2.597 2.6 2.6 0 0 0-2.598 2.597c0 .205.167.372.372.372zM6.309 3.934a.371.371 0 0 0 .37-.372V2.82a.371.371 0 1 0-.742 0v.743c0 .204.167.37.372.37zM10.762 3.934a.371.371 0 0 0 .37-.372V2.82a.371.371 0 1 0-.741 0v.743c0 .204.166.37.37.37z"/>
        </g>
    </g>
</svg>
