<svg xmlns="http://www.w3.org/2000/svg" width="40" height="40" viewBox="0 0 40 40">
    <defs>
        <linearGradient id="a" x1="94.012%" x2="12.378%" y1="77.976%" y2="18.204%">
            <stop offset="0%" stop-color="#FFF"/>
            <stop offset="100%" stop-color="#FFF"/>
        </linearGradient>
    </defs>
    <g fill="none" fill-rule="evenodd" transform="translate(-1003 -3285)">
        <path fill="#FFF" d="M0 0h1440v4315H0z"/>
        <text fill="#EA0B4B" font-family="SourceSansPro-Regular, Source Sans Pro" font-size="120" opacity=".05">
            <tspan x="952" y="3311">8</tspan>
        </text>
        <circle cx="1023" cy="3305" r="36" fill="url(#a)" opacity=".652"/>
        <g fill="#EA0B4B" fill-rule="nonzero">
            <path d="M1042.51 3322.16l-9.616-9.617a16.798 16.798 0 0 0 3.82-10.686c0-9.306-7.55-16.857-16.857-16.857-9.314 0-16.857 7.551-16.857 16.857s7.543 16.857 16.857 16.857c4.057 0 7.772-1.428 10.678-3.812l9.616 9.608a1.665 1.665 0 0 0 2.36 0 1.656 1.656 0 0 0 0-2.35zm-22.653-6.8c-7.453 0-13.51-6.058-13.51-13.503s6.057-13.51 13.51-13.51c7.445 0 13.51 6.065 13.51 13.51 0 7.445-6.065 13.502-13.51 13.502z"/>
            <path d="M1029.695 3302.225c-.164-.222-3.2-6.027-9.838-6.027-6.637 0-10.006 6.444-9.85 6.655.165.222 3.688 6.154 10.273 6.154 6.585 0 9.571-6.571 9.415-6.782zm-9.853 4.808c-3.689 0-6.606-3.33-7.552-4.462.944-1.132 3.855-4.584 7.552-4.584 3.689 0 6.883 3.46 7.83 4.592-.945 1.133-4.133 4.454-7.83 4.454z"/>
            <path d="M1019.842 3298.895a3.688 3.688 0 0 0-3.684 3.684 3.688 3.688 0 0 0 3.684 3.684 3.688 3.688 0 0 0 3.684-3.684 3.688 3.688 0 0 0-3.684-3.684z"/>
        </g>
    </g>
</svg>
