<svg xmlns="http://www.w3.org/2000/svg" xmlns:xlink="http://www.w3.org/1999/xlink" width="20" height="20" viewBox="0 0 20 20">
    <defs>
        <path id="b" d="M0 0h222v764H0z"/>
        <filter id="a" width="106.3%" height="101.8%" x="-3.2%" y="-.7%" filterUnits="objectBoundingBox">
            <feOffset dy="2" in="SourceAlpha" result="shadowOffsetOuter1"/>
            <feGaussianBlur in="shadowOffsetOuter1" result="shadowBlurOuter1" stdDeviation="2"/>
            <feColorMatrix in="shadowBlurOuter1" values="0 0 0 0 0 0 0 0 0 0 0 0 0 0 0 0 0 0 0.0696022727 0"/>
        </filter>
    </defs>
    <g fill="none" fill-rule="evenodd">
        <path fill="#FFF" d="M-30-404h1440v1658H-30z"/>
        <g transform="translate(-30 -404)">
            <use fill="#000" filter="url(#a)" xlink:href="#b"/>
            <use fill="#FFF" xlink:href="#b"/>
        </g>
        <path d="M-30-14h222v48H-30z"/>
        <g fill="#EA0B4B" fill-rule="nonzero">
            <path d="M19.374 9.867c-.668-.551-1.725-.599-2.419.146l-1.722 1.849a1.76 1.76 0 0 0-1.679-1.237h-3.073c-.233 0-.311-.09-.717-.401a4.11 4.11 0 0 0-5.404.013l-1.13.994a1.75 1.75 0 0 0-1.61-.02l-1.296.647a.586.586 0 0 0-.262.787l3.515 7.03c.145.29.497.407.787.263l1.295-.648c.639-.32.994-.971.971-1.634h6.924a4.12 4.12 0 0 0 3.281-1.64l2.813-3.751c.545-.727.46-1.793-.274-2.398zM5.135 18.242l-.771.386-2.992-5.983.772-.386a.586.586 0 0 1 .786.262l2.467 4.935c.145.29.027.64-.262.786zm13.575-6.68l-2.812 3.75a2.943 2.943 0 0 1-2.344 1.172H6.221l-2.195-4.392 1.109-.976a2.937 2.937 0 0 1 3.87 0c.65.573 1.055.68 1.476.68h3.073a.587.587 0 0 1 0 1.173h-2.992a.586.586 0 0 0 0 1.171h3.385c.486 0 .955-.204 1.286-.56l2.58-2.768a.586.586 0 0 1 .897.75zM12.32 3.999c.4-.421.648-.99.648-1.616 0-1.29-1.042-2.382-2.343-2.382-1.292 0-2.383 1.09-2.383 2.382a2.3 2.3 0 0 0 .67 1.62C7.84 4.604 7.07 5.757 7.07 7.11v.586c0 .324.263.586.586.586h5.898a.586.586 0 0 0 .586-.586V7.11c0-1.325-.73-2.496-1.82-3.11zm-1.695-2.827c.635 0 1.171.555 1.171 1.211 0 .646-.525 1.172-1.171 1.172-.657 0-1.211-.537-1.211-1.172 0-.645.566-1.21 1.21-1.21zM8.242 7.11c0-1.291 1.09-2.382 2.383-2.382 1.292 0 2.343 1.068 2.343 2.382H8.242z"/>
        </g>
    </g>
</svg>
