<svg xmlns="http://www.w3.org/2000/svg" xmlns:xlink="http://www.w3.org/1999/xlink" width="65" height="46" viewBox="0 0 65 46">
    <defs>
        <path id="b" d="M260 1728l6.211 3.106a1 1 0 0 1 0 1.788L260 1736v63a4 4 0 0 1-4 4H149a4 4 0 0 1-4-4v-97a4 4 0 0 1 4-4h107a4 4 0 0 1 4 4v26z"/>
        <filter id="a" width="105.7%" height="106.7%" x="-2.9%" y="-2.4%" filterUnits="objectBoundingBox">
            <feOffset dy="1" in="SourceAlpha" result="shadowOffsetOuter1"/>
            <feGaussianBlur in="shadowOffsetOuter1" result="shadowBlurOuter1" stdDeviation="1"/>
            <feColorMatrix in="shadowBlurOuter1" values="0 0 0 0 0 0 0 0 0 0 0 0 0 0 0 0 0 0 0.158967391 0"/>
        </filter>
        <linearGradient id="c" x1="49.995%" x2="49.995%" y1="100.003%" y2="0%">
            <stop offset="0%" stop-color="gray" stop-opacity=".25"/>
            <stop offset="54%" stop-color="gray" stop-opacity=".12"/>
            <stop offset="100%" stop-color="gray" stop-opacity=".1"/>
        </linearGradient>
        <linearGradient id="d" x1="49.985%" x2="49.985%" y1="100%" y2=".005%">
            <stop offset="0%" stop-color="gray" stop-opacity=".25"/>
            <stop offset="54%" stop-color="gray" stop-opacity=".12"/>
            <stop offset="100%" stop-color="gray" stop-opacity=".1"/>
        </linearGradient>
    </defs>
    <g fill="none" fill-rule="evenodd">
        <path fill="#F6F6F6" d="M-172-1708h1440V790H-172z"/>
        <g transform="translate(-172 -1708)">
            <use fill="#000" filter="url(#a)" xlink:href="#b"/>
            <use fill="#FFF" xlink:href="#b"/>
        </g>
        <g transform="translate(-2 -3)">
            <ellipse cx="24.01" cy="48.02" fill="#0DA176" opacity=".1" rx="5.717" ry="1"/>
            <ellipse cx="54.717" cy="48.02" fill="#0DA176" opacity=".1" rx="7.023" ry="1"/>
            <path fill="#0DA176" d="M3.711 23.193h5.762v8h-5.34l-.042.248h5.382v6.452l-.027-.01a10.336 10.336 0 0 1-.454-.195l-.097-.045a11.459 11.459 0 0 1-.612-.319 9.475 9.475 0 0 1-2.264-1.802c-.02-.019-.037-.04-.057-.058a9.866 9.866 0 0 1-.27-.31l-.096-.115a10.127 10.127 0 0 1-.3-.396 8.66 8.66 0 0 1-1.02-1.857l-.021-.057a7.85 7.85 0 0 1-.28-.884 1.477 1.477 0 0 1-.021-.078c-.323-1.282-.36-2.614-.36-3.937v-.463c0-.535.006-1.073.015-1.611 0-.14.005-.278.008-.418a55.615 55.615 0 0 1 .056-1.531l.038-.614zM9.473 14.373H6.207a25.458 25.458 0 0 1 1.737-2.46c.485-.613.998-1.21 1.53-1.786v4.246z" opacity=".1"/>
            <path fill="#0DA176" d="M9.473 14.373v8.494h-5.88c0-.025.004-.05.006-.074l.016-.201.021-.234.025-.254.026-.256.03-.253.03-.253.028-.21c.013-.099.027-.198.042-.296 0-.015.004-.03.006-.044.107-.718.251-1.43.433-2.132.191-.737.435-1.46.73-2.16.313-.735.68-1.444 1.097-2.124l3.39-.003z" opacity=".1"/>
            <path fill="#0DA176" fill-rule="nonzero" d="M10.78 23.01v8.076h12.615V23.01H10.78zm0 8.325v6.935c.072.015.144.03.215.042a6.723 6.723 0 0 0 .349.058l.116.017a6.163 6.163 0 0 0 .43.045l.113.01c.06.004.121.007.181.009.038 0 .075.004.113.005h.415c.05 0 .1 0 .15-.005h.003c.035 0 .07 0 .104-.005H13c.029 0 .058 0 .086-.004h.02l.195-.015.194-.02.132-.016c.54-.076 1.074-.19 1.598-.341 1.177-.33 2.328-.79 3.504-1.127 1.52-.435 3.2-.649 4.67-.117v-5.471H10.78zm12.615-17.316V3.268a16.17 16.17 0 0 0-4.098.482c-3.195.805-6.061 2.55-8.517 4.78v5.488h.633v.25h-.633v8.492h12.615v-8.492h-9.382v-.249h9.382zM39.6 10.387c-.79-.028-1.576-.279-2.286-.666-1.36-.742-2.445-1.887-3.657-2.853-2.52-2.012-5.645-3.226-8.852-3.527v10.678h18.01l.044-.047-3.259-3.585zm1.64-.292l1.74 1.915V9.593c-.582.073-1.092.245-1.737.5l-.002.002zm1.74 29.897v-8.657h-3.706c-.01-.037-.02-.074-.032-.112l.031.112H24.807v6.26c.137.103.273.21.407.32.145.116.288.24.432.36l.145.12a23.59 23.59 0 0 0 .633.508c.07.059.142.111.214.166a29.16 29.16 0 0 0 4.435 2.81 27.806 27.806 0 0 0 1.447.697 31.983 31.983 0 0 0 10.459 2.71v-5.294h.058-.058zM24.807 14.268v8.492h18.175v-8.492H24.807zm0 8.742v8.076h18.175V23.01H24.807zM44.392 9.583v2.696l2.22-2.444a24.253 24.253 0 0 0-2.22-.255v.003zm0 13.43v8.073H62.07V23.01l-17.678.003zm17.613 17.62l.063-9.298H44.392v14.044c1.14.048 2.28.034 3.417-.041h.02a28.111 28.111 0 0 0 1.621-.15h.013a29.796 29.796 0 0 0 8.334-2.23l4.208-2.325zM65.48 24.34a21.61 21.61 0 0 0-.62-1.326h-1.38v8.073h3.488c-.002-2.286-.579-4.622-1.487-6.75l-.001.003zm-2 6.999v7.997c.983-.944 1.813-2.025 2.41-3.26.72-1.487 1.048-3.098 1.075-4.738h-3.485zm0-10.679v2.102h1.25a22.782 22.782 0 0 0-1.248-2.105l-.002.003zm-11.988-9.492l-.277-.105a25.177 25.177 0 0 0-2.986-.9l-3.397 3.74-.065.07.043.048h12.092a25.836 25.836 0 0 0-5.408-2.856l-.002.003zm5.765 3.104H44.64l-.248.228v8.261h17.68V18.76a25.218 25.218 0 0 0-4.814-4.49l-.002.002z" opacity=".1"/>
            <path fill="#0DA176" d="M9.473 18.62v4.247h-5.88c0-.025.004-.05.006-.075l.016-.203.021-.235.025-.257.026-.258.03-.255.03-.256.028-.211.042-.3c0-.014.004-.03.006-.043.107-.725.251-1.443.433-2.152l5.217-.002zM3.711 23.193h5.762v8h-5.34l-.042.248h5.382v6.452l-.027-.01a10.336 10.336 0 0 1-.454-.195l-.097-.045a11.459 11.459 0 0 1-.612-.319 9.475 9.475 0 0 1-2.264-1.802c-.02-.019-.037-.04-.057-.058a9.866 9.866 0 0 1-.27-.31l-.096-.115a10.127 10.127 0 0 1-.3-.396 8.66 8.66 0 0 1-1.02-1.857l-.021-.057a7.85 7.85 0 0 1-.28-.884 1.477 1.477 0 0 1-.021-.078c-.323-1.282-.36-2.614-.36-3.937v-.463c0-.535.006-1.073.015-1.611 0-.14.005-.278.008-.418a55.615 55.615 0 0 1 .056-1.531l.038-.614zM15.353 15.545v7.322H10.78v-7.322h.652v-2.478h2.677v2.478zM10.78 23.193h4.573v8.167H10.78zM10.78 31.36h4.573v6.778c-.54.152-1.089.267-1.645.343l-.136.017-.2.02a5.64 5.64 0 0 1-.2.016h-.022c-.028 0-.06.003-.088.004h-.03c-.036 0-.072.003-.108.005l-.154.004H12.345l-.115-.004c-.06 0-.125-.007-.187-.011l-.115-.008-.144-.013c-.1-.01-.2-.02-.3-.034l-.12-.016-.059-.009a9.091 9.091 0 0 1-.3-.05c-.073-.013-.146-.028-.22-.043l-.005-6.999zM39.527 14.7h3.593v8.167h-3.593zM42.793 23.193v8.167H24.827v-3.523h9.57v2.078h4.776v-6.722zM43.12 40.117h-.058v5.29a32.206 32.206 0 0 1-10.496-2.711 30.732 30.732 0 0 1-2.303-1.153 29.39 29.39 0 0 1-4.448-3.023c-.193-.159-.385-.322-.58-.48-.134-.11-.27-.217-.408-.32v-6.249h14.512a6.193 6.193 0 0 0 .001 0h3.722v8.642l.058.004zM52.593 14.047h-2.286v-.74h1.025v-2.2c.089.033.177.068.265.103v2.098h.996v.739zM58.147 22.864H46.575l.004.003-.006-.003h-2.146V14.73h.608v6.012h2.78v-3.56h2.296v-2.809h2.357v2.81h2.296v3.561h3.383v2.12z" opacity=".1"/>
            <path fill="#0DA176" fill-rule="nonzero" d="M44.427 23.193v8.01h13.858v-8.01H44.427zm17.62 17.438l.02-6.34h-3.782v-2.837H44.427V45.38a31.73 31.73 0 0 0 3.409-.04h.02a28.22 28.22 0 0 0 1.618-.149h.012a29.878 29.878 0 0 0 8.316-2.212l4.246-2.347z" opacity=".1"/>
            <path fill="#0DA176" d="M63.625 31.36h3.342c-.03 1.607-.368 3.186-1.109 4.644-.616 1.212-1.473 2.27-2.485 3.196v-5.036h.252V31.36zM66.967 31.36H63.7V24.5h1.768c.915 2.163 1.496 4.536 1.499 6.86zM41.16 16.987h1.96V19.6h-1.96zM41.16 22.213h1.96v1h-1.96z" opacity=".1"/>
            <path fill="#0DA176" d="M41.16 23.193h1.96v1.633h-1.96zM41.16 27.44h1.96v2.613h-1.96zM41.16 32.667h1.96v2.613h-1.96zM43.064 40.223c.019 0 .037 0 .056.004h-.056v.606H41.16V38.22h1.904v2.003zM43.12 43.447v1.96a32.398 32.398 0 0 1-1.96-.226v-1.734h1.96zM24.827 31.033h8.493v1h-8.493z" opacity=".1"/>
            <path fill="#0DA176" d="M24.827 31.36h8.493v1h-8.493zM24.827 34.3h8.493v1.307h-8.493zM33.32 37.893V39.2h-6.444c-.28-.248-.557-.502-.83-.762-.188-.18-.376-.366-.566-.545h7.84zM33.32 41.489v1.304h-.683c-.767-.399-1.52-.834-2.257-1.306l2.94.002zM47.693 23.847h1.633v1.633h-1.633zM12.087 16.333h1.633v1.633h-1.633zM12.087 19.927h1.633v1.633h-1.633zM12.087 23.847h1.633v1.633h-1.633zM12.087 27.767h1.633V29.4h-1.633zM12.087 31.687h1.633v1.633h-1.633zM12.087 35.28h1.633v1.633h-1.633zM54.227 23.847h1.633v1.633h-1.633zM47.693 28.093h1.633v1.633h-1.633zM54.227 28.093h1.633v1.633h-1.633zM47.693 32.013h1.633v1.633h-1.633zM54.227 32.013h1.633v1.633h-1.633zM47.693 36.26h1.633v1.633h-1.633zM54.227 36.26h1.633v1.633h-1.633zM47.693 40.18h1.633v1.633h-1.633zM54.227 40.18h1.633v1.633h-1.633zM47.693 45.407v-.98h1.634v.84z" opacity=".1"/>
            <path fill="#0DA176" fill-rule="nonzero" d="M3.92 20.907v1h5.553v-1H3.92zm.553.937H4.02v-.876h.457l-.004.876zm.553 0H4.57v-.876h.456v.876zm.552 0h-.456v-.876h.456v.876zm.553 0h-.456v-.876h.457l-.001.876zm.552 0h-.456v-.876h.456v.876zm.553 0H6.78v-.876h.456v.876zm.553 0h-.456v-.876h.456v.876zm.552 0h-.456v-.876h.456v.876zm.553 0h-.457v-.876h.457v.876zm.552 0h-.457v-.876h.457v.876zM3.92 23.52v1h5.553v-1H3.92zm.553.937H4.02v-.874h.457l-.004.874zm.553 0H4.57v-.874h.456v.874zm.552 0h-.456v-.874h.456v.874zm.553 0h-.456v-.874h.457l-.001.874zm.552 0h-.456v-.874h.456v.874zm.553 0H6.78v-.874h.456v.874zm.553 0h-.456v-.874h.456v.874zm.552 0h-.456v-.874h.456v.874zm.553 0h-.457v-.874h.457v.874zm.552 0h-.457v-.874h.457v.874zM3.92 26.133v1h5.553v-1H3.92zm.553.935H4.02v-.872h.457l-.004.872zm.553 0H4.57v-.872h.456v.872zm.552 0h-.456v-.872h.456v.872zm.553 0h-.456v-.872h.457l-.001.872zm.552 0h-.456v-.872h.456v.872zm.553 0H6.78v-.872h.456v.872zm.553 0h-.456v-.872h.456v.872zm.552 0h-.456v-.872h.456v.872zm.553 0h-.457v-.872h.457v.872zm.552 0h-.457v-.872h.457v.872zM3.92 29.073v1h5.553v-1H3.92zm.553.938H4.02v-.876h.457l-.004.876zm.553 0H4.57v-.876h.456v.876zm.552 0h-.456v-.876h.456v.876zm.553 0h-.456v-.876h.457l-.001.876zm.552 0h-.456v-.876h.456v.876zm.553 0H6.78v-.876h.456v.876zm.553 0h-.456v-.876h.456v.876zm.552 0h-.456v-.876h.456v.876zm.553 0h-.457v-.876h.457v.876zm.552 0h-.457v-.876h.457v.876zM3.92 31.687c.022.094.048.188.074.281v-.219h.458v.876h-.245l.022.062h5.244v-1H3.92zm1.089.938H4.55v-.876h.459v.876zm.554 0h-.459v-.876h.459v.876zm.555 0h-.46v-.876h.459l.001.876zm.555 0h-.459v-.876h.459v.876zm.555 0H6.77v-.876h.458v.876zm.555 0h-.458v-.876h.458v.876zm.555 0H7.88v-.876h.458v.876zm.555 0h-.459v-.876h.459v.876zm.555 0h-.459v-.876h.459v.876zM5.227 34.627c.014.02.028.042.043.061h.302v.421c.032.042.064.084.097.123v-.546h.457v.88h-.185c.019.02.036.041.057.06h3.475v-1H5.227zm1.451.938h-.457v-.875h.457v.875zm.554 0h-.457v-.875h.457v.875zm.553 0h-.457v-.875h.457v.875zm.553 0h-.457v-.875h.457v.875zm.553 0h-.457v-.875h.457v.875zm.553 0h-.457v-.875h.457v.875z" opacity=".1"/>
            <path fill="#0DA176" d="M8.167 37.24c.056.034.114.066.173.1v-.032h.499v.298l.106.053v-.351h.498v.573c.01.005.02.01.03.012v-.653H8.167z" opacity=".1"/>
            <path fill="#0DA176" fill-rule="nonzero" d="M43.062 39.874h.1-.1zm-3.738-8.731c.019.037.035.074.053.11a1.498 1.498 0 0 0-.053-.11zm-27.89-17.096v.247h2.604v-.247h-2.605zm31.628 25.827h.1-.1zm-3.738-8.731c.019.037.035.074.053.11a1.498 1.498 0 0 0-.053-.11zm3.738 8.73h.1-.1zm-3.738-8.73c.019.037.035.074.053.11a1.498 1.498 0 0 0-.053-.11z" opacity=".1"/>
            <path fill="url(#c)" fill-rule="nonzero" d="M29.571 25.596s-.226-.032-.226-.368c0-.335-.162-.96-.162-.96 0-.004-.14-1.091-.334-1.264-.194-.173-.443-1.188-.443-1.188s-.043-.55-.13-.669c-.086-.119-.203-.409-.376-.823s-.895-.7-.895-.7-1.304-.77-1.674-1.02a.568.568 0 0 1-.094-.071c-.064-.086-.345-.088-.345-.088a5.829 5.829 0 0 1-.066-.6c0-.02 0-.042-.003-.063.412-.247.722-.638.874-1.099l.02-.068a.188.188 0 0 0 .111-.102c.034-.076.034-.164.075-.234.049-.083.14-.127.213-.19.183-.157.23-.423.222-.665-.006-.196-.037-.393-.025-.587l.003-.05.013-.086c.028-.145.09-.281.124-.425.035-.144.038-.305-.042-.43-.118-.18-.364-.217-.58-.236-.244-.02-.462.007-.619-.2a2.235 2.235 0 0 0-.246-.301c-.032-.03-.345-.225-.345-.238a1.378 1.378 0 0 0-.974-.075c-.162.047-.315.126-.48.165-.354.085-.762-.007-1.064.199-.167.117-.268.302-.362.483-.077.15-.155.299-.234.447-.127.245-.256.494-.31.765a1.232 1.232 0 0 0-.02.178v.096c0 .02 0 .04.003.058.004.018.003.024.005.036a1.127 1.127 0 0 0 .025.135l.01.033.02.058.013.03a.55.55 0 0 0 .03.059c.004.008.007.016.012.023a.776.776 0 0 0 .053.079c.123.155.304.255.438.4v.066c.014.661.35 1.272.896 1.632 0 .023.003.045.004.067.011.174.009.348-.007.52a.24.24 0 0 0-.19-.086.271.271 0 0 0-.074.007l-.005-.004v.005c-.127.032-.282.165-.431.545 0 0-.453.519-.798.497-.345-.021-1.219.54-1.219.54s-.852.562-1.034 1.134a8.068 8.068 0 0 1-.367.95l-1.053 2.205-.195 1.75s.108.777.087.896c-.022.118.442 1.188.442 1.188s1.53 2.732 2.156 2.872l.045-.032a.363.363 0 0 0 .084.032l.13-.092c.007.103.004.206-.01.308-.087.27.032 2.03.182 2.376.15.345.097 4.87.097 4.87l-.02.4s0 .012.004.035l-.005.094.016.008c.016.127.01.256-.016.38-.054.176-.076.671-.076.671s-.43 2.796-.226 3.358c.204.562.377 1.177.377 1.177s.216.701.01.82c-.204.12-.788.321-.668.613.11.27.524.993.585 1.099l-.005.055-.084.93c.013.123.046.243.097.356.093.202.272.412.615.39.057-.004.124-.011.188-.02.626-.085 1.397-.37 1.397-.37a.572.572 0 0 1-.11-.091.323.323 0 0 1-.095-.234c.01-.169-.303-.976-.38-1.175l-.02-.044s.713-.756.594-1.426c0 0-.787-.467-.528-.724.26-.256.722-.992.722-.992s.022-2.754 0-3.165a3.458 3.458 0 0 1 .04-.854c.009-.043.02-.084.03-.125.359.054.72.082 1.083.083.132 0 .267 0 .403-.008 0 .04.001.081.005.126.03.682.085 1.878.13 2.323.065.637.421 2.354.421 2.354s-.679.442.119 1.533c0 0 0 .396-.053.453a5.016 5.016 0 0 0-.137.57c-.033.205-.047.413.007.521.13.258.906.237.906.237l.019-.003a1.1 1.1 0 0 1 .821.252c.295.24 1.415.135 2.02.058.238-.03.397-.058.397-.058a.237.237 0 0 0 .008-.084c-.007-.152-.123-.483-.914-.78 0 0-.744-.508-.734-.95h-.102a.798.798 0 0 1 .103 0s-.291-1.08-.172-1.168c.119-.088-.238-1.285-.238-1.285s-.204-2.009-.215-2.15c0-.12.019-.24.054-.356l-.054-1.101s-.01-.366 0-.485a2.461 2.461 0 0 0-.025-.31l-.016-.125a5.31 5.31 0 0 0 .46-.138l-.032-3.834c.237-.467.28-1.492.28-2.22 0-.466-.021-.812-.021-.812l.323-.537s.075-.642-.043-.783c-.053-.064-.029-.13.014-.184a.601.601 0 0 1 .07-.049l-.007-.013a.572.572 0 0 1 .072-.052s-.115-.18-.012-.257c.097.066.183.116.249.157-.005.043-.01.068-.01.068l.028-.059.102.059s.507-1.027.496-1.178c-.011-.151.345-.788.345-.788s.043-.335.237-.475c.195-.14.15-1.156.15-1.156s.055-.529.184-.745c.13-.216-.118-.507-.118-.507zm-9.7-.45l.01.244-.1-.162.09-.082z"/>
            <path fill="#FFF" d="M28.42 29.872l-.121.508s-.971-.487-1.146-1.106c-.176-.619.293-.854.293-.854l.904.377.07 1.075z"/>
            <path fill="#000" d="M28.42 29.872l-.121.508s-.971-.487-1.146-1.106c-.176-.619.293-.854.293-.854l.904.377.07 1.075z" opacity=".1"/>
            <path fill="#FFF" d="M22.54 48.27s-.935.357-1.577.402c-.342.023-.521-.194-.613-.403a1.256 1.256 0 0 1-.097-.367l.084-.962.044-.512 1.366-.368.193.614.018.047c.078.205.39 1.039.38 1.213 0 .09.034.176.096.24.031.036.067.069.106.096zM29.073 47.787a.233.233 0 0 1-.009.084s-2.023.335-2.436 0a1.101 1.101 0 0 0-.852-.248s-.782.021-.913-.235c-.054-.107-.04-.315-.006-.52.034-.193.08-.384.137-.57l.031-.025.186-.149 2.18-.064h.017c-.01.443.74.95.74.95.797.294.915.626.925.777z"/>
            <path fill="#000" d="M29.073 47.495a.174.174 0 0 1-.01.072s-2.022.285-2.436 0a1.24 1.24 0 0 0-.85-.21s-.784.017-.914-.2c-.054-.092-.04-.269-.007-.444.302.026.778.09.964.24.283.23.762.46 1.056.478.23.012 1.605.05 2.197.064zM22.867 48.081s-.976.235-1.648.265c-.356.015-.543-.128-.639-.266.248.055.593.112.774.06.215-.063.976-.103 1.403-.12.033.023.07.044.11.061z" opacity=".1"/>
            <path fill="#CF6F80" d="M24.006 20.511c-.728-.301-1.663-1.297-1.43-1.762.052-.117.083-.244.091-.374.015-.175.018-.352.007-.528a7.699 7.699 0 0 0-.097-.86s2.27.054 2.138.41c-.039.105-.045.287-.034.49.01.203.038.433.066.628.04.266.08.47.08.47s-.14.207-.22.218c-.082.011.442 1.738-.601 1.308z"/>
            <path fill="#000" d="M22.213 46.776l-.018.023c-.725-.98-1.602.241-1.602.241l-.013-.026.045-.555L22 46.06l.195.666.018.05zM27.44 46.11s-.504-.01-.773.182c-.269.19-1.568.041-1.512 0a.13.13 0 0 0 .03-.069l.176-.114 2.065-.049.014.05z" opacity=".1"/>
            <path fill="#0DA176" d="M22.861 39.05a1.708 1.708 0 0 0-.084.3 3.654 3.654 0 0 0-.038.854c.02.41 0 3.158 0 3.158s-.436.733-.679.991c-.243.258.496.722.496.722.11.668-.557 1.423-.557 1.423-.679-.873-1.5.215-1.5.215s-.446-.82-.558-1.113c-.11-.293.436-.495.629-.614.192-.12-.01-.82-.01-.82s-.162-.615-.355-1.176c-.193-.56.212-3.35.212-3.35s.021-.497.072-.67c.025-.124.03-.252.014-.379a2.762 2.762 0 0 0-.01-.102l-.004-.036.007-.014.276-.546s2.221.813 2.089 1.157zM27.44 46.025s-.512-.011-.786.238c-.273.249-1.594.055-1.537 0 .057-.055.053-.46.053-.46-.775-1.103-.114-1.551-.114-1.551s-.346-1.738-.41-2.383c-.043-.45-.097-1.66-.126-2.351-.013-.297-.02-.501-.02-.501l.633-.133.082-.018 1.526-.32s.043.298.071.54c.014.104.022.209.024.314-.01.119 0 .49 0 .49l.052 1.116a1.318 1.318 0 0 0-.052.36c.01.142.209 2.175.209 2.175s.345 1.213.228 1.3c-.118.088.167 1.184.167 1.184z"/>
            <path fill="#000" d="M24.82 17.439c-.04.115-.047.314-.036.537a1.861 1.861 0 0 1-2.14-.044 8.708 8.708 0 0 0-.104-.945s2.422.058 2.28.452z" opacity=".1"/>
            <path fill="#CF6F80" d="M25.806 16.35c0 .205-.032.408-.096.603a1.961 1.961 0 0 1-2.148 1.32 1.95 1.95 0 0 1-1.675-1.876v-.047a1.94 1.94 0 0 1 .97-1.71 1.974 1.974 0 0 1 1.98 0 1.94 1.94 0 0 1 .97 1.71h-.001z"/>
            <path fill="#000" d="M24.006 20.509c-.728-.313-1.663-1.346-1.43-1.828.052-.122.083-.253.091-.388l.996.905.616.559.468-1.319c.04.277.08.488.08.488s-.14.215-.22.226c-.082.012.442 1.802-.601 1.357z" opacity=".1"/>
            <path fill="#0DA176" d="M26.787 24.336l-.863 14.789-1.125.075-2.912-8.575.477-10.18.101-2.152 1.295 1.086.64.535.5-1.3.93.828z"/>
            <path fill="#000" d="M22.86 39.256c-.04.088-.071.178-.092.27a9.756 9.756 0 0 1-2.498-.678l-.017-.008.006-.085.003-.044.303-.491s2.44.727 2.295 1.036zM25.153 39.45c-.21.038-.42.063-.633.077-.013-.306-.02-.517-.02-.517l.637-.137.016.577zM26.787 39.036c-.414.1-1.053.212-1.626.142l-.008-.341 1.561-.29s.044.266.073.49z" opacity=".1"/>
            <path fill="#000" d="M25.153 39.44c-2.375.41-4.551-.765-4.551-.765l.02-.398s.054-4.511-.095-4.857c-.15-.346-.266-2.1-.181-2.369.084-.269-.31-4.305-.31-4.305l-.063-1.639-2.333-.954 1.043-2.196a7.97 7.97 0 0 0 .363-.948c.181-.57 1.023-1.13 1.023-1.13s.864-.56 1.205-.538c.341.02.788-.495.788-.495.33-.85.63-.466.63-.466 0 .04 0 0-.016.126-.116.933 1.874 3.883 1.902 3.935l.19 4.661.191 5.9.194 6.438z" opacity=".1"/>
            <path fill="#FFF" d="M25.153 39.44c-2.375.41-4.55-.765-4.55-.765l.02-.398s.054-4.51-.096-4.856c-.15-.346-.266-2.1-.18-2.368.085-.27-.31-4.305-.31-4.305l-.063-1.639-2.334-.957 1.043-2.196c.14-.308.261-.624.362-.947.181-.57 1.024-1.13 1.024-1.13s.863-.56 1.203-.539c.341.021.789-.495.789-.495.33-.85.695-.465.695-.465 0 .04-.035.059-.016.126.255.905 1.81 3.882 1.838 3.934l.192 4.661.192 5.898.191 6.441z"/>
            <path fill="#000" d="M24.5 22.54c-.267-.11-1.681-1.71-1.681-1.71v-.363c-.052-.12-.357-.047-.606.037l.107-2.21.121.099c.265.927 2.028 4.094 2.059 4.147z" opacity=".1"/>
            <path fill="#FFF" d="M24.5 22.54c-.268-.11-1.681-1.71-1.681-1.71v-.363c-.052-.12-.358-.047-.606.037l.107-2.21.122.099c.265.927 2.028 4.094 2.058 4.147z"/>
            <path fill="#000" d="M20.706 30.224c.03 0 1.598-.17 1.598-.17s.949 1.928.886 2.397c-.062.47-.174.885-.556.811-.382-.074-2.054.058-2.054.058l.126-3.096z" opacity=".1"/>
            <path fill="#FFF" d="M20.38 30.224c.03 0 1.597-.17 1.597-.17s.948 1.928.887 2.397c-.062.469-.176.885-.557.811-.38-.074-2.054.058-2.054.058l.126-3.096z"/>
            <path fill="#CF6F80" d="M21.749 29.4s1.413.694 1.443.906c.03.211-.719-.093-.88-.13a2.194 2.194 0 0 0-.325-.046l-1.08.027.842-.757z"/>
            <circle cx="24.01" cy="22.703" r="1" fill="#000" opacity=".1"/>
            <circle cx="24.01" cy="22.377" r="1" fill="#3F3D56"/>
            <circle cx="24.337" cy="29.237" r="1" fill="#000" opacity=".1"/>
            <circle cx="24.337" cy="29.237" r="1" fill="#3F3D56"/>
            <circle cx="24.01" cy="25.97" r="1" fill="#000" opacity=".1"/>
            <circle cx="24.01" cy="25.97" r="1" fill="#3F3D56"/>
            <path fill="#FFF" d="M27.794 30.006s.108.16 0 .235c-.108.075.01.256.01.256s-.27.156-.15.297c.118.14.043.775.043.775l-.325.53s.02.342.02.804c0 .721-.043 1.735-.28 2.197l.032 3.791s-1.138.41-2.091.285l-.142-6.083s.207-3.45.283-4.112c.044-.344.062-.69.054-1.036 0 0-.033-1.036-.142-1.517 0 0-.117-2.082-.13-2.658-.004-.276.01-1.08.027-1.846.018-.836.039-1.625.039-1.625l-.215-1.677s.215-.021.28.064a.62.62 0 0 0 .094.072c.37.247 1.682 1.007 1.682 1.007s.725.285.9.692c.173.408.294.697.378.813.084.116.13.662.13.662s.25 1.004.445 1.174c.195.17.337 1.252.337 1.252l-1.722 1.336s-.152 2.22-.184 2.306c-.033.086.627 2.006.627 2.006z"/>
            <path fill="#FFF" d="M27.816 30.013s.106.16 0 .235c-.106.075.01.256.01.256s-.265.158-.149.298c.116.14.043.774.043.774l-.32.53s.02.342.021.804c0 .72-.042 1.732-.276 2.194l.031 3.788s-1.122.41-2.059.284L24.98 33.1s.202-3.447.277-4.108c.044-.343.062-.69.053-1.035 0 0-.032-1.035-.139-1.515 0 0-.115-2.08-.128-2.656-.005-.276.01-1.08.026-1.844.018-.835.038-1.624.038-1.624l-.28-1.697s.28 0 .344.086a.55.55 0 0 0 .093.072c.365.247 1.657 1.007 1.657 1.007s.713.284.884.69c.171.408.29.697.374.813.083.116.127.66.127.66s.246 1.004.438 1.174c.192.17.33 1.249.33 1.249l-1.695 1.333s-.15 2.22-.182 2.305c-.032.086.62 2.004.62 2.004z"/>
            <path fill="#000" d="M25.608 20.649l.133.44-.704.798c.016-.822.034-1.597.034-1.597l-.244-1.67s.244 0 .3.085c.025.026.052.05.081.07l.599 1.945-.2-.071z" opacity=".1"/>
            <path fill="#FFF" d="M25.607 20.649l.134.44-.703.798c.015-.822.033-1.597.033-1.597l-.244-1.67s.244 0 .3.085c.025.026.052.05.08.07l.6 1.945-.2-.071z"/>
            <path fill="#000" d="M25.806 16.305c0 .2-.032.398-.096.588a.084.084 0 0 1-.062-.015c-.015-.499-.269-.968-.581-1.367a1.458 1.458 0 0 0-.315-.316.63.63 0 0 0-.427-.117c-.172.023-.324.136-.498.15-.229.018-.434-.135-.661-.143a.659.659 0 0 0-.486.219 1.28 1.28 0 0 0-.26.468c-.091.26-.14.533-.146.808-.003.155-.019.35-.168.407a.813.813 0 0 0-.216-.633l-.003-.004v-.045a1.887 1.887 0 0 1 .97-1.672 2.015 2.015 0 0 1 1.98 0c.61.347.981.986.97 1.672h-.001z" opacity=".1"/>
            <path fill="#512E4E" d="M24.632 13.196a1.36 1.36 0 0 0-.96-.075c-.16.048-.31.125-.473.163-.347.084-.751-.007-1.049.197-.165.115-.264.298-.357.476l-.23.44c-.127.242-.254.488-.306.753-.053.266-.021.563.147.777.122.156.303.253.436.4.161.18.24.419.217.66.151-.058.166-.262.169-.424.006-.287.056-.57.147-.843.053-.179.142-.345.263-.488a.656.656 0 0 1 .49-.228c.231.008.439.168.667.149.174-.015.328-.134.502-.157a.619.619 0 0 1 .431.122c.122.093.23.205.317.33.316.416.572.904.587 1.426.065.048.16-.014.191-.088.033-.074.034-.161.075-.232.047-.081.138-.125.21-.186.18-.156.224-.418.218-.656-.007-.238-.054-.479-.009-.713.028-.143.089-.278.122-.42.034-.141.038-.3-.041-.422-.116-.18-.359-.215-.571-.232-.241-.02-.457.006-.61-.197a2.216 2.216 0 0 0-.243-.298c-.03-.03-.34-.22-.34-.234z"/>
            <path fill="#000" d="M18.137 25.278l-.626-1.105-.198 1.705s.11.757.088.873c-.022.116.452 1.157.452 1.157s1.564 2.661 2.202 2.799l2.158-1.473-.572-.695s-.198-.073-.248 0c0 0-1.062-1.746-1.172-1.872-.11-.127-.089-.379-.089-.379s-.165-.168-.11-.326c.055-.158-.32-.705-.32-.705l.342-.305-1.907.326z" opacity=".1"/>
            <path fill="#FFF" d="M17.677 24.173l-.166.13-.198 1.756s.11.78.088.9c-.022.12.452 1.191.452 1.191s1.563 2.742 2.202 2.883l2.158-1.517-.572-.715s-.199-.076-.248 0c0 0-1.063-1.8-1.173-1.93-.11-.13-.088-.39-.088-.39s-.165-.173-.11-.335c.055-.163-.32-.727-.32-.727l.342-.314-2.367-.932z"/>
            <path fill="#000" d="M27.623 30.742c.112.139.042.76.042.76l-.308.522s.018.336.02.79l-.518.165a.302.302 0 0 1-.278-.05.317.317 0 0 1-.12-.26l.088-2.942 1.208.472c-.103.073.01.252.01.252s-.256.153-.144.291z" opacity=".1"/>
            <path fill="#FFF" d="M27.623 30.74c.112.14.042.761.042.761l-.308.521s.018.336.02.79l-.527.167a.296.296 0 0 1-.271-.048.31.31 0 0 1-.119-.255l.09-2.95 1.207.472c-.103.073.01.252.01.252s-.255.153-.144.29z"/>
            <path fill="#CF6F80" d="M28.093 29.23s-.083.563-.291.596c-.208.033-.302.911-.51.88-.207-.031-.07-.817-.062-.969.007-.152-.226-.783-.052-.927.175-.143.729 0 .729 0l.186.42z"/>
            <path fill="#000" d="M28.461 25l.402-.827s.16.63.16.966c0 .336.224.37.224.37s.245.294.115.509c-.129.214-.18.749-.18.749s.041 1.02-.15 1.16c-.192.141-.232.478-.232.478s-.352.64-.34.792c.01.153-.49 1.183-.49 1.183s.244-1.28-1.183-1.834c0 0-.011-.434.096-.554.106-.119.272-.173.168-.775-.104-.602-.03-1.322-.03-1.466 0-.145.32-1.046.32-1.046l1.12.294z" opacity=".1"/>
            <path fill="#FFF" d="M28.84 24.173l.35.116s.16.618.16.948c0 .33.223.362.223.362s.245.29.116.5c-.129.21-.18.735-.18.735s.042 1-.15 1.14c-.191.138-.234.468-.234.468s-.351.628-.34.777c.01.15-.49 1.161-.49 1.161s.245-1.257-1.181-1.8c0 0-.01-.426.096-.543.106-.117.272-.17.168-.761-.104-.591-.03-1.297-.03-1.44 0-.141.32-1.025.32-1.025l1.171-.638z"/>
            <path fill="#000" d="M20.907 45.34s.552-.483.915-.132c.363.35-.915.131-.915.131zM25.153 44.104s.49-.08.9.483c.412.563-.9-.483-.9-.483z" opacity=".1"/>
            <g fill="#000" opacity=".1">
                <path d="M26.086 15.912c-.071.06-.162.101-.209.18-.04.067-.041.15-.073.222-.033.072-.126.131-.191.086-.015-.5-.27-.97-.583-1.37a1.446 1.446 0 0 0-.315-.318.632.632 0 0 0-.43-.117c-.172.023-.323.136-.497.15-.23.019-.436-.135-.664-.143a.66.66 0 0 0-.488.22c-.12.137-.208.296-.26.469a2.67 2.67 0 0 0-.147.81c-.003.154-.018.348-.166.406a.738.738 0 0 1 0 .123c.149-.056.164-.251.167-.407.007-.275.056-.548.146-.81.053-.172.142-.332.262-.469a.66.66 0 0 1 .487-.219c.23.008.436.161.664.143.172-.014.325-.128.498-.15a.632.632 0 0 1 .429.117c.121.09.227.196.315.317.313.4.568.869.583 1.37.065.046.158-.014.19-.085.033-.071.034-.155.074-.222.047-.079.138-.12.209-.18.179-.149.224-.4.217-.63v-.02c-.011.197-.066.4-.218.527zM21.846 15.873c-.133-.141-.313-.235-.434-.384a.798.798 0 0 1-.167-.455.837.837 0 0 0 .167.577c.121.15.301.244.434.385a.82.82 0 0 1 .216.496.817.817 0 0 0-.216-.62zM26.416 14.194c-.034.136-.094.266-.122.403a1.244 1.244 0 0 0-.018.278c.002-.053.008-.106.018-.158.028-.138.088-.267.122-.403a.663.663 0 0 0 .019-.23.75.75 0 0 1-.02.11z"/>
            </g>
            <ellipse cx="10.617" cy="46.713" fill="#0DA176" opacity=".1" rx="5.717" ry="1"/>
            <path fill="#535461" d="M10.453 29.4h1v8.167h-1z"/>
            <path fill="#3F3D56" d="M13.065 37.47l-.022.37-.032.522-.014.217-.031.523-.014.217-.032.523-.364 5.93a1 1 0 0 1-.994.941H9.669a1 1 0 0 1-.993-.942l-.362-5.933-.032-.523-.014-.217-.032-.523-.013-.217-.032-.523-.023-.37a.525.525 0 0 1 .14-.388.516.516 0 0 1 .378-.164h3.87a.513.513 0 0 1 .374.167.522.522 0 0 1 .135.39z"/>
            <path fill="#9D9CB5" d="M13.067 37.893l-.033.654H8.2l-.032-.654z"/>
            <path fill="#9D9CB5" d="M13.067 38.547l-.033.653H8.2l-.033-.653zM12.74 39.2l-.031.653h-4.51l-.032-.653z"/>
            <path fill="#0DA176" d="M7.513 32.328c2.075 1.533 2.94 3.932 2.94 3.932s-2.5-.088-4.574-1.621c-2.075-1.534-2.939-3.932-2.939-3.932s2.499.087 4.573 1.62z"/>
            <path stroke="#535461" stroke-width="2" d="M2.94 30.707s2.595 1.471 3.427 2.69c.832 1.218 4.086 2.863 4.086 2.863"/>
            <path fill="#0DA176" d="M8.791 29.278c1.172.812 1.662 2.082 1.662 2.082s-1.412-.046-2.585-.858c-1.172-.811-1.661-2.082-1.661-2.082s1.412.046 2.584.858z"/>
            <path stroke="#535461" stroke-width="2" d="M6.207 28.42s1.466.78 1.936 1.424c.47.645 2.31 1.516 2.31 1.516"/>
            <path fill="#0DA176" d="M12.093 31.298c-1.353 1.443-1.64 3.329-1.64 3.329s1.909-.455 3.26-1.898c1.353-1.444 1.64-3.329 1.64-3.329s-1.907.455-3.26 1.898z"/>
            <path stroke="#535461" stroke-width="2" d="M15.353 29.4s-1.762 1.48-2.21 2.499c-.448 1.019-2.69 2.728-2.69 2.728"/>
            <path fill="url(#d)" fill-rule="nonzero" d="M60.715 30.852s-.958-4.774-.59-5.368c0 0 .012-.552-.01-1.256v-.08c.065.042.132.081.202.115.338.174.725.225 1.096.142l-.29-.323c-.07-.078-.142-.161-.157-.264-.015-.102.027-.193.063-.285.275-.697.29-1.574-.241-2.107-.449-.447-.558-1.025-1.044-1.433-.356-.3-.552-.739-.736-1.163-.156-.358-.313-.72-.403-1.1-.07-.297-.097-.605-.193-.895-.096-.29-.275-.572-.555-.701-.1-.046-.21-.072-.302-.133-.12-.081-.191-.212-.278-.328-.44-.58-1.91-.238-2.606-.002-.19.059-.365.156-.515.286l.006-.01c.005-.01.012-.018.017-.027a.917.917 0 0 0-.195.218c-.101.16-.143.349-.228.523-.102.206-.67.782-.426 1.014a.206.206 0 0 0 .058.037.501.501 0 0 0 .29.03l-.01.024a1.702 1.702 0 0 0-.126.645c0 .955.786 1.73 1.757 1.73.182 0 .364-.029.537-.084l.012.066c0 .01.003.018.004.027l-.03.043a.058.058 0 0 0-.006-.008l-.91 1.275c-.14.098-.942.68-.987 1.116-.048.477-.095 1.035-.095 1.035l-.007.12a.358.358 0 0 1-.29.079c-.284-.047-.284 1.046-.284 1.046s-.19.174-.32.023-.473.36-.473.36l-2.152.094-.05.003-.116-.36a.151.151 0 0 0-.215-.086l-.008.005-.016.01-.007.007a.116.116 0 0 0-.012.012l-.007.008-.003.004a.147.147 0 0 0-.021.13l.1.309c-.416.083-.84.32-.494.97l-1.756-.326.568.478 2.933.606c-.04.07-.014.171.108.314.522.614 1.473.78 1.856.824.101.226.228.44.377.64l-.033.611s-.97 4.665-1.147 4.902c.09-.102.171-.21.245-.324-.281.958-.675 2.27-.778 2.467-.166.314-.32 1.584-.13 1.665.058.025.223.013.46-.005v.105l-.01 3.987s.047 2.445-.083 2.678c-.13.233-.166.722-.166.722s-.522.964-.935 1.352a.062.062 0 0 1-.01.008l-.013-.09s-.497.628-1.597.593c0 0-.662.43.32.454.982.023 2.235-.035 2.235-.035s.876-1.337 1.61-1.162v1.013h.224v-1.03a.923.923 0 0 0 .4-.606.738.738 0 0 0-.263-.681.436.436 0 0 1-.143-.319l-.008.007c0-.02-.005-.041-.008-.063-.064-.523-.145-1.602.14-2.4.39-1.096.509-2.621.225-3.529a8.123 8.123 0 0 1-.245-.992c.194.027.387.066.576.117.659.182 2.1.215 3.33.205a3.813 3.813 0 0 0 .147.832c.154.466.225 2.516.225 2.516s.199 1.685.09 2.371c-.058.381-.116.765-.149 1.15v.007s-.326.93-.564 1.435c-.006.013-.013.025-.018.038a.753.753 0 0 0-.187.041s-.32.64-.638.745c-.318.106-.213.454.508.326.722-.128 1.81-.232 1.81-.232l.048-.652.221-.278-.058.65.236-.046-.031-.791.363-.455s.438-.39-.213-1.159v.017l-.021-.034v-.003c-.108-.168-.194-.48-.037-1.034.285-1 .45-1.91.45-1.91s.635-2.433-.128-3.584h.033a1.94 1.94 0 0 1-.174-.576c.564-.033 1.118-.135 1.57-.356-.001-.002-.274-5.777-.499-6.697zm-7.167-4.013v.02l-.116.01.116-.03zm-.398.04a.128.128 0 0 0-.052.026.517.517 0 0 0-.091.238l-.181-.04s-.127-.028-.31-.058l-.086-.088c.237-.02.485-.048.72-.077z"/>
            <path fill="#1D2366" d="M59.224 46.835l-.097.858.326-.048-.049-.932z"/>
            <path fill="#FFB0B1" d="M53.847 42.786c-.284.79-.204 1.857-.14 2.375.024.192.046.308.046.308s-.425.945-.46.98c-.036.036-1.25.76-1.25.76l-.85.484s-.86-.368-.448-.495a.628.628 0 0 0 .223-.148c.414-.384.933-1.337.933-1.337s.035-.484.165-.715c.13-.23.083-2.648.083-2.648l.01-3.943v-.514l1.616.012c.01.174.033.348.07.519.057.295.132.587.224.874.285.9.167 2.406-.222 3.488z"/>
            <path fill="#000" d="M53.9 45.397s-.4.975-.434 1.012c-.033.037-1.178.785-1.178.785l-.8.5s-.812-.381-.422-.512a.59.59 0 0 0 .21-.153l.034.26.267-.012 2.282-2.197c.02.197.041.317.041.317z" opacity=".1"/>
            <path fill="#1D2366" d="M53.825 45.08l-2.387 2.256-.277.012-.058-.425s-.485.655-1.563.618c0 0-.647.449.312.473.96.025 2.184-.036 2.184-.036s.856-1.397 1.572-1.215v1.055h.22v-1.065a.964.964 0 0 0 .39-.631.794.794 0 0 0-.255-.71.468.468 0 0 1-.138-.332z"/>
            <path fill="#FFB0B1" d="M59.401 44.108c-.16.552-.073.863.037 1.03v.003c.14.206.238.436.288.678l.01.052-1.13 1.59-.612.232s-.985-.325-.805-.418c.045-.022.115-.143.196-.31.24-.503.573-1.43.573-1.43v-.008c.035-.383.09-.764.151-1.144.11-.684-.092-2.363-.092-2.363s-.072-2.042-.228-2.506a3.714 3.714 0 0 1-.14-.723c-.033-.29-.04-.53-.04-.53s.648-.872 1.837.07c.095.075.18.162.249.26.821 1.129.16 3.615.16 3.615s-.165.904-.454 1.902z"/>
            <path fill="#000" d="M59.78 45.84l-1.149 1.617-.623.236s-1.002-.33-.819-.425c.046-.023.118-.146.2-.315.424-.004.644.386.644.386l.537-.082s.71-1.345.868-1.428c.16-.082.025-.614.025-.614v-.135l.013.015v.003c.143.21.242.444.292.69l.012.053z" opacity=".1"/>
            <path fill="#1D2366" d="M58.114 47.272s-.283-.526-.826-.332c0 0-.306.63-.611.732-.306.102-.204.446.487.32.69-.125 1.731-.228 1.731-.228l.046-.642.701-.904s.419-.383-.204-1.138v.131s.125.516-.022.596c-.148.08-.802 1.385-.802 1.385l-.5.08z"/>
            <path fill="#000" d="M53.833 37.908c.01.214.032.428.067.639-.644-.118-1.242-.06-1.633-.02v-.634l1.566.015zM59.78 38.814s-.877.05-1.924.06a9.544 9.544 0 0 1-.036-.58s.591-.951 1.675.077c.086.082.163.177.226.284.017.054.037.107.059.159z" opacity=".1"/>
            <path fill="#1D2366" d="M59.78 38.49s-4.128.2-5.387-.152c-1.258-.353-2.505-.048-2.693-.13-.188-.081-.035-1.362.13-1.679.164-.317 1.07-3.523 1.07-3.523l.87-4.533.917-.252.065-.018 1.598-.44 1.171-.323s2.33 9.078 2.13 9.747a1.711 1.711 0 0 0-.035.788c.03.178.086.352.164.515z"/>
            <path fill="#C7DAF5" d="M50.754 25.48s-.85.898-.207 1.398c.643.5 1.066.048 1.066.048l-.86-1.446z"/>
            <path fill="#000" d="M50.754 25.48s-.85.898-.207 1.398c.643.5 1.066.048 1.066.048l-.86-1.446z" opacity=".1"/>
            <path fill="#FFB0B1" d="M57.493 19.876l-.224.223c-.192.19-.476.47-.728.702-.349.323-.637.56-.534.358.103-.202.084-.554.032-.884l-.01-.065a6.374 6.374 0 0 0-.169-.716s.564-.773.876-1.078c.116-.116.197-.163.202-.083.006.109.082.348.177.601a21.262 21.262 0 0 0 .378.942z"/>
            <path fill="#000" d="M57.167 18.95a1.692 1.692 0 0 1-1.121 1.303 6.035 6.035 0 0 0-.186-.772s1.098-1.44 1.115-1.149c.004.11.09.356.192.618zM55.83 20.463l.151-.21s.1.603.47.337c.37-.266.389 2 .389 2l-.397 5.83-2.87-.169.082-2.817.324-1.42.804-2.065.478-.682.568-.804z" opacity=".1"/>
            <path fill="#1D2366" d="M56.84 22.592l-.362 5.27-.038.558-1.6-.094-.06-.004-1.207-.07.082-2.817.325-1.42.803-2.064.479-.682.569-.806.152-.21s.1.603.47.337l.008-.005c.362-.225.379 2.007.379 2.007z"/>
            <path fill="#FFF" d="M54.093 23.52s-.134.299-.403.25c-.27-.048-.269 1.076-.269 1.076s-.178.18-.302.024c-.123-.155-.448.37-.448.37l-2.038.095s.907.442.73 1.778c0 0 3.077-.203 3.178-.513.1-.31-.448-3.08-.448-3.08z"/>
            <path fill="#000" d="M54.093 23.52s-.134.299-.403.25c-.27-.048-.269 1.076-.269 1.076s-.178.18-.302.024c-.123-.155-.448.37-.448.37l-2.038.095s.907.442.73 1.778c0 0 3.077-.203 3.178-.513.1-.31-.448-3.08-.448-3.08z" opacity=".03"/>
            <path fill="#FFF" d="M48.02 26.133l.566.432 4.66.875-.577-.527z"/>
            <path fill="#FFF" d="M55.703 20.791c-.08.115-.305.704-.493 1.219-.157.428-.289.805-.289.805s-.306 1.907-.462 2.251c-.157.345-.072 1.689-.072 1.689l-.583 3.318s-.264 1.712-.672 2.734c-.403 1.006-.851 1.478-.865 1.493.18-.234 1.164-4.832 1.164-4.832l.325-5.8s.048-.551.096-1.023c.048-.47 1.023-1.114 1.023-1.114l.94-1.278c.095.121.031.332-.112.538z"/>
            <path fill="#FFB0B1" d="M53.5 28.42s-1.405-.06-2.085-.85c-.68-.79 1.573-.315 1.573-.315l.585.13-.073 1.035z"/>
            <path fill="#000" d="M59.768 37.396a1.7 1.7 0 0 0-.034.78c-1.455.103-3.012-.291-3.012-.291-.29.267-1.055.662-1.055.662l-.416-5.179c-.267-.698-.371-4.356-.371-4.356l.058-.478c0-.007 0-.014.003-.021.104-.802.31-2.306.41-2.509.14-.279-.427-1.022-.427-1.022l.258-2.208.031-.266c.544-.244.961-1.023.961-1.023l.32-.562c.349-.224.367 1.97.367 1.97l-.348 5.184 1.153-.319s2.299 8.976 2.102 9.638z" opacity=".1"/>
            <path fill="#FFF" d="M61.087 37.5c-1.56.79-4.396.058-4.396.058-.286.268-1.037.662-1.037.662l-.41-5.176c-.261-.698-.364-4.354-.364-4.354s.33-2.729.467-3.007c.04-.082.02-.202-.027-.333a4.285 4.285 0 0 1-.25-1.947l.11-.949.03-.266c.535-.244.946-1.022.946-1.022l.285-.51.525-.938.248-.445.043.04.322.297.342.29c.447.385 1.219 1.06 1.617 1.474.35.364.46 1.78.493 2.846.02.702.008 1.252.008 1.252-.353.593.57 5.35.57 5.35.216.92.478 6.678.478 6.678z"/>
            <path fill="#000" d="M58.193 21.315s-1.103 2.077-.975 2.867c.128.789.492 1.682.316 1.891a.652.652 0 0 1-.516.255c-.176.012-.647.337-.647.372 0 .035-.434.035-.822.197-.389.163-.962.255-.962.255s-1.117-.034-1.221.07c-.104.105-.211.73.012 1.23.222.5.47.872.657.94.187.068 1.373-.325 2.335-.418.962-.093 2.006-.847 2.006-.847s1.15-.407 1.352-1.09c.201-.685-.246-4.445-.246-4.445s-.339-1.753-1.29-1.277z" opacity=".03"/>
            <path fill="#000" d="M57.867 20.988s-1.104 2.078-.974 2.867c.13.789.493 1.683.316 1.892a.65.65 0 0 1-.516.255c-.177.012-.647.337-.647.372 0 .034-.435.034-.823.197-.389.162-.963.255-.963.255s-1.117-.035-1.22.07c-.104.104-.212.73.011 1.23.223.498.47.871.657.94.187.067 1.374-.325 2.337-.418.962-.092 2.007-.847 2.007-.847s1.15-.407 1.35-1.09c.2-.684-.246-4.446-.246-4.446s-.338-1.752-1.289-1.277z" opacity=".03"/>
            <path fill="#FFF" d="M58.191 21.315s-1.103 2.077-.973 2.866c.129.789.492 1.683.316 1.892a.649.649 0 0 1-.516.256c-.177.011-.647.336-.647.37 0 .035-.433.035-.822.198-.39.163-.963.255-.963.255s-1.116-.035-1.22.07c-.104.105-.211.731.012 1.23.222.499.47.872.657.94.186.068 1.372-.325 2.335-.418.962-.093 2.006-.847 2.006-.847s1.15-.407 1.352-1.091c.201-.684-.244-4.445-.244-4.445s-.343-1.75-1.293-1.276z"/>
            <path fill="#000" d="M58.199 26.835s-.972-.162-.634.108c.338.27.336.507.75.497.414-.011-.116-.605-.116-.605zM59.546 32.993s-.355.254.325.84c.68.584-.325-.84-.325-.84zM58.82 35.28c0 .035-.163 1.286.445 1.599.607.312-.445-1.599-.445-1.599z" opacity=".1"/>
            <path fill="#FFB0B1" d="M50.638 25.48c-.418.013-1.322.131-.853.937.414.714 1.11.237 1.502-.125a1.376 1.376 0 0 0-.65-.812zM51.293 26.496l.03-.03-.03.03z"/>
            <path fill="#000" d="M58.147 19.919c-.47.314-.864.578-.941.633-.21.152-.612 1.047-.87 1.503-.207.367-.877.462-1.13.485l.033-.273c.575-.25 1.014-1.05 1.014-1.05l1.136-1.944.39.347.368.299z" opacity=".1"/>
            <path fill="#DCE7FF" d="M58.147 19.919c-.47.314-.864.578-.941.634-.21.151-.612 1.046-.87 1.502-.207.367-.877.462-1.13.485l.033-.273c.575-.25 1.014-1.05 1.014-1.05l1.136-1.944.39.346s.147.118.368.3z"/>
            <path fill="#FFB0B1" d="M57.167 18.456a1.797 1.797 0 1 1 0 0z"/>
            <path fill="#000" d="M60.107 24.173a1.52 1.52 0 0 1-.546-.597c-.095-.191-.158-.412-.32-.548-.147-.122-.342-.152-.525-.206-.599-.18-1.102-.738-1.12-1.375-.01-.3.082-.598.04-.895a1.002 1.002 0 0 0-.19-.461 1.578 1.578 0 0 0-.164-.181c-.08-.077-.164-.15-.237-.232a.804.804 0 0 1-.185-.32c-.114-.355-.01-.776-.136-1.136l-.006-.02c-.048-.127-.144-.255-.278-.265-.134-.01-.248.104-.376.154-.267.106-.555-.074-.778-.258-.223-.183-.474-.393-.758-.352-.187.027-.335.157-.508.225a.702.702 0 0 1-.12.035 1.684 1.684 0 0 1 1.889-1.05c.795.157 1.369.866 1.368 1.691 0 .121-.012.242-.037.36a14.475 14.475 0 0 0 .215.531l.323.297s.136.117.342.29c.446.384 1.217 1.059 1.614 1.471.35.365.46 1.778.493 2.842z" opacity=".1"/>
            <path fill="#591D4B" d="M54.042 16.674c.082-.17.122-.362.22-.524.143-.235.394-.385.65-.476.672-.238 2.09-.583 2.514 0 .084.117.153.247.268.328.088.062.194.088.29.135.271.13.444.414.535.704.092.29.12.601.187.9.087.384.238.747.389 1.108.177.426.366.868.709 1.17.467.41.57.992 1.005 1.443.514.535.498 1.419.232 2.12-.034.092-.074.189-.06.287.014.098.084.187.151.265l.281.326c-.665.165-1.417-.192-1.726-.818-.096-.194-.16-.417-.323-.555-.146-.124-.342-.153-.525-.208-.6-.183-1.104-.747-1.123-1.39-.01-.303.083-.605.04-.905a1.013 1.013 0 0 0-.19-.47c-.158-.21-.395-.352-.523-.586-.216-.393-.052-.903-.208-1.325-.047-.129-.143-.258-.278-.268-.134-.01-.249.104-.377.156-.268.106-.557-.075-.78-.261-.223-.186-.475-.398-.76-.356-.188.027-.336.159-.509.227-.128.05-.387.096-.499-.015-.236-.224.311-.803.41-1.012z"/>
            <path fill="#000" d="M59.858 23.455c-.096-.191-.159-.412-.322-.548-.147-.122-.343-.152-.526-.207-.6-.18-1.104-.739-1.124-1.376-.009-.3.083-.6.042-.896a1.003 1.003 0 0 0-.191-.462c-.158-.208-.395-.348-.522-.58-.217-.39-.052-.894-.209-1.312-.047-.127-.144-.255-.277-.266-.134-.01-.25.104-.378.155-.267.106-.557-.074-.78-.258-.223-.184-.476-.394-.76-.353-.188.027-.336.158-.509.225-.128.05-.387.095-.5-.014-.235-.233.313-.805.411-1.011.082-.17.123-.359.22-.52a.662.662 0 0 1 .017-.025.918.918 0 0 0-.188.217c-.097.16-.138.349-.22.519-.098.206-.646.78-.41 1.01.114.111.371.066.5.016.17-.068.32-.198.508-.225.286-.041.537.168.76.352.223.184.514.364.78.258.128-.05.24-.164.377-.154.137.01.229.138.278.266.156.417-.008.922.208 1.311.128.228.365.371.522.581a.997.997 0 0 1 .192.465c.041.297-.05.596-.041.895.018.64.522 1.196 1.123 1.377.181.055.379.084.525.206.164.136.229.357.322.549.31.62 1.062.974 1.727.81l-.132-.152c-.577.009-1.16-.325-1.423-.853zM55.704 20.757c-.078.107-.302.653-.49 1.13-.175-.061-.334-.449-.334-.449l.934-1.185c.096.118.033.312-.11.504z" opacity=".1"/>
            <path fill="#DCE7FF" d="M55.704 20.757c-.078.107-.302.653-.49 1.13-.175-.06-.334-.449-.334-.449l.934-1.185c.096.117.033.312-.11.504z"/>
            <path fill="#BE8B87" d="M50.4 26.88l-.414-1.54a.167.167 0 0 1 .008-.109.13.13 0 0 1 .071-.071c.065-.024.133.018.154.094l.414 1.537-.04.322-.192-.232z"/>
            <path fill="#FFF" d="M50.006 25.203c.067-.024.137.018.159.094l.427 1.538-.032.241.03.037.043-.322-.43-1.537c-.02-.076-.091-.118-.157-.094a.13.13 0 0 0-.066.056.161.161 0 0 1 .026-.013z" opacity=".1"/>
            <path fill="#EFC8C4" d="M50.633 26.875l.327-.088-.048.267-.01.06-.095-.085z"/>
            <path fill="#727A9C" d="M50.588 26.755a.063.063 0 0 1 .02-.015.03.03 0 0 1 .03 0l.01.015a.055.055 0 0 0 .04.024l-.01.059-.09-.083z"/>
            <path fill="#FFB0B1" d="M49.98 25.807s.816-.007.624.459c-.192.465-.492.52-.492.52l-.132-.98z"/>
            <path fill="#0DA176" fill-rule="nonzero" d="M43.749 6.207h-.044c-1.746 0-3.29.926-4.178 2.293-.888-1.367-2.432-2.293-4.178-2.293h-.044a4.98 4.98 0 0 0-4.925 4.983c0 1.632.713 3.947 2.102 5.852 2.647 3.63 7.045 6.805 7.045 6.805s4.398-3.175 7.044-6.805c1.39-1.905 2.102-4.22 2.102-5.852a4.98 4.98 0 0 0-4.924-4.983zM43.12 17.32a.986.986 0 0 1-.917-.635H41.16a.33.33 0 0 1-.31-.225l-.32-.969-1.015 3.555a.328.328 0 0 1-.315.237h-.02a.324.324 0 0 1-.305-.272l-1.045-6.305-.764 3.73a.326.326 0 0 1-.317.249h-1.47a.327.327 0 0 1-.295-.496.327.327 0 0 1 .295-.16h1.213l1.082-5.016a.328.328 0 0 1 .644.027l1.067 6.432.91-3.18a.322.322 0 0 1 .305-.235h.007c.14 0 .266.091.31.226l.58 1.748h.794a.98.98 0 0 1 1.907.412.982.982 0 0 1-.975.88l-.002-.003z"/>
        </g>
    </g>
</svg>
