<svg xmlns="http://www.w3.org/2000/svg" xmlns:xlink="http://www.w3.org/1999/xlink" width="20" height="20" viewBox="0 0 20 20">
    <defs>
        <path id="a" d="M3.333 7.083h.834V6.25h-.834v.833zm10-7.083H1.667C.75 0 0 .75 0 1.667v11.666C0 14.25.75 15 1.667 15h11.666C14.25 15 15 14.25 15 13.333V1.667C15 .75 14.25 0 13.333 0zM5.417 7.083c0 .692-.559 1.25-1.25 1.25h-.834V10h-1.25V5h2.084c.691 0 1.25.558 1.25 1.25v.833zm8.333-.833h-2.083v.833h1.25v1.25h-1.25V10h-1.25V5h3.333v1.25zm-4.167 2.5c0 .692-.558 1.25-1.25 1.25H6.25V5h2.083c.692 0 1.25.558 1.25 1.25v2.5zm-2.083 0h.833v-2.5H7.5v2.5z"/>
    </defs>
    <g fill="none" fill-rule="evenodd" transform="translate(2.5 2.5)">
        <mask id="b" fill="#fff">
            <use xlink:href="#a"/>
        </mask>
        <g fill="#F25C00" mask="url(#b)">
            <path d="M-3-3h20v20H-3z"/>
        </g>
    </g>
</svg>
