<svg xmlns="http://www.w3.org/2000/svg" width="479" height="354" viewBox="0 0 479 354">
    <defs>
        <linearGradient id="a" x1="49.999%" x2="49.999%" y1="99.997%" y2="-.006%">
            <stop offset="0%" stop-color="gray" stop-opacity=".25"/>
            <stop offset="54%" stop-color="gray" stop-opacity=".12"/>
            <stop offset="100%" stop-color="gray" stop-opacity=".1"/>
        </linearGradient>
    </defs>
    <g fill="none" fill-rule="evenodd">
        <g opacity=".1">
            <path fill="#EA0B4B" fill-rule="nonzero" d="M383.313 250.87s-34.136-4.429-8.677 50.766c0 0 23.2-9.932 24.124-32.335.389-9.023-6.04-16.912-14.963-18.362l-.484-.07z"/>
            <path stroke="#535461" d="M383.815 250.787s7.727 30.776-9.153 50.853"/>
            <path stroke="#535461" stroke-width="2" d="M374.2 304.484s12.29-30.262 35.243-41.488a49.512 49.512 0 0 0 22.494-21.814 83.175 83.175 0 0 0 5.635-14.139"/>
            <path fill="#EA0B4B" fill-rule="nonzero" d="M451.995 219.89c-2.393 3.004-14.776 7.402-14.776 7.402s1.491-13.063 3.884-16.046a6.976 6.976 0 0 1 12.25 1.574 6.962 6.962 0 0 1-1.354 7.082l-.004-.013zM447.745 243.685c-3.644 1.224-16.423-1.82-16.423-1.82s8.347-10.137 11.99-11.36a6.979 6.979 0 0 1 7.145 1.124 6.963 6.963 0 0 1-2.712 12.056zM424.706 271.818c-3.761-.78-13.259-9.854-13.259-9.854s12.326-4.541 16.092-3.762a6.966 6.966 0 0 1-2.833 13.612v.004zM402.478 289.183c-3.84-.135-14.736-7.472-14.736-7.472s11.384-6.566 15.224-6.427a6.97 6.97 0 0 1 6.263 7.175 6.97 6.97 0 0 1-6.751 6.72v.004zM419.424 233.344c.492 3.81 8.812 13.964 8.812 13.964s5.48-11.93 4.991-15.74a6.967 6.967 0 0 0-4.134-5.933 6.98 6.98 0 0 0-7.176.924 6.963 6.963 0 0 0-2.493 6.785zM393.682 254c1.609 3.484 12.592 10.69 12.592 10.69s1.656-13.023.048-16.507a6.976 6.976 0 0 0-12.288-1.394 6.961 6.961 0 0 0-.352 7.216V254zM371.419 277.487c.994 3.71 10.604 12.662 10.604 12.662s3.836-12.553 2.838-16.263a6.97 6.97 0 0 0-4.889-5.334 6.978 6.978 0 0 0-6.992 1.873 6.962 6.962 0 0 0-1.561 7.062z"/>
            <path fill="#EA0B4B" fill-rule="nonzero" d="M451.995 219.89c-2.393 3.004-14.776 7.402-14.776 7.402s1.491-13.063 3.884-16.046a6.976 6.976 0 0 1 12.25 1.574 6.962 6.962 0 0 1-1.354 7.082l-.004-.013zM447.745 243.685c-3.644 1.224-16.423-1.82-16.423-1.82s8.347-10.137 11.99-11.36a6.979 6.979 0 0 1 7.145 1.124 6.963 6.963 0 0 1-2.712 12.056zM424.706 271.818c-3.761-.78-13.259-9.854-13.259-9.854s12.326-4.541 16.092-3.762a6.966 6.966 0 0 1-2.833 13.612v.004zM402.478 289.183c-3.84-.135-14.736-7.472-14.736-7.472s11.384-6.566 15.224-6.427a6.97 6.97 0 0 1 6.263 7.175 6.97 6.97 0 0 1-6.751 6.72v.004zM419.424 233.344c.492 3.81 8.812 13.964 8.812 13.964s5.48-11.93 4.991-15.74a6.967 6.967 0 0 0-4.134-5.933 6.98 6.98 0 0 0-7.176.924 6.963 6.963 0 0 0-2.493 6.785zM393.682 254c1.609 3.484 12.592 10.69 12.592 10.69s1.656-13.023.048-16.507a6.976 6.976 0 0 0-12.288-1.394 6.961 6.961 0 0 0-.352 7.216V254zM371.419 277.487c.994 3.71 10.604 12.662 10.604 12.662s3.836-12.553 2.838-16.263a6.97 6.97 0 0 0-4.889-5.334 6.978 6.978 0 0 0-6.992 1.873 6.962 6.962 0 0 0-1.561 7.062z" opacity=".25"/>
            <path stroke="#535461" stroke-width="2" d="M390.57 318.252s12.291-30.262 35.243-41.488a49.512 49.512 0 0 0 22.481-21.819 83.175 83.175 0 0 0 5.636-14.138"/>
            <path fill="#EA0B4B" fill-rule="nonzero" d="M468.343 233.649c-2.392 3.004-14.775 7.402-14.775 7.402s1.49-13.063 3.884-16.045a6.978 6.978 0 0 1 9.524-.794 6.962 6.962 0 0 1 1.372 9.45l-.005-.013zM464.103 257.445c-3.644 1.223-16.423-1.82-16.423-1.82s8.346-10.137 11.99-11.36a6.975 6.975 0 0 1 8.399 4.514 6.965 6.965 0 0 1-3.966 8.666zM441.064 285.595c-3.762-.78-13.259-9.854-13.259-9.854s12.326-4.541 16.092-3.762a6.966 6.966 0 0 1-2.833 13.611v.005zM418.83 302.938c-3.839-.135-14.735-7.472-14.735-7.472s11.384-6.558 15.224-6.423a6.97 6.97 0 0 1 6.263 7.176 6.97 6.97 0 0 1-6.751 6.719zM435.777 247.12c.492 3.81 8.813 13.965 8.813 13.965s5.478-11.93 4.99-15.74a6.967 6.967 0 0 0-4.134-5.933 6.98 6.98 0 0 0-7.175.924 6.963 6.963 0 0 0-2.494 6.785zM410.04 267.742c1.608 3.484 12.591 10.69 12.591 10.69s1.657-13.023.048-16.507a6.977 6.977 0 0 0-9.051-3.009 6.964 6.964 0 0 0-3.588 8.83v-.004zM387.776 291.255c.994 3.71 10.605 12.662 10.605 12.662s3.835-12.553 2.837-16.263a6.975 6.975 0 0 0-13.442 3.601z"/>
        </g>
        <path fill="#EA0B4B" fill-rule="nonzero" d="M5.6 187.655c7.567 32.308 23.585 60.236 48.899 73.774 52.607 28.133 171.25 13.624 259.797-3.048a202.809 202.809 0 0 0 115.296-65.836l-423.991-4.89zM469.934 35.579H421.35c-2.32 0-4.2-1.879-4.2-4.196a4.197 4.197 0 0 1 4.2-4.195h8.399c-2.32 0-4.2-1.878-4.2-4.195a4.197 4.197 0 0 1 4.2-4.196h-5.997c-2.32 0-4.2-1.878-4.2-4.195a4.197 4.197 0 0 1 4.2-4.195h25.357c-5.626-2.613-12.203-4.472-19.779-5.448-69.143-8.873-93.83-3.004-102.538 3.048-10.744 7.446-22.73 12.924-35.54 15.563-42.665 8.782-122.447 19.363-194.759-3.397-35.94-11.32-62.654 7.803-78.662 39.746h460.537c-.601-9.284-2.402-17.853-5.705-25.36a4.178 4.178 0 0 1-2.729 1.02zM1.478 120.22a213.613 213.613 0 0 0 1.887 56.37l426.558 15.585a200.277 200.277 0 0 0 29.638-45.154l-458.083-26.8zm168.709 40.212h-8.4c2.32 0 4.2 1.878 4.2 4.195a4.197 4.197 0 0 1-4.2 4.196h-48.583c-2.32 0-4.2-1.879-4.2-4.196a4.197 4.197 0 0 1 4.2-4.195h8.398c-2.319 0-4.2-1.878-4.2-4.195a4.197 4.197 0 0 1 4.2-4.196h-5.997c-2.32 0-4.2-1.878-4.2-4.195a4.197 4.197 0 0 1 4.2-4.195h48.584c2.32 0 4.2 1.878 4.2 4.195a4.197 4.197 0 0 1-4.2 4.195h5.998c2.319 0 4.2 1.879 4.2 4.196a4.197 4.197 0 0 1-4.2 4.195zM478.39 60.21L12.688 71.532c-5.662 14.547-9.397 30.993-11.14 48.04H470.23a198.587 198.587 0 0 0 6.768-30.624c1.395-10.019 1.953-19.711 1.39-28.738zM96.092 97.296h-8.399c2.32 0 4.2 1.878 4.2 4.195a4.197 4.197 0 0 1-4.2 4.195H39.11c-2.32 0-4.2-1.878-4.2-4.195a4.197 4.197 0 0 1 4.2-4.195h8.399c-2.32 0-4.2-1.879-4.2-4.196a4.197 4.197 0 0 1 4.2-4.195H41.51c-2.319 0-4.199-1.878-4.199-4.195a4.197 4.197 0 0 1 4.2-4.196h48.584c2.319 0 4.2 1.879 4.2 4.196a4.197 4.197 0 0 1-4.2 4.195h5.997c2.32 0 4.2 1.878 4.2 4.195a4.197 4.197 0 0 1-4.2 4.196z" opacity=".1"/>
        <path fill="url(#a)" fill-rule="nonzero" d="M409.56 353.695S390.14 247.277 353.105 230.01c-31.382-14.644-65.317-24.515-74.967-27.193a41.635 41.635 0 0 0-4.973-6.483c-13.189-13.755-21.112-13.498-22.394-13.328a66.92 66.92 0 0 1-1.307-8.274c-.04-.435-.079-.84-.114-1.271l.114-.057c-.079-.823-.149-1.672-.21-2.547a65.636 65.636 0 0 0 14.728-10.716c.056.188.104.375.165.566a791.57 791.57 0 0 0 27.925-24.732c2.615-2.442 5.361-5.094 6.25-8.538a12.52 12.52 0 0 0 .327-3.623c.118-2.613-.5-5.282-.606-7.93 0-.435.048-.84.105-1.253.61-4.333 3.626-7.89 6.102-11.526a54.311 54.311 0 0 0 9.253-31.115 52.638 52.638 0 0 0-2.18-15.676c-1.93-6.453-5.949-13.232-12.639-14.643-2.589-.544-5.278-.205-7.92-.374-10.935-.697-19.12-9.58-27.841-16.09a73.53 73.53 0 0 0-36.429-14.124c-4.119-.436-8.372-.466-12.29.84-8.8 2.926-14.144 11.961-22.621 15.675-6.268 2.76-13.512 2.312-20.05 4.385-9.732 3.091-17.991 13.063-18.21 23.308v1.328c-.108 5.177 1.744 10.45 1.892 15.75 0 .478.007.959.022 1.44-.048 5.722-.732 11.461-2.82 16.839-1.124 2.895-2.572 6.248-2.336 9.144-.13 1.772.213 3.435 1.447 4.79l2.105-1.856a63.511 63.511 0 0 0-1.06 11.574c0 19.568 8.91 37.09 22.962 48.88.08 1.304.16 2.7.235 4.19.331 6.452.593 14.547.519 23.369l-20.555 18.875-52.843 23.949s-48.327 10.197-37.919 78.023l4.969 42.115h44.121l-.1.222h65.486l.04-.222h155.808l-.03.222h6.101v-.222l68.193-.005zM251.16 184.085a45.22 45.22 0 0 1 3.138 8.62 35.296 35.296 0 0 1-3.386-9.09l.065.117.183.352zm-74.888 8.708c0 .83-.014 1.668-.043 2.512l-.105.148c-.007-.896.042-1.792.148-2.682v.022z"/>
        <path fill="#FDC2CC" fill-rule="nonzero" d="M268.397 203.474l-8.717 83.166-46.636 14.804s-60.583-11.32-44.893-43.978c11.162-23.23 10.853-64.743 9.746-86.775-.436-8.944-1.029-14.678-1.029-14.678s79.325-69.233 72.787-6.967c-1.264 12.057-1.338 21.484-.636 28.851 2.942 30.671 19.378 25.577 19.378 25.577z"/>
        <path fill="#000" fill-rule="nonzero" d="M268.397 203.474l-8.717 83.166-46.636 14.804s-60.583-11.32-44.893-43.978c11.162-23.23 10.853-64.743 9.746-86.775-.436-8.944-1.029-14.678-1.029-14.678s79.325-69.233 72.787-6.967c-1.264 12.057-1.338 21.484-.636 28.851 2.942 30.671 19.378 25.577 19.378 25.577z" opacity=".03"/>
        <path fill="#000" fill-rule="nonzero" d="M249.655 147.74c-1.264 12.056-1.338 21.483-.636 28.85-22.922 12.503-51.18 9.64-71.122-7.206-.436-8.943-1.029-14.678-1.029-14.678s79.325-69.232 72.787-6.967z" opacity=".1"/>
        <ellipse cx="218.71" cy="118.57" fill="#FDC2CC" fill-rule="nonzero" rx="63.198" ry="63.137"/>
        <ellipse cx="218.71" cy="118.57" fill="#000" fill-rule="nonzero" opacity=".03" rx="63.198" ry="63.137"/>
        <path fill="#575988" fill-rule="nonzero" d="M403.51 353.695H75.75l-4.793-41.365c-10.025-66.62 36.611-76.635 36.611-76.635l50.995-23.513 20.267-18.94c-6.538 24.819 42.93 76.416 42.93 76.416.319-.295.62-.607.903-.936 1.334-1.454 4.52-5.094 11.982-14.125 2.667-3.235 5.888-7.158 9.767-11.922 18.654-22.903 9.083-49.965 6.224-55.56l-.179-.348c-.109-.2-.191-.362-.257-.475a.71.71 0 0 0-.065-.118.692.692 0 0 1-.048-.087l23.972 18.724s.92.243 2.615.722c9.327 2.613 42.094 12.327 72.35 26.71 35.745 16.95 54.487 121.452 54.487 121.452z"/>
        <path fill="#494C7A" fill-rule="nonzero" d="M291.933 253.983c-3.923-3.919-30.51-8.708-30.51-8.708.872 10.45-31.381 26.56-31.381 26.56l2.397 81.86h-15.464l-2.615-73.587 7.41-10.45.902-.936a143.726 143.726 0 0 0 11.981-14.125c2.668-3.235 5.889-7.158 9.768-11.922 18.654-22.903 9.083-49.965 6.224-55.56l-.179-.348a7.393 7.393 0 0 0-.257-.475.71.71 0 0 0-.066-.118.692.692 0 0 1-.047-.087s7.845-1.741 21.792 13.063a40.824 40.824 0 0 1 4.794 6.383c11.333 18.166 18.707 51.903 15.25 48.45z"/>
        <path fill="#EA0B4B" fill-rule="nonzero" d="M114.542 287.51s20.485 41.801 21.574 66.403M337.697 311.463l-5.884 42.454h5.884z" opacity=".1"/>
        <path fill="#000" fill-rule="nonzero" d="M119.118 353.913l32.47-73.805s9.154-17.416 11.333-34.833c2.18-17.417 13.947-44.85 13.947-44.85s29.202-37.01 42.714-31.785c13.511 5.225-11.768 24.819-11.768 24.819s37.047 14.369 11.768 57.04c-25.28 42.672-25.716 34.835-25.716 34.835l-12.421 68.579h-62.327z" opacity=".1"/>
        <path fill="#FDC2CC" fill-rule="nonzero" d="M118.246 353.913l32.471-73.805s9.153-17.416 11.332-34.833c1.386-11.073 6.647-26.196 10.295-35.744a54.793 54.793 0 0 1 10.338-16.982c9.441-10.555 26.587-27.575 36.028-23.918 13.511 5.225-11.768 24.82-11.768 24.82s37.047 14.368 11.768 57.04c-25.28 42.672-25.715 34.834-25.715 34.834l-12.422 68.58-62.327.008z"/>
        <ellipse cx="238.105" cy="83.083" fill="#FFF" fill-rule="nonzero" opacity=".15" rx="1.308" ry="1.306"/>
        <ellipse cx="232.003" cy="85.696" fill="#FFF" fill-rule="nonzero" opacity=".15" rx="1.308" ry="1.306"/>
        <path fill="#000" fill-rule="nonzero" d="M173.813 39.005c6.307-2.037 13.306-1.598 19.356-4.306 8.181-3.666 13.337-12.54 21.827-15.414 3.784-1.28 7.89-1.232 11.86-.823a70.242 70.242 0 0 1 35.156 13.877c8.416 6.396 16.314 15.118 26.866 15.802 2.55.165 5.143-.17 7.64.365 6.468 1.385 10.343 8.043 12.204 14.37a54.061 54.061 0 0 1-6.826 44.674c-2.388 3.57-5.3 7.067-5.888 11.32-.575 4.172 1.203 8.496.166 12.58-.872 3.384-3.487 5.987-6.032 8.387a761.789 761.789 0 0 1-26.95 24.274c-4.767-15.135 2.228-31.433 1.138-47.26-.435-6.166-2.615-12.898-8.058-15.806-5.096-2.717-11.607-1.307-16.763-3.92-5.754-2.895-8.116-9.753-12.466-14.499-7.41-8.099-20.271-9.144-30.631-5.486-10.36 3.657-18.829 11.181-27.023 18.518l-14.893 13.346c-2.907-3.274-.702-8.3.872-12.392 2.345-6.135 2.859-12.75 2.702-19.263-.126-5.225-1.93-10.385-1.826-15.47.209-10.033 8.176-19.839 17.569-22.874z" opacity=".1"/>
        <path fill="#865A61" fill-rule="nonzero" d="M173.813 37.699c6.307-2.038 13.306-1.598 19.356-4.306 8.181-3.667 13.337-12.54 21.827-15.414 3.784-1.28 7.89-1.233 11.86-.823a70.242 70.242 0 0 1 35.156 13.877c8.416 6.396 16.314 15.118 26.866 15.801 2.55.166 5.143-.17 7.64.366 6.468 1.385 10.343 8.042 12.204 14.369a54.061 54.061 0 0 1-6.826 44.675c-2.388 3.57-5.3 7.066-5.888 11.32-.575 4.172 1.203 8.496.166 12.58-.872 3.383-3.487 5.987-6.032 8.386a761.789 761.789 0 0 1-26.95 24.275c-4.767-15.135 2.228-31.433 1.138-47.26-.435-6.166-2.615-12.898-8.058-15.807-5.096-2.717-11.607-1.306-16.763-3.919-5.754-2.895-8.116-9.753-12.466-14.5-7.41-8.098-20.271-9.143-30.631-5.485-10.36 3.657-18.829 11.181-27.023 18.518l-14.893 13.346c-2.907-3.275-.702-8.3.872-12.392 2.345-6.135 2.859-12.75 2.702-19.263-.126-5.226-1.93-10.385-1.826-15.471.209-10.032 8.176-19.838 17.569-22.873z"/>
    </g>
</svg>
