<?xml version="1.0" encoding="UTF-8"?>
<svg width="479px" height="354px" viewBox="0 0 479 354" version="1.1" xmlns="http://www.w3.org/2000/svg" xmlns:xlink="http://www.w3.org/1999/xlink">
    <!-- Generator: Sketch 53 (72520) - https://sketchapp.com -->
    <title>undraw_forgot_password_gi2d</title>
    <desc>Created with Sketch.</desc>
    <defs>
        <linearGradient x1="49.9987036%" y1="99.9974619%" x2="49.9987036%" y2="-0.00636991182%" id="linearGradient-1">
            <stop stop-color="#808080" stop-opacity="0.25" offset="0%"></stop>
            <stop stop-color="#808080" stop-opacity="0.12" offset="54%"></stop>
            <stop stop-color="#808080" stop-opacity="0.1" offset="100%"></stop>
        </linearGradient>
    </defs>
    <g id="Static" stroke="none" stroke-width="1" fill="none" fill-rule="evenodd">
        <g id="Component-sheet:-Login" transform="translate(-620.000000, -627.000000)">
            <g id="undraw_forgot_password_gi2d" transform="translate(620.000000, 627.000000)">
                <g id="Group" opacity="0.1" transform="translate(364.807097, 208.132841)">
                    <path d="M18.5062238,42.7369004 C18.5062238,42.7369004 -15.6296087,38.3086347 9.82843494,93.5030258 C9.82843494,93.5030258 33.0287716,83.5709963 33.9527753,61.1684133 C34.3416506,52.1447483 27.9136356,44.2564818 18.9900182,42.8065683 L18.5062238,42.7369004 Z" id="Shape" fill="#0DA176" fill-rule="nonzero"></path>
                    <path d="M19.0074522,42.6541697 C19.0074522,42.6541697 26.7350864,73.4299631 9.85458599,93.5073801" id="Shape" stroke="#535461"></path>
                    <path d="M9.39258417,96.3507011 C9.39258417,96.3507011 21.683576,66.0887085 44.6354777,54.8634686 C54.2998714,50.2165651 62.1934373,42.5614451 67.1297361,33.0487085 C69.4365205,28.5177993 71.3229219,23.7852759 72.7652866,18.9104797" id="Shape" stroke="#535461" stroke-width="2"></path>
                    <path d="M87.1875887,11.7564576 C84.794768,14.7608856 72.4122475,19.1586716 72.4122475,19.1586716 C72.4122475,19.1586716 73.9028571,6.09594096 76.2956779,3.11328413 C77.7830429,0.991648047 80.3258352,-0.130464225 82.89741,0.199996741 C85.4689847,0.530457706 87.6447441,2.25892883 88.5462318,4.68754513 C89.4477195,7.11616143 88.9260891,9.84392913 87.1919472,11.7695203 L87.1875887,11.7564576 Z" id="Shape" fill="#0DA176" fill-rule="nonzero"></path>
                    <path d="M82.9380437,35.5523985 C79.2943312,36.775941 66.5151865,33.7323247 66.5151865,33.7323247 C66.5151865,33.7323247 74.8617288,23.5956458 78.5054413,22.3721033 C80.9107071,21.387293 83.6646136,21.8207009 85.6503244,23.4965603 C87.6360352,25.1724196 88.5239201,27.8125357 87.9539007,30.3462195 C87.3838813,32.8799033 85.4505815,34.8865603 82.9380437,35.5523985 Z" id="Shape" fill="#0DA176" fill-rule="nonzero"></path>
                    <path d="M59.8989718,63.6851661 C56.1375796,62.9057565 46.6403913,53.8315129 46.6403913,53.8315129 C46.6403913,53.8315129 58.9662511,49.2900369 62.7320018,50.0694465 C66.2679702,51.0539882 68.4346102,54.6084033 67.6873256,58.1987514 C66.940041,61.7890995 63.5347016,64.1860471 59.8989718,63.6808118 L59.8989718,63.6851661 Z" id="Shape" fill="#0DA176" fill-rule="nonzero"></path>
                    <path d="M37.6705823,81.0498893 C33.830737,80.9149077 22.9344677,73.5780074 22.9344677,73.5780074 C22.9344677,73.5780074 34.3188899,67.0118081 38.1587352,67.1511439 C41.8118894,67.5225062 44.5509067,70.6603511 44.4221029,74.326519 C44.2932991,77.9926868 41.3408089,80.9309626 37.6705823,81.0455351 L37.6705823,81.0498893 Z" id="Shape" fill="#0DA176" fill-rule="nonzero"></path>
                    <path d="M54.6164604,25.2110701 C55.1089718,29.0210332 63.4293631,39.1751292 63.4293631,39.1751292 C63.4293631,39.1751292 68.9080073,27.2445018 68.4198544,23.4345387 C68.2566926,20.8419322 66.6632305,18.5553471 64.2860502,17.5026152 C61.90887,16.4498833 59.1428514,16.8058768 57.1103669,18.4261436 C55.0778824,20.0464104 54.1165535,22.6618035 54.6164604,25.2110701 L54.6164604,25.2110701 Z" id="Shape" fill="#0DA176" fill-rule="nonzero"></path>
                    <path d="M28.8751137,45.8676015 C30.4834031,49.3509963 41.4668426,56.5572694 41.4668426,56.5572694 C41.4668426,56.5572694 43.1230755,43.5337269 41.5147862,40.0503321 C40.5809177,37.6275616 38.3760293,35.9245343 35.7938902,35.6315859 C33.211751,35.3386376 30.6807588,36.5043706 29.2268714,38.6562459 C27.7729841,40.8081212 27.6374133,43.5891252 28.8751137,45.8719557 L28.8751137,45.8676015 Z" id="Shape" fill="#0DA176" fill-rule="nonzero"></path>
                    <path d="M6.61185623,69.3543911 C7.605596,73.0642066 17.2161056,82.0165314 17.2161056,82.0165314 C17.2161056,82.0165314 21.0515924,69.4632472 20.0534941,65.7534317 C19.5476771,63.2035974 17.6629871,61.1471571 15.1650431,60.4194999 C12.6670992,59.6918427 9.97140877,60.4140071 8.1730441,62.2926276 C6.37467943,64.1712482 5.77278015,66.8938356 6.61185623,69.3543911 Z" id="Shape" fill="#0DA176" fill-rule="nonzero"></path>
                    <path d="M87.1875887,11.7564576 C84.794768,14.7608856 72.4122475,19.1586716 72.4122475,19.1586716 C72.4122475,19.1586716 73.9028571,6.09594096 76.2956779,3.11328413 C77.7830429,0.991648047 80.3258352,-0.130464225 82.89741,0.199996741 C85.4689847,0.530457706 87.6447441,2.25892883 88.5462318,4.68754513 C89.4477195,7.11616143 88.9260891,9.84392913 87.1919472,11.7695203 L87.1875887,11.7564576 Z" id="Shape" fill="#000000" fill-rule="nonzero" opacity="0.25"></path>
                    <path d="M82.9380437,35.5523985 C79.2943312,36.775941 66.5151865,33.7323247 66.5151865,33.7323247 C66.5151865,33.7323247 74.8617288,23.5956458 78.5054413,22.3721033 C80.9107071,21.387293 83.6646136,21.8207009 85.6503244,23.4965603 C87.6360352,25.1724196 88.5239201,27.8125357 87.9539007,30.3462195 C87.3838813,32.8799033 85.4505815,34.8865603 82.9380437,35.5523985 Z" id="Shape" fill="#000000" fill-rule="nonzero" opacity="0.25"></path>
                    <path d="M59.8989718,63.6851661 C56.1375796,62.9057565 46.6403913,53.8315129 46.6403913,53.8315129 C46.6403913,53.8315129 58.9662511,49.2900369 62.7320018,50.0694465 C66.2679702,51.0539882 68.4346102,54.6084033 67.6873256,58.1987514 C66.940041,61.7890995 63.5347016,64.1860471 59.8989718,63.6808118 L59.8989718,63.6851661 Z" id="Shape" fill="#000000" fill-rule="nonzero" opacity="0.25"></path>
                    <path d="M37.6705823,81.0498893 C33.830737,80.9149077 22.9344677,73.5780074 22.9344677,73.5780074 C22.9344677,73.5780074 34.3188899,67.0118081 38.1587352,67.1511439 C41.8118894,67.5225062 44.5509067,70.6603511 44.4221029,74.326519 C44.2932991,77.9926868 41.3408089,80.9309626 37.6705823,81.0455351 L37.6705823,81.0498893 Z" id="Shape" fill="#000000" fill-rule="nonzero" opacity="0.25"></path>
                    <path d="M54.6164604,25.2110701 C55.1089718,29.0210332 63.4293631,39.1751292 63.4293631,39.1751292 C63.4293631,39.1751292 68.9080073,27.2445018 68.4198544,23.4345387 C68.2566926,20.8419322 66.6632305,18.5553471 64.2860502,17.5026152 C61.90887,16.4498833 59.1428514,16.8058768 57.1103669,18.4261436 C55.0778824,20.0464104 54.1165535,22.6618035 54.6164604,25.2110701 L54.6164604,25.2110701 Z" id="Shape" fill="#000000" fill-rule="nonzero" opacity="0.25"></path>
                    <path d="M28.8751137,45.8676015 C30.4834031,49.3509963 41.4668426,56.5572694 41.4668426,56.5572694 C41.4668426,56.5572694 43.1230755,43.5337269 41.5147862,40.0503321 C40.5809177,37.6275616 38.3760293,35.9245343 35.7938902,35.6315859 C33.211751,35.3386376 30.6807588,36.5043706 29.2268714,38.6562459 C27.7729841,40.8081212 27.6374133,43.5891252 28.8751137,45.8719557 L28.8751137,45.8676015 Z" id="Shape" fill="#000000" fill-rule="nonzero" opacity="0.25"></path>
                    <path d="M6.61185623,69.3543911 C7.605596,73.0642066 17.2161056,82.0165314 17.2161056,82.0165314 C17.2161056,82.0165314 21.0515924,69.4632472 20.0534941,65.7534317 C19.5476771,63.2035974 17.6629871,61.1471571 15.1650431,60.4194999 C12.6670992,59.6918427 9.97140877,60.4140071 8.1730441,62.2926276 C6.37467943,64.1712482 5.77278015,66.8938356 6.61185623,69.3543911 Z" id="Shape" fill="#000000" fill-rule="nonzero" opacity="0.25"></path>
                    <path d="M25.7631392,110.118819 C25.7631392,110.118819 38.054131,79.8568266 61.0060328,68.6315867 C70.6662347,63.9812553 78.5550435,56.3247711 83.4872157,46.8124723 C85.7940001,42.2815631 87.6804015,37.5490398 89.1227662,32.6742435" id="Shape" stroke="#535461" stroke-width="2"></path>
                    <path d="M103.536351,25.5158672 C101.14353,28.5202952 88.76101,32.9180812 88.76101,32.9180812 C88.76101,32.9180812 90.2516197,19.8553506 92.6444404,16.8726937 C95.1102889,14.1346154 99.2834409,13.7870673 102.169058,16.0794652 C105.054675,18.371863 105.655656,22.5120872 103.54071,25.5289299 L103.536351,25.5158672 Z" id="Shape" fill="#0DA176" fill-rule="nonzero"></path>
                    <path d="M99.2955232,49.3118081 C95.6518107,50.5353506 82.8726661,47.4917343 82.8726661,47.4917343 C82.8726661,47.4917343 91.2192084,37.3550554 94.8629208,36.1315129 C98.4160536,35.1899106 102.090689,37.1654225 103.261433,40.646617 C104.432176,44.1278115 102.696956,47.9191278 99.2955232,49.3118081 Z" id="Shape" fill="#0DA176" fill-rule="nonzero"></path>
                    <path d="M76.2564513,77.4619926 C72.4950591,76.682583 62.9978708,67.6083395 62.9978708,67.6083395 C62.9978708,67.6083395 75.3237307,63.0668635 79.0894813,63.8462731 C82.6254497,64.8308148 84.7920897,68.3852298 84.0448051,71.975578 C83.2975205,75.5659261 79.8921812,77.9628737 76.2564513,77.4576384 L76.2564513,77.4619926 Z" id="Shape" fill="#0DA176" fill-rule="nonzero"></path>
                    <path d="M54.0237034,94.8049446 C50.1838581,94.6699631 39.2875887,87.3330627 39.2875887,87.3330627 C39.2875887,87.3330627 50.6720109,80.775572 54.5118562,80.9105535 C58.1650104,81.2819158 60.9040278,84.4197607 60.775224,88.0859285 C60.6464202,91.7520964 57.6939299,94.6903722 54.0237034,94.8049446 L54.0237034,94.8049446 Z" id="Shape" fill="#0DA176" fill-rule="nonzero"></path>
                    <path d="M70.9695814,38.9878967 C71.4620928,42.7978598 79.7824841,52.9519557 79.7824841,52.9519557 C79.7824841,52.9519557 85.2611283,41.0213284 84.7729754,37.2113653 C84.6098136,34.6187588 83.0163515,32.3321737 80.6391713,31.2794418 C78.261991,30.2267099 75.4959724,30.5827034 73.4634879,32.2029702 C71.4310034,33.823237 70.4696745,36.4386301 70.9695814,38.9878967 L70.9695814,38.9878967 Z" id="Shape" fill="#0DA176" fill-rule="nonzero"></path>
                    <path d="M45.2325933,59.6095941 C46.8408826,63.0929889 57.8243221,70.299262 57.8243221,70.299262 C57.8243221,70.299262 59.4805551,57.2757196 57.8722657,53.7923247 C56.1209539,50.5621828 52.1599909,49.2455823 48.8206574,50.7836239 C45.4813239,52.3216656 43.9111953,56.1857952 45.2325933,59.6139483 L45.2325933,59.6095941 Z" id="Shape" fill="#0DA176" fill-rule="nonzero"></path>
                    <path d="M22.9693358,83.1225092 C23.9630755,86.8323247 33.5735851,95.7846494 33.5735851,95.7846494 C33.5735851,95.7846494 37.4090719,83.2313653 36.4109736,79.5215498 C35.2268569,76.049177 31.5503285,74.0890019 28.0036937,75.0391308 C24.4570588,75.9892597 22.2555192,79.524145 22.9693358,83.1225092 L22.9693358,83.1225092 Z" id="Shape" fill="#0DA176" fill-rule="nonzero"></path>
                </g>
                <path d="M5.60068244,187.654834 C13.1670519,219.963321 29.1845678,247.891439 54.4987807,261.428782 C107.105969,289.56155 225.748908,275.05321 314.296351,258.380812 C359.036224,249.98741 399.647362,226.797614 429.591956,192.544649 L5.60068244,187.654834 Z" id="Shape" fill="#0DA176" fill-rule="nonzero" opacity="0.1"></path>
                <path d="M469.934304,35.578524 L421.350018,35.578524 C419.030741,35.578524 417.150596,33.7002181 417.150596,31.3832103 C417.150596,29.0662026 419.030741,27.1878967 421.350018,27.1878967 L429.748863,27.1878967 C427.429586,27.1878967 425.54944,25.3095908 425.54944,22.992583 C425.54944,20.6755753 427.429586,18.7972694 429.748863,18.7972694 L423.751556,18.7972694 C421.432279,18.7972694 419.552134,16.9189635 419.552134,14.6019557 C419.552134,12.284948 421.432279,10.4066421 423.751556,10.4066421 L449.109354,10.4066421 C443.48252,7.79409594 436.905532,5.93483395 429.330446,4.95948339 C360.187079,-3.91446494 335.500491,1.95505535 326.792193,8.00745387 C316.048471,15.4532103 304.062575,20.9308487 291.252921,23.5695203 C248.587489,32.3520295 168.805005,42.9328413 96.4930027,20.1732103 C60.552748,8.85217712 33.839454,27.9760148 17.8306551,59.9187454 L478.368016,59.9187454 C477.766542,50.6354982 475.966479,42.0663469 472.66273,34.559631 C471.905164,35.2154424 470.936719,35.577095 469.934304,35.578524 Z" id="Shape" fill="#0DA176" fill-rule="nonzero" opacity="0.1"></path>
                <path d="M1.47753412,120.220664 C-0.387683273,139.011496 0.246914235,157.966373 3.36476797,176.590701 L429.923203,192.174539 C441.797245,178.528786 451.767099,163.339634 459.561056,147.021033 L1.47753412,120.220664 Z M170.186652,160.432103 L161.787807,160.432103 C164.107084,160.432103 165.987229,162.310409 165.987229,164.627417 C165.987229,166.944425 164.107084,168.822731 161.787807,168.822731 L113.203521,168.822731 C110.884245,168.822731 109.004099,166.944425 109.004099,164.627417 C109.004099,162.310409 110.884245,160.432103 113.203521,160.432103 L121.602366,160.432103 C119.283089,160.432103 117.402944,158.553797 117.402944,156.23679 C117.402944,153.919782 119.283089,152.041476 121.602366,152.041476 L115.605059,152.041476 C113.285782,152.041476 111.405637,150.16317 111.405637,147.846162 C111.405637,145.529155 113.285782,143.650849 115.605059,143.650849 L164.189345,143.650849 C166.508622,143.650849 168.388767,145.529155 168.388767,147.846162 C168.388767,150.16317 166.508622,152.041476 164.189345,152.041476 L170.186652,152.041476 C172.505928,152.041476 174.386074,153.919782 174.386074,156.23679 C174.386074,158.553797 172.505928,160.432103 170.186652,160.432103 L170.186652,160.432103 Z" id="Shape" fill="#0DA176" fill-rule="nonzero" opacity="0.1"></path>
                <path d="M478.389809,60.2104797 L12.687616,71.5315129 C7.02591447,86.0790406 3.29067334,102.525018 1.54727025,119.571882 L470.230682,119.571882 C473.290799,109.558127 475.554097,99.3184607 476.999445,88.9484871 C478.394167,78.9293727 478.952056,69.2368266 478.389809,60.2104797 Z M96.09202,97.295572 L87.6931756,97.295572 C90.0124525,97.295572 91.8925978,99.1738779 91.8925978,101.490886 C91.8925978,103.807893 90.0124525,105.686199 87.6931756,105.686199 L39.1088899,105.686199 C36.7896131,105.686199 34.9094677,103.807893 34.9094677,101.490886 C34.9094677,99.1738779 36.7896131,97.295572 39.1088899,97.295572 L47.5077343,97.295572 C45.1884575,97.295572 43.3083121,95.4172661 43.3083121,93.1002583 C43.3083121,90.7832506 45.1884575,88.9049446 47.5077343,88.9049446 L41.5104277,88.9049446 C39.1911508,88.9049446 37.3110055,87.0266387 37.3110055,84.709631 C37.3110055,82.3926232 39.1911508,80.5143173 41.5104277,80.5143173 L90.0947134,80.5143173 C92.4139902,80.5143173 94.2941356,82.3926232 94.2941356,84.709631 C94.2941356,87.0266387 92.4139902,88.9049446 90.0947134,88.9049446 L96.09202,88.9049446 C98.4112969,88.9049446 100.291442,90.7832506 100.291442,93.1002583 C100.291442,95.4172661 98.4112969,97.295572 96.09202,97.295572 Z" id="Shape" fill="#0DA176" fill-rule="nonzero" opacity="0.1"></path>
                <path d="M409.560255,353.695203 C409.560255,353.695203 390.138744,247.277491 353.104504,230.008561 C321.723248,215.36524 287.787907,205.49417 278.138171,202.81631 C276.697227,200.497523 275.031526,198.325917 273.165114,196.332841 C259.976269,182.577786 252.052502,182.834686 250.771101,183.004502 C250.162924,180.276765 249.72622,177.513677 249.463549,174.731439 C249.424322,174.296015 249.385096,173.89107 249.350227,173.46 L249.463549,173.403395 C249.385096,172.580443 249.315359,171.731365 249.25434,170.856162 C254.638233,167.985557 259.595104,164.37889 263.981738,160.140369 C264.038399,160.327601 264.086342,160.514834 264.147361,160.706421 C273.651814,152.680098 282.960133,144.436064 292.07232,135.974317 C294.687425,133.531587 297.433285,130.879852 298.32242,127.435646 C298.607165,126.250378 298.717288,125.029948 298.649308,123.812915 C298.766988,121.200369 298.14808,118.531218 298.043476,115.883838 C298.043476,115.448413 298.091419,115.043469 298.14808,114.629815 C298.758271,110.297343 301.774359,106.739926 304.249991,103.104133 C310.434971,93.9160957 313.663358,83.0600028 313.503103,71.9887085 C313.570825,66.6838039 312.83612,61.3991076 311.323849,56.3134317 C309.39303,49.8604428 305.374486,43.0808856 298.684177,41.6701107 C296.095223,41.1258303 293.406024,41.4654613 290.764768,41.2956458 C279.829272,40.5989668 271.643995,31.71631 262.922621,25.2067159 C252.278308,17.3003282 239.690484,12.4193818 226.494213,11.0815498 C222.375423,10.6461255 218.12152,10.6156458 214.203221,11.9219188 C205.403394,14.8479705 200.059864,23.8830258 191.582566,27.5971956 C185.315032,30.357786 178.071192,29.9092989 171.53343,31.9819188 C161.800883,35.0734317 153.54151,45.0446494 153.323585,55.2901845 C153.323585,55.6690037 153.323585,56.0478229 153.323585,56.4266421 C153.323585,56.4919557 153.323585,56.5572694 153.323585,56.6182288 C153.214622,61.7954244 155.066988,67.0684133 155.215177,72.3675277 C155.215177,72.8464945 155.222442,73.3269127 155.23697,73.8087823 C155.189026,79.5302583 154.504741,85.2691513 152.417015,90.6466421 C151.29252,93.542214 149.845496,96.8949815 150.080855,99.7905535 C149.9501,101.562731 150.294422,103.226052 151.52788,104.580221 L153.633039,102.725314 C152.927019,106.542775 152.572499,110.416819 152.573922,114.298893 C152.573922,133.866863 161.482712,151.388339 175.53454,163.179631 C175.615899,164.483001 175.694352,165.879262 175.7699,167.368413 C176.101146,173.821402 176.362657,181.915941 176.288562,190.737638 L155.73384,209.613284 L102.891292,233.561624 C102.891292,233.561624 54.5641583,243.759262 64.9722748,311.585314 L69.9409736,353.699557 L114.062147,353.699557 L113.961902,353.921624 L179.44848,353.921624 L179.487707,353.699557 L335.295641,353.699557 L335.265132,353.921624 L341.367043,353.921624 L341.367043,353.699557 L409.560255,353.695203 Z M251.159008,184.084354 C252.494701,186.844529 253.546145,189.733171 254.297134,192.705756 C252.755055,189.845249 251.615454,186.785842 250.910573,183.614096 L250.975951,183.731661 L251.159008,184.084354 Z M176.271128,192.792841 C176.271128,193.62305 176.2566,194.460517 176.227543,195.30524 L176.122939,195.453284 C176.115891,194.556991 176.165386,193.661144 176.271128,192.77107 L176.271128,192.792841 Z" id="Shape" fill="url(#linearGradient-1)" fill-rule="nonzero"></path>
                <path d="M268.396906,203.473801 L259.679891,286.639852 L213.043858,301.44428 C213.043858,301.44428 152.460601,290.123247 168.151228,257.466421 C179.313367,234.236531 179.003913,192.723173 177.896852,170.690701 C177.461001,161.747085 176.868244,156.012546 176.868244,156.012546 C176.868244,156.012546 256.193085,86.7800738 249.655323,149.045756 C248.391356,161.102657 248.317261,170.529594 249.018981,177.896974 C251.960974,208.568266 268.396906,203.473801 268.396906,203.473801 Z" id="Shape" fill="#FDC2CC" fill-rule="nonzero"></path>
                <path d="M268.396906,203.473801 L259.679891,286.639852 L213.043858,301.44428 C213.043858,301.44428 152.460601,290.123247 168.151228,257.466421 C179.313367,234.236531 179.003913,192.723173 177.896852,170.690701 C177.461001,161.747085 176.868244,156.012546 176.868244,156.012546 C176.868244,156.012546 256.193085,86.7800738 249.655323,149.045756 C248.391356,161.102657 248.317261,170.529594 249.018981,177.896974 C251.960974,208.568266 268.396906,203.473801 268.396906,203.473801 Z" id="Shape" fill="#000000" fill-rule="nonzero" opacity="0.03"></path>
                <path d="M249.655323,147.739483 C248.391356,159.796384 248.317261,169.223321 249.018981,176.590701 C226.096906,189.092657 197.83958,186.229553 177.896852,169.384428 C177.461001,160.440812 176.868244,154.706273 176.868244,154.706273 C176.868244,154.706273 256.193085,85.4738007 249.655323,147.739483 Z" id="Shape" fill="#000000" fill-rule="nonzero" opacity="0.1"></path>
                <ellipse id="Oval" fill="#FDC2CC" fill-rule="nonzero" cx="218.709918" cy="118.570406" rx="63.1983621" ry="63.1365314"></ellipse>
                <ellipse id="Oval" fill="#000000" fill-rule="nonzero" opacity="0.03" cx="218.709918" cy="118.570406" rx="63.1983621" ry="63.1365314"></ellipse>
                <path d="M403.510646,353.695203 L75.7508644,353.695203 L70.9565059,312.329889 C60.9319381,245.709963 107.567971,235.695203 107.567971,235.695203 L158.562511,212.182288 L178.829572,193.241328 C172.291811,218.060517 221.760874,269.658303 221.760874,269.658303 L221.760874,269.658303 C222.078733,269.363181 222.379934,269.050646 222.663085,268.72214 C223.996788,267.267823 227.182857,263.627675 234.644622,254.596974 C237.312029,251.361771 240.532966,247.438598 244.412038,242.675055 C263.066451,219.771734 253.495168,192.710111 250.635987,187.114908 L250.457288,186.766568 C250.348326,186.566273 250.265514,186.405166 250.200136,186.291956 C250.182118,186.250789 250.160227,186.211424 250.134759,186.174391 C250.11671,186.146548 250.100688,186.117445 250.086815,186.087306 L274.058608,204.810554 C274.058608,204.810554 274.978253,205.054391 276.673712,205.533358 C286.000919,208.145904 318.76818,217.860221 349.024941,232.242288 C384.769063,249.193358 403.510646,353.695203 403.510646,353.695203 Z" id="Shape" fill="#0DA176" fill-rule="nonzero"></path>
                <path d="M291.932848,253.983026 C288.010191,250.064207 261.423294,245.274539 261.423294,245.274539 C262.294995,255.724723 230.042038,271.835424 230.042038,271.835424 L232.439217,353.695203 L216.975232,353.695203 L214.360127,280.108487 L221.769591,269.658303 L221.769591,269.658303 L222.671802,268.72214 C226.96545,264.275971 230.967602,259.55779 234.653339,254.596974 C237.320746,251.361771 240.541683,247.438598 244.420755,242.675055 C263.075168,219.771734 253.503885,192.710111 250.644704,187.114908 L250.466005,186.766568 C250.361401,186.561919 250.27859,186.405166 250.208854,186.291956 C250.190835,186.250789 250.168944,186.211424 250.143476,186.174391 C250.125427,186.146548 250.109405,186.117445 250.095532,186.087306 L250.095532,186.087306 C250.095532,186.087306 257.940846,184.345609 271.888071,199.150037 C273.691047,201.116267 275.296838,203.254254 276.682429,205.533358 C288.01455,223.699262 295.389145,257.435941 291.932848,253.983026 Z" id="Shape" fill="#0DA176" fill-rule="nonzero"></path>
                <path d="M291.932848,253.983026 C288.010191,250.064207 261.423294,245.274539 261.423294,245.274539 C262.294995,255.724723 230.042038,271.835424 230.042038,271.835424 L232.439217,353.695203 L216.975232,353.695203 L214.360127,280.108487 L221.769591,269.658303 L221.769591,269.658303 L222.671802,268.72214 C226.96545,264.275971 230.967602,259.55779 234.653339,254.596974 C237.320746,251.361771 240.541683,247.438598 244.420755,242.675055 C263.075168,219.771734 253.503885,192.710111 250.644704,187.114908 L250.466005,186.766568 C250.361401,186.561919 250.27859,186.405166 250.208854,186.291956 C250.190835,186.250789 250.168944,186.211424 250.143476,186.174391 C250.125427,186.146548 250.109405,186.117445 250.095532,186.087306 L250.095532,186.087306 C250.095532,186.087306 257.940846,184.345609 271.888071,199.150037 C273.691047,201.116267 275.296838,203.254254 276.682429,205.533358 C288.01455,223.699262 295.389145,257.435941 291.932848,253.983026 Z" id="Shape" fill="#000000" fill-rule="nonzero" opacity="0.1"></path>
                <path d="M114.541583,287.510701 C114.541583,287.510701 135.02657,329.311439 136.116197,353.912915" id="Shape" fill="#000000" fill-rule="nonzero" opacity="0.1"></path>
                <polygon id="Shape" fill="#000000" fill-rule="nonzero" opacity="0.1" points="337.697179 311.463395 331.813194 353.917269 337.697179 353.917269"></polygon>
                <path d="M119.118016,353.912915 L151.588899,280.108487 C151.588899,280.108487 160.741765,262.691513 162.921019,245.274539 C165.100273,227.857565 176.868244,200.42583 176.868244,200.42583 C176.868244,200.42583 206.070246,163.41476 219.58162,168.639852 C233.092994,173.864945 207.813649,193.459041 207.813649,193.459041 C207.813649,193.459041 244.860965,207.828044 219.58162,250.499631 C194.302275,293.171218 193.866424,285.333579 193.866424,285.333579 L181.444677,353.912915 L119.118016,353.912915 Z" id="Shape" fill="#000000" fill-rule="nonzero" opacity="0.1"></path>
                <path d="M118.246315,353.912915 L150.717197,280.108487 C150.717197,280.108487 159.870064,262.691513 162.049318,245.274539 C163.435323,234.201697 168.696042,219.07941 172.344113,209.530554 C174.725361,203.287826 178.229101,197.532676 182.682493,192.549004 C192.123021,181.994317 209.26939,164.973579 218.709918,168.631144 C232.221292,173.856236 206.941947,193.450332 206.941947,193.450332 C206.941947,193.450332 243.989263,207.819336 218.709918,250.490923 C193.430573,293.162509 192.994722,285.324871 192.994722,285.324871 L180.572975,353.904207 L118.246315,353.912915 Z" id="Shape" fill="#FDC2CC" fill-rule="nonzero"></path>
                <ellipse id="Oval" fill="#FFFFFF" fill-rule="nonzero" opacity="0.15" cx="238.105278" cy="83.083321" rx="1.30755232" ry="1.30627306"></ellipse>
                <ellipse id="Oval" fill="#FFFFFF" fill-rule="nonzero" opacity="0.15" cx="232.003367" cy="85.6958672" rx="1.30755232" ry="1.30627306"></ellipse>
                <path d="M173.81293,39.0053137 C180.119691,36.9675277 187.119454,37.4073063 193.169063,34.6989668 C201.349982,31.0326937 206.506096,22.1587454 214.99647,19.2849446 C218.779654,18.004797 222.885369,18.0526937 226.855969,18.4619926 C239.62414,19.7895292 251.783532,24.5891905 262.011692,32.3389668 C270.427971,38.7353506 278.325587,47.4569004 288.877534,48.1405166 C291.427261,48.3059779 294.020573,47.9707011 296.517998,48.5062731 C302.986024,49.8909225 306.860737,56.5485609 308.72182,62.8752768 C313.078817,78.0484894 310.585818,94.3659502 301.896397,107.549815 C299.507934,111.120295 296.596451,114.616753 296.008053,118.870849 C295.43273,123.042214 297.211001,127.365978 296.173676,131.450258 C295.301975,134.833506 292.68687,137.437343 290.141501,139.836531 C281.351844,148.141525 272.36896,156.233161 263.192848,164.111439 C258.424641,148.976089 265.420045,132.678155 264.330419,116.85048 C263.894568,110.684871 261.715314,103.95321 256.271538,101.044576 C251.176442,98.3275277 244.664832,99.7383026 239.508717,97.1257565 C233.755487,94.2301845 231.393176,87.3722509 227.043385,82.6261255 C219.633922,74.5272325 206.771965,73.482214 196.411793,77.1397786 C186.05162,80.7973432 177.583039,88.321476 169.389045,95.6583764 L154.496024,109.004133 C151.588899,105.729742 153.794304,100.704945 155.367725,96.6119557 C157.712602,90.4768266 158.226906,83.8627306 158.07,77.3487823 C157.943603,72.12369 156.139181,66.9639114 156.243785,61.878155 C156.452994,51.8459779 164.420346,42.0402214 173.81293,39.0053137 Z" id="Shape" fill="#000000" fill-rule="nonzero" opacity="0.1"></path>
                <path d="M173.81293,37.6990406 C180.119691,35.6612546 187.119454,36.1010332 193.169063,33.3926937 C201.349982,29.7264207 206.506096,20.8524723 214.99647,17.9786716 C218.779654,16.698524 222.885369,16.7464207 226.855969,17.1557196 C239.62414,18.4832561 251.783532,23.2829174 262.011692,31.0326937 C270.427971,37.4290775 278.325587,46.1506273 288.877534,46.8342435 C291.427261,46.9997048 294.020573,46.664428 296.517998,47.2 C302.986024,48.5846494 306.860737,55.2422878 308.72182,61.5690037 C313.078817,76.7422164 310.585818,93.0596771 301.896397,106.243542 C299.507934,109.814022 296.596451,113.31048 296.008053,117.564576 C295.43273,121.735941 297.211001,126.059705 296.173676,130.143985 C295.301975,133.527232 292.68687,136.13107 290.141501,138.530258 C281.351844,146.835252 272.36896,154.926888 263.192848,162.805166 C258.424641,147.669815 265.420045,131.371882 264.330419,115.544207 C263.894568,109.378598 261.715314,102.646937 256.271538,99.7383026 C251.176442,97.0212546 244.664832,98.4320295 239.508717,95.8194834 C233.755487,92.9239114 231.393176,86.0659779 227.043385,81.3198524 C219.633922,73.2209594 206.771965,72.175941 196.411793,75.8335055 C186.05162,79.4910701 177.583039,87.015203 169.389045,94.3521033 L154.496024,107.69786 C151.588899,104.423469 153.794304,99.3986716 155.367725,95.3056827 C157.712602,89.1705535 158.226906,82.5564576 158.07,76.0425092 C157.943603,70.817417 156.139181,65.6576384 156.243785,60.5718819 C156.452994,50.5397048 164.420346,40.7339483 173.81293,37.6990406 Z" id="Shape" fill="#865A61" fill-rule="nonzero"></path>
            </g>
        </g>
    </g>
</svg>