<svg xmlns="http://www.w3.org/2000/svg" width="40" height="40" viewBox="0 0 40 40">
    <defs>
        <linearGradient id="a" x1="94.012%" x2="12.378%" y1="77.976%" y2="18.204%">
            <stop offset="0%" stop-color="#FFF"/>
            <stop offset="100%" stop-color="#FFF"/>
        </linearGradient>
    </defs>
    <g fill="none" fill-rule="evenodd" transform="translate(-693 -3284)">
        <path fill="#FFF" d="M0 0h1440v4315H0z"/>
        <text fill="#EA0B4B" font-family="SourceSansPro-Regular, Source Sans Pro" font-size="120" opacity=".05">
            <tspan x="651" y="3311">7</tspan>
        </text>
        <circle cx="713" cy="3304" r="36" fill="url(#a)" opacity=".652"/>
        <g fill="#EA0B4B" fill-rule="nonzero">
            <path d="M697.777 3322.086c2.438 1.306 5.786 1.914 10.535 1.914 3.865 0 6.773-.4 9.032-1.252a3.509 3.509 0 0 0 2.687 1.252h9.453a3.52 3.52 0 0 0 3.516-3.516c0-.9-.34-1.72-.898-2.343a3.5 3.5 0 0 0 .898-2.344c0-.9-.34-1.721-.898-2.344a3.5 3.5 0 0 0 .898-2.344c0-.9-.34-1.72-.898-2.343a3.5 3.5 0 0 0 .898-2.344 3.52 3.52 0 0 0-3.516-3.516h-9.453c-.114 0-.227.006-.338.017a16.048 16.048 0 0 0-4.073-3.535 3.501 3.501 0 0 0 .896-2.341 3.52 3.52 0 0 0-2.012-3.177l1.954-5.99a1.172 1.172 0 0 0-1.114-1.536h-3.717a3.521 3.521 0 0 0-3.314-2.344c-1.529 0-2.832.98-3.315 2.344h-3.717a1.172 1.172 0 0 0-1.114 1.535l1.954 5.991a3.52 3.52 0 0 0-2.012 3.177c0 .899.34 1.72.897 2.342-4.702 2.838-8.006 8.228-8.006 14.064 0 4.032 1.607 6.936 4.777 8.633zm32.88-10.977c0 .646-.527 1.172-1.173 1.172h-9.453a1.173 1.173 0 0 1-1.172-1.172c0-.646.526-1.171 1.172-1.171h9.453c.646 0 1.172.525 1.172 1.171zm0 4.688c0 .646-.527 1.172-1.173 1.172h-9.453a1.173 1.173 0 0 1-1.172-1.172c0-.646.526-1.172 1.172-1.172h9.453c.646 0 1.172.526 1.172 1.172zm-1.173 5.86h-9.453a1.173 1.173 0 0 1-1.172-1.173c0-.646.526-1.171 1.172-1.171h9.453c.646 0 1.172.525 1.172 1.171s-.526 1.172-1.172 1.172zm1.172-15.235c0 .646-.526 1.172-1.172 1.172h-9.453a1.173 1.173 0 0 1-1.172-1.172c0-.646.526-1.172 1.172-1.172h9.453c.646 0 1.172.526 1.172 1.172zm-17.69-8.203H703.625a1.173 1.173 0 0 1-.004-2.343h.004l.008-.001H713.004a1.173 1.173 0 0 1-.004 2.344h-.034zm-6.997-9.532c.647 0 1.172-.524 1.172-1.171 0-.646.525-1.172 1.172-1.172.646 0 1.171.526 1.171 1.172v2.343a1.172 1.172 0 1 0 2.344 0v-1.171h1.901l-1.58 4.843h-7.673l-1.58-4.843h3.073zm-2.115 11.876h8.913c1.774.74 3.392 1.908 4.74 3.415a3.503 3.503 0 0 0-.093 4.788 3.502 3.502 0 0 0-.898 2.343c0 .9.34 1.722.898 2.344a3.502 3.502 0 0 0-.898 2.344c0 .9.34 1.721.898 2.344a3.502 3.502 0 0 0-.898 2.343l.001.072c-1.982.749-4.622 1.1-8.205 1.1-4.348 0-7.344-.52-9.43-1.636-2.414-1.293-3.538-3.38-3.538-6.567 0-5.527 3.489-10.795 8.51-12.89z"/>
            <path d="M710.52 3309.114h-1.134c-.094-.813-.266-1.568-.981-2.033h2.115c.372 0 .43-.425.43-.585 0-.16-.058-.596-.43-.596h-6.852c-.178 0-.32.437-.32.596 0 .16.142.585.32.585h1.962c1.335 0 1.977.9 2.135 2.033h-4.097c-.273 0-.32.318-.32.477 0 .16.047.509.323.509h4.094c-.162 1.176-.817 1.654-2.135 1.657h-1.959c-.181.002-.327.136-.324.299 0 .078.04.154.1.209l4.9 4.156c.13.11.7.079.904-.204.297-.241.452-.686.223-.918l-3.117-2.544c1.946-.03 2.956-.936 3.03-2.716l1.133-.035c.254 0 .34-.33.34-.49 0-.16-.162-.4-.34-.4z"/>
        </g>
    </g>
</svg>
