<svg xmlns="http://www.w3.org/2000/svg" width="176" height="33" viewBox="0 0 176 33">
    <g fill="none" fill-rule="evenodd">
        <path fill="#FFF" d="M-121-14h1440v177H-121z"/>
        <path fill="#FFF" d="M-121-14h1440v60H-121z"/>
        <path fill="#5E5971" d="M72.36 14.64h-6.9a1.259 1.259 0 0 0-1.27 1.27c.004.7.57 1.266 1.27 1.27h5.5a6.276 6.276 0 1 1-6.18-7.56 6.312 6.312 0 0 1 5.1 2.41 1.424 1.424 0 0 0 1.78.46 1.227 1.227 0 0 0 .46-1.75 8.562 8.562 0 0 0-7.33-3.65 8.854 8.854 0 0 0-3.4.68 9.147 9.147 0 0 0-2.79 1.9 8.974 8.974 0 0 0-1.9 2.79 8.64 8.64 0 0 0-.7 3.44c0 1.174.231 2.336.68 3.42a9.148 9.148 0 0 0 1.9 2.79 8.974 8.974 0 0 0 2.79 1.9 8.806 8.806 0 0 0 3.42.68 9.03 9.03 0 0 0 3.45-.68 9.147 9.147 0 0 0 2.79-1.9 8.974 8.974 0 0 0 1.9-2.79 8.806 8.806 0 0 0 .68-3.42 1.24 1.24 0 0 0-1.25-1.26zm9.03-2.59a6.37 6.37 0 0 0-6.37 6.35v5.09a1.255 1.255 0 1 0 2.51 0V18.4a3.845 3.845 0 0 1 3.86-3.84c.7-.001 1.269-.57 1.27-1.27a1.253 1.253 0 0 0-1.27-1.24zm7.56 12.71a6.38 6.38 0 1 1 6.37-6.38 6.4 6.4 0 0 1-6.37 6.38zm0-10.25a3.87 3.87 0 1 0-.02 7.74 3.87 3.87 0 0 0 .02-7.74zm16.84-2.46a1.253 1.253 0 0 0-1.27 1.24v6.32a2.625 2.625 0 0 1-5.25 0v-6.32a1.255 1.255 0 1 0-2.51 0v6.38a5.135 5.135 0 1 0 10.27 0v-6.38a1.24 1.24 0 0 0-1.24-1.24zm9.16 12.81a6.37 6.37 0 1 0-6.37-6.37v11.39a1.253 1.253 0 0 0 1.27 1.24 1.24 1.24 0 0 0 1.24-1.24v-6.32a6.322 6.322 0 0 0 3.86 1.3zm0-10.22a3.86 3.86 0 1 1-3.86 3.89v-.03a3.856 3.856 0 0 1 3.86-3.86zm20.75.66a5.263 5.263 0 0 0 1.12-3.15 5.161 5.161 0 0 0-4.95-5.07h-4.9c-.705 0-1.28.565-1.29 1.27v15.14a1.259 1.259 0 0 0 1.27 1.27h6.75a5.065 5.065 0 0 0 4.74-4.98 5.141 5.141 0 0 0-2.74-4.48zm-1.4-3.17a2.627 2.627 0 0 1-2.64 2.59h-3.45v-5.1h3.45a2.567 2.567 0 0 1 2.64 2.51zm-.79 10.09h-5.3v-4.97h5.17a2.643 2.643 0 0 1 2.54 2.52 2.472 2.472 0 0 1-2.41 2.45zm7.64 2.54a1.253 1.253 0 0 0 1.24-1.27v-10.2a1.255 1.255 0 0 0-2.51 0v10.2a1.259 1.259 0 0 0 1.27 1.27zm0-15.25c.33 0 .648-.125.89-.35a1.28 1.28 0 0 0 0-1.78 1.259 1.259 0 1 0-1.78 1.78c.242.225.56.35.89.35zm20.67 7.64a5.089 5.089 0 0 0-5.1-5.07 5.026 5.026 0 0 0-3.83 1.75 5.026 5.026 0 0 0-3.83-1.75 5.089 5.089 0 0 0-5.1 5.07v6.39a1.255 1.255 0 0 0 2.51 0v-6.39a2.575 2.575 0 0 1 5.15 0v6.39c.001.7.57 1.269 1.27 1.27a1.253 1.253 0 0 0 1.24-1.27v-6.39a2.59 2.59 0 0 1 5.18 0v6.39a1.253 1.253 0 0 0 1.24 1.27c.7-.004 1.266-.57 1.27-1.27v-6.16a.208.208 0 0 0-.03-.13c.03-.03.03-.05.03-.1zm7.94-5.08a6.379 6.379 0 0 0-6.42 6.43 6.229 6.229 0 0 0 6.42 6.25 5.528 5.528 0 0 0 3.75-1.27c.03.67.552 1.213 1.22 1.27a1.224 1.224 0 0 0 1.27-1.27V18.5a6.235 6.235 0 0 0-6.24-6.43zm0 10.2a3.841 3.841 0 0 1-3.93-3.77 3.985 3.985 0 0 1 3.93-3.94 3.833 3.833 0 0 1 3.75 3.94 3.688 3.688 0 0 1-3.75 3.77z"/>
        <path fill="#EA0B4B" d="M15.014 15.674a1.354 1.354 0 1 1 2.7.181c-.32 3.56.347 7.14 1.93 10.344 1.071 1.938 2.844 3.821 5.27 3.143a8.76 8.76 0 0 0 4.065-3.057 1.354 1.354 0 0 1 2.08 1.733 11.335 11.335 0 0 1-5.415 3.925c-3.734 1.04-6.657-1.355-8.367-4.451a22.145 22.145 0 0 1-2.263-11.818zm-.032-6.681a1.878 1.878 0 0 0-1.324 2.293 3.467 3.467 0 0 1 4.1 0 1.732 1.732 0 0 0-.055-1.142 2.188 2.188 0 0 0-2.718-1.15l-.003-.001zm4.191-5.775a7.337 7.337 0 0 0-4.1-2.647A17.7 17.7 0 0 0 9.015.059C6.84.116 4.709.679 2.791 1.706A5.347 5.347 0 0 0 .014 6.062a9.683 9.683 0 0 0 1.276 5.011 33.924 33.924 0 0 0 7.571 9.076l1.245 1.048a1.355 1.355 0 0 0 1.71-2.1l-1.182-1a31.225 31.225 0 0 1-6.933-8.272 7.178 7.178 0 0 1-.985-3.577c.074-.95.63-1.794 1.473-2.237a11.538 11.538 0 0 1 5.025-1.258 14.827 14.827 0 0 1 5.113.41 4.729 4.729 0 0 1 2.631 1.607 1.361 1.361 0 0 0 2.45-.541 1.345 1.345 0 0 0-.228-1.011h-.007zm7.846 5.775a1.878 1.878 0 0 1 1.324 2.293 3.467 3.467 0 0 0-4.1 0 1.732 1.732 0 0 1 .055-1.142 2.188 2.188 0 0 1 2.718-1.15l.003-.001zM25.042 4.77a4.757 4.757 0 0 1 2.631-1.607 15.222 15.222 0 0 1 5.113-.41c1.746.033 3.462.461 5.018 1.253a2.78 2.78 0 0 1 1.477 2.237 7.1 7.1 0 0 1-.985 3.577 31.225 31.225 0 0 1-6.933 8.272 22.069 22.069 0 0 1-5.79 3.971c-.733.252-.5-.291-.362-.993.383-1.646.94-3.246 1.662-4.774a1.353 1.353 0 1 0-2.482-1.079c-1.481 3.388-2.056 5.641-1.977 7.035a2.571 2.571 0 0 0 1.457 2.426c.835.32 1.761.302 2.584-.047a24.093 24.093 0 0 0 6.681-4.483 34.045 34.045 0 0 0 7.571-9.076 9.681 9.681 0 0 0 1.276-5.011 5.347 5.347 0 0 0-2.781-4.357A13.993 13.993 0 0 0 32.979.059a17.9 17.9 0 0 0-6.058.512 7.336 7.336 0 0 0-4.1 2.647 1.355 1.355 0 1 0 2.222 1.552h-.001z"/>
    </g>
</svg>
