<svg xmlns="http://www.w3.org/2000/svg" width="34" height="40" viewBox="0 0 34 40">
    <g fill="#FFF" fill-rule="evenodd">
        <path d="M0 14.35v13.133c.007 2.95 2.382 5.338 5.31 5.34h12.068l6.798 6.848c.318.321.797.417 1.214.244.416-.174.687-.584.686-1.038v-6.053h2.618c2.927-.005 5.299-2.393 5.306-5.34V14.348c-.002-2.953-2.379-5.347-5.31-5.349h-.717c-.615 0-1.113.502-1.113 1.121 0 .62.498 1.121 1.113 1.121h.72c1.704.002 3.083 1.392 3.086 3.107v13.134c-.008 1.713-1.389 3.099-3.09 3.099h-3.725c-.615 0-1.113.501-1.113 1.12v4.485l-5.226-5.27a1.109 1.109 0 0 0-.788-.335H5.31c-1.703-.003-3.083-1.393-3.085-3.108V14.35c.002-1.715 1.382-3.105 3.085-3.107h4.651c.615 0 1.113-.502 1.113-1.121 0-.62-.498-1.121-1.113-1.121H5.311C2.379 9.002.002 11.396 0 14.35z"/>
        <text font-family=".SFNSDisplay, .SF NS Display" font-size="26" transform="translate(0 -6)">
            <tspan x="13" y="25">?</tspan>
        </text>
    </g>
</svg>
