<svg xmlns="http://www.w3.org/2000/svg" viewBox="0 0 42 42">
    <defs>
        <style>
            .cls-1{fill:none}.cls-2{fill:#9c0f46}
        </style>
    </defs>
    <g id="Group_696" data-name="Group 696" transform="translate(-1552 -217)">
        <path id="Rectangle_302" d="M0 0h42v42H0z" class="cls-1" data-name="Rectangle 302" transform="translate(1552 217)"/>
        <g id="meet_in_person" data-name="meet in person" transform="translate(1561.044 225.247)">
            <g id="Group_424" data-name="Group 424" transform="translate(6.564 17.817)">
                <g id="Group_423" data-name="Group 423">
                    <path id="Path_63" d="M157.846 304h-9.377a.469.469 0 0 0 0 .938h4.22v8.908a.469.469 0 0 0 .938 0v-8.908h4.22a.469.469 0 1 0 0-.938z" class="cls-2" data-name="Path 63" transform="translate(-148 -304)"/>
                </g>
            </g>
            <g id="Group_426" data-name="Group 426" transform="translate(15.004 13.597)">
                <g id="Group_425" data-name="Group 425">
                    <path id="Path_64" d="M298.564 232a2.344 2.344 0 0 0-2.344 2.344v3.756a.469.469 0 0 1-.469.469h-2.344a1.407 1.407 0 0 0-1.407 1.402v5.157a1.407 1.407 0 0 0 2.813 0v-3.282a.469.469 0 0 1 .469-.469h4.22a1.407 1.407 0 0 0 1.407-1.407v-5.626a2.344 2.344 0 0 0-2.345-2.344zm1.407 7.971a.469.469 0 0 1-.469.469h-4.22a1.407 1.407 0 0 0-1.407 1.407v3.282a.469.469 0 0 1-.938 0v-5.157a.469.469 0 0 1 .469-.469h2.344a1.407 1.407 0 0 0 1.407-1.407v-3.751a1.407 1.407 0 0 1 2.813 0z" class="cls-2" data-name="Path 64" transform="translate(-292 -232)"/>
                </g>
            </g>
            <g id="Group_428" data-name="Group 428" transform="translate(19.223 8.439)">
                <g id="Group_427" data-name="Group 427">
                    <path id="Path_65" d="M366.344 144a2.344 2.344 0 1 0 2.344 2.344 2.347 2.347 0 0 0-2.344-2.344zm0 3.751a1.407 1.407 0 1 1 1.407-1.407 1.407 1.407 0 0 1-1.407 1.407z" class="cls-2" data-name="Path 65" transform="translate(-364 -144)"/>
                </g>
            </g>
            <g id="Group_430" data-name="Group 430" transform="translate(0 13.597)">
                <g id="Group_429" data-name="Group 429">
                    <path id="Path_66" d="M43.5 238.564h-2.343a.469.469 0 0 1-.469-.469v-3.751a2.344 2.344 0 0 0-4.689 0v5.626a1.407 1.407 0 0 0 1.407 1.407h4.22a.469.469 0 0 1 .469.469v3.282a1.407 1.407 0 1 0 2.813 0v-5.157a1.407 1.407 0 0 0-1.408-1.407zm.469 6.564a.469.469 0 0 1-.938 0v-3.282a1.407 1.407 0 0 0-1.407-1.407h-4.22a.469.469 0 0 1-.469-.469v-5.626a1.407 1.407 0 0 1 2.813 0v3.756a1.407 1.407 0 0 0 1.407 1.407H43.5a.469.469 0 0 1 .469.469z" class="cls-2" data-name="Path 66" transform="translate(-36 -232)"/>
                </g>
            </g>
            <g id="Group_432" data-name="Group 432" transform="translate(0 8.439)">
                <g id="Group_431" data-name="Group 431">
                    <path id="Path_67" d="M38.344 144a2.344 2.344 0 1 0 2.344 2.344A2.344 2.344 0 0 0 38.344 144zm0 3.751a1.407 1.407 0 1 1 1.407-1.407 1.407 1.407 0 0 1-1.407 1.407z" class="cls-2" data-name="Path 67" transform="translate(-36 -144)"/>
                </g>
            </g>
            <g id="Group_434" data-name="Group 434" transform="translate(7.033 10.315)">
                <g id="Group_433" data-name="Group 433">
                    <path id="Path_68" d="M167.618 177.582a.469.469 0 0 0-.459-.167l-1.334.266a.375.375 0 0 1-.312-.078.37.37 0 0 1-.136-.292 1.315 1.315 0 0 0-1.313-1.311h-6.752a1.315 1.315 0 0 0-1.312 1.312v3.938a1.315 1.315 0 0 0 1.313 1.313h6.752a1.315 1.315 0 0 0 1.313-1.313v-1.094a.372.372 0 0 1 .141-.293l2.027-1.622a.469.469 0 0 0 .072-.659zm-2.685 1.548a1.306 1.306 0 0 0-.494 1.026v1.094a.375.375 0 0 1-.375.375h-6.752a.375.375 0 0 1-.375-.375v-3.938a.375.375 0 0 1 .375-.375h6.752a.375.375 0 0 1 .375.375 1.313 1.313 0 0 0 1.137 1.3z" class="cls-2" data-name="Path 68" transform="translate(-156 -175.999)"/>
                </g>
            </g>
            <g id="Group_436" data-name="Group 436" transform="translate(5.157)">
                <g id="Group_435" data-name="Group 435">
                    <path id="Path_69" d="M134.313 0h-7.971a1.407 1.407 0 0 0-1.407 1.407v3.75a1.407 1.407 0 0 0 .67 1.2l-1.529 2.293a.469.469 0 0 0 .671.635l3.5-2.626a.472.472 0 0 1 .281-.094h5.782a1.407 1.407 0 0 0 1.407-1.407V1.407A1.407 1.407 0 0 0 134.313 0zm.469 5.157a.469.469 0 0 1-.469.469h-5.782a1.413 1.413 0 0 0-.844.281l-1.313.985.357-.535a.469.469 0 0 0-.389-.73.469.469 0 0 1-.469-.469V1.407a.469.469 0 0 1 .469-.469h7.971a.469.469 0 0 1 .469.469z" class="cls-2" data-name="Path 69" transform="translate(-123.998)"/>
                </g>
            </g>
            <g id="Group_438" data-name="Group 438" transform="translate(7.971 2.813)">
                <g id="Group_437" data-name="Group 437">
                    <path id="Path_70" d="M178.564 48h-6.1a.469.469 0 0 0 0 .938h6.1a.469.469 0 1 0 0-.938z" class="cls-2" data-name="Path 70" transform="translate(-172 -48)"/>
                </g>
            </g>
            <g id="Group_440" data-name="Group 440" transform="translate(8.908 13.128)">
                <g id="Group_439" data-name="Group 439">
                    <path id="Path_71" d="M193.158 224h-4.689a.469.469 0 1 0 0 .938h4.689a.469.469 0 0 0 0-.938z" class="cls-2" data-name="Path 71" transform="translate(-188 -224)"/>
                </g>
            </g>
        </g>
    </g>
</svg>
