<svg xmlns="http://www.w3.org/2000/svg" width="102" height="10" viewBox="0 0 102 10">
    <g fill="none" fill-rule="evenodd">
        <path fill="#F6F6F6" d="M-974-169H466V849H-974z"/>
        <rect width="424" height="704" fill="#FFF" rx="4" transform="translate(-15 -30)"/>
        <path d="M.008.013H101.73V10H.008z"/>
        <path fill="#1A538D" d="M99.17 3.094c-.12-.12-.296-.166-.52-.166h-.853v4.737h1.525v-.028h.028v-3.95a.9.9 0 0 0-.048-.309.54.54 0 0 0-.133-.284zm-2.027-1.252c-.123-.117-.297-.15-.519-.15H95.31v.754h.03v.109h.21c.137-.002.196.02.21.038l.008.01c.002.024.003.05.003.083v4.979h1.422v-.028h.029v-.075h.077v-.027h.029V2.452a.935.935 0 0 0-.05-.326.505.505 0 0 0-.135-.284zm-1.868 1.086h-.853c-.211 0-.385.046-.506.163-.12.118-.168.286-.168.49v4.084h1.527v-.028h.028V3.036h-.028v-.108zm4.212 4.96c-.73.704-1.752 1.122-2.941 1.124-2.359-.003-4.047-1.698-4.05-4.017.001-1.174.42-2.174 1.132-2.883.716-.7 1.72-1.109 2.89-1.11 2.397.003 4.116 1.665 4.12 4.02-.001 1.153-.428 2.152-1.151 2.866zm.765-6.462C99.327.54 98.03.014 96.546.014c-1.464 0-2.746.525-3.659 1.412l-.012.014-.016.014c-.914.887-1.457 2.134-1.457 3.568 0 1.416.544 2.662 1.46 3.554.918.89 2.208 1.425 3.69 1.424h.002c1.465 0 2.753-.534 3.674-1.424l.013-.013.016-.015c.922-.89 1.474-2.137 1.474-3.553 0-1.435-.552-2.682-1.479-3.569zM89.078 6.664h-2.06l2.092-2.82V2.694h-3.341c-.205 0-.373.04-.49.153-.116.114-.156.277-.156.475v1.003h.753V4.11c.001-.12.027-.177.063-.21.035-.033.112-.06.253-.06h.983l-2.092 2.82v1.186h4.103V6.768h-.108v-.104zm-11.842-.388c-.284.267-.555.388-.816.388-.16 0-.234-.033-.277-.083-.046-.051-.077-.158-.077-.338.012-.356.083-.466.354-.577.235-.096.437-.136.816-.197v.807zm1.713.774c-.043-.037-.072-.093-.073-.207V4.41c0-.627-.106-1.08-.4-1.379-.298-.298-.757-.411-1.4-.411-.42 0-.83.043-1.225.154-.286.08-.586.152-1.055.381l-.088.043.442 1.11.105-.045.133-.059c.38-.146.598-.214.858-.255.226-.033.33-.035.444-.035.22 0 .355.038.427.104.073.064.119.179.119.392v.022c-.657.102-.853.142-1.185.212-.239.04-.44.117-.633.191-.654.273-.958.788-.952 1.559 0 .48.097.854.323 1.112.226.257.57.38 1.01.38h.006a2.13 2.13 0 0 0 1.016-.24c.153-.091.266-.161.455-.315.01.149.053.271.136.362.096.108.24.153.393.153h1.532v-.733h-.146c-.12 0-.198-.026-.242-.063zm4.204-4.393c-.549-.002-1.01.17-1.584.627v-.036c0-.16-.03-.3-.122-.404-.095-.106-.24-.15-.41-.149H79.43v.733h.185c.137 0 .207.032.248.074.041.043.067.116.067.234v4.11h1.608v-.104h.108V4.419c.322-.27.508-.352.816-.355.16.003.226.032.272.092.05.063.082.204.081.44v3.25h1.679V4.372c.002-.714-.08-1.014-.29-1.297-.256-.295-.607-.42-1.05-.418zm-15.388-1.61h-1.61v.77h.186c.141 0 .217.028.253.061.036.033.062.091.062.21v5.758h1.61v-.104h.107V1.639a.596.596 0 0 0-.15-.427c-.107-.11-.267-.165-.458-.165zM62.446 4.98l.658-2.135.594 2.135h-1.252zm1.277-3.932h-2.568v.77h.3c.165 0 .263.023.3.048.034.025.052.049.055.149-.002.109.003.195-.113.528l-1.815 5.304h1.769l.023-.075.477-1.535h1.837l.462 1.61h1.917l-1.806-6.2c-.108-.44-.399-.615-.838-.599zm6.773 0h-1.61v.77h.187c.24.017.3.057.314.27v5.76h1.608v-.105h.108V1.639a.582.582 0 0 0-.166-.429.617.617 0 0 0-.441-.163zM72.88.936c-.287 0-.534.07-.714.21a.742.742 0 0 0-.28.606.693.693 0 0 0 .284.587c.181.131.426.19.71.19.302 0 .547-.058.725-.19.178-.134.27-.341.268-.587a.75.75 0 0 0-.265-.605c-.176-.142-.424-.211-.728-.211zm.385 1.76h-1.647v.732h.185c.137 0 .206.032.248.074.041.043.067.116.067.234v4.11h1.717V3.284c0-.17-.057-.32-.16-.425a.561.561 0 0 0-.41-.164zM51.94 6.465c.467 0 .85-.219.85-.66V1.668h2.057V5.99c0 1.312-.904 1.751-2.09 1.751H49.33c-.256 0-.544-.141-.666-.342l-.596-.935h3.872zm-16.83 0c.467 0 .847-.219.847-.66V1.668h2.06V5.99c0 1.312-.904 1.751-2.09 1.751H32.5c-.256 0-.544-.141-.667-.342l-.595-.935h3.871zM43 3.13l-2.778 4.612h-2.421l3.875-6.075h2.65l3.87 6.075H45.78L45.13 6.66h-3.584l.595-.932c.122-.202.41-.343.666-.343h1.555l-1.36-2.254zm-16.833 0l-2.78 4.612h-2.42l3.876-6.075h2.65l3.872 6.075h-2.42l-.65-1.083H24.71l.594-.932c.123-.202.412-.343.668-.343h1.554L26.168 3.13zM14.624 5.183v2.559l.595-.935c.124-.201.411-.342.668-.342h2.262c.428.006.768-.284.768-.64 0-.358-.332-.642-.768-.642h-3.525zm0 0l.595-.932c.124-.202.411-.343.668-.343h2.287c.41 0 .743-.178.743-.483 0-.304-.329-.483-.743-.483h-3.55v2.241zm-2.058 2.56V1.666h5.608c1.157 0 3.017.15 3.017 1.593 0 .71-.65 1.211-1.406 1.392.938.27 1.406.77 1.406 1.453 0 1.49-1.77 1.631-3.017 1.637h-5.608z"/>
        <path fill="#2C558F" d="M1.5 1.602C3.425-.339 6.627-.403 8.634 1.461a4.774 4.774 0 0 1 .146 6.901c-1.928 1.941-5.128 2.005-7.138.141a4.774 4.774 0 0 1-.144-6.9"/>
        <path fill="#234875" d="M.189 4.978c0 1.264.51 2.519 1.521 3.46a5.024 5.024 0 0 0 3.43 1.33 5.018 5.018 0 0 0 3.573-1.47 4.694 4.694 0 0 0 1.377-3.316A4.697 4.697 0 0 0 8.57 1.527 5.029 5.029 0 0 0 5.14.195a5.036 5.036 0 0 0-3.575 1.471A4.686 4.686 0 0 0 .189 4.978zm4.95 4.973a5.221 5.221 0 0 1-3.56-1.382A4.88 4.88 0 0 1 0 4.979C0 3.742.475 2.5 1.431 1.538A5.202 5.202 0 0 1 5.141.013c1.28 0 2.564.457 3.559 1.382a4.881 4.881 0 0 1 1.579 3.587 4.86 4.86 0 0 1-1.431 3.443A5.213 5.213 0 0 1 5.139 9.95z"/>
        <path fill="#234875" d="M6.804 5.45l-.027.007.027.008V5.45zm-.027.007C7.437 5.309 8 4.895 8 4.31 8 3.12 6.38 3 5.376 3H2v5h1.257V4.042s-.004-.015.017-.015h3.089l.017.015v.795s.005.015-.017.015H4.385v1.173h1.862s.017-.001.017.015v.795s.003.014-.017.014H4.385V8h.991C6.464 7.996 8 7.877 8 6.651c0-.561-.406-.971-1.223-1.194z"/>
        <path fill="#FFFFFE" d="M6.804 4.45l-.027.007.027.008V4.45zm-.027.007C7.435 4.307 8 3.897 8 3.31 8 2.124 6.382 2 5.376 2H2v5h1.259V3.044s-.007-.017.015-.017h3.09s.017-.002.017.017v.792s.004.015-.018.015h-1.98v1.174h1.863s.016 0 .016.016v.793s.004.014-.016.014H4.383v1.15h.993C6.463 6.994 8 6.876 8 5.651c0-.562-.407-.972-1.223-1.194z"/>
        <path fill="#2C558F" d="M57 10h1V0h-1z"/>
    </g>
</svg>
