<svg xmlns="http://www.w3.org/2000/svg" viewBox="0 0 42 42">
    <defs>
        <style>
            .cls-1{fill:none}.cls-2{fill:#9c0f46}
        </style>
    </defs>
    <g id="Group_698" data-name="Group 698" transform="translate(-1552 -169)">
        <path id="Rectangle_302" d="M0 0h42v42H0z" class="cls-1" data-name="Rectangle 302" transform="translate(1552 169)"/>
        <g id="get_a_call_back-alternate" data-name="get a call back-alternate" transform="translate(1560.963 176.875)">
            <g id="Group_447" data-name="Group 447">
                <path id="Path_77" d="M19.527 24.249A12.124 12.124 0 1 0 7.4 12.126a12.135 12.135 0 0 0 12.127 12.123zM24.8 4.363A17.088 17.088 0 0 0 29.395 13a9.9 9.9 0 0 1-18.827 3.354 10.884 10.884 0 0 0 7.867 3.8 4.389 4.389 0 0 0 .542.037c.055 0 .108 0 .162-.007h.01c1.106-.044 1.978-.487 1.978-1.035 0-.576-.962-1.045-2.15-1.045s-2.15.469-2.15 1.045a.6.6 0 0 0 .03.15c-4.011-.826-7.028-3.763-7.243-7.31a9.85 9.85 0 0 1 .729-3.6c2.731-.248 13.95-2.497 14.457-4.026z" class="cls-2" data-name="Path 77" transform="translate(-7.4)"/>
            </g>
        </g>
    </g>
</svg>
