<svg xmlns="http://www.w3.org/2000/svg" width="40" height="35" viewBox="0 0 40 35">
    <defs>
        <linearGradient id="a" x1="94.012%" x2="12.378%" y1="77.976%" y2="18.204%">
            <stop offset="0%" stop-color="#FFF"/>
            <stop offset="100%" stop-color="#FFF"/>
        </linearGradient>
    </defs>
    <g fill="none" fill-rule="evenodd" transform="translate(-1176 -2990)">
        <path fill="#FFF" d="M0 0h1440v4315H0z"/>
        <text fill="#EA0B4B" font-family="SourceSansPro-Regular, Source Sans Pro" font-size="120" opacity=".05">
            <tspan x="1128" y="3013">6</tspan>
        </text>
        <circle cx="1196" cy="3007" r="36" fill="url(#a)" opacity=".652"/>
        <g fill="#EA0B4B" fill-rule="nonzero" transform="translate(1176 2990)">
            <path d="M39.107 9.004L30.984.882a2.705 2.705 0 0 0-1.925-.798c-.727 0-1.411.283-1.925.798L25.225 2.79c-.294.294-.503.64-.634 1.007L15.66 2.198h-.002C11.642 1.4 7.72 4.01 6.91 8.028L6.5 10.07a4.18 4.18 0 0 0 3.268 4.917 4.18 4.18 0 0 0 4.917-3.267l.252-1.25 4.005.35L29.4 21.281l1.895 1.895a.986.986 0 0 1-1.392 1.392l-5.077-5.078a.906.906 0 0 0-1.281 1.281l5.077 5.078a.978.978 0 0 1 .289.696.986.986 0 0 1-1.68.696l-5.078-5.078a.906.906 0 0 0-1.281 1.281l5.077 5.078a.985.985 0 0 1-1.392 1.392l-5.077-5.078a.906.906 0 0 0-1.281 1.281l5.078 5.078a.986.986 0 0 1-1.392 1.392L3.918 14.62 1.546 12.25a.906.906 0 0 0-1.28 1.28l2.372 2.373 2.582 2.582-1.423 1.423a2.451 2.451 0 0 0-.723 1.745c0 .66.256 1.279.723 1.745l.464.464a2.45 2.45 0 0 0 1.498.71c.056.567.303 1.091.71 1.499l.465.464c.418.419.95.655 1.498.709.055.567.303 1.092.71 1.5l.465.464a2.45 2.45 0 0 0 1.498.71 2.45 2.45 0 0 0 .71 1.499l.465.464a2.46 2.46 0 0 0 1.745.722 2.46 2.46 0 0 0 1.745-.722l1.423-1.423 3.41 3.41c.529.529 1.23.82 1.977.82.747 0 1.45-.291 1.977-.82.5-.5.785-1.157.813-1.86a2.782 2.782 0 0 0 2.672-2.674 2.782 2.782 0 0 0 2.673-2.672 2.782 2.782 0 0 0 1.861-.812 2.799 2.799 0 0 0 0-3.954l-1.255-1.255 4.592-4.592 3.194-3.194a2.726 2.726 0 0 0 0-3.85zM5.077 22.116a.657.657 0 0 1 0-.928l1.335-1.335 1.392 1.393L6.47 22.58a.657.657 0 0 1-.928 0l-.465-.464zm2.673 2.673a.657.657 0 0 1 0-.928l1.335-1.334 1.392 1.392-1.334 1.335a.657.657 0 0 1-.928 0l-.465-.465zm2.673 2.673a.652.652 0 0 1 0-.928l1.335-1.334 1.392 1.392-1.335 1.334a.657.657 0 0 1-.927 0l-.465-.464zM14.49 30.6a.657.657 0 0 1-.928 0l-.465-.465a.657.657 0 0 1 0-.928l1.335-1.334 1.392 1.392L14.49 30.6zM30.04 19.359L19.99 9.307a.904.904 0 0 0-.562-.261l-5.14-.45a.906.906 0 0 0-.967.723l-.412 2.044a2.366 2.366 0 0 1-4.285.84 2.348 2.348 0 0 1-.348-1.774l.412-2.043a5.637 5.637 0 0 1 6.634-4.409l.02.004 8.8 1.576 1.084 1.083 8.767 8.767-3.952 3.952zm7.786-7.786l-2.553 2.553-8.767-8.766a.905.905 0 0 1-.267-.645c0-.243.095-.472.267-.644l1.908-1.909a.905.905 0 0 1 .645-.267c.243 0 .472.095.644.267l8.123 8.123c.172.172.267.4.267.644a.906.906 0 0 1-.267.644z"/>
            <circle cx="35.633" cy="11.289" r="1"/>
        </g>
    </g>
</svg>
