<svg xmlns="http://www.w3.org/2000/svg" width="60" height="48" viewBox="0 0 60 48">
    <defs>
        <linearGradient id="a" x1="-.004%" y1="49.962%" y2="49.962%">
            <stop offset="0%" stop-color="gray" stop-opacity=".25"/>
            <stop offset="54%" stop-color="gray" stop-opacity=".12"/>
            <stop offset="100%" stop-color="gray" stop-opacity=".1"/>
        </linearGradient>
    </defs>
    <g fill="none" fill-rule="evenodd">
        <path fill="#F6F6F6" d="M-222-198h1440v2666H-222z"/>
        <path fill="#FFF" d="M-165 55.41V-7.41c0-1.983 1.436-3.59 3.207-3.59h478.586C318.564-11 320-9.393 320-7.41v62.82c0 1.983-1.436 3.59-3.207 3.59h-478.586c-1.771 0-3.207-1.607-3.207-3.59z"/>
        <g>
            <path fill="#0DA176" d="M58.647 12.225a14.401 14.401 0 0 0-2.343-3.737L23.805 8.17l26.758-3.76a15.173 15.173 0 0 0-5.429-1.076 15.21 15.21 0 0 0-18.177-.618A15.143 15.143 0 0 0 20 1.04c-7.221 0-13.238 5.004-14.587 11.64l53.233-.454zM60 17.912a13.867 13.867 0 0 0-1.021-5.233L2.182 18.573a14.001 14.001 0 0 0-1.33 3.322l17.591 2.592-17.992 1.89C.993 33.86 7.483 39.77 15.411 39.77c3.99 0 7.617-1.498 10.304-3.94 2.696 2.488 6.357 4.018 10.39 4.018 5.986 0 11.151-3.368 13.557-8.24 4.826-1.514 8.576-5.316 9.859-10.072l-22.243-3.41h22.72l.002-.215z" opacity=".1"/>
            <path stroke="#535461" stroke-width=".9" d="M38.797 44.83s1.794-3.188 4.497-4.107a5.533 5.533 0 0 0 2.8-2.102c.319-.47.594-.969.823-1.489"/>
            <path fill="#0DA176" d="M48.507 36.565c-.281.279-1.59.567-1.59.567s.321-1.328.602-1.607a.698.698 0 0 1 .688-.177c.243.071.431.27.493.52a.735.735 0 0 1-.193.697zM47.249 39.838c-.396.099-1.685-.512-1.685-.512s1.005-1.177 1.4-1.275c.391-.084.764.236.841.72.078.486-.17.96-.556 1.067zM44.587 42.522c-.39-.165-1.279-1.507-1.279-1.507s1.378-.384 1.769-.22c.38.174.579.687.446 1.156-.134.469-.549.723-.936.571zM42.018 43.912c-.393-.082-1.416-1.215-1.416-1.215s1.258-.659 1.65-.577c.394.082.66.55.595 1.044-.064.495-.436.83-.83.748zM44.21 38.289c0 .4.902 1.56.902 1.56s.902-1.16.903-1.56c-.013-.392-.413-.704-.902-.704-.49 0-.89.312-.902.705v-.001zM41.53 39.884c.152.397 1.462 1.324 1.462 1.324s.435-1.375.284-1.772c-.168-.376-.666-.578-1.131-.458-.465.12-.734.52-.612.908l-.002-.002zM38.797 41.997c.067.403 1.16 1.475 1.16 1.475s.707-1.268.64-1.672c-.094-.381-.537-.638-1.012-.586-.475.052-.818.395-.785.783h-.003z"/>
            <path fill="#000" d="M48.507 36.565c-.281.279-1.59.567-1.59.567s.321-1.328.602-1.607a.698.698 0 0 1 .688-.177c.243.071.431.27.493.52a.735.735 0 0 1-.193.697zM47.249 39.838c-.396.099-1.685-.512-1.685-.512s1.005-1.177 1.4-1.275c.391-.084.764.236.841.72.078.486-.17.96-.556 1.067zM44.587 42.522c-.39-.165-1.279-1.507-1.279-1.507s1.378-.384 1.769-.22c.38.174.579.687.446 1.156-.134.469-.549.723-.936.571zM42.018 43.912c-.393-.082-1.416-1.215-1.416-1.215s1.258-.659 1.65-.577c.394.082.66.55.595 1.044-.064.495-.436.83-.83.748zM44.21 38.289c0 .4.902 1.56.902 1.56s.902-1.16.903-1.56c-.013-.392-.413-.704-.902-.704-.49 0-.89.312-.902.705v-.001zM41.53 39.884c.152.397 1.462 1.324 1.462 1.324s.435-1.375.284-1.772c-.168-.376-.666-.578-1.131-.458-.465.12-.734.52-.612.908l-.002-.002zM38.797 41.997c.067.403 1.16 1.475 1.16 1.475s.707-1.268.64-1.672c-.094-.381-.537-.638-1.012-.586-.475.052-.818.395-.785.783h-.003z" opacity=".25"/>
            <path stroke="#535461" stroke-width=".9" d="M38.797 44.83s.369-3.67 2.56-5.622a5.541 5.541 0 0 0 1.791-3.082 9.092 9.092 0 0 0 .16-1.71"/>
            <path fill="#0DA176" d="M44.596 33.189c-.187.387-1.567 1.226-1.567 1.226s-.297-1.404-.11-1.791c.186-.387.713-.574 1.176-.418.463.156.688.596.5.983zM44.384 35.886c-.295.256-1.527.34-1.527.34s.479-1.406.775-1.664c.296-.257.703-.169.91.197.208.365.137.87-.158 1.127zM43.103 39.847c-.395.042-1.6-.739-1.6-.739s1.085-1.025 1.48-1.067c.394-.042.74.328.774.827.033.499-.26.937-.654.98zM41.42 42.546c-.395.127-1.72-.39-1.72-.39s.956-1.25 1.349-1.377c.39-.114.782.18.882.66.1.48-.127.972-.513 1.107h.001z"/>
            <path fill="#0DA176" d="M41.132 35.94c.201.385 1.606 1.192 1.606 1.192s.24-1.424.039-1.809c-.13-.249-.407-.42-.726-.45-.32-.03-.634.087-.824.307a.667.667 0 0 0-.098.758l.003.002zM38.982 38.733c.273.288 1.62.663 1.62.663s-.228-1.289-.5-1.576a.78.78 0 0 0-.705-.222.73.73 0 0 0-.56.457.654.654 0 0 0 .145.678zM37.576 42.429c.247.374 1.672 1.043 1.672 1.043s.012-1.501-.233-1.875a.858.858 0 0 0-.745-.39.853.853 0 0 0-.727.42.754.754 0 0 0 .033.802z"/>
            <ellipse cx="1.805" cy="44.151" fill="#0DA176" opacity=".1" rx="1.805" ry="1"/>
            <ellipse cx="4.511" cy="47.321" fill="#0DA176" opacity=".1" rx="1.805" ry="1"/>
            <path fill="#0DA176" d="M5.604 46.633c.115-.117.22-.255.252-.422.033-.167-.032-.368-.176-.429-.162-.069-.335.056-.466.181-.131.126-.282.269-.453.242.18-.18.26-.451.213-.714a.317.317 0 0 0-.058-.145c-.09-.106-.252-.064-.36.023-.345.266-.437.78-.44 1.243-.034-.166-.005-.34-.006-.509-.001-.168-.043-.36-.173-.452a.483.483 0 0 0-.265-.07c-.154-.006-.325.011-.43.136-.13.154-.097.414.017.584.113.17.287.277.445.395.127.083.236.198.319.335.009.02.017.041.023.063h.961a2.72 2.72 0 0 0 .597-.461zM2.897 43.92c.115-.117.22-.255.253-.423.032-.167-.033-.369-.177-.43-.162-.069-.335.056-.466.181-.131.126-.282.27-.453.244.18-.181.26-.453.213-.717a.316.316 0 0 0-.057-.146c-.09-.107-.253-.064-.36.023-.345.268-.439.784-.44 1.248-.035-.168-.006-.342-.007-.514 0-.173-.043-.362-.172-.455a.483.483 0 0 0-.265-.069c-.155-.006-.326.011-.43.136-.131.155-.098.415.016.586.114.171.288.278.445.396.128.085.237.2.319.337.01.02.017.04.023.06h.965c.216-.121.415-.275.593-.457z"/>
            <ellipse cx="50.526" cy="47.321" fill="#0DA176" opacity=".1" rx="2.707" ry="1"/>
            <path fill="#0DA176" d="M51.07 43.472s.36.508-.167 1.275c-.528.768-.964 1.417-.788 1.895 0 0 .797-1.426 1.445-1.446.648-.02.222-.867-.49-1.724z"/>
            <path fill="#000" d="M51.06 43.472c.032.049.057.103.074.16.64.799.982 1.546.367 1.565-.574.017-1.261 1.107-1.426 1.383a.592.592 0 0 0 .02.062s.806-1.426 1.462-1.445c.655-.02.225-.868-.497-1.725z" opacity=".1"/>
            <path fill="#FFD037" d="M51.989 43.59c0 .185-.034.335-.076.335-.041 0-.075-.15-.075-.335 0-.184.042-.098.083-.098.042 0 .068-.087.068.098zM51.772 44.152c-.176.16-.33.256-.343.216-.013-.04.119-.203.295-.362.176-.16.106-.044.12 0 .013.044.106-.013-.072.146z"/>
            <path fill="#0DA176" d="M49.082 43.472s-.362.508.166 1.275c.528.768.964 1.417.787 1.895 0 0-.796-1.426-1.445-1.446-.648-.02-.221-.867.492-1.724z"/>
            <path fill="#000" d="M49.09 43.472a.64.64 0 0 0-.075.16c-.64.799-.982 1.546-.366 1.565.573.017 1.262 1.107 1.426 1.383a.484.484 0 0 1-.02.062s-.806-1.426-1.46-1.445c-.656-.02-.227-.868.495-1.725z" opacity=".1"/>
            <path fill="#FFD037" d="M48.23 43.59c0 .185.034.335.075.335.042 0 .075-.15.075-.335 0-.184-.042-.098-.083-.098-.042 0-.068-.087-.068.098zM47.927 44.152c.176.16.33.256.343.216.013-.04-.119-.203-.295-.362-.177-.16-.106-.044-.12 0-.014.044-.104-.013.072.146z"/>
            <path fill="#A8A8A8" d="M48.722 46.254s.97-.03 1.262-.236c.293-.206 1.49-.45 1.564-.12.075.33 1.458 1.64.363 1.649-1.095.009-2.544-.169-2.836-.344-.292-.176-.353-.949-.353-.949z"/>
            <path fill="#000" d="M51.931 47.427c-1.095.01-2.544-.177-2.836-.361-.22-.14-.31-.645-.34-.877h-.033s.062.812.353.996c.291.185 1.741.371 2.836.362.316-.003.426-.12.42-.293-.045.105-.165.173-.4.173z" opacity=".2"/>
            <ellipse cx="27.744" cy="45.509" fill="#0DA176" opacity=".1" rx="20.075" ry="2.491"/>
            <path fill="url(#a)" fill-rule="nonzero" d="M42.236 21.478a1.596 1.596 0 0 1-.17-.55s-.286-.155-.172-.638c.115-.483-.325-.747-.325-.747 0-.003-.113-.54-.113-.809 0-.27-.325-.674-.325-.674s.056-.566-.135-.9c-.19-.333-.574-.986-1.053-1.2 0 0-1.017-1.583-1.32-1.707 0 0-.323-.24-.383-.517a.854.854 0 0 1 0-.108v-.048c.157-.147.321-.358.326-.427a3.42 3.42 0 0 1 .185-.946l.037-.093c.013-.03.03-.072.048-.107.098-.2.231-.386.293-.6l.012-.049c.075-.32-.015-.667-.189-.946-.183-.295-.452-.525-.735-.727a3.268 3.268 0 0 0-.932-.494c-.34-.104-.708-.125-1.04-.008-.334.117-.623.369-.966.46-.144.038-.297.046-.436.103-.279.115-.456.402-.516.7a.987.987 0 0 0-.022.212c.001.07.014.14.04.206.029.097.105.172.202.198l.03.008.04.008a2.063 2.063 0 0 0-.218.924 2.06 2.06 0 0 0 1.44 1.969 3.223 3.223 0 0 1 .11.31c-.248.14-1.366.78-1.636 1.099a3.148 3.148 0 0 0-.217-1.222c-.203-.482-.589-.905-1.086-1.058-.283-.086-.58-.085-.867-.145-.226-.046-.441-.13-.666-.177-.09-.02-.18-.03-.272-.032a2.39 2.39 0 0 0-.496-.413c-.177-.12-.362-.236-.569-.287-.349-.089-.713.014-1.074.053-.378.041-.743-.057-1.116-.036-.327.014-.65.072-.961.175a1.376 1.376 0 0 0-.222.104l.014-.021.016-.03.01-.022a.71.71 0 0 0 .028-.1v-.01a.427.427 0 0 0 .005-.058.62.62 0 0 0-.01-.144c-.031-.162-.113-.308-.186-.456-.074-.147-.135-.307-.122-.472 0-.013 0-.027.005-.04a.434.434 0 0 1 .01-.047v-.004a.477.477 0 0 1 .029-.093l.018-.046.02-.046.022-.047.044-.093c.015-.03.025-.057.037-.082l.007-.015a2.34 2.34 0 0 0 .062-.173c0-.006.004-.011.006-.017.017-.057.032-.114.043-.172v-.019c.01-.058.015-.117.017-.176V9.94a.866.866 0 0 0-.064-.337c-.095-.226-.288-.393-.488-.534-.134-.095-.285-.186-.452-.182-.194.004-.364.138-.556.165a.826.826 0 0 1-.367-.046c-.268-.086-.515-.23-.784-.313a1.93 1.93 0 0 0-.797-.077c-.113.013-.23.04-.31.119-.08.08-.108.205-.152.313a.908.908 0 0 1-.327.408c-.16.11-.35.165-.519.263-.14.082-.269.21-.305.364a.24.24 0 0 0-.007.049.258.258 0 0 0 0 .042c.009.075.022.149.04.222v.013c.024.172-.042.352-.138.5-.073.116-.17.23-.202.359l-.122.03h-.422a.114.114 0 0 0-.113.115v.067c-.418.164-.827.35-1.225.56 0 0-.948 1.27-1.049 1.444a.404.404 0 0 0-.03.104c-.186.058-.4 1.645-.4 1.645s.27.41.571.793c.119.352.469.632.481 1.1.018.708 0 1.85 0 1.85s.269 1.748.076 2.543c-.193.795.035 1.936.092 2.384.057.449.1 1.474 0 1.98-.1.505-.144 1.286 0 1.012v.114c.003.24.007.79 0 1.043-.01.327.105.944 0 1.175-.105.23-.124 1.214-.124 1.349.022.341-.03.683-.153 1.002-.192.481 0 2.293 0 2.293s-.592 1.29-.41 1.54c.18.251-.337.173-.337.173s-.113 1.234-.67 1.83c-.557.598-1.493 4.798-1.36 5.858 0 0-.401.402-.44.5-.026.069-.016.658-.007 1.003a.394.394 0 0 0-.127.202 24.98 24.98 0 0 0-.297 1.513s-.182.549.996.597c1.177.048 1.158-.154 1.158-.154s-.019-.946.039-1.114c.057-.167.056-.804.056-.813.027.003.054.01.08.02.21.095.516-.288.363-.656-.153-.368.421-2.331.421-2.331s1.608-3.114 1.608-4.432c0-.096.632-.867.71-1.367.059-.344.155-.68.286-1.003 0 0 .268 1.33 0 1.85-.267.52-.594 4.586-.344 4.99.249.405-.154 1.021-.211 1.137-.058.115-.134 1.445-.134 1.445h.126l-.05 1.07s2.077-.028 2.43.155c.354.182 2.509.172 2.509.172s.995-.376.44-.761c-.555-.386-1.55-.424-1.55-.424s-.826-1.15-.98-1.198c-.104-.032-.265-.166-.41-.136.023-.225.07-.448.142-.663.325-1.079.19-5.24.19-5.24s.25-.444.25-.868.383-.79.383-.79 1.11-4.624 1.356-5.684c.22-.935.514-2.17.382-2.977 0-.007 0-.013-.004-.019.022-.607.035-1.395-.033-1.584-.113-.319-.314-1.966-.314-1.966s-.038-.16-.076-.376l.974.33c.07.275.143.553.063.74l-.012.03c-.086.202-.17.412-.078.78.047.214.074.432.08.652.014.287.012.583.015.793v4.085s-.015 1.85.119 2.86c.053.45.052.904-.005 1.352a7.501 7.501 0 0 1-.07.46c-.025.134-.044.213-.044.213a7.742 7.742 0 0 0-.22 2.904c.187 1.604-.05 1.3-.05 1.3s.022.694.093.81c.072.115-.092.607-.092.607s.062.057.16.13a2.639 2.639 0 0 0-.054.75c.004.049.005.099.004.151v.067c-.124.419-.275.83-.452 1.229-.22.474.373 1.028.665 1.264a.519.519 0 0 0 .328.114h.375c.164 0 .319-.077.418-.21.16-.214.371-.551.353-.823-.024-.368-.288-1.065-.367-1.264a.478.478 0 0 0 .002-.05 1.425 1.425 0 0 0-.073-.374l-.117-.614-.017-.088a.562.562 0 0 0 .048-.093s-.13-.693 0-.881c.13-.188.876-2.847.876-3.93 0 0 .546-1.099.589-1.995 0 0 0-1.373.215-1.922.215-.55.474-2.153.474-2.153l.117 1.503.098 2.6s-.215.911 0 1.215c.215.303.144 1.17.144 1.17l-.158 3.035s-.014.506-.072.621c-.058.115-.09 1.588-.317 1.717 0 0 .035.027.093.068l-.056.078c-.134.215-.214.46-.234.714 0 .023-.004.044-.006.066a.5.5 0 0 0-.11.215.315.315 0 0 0 .037.216c-.099.213-.47 1.073-.194 1.332.231.216 1.03.154 1.44.105a.267.267 0 0 0 .233-.283 7.233 7.233 0 0 0-.102-.862l2.996.077c-.33.265-.744.662-.744.662s-.56.49-.84.599c-.28.108-.465.542-.082.578.383.036 1.869.057 1.869.057l.052-.008c.005.09.057.168.202.194.36.065 3.633-.419 3.633-.419s-.004-.122-.013-.287c.545.057 1.32.049 1.717-.075.527-.164 1.263-.616 1.263-.616v-.148c0-.09 0-.203-.004-.328-.005-.189-.017-.38-.044-.43-.11-.239-.2-.486-.268-.74a.683.683 0 0 0 .464-.272s-.484-.424-.345-.517c.14-.093.187-.52.187-.52s-.383-.925-.005-2.158c.38-1.233.005-4.393-.187-4.641-.191-.248-.076-.735-.076-.735.268-.443-.263-1.753-.263-1.753s.205-2.274.052-2.477c-.153-.204.075-.957.075-.957.12-.15.218-.316.29-.495.054.107.124.206.207.29 0 0 .026-.086.06-.229a.77.77 0 0 0 .057.058s.23-.76.211-1.53c-.02-.771-.076-2.299-.076-2.299l-.004-.186.808-1.049s.747-.762.75-1.462a.284.284 0 0 0 .07-.064c.213-.162.088-.473-.056-.746zM31.49 23.374l.034.237a1.527 1.527 0 0 1-.143-.317l.112.075-.003.005zm6.563-9.606a.97.97 0 0 0 .15-.105l-.142.15a.095.095 0 0 0-.008-.045zm-11.468-1.3c-.03.026-.057.053-.084.082-.271.304-.358.77-.702.988-.097.062-.208.099-.303.162-.232.155-.33.434-.392.714 0-.02.004-.04.006-.061a4.645 4.645 0 0 0-.048.23.923.923 0 0 0-.01.308c.01.142.06.27.19.303.066.017.136 0 .203.013.13.025.213.148.237.282v.015-.004c0 .016.005.032.006.048v.01c-.02.134-.059.264-.113.388l-.003-.014a1.64 1.64 0 0 0-.04.123.357.357 0 0 0-.014.183.207.207 0 0 0 .023.102.254.254 0 0 0 .183.115.509.509 0 0 0 .26-.023.582.582 0 0 0-.057.204.695.695 0 0 0-.523.501 7.289 7.289 0 0 1-.166.502c-.007-.234-.024-.402-.057-.468-.17-.345-.344-1.085-.344-1.085v-.678c0-.417-.757-.706-.764-.709.03-.24.08-.477.15-.708l.019-.057a2.186 2.186 0 0 0 1.985-1.44l.017-.053a.528.528 0 0 0 .226.045.408.408 0 0 0 .115-.018zm-1.434 9.389c0-.45-.05-.943-.05-.943l.02-.268c.279-.251.553-.509.67-.62a.69.69 0 0 0 .056-.057c.078.065.13.157.148.258.027.124.03.253.006.378-.038.24.062.563.13.932.043.22.06.444.05.667l-1.03-.347zm5.2 20.96c.05-.526.2-1.037.446-1.503.402-.751.904-3.41.904-3.41s.13-1.156.086-1.893c-.026-.46.068-1.758.175-2.746l.05.332c0 .037.377 1.646.497 2.356v3.279c0 .187-.04.372-.116.543l-.37.835c-.133.3-.137.644-.01.947.06.146.095.276.04.292a.882.882 0 0 0-.138.058.329.329 0 0 0-.061-.049l-1.219 1.012-.358.05v-.046a.239.239 0 0 0 .077-.057h-.003zm4.82 1.638l-.048-.215-.013-.058.113.01s-.316-1.475-.1-2.096c.045-.151.075-.306.09-.463.01-.09.02-.186.028-.287.094.287.176.584.125.649-.1.13-.012.867.016.91.027.043.214.287.085.496-.13.21-.113.852-.113.852l.087.008a1.96 1.96 0 0 0-.27.194zm1.61-.32c-.01-.016-.018-.032-.026-.048.183-.067.461-.044.461-.044s-.43-1.601-.301-1.948c.13-.347-.546-3.7-.876-4.466-.33-.766.113-2.904.113-2.904l.721-1.936.598 2.007c-.096.557.096 1.755.383 2.044.287.289.23.674.113.828-.116.155.057 1.58.057 1.58s.038 1.464-.057 1.984.057.733.249.964c.192.23-.21.212-.44.432s0 .493 0 .493l.084-.007c.04.108.066.22.077.334a.202.202 0 0 1-.057.144c-.153.135-.402.8-.621.964-.025.019-.057.043-.087.071-.013 0-.027.006-.044.01a3.822 3.822 0 0 1-.35-.502h.003zm-16.116-31.04c.36-.063.697-.222.976-.462h.549c.057.13.127.253.208.369l-.014.038a1.47 1.47 0 0 1-.11.218s-.621.01-.975.213a.67.67 0 0 0-.103.073c-.239.207-.714.209-.933.197l-.128-.081-.023.105-.014.011.008-.97.56.29zm6.73 29.699v.15a.872.872 0 0 1 0-.15zm-.007.091l.017.148c0-.056-.006-.105-.01-.15l-.007.002z"/>
            <path fill="#D38884" d="M24.543 21.731l2.244.76-.449 1.335-2.244-.76z"/>
            <path fill="#4C4981" d="M39.91 27.616s.326.632-.29 1.456c0 0-.218.744-.073.947.145.202-.05 2.462-.05 2.462s.503 1.302.25 1.743c0 0-.11.484.072.73.181.247.536 3.387.177 4.614-.359 1.226.004 2.145.004 2.145s-.045.42-.177.517c-.131.096.327.517.327.517a.614.614 0 0 1-.73.23c-.472-.173-1.833-.058-1.833-.058s-.217-.27 0-.49c.218-.218.599-.2.417-.43-.182-.229-.326-.44-.235-.957.09-.517.054-1.973.054-1.973s-.163-1.417-.054-1.57c.108-.153.163-.537-.11-.824-.271-.287-.453-1.477-.362-2.031l-1.016-3.58-1.995-3.448 2.931-.446 2.692.446z"/>
            <path fill="#FEBFBA" d="M37.895 14.564v2.19h-3.078l-.08-.214s.302-.803.704-1.245c.2-.22.107-.624-.038-.976a4.35 4.35 0 0 0-.345-.657s2.776-1.672 2.636-.654c-.031.218-.04.438-.029.657.034.59.23.899.23.899z"/>
            <path fill="#000" d="M37.89 13.025c-.033.229-.042.46-.03.69a2.24 2.24 0 0 1-2.319.688 4.612 4.612 0 0 0-.353-.692s2.846-1.756 2.701-.686z" opacity=".1"/>
            <path fill="#FEBFBA" d="M38.346 11.998c0 .824-.493 1.568-1.252 1.884a2.024 2.024 0 0 1-2.213-.44 2.043 2.043 0 0 1-.44-2.222 2.03 2.03 0 0 1 3.905.778z"/>
            <path fill="#000" d="M35.643 14.943l-.862 1.4-.495 3.77v3.089l.11 1.101 2.044.15.908-3.11.697-3.183.752-.654-1.779-2.054s-.343.49-.73.775a.325.325 0 0 1-.396-.005.34.34 0 0 1-.107-.387c.11-.293.21-.62.133-.697a.79.79 0 0 0-.367-.192" opacity=".1"/>
            <path fill="#E6E8EC" d="M35.192 14.943l-.862 1.4-.495 3.77v3.089l.11 1.101 2.043.15.91-3.11.696-3.183.752-.654-1.779-2.054s-.343.49-.73.775a.325.325 0 0 1-.396-.005.34.34 0 0 1-.107-.387c.11-.293.21-.62.133-.697a.79.79 0 0 0-.367-.192"/>
            <path fill="#000" d="M38.346 28.528h1.804l-.241-1.26-.038-.551-.874.59z" opacity=".1"/>
            <path fill="#E6E8EC" d="M38.346 28.075h1.804l-.241-1.26-.038-.55-.874.59z"/>
            <path fill="#000" d="M35.602 14.49s-1.698.962-1.756 1.26c-.057.296-.463 2.334-.463 2.334v1.84l1.679-.63-.096-2.517.597-1.503s.14-.494.04-.783z" opacity=".1"/>
            <path fill="#FF718D" d="M35.602 14.49s-1.698.962-1.756 1.26c-.057.296-.463 2.334-.463 2.334v1.84l1.679-.63-.096-2.517.597-1.503s.14-.494.04-.783z"/>
            <path fill="#000" d="M40.245 27.781c.018.772-.208 1.533-.208 1.533-.282-.274-.52-1.086-.606-1.487-.142.494-1.277 1.383-1.277 1.383v.27c-.056.752-2.429.231-2.429.231l.151-9.69s.188-1.834-.057-2.387c-.244-.554-.169-1.55-.169-1.55s.226-.406.47-.54c.245-.136 1.614-1.464 1.656-1.506-.003.055-.003.11 0 .165.035.486.377.517.377.517.3.124 1.3 1.711 1.3 1.711.47.214.847.869 1.035 1.202.188.334.132.901.132.901s.32.406.32.676.113.81.113.81l-.942 2.237.057 3.224s.058 1.528.077 2.3z" opacity=".1"/>
            <path fill="#FF718D" d="M40.246 27.328c.019.772-.207 1.533-.207 1.533-.283-.274-.521-1.086-.607-1.487-.142.494-1.276 1.383-1.276 1.383v.27c-.057.752-2.43.231-2.43.231l.013-.79v-.075l.137-8.824s.188-1.834-.057-2.387c-.244-.554-.169-1.55-.169-1.55s.226-.406.47-.541c.245-.135 1.614-1.464 1.656-1.506-.003.055-.003.11 0 .166.035.485.377.517.377.517.3.124 1.3 1.71 1.3 1.71.47.214.847.87 1.035 1.203.188.334.132.901.132.901s.32.406.32.676.113.81.113.81l-.834 1.985-.105.25.056 3.225s.057 1.528.076 2.3z"/>
            <path fill="#000" d="M40.15 44.525s-.743.473-1.274.644c-.53.172-1.726.13-2.17 0-.297-.087-.14-.387.063-.627.086-.102.181-.196.284-.279.222-.172.473-.866.628-1.007.154-.141-.049-.635-.049-.635s.357-.442.53-.503c.174-.06 1.033.453 1.033.453l.627.11c-.068.091.222.847.28.957.027.053.039.253.044.45.007.22.004.437.004.437z" opacity=".1"/>
            <path fill="#626696" d="M40.15 44.525s-.743.473-1.274.644c-.53.172-1.726.13-2.17 0-.297-.087-.14-.387.063-.627.086-.102.181-.196.284-.279.222-.172.473-.866.628-1.007.154-.141-.049-.635-.049-.635s.357-.442.53-.503c.174-.06 1.033.453 1.033.453l.627.11c-.068.091.222.847.28.957.027.053.039.253.044.45.007.22.004.437.004.437z"/>
            <path fill="#000" d="M40.15 44.71s-.743.357-1.274.487c-.53.13-1.726.099-2.17 0-.297-.066-.14-.293.063-.474.524.075 2.349.01 2.349.01l1.028-.356c.007.169.004.332.004.332zM38.797 44.377s-.86-.672-1.285-.378c-.426.294 1.285.378 1.285.378z" opacity=".1"/>
            <path fill="#4C4981" d="M32.52 33.962v4.998c0 .182-.04.363-.118.53l-.382.812c-.137.292-.14.626-.01.922.058.142.097.268.04.284-.137.038-.471.23-.471.23s1.902 2.191 2.608 1.647c.706-.545.373-4.167.373-4.167s.04-3.19.079-3.247c.038-.056.098-1.802.098-1.802l-2.218-.207z"/>
            <path fill="#000" d="M38.346 14.19l-1.893 1.206h-.814s.244-.359.509-.478c.264-.12 1.743-1.296 1.79-1.333a.284.284 0 0 0 0 .147c.065.245.408.458.408.458z" opacity=".1"/>
            <path fill="#FF718D" d="M38.346 14.19l-1.893 1.206h-.814s.244-.359.509-.478c.264-.12 1.743-1.296 1.79-1.333a.284.284 0 0 0 0 .147c.065.245.408.458.408.458z"/>
            <path fill="#000" d="M38.346 12.061c0 .576-.239 1.128-.662 1.524v-.028c.02-.331-.041.004.06-.344.028-.097-.042-.204-.112-.28-.069-.075-.197-.106-.276-.04-.078.067-.072.196-.147.267-.094.088-.263.025-.326-.087-.064-.112-.056-.248-.052-.376.003-.129 0-.268-.087-.366-.086-.098-.207-.128-.27-.228-.093-.15.011-.354-.052-.517-.06-.15-.239-.218-.402-.21-.38.018-.754.271-1.139.12-.151-.059-.26-.212-.407-.267a.938.938 0 0 0-.188-.044 2.133 2.133 0 0 1 2.385-1.174 2.106 2.106 0 0 1 1.672 2.05h.003z" opacity=".1"/>
            <path fill="#36123A" d="M33.875 11.233a.693.693 0 0 1-.018-.409c.062-.29.242-.576.528-.686.142-.057.297-.064.445-.1.352-.09.64-.335.984-.45.344-.116.719-.095 1.063.007.343.11.664.274.952.484.287.197.56.423.748.71.187.288.278.649.18.975-.063.21-.198.392-.299.587-.176.347-.246.736-.275 1.123-.01.117-.511.655-.604.55-.07-.078-.064-.194-.059-.298.02-.319-.04.003.059-.33.028-.094-.042-.197-.11-.27-.068-.072-.195-.101-.27-.038-.077.064-.072.189-.146.256-.093.085-.259.024-.322-.083-.062-.108-.054-.238-.05-.362.004-.123 0-.258-.086-.352-.085-.094-.204-.123-.265-.219-.091-.143.01-.34-.052-.497-.059-.143-.234-.21-.396-.202-.373.018-.741.261-1.12.116-.149-.057-.255-.204-.4-.256-.202-.076-.382-.008-.487-.256z"/>
            <path fill="#000" d="M33.825 43.925l-4.624-.123c-.28-.158-.35-.324-.323-.473.05-.276.435-.492.435-.492l1.228-.172 1.184-1.005c.19.115.24.46.24.46s1.516 1.052 1.72 1.09c.103.019.138.198.147.372.005.114.003.229-.007.343z" opacity=".1"/>
            <path fill="#626696" d="M33.825 43.925l-4.624-.123c-.28-.158-.35-.324-.323-.473.05-.276.435-.492.435-.492l1.228-.172 1.184-1.005c.19.115.24.46.24.46s1.516 1.052 1.72 1.09c.103.019.138.198.147.372.005.114.003.229-.007.343z"/>
            <path fill="#000" d="M33.825 43.925l-4.624-.093c-.28-.12-.35-.247-.323-.36l4.954.192c.005.087.003.174-.007.26z" opacity=".1"/>
            <g fill="#000" opacity=".1">
                <path d="M37.604 13.352c.024-.056.044-.115.058-.175.028-.097-.041-.203-.11-.278-.067-.075-.193-.105-.269-.04-.076.066-.071.195-.145.264-.092.088-.257.025-.32-.086-.062-.11-.054-.246-.05-.373.004-.127 0-.266-.085-.363-.085-.097-.203-.127-.264-.227-.091-.148.01-.35-.052-.513-.058-.148-.233-.216-.394-.209-.371.019-.738.27-1.115.12-.148-.058-.254-.21-.399-.265-.205-.076-.383-.006-.487-.264a.74.74 0 0 1-.018-.422l.011-.05c-.03.073-.054.148-.07.226a.74.74 0 0 0 .018.426c.104.257.282.187.487.264.145.054.25.205.399.264.377.15.744-.1 1.115-.12.159-.007.338.06.394.21.062.163-.039.364.052.513.059.1.189.137.264.226.075.089.089.234.085.363-.003.13-.012.263.05.374.063.11.228.175.32.086.074-.07.068-.198.145-.264.077-.067.202-.035.27.04.068.074.136.178.11.273zM37.66 13.829c-.07-.082-.064-.201-.06-.308a.629.629 0 0 0 0-.163c-.098.34-.039.01-.058.338-.006.107-.012.227.059.308.093.109.592-.447.601-.569 0-.021.004-.043.006-.065-.133.2-.474.546-.549.459zM38.535 12.101a2.26 2.26 0 0 0-.144.378 2.13 2.13 0 0 1 .085-.202c.1-.203.234-.39.298-.607a.654.654 0 0 0 .012-.049c-.069.166-.171.32-.251.48z"/>
            </g>
            <path fill="#000" d="M32.481 39.396s.097.4.38.45c.285.05-.38-.45-.38-.45zM32.481 41.707s.206.026.41 0c.203-.025-.41 0-.41 0zM38.346 37.584s.265.04.424-.34c.158-.382-.424.34-.424.34zM39.7 35.32s-.545.307-.438.435c.108.127.437-.434.437-.434zM39.248 36.226c.043-.029.365-.222.443-.415.078-.193-.443.415-.443.415z" opacity=".1"/>
            <path fill="#B15885" d="M27.068 44.065l-.433.17-.65.142-.57-.199-.152-.455s.254-.798.263-1.358c0-.052 0-.102-.003-.148a2.534 2.534 0 0 1 .13-1.01h.91l.098.505.116.604c.041.119.066.242.074.368a.316.316 0 0 1-.017.109.098.098 0 0 0-.005.026c-.002.1.007.2.027.297v.004c.067.382.212.945.212.945zM29.765 44.377l-1.344-.186s.072-.292.13-.688c.023-.148.043-.312.057-.48.018-.251.09-.494.21-.709a.969.969 0 0 1 .146-.2l.8.2s.007.172.01.385c.003.32 0 .736-.048.826l-.003.007c-.072.163.042.845.042.845z"/>
            <path fill="#000" d="M27.09 42.566l-.009-.453.066.144a.639.639 0 0 1-.042.25.2.2 0 0 0-.015.059zM27.068 43.657l-.433.146-.65.122-.57-.17-.152-.39s.254-.684.263-1.163l.032-.089-.116 1.168a.24.24 0 0 0 .084.202c.06.054.145.085.233.084l.842-.01a.341.341 0 0 0 .23-.089.238.238 0 0 0 .077-.203l-.05-.417c.065.328.21.809.21.809z" opacity=".1"/>
            <path fill="#626696" d="M25.814 42.113a9.99 9.99 0 0 1-.502 1.34c-.226.473.385 1.027.686 1.262a.548.548 0 0 0 .338.115h.387c.17 0 .33-.077.432-.21.164-.213.381-.55.363-.82-.03-.433-.402-1.322-.402-1.322l.004.238.08.764a.309.309 0 0 1-.079.24.326.326 0 0 1-.236.106l-.862.012a.326.326 0 0 1-.24-.1.308.308 0 0 1-.085-.239l.116-1.386z"/>
            <path fill="#000" d="M26.536 41.208l.08.322c-.199.278-.68.044-.902-.086.018-.08.044-.16.078-.236h.744zM30.226 42.545c-.251.102-.766-.199-.903-.283a.751.751 0 0 1 .138-.149l.756.148s.006.126.009.284z" opacity=".1"/>
            <path fill="#E6E8EC" d="M31.746 32.01c-.126.267-.39 3.125-.349 3.843.042.718-.084 1.844-.084 1.844s-.488 2.59-.879 3.322a3.946 3.946 0 0 0-.432 1.465c-.28.31-1.144-.352-1.144-.352.223-.127.251-1.563.307-1.676.056-.112.07-.605.07-.605l.153-2.956s.07-.845-.14-1.14c-.209-.296 0-1.183 0-1.183l-.095-2.534-.112-1.464s-.251 1.562-.46 2.097c-.21.535-.21 1.873-.21 1.873-.041.873-.572 1.942-.572 1.942 0 1.056-.725 3.647-.85 3.83-.126.183 0 .858 0 .858-.28.69-1.234-.183-1.234-.183s.16-.478.09-.591c-.07-.113-.09-.788-.09-.788s.229.295.048-1.267a7.572 7.572 0 0 1 .213-2.83s.247-.985.116-1.97c-.13-.986-.116-2.788-.116-2.788v-2.215l.233-.432s5.26-.83 5.65-.323c.06.097.098.206.112.32.186 1.005-.115 3.67-.225 3.903z"/>
            <path fill="#000" d="M31.579 34.868s-.433.272-.451.453c0 0 .408-.269.45-.453zM31.128 35.883s-1.255.841-1.805-.11c.574.35 1.213.388 1.805.11z" opacity=".1"/>
            <path fill="#000" d="M29.774 36.166s1.15.34 1.354 0h-1.354zM26.617 34.815s-.337.255-.452.102l.452-.102zM26.617 35.251s-.441.062-.451.135c-.01.074.45-.135.45-.135zM26.165 28.588s2.465-.026 2.886.172c.421.198.723-.232.723-.232L29.1 30.34s-.288-2.086-2.816-1.305l-.119-.447z" opacity=".1"/>
            <path fill="#1E1637" d="M26.002 14.345c-.06.1-.12.228-.06.326.025.032.052.062.08.09.036.05.06.107.07.168.071.298.086.633-.074.89-.074.12-.182.216-.243.344-.085.178-.065.39-.034.588.029.246.097.485.202.707a.94.94 0 0 0 .518.48c.132.041.292.054.37.173.085.13.036.345.164.428.088.058.203.011.298-.036.132-.065.277-.147.321-.292.028-.092.012-.2.065-.278.043-.062.12-.094.163-.16a.346.346 0 0 0 .038-.141l.08-.63a.68.68 0 0 0 .007-.174c-.018-.145-.122-.258-.218-.364-.153-.169-.301-.355-.357-.58-.085-.349.07-.708.095-1.067a.58.58 0 0 0-.016-.212.7.7 0 0 0-.158-.24c-.07-.085-.15-.16-.238-.223-.202-.13-.42-.102-.645-.1-.225.001-.309.106-.428.303z"/>
            <path fill="#B15885" d="M25.714 19.607l-.232.421-.058.056c-.262.237-1.302 1.174-1.442 1.199-.16.028-.974-1.225-.974-1.225l1.225-1 .05-.04 1.431.589zM30.226 18.245l-1.82.754s-1.791.223-1.23-.81c.078-.143.138-.295.179-.453.232-.894-.178-1.753-.178-1.753s2.112-1.955 1.845-.503c-.133.726.166 1.414.5 1.923.201.309.438.591.704.842z"/>
            <ellipse cx="27.97" cy="14.943" fill="#000" opacity=".1" rx="1.805" ry="1.811"/>
            <ellipse cx="27.97" cy="14.943" fill="#B15885" rx="1.805" ry="1.811"/>
            <path fill="#000" d="M30.226 18.603l-1.82.846s-1.791.25-1.23-.908c.078-.16.138-.33.179-.508a1.61 1.61 0 0 0 1.025.696c.723.088.86-.553 1.141-1.069.202.346.439.663.705.943zM25.714 19.52l-.21.357-.054.048-.29-.23-.8-.628.01-.014.044-.034zM32.03 28.075c-.511.211-1.346.273-1.666.285-.464.018-.973.035-1.938.474-.964.44-2.26-.245-2.26-.245v-.106l.227-.404s5.144-.777 5.526-.303c.06.09.097.193.111.3z" opacity=".1"/>
            <path fill="#FFCDE5" d="M32.478 27.581c-.076.573-1.696.706-2.182.725-.486.019-1.019.038-2.03.515-1.01.478-2.367-.266-2.367-.266v-.078c0-.224.003-.881 0-1.339v-.378c0-.208 0-.5-.014-.787a3.516 3.516 0 0 0-.076-.645c-.091-.364-.008-.573.078-.773l.012-.029c.09-.21-.014-.534-.09-.84a2.72 2.72 0 0 1-.057-.526c-.005-.176 0-.313 0-.313.171-.42.138-.83.071-1.195-.066-.365-.167-.687-.128-.924a.948.948 0 0 0-.006-.374.431.431 0 0 0-.147-.256l-.317-.276-.864-.755s.174-.315.37-.766a8.822 8.822 0 0 0 .373-1.01c.266-.916 1.696-.381 1.696-.381.019 1.641 1.467 1.813 1.467 1.813.915.096.953-.744 1.405-1.221.452-.477 2.082.744 2.082.744s.012.443-.009 1.035a12.53 12.53 0 0 1-.146 1.578c-.068.401-.165.772-.302 1.031a2.524 2.524 0 0 0-.263 1.326 3.066 3.066 0 0 0 .15.772l.133.297c.114.258.286.658.468 1.095.1.246.203.504.298.754.138.365.258.715.33.987.05.206.078.366.065.46z"/>
            <path fill="#FF90C9" d="M31.579 18.882a10.64 10.64 0 0 1-.141 1.427c-.15.034-.303.054-.458.06-.233.006-.464-.039-.697-.044-.25-.007-.5.032-.75.046-.5.028-1-.039-1.496-.104l-.467-.064a3.792 3.792 0 0 1-.382-.065c-.105-.025-.207-.06-.311-.09a6.043 6.043 0 0 0-1.142-.197.385.385 0 0 0-.141-.23l-.306-.251-.42-1.206a2.65 2.65 0 0 1-.056-.17c.12-.256.227-.519.318-.786.068.205.153.406.254.6.06.12.134.235.223.34.218.243.54.378.86.48.827.258 1.702.342 2.57.422.281.031.565.046.849.046.22-.005.441-.03.662-.052a7.878 7.878 0 0 0 1.03-.162zM31.128 22.254a2.676 2.676 0 0 0-.154.924h-.006c-.193.083-.378.192-.579.252-.215.054-.437.08-.658.077-.331.01-.663.02-.994.027-1.014.026-2.048.042-3.02-.246-.006-.18 0-.322 0-.322.17-.432.137-.855.07-1.23.1.05.205.128.25.15.181.088.369.162.56.222.501.156 1.026.21 1.551.236.853.042 1.708.028 2.56-.04.14-.007.28-.024.42-.05zM31.579 25.552l-.255.051a5.956 5.956 0 0 0-.691.176c-.206.071-.404.164-.613.236-.491.172-1.015.217-1.534.237a16.785 16.785 0 0 1-2.66-.109 3.628 3.628 0 0 0-.073-.648c-.089-.365-.008-.574.076-.776.235.018.495.093.63.115.426.07.854.154 1.288.16.262-.001.523-.016.784-.046l.643-.06c.199-.016.397-.043.593-.081.19-.042.375-.105.563-.158.26-.072.529-.125.79-.196.114.258.284.66.459 1.099zM32.481 26.733a5.596 5.596 0 0 0-.966.369c-.238.122-.466.268-.717.37a4.26 4.26 0 0 1-.859.22c-.561.099-1.126.186-1.693.262-.84.107-1.706.189-2.532.042 0-.209.003-.823 0-1.251.302-.06.713-.015.968-.005.594.021 1.18.13 1.771.096.3-.023.6-.064.895-.124l1.677-.303a.879.879 0 0 0 .263-.076c.074-.046.142-.1.202-.16.183-.16.416-.264.645-.362.15.34.271.667.346.922z"/>
            <path fill="#000" d="M31.107 25.363c.157-.029.315.092.472.06-.055.126-.17.144-.268.165a2.003 2.003 0 0 0-.316.108c-.041.017-.28.15-.31.106-.071-.106.358-.428.422-.44zM31.307 26.305c-.078.047-.15.1-.217.16-.12.093-.262.16-.413.197.159.085.359.07.502-.036a.503.503 0 0 1 .134-.093c.04-.014.086-.013.126-.028.053-.021.165-.142.135-.201-.038-.075-.214-.026-.267 0zM30.264 23.651c.048.081.129.081.196.12.044.03.087.064.127.104.166.139.363.163.54.067-.066-.154-.144-.315-.26-.371-.095-.048-.199-.013-.298.014a.354.354 0 0 1-.233.007c-.064-.028-.167-.1-.072.06zM26.243 12.757c-.268.296-.354.749-.693.961-.095.06-.205.096-.299.158-.276.181-.36.54-.42.862-.04.204-.032.485.17.536.064.016.134 0 .2.013.17.03.255.225.24.397-.015.172-.098.323-.145.486a.29.29 0 0 0 .003.219c.04.062.106.103.18.112.226.04.457-.092.593-.277.136-.184.195-.412.243-.635.08-.37.136-.744.17-1.12.028-.324.042-.66.2-.946.156-.285.509-.495.812-.375.215.085.37.317.602.327.069.003.143-.015.203.019.043.03.076.072.095.12.246.488.465 1.02.406 1.562-.037.337-.182.669-.152 1.01.022.244.134.477.132.724-.002.246-.11.464-.18.694a2.183 2.183 0 0 0-.06 1 .658.658 0 0 0 .119.31.284.284 0 0 0 .3.106l.087.593a.254.254 0 0 0 .04.122c.105.134.315-.037.485-.018.063.224.301.359.532.404.23.046.471.029.701.077.217.046.42.148.64.174.529.062 1.054-.42 1.034-.949-.015-.367-.244-.688-.366-1.036-.34-.982.202-2.11-.16-3.086-.113-.311-.316-.585-.452-.888-.217-.483-.27-1.051-.613-1.457a2.29 2.29 0 0 0-.501-.414c-.175-.117-.357-.23-.561-.281-.344-.087-.704.013-1.056.051-.374.04-.733-.056-1.101-.035-.322.013-.64.07-.945.169-.184.062-.35.17-.483.311z" opacity=".1"/>
            <path fill="#1E1637" d="M26.243 12.757c-.268.296-.354.749-.693.961-.095.06-.205.096-.299.158-.276.181-.36.54-.42.862-.04.204-.032.485.17.536.064.016.134 0 .2.013.17.03.255.225.24.397-.015.172-.098.323-.145.486a.29.29 0 0 0 .003.219c.04.062.106.103.18.112.226.04.457-.092.593-.277.136-.184.195-.412.243-.635.08-.37.136-.744.17-1.12.028-.324.042-.66.2-.946.156-.285.509-.495.812-.375.215.085.37.317.602.327.069.003.143-.015.203.019.043.03.076.072.095.12.246.488.465 1.02.406 1.562-.037.337-.182.669-.152 1.01.022.244.134.477.132.724-.002.246-.11.464-.18.694a2.183 2.183 0 0 0-.06 1 .658.658 0 0 0 .119.31.284.284 0 0 0 .3.106l.087.593a.254.254 0 0 0 .04.122c.105.134.315-.037.485-.018.063.224.301.359.532.404.23.046.471.029.701.077.217.046.42.148.64.174.529.062 1.054-.42 1.034-.949-.015-.367-.244-.688-.366-1.036-.34-.982.202-2.11-.16-3.086-.113-.311-.316-.585-.452-.888-.217-.483-.27-1.051-.613-1.457a2.29 2.29 0 0 0-.501-.414c-.175-.117-.357-.23-.561-.281-.344-.087-.704.013-1.056.051-.374.04-.733-.056-1.101-.035-.322.013-.64.07-.945.169-.184.062-.35.17-.483.311z"/>
            <path fill="#000" d="M26.179 16.82c.042.153.17.254.254.384.096.15.133.335.102.515-.051.29-.272.559-.199.842.033.1.084.192.15.27.207.279.448.572.772.633a.28.28 0 0 0 .153-.007.321.321 0 0 0 .131-.117.914.914 0 0 0 .15-.677 3.242 3.242 0 0 1-.069-.326c-.018-.239.107-.457.21-.67.104-.213.19-.467.097-.683-.066-.153-.209-.248-.347-.323a3.251 3.251 0 0 0-.967-.338c-.152-.027-.225-.051-.334.086-.087.114-.144.267-.103.412z" opacity=".1"/>
            <path fill="#1E1637" d="M26.179 16.82c.042.153.17.254.254.384.096.15.133.335.102.515-.051.29-.272.559-.199.842.033.1.084.192.15.27.207.279.448.572.772.633a.28.28 0 0 0 .153-.007.321.321 0 0 0 .131-.117.914.914 0 0 0 .15-.677 3.242 3.242 0 0 1-.069-.326c-.018-.239.107-.457.21-.67.104-.213.19-.467.097-.683-.066-.153-.209-.248-.347-.323a3.251 3.251 0 0 0-.967-.338c-.152-.027-.225-.051-.334.086-.087.114-.144.267-.103.412z"/>
            <path fill="#000" d="M31.128 23.547a.421.421 0 0 1-.128-.06 1.11 1.11 0 0 1-.213-.205 3.134 3.134 0 0 1-.314-.416c-.102-.167-.261-.464-.246-.677.05-.008.152.065.198.096.07.058.13.13.179.214.074.107.159.201.254.282.063.048.124.102.182.16l.006.006c.01.203.038.404.082.6z" opacity=".1"/>
            <g fill="#000" opacity=".1">
                <path d="M26.15 15.87c-.136.186-.365.32-.59.28a.25.25 0 0 1-.18-.115.196.196 0 0 1-.02-.057c-.014.04-.028.08-.04.121a.304.304 0 0 0 .003.222.25.25 0 0 0 .18.114c.225.042.454-.093.59-.28.135-.187.194-.418.242-.645a8.99 8.99 0 0 0 .048-.245c-.047.215-.106.428-.234.604zM25.466 15.557a.991.991 0 0 0 .057-.235c.014-.17-.073-.372-.24-.402-.066-.012-.135.003-.2-.013-.183-.048-.205-.288-.178-.487a4.826 4.826 0 0 0-.048.228c-.038.207-.031.492.17.544.064.016.132 0 .198.013.15.028.237.194.241.352zM28.81 15.09c0 .025-.005.05-.008.074.029-.118.05-.238.065-.358.056-.55-.16-1.09-.404-1.585a.267.267 0 0 0-.094-.122c-.06-.034-.133-.017-.202-.02-.23-.01-.385-.245-.6-.331-.303-.122-.653.092-.809.38-.086.171-.14.356-.16.546.025-.09.06-.178.104-.26.155-.289.507-.503.808-.381.215.086.37.322.6.332.07 0 .143-.015.203.02.042.03.075.072.094.121.244.495.462 1.034.404 1.585zM31.5 20.077c-.219-.026-.421-.13-.637-.176-.23-.05-.468-.032-.698-.078-.23-.047-.467-.182-.53-.411-.168-.02-.378.154-.482.019a.26.26 0 0 1-.04-.124c-.03-.2-.058-.401-.087-.602a.28.28 0 0 1-.299-.107.676.676 0 0 1-.12-.315 2.266 2.266 0 0 1-.011-.667c-.082.31-.098.635-.045.953a.676.676 0 0 0 .12.314.28.28 0 0 0 .299.107l.087.602a.26.26 0 0 0 .04.124c.104.136.313-.038.482-.019.063.228.3.364.53.41.23.047.468.03.698.079.215.046.418.15.637.176.511.06 1.015-.4 1.028-.915-.147.387-.558.679-.972.63zM28.848 16.563c0-.25-.113-.486-.132-.735a1.338 1.338 0 0 1 .014-.311 1.952 1.952 0 0 0-.07.596c.021.249.133.485.132.735 0 .019 0 .037-.004.057.036-.11.056-.226.06-.342z"/>
            </g>
            <path fill="#000" d="M29.774 44.377l-1.353-.192s.072-.302.132-.712l-.02.356c-.005.089.054.166.133.173l.874.079a.133.133 0 0 0 .106-.038.173.173 0 0 0 .05-.113v-.28l.026-.178.01.027c-.072.172.042.878.042.878z" opacity=".1"/>
            <path fill="#626696" d="M28.741 43.472s-.54 1.282-.217 1.63c.234.256 1.046.183 1.463.125.143-.02.248-.167.238-.335-.023-.39-.075-1.054-.175-1.307l-.029.205v.323a.2.2 0 0 1-.057.129.146.146 0 0 1-.118.043l-.98-.09c-.088-.008-.154-.096-.149-.199l.024-.524z"/>
            <path fill="#985C7E" d="M28.631 14.328c-.027.247.097.48.167.718.123.418.083.867-.11 1.258-.077.152-.175.294-.23.456-.143.44.14.97.586 1.097.123.035.255.043.367.106.228.127.291.427.285.687-.005.26-.04.538.081.77.102.194.302.32.508.397.369.137.773.143 1.146.018a.909.909 0 0 0 .342-.192c.16-.153.226-.38.248-.601a2.012 2.012 0 0 0-.247-1.176c-.167-.297-.408-.546-.593-.83a2.78 2.78 0 0 1-.452-1.37c-.014-.248.006-.5-.044-.743a1.34 1.34 0 0 0-.582-.85c-.145-.092-.308-.155-.45-.253-.14-.097-.21-.26-.37-.232-.29.042-.622.471-.652.74z"/>
            <g fill="#000" opacity=".1">
                <path d="M28.818 15.968a1.75 1.75 0 0 0 .05-1.129c-.07-.238-.193-.473-.166-.72 0-.008.003-.018.004-.026a.673.673 0 0 0-.063.2c-.026.248.097.483.167.721.091.311.094.641.008.954zM31.843 19.458a.908.908 0 0 1-.341.193 1.719 1.719 0 0 1-1.147-.018c-.206-.078-.407-.205-.507-.4-.121-.233-.084-.51-.081-.773.003-.262-.058-.562-.285-.69-.112-.063-.245-.071-.368-.106-.42-.12-.694-.599-.606-1.023a1.34 1.34 0 0 0-.037.095c-.144.442.14.975.585 1.103.123.034.256.043.367.106.229.128.291.429.286.69-.006.262-.04.54.08.773.102.195.302.322.508.4.369.136.773.143 1.146.017a.908.908 0 0 0 .342-.192.813.813 0 0 0 .214-.406.713.713 0 0 1-.156.23z"/>
            </g>
            <path fill="#FFD2C6" d="M34.737 44.633l-.518.197-1.287-.413.209-.506.18-.44 1.185.095.106.49zM36.992 44.535l-.704.295-.806-.158-.18-.504-.114-.316s1.479-.559 1.236-.322c-.097.095-.024.275.097.457.137.194.295.377.471.548z"/>
            <path fill="#000" d="M34.737 43.925l-1.35-.088s0-.009-.004-.025l.167-.34 1.087.074.1.379z" opacity=".1"/>
            <path fill="#CEDDF9" d="M36.662 31.928l-.144.081-1.882 1.052.143 5.836s.029 1.616-.082 2.52a2.365 2.365 0 0 1-.09.454c-.213.609.1 2.054.1 2.054l-1.52-.114s-.062-.496-.005-.824c.057-.327-.328-2.406-.328-2.406s-.314-2.96-.456-3.045c-.143-.085-.343-1.076-.343-1.402 0-.327-.527-2.55-.53-2.592-.002-.042-.285-1.784-.285-2.068 0-.283-.182-2.11-.083-2.563.039-.177.094-.414.146-.635.08-.344.155-.653.155-.653s4.976.325 5.39.99a.82.82 0 0 1 .095.257c.202.914-.281 3.058-.281 3.058z"/>
            <path fill="#000" d="M36.929 30.792l.063 1.192-.032.083-1.964 1.073.149 5.95s.03 1.648-.086 2.57c-.099-.357-.297-.847-.287-.895.015-.072-.878-2.137-1.25-2.527-.372-.39-.59-1.33-.59-1.33s.055-1.934.263-2.194c.208-.26.572-3.494.572-3.494l3.162-.428zM36.541 43.8a.378.378 0 0 0-.185.065c-.073.072-.662.064-1.052.051l-.116-.201s1.502-.357 1.255-.206c-.098.06-.024.174.098.29z" opacity=".1"/>
            <path fill="#CEDDF9" d="M33.65 31.183s-.25 3.22-.457 3.47c-.207.251-.26 2.12-.26 2.12s.215.905.585 1.281c.37.377 1.257 2.37 1.242 2.44-.015.07.429 1.087.325 1.212-.103.126-.013.837.016.878.03.042.22.274.088.479-.133.204-.119.822-.119.822s1.198.121 1.301-.06c.104-.181.621-.142.621-.142s-.443-1.545-.31-1.88c.133-.334-.562-3.567-.902-4.306-.34-.739.118-2.802.118-2.802l1.065-2.676.03-1.227-3.342.39z"/>
            <path fill="#4C4981" d="M31.128 22.189l1.18.804.173 1.828v1.601l-.154.748-1.046-.076.038-2.962z"/>
            <path fill="#000" d="M31.128 22.189l1.18.804.173 1.828v1.601l-.154.748-1.046-.076.038-2.962z" opacity=".1"/>
            <path fill="#FFD2C6" d="M30.677 17.02s1.628 1.431 1.537 3.193c-.091 1.763 1.616-.811 1.616-.811l.456-1.268s-2.023-1.027-1.805-2.356c.219-1.33-1.804 1.241-1.804 1.241z"/>
            <ellipse cx="31.128" cy="15.849" fill="#000" opacity=".1" rx="1.805" ry="1.811"/>
            <ellipse cx="31.128" cy="15.849" fill="#FFD2C6" rx="1.805" ry="1.811"/>
            <path fill="#000" d="M31.549 19.019s-.48.546-.634.546c-.155 0 .132 2.18-.144 2.6-.277.42.144 1.227.144 1.227l.112 2.151s-.297 2.383-.256 2.486c.04.104.426 0 .426 0l.168-2.399s-.053-1.643.018-2.022c.07-.38-.048-1.698.082-2.007.13-.309.113-.935.113-.935l-.03-1.647z" opacity=".1"/>
            <path fill="#4C4981" d="M31.549 19.019s-.48.546-.634.546c-.155 0 .132 2.18-.144 2.6-.277.42.144 1.227.144 1.227l.112 2.151s-.297 2.383-.256 2.486c.04.104.426 0 .426 0l.168-2.399s-.053-1.643.018-2.022c.07-.38-.048-1.698.082-2.007.13-.309.113-.935.113-.935l-.03-1.647z"/>
            <path fill="#000" d="M36.992 28.875c-.674.056-2.769.218-3.166-.02-.445-.267-1.875-.426-2.247-.577l.15-.655s4.775.327 5.172.994c.044.08.075.167.091.258z" opacity=".1"/>
            <path fill="#F86280" d="M37.444 28.405s-2.953.278-3.436 0c-.483-.278-2.108-.436-2.348-.593-.24-.157.118-1.578.259-1.88.14-.304.306-.51.284-.637-.021-.128.06-.372.112-.5l.187-.464s-.147-.13 0-.504.02-.088-.407-.644c-.426-.555-.155-2.055-.155-2.055l.089-2.11.395.426.47.504.724.772.984.278.966 1.092.984 2.049s.096.495.25 1.075c.072.27.157.556.252.822.297.831.39 2.369.39 2.369z"/>
            <path fill="#000" d="M36.992 25.526c-.695.27-1.615 1.013-1.96 1.338-.445.418-1.257.398-1.199 0 .058-.398-1.121-3.243-1.121-3.243a12.305 12.305 0 0 0-.564-1.834c-.347-.877.17-2.065.29-2.315l.49.529.753.81 1.024.29 1.005 1.147 1.024 2.15s.098.52.258 1.128z" opacity=".1"/>
            <path fill="#4C4981" d="M32.86 18.376l-.414 1.078s-.68 1.372-.301 2.354c.228.593.41 1.204.546 1.827 0 0 1.143 2.833 1.087 3.23-.056.397.731.416 1.163 0 .43-.416 1.785-1.524 2.41-1.425.626.1.995-.192.995-.192s-1.138-1.52-1.081-2.164c.056-.644-.45-2.19-.45-2.19s-.225-1.692-.385-2.105c-.16-.412-.698-1.212-1.085-1.122-.386.09-1.567-.007-1.567-.007l-.918.716z"/>
            <path fill="#000" d="M35.188 36.68s-.319.344-.434.42c-.116.078.394.04.434-.42zM35.64 37.132s-1.407.357-1.353.443c.055.087 1.352-.443 1.352-.443zM35.188 37.585s-.583.427-.423.452c.16.025.423-.452.423-.452zM32.775 27.17s-.74.056.127.345c.866.29 1.384-.096 1.384-.096l-1.51-.25z" opacity=".1"/>
            <ellipse cx="32.256" cy="21.057" fill="#FFF" rx="1" ry="1"/>
            <ellipse cx="33.609" cy="21.057" fill="#FFF" rx="1" ry="1"/>
            <ellipse cx="33.158" cy="23.321" fill="#FFF" rx="1" ry="1"/>
            <ellipse cx="33.609" cy="24.679" fill="#FFF" rx="1" ry="1"/>
            <path fill="#FFF" d="M32.932 21.174h.898l.864-.344.043.131-.846.322h-.912z"/>
            <path fill="#4C4981" d="M32.481 19.29l.897.182.005-1.812-.536.468z"/>
            <path fill="#000" d="M30.623 14.734a.699.699 0 0 1 .313-.004c.12.041.23.107.323.195.241.195.5.419.555.734.055.314-.116.677.017.973.094.214.336.36.339.595 0 .097-.04.189-.069.28-.153.492.055 1.019.257 1.49.056.202.22.348.417.373l.278.08a.313.313 0 0 0 .154.02c.127-.03.173-.192.19-.328.014-.186.044-.371.09-.552.054-.178.158-.347.317-.432.318-.166.688.07 1.041.077.08.006.161-.014.23-.058.165-.116.136-.399 0-.555-.135-.155-.328-.227-.508-.32a1.785 1.785 0 0 1-.473-.353.898.898 0 0 1-.203-.315c-.06-.174-.042-.364-.031-.548.03-.523-.005-1.06-.199-1.542-.193-.482-.561-.904-1.036-1.058-.267-.086-.553-.085-.827-.145-.214-.046-.42-.13-.635-.176-.215-.047-.447-.054-.644.048-.277.144-.428.472-.689.648-.15.1-.349.165-.41.34-.074.21.095.45.024.661-.023.069-.07.126-.099.192-.028.067-.035.155.016.204a.171.171 0 0 0 .09.04c.232.046.394-.092.527-.268.146-.188.431-.255.645-.296z" opacity=".1"/>
            <path fill="#000" d="M35.318 17.663a.472.472 0 0 0-.377.348c-.091.293-.23.85-.15 1.316.116.667.22 1.305.22 1.305v1.13s.026 1.087.181 1.363c.156.275-.608 2.653-.608 2.653l-.7 2.215s-1.063 2.71-.091 2.797c.971.087.848-2.503.848-2.503l1.134-2.213.61-1.444c.115-.692.167-1.397.155-2.101-.014-1.232-.066-2.27-.066-2.27s-.272-1.919-.583-2.267c-.206-.232-.381-.35-.573-.33z" opacity=".1"/>
            <path fill="#FFD2C6" d="M35.318 17.663a.472.472 0 0 0-.377.348c-.091.293-.23.85-.15 1.316.116.667.22 1.305.22 1.305v1.13s.026 1.087.181 1.363c.156.275-.608 2.653-.608 2.653l-.7 2.215s-1.063 2.71-.091 2.797c.971.087.848-2.503.848-2.503l1.134-2.213.61-1.444c.115-.692.167-1.397.155-2.101-.014-1.232-.066-2.27-.066-2.27s-.272-1.919-.583-2.267c-.206-.232-.381-.35-.573-.33z"/>
            <path fill="#985C7E" d="M31.075 14.734a.699.699 0 0 1 .312-.004c.12.041.23.107.323.195.241.195.5.419.555.734.055.314-.116.677.017.973.095.214.336.36.339.595 0 .097-.04.189-.068.28-.154.492.054 1.019.256 1.49.056.202.22.348.418.373l.277.08a.313.313 0 0 0 .154.02c.127-.03.174-.192.19-.328.014-.186.044-.371.09-.552.055-.178.158-.347.317-.432.318-.166.688.07 1.041.077.08.006.161-.014.23-.058.165-.116.136-.399 0-.555-.135-.155-.328-.227-.508-.32a1.785 1.785 0 0 1-.472-.353.898.898 0 0 1-.204-.315c-.059-.174-.041-.364-.031-.548.03-.523-.005-1.06-.198-1.542-.194-.482-.562-.904-1.037-1.058-.267-.086-.553-.085-.827-.145-.214-.046-.42-.13-.635-.176-.215-.047-.447-.054-.644.048-.277.144-.428.472-.689.648-.15.1-.348.165-.41.34-.074.21.096.45.024.661-.023.069-.07.126-.099.192-.028.067-.034.155.017.204a.171.171 0 0 0 .088.04c.233.046.395-.092.529-.268.145-.188.43-.255.645-.296z"/>
            <g fill="#000" opacity=".1">
                <path d="M35.385 18.038c-.378-.008-.773-.244-1.11-.077a.65.65 0 0 0-.289.3.559.559 0 0 1 .17-.129c.339-.167.734.07 1.11.077a.419.419 0 0 0 .246-.058.267.267 0 0 0 .111-.17.427.427 0 0 1-.238.057zM33.635 19.275a.354.354 0 0 1-.164-.018l-.297-.081a.716.716 0 0 1-.285-.126.694.694 0 0 1-.16-.248c-.217-.472-.437-1.001-.274-1.494a.87.87 0 0 0 .074-.28c-.004-.237-.261-.384-.363-.598-.142-.297.043-.652-.018-.976-.06-.323-.335-.54-.592-.736a.997.997 0 0 0-.344-.195.814.814 0 0 0-.334.004c-.229.041-.533.108-.685.297-.142.177-.315.315-.563.269a.192.192 0 0 1-.095-.04c-.054-.05-.048-.138-.018-.204.03-.067.066-.232-.01-.02-.025.07-.076.127-.106.193-.031.067-.037.155.017.205.028.021.06.035.095.04.248.046.421-.092.564-.27.151-.188.455-.255.684-.296a.814.814 0 0 1 .334-.004.997.997 0 0 1 .344.194c.257.197.533.42.592.737.06.316-.123.678.018.976.102.214.36.36.363.597a.87.87 0 0 1-.074.28c-.163.493.058 1.022.274 1.494.034.094.09.178.16.249a.716.716 0 0 0 .285.125l.297.082a.354.354 0 0 0 .164.018c.094-.02.146-.104.175-.199a.176.176 0 0 1-.058.025z"/>
            </g>
            <path fill="#CC8294" d="M34.168 44.466s-.742-.401-.814-.529c-.07-.127-1.115.747-1.115.747s-.547.418-.82.51c-.272.092-.453.462-.08.493.375.03 1.824.049 1.824.049l1.247-.141.778-.121-.147-1.008s-.808.139-.873 0z"/>
            <path fill="#CC8294" d="M36.07 44.378s-.633-.567-.893-.433c-.26.134-.871.716-.871.716s-.577.458-.732.56c-.155.104-.338.452 0 .51.338.057 3.418-.374 3.418-.374s-.038-1.071-.142-1.087c-.103-.016-.554.224-.78.108z"/>
            <path fill="#000" d="M40.496 21.977l.057 3.131-1.44 1.84-.338.468s-1.028 2.081-2.346 1.444c-.228-.109-.325-.251-.337-.412a.445.445 0 0 1 0-.072c.067-.783 1.977-1.932 1.977-1.932s1.383-2.38 1.478-2.423c.095-.041.53-1.308.53-1.308l.19-.908c.11-.03.222-.054.335-.07l-.106.242z" opacity=".1"/>
            <path fill="#FEBFBA" d="M39.683 21.382l-.184.905s-.422 1.26-.514 1.302C38.893 23.63 37.554 26 37.554 26s-2.862 1.773-1.588 2.408c1.274.634 2.271-1.438 2.271-1.438l.327-.466 2.22-2.917s1.064-1.097.605-1.843c-.458-.747-1.706-.362-1.706-.362z"/>
            <path fill="#000" d="M40.58 19.1l.525.365s.446.254.33.713c-.117.46.174.603.174.603.024.183.083.36.175.522.155.283.29.603 0 .744-.292.141-2.136.142-2.136.142s.136-.117-.29-.607c-.428-.49-.913-1.059-.952-1.405-.04-.346-.563-1.278-.505-1.535.058-.257-.019-1.196-.005-1.438.014-.242.277-.91.51-.851.232.06 1.068-.39 1.611.603.544.993.563 2.144.563 2.144z" opacity=".1"/>
            <path fill="#FF718D" d="M40.58 19.1l.525.365s.446.254.33.713c-.117.46.174.603.174.603.024.183.083.36.175.522.155.283.29.603 0 .744-.292.141-2.136.142-2.136.142s.136-.117-.29-.607c-.428-.49-.913-1.059-.952-1.405-.04-.346-.563-1.278-.505-1.535.058-.257-.019-1.196-.005-1.438.014-.242.277-.91.51-.851.232.06 1.068-.39 1.611.603.544.993.563 2.144.563 2.144z"/>
            <path fill="#D38884" d="M24.21 13.04a2.945 2.945 0 0 0-.392.853c-.332 1.137-.13 2.409-.13 2.409l-1.662-.808s-1.351-1.257-.59-1.84c.254-.185.453-.444.572-.747.073-.18.103-.375.089-.57 0 0 2.957-.523 2.112.704z"/>
            <path fill="#000" d="M24.215 13.112a3.416 3.416 0 0 0-.374.926h-.044c-.676 0-1.309-.401-1.692-1.072.07-.195.099-.408.085-.62 0 0 2.835-.568 2.025.766z" opacity=".1"/>
            <path fill="#D38884" d="M26.165 11.77a2.261 2.261 0 0 1-1.945 2.246 2.256 2.256 0 0 1-2.481-1.63 2.27 2.27 0 0 1 .706-2.334 2.249 2.249 0 0 1 2.408-.335c.799.369 1.311 1.17 1.312 2.054z"/>
            <path fill="#000" d="M26.164 11.869c0 .276-.046.55-.136.81h-.004c-.158-.079-.281-.215-.4-.35l-.548-.616c-.11-.124-.238-.258-.403-.26-.082 0-.168.032-.24-.005-.074-.037-.104-.137-.139-.218a.682.682 0 0 0-.62-.4c-.132 0-.247.022-.316.14-.089.155-.153.31-.283.434a.652.652 0 0 1-.534.204.177.177 0 0 0-.144.013.148.148 0 0 0-.04.08c-.04.158-.028.325-.055.486-.026.16-.108.33-.256.382a.347.347 0 0 1-.307-.062 2.426 2.426 0 0 1 .706-2.432 2.178 2.178 0 0 1 2.408-.35c.799.385 1.311 1.22 1.312 2.14v.004z" opacity=".1"/>
            <path fill="#1E1637" d="M24.33 11.212c.032.08.056.174.132.213.075.039.153.005.231.006.157 0 .282.132.389.253l.528.6c.114.13.233.263.386.34.152.075.348.082.477-.032.13-.114.157-.302.125-.474-.031-.171-.114-.321-.185-.476-.07-.155-.135-.322-.121-.493.012-.158.087-.302.15-.443.149-.33.244-.72.11-1.058-.094-.236-.285-.41-.485-.558-.134-.1-.286-.194-.448-.19-.193.004-.362.143-.553.172a.791.791 0 0 1-.366-.048c-.266-.09-.514-.242-.78-.327a1.832 1.832 0 0 0-.793-.08c-.115.013-.229.04-.308.124-.08.083-.109.213-.152.327a.947.947 0 0 1-.325.427c-.16.114-.35.172-.515.275-.165.102-.32.274-.314.479.01.082.025.164.043.245a.819.819 0 0 1-.138.524c-.104.17-.253.352-.206.548.033.14.154.231.243.34.109.13.175.294.28.428.104.135.273.242.43.182.142-.05.22-.215.246-.371.026-.157.015-.32.052-.473a.153.153 0 0 1 .04-.079c.037-.032.09-.02.138-.012.191.018.38-.054.515-.198.124-.121.187-.275.273-.423.065-.114.176-.137.303-.136a.657.657 0 0 1 .597.388z"/>
            <g fill="#000" opacity=".1">
                <path d="M21.647 10.373c-.02-.052-.059-.104-.085-.156a.159.159 0 0 0-.027.095.866.866 0 0 0 .106.222.236.236 0 0 0 .006-.16zM26.442 10.573c-.064.137-.138.273-.15.424a.551.551 0 0 0 .005.134c.03-.135.079-.264.145-.384.11-.237.192-.507.171-.762-.022.205-.08.404-.17.588zM26.472 12.377c-.128.11-.324.103-.476.03-.152-.072-.27-.2-.384-.324l-.527-.574c-.106-.116-.228-.24-.387-.243-.078 0-.16.03-.23-.005-.07-.034-.1-.127-.133-.203a.657.657 0 0 0-.596-.373c-.126 0-.237.021-.302.13-.086.146-.148.29-.272.405a.636.636 0 0 1-.513.19c-.047-.007-.101-.02-.138.011a.14.14 0 0 0-.04.075c-.036.148-.025.303-.051.453-.026.15-.104.308-.246.355-.156.053-.324-.048-.429-.173-.104-.126-.17-.286-.278-.41-.087-.101-.203-.188-.24-.314a.314.314 0 0 0-.002.162c.032.134.153.221.242.325.108.124.174.282.278.41.105.128.273.231.429.173.142-.047.22-.205.246-.354.026-.15.015-.306.052-.453a.14.14 0 0 1 .039-.075c.037-.03.09-.019.138-.012a.636.636 0 0 0 .513-.19c.124-.115.186-.262.272-.404.065-.11.176-.13.302-.13a.657.657 0 0 1 .596.372c.034.076.057.167.133.204.075.037.152.004.23.005.157 0 .281.126.387.242l.527.574c.114.124.232.252.384.325.152.073.348.08.476-.03.114-.1.151-.27.13-.424a.407.407 0 0 1-.13.25z"/>
            </g>
            <path fill="#4C4981" d="M20.366 44.146l-.065 1.294s2.027-.026 2.372.14c.345.165 2.447.156 2.447.156s.972-.339.43-.687c-.541-.347-1.513-.382-1.513-.382s-.804-1.025-.953-1.068c-.149-.044-.42-.287-.588.043-.168.33-.633.66-.633.66l-1.497-.156z"/>
            <path fill="#C4E0FF" d="M24.865 30.357c-.239 1.041-1.305 5.583-1.305 5.583s-.368.36-.368.776c0 .416-.239.852-.239.852s.13 4.088-.184 5.147c-.3 1.022-.022.971 0 .966l-.897.756-1.655.019s.074-1.306.129-1.42c.055-.113.441-.719.202-1.116-.239-.397.074-4.39.331-4.902.258-.51 0-1.817 0-1.817a4.89 4.89 0 0 0-.276.985c-.073.492-.68 1.249-.68 1.343 0 1.294-1.544 4.353-1.544 4.353s-.552 1.93-.404 2.29c.147.36-.148.738-.35.644-.201-.095-1.82 0-1.82 0s-.036-1.136 0-1.23c.038-.096.423-.493.423-.493-.128-1.04.772-5.166 1.306-5.753.533-.586.64-1.797.64-1.797s.497.076.323-.17c-.174-.247.394-1.514.394-1.514s-.184-1.78 0-2.253c.119-.312.169-.648.147-.983 0-.133.019-1.099.12-1.326.1-.227-.01-.832 0-1.154.007-.248.003-.789 0-1.022v-.113l.137-.89.625-1.665 2.28.549 1.71.34s.973 1.041 1.249 1.798c.033.095.058.193.073.292.126.793-.154 2.007-.367 2.925z"/>
            <path fill="#4C4981" d="M16.944 44.418s-1.165-.112-1.3.446c-.134.559-.296 1.594-.296 1.594s-.181.578.994.629c1.176.05 1.157-.163 1.157-.163s-.02-.995.038-1.172c.057-.178.057-.858.057-.858s-.198-.689-.65-.476z"/>
            <path fill="#000" d="M25.714 27.29c-.015.428-.037.785-.037.785s-.824.014-.806-2.068c0 0-.183 1.582-.384 1.622-.2.041-.287-.243-.975-.202-.688.04-1.563-.284-1.663-.609-.1-.324-1.319-1.216-1.505-1.176-.187.04-.23.703-.23.703s-.573.39-.716.65v-.11l.144-.846.65-1.586 2.37.523 1.778.324s1.013.991 1.3 1.712c.034.09.059.184.074.278z" opacity=".1"/>
            <path fill="#FFD765" d="M25.214 28.075s-.794.015-.777-2.167c0 0-.177 1.657-.37 1.7-.194.042-.277-.255-.94-.213-.664.043-1.507-.297-1.604-.637-.097-.34-1.272-1.275-1.452-1.233-.18.043-.22.737-.22.737s-.554.41-.692.68c-.138.27-.097-.496 0-.992s.055-1.502 0-1.94c-.055-.44-.277-1.56-.09-2.339.188-.779-.072-2.493-.072-2.493s.018-1.12 0-1.814-.778-.963-.391-1.7 1.396-1.615 1.396-1.615.705.085 1.01-.184a.637.637 0 0 1 .099-.072c.34-.2.94-.208.94-.208l1.022 1.07s.503 1.094.539 1.36a.157.157 0 0 1 0 .035l.175-1.052s.736.283.736.695v.665s.166.723.332 1.063c.165.34-.083 3.67-.083 3.67s.096 1.034.013 1.459c-.082.425.127 1.318.127 1.318s.191 1.615.302 1.926c.11.312 0 2.281 0 2.281z"/>
            <path fill="#000" d="M23.008 30.34s-.246 1.564-.684 2.263c-.438.7-1.121 2.265-1.121 2.265" opacity=".1"/>
            <rect width="3.158" height="1.358" x="20.752" y="11.321" fill="#3A3768" rx=".679"/>
            <ellipse cx="23.233" cy="12" fill="#E6E8EC" rx="1" ry="1"/>
            <path fill="#FFD765" d="M20.298 16.569s-1.15.351-1.55.088c-.399-.264-1.154-1.405-1.154-1.405s.218-1.607.41-1.666c.19-.058.093 1.522.093 1.522s.273.61.375.61c.102 0 .804-.087.892-.263.087-.176.233-1.259.233-1.259l.117-.526.585.365.453 1.125-.454 1.409z"/>
            <path fill="#D38884" d="M18.945 15.847a.838.838 0 0 1-.899-.864c.026-.543.075-1.288.14-1.397.105-.173 1.094-1.44 1.094-1.44s3.13-1.599 2.801-.346c-.33 1.253-1.618 1.412-1.618 1.412l-.584-.288-.015 1.814s-.131 1.054-.92 1.109z"/>
            <path fill="#000" d="M19.413 33.962s-.115.339.306.44c.42.102-.306-.44-.306-.44zM18.496 35.32s.056.74.369.891c.313.152-.369-.89-.369-.89zM21.24 37.132s-.183.276.266.428c.45.151-.266-.428-.266-.428zM21.204 36.68s-.044.347.45.452M20.752 38.943s.333.492.438.45c.104-.04-.438-.45-.438-.45zM23.91 44.836s-1.138-.077-.858.308c.28.385.858-.154.858-.154v-.154zM15.79 45.51s1.442-.51 1.349 0c-.094.509-1.35 0-1.35 0zM18.947 17.397s1.003.116 1.408-.117c.405-.232.526.15.242.333-.284.182-1.65-.216-1.65-.216zM19.398 18.25c.3.058.234.603.773.114.539-.488-.773-.114-.773-.114zM19.398 19.89s1.51.21 1.805-.418M23.91 15.808v.041l-2.707-2.073c.368-.183 1.018-.191 1.018-.191l1.107.98s.542.999.582 1.243z" opacity=".1"/>
            <path fill="#FFD765" d="M23.91 15.808v.041l-2.707-2.073c.368-.183 1.018-.191 1.018-.191l1.107.98s.542.999.582 1.243z"/>
            <path fill="#000" d="M18.947 16.755s1.768-.13 1.79-1.359c0 0 .3 1.377-1.79 1.359z" opacity=".1"/>
            <ellipse cx="23.684" cy="15.623" fill="#FFF" rx="1" ry="1"/>
        </g>
    </g>
</svg>
