<svg xmlns="http://www.w3.org/2000/svg" width="64" height="45" viewBox="0 0 64 45">
    <defs>
        <linearGradient id="a" x1="49.995%" x2="49.995%" y1="100.003%" y2="0%">
            <stop offset="0%" stop-color="gray" stop-opacity=".25"/>
            <stop offset="54%" stop-color="gray" stop-opacity=".12"/>
            <stop offset="100%" stop-color="gray" stop-opacity=".1"/>
        </linearGradient>
        <linearGradient id="b" x1="49.985%" x2="49.985%" y1="100%" y2=".005%">
            <stop offset="0%" stop-color="gray" stop-opacity=".25"/>
            <stop offset="54%" stop-color="gray" stop-opacity=".12"/>
            <stop offset="100%" stop-color="gray" stop-opacity=".1"/>
        </linearGradient>
    </defs>
    <g fill="none" fill-rule="evenodd">
        <path fill="#F6F6F6" d="M-721-201H719v2666H-721z"/>
        <path fill="#FFF" d="M-169 52.41v-62.82c0-1.983 1.719-3.59 3.84-3.59h493.32c2.121 0 3.84 1.607 3.84 3.59v62.82c0 1.983-1.719 3.59-3.84 3.59h-493.32c-2.121 0-3.84-1.607-3.84-3.59z"/>
        <g transform="translate(-2 -3)">
            <ellipse cx="23.757" cy="47.068" fill="#0DA176" opacity=".1" rx="5.573" ry="1"/>
            <ellipse cx="54.05" cy="47.093" fill="#0DA176" opacity=".1" rx="6.954" ry="1"/>
            <path fill="#0DA176" d="M3.537 22.643H9.34v7.886h-5.38l-.042.244H9.34v6.36l-.027-.01c-.153-.06-.306-.124-.458-.193l-.097-.044a11.642 11.642 0 0 1-.617-.314 9.514 9.514 0 0 1-2.28-1.777c-.02-.018-.038-.038-.058-.057a9.79 9.79 0 0 1-.271-.305l-.097-.114a10.006 10.006 0 0 1-.303-.39 8.48 8.48 0 0 1-1.027-1.83c-.008-.019-.014-.04-.022-.057a7.622 7.622 0 0 1-.282-.87 1.43 1.43 0 0 1-.021-.078c-.325-1.264-.363-2.577-.363-3.88v-.457c0-.527.006-1.058.015-1.588 0-.137.006-.274.009-.412a53.642 53.642 0 0 1 .056-1.509c.014-.203.025-.404.039-.605zM9.341 13.863H6.157a24.06 24.06 0 0 1 1.694-2.324c.473-.579.972-1.143 1.49-1.687v4.011zM9.341 14.107v8.292H3.555c0-.024.004-.048.006-.072a20.934 20.934 0 0 1 .036-.424l.024-.249.027-.249.028-.247.03-.248.028-.204c.013-.097.026-.194.041-.29 0-.014.004-.029.007-.042.104-.701.246-1.396.426-2.082.187-.72.427-1.424.717-2.11.309-.716.67-1.409 1.08-2.072l3.336-.003z" opacity=".1"/>
            <path fill="#0DA176" fill-rule="nonzero" d="M10.727 22.643v7.886h12.398v-7.886H10.727zm0 8.13v6.772c.07.015.141.029.211.04a6.645 6.645 0 0 0 .343.057c.038.007.077.012.115.017a6.094 6.094 0 0 0 .422.044l.11.009c.06.004.12.008.18.01.036 0 .072.003.11.004h.408c.049 0 .098 0 .147-.004h.003c.034 0 .068 0 .103-.005h.028c.029 0 .057 0 .085-.004h.02l.191-.015c.063-.005.127-.013.19-.02l.131-.015a11.44 11.44 0 0 0 1.57-.333c1.157-.322 2.288-.771 3.444-1.1 1.494-.426 3.145-.634 4.59-.115v-5.343H10.726zm12.398-16.91V3.364a15.987 15.987 0 0 0-4.028.47c-3.14.787-5.956 2.492-8.37 4.67v5.358h.622v.244h-.622v8.293h12.398v-8.293h-9.221v-.243h9.22zm15.924-3.546c-.777-.028-1.55-.273-2.247-.651-1.336-.724-2.403-1.842-3.594-2.786-2.477-1.965-5.548-3.15-8.699-3.445v10.428h17.698l.044-.046-3.202-3.5zm1.612-.285l1.71 1.87v-2.36c-.573.07-1.075.238-1.708.487l-.002.003zm1.71 29.195v-8.455h-3.643l-.031-.108.03.108H24.512v6.114c.134.1.268.205.4.312.142.114.283.234.424.352l.143.117c.068.057.136.114.206.168.137.111.275.22.415.328.07.057.14.109.21.162a28.675 28.675 0 0 0 4.36 2.744 27.406 27.406 0 0 0 1.422.68 31.581 31.581 0 0 0 10.278 2.647v-5.17h.057-.057zm-17.86-25.12v8.292h17.862v-8.293H24.512zm0 8.536v7.886h17.862v-7.886H24.512zM43.76 9.53v2.633l2.182-2.387a23.98 23.98 0 0 0-2.182-.249v.003zm0 13.115v7.883h17.372v-7.886l-17.372.003zm17.309 17.207l.06-9.08H43.76v13.714c1.119.047 2.24.033 3.357-.04h.02a27.797 27.797 0 0 0 1.594-.146h.012a29.429 29.429 0 0 0 8.19-2.178l4.136-2.27zM64.48 23.94a21.045 21.045 0 0 0-.61-1.295h-1.355v7.883h3.427c-.001-2.232-.568-4.513-1.46-6.59l-.002.002zm-1.965 6.834v7.81c.966-.922 1.781-1.977 2.369-3.184.706-1.452 1.03-3.025 1.056-4.627l-3.425.001zm0-10.427V22.4h1.229a22.217 22.217 0 0 0-1.227-2.055l-.002.003zm-11.781-9.27c-.09-.034-.18-.069-.272-.102a24.86 24.86 0 0 0-2.934-.88l-3.34 3.653-.063.068.043.047h11.883a25.445 25.445 0 0 0-5.316-2.789l-.001.003zM56.4 14.11H44.003l-.244.223v8.067h17.375v-3.908a24.722 24.722 0 0 0-4.732-4.385l-.002.003z" opacity=".1"/>
            <path fill="#0DA176" d="M9.341 18.29v4.11H3.555c0-.025.004-.05.006-.073a20.934 20.934 0 0 1 .036-.424l.024-.249.027-.249.028-.247.03-.248.028-.204c.013-.097.026-.194.041-.29 0-.014.004-.029.007-.042.104-.701.246-1.396.426-2.082l5.133-.002zM3.537 22.643H9.34v7.886h-5.38l-.042.244H9.34v6.36l-.027-.01c-.153-.06-.306-.124-.458-.193l-.097-.044a11.642 11.642 0 0 1-.617-.314 9.514 9.514 0 0 1-2.28-1.777c-.02-.018-.038-.038-.058-.057a9.79 9.79 0 0 1-.271-.305l-.097-.114a10.006 10.006 0 0 1-.303-.39 8.48 8.48 0 0 1-1.027-1.83c-.008-.019-.014-.04-.022-.057a7.622 7.622 0 0 1-.282-.87 1.43 1.43 0 0 1-.021-.078c-.325-1.264-.363-2.577-.363-3.88v-.457c0-.527.006-1.058.015-1.588 0-.137.006-.274.009-.412a53.642 53.642 0 0 1 .056-1.509c.014-.203.025-.404.039-.605zM15.091 15.294v7.105h-4.364v-7.105h.622v-2.406h2.554v2.406zM10.728 22.643h4.364v7.886h-4.364zM10.727 30.773h4.364v6.556a11.42 11.42 0 0 1-1.57.332l-.13.016c-.064.008-.128.014-.19.02-.063.006-.129.01-.192.015h-.02c-.027 0-.057.003-.084.004h-.03c-.034 0-.068.003-.102.004a3.12 3.12 0 0 1-.147.004h-.405l-.11-.004c-.058 0-.12-.006-.179-.01l-.11-.008-.136-.012a5.844 5.844 0 0 1-.286-.033l-.115-.016-.057-.008a8.57 8.57 0 0 1-.286-.049c-.07-.012-.14-.027-.211-.04l-.004-6.771zM38.774 14.455h3.599v7.944h-3.599zM42.373 22.643v7.886H24.512v-3.402h9.513v2.007h4.75v-6.491zM42.43 39.228h-.057v5.174a31.583 31.583 0 0 1-10.28-2.651 30.12 30.12 0 0 1-2.257-1.128 28.792 28.792 0 0 1-4.356-2.956c-.19-.156-.378-.315-.568-.47a12.804 12.804 0 0 0-.4-.312v-6.112h14.215l-.03-.109a3.4 3.4 0 0 1 .03.109h3.646v8.452c.02 0 .038.002.057.003zM51.758 13.863h-2.345v-.726h1.051v-2.164c.091.033.182.067.272.102v2.062h1.022v.726zM57.407 22.4H45.896l.004.002-.005-.003h-2.136v-7.944h.605v5.872h2.765V16.85h2.285v-2.743h2.345v2.745h2.284v3.477h3.364v2.07z" opacity=".1"/>
            <path fill="#0DA176" fill-rule="nonzero" d="M43.759 22.643v7.886h13.648v-7.886H43.76zm17.353 17.17l.02-6.243h-3.725v-2.794H43.76v13.71c1.119.048 2.24.034 3.357-.04h.02a27.797 27.797 0 0 0 1.594-.145h.012a29.429 29.429 0 0 0 8.19-2.178l4.18-2.31z" opacity=".1"/>
            <path fill="#0DA176" d="M62.759 30.773h3.184c-.028 1.601-.35 3.174-1.057 4.627-.587 1.207-1.403 2.262-2.367 3.184v-5.017h.24v-2.794zM65.945 30.529h-3.186v-6.59h1.724c.892 2.077 1.459 4.358 1.462 6.59zM40.445 16.663h1.928v2.491h-1.928zM40.445 21.826h1.928v1h-1.928z" opacity=".1"/>
            <path fill="#0DA176" d="M40.445 22.643h1.928v1.673h-1.928zM40.445 26.988h1.928v2.491h-1.928zM40.445 32.151h1.928v2.491h-1.928zM42.373 39.225c.02 0 .038 0 .057.003h-.057v.579h-1.928v-2.494h1.928v1.912zM42.373 42.475v1.924a31.913 31.913 0 0 1-1.928-.222v-1.702h1.928zM24.512 30.346h8.263v1h-8.263z" opacity=".1"/>
            <path fill="#0DA176" d="M24.512 30.772h8.263v1h-8.263zM24.512 33.772h8.263V34.9h-8.263zM32.774 37.198v1.128H26.31c-.28-.214-.558-.433-.832-.658-.19-.156-.377-.315-.568-.47h7.863zM32.774 40.624v1.126h-.683a30.483 30.483 0 0 1-2.255-1.128l2.938.002zM47.117 23.407h1.627v1.621h-1.627zM11.899 15.853h1.627v1.621h-1.627zM11.899 19.619h1.627v1.621h-1.627zM11.899 23.385h1.627v1.621h-1.627zM11.899 27.15h1.627v1.621h-1.627zM11.899 30.916h1.627v1.621h-1.627zM11.899 34.682h1.627v1.621h-1.627zM53.326 23.407h1.627v1.621h-1.627zM47.117 27.406h1.627v1.621h-1.627zM53.326 27.406h1.627v1.621h-1.627zM47.117 31.405h1.627v1.621h-1.627zM53.326 31.405h1.627v1.621h-1.627zM47.117 35.404h1.627v1.621h-1.627zM53.326 35.404h1.627v1.621h-1.627zM47.117 39.403h1.627v1.621h-1.627zM53.326 39.403h1.627v1.621h-1.627zM47.117 44.447V43.4h1.626v.897z" opacity=".1"/>
            <path fill="#0DA176" fill-rule="nonzero" d="M3.775 20.373v1H9.34v-1H3.775zm.554.937h-.454v-.876h.458l-.004.876zm.555 0h-.458v-.876h.458v.876zm.553 0h-.458v-.876h.458v.876zm.554 0h-.457v-.876h.457v.876zm.554 0h-.458v-.876h.458v.876zm.554 0H6.64v-.876H7.1v.876zm.554 0h-.458v-.876h.458v.876zm.554 0h-.458v-.876h.458v.876zm.553 0h-.457v-.876h.457v.876zm.554 0h-.458v-.876h.458v.876zM3.775 23.071v1H9.34v-1H3.775zm.554.937h-.454v-.873h.458l-.004.873zm.555 0h-.458v-.873h.458v.873zm.553 0h-.458v-.873h.458v.873zm.554 0h-.457v-.873h.457v.873zm.554 0h-.458v-.873h.458v.873zm.554 0H6.64v-.873H7.1v.873zm.554 0h-.458v-.873h.458v.873zm.554 0h-.458v-.873h.458v.873zm.553 0h-.457v-.873h.457v.873zm.554 0h-.458v-.873h.458v.873zM3.775 25.771v1H9.34v-1H3.775zm.554.935h-.454v-.872h.458l-.004.872zm.555 0h-.458v-.872h.458v.872zm.553 0h-.458v-.872h.458v.872zm.554 0h-.457v-.872h.457v.872zm.554 0h-.458v-.872h.458v.872zm.554 0H6.64v-.872H7.1v.872zm.554 0h-.458v-.872h.458v.872zm.554 0h-.458v-.872h.458v.872zm.553 0h-.457v-.872h.457v.872zm.554 0h-.458v-.872h.458v.872zM3.775 28.471v1H9.34v-1H3.775zm.554.938h-.454v-.876h.458l-.004.876zm.555 0h-.458v-.876h.458v.876zm.553 0h-.458v-.876h.458v.876zm.554 0h-.457v-.876h.457v.876zm.554 0h-.458v-.876h.458v.876zm.554 0H6.64v-.876H7.1v.876zm.554 0h-.458v-.876h.458v.876zm.554 0h-.458v-.876h.458v.876zm.553 0h-.457v-.876h.457v.876zm.554 0h-.458v-.876h.458v.876zM3.799 31.17c.022.095.047.189.073.282v-.219h.458v.876h-.245l.023.061H9.34v-1H3.8zm1.086.939h-.457v-.876h.457v.876zm.553 0h-.457v-.876h.457v.876zm.555 0h-.46v-.876h.458l.002.876zm.553 0H6.09v-.876h.457v.876zm.554 0h-.457v-.876H7.1v.876zm.555 0h-.458v-.876h.458v.876zm.553 0h-.457v-.876h.457v.876zm.554 0h-.458v-.876h.458v.876zm.553 0h-.457v-.876h.457v.876zM5.091 33.87l.043.062h.303v.42c.032.043.064.084.098.124v-.547h.457v.88h-.185c.018.02.036.041.057.061h3.479v-1H5.09zm1.454.939h-.458v-.876h.458v.876zm.554 0H6.64v-.876H7.1v.876zm.554 0h-.458v-.876h.458v.876zm.554 0h-.458v-.876h.458v.876zm.553 0h-.457v-.876h.457v.876zm.554 0h-.458v-.876h.458v.876z" opacity=".1"/>
            <path fill="#0DA176" d="M8.145 36.57c.052.03.105.057.159.086v-.028h.457v.256l.098.045v-.301h.457v.493a.143.143 0 0 0 .028.01v-.561h-1.2z" opacity=".1"/>
            <path fill="#0DA176" fill-rule="nonzero" d="M42.373 39.246h.1-.1zm-3.666-8.582c.02.036.035.073.053.108a1.459 1.459 0 0 0-.053-.108zM11.352 13.86v.244h2.554v-.244h-2.554zm31.02 25.385h.101-.1zm-3.665-8.582c.02.036.035.073.053.108a1.459 1.459 0 0 0-.053-.108zm3.666 8.58h.1-.1zm-3.666-8.58c.02.036.035.073.053.108a1.459 1.459 0 0 0-.053-.108z" opacity=".1"/>
            <path fill="url(#a)" fill-rule="nonzero" d="M29.145 25.007s-.225-.031-.225-.358c0-.327-.161-.939-.161-.939 0-.002-.14-1.064-.333-1.233-.192-.168-.44-1.16-.44-1.16s-.042-.537-.129-.652c-.086-.116-.203-.4-.375-.804s-.89-.684-.89-.684-1.298-.75-1.665-.995a.564.564 0 0 1-.093-.07c-.065-.083-.344-.085-.344-.085a5.588 5.588 0 0 1-.066-.586c0-.02 0-.04-.003-.061.41-.242.72-.623.87-1.073l.019-.066a.186.186 0 0 0 .111-.1c.034-.074.034-.16.075-.229.048-.08.14-.124.212-.185.182-.154.229-.413.22-.65-.006-.19-.036-.383-.024-.573l.003-.048a1.3 1.3 0 0 1 .013-.084c.028-.141.089-.275.123-.415.034-.14.038-.298-.042-.419-.117-.177-.362-.213-.576-.23-.243-.021-.46.005-.616-.196a2.19 2.19 0 0 0-.245-.295c-.032-.03-.343-.218-.343-.231a1.395 1.395 0 0 0-.97-.074c-.16.047-.313.123-.476.161-.353.083-.76-.007-1.06.195-.166.114-.266.295-.36.472-.076.145-.154.29-.232.436-.127.239-.255.481-.308.746a1.18 1.18 0 0 0-.021.174v.093c0 .02 0 .04.003.057.004.018.003.024.005.036l.008.057c.003.018.01.05.017.075l.01.031.02.057.013.03c.009.02.019.04.03.057l.012.023a.756.756 0 0 0 .052.076c.123.152.303.25.436.392v.064a1.95 1.95 0 0 0 .891 1.593c0 .022.003.044.004.066.011.169.01.339-.006.507a.24.24 0 0 0-.19-.084.275.275 0 0 0-.073.006l-.005-.004v.006c-.126.03-.281.16-.43.532 0 0-.45.506-.793.485-.343-.021-1.212.527-1.212.527s-.847.548-1.03 1.107a7.787 7.787 0 0 1-.364.928l-1.048 2.152-.193 1.707s.107.76.085.875c-.02.116.44 1.16.44 1.16s1.523 2.667 2.146 2.804l.044-.031a.366.366 0 0 0 .084.031l.128-.09c.008.1.005.201-.01.301-.085.263.033 1.982.183 2.32.15.336.096 4.754.096 4.754l-.021.39s0 .012.005.034l-.005.092.015.008c.016.124.011.25-.015.371-.054.171-.075.655-.075.655s-.429 2.73-.226 3.277c.203.549.376 1.15.376 1.15s.214.684.01.8c-.204.118-.784.314-.665.599.109.263.521.969.582 1.072l-.005.054-.084.908c.014.12.046.237.097.347.092.198.27.403.611.38.057-.003.124-.01.188-.019.623-.083 1.39-.36 1.39-.36a.566.566 0 0 1-.11-.09.312.312 0 0 1-.095-.228c.01-.165-.301-.953-.378-1.146l-.019-.044s.708-.738.59-1.392c0 0-.783-.456-.525-.706.258-.25.719-.97.719-.97s.021-2.687 0-3.089a3.313 3.313 0 0 1 .04-.834 2 2 0 0 1 .03-.122c.356.053.716.08 1.077.082.131 0 .265 0 .4-.008 0 .038.002.079.005.123.03.666.085 1.833.13 2.267.065.622.419 2.298.419 2.298s-.676.432.117 1.497c0 0 0 .386-.052.442a4.82 4.82 0 0 0-.136.556c-.033.201-.047.404.007.51.129.251.9.23.9.23l.02-.002c.294-.03.589.058.817.245.293.235 1.407.132 2.01.057.236-.03.394-.057.394-.057a.227.227 0 0 0 .008-.082c-.006-.148-.123-.471-.91-.76 0 0-.74-.496-.73-.928H26.953a.81.81 0 0 1 .103 0s-.29-1.055-.172-1.14c.119-.086-.236-1.255-.236-1.255s-.203-1.96-.214-2.098c0-.118.019-.235.053-.348l-.053-1.075s-.01-.357 0-.474c-.002-.1-.01-.201-.024-.301l-.016-.123c.277-.07.457-.135.457-.135l-.032-3.743c.236-.456.28-1.456.278-2.166 0-.456-.02-.793-.02-.793l.321-.524s.075-.627-.043-.765c-.052-.062-.029-.126.014-.18a.598.598 0 0 1 .07-.047l-.007-.013a.568.568 0 0 1 .072-.05s-.115-.177-.012-.252c.096.065.182.114.247.154a.927.927 0 0 1-.01.066l.028-.057.101.057s.505-1.002.494-1.15c-.011-.147.343-.77.343-.77s.043-.326.236-.463c.194-.137.15-1.128.15-1.128s.054-.516.182-.727c.13-.211-.117-.496-.117-.496zm-9.65-.44l.01.24-.1-.158.09-.081z"/>
            <path fill="#FFF" d="M27.885 29.308l-.124.524s-.99-.503-1.168-1.143c-.178-.64.299-.882.299-.882l.922.39.07 1.11z"/>
            <path fill="#000" d="M27.885 29.308l-.124.524s-.99-.503-1.168-1.143c-.178-.64.299-.882.299-.882l.922.39.07 1.11z" opacity=".1"/>
            <path fill="#FFF" d="M22.332 47.157s-.915.336-1.544.378c-.334.022-.51-.182-.6-.379a1.143 1.143 0 0 1-.095-.345l.082-.903.044-.481 1.336-.346.19.577.017.043c.076.193.381.977.372 1.14a.31.31 0 0 0 .094.226c.03.034.065.065.104.09zM28.582 46.698a.227.227 0 0 1-.008.081s-1.957.326-2.357 0a1.063 1.063 0 0 0-.824-.24s-.757.02-.883-.228c-.053-.104-.04-.307-.006-.506a4.81 4.81 0 0 1 .132-.554l.03-.024.18-.144 2.11-.062h.016c-.01.43.716.923.716.923.771.285.885.607.894.754z"/>
            <path fill="#000" d="M28.582 46.698a.232.232 0 0 1-.008.081s-1.957.326-2.357 0a1.063 1.063 0 0 0-.823-.24s-.758.02-.884-.228c-.052-.105-.04-.307-.006-.506.291.029.752.101.932.274.274.263.737.525 1.021.545.223.015 1.554.057 2.125.074zM22.332 47.157s-.915.336-1.544.378c-.334.022-.51-.182-.6-.38.233.079.556.16.726.086.201-.09.915-.147 1.316-.171.03.033.064.062.102.087z" opacity=".1"/>
            <path fill="#CF6F80" d="M23.69 20.145c-.755-.293-1.726-1.26-1.484-1.71.054-.115.086-.238.094-.363a3.3 3.3 0 0 0 .007-.513 7.004 7.004 0 0 0-.1-.835s2.356.053 2.219.4c-.04.1-.047.277-.036.474.011.197.04.42.07.609.04.259.082.456.082.456s-.144.201-.229.212c-.085.01.46 1.686-.623 1.27z"/>
            <path fill="#000" d="M21.76 45.701l-.017.02c-.705-.85-1.557.21-1.557.21l-.013-.023.044-.481 1.337-.346.189.577.018.043zM26.972 45.08s-.514-.01-.789.232c-.274.241-1.601.052-1.544 0a.187.187 0 0 0 .03-.087l.18-.144 2.11-.062.013.062z" opacity=".1"/>
            <path fill="#0DA176" d="M22.637 38.41a1.582 1.582 0 0 0-.087.293 3.336 3.336 0 0 0-.04.83c.022.399 0 3.073 0 3.073s-.451.713-.704.965c-.252.25.515.702.515.702.114.65-.579 1.385-.579 1.385-.704-.85-1.557.21-1.557.21s-.463-.799-.578-1.084c-.116-.285.452-.482.652-.598.2-.116-.01-.798-.01-.798s-.169-.598-.369-1.143c-.2-.546.22-3.262.22-3.262s.023-.482.075-.65c.026-.122.031-.247.015-.37a2.525 2.525 0 0 0-.015-.134l.008-.013.286-.532s2.306.792 2.168 1.126zM26.972 45.018s-.514-.01-.789.228c-.274.239-1.601.052-1.544 0 .057-.052.053-.44.053-.44-.779-1.06-.115-1.49-.115-1.49s-.347-1.667-.41-2.286c-.044-.432-.099-1.593-.128-2.256l-.02-.481.636-.128.082-.016 1.534-.307s.042.285.07.518c.015.1.023.2.025.3-.01.115 0 .471 0 .471l.052 1.07a1.212 1.212 0 0 0-.052.346c.01.137.21 2.087.21 2.087s.347 1.165.228 1.248c-.118.084.168 1.136.168 1.136z"/>
            <path fill="#000" d="M24.426 17.123c-.04.102-.047.278-.036.475a1.964 1.964 0 0 1-2.083-.039 7.004 7.004 0 0 0-.1-.835s2.356.052 2.219.4z" opacity=".1"/>
            <path fill="#CF6F80" d="M25.337 15.863a1.958 1.958 0 0 1-3.913.047v-.047a1.95 1.95 0 0 1 .968-1.717 1.963 1.963 0 0 1 1.977 0c.61.356.98 1.013.968 1.717z"/>
            <path fill="#000" d="M23.69 20.145c-.755-.293-1.726-1.26-1.484-1.71.054-.115.086-.238.094-.363l1.034.846.64.523.485-1.233c.042.258.083.456.083.456s-.144.2-.229.212c-.085.01.46 1.685-.623 1.269z" opacity=".1"/>
            <path fill="#0DA176" d="M26.362 23.886L25.5 38.337l-1.125.074-2.915-8.38.478-9.948.1-2.102 1.297 1.061.64.523.5-1.27.93.809z"/>
            <path fill="#000" d="M22.637 38.41a1.582 1.582 0 0 0-.087.293 8.312 8.312 0 0 1-2.36-.735l-.015-.008.005-.092.003-.048.286-.531s2.306.787 2.168 1.121zM24.668 38.705c-.21.035-.42.06-.632.072-.013-.285-.02-.481-.02-.481l.636-.128.016.537zM26.338 38.363c-.406.105-1.034.224-1.597.15l-.008-.362 1.534-.306s.043.282.071.518z" opacity=".1"/>
            <path fill="#000" d="M24.731 38.579c-2.345.4-4.492-.745-4.492-.745l.02-.388s.053-4.394-.094-4.731c-.148-.337-.263-2.046-.18-2.308.084-.262-.304-4.195-.304-4.195l-.063-1.596-2.302-.93 1.029-2.138c.14-.3.259-.609.358-.924.18-.555 1.01-1.1 1.01-1.1s.852-.546 1.19-.525c.336.02.777-.483.777-.483.326-.828.622-.453.622-.453 0 .04 0 0-.016.123-.115.91 1.85 3.782 1.877 3.833l.187 4.541.19 5.747.191 6.272z" opacity=".1"/>
            <path fill="#FFF" d="M24.668 38.579c-2.345.4-4.493-.745-4.493-.745l.021-.388s.054-4.394-.095-4.731c-.148-.337-.262-2.046-.178-2.308.084-.262-.305-4.195-.305-4.195l-.063-1.596-2.304-.933 1.03-2.139c.138-.3.258-.608.357-.923.179-.556 1.01-1.101 1.01-1.101s.853-.545 1.189-.525c.336.02.778-.482.778-.482.327-.828.687-.453.687-.453 0 .04-.035.057-.016.122.251.882 1.786 3.783 1.814 3.834l.19 4.54.189 5.748.19 6.275z"/>
            <path fill="#000" d="M24.036 22.145c-.252-.105-1.588-1.625-1.588-1.625v-.346c-.049-.114-.337-.045-.572.035l.1-2.102.115.095c.25.881 1.916 3.892 1.945 3.943z" opacity=".1"/>
            <path fill="#FFF" d="M24.1 22.019c-.253-.105-1.59-1.625-1.59-1.625v-.346c-.048-.114-.337-.045-.571.035l.101-2.102.115.095c.25.881 1.917 3.893 1.945 3.943z"/>
            <path fill="#000" d="M20.239 29.602c.031 0 1.63-.168 1.63-.168s.968 1.898.905 2.36c-.063.461-.178.87-.568.798-.39-.073-2.096.057-2.096.057l.129-3.047z" opacity=".1"/>
            <path fill="#FFF" d="M20.175 29.476c.032 0 1.63-.168 1.63-.168s.968 1.898.906 2.36c-.063.46-.18.87-.568.798-.39-.073-2.097.057-2.097.057l.13-3.047z"/>
            <path fill="#CF6F80" d="M21.38 28.585s1.468.786 1.5 1.026c.03.24-.748-.105-.916-.147a2.1 2.1 0 0 0-.337-.052l-1.121.03.874-.857z"/>
            <ellipse cx="23.627" cy="22.089" fill="#000" opacity=".1" rx="1" ry="1"/>
            <ellipse cx="23.627" cy="22.026" fill="#3F3D56" rx="1" ry="1"/>
            <ellipse cx="23.911" cy="28.752" fill="#000" opacity=".1" rx="1" ry="1"/>
            <ellipse cx="23.911" cy="28.689" fill="#3F3D56" rx="1" ry="1"/>
            <ellipse cx="23.781" cy="25.421" fill="#000" opacity=".1" rx="1" ry="1"/>
            <ellipse cx="23.781" cy="25.358" fill="#3F3D56" rx="1" ry="1"/>
            <path fill="#FFF" d="M27.34 29.38s.105.157 0 .23c-.105.074.01.252.01.252s-.262.153-.146.291c.115.138.042.761.042.761l-.316.521s.019.336.02.79c0 .708-.042 1.703-.273 2.157l.032 3.723s-1.105.403-2.03.28l-.138-5.974s.2-3.388.274-4.038c.043-.337.061-.678.053-1.018 0 0-.032-1.017-.137-1.489 0 0-.115-2.044-.126-2.61-.005-.271.009-1.061.025-1.813.018-.821.038-1.596.038-1.596l-.21-1.646s.21-.021.273.062c.028.027.058.05.091.07.36.243 1.633.99 1.633.99s.705.28.874.68c.169.4.286.684.368.798.081.114.126.65.126.65s.242.986.432 1.153c.19.167.327 1.23.327 1.23l-1.672 1.31s-.147 2.182-.179 2.266c-.031.085.61 1.97.61 1.97z"/>
            <path fill="#FFF" d="M27.404 29.38s.104.157 0 .23c-.105.074.01.252.01.252s-.261.155-.147.293c.114.138.042.761.042.761l-.315.521s.019.336.02.79c0 .708-.042 1.703-.273 2.157l.032 3.723s-1.107.402-2.032.28l-.136-5.974s.2-3.388.274-4.038c.043-.338.06-.678.052-1.018 0 0-.032-1.017-.137-1.489 0 0-.114-2.045-.126-2.61-.006-.272.01-1.062.025-1.813.018-.822.038-1.596.038-1.596l-.276-1.669s.276 0 .339.085c.028.027.059.05.092.07.36.243 1.634.99 1.634.99s.704.28.872.68c.169.4.286.683.369.797.082.114.125.65.125.65s.243.987.432 1.154c.19.167.326 1.227.326 1.227l-1.673 1.311s-.147 2.181-.179 2.266c-.032.084.612 1.97.612 1.97z"/>
            <path fill="#000" d="M25.4 20.333l.151.439-.795.798c.018-.821.038-1.596.038-1.596l-.276-1.669s.276 0 .34.085c.027.026.058.05.091.07l.676 1.943-.225-.07z" opacity=".1"/>
            <path fill="#FFF" d="M25.337 20.207l.151.439-.795.798c.018-.822.038-1.596.038-1.596l-.276-1.669s.276 0 .339.085c.028.026.059.05.092.07l.676 1.943-.225-.07z"/>
            <path fill="#000" d="M25.337 15.863c0 .206-.032.41-.096.605a.082.082 0 0 1-.062-.015c-.015-.513-.268-.995-.58-1.405a1.478 1.478 0 0 0-.315-.325.617.617 0 0 0-.426-.12c-.172.023-.323.14-.497.154-.228.02-.433-.139-.66-.147a.65.65 0 0 0-.486.225c-.119.14-.208.304-.26.481-.09.268-.139.548-.145.83-.003.16-.019.36-.167.418a.85.85 0 0 0-.216-.65l-.003-.004v-.047a1.95 1.95 0 0 1 .968-1.717 1.963 1.963 0 0 1 1.977 0c.61.356.98 1.013.968 1.717z" opacity=".1"/>
            <path fill="#512E4E" d="M24.19 12.766a1.351 1.351 0 0 0-.95-.074c-.158.047-.308.123-.468.16-.343.083-.744-.006-1.038.194-.164.114-.262.294-.354.47l-.229.434c-.124.237-.25.48-.302.74-.052.262-.02.555.146.766.121.153.3.25.432.394.159.177.237.413.215.65.149-.057.163-.258.167-.418.006-.282.055-.562.145-.83.052-.176.14-.34.26-.48a.651.651 0 0 1 .486-.225c.228.007.434.165.66.146.172-.014.324-.131.497-.154a.615.615 0 0 1 .426.12c.121.092.227.201.314.325.313.41.566.89.58 1.405.065.047.159-.014.19-.087.033-.073.034-.159.074-.228.047-.08.137-.123.207-.184.179-.153.224-.411.217-.646-.007-.234-.053-.472-.008-.702.027-.141.087-.274.12-.413.034-.14.038-.297-.04-.417-.115-.177-.356-.212-.566-.228-.238-.02-.452.006-.604-.194a2.185 2.185 0 0 0-.24-.294c-.03-.03-.336-.217-.336-.23z"/>
            <path fill="#000" d="M17.974 24.788l-.597-1.102-.19 1.7s.106.755.085.87c-.022.116.43 1.154.43 1.154s1.495 2.653 2.105 2.79l2.062-1.469-.547-.692s-.189-.074-.236 0c0 0-1.015-1.741-1.12-1.867-.106-.126-.085-.377-.085-.377s-.158-.168-.106-.325c.053-.158-.304-.703-.304-.703l.326-.304-1.823.325z" opacity=".1"/>
            <path fill="#FFF" d="M17.408 23.561l-.158.125-.189 1.7s.105.755.084.87c-.021.116.432 1.154.432 1.154s1.494 2.653 2.104 2.79l2.062-1.469-.547-.692s-.19-.074-.237 0c0 0-1.015-1.741-1.12-1.867-.105-.126-.084-.377-.084-.377s-.158-.168-.105-.325c.052-.158-.306-.703-.306-.703l.326-.304-2.262-.902z"/>
            <path fill="#000" d="M27.204 30.218c.114.139.042.76.042.76l-.316.522s.019.336.02.79l-.53.165a.316.316 0 0 1-.41-.31l.092-2.942 1.238.472c-.105.073.01.252.01.252s-.262.153-.146.291z" opacity=".1"/>
            <path fill="#FFF" d="M27.267 30.155c.114.139.042.761.042.761l-.315.521s.019.336.02.79l-.54.168a.31.31 0 0 1-.4-.303l.092-2.952 1.238.472c-.106.073.01.252.01.252s-.261.153-.147.291z"/>
            <path fill="#CF6F80" d="M27.677 28.753s-.084.535-.294.566c-.21.032-.305.866-.515.837-.21-.03-.071-.776-.064-.921.008-.145-.228-.745-.052-.88.177-.137.736 0 .736 0l.19.398z"/>
            <path fill="#000" d="M28.125 24.63l.397-.798s.158.609.158.934c0 .325.22.356.22.356s.242.286.115.493c-.128.208-.18.724-.18.724s.043.986-.147 1.122c-.189.136-.229.462-.229.462s-.347.618-.336.765c.01.147-.484 1.143-.484 1.143s.242-1.237-1.168-1.772c0 0-.01-.42.094-.535.106-.116.27-.168.167-.75-.103-.582-.03-1.278-.03-1.417 0-.14.316-1.011.316-1.011l1.107.284z" opacity=".1"/>
            <path fill="#FFF" d="M28.296 23.718l.347.114s.159.609.159.934c0 .325.22.356.22.356s.242.286.115.493c-.128.208-.179.724-.179.724s.042.986-.147 1.122c-.19.136-.232.462-.232.462s-.347.618-.336.765c.01.147-.485 1.143-.485 1.143s.243-1.237-1.168-1.772c0 0-.01-.42.095-.535.106-.116.27-.168.167-.75-.103-.582-.03-1.278-.03-1.417 0-.14.316-1.011.316-1.011l1.158-.628z"/>
            <path fill="#000" d="M20.641 44.405s.553-.346.915-.095c.363.251-.915.095-.915.095zM24.934 43.335s.49-.063.9.377c.41.441-.9-.377-.9-.377z" opacity=".1"/>
            <g fill="#000" opacity=".1">
                <path d="M25.65 15.765c-.07.06-.161.104-.208.184-.04.07-.041.154-.073.228-.032.075-.125.135-.19.088-.015-.513-.269-.995-.58-1.405a1.463 1.463 0 0 0-.315-.325.616.616 0 0 0-.427-.12c-.171.023-.322.14-.496.154-.228.02-.434-.139-.66-.147a.648.648 0 0 0-.486.225c-.12.14-.208.304-.26.481a2.81 2.81 0 0 0-.145.83c-.004.16-.019.357-.166.417a.778.778 0 0 1 0 .126c.149-.057.163-.257.167-.417.006-.282.055-.562.145-.83.052-.177.141-.34.26-.481a.65.65 0 0 1 .485-.225c.23.008.435.166.662.147.171-.015.323-.131.495-.154a.616.616 0 0 1 .428.12c.12.092.226.201.314.325.311.41.565.89.58 1.405.065.047.158-.015.19-.088s.033-.158.073-.228c.047-.08.137-.123.208-.183.178-.153.223-.412.216-.646v-.022c-.01.203-.065.41-.217.541zM21.428 15.725c-.132-.144-.311-.24-.432-.394a.833.833 0 0 1-.167-.466.876.876 0 0 0 .167.592c.12.153.3.25.432.394.126.14.202.32.215.508a.853.853 0 0 0-.215-.634zM25.978 14.004c-.033.14-.093.272-.12.413-.017.094-.023.19-.018.285.001-.054.007-.108.017-.162.028-.141.088-.273.121-.413a.699.699 0 0 0 .02-.236.79.79 0 0 1-.02.113z"/>
            </g>
            <ellipse cx="10.336" cy="45.83" fill="#0DA176" opacity=".1" rx="5.573" ry="1"/>
            <path fill="#535461" d="M10.157 28.74h1v8.048h-1z"/>
            <path fill="#3F3D56" d="M12.77 36.763l-.023.362-.032.513-.013.214-.032.513-.013.213-.032.513-.362 5.819a.988.988 0 0 1-.987.924h-1.88a.988.988 0 0 1-.986-.924l-.36-5.823-.032-.513-.013-.213-.032-.513-.013-.214-.032-.513-.023-.362a.512.512 0 0 1 .515-.542h3.844a.512.512 0 0 1 .505.546z"/>
            <path fill="#9D9CB5" d="M12.747 37.125l-.032.512H7.958l-.032-.512zM12.702 37.85l-.032.512H8.003l-.032-.512zM12.657 38.576l-.032.51H8.048l-.032-.51z"/>
            <path fill="#0DA176" d="M7.378 31.756c2.088 1.506 2.96 3.861 2.96 3.861s-2.516-.086-4.605-1.592c-2.089-1.506-2.959-3.86-2.959-3.86s2.516.085 4.604 1.59z"/>
            <path stroke="#535461" stroke-width="2" d="M2.773 30.164s2.612 1.445 3.45 2.642c.838 1.196 4.115 2.811 4.115 2.811"/>
            <path fill="#0DA176" d="M8.726 28.722c1.137.82 1.612 2.101 1.612 2.101s-1.37-.047-2.507-.866-1.61-2.102-1.61-2.102 1.368.047 2.505.867z"/>
            <path stroke="#535461" stroke-width="2" d="M6.22 27.855s1.422.787 1.878 1.438c.456.651 2.24 1.53 2.24 1.53"/>
            <path fill="#0DA176" d="M11.988 30.758c-1.306 1.43-1.582 3.3-1.582 3.3s1.841-.45 3.146-1.881c1.304-1.431 1.582-3.3 1.582-3.3s-1.84.45-3.146 1.881z"/>
            <path stroke="#535461" stroke-width="2" d="M15.135 28.878s-1.701 1.466-2.133 2.476c-.433 1.01-2.596 2.704-2.596 2.704"/>
            <path fill="url(#b)" fill-rule="nonzero" d="M59.919 30.255s-.945-4.683-.583-5.265c0 0 .013-.542-.009-1.232v-.08c.064.043.13.08.199.114.333.171.715.22 1.08.14l-.285-.318c-.069-.076-.14-.158-.155-.258-.015-.1.026-.19.062-.28.271-.684.286-1.544-.238-2.066-.442-.439-.55-1.006-1.03-1.406-.35-.294-.543-.724-.724-1.14-.154-.352-.31-.707-.397-1.08-.069-.291-.096-.593-.19-.877-.095-.284-.272-.561-.548-.688-.099-.045-.208-.07-.298-.13-.117-.08-.188-.209-.273-.322-.433-.57-1.883-.234-2.57-.002-.186.058-.359.153-.507.28l.006-.01.017-.026a.9.9 0 0 0-.192.214c-.1.158-.142.342-.225.513-.101.202-.661.767-.42.995a.203.203 0 0 0 .057.036c.09.038.19.048.286.029l-.01.024c-.083.2-.125.416-.125.632 0 .937.775 1.696 1.732 1.696.18 0 .359-.027.53-.081l.012.065c0 .008.003.017.004.026l-.03.042a.057.057 0 0 0-.006-.008l-.898 1.251c-.137.096-.927.666-.972 1.094-.047.468-.094 1.016-.094 1.016l-.006.117a.354.354 0 0 1-.286.077c-.28-.045-.28 1.026-.28 1.026s-.187.171-.315.023c-.128-.148-.466.354-.466.354l-2.122.091-.049.003-.114-.353a.15.15 0 0 0-.213-.084l-.008.005-.015.01-.007.007a.114.114 0 0 0-.012.012l-.007.008-.003.003a.143.143 0 0 0-.02.128l.098.302c-.41.083-.828.314-.487.951l-1.73-.318.56.468 2.89.595c-.038.068-.013.167.106.307.515.603 1.453.766 1.83.808.1.223.225.433.372.628l-.033.6s-.956 4.575-1.13 4.807c.088-.1.169-.206.241-.317-.277.94-.665 2.226-.767 2.42-.163.307-.315 1.553-.128 1.632.057.025.22.013.454-.005v.103l-.01 3.91s.046 2.399-.082 2.627c-.13.229-.163.708-.163.708s-.515.946-.923 1.326a.061.061 0 0 1-.009.008l-.013-.089s-.49.617-1.574.583c0 0-.653.423.315.445.968.023 2.204-.034 2.204-.034s.863-1.311 1.586-1.14v.994h.22v-1.01a.905.905 0 0 0 .395-.595.722.722 0 0 0-.259-.668.427.427 0 0 1-.14-.313l-.009.007c0-.02-.005-.04-.007-.061-.064-.513-.143-1.572.138-2.355.384-1.074.501-2.57.22-3.46a7.935 7.935 0 0 1-.24-.973c.191.026.38.064.567.114.65.178 2.07.211 3.282.202l.01.102c.022.242.067.481.135.714.153.456.222 2.467.222 2.467s.197 1.653.09 2.326c-.058.374-.115.75-.147 1.127v.007s-.322.912-.557 1.407l-.018.038a.746.746 0 0 0-.183.04s-.315.627-.63.73c-.313.105-.21.446.502.32.71-.125 1.784-.227 1.784-.227l.046-.64.219-.272-.057.637.232-.045-.03-.776.357-.446s.432-.383-.21-1.137v.017l-.02-.033v-.004c-.107-.164-.191-.47-.036-1.013.28-.982.443-1.873.443-1.873s.625-2.387-.127-3.516h.034a1.895 1.895 0 0 1-.173-.565c.557-.032 1.103-.132 1.549-.349-.002-.002-.27-5.666-.492-6.568zm-7.065-3.936v.02l-.115.01.115-.03zm-.393.04a.127.127 0 0 0-.051.024c-.05.07-.08.15-.09.234l-.178-.04s-.126-.027-.306-.057l-.085-.085c.235-.02.478-.048.71-.077z"/>
            <path fill="#1D2366" d="M58.365 45.75l-.068.808.229-.046-.035-.876z"/>
            <path fill="#FFB0B1" d="M53.16 41.914c-.276.781-.198 1.836-.136 2.347.022.19.044.305.044.305s-.412.934-.446.969c-.034.035-1.21.75-1.21.75l-.822.48s-.834-.365-.434-.49a.607.607 0 0 0 .216-.147c.4-.38.903-1.322.903-1.322s.034-.478.16-.705c.126-.228.08-2.618.08-2.618l.01-3.896v-.508l1.564.011c.01.172.032.344.067.513.056.292.13.58.218.864.276.889.161 2.377-.215 3.447z"/>
            <path fill="#000" d="M53.068 44.566s-.412.934-.446.969c-.034.035-1.21.75-1.21.75l-.822.48s-.834-.365-.434-.49a.607.607 0 0 0 .216-.147l.035.249.274-.011 2.345-2.103c.02.188.042.303.042.303z" opacity=".1"/>
            <path fill="#1D2366" d="M53.04 44.316l-2.359 2.117-.274.011-.057-.399s-.48.615-1.544.58c0 0-.64.422.308.445.948.022 2.158-.035 2.158-.035s.845-1.31 1.553-1.14v.99h.217v-.999a.9.9 0 0 0 .385-.593.725.725 0 0 0-.252-.666.429.429 0 0 1-.136-.311z"/>
            <path fill="#FFB0B1" d="M58.583 43.132c-.152.542-.07.847.035 1.01v.004c.133.202.226.428.273.665l.01.051-1.074 1.56-.582.228s-.936-.32-.765-.41c.043-.023.11-.141.186-.305.229-.493.545-1.403.545-1.403v-.007c.033-.376.085-.75.144-1.123.104-.671-.088-2.318-.088-2.318s-.068-2.003-.217-2.458a3.748 3.748 0 0 1-.133-.71 7.4 7.4 0 0 1-.038-.52s.616-.854 1.747.07c.09.073.17.159.236.254.78 1.108.152 3.546.152 3.546s-.157.887-.431 1.866z"/>
            <path fill="#000" d="M58.902 44.862l-1.073 1.56-.582.228s-.937-.32-.766-.41c.043-.023.11-.141.187-.305.396-.003.602.373.602.373l.502-.08s.662-1.297.81-1.377c.15-.079.024-.592.024-.592v-.13c.004.004.007.01.012.014v.003c.133.202.226.428.273.666l.01.05z" opacity=".1"/>
            <path fill="#1D2366" d="M57.304 46.342s-.286-.524-.834-.33c0 0-.308.627-.616.728-.309.102-.206.444.49.319.697-.125 1.747-.228 1.747-.228l.046-.638.708-.9s.422-.38-.206-1.131v.13s.126.513-.023.593c-.148.079-.808 1.377-.808 1.377l-.504.08z"/>
            <path fill="#000" d="M53.09 37.089c.01.172.033.344.068.513-.644-.094-1.242-.047-1.633-.017v-.508l1.566.012zM58.925 37.862s-.915.045-2.006.054c-.03-.285-.038-.52-.038-.52s.617-.855 1.747.069c.09.073.17.16.236.255.018.049.038.096.061.142z" opacity=".1"/>
            <path fill="#1D2366" d="M58.925 37.76s-4.008.193-5.23-.148c-1.221-.342-2.432-.046-2.614-.125-.183-.08-.035-1.32.126-1.628.16-.307 1.038-3.415 1.038-3.415l.846-4.393.89-.244.063-.018 1.552-.426 1.137-.313s2.26 8.798 2.066 9.447c-.07.248-.081.51-.033.763a1.9 1.9 0 0 0 .16.5z"/>
            <path fill="#C7DAF5" d="M50.144 25.047s-.8.855-.194 1.332c.606.476 1.004.046 1.004.046l-.81-1.378z"/>
            <path fill="#000" d="M50.144 25.047s-.8.855-.194 1.332c.606.476 1.004.046 1.004.046l-.81-1.378z" opacity=".1"/>
            <path fill="#FFB0B1" d="M56.613 19.425s-.094.09-.235.22c-.201.188-.5.462-.764.692-.366.317-.668.55-.56.351.109-.198.088-.545.034-.87l-.011-.064a5.958 5.958 0 0 0-.177-.704s.591-.762.919-1.063c.121-.114.207-.16.212-.081.006.107.086.342.185.592a20.262 20.262 0 0 0 .397.928z"/>
            <path fill="#000" d="M56.225 18.521a1.694 1.694 0 0 1-1.137 1.298 5.917 5.917 0 0 0-.188-.77s1.114-1.433 1.13-1.143c.005.11.092.354.195.615zM54.977 20.202l.144-.203s.096.58.447.325c.351-.256.368 1.926.368 1.926l-.376 5.617-2.724-.163.077-2.714.309-1.368.762-1.989.453-.657.54-.774z" opacity=".1"/>
            <path fill="#1D2366" d="M55.936 22.285l-.343 5.078-.036.539-1.518-.091-.057-.003-1.144-.069.077-2.715.308-1.368.763-1.989.453-.657.54-.777.144-.202s.096.58.447.325l.007-.006c.343-.216.36 1.935.36 1.935z"/>
            <path fill="#FFF" d="M53.262 23.18s-.137.286-.412.24c-.274-.047-.274 1.026-.274 1.026s-.182.17-.308.023c-.126-.149-.457.352-.457.352l-2.079.092s.925.421.744 1.696c0 0 3.14-.194 3.243-.49.102-.296-.457-2.938-.457-2.938z"/>
            <path fill="#000" d="M53.262 23.18s-.137.286-.412.24c-.274-.047-.274 1.026-.274 1.026s-.182.17-.308.023c-.126-.149-.457.352-.457.352l-2.079.092s.925.421.744 1.696c0 0 3.14-.194 3.243-.49.102-.296-.457-2.938-.457-2.938z" opacity=".03"/>
            <path fill="#FFF" d="M47.221 25.583l.548.466 4.51.944-.559-.568zM54.986 20.381c-.075.114-.29.698-.469 1.208-.149.424-.273.798-.273.798s-.292 1.889-.44 2.23c-.149.342-.068 1.674-.068 1.674l-.555 3.288s-.25 1.696-.638 2.71c-.383.996-.81 1.464-.822 1.479.171-.232 1.106-4.789 1.106-4.789l.31-5.747s.044-.547.09-1.013c.046-.467.972-1.105.972-1.105l.894-1.266c.09.12.03.329-.107.533z"/>
            <path fill="#FFB0B1" d="M52.656 27.768s-1.315-.057-1.952-.82c-.637-.763 1.473-.305 1.473-.305l.548.126-.069.999z"/>
            <path fill="#000" d="M58.8 36.497c-.07.249-.082.51-.034.763-1.435.102-2.97-.285-2.97-.285-.286.263-1.039.65-1.039.65l-.41-5.075c-.263-.684-.366-4.268-.366-4.268l.057-.468c0-.007 0-.014.003-.021.102-.785.305-2.259.405-2.458.137-.274-.422-1.002-.422-1.002l.254-2.163.031-.261c.537-.239.948-1.002.948-1.002l.316-.55c.343-.22.36 1.93.36 1.93l-.343 5.08 1.137-.314s2.266 8.795 2.072 9.444z" opacity=".1"/>
            <path fill="#FFF" d="M60.272 36.848c-1.564.774-4.407.057-4.407.057-.286.262-1.04.648-1.04.648l-.41-5.073c-.262-.684-.365-4.268-.365-4.268s.33-2.675.467-2.948c.04-.08.021-.198-.026-.326a4.114 4.114 0 0 1-.25-1.909l.109-.93.03-.26c.537-.24.948-1.002.948-1.002l.286-.5.527-.92.249-.435.042.038.323.292.344.285c.447.376 1.221 1.038 1.62 1.444.352.357.463 1.745.495 2.79.02.688.008 1.227.008 1.227-.354.581.572 5.245.572 5.245.216.901.478 6.545.478 6.545z"/>
            <path fill="#000" d="M57.27 20.825s-1.074 2.037-.95 2.811c.125.774.48 1.65.309 1.855a.633.633 0 0 1-.503.25c-.171.012-.629.33-.629.365 0 .034-.422.034-.8.194-.379.16-.937.25-.937.25s-1.086-.034-1.188.068c-.1.103-.205.717.012 1.207.217.49.457.855.64.921.181.067 1.335-.318 2.271-.41.937-.09 1.953-.83 1.953-.83s1.12-.4 1.315-1.07c.197-.671-.24-4.359-.24-4.359s-.329-1.719-1.253-1.252z" opacity=".03"/>
            <path fill="#000" d="M57.132 20.654s-1.073 2.038-.947 2.811c.125.774.479 1.65.307 1.856a.63.63 0 0 1-.502.25c-.171.012-.629.33-.629.364 0 .035-.423.035-.8.194-.379.159-.937.25-.937.25s-1.087-.034-1.187.068c-.1.103-.206.717.011 1.207.218.489.458.855.64.921.182.067 1.336-.318 2.272-.409.936-.09 1.952-.831 1.952-.831s1.12-.4 1.313-1.07c.194-.67-.24-4.359-.24-4.359s-.328-1.718-1.253-1.252z" opacity=".03"/>
            <path fill="#FFF" d="M57.236 20.723s-1.074 2.037-.948 2.81c.126.774.48 1.651.308 1.856a.63.63 0 0 1-.502.25c-.172.012-.63.33-.63.364 0 .034-.421.034-.8.194-.379.16-.936.25-.936.25s-1.087-.034-1.188.069c-.101.102-.206.717.011 1.206.217.49.458.855.64.922.181.066 1.336-.319 2.272-.41.936-.091 1.952-.83 1.952-.83s1.12-.4 1.316-1.07c.196-.672-.237-4.36-.237-4.36s-.334-1.715-1.258-1.251z"/>
            <path fill="#000" d="M57.212 26.187s-.857-.17-.559.114c.299.285.297.535.662.524.366-.012-.103-.638-.103-.638zM58.662 32.32s-.388.262.354.865-.354-.865-.354-.865zM57.922 34.471c0 .034-.137 1.254.376 1.56.514.304-.376-1.56-.376-1.56z" opacity=".1"/>
            <path fill="#FFB0B1" d="M49.768 24.91c-.414.014-1.309.14-.845 1.003.41.763 1.1.253 1.487-.134a1.457 1.457 0 0 0-.642-.87zM50.43 25.8l.03-.031-.03.03z"/>
            <path fill="#000" d="M57.099 19.632c-.44.299-.808.551-.88.604-.197.145-.572.999-.814 1.434-.193.35-.819.44-1.055.463l.03-.26c.537-.24.948-1.003.948-1.003l1.062-1.855.365.332.344.285z" opacity=".1"/>
            <path fill="#DCE7FF" d="M57.099 19.597c-.44.3-.808.552-.88.605-.197.145-.572.998-.814 1.434-.193.35-.819.44-1.055.463l.03-.26c.537-.24.948-1.003.948-1.003l1.062-1.855.365.33s.138.113.344.286z"/>
            <path fill="#FFB0B1" d="M56.253 18.145c0 .342-.104.676-.298.958a1.7 1.7 0 0 1-2.139.563 1.689 1.689 0 0 1-.88-2.022 1.697 1.697 0 0 1 3.317.5z"/>
            <path fill="#000" d="M59.214 23.831a1.505 1.505 0 0 1-.548-.586c-.095-.188-.159-.405-.322-.538-.147-.12-.343-.15-.526-.203-.602-.177-1.106-.724-1.125-1.35-.01-.293.083-.587.041-.878a.972.972 0 0 0-.19-.453 1.562 1.562 0 0 0-.166-.178c-.08-.075-.164-.148-.237-.228a.78.78 0 0 1-.186-.314c-.115-.348-.01-.762-.136-1.115l-.007-.02c-.048-.125-.144-.25-.279-.26-.134-.01-.25.102-.377.151-.268.104-.558-.073-.781-.253-.224-.18-.476-.386-.76-.346-.189.027-.337.155-.51.22a.717.717 0 0 1-.121.035 1.697 1.697 0 0 1 3.232.983 14.037 14.037 0 0 0 .216.522l.323.292.344.285c.447.376 1.221 1.038 1.62 1.444.352.358.461 1.745.495 2.79z" opacity=".1"/>
            <path fill="#591D4B" d="M53.084 16.44c.082-.167.123-.353.22-.51.144-.228.394-.374.652-.462.672-.231 2.092-.566 2.516 0 .084.114.153.24.269.319.088.06.194.085.29.13.271.127.444.403.536.685.092.281.12.583.187.874.086.372.238.725.389 1.075.178.414.367.843.71 1.136.468.399.572.964 1.006 1.402.515.52.498 1.378.233 2.059-.035.09-.074.183-.06.278.013.095.084.182.151.258l.281.316c-.665.16-1.419-.186-1.729-.795-.095-.188-.159-.404-.322-.538-.147-.12-.343-.149-.526-.202-.601-.178-1.106-.726-1.125-1.35-.009-.294.083-.588.041-.879a.967.967 0 0 0-.191-.456c-.157-.204-.395-.342-.523-.57-.217-.381-.052-.877-.208-1.286-.048-.125-.144-.25-.279-.26-.134-.01-.249.101-.378.15-.267.104-.557-.072-.78-.252-.224-.181-.476-.386-.76-.346-.19.026-.337.154-.51.22-.129.05-.388.094-.5-.014-.237-.217.311-.78.41-.983z"/>
            <path fill="#000" d="M58.894 23.017c-.096-.188-.159-.405-.322-.538-.147-.12-.343-.149-.526-.202-.601-.178-1.106-.725-1.125-1.35-.01-.294.083-.588.041-.879a.973.973 0 0 0-.191-.453c-.158-.205-.395-.342-.523-.57-.217-.38-.052-.876-.209-1.286-.047-.125-.144-.25-.278-.26-.133-.01-.25.101-.378.151-.267.104-.557-.073-.78-.253-.223-.18-.477-.386-.761-.346-.188.027-.337.154-.51.22-.128.05-.388.094-.5-.014-.236-.228.313-.79.411-.991.082-.167.123-.352.221-.51a.648.648 0 0 1 .017-.025.906.906 0 0 0-.189.213c-.097.158-.138.342-.22.51-.099.201-.647.764-.411.99.114.11.372.065.5.016.171-.067.321-.195.51-.221.285-.04.537.165.76.345.223.18.515.357.781.254.128-.05.24-.162.378-.151.137.01.229.135.278.26.157.41-.008.905.209 1.286.128.224.365.364.522.57.103.133.169.29.192.456.042.291-.05.585-.041.878.019.627.523 1.173 1.125 1.35.181.054.379.083.525.202.164.134.229.351.323.54.31.607 1.063.954 1.729.794l-.133-.15c-.577.009-1.16-.318-1.425-.836z" opacity=".1"/>
            <path fill="#000" d="M54.952 20.415c-.075.114-.29.698-.469 1.208-.167-.065-.32-.48-.32-.48l.894-1.266c.091.125.031.333-.105.538z" opacity=".1"/>
            <path fill="#DCE7FF" d="M54.986 20.381c-.075.114-.29.698-.469 1.208-.167-.065-.32-.48-.32-.48l.894-1.266c.092.125.032.334-.105.538z"/>
            <path fill="#BE8B87" d="M49.792 26.205l-.496-1.557a.145.145 0 0 1 .095-.183.147.147 0 0 1 .183.095l.496 1.555-.05.325-.228-.235z"/>
            <path fill="#FFF" d="M49.343 24.511a.147.147 0 0 1 .184.095l.495 1.555-.037.244.036.038.05-.326-.499-1.555a.147.147 0 0 0-.183-.095.146.146 0 0 0-.076.057.2.2 0 0 1 .03-.013z" opacity=".1"/>
            <path fill="#EFC8C4" d="M49.792 26.205l.278-.088-.041.267-.009.059-.08-.085z"/>
            <path fill="#727A9C" d="M49.94 26.358a.063.063 0 0 1 .019-.014.03.03 0 0 1 .03 0 .07.07 0 0 1 .01.015.056.056 0 0 0 .04.023l-.009.058-.09-.082z"/>
            <path fill="#FFB0B1" d="M49.294 25.201s.993-.006.76.416c-.235.421-.6.472-.6.472l-.16-.888z"/>
            <path fill="#0DA176" fill-rule="nonzero" d="M43.115 6.295h-.043c-1.706 0-3.216.9-4.084 2.228-.868-1.328-2.377-2.228-4.084-2.228h-.043a4.853 4.853 0 0 0-4.815 4.842c0 1.586.697 3.835 2.055 5.686 2.588 3.527 6.887 6.613 6.887 6.613s4.3-3.085 6.887-6.613c1.358-1.85 2.054-4.1 2.054-5.686a4.853 4.853 0 0 0-4.814-4.842zm-.614 10.8a.964.964 0 0 1-.896-.617h-1.02a.322.322 0 0 1-.304-.219l-.313-.941-.992 3.454a.32.32 0 0 1-.308.23h-.02a.316.316 0 0 1-.297-.264l-1.022-6.127-.747 3.626a.318.318 0 0 1-.31.24h-1.437a.32.32 0 0 1-.288-.48c.06-.101.171-.16.288-.156h1.186l1.058-4.875a.32.32 0 0 1 .63.027l1.043 6.25.889-3.09a.314.314 0 0 1 .299-.228h.006c.138 0 .26.088.303.218l.567 1.7h.777a.959.959 0 0 1 1.863.4.957.957 0 0 1-.953.854l-.002-.002z"/>
        </g>
    </g>
</svg>
