<svg xmlns="http://www.w3.org/2000/svg" xmlns:xlink="http://www.w3.org/1999/xlink" width="21" height="19" viewBox="0 0 21 19">
    <defs>
        <path id="b" d="M0 0h222v764H0z"/>
        <filter id="a" width="106.3%" height="101.8%" x="-3.2%" y="-.7%" filterUnits="objectBoundingBox">
            <feOffset dy="2" in="SourceAlpha" result="shadowOffsetOuter1"/>
            <feGaussianBlur in="shadowOffsetOuter1" result="shadowBlurOuter1" stdDeviation="2"/>
            <feColorMatrix in="shadowBlurOuter1" values="0 0 0 0 0 0 0 0 0 0 0 0 0 0 0 0 0 0 0.0696022727 0"/>
        </filter>
        <path id="c" d="M0 17h3.455V6.476H0V17zm19-9.647c0-.965-.777-1.754-1.727-1.754h-5.45l.82-4.008.027-.281c0-.36-.147-.693-.38-.93a1.284 1.284 0 0 0-1.826.005L5.69 5.24c-.32.316-.51.754-.51 1.237v8.77c0 .965.778 1.754 1.728 1.754h7.773c.717 0 1.33-.439 1.589-1.07l2.608-6.183c.078-.202.121-.412.121-.64V7.353z"/>
    </defs>
    <g fill="none" fill-rule="evenodd">
        <path fill="#FFF" d="M-30-455h1440v1658H-30z"/>
        <g transform="translate(-30 -455)">
            <use fill="#000" filter="url(#a)" xlink:href="#b"/>
            <use fill="#FFF" xlink:href="#b"/>
        </g>
        <path d="M-30-15h222v48H-30z"/>
        <g>
            <path stroke="#EA0B4B" d="M4.955 18.5H.5V6.976h4.455V18.5zm8.48-12.401h4.838c1.228 0 2.227 1.015 2.227 2.254v1.754c0 .284-.052.555-.16.834l-2.607 6.179a2.215 2.215 0 0 1-2.051 1.38H7.909c-1.228 0-2.227-1.015-2.227-2.254v-8.77c0-.608.237-1.177.653-1.587l4.772-4.854.015-.015a1.784 1.784 0 0 1 2.524.01c.331.336.524.797.521 1.326l-.034.335-.697 3.408z"/>
        </g>
    </g>
</svg>
