<svg xmlns="http://www.w3.org/2000/svg" width="40" height="40" viewBox="0 0 40 40">
    <defs>
        <linearGradient id="a" x1="94.012%" x2="12.378%" y1="77.976%" y2="18.204%">
            <stop offset="0%" stop-color="#FFF"/>
            <stop offset="100%" stop-color="#FFF"/>
        </linearGradient>
    </defs>
    <g fill="none" fill-rule="evenodd" transform="translate(-1175 -2700)">
        <path fill="#FFF" d="M0 0h1440v4315H0z"/>
        <text fill="#EA0B4B" font-family="SourceSansPro-Regular, Source Sans Pro" font-size="120" opacity=".05">
            <tspan x="1128" y="2727">3</tspan>
        </text>
        <circle cx="1195" cy="2720" r="36" fill="url(#a)" opacity=".652"/>
        <g fill="#EA0B4B" fill-rule="nonzero">
            <path d="M1179.323 2712.982h-3.383c-.52 0-.94.472-.94 1.053s.42 1.053.94 1.053h3.383c.52 0 .94-.472.94-1.053s-.42-1.053-.94-1.053zM1214.06 2712.982h-3.383c-.52 0-.94.472-.94 1.053s.42 1.053.94 1.053h3.383c.52 0 .94-.472.94-1.053s-.42-1.053-.94-1.053zM1183.483 2725.552a.988.988 0 0 0-1.397 0l-2.586 2.586a.988.988 0 0 0 1.397 1.397l2.586-2.585a.988.988 0 0 0 0-1.398zM1208.741 2700.294a1.003 1.003 0 0 0-1.419 0l-2.554 2.554a1.003 1.003 0 1 0 1.419 1.42l2.554-2.555a1.004 1.004 0 0 0 0-1.42zM1185.232 2702.848l-2.554-2.554a1.004 1.004 0 0 0-1.42 1.42l2.555 2.553a1 1 0 0 0 1.42 0 1.004 1.004 0 0 0 0-1.42zM1210.5 2728.135l-2.582-2.582a.99.99 0 0 0-1.4 1.4l2.582 2.582a.987.987 0 0 0 1.4 0 .99.99 0 0 0 0-1.4zM1194.825 2702.456c-6.675 0-12.106 5.72-12.106 12.752 0 3.269 1.163 6.787 3.19 9.653 1.557 2.201 2.38 4.65 2.38 7.083v6.112a1.94 1.94 0 0 0 1.93 1.944h9.21a1.94 1.94 0 0 0 1.93-1.944v-6.112c0-2.432.824-4.882 2.38-7.083 2.028-2.866 3.19-6.384 3.19-9.653 0-7.032-5.43-12.752-12.104-12.752zm4.604 35.6h-9.21v-1.272h4.605a.969.969 0 0 0 .966-.972.969.969 0 0 0-.966-.972h-4.604v-1.271h9.21v4.487zm-5.958-18.137l-1.291-2.777h5.289l-1.29 2.777a.98.98 0 0 0-.09.348l-.748 11.358h-1.033l-.748-11.358a.98.98 0 0 0-.09-.348zm8.696 3.814c-1.724 2.438-2.666 5.16-2.734 7.892h-2.157l.728-11.047 1.857-3.996a.978.978 0 0 0-.06-.934.964.964 0 0 0-.814-.45h-8.325c-.33 0-.637.17-.814.45a.978.978 0 0 0-.06.934l1.857 3.996.728 11.046h-2.157c-.068-2.732-1.01-5.453-2.734-7.89-1.774-2.508-2.832-5.695-2.832-8.526 0-5.96 4.564-10.808 10.174-10.808 5.61 0 10.175 4.848 10.175 10.808 0 2.831-1.058 6.019-2.832 8.525z"/>
        </g>
    </g>
</svg>
