<svg xmlns="http://www.w3.org/2000/svg" width="383" height="354" viewBox="0 0 383 354">
    <defs>
        <linearGradient id="a" x1="50.004%" x2="50.004%" y1="99.998%" y2=".019%">
            <stop offset="0%" stop-color="gray" stop-opacity=".25"/>
            <stop offset="54%" stop-color="gray" stop-opacity=".12"/>
            <stop offset="100%" stop-color="gray" stop-opacity=".1"/>
        </linearGradient>
        <linearGradient id="b" x1="50.188%" x2="50.188%" y1="100.263%" y2="0%">
            <stop offset="0%" stop-color="gray" stop-opacity=".25"/>
            <stop offset="54%" stop-color="gray" stop-opacity=".12"/>
            <stop offset="100%" stop-color="gray" stop-opacity=".1"/>
        </linearGradient>
    </defs>
    <g fill="none" fill-rule="evenodd">
        <ellipse cx="205.508" cy="346.862" fill="#0DA176" rx="92.198" ry="7.051"/>
        <ellipse cx="205.508" cy="346.862" fill="#000" opacity=".4" rx="92.198" ry="7.051"/>
        <path fill="#0DA176" d="M118.28 34.387c12.925-11.538 33.26-13.89 51.765-12.96C228.157 24.314 280.62 52.37 325.99 84.106c16.424 11.492 32.598 23.871 43.263 39.69 21.707 32.207 15.265 76.826-14.918 103.357-10.27 9.027-22.716 15.949-35.496 22.099-22.725 10.908-47.246 19.664-73.035 22.153-18.392 1.78-37.014.334-55.298-2.147-51.077-6.955-101.221-22.253-143.25-48.489-18.435-11.495-35.81-25.784-43.406-44.385-7.597-18.6-2.736-42.163 16.086-53.171 7.785-4.553 17.095-6.609 26.206-8.54 13.414-2.843 27.044-5.645 39.148-11.42 12.51-5.97 27.303-17.512 24.83-30.717-2.656-14.173-4.765-26.623 8.16-38.148z"/>
        <path fill="#000" d="M118.28 34.387c12.925-11.538 33.26-13.89 51.765-12.96C228.157 24.314 280.62 52.37 325.99 84.106c16.424 11.492 32.598 23.871 43.263 39.69 21.707 32.207 15.265 76.826-14.918 103.357-10.27 9.027-22.716 15.949-35.496 22.099-22.725 10.908-47.246 19.664-73.035 22.153-18.392 1.78-37.014.334-55.298-2.147-51.077-6.955-101.221-22.253-143.25-48.489-18.435-11.495-35.81-25.784-43.406-44.385-7.597-18.6-2.736-42.163 16.086-53.171 7.785-4.553 17.095-6.609 26.206-8.54 13.414-2.843 27.044-5.645 39.148-11.42 12.51-5.97 27.303-17.512 24.83-30.717-2.656-14.173-4.765-26.623 8.16-38.148z" opacity=".4"/>
        <path fill="#FF6584" d="M246.487 30.417v.747c0 .212 0 .417-.03.642v.133c0 .18-.02.359-.037.534v.154a.567.567 0 0 1 0 .084c0 .162-.025.325-.042.487-.017.163-.029.259-.042.392-.037.321-.079.643-.129.964-.029.212-.062.417-.096.633a.18.18 0 0 0 0 .046c-.02.104-.037.209-.058.317-.02.109-.02.121-.033.184-.013.062 0 .108-.034.166-.033.059-.041.226-.066.334-.026.108-.046.22-.071.333-.025.113-.034.163-.055.246-.02.084-.062.28-.095.417a.054.054 0 0 0 0 .025l-.076.288-.087.35c-.038.142-.08.284-.117.417 0 .042 0 .075-.033.113l-.125.417c-.134.442-.28.884-.417 1.322l-.15.417-.088.229a29.604 29.604 0 0 1-4.065 7.305c-.1.142-.209.28-.313.417a31.13 31.13 0 0 1-2.564 2.919l-42.635 42.638L152.4 51.45a30.192 30.192 0 0 1-3.335-3.97 29.187 29.187 0 0 1-1.735-2.768 30.167 30.167 0 0 1-3.46-18.776c.133-.959.316-1.914.541-2.86.046-.192.096-.384.146-.572.025-.096.05-.196.075-.287l.046-.175.125-.417c.1-.33.2-.66.309-.989l.154-.45c.225-.638.467-1.25.734-1.893l.163-.371c.083-.188.166-.375.254-.563.142-.3.288-.6.417-.896l.037-.067c.067-.138.138-.267.209-.417l.246-.455c.104-.187.213-.375.32-.562.051-.088.105-.176.155-.267.05-.092.063-.096.092-.15v-.03c.067-.108.133-.216.204-.325.071-.108.155-.246.234-.367.175-.27.354-.542.538-.809l.196-.279.246-.338c.083-.12.17-.237.262-.354l.317-.417c.1-.121.196-.246.292-.367l.104-.125.213-.259c.108-.133.22-.262.334-.392l.145-.17.025-.03.255-.283.283-.313c.267-.288.542-.575.834-.834l.33-.325.513-.484c.112-.104.225-.208.341-.308.117-.1.267-.242.417-.359l.267-.225c.088-.08.18-.154.267-.225.18-.15.363-.296.542-.417l.275-.217c.459-.35.922-.688 1.397-1.013l.284-.192.287-.188.271-.175.417-.25.2-.12.292-.172c.392-.23.784-.45 1.18-.659l.238-.125.367-.187.304-.15.305-.142.304-.146.309-.138.308-.133c.417-.18.834-.346 1.251-.505l.271-.167.334-.12.296-.105.25-.083.575-.184.296-.091.238-.067.234-.067c.139-.041.278-.079.417-.112l.55-.142a30.436 30.436 0 0 1 1.71-.367l.233-.042.325-.054.334-.054.417-.063.246-.033c.55-.07 1.1-.13 1.668-.17H175.307c.134 0 .271 0 .417.024h.284c.442.033.884.08 1.321.13l.592.079.417.058.33.054.33.054.216.038c.57.105 1.137.226 1.701.363l.692.179.192.054.296.084c.192.054.384.108.572.17l.25.08c.417.128.834.267 1.25.417l.284.104.371.142.559.225c.217.092.417.183.638.28l.25.108.342.162.304.142.3.15.38.192.3.158c.234.125.467.25.697.384l.291.167c.342.196.676.417 1.01.613l.27.175.288.187.284.192.187.13c.417.279.797.57 1.189.87l.275.218c.18.141.363.287.542.417.087.07.18.146.267.225l.267.225.417.359c.116.1.229.204.341.308l.48.509.33.325.333-.325.509-.484c.112-.104.225-.208.342-.308.116-.1.266-.242.417-.359l.266-.225c.088-.08.18-.154.267-.225.18-.15.363-.296.542-.417l.275-.217c.46-.35.922-.688 1.397-1.013l.284-.192.288-.188.27-.175.397-.25.2-.12.292-.172c.392-.23.784-.45 1.18-.659l.237-.125.367-.187.305-.15.304-.142.304-.146.309-.138.309-.133c.416-.18.833-.346 1.25-.505.1-.037.205-.079.309-.112l.33-.121.3-.105.246-.083.575-.183.296-.092.238-.067.233-.067c.138-.041.275-.079.417-.112l.546-.142a30.436 30.436 0 0 1 1.71-.367l.233-.041.326-.055.333-.054.417-.062.246-.034c.55-.07 1.101-.13 1.668-.17H217.933c.134 0 .271 0 .417.024h.284c.442.034.884.08 1.321.13l.592.079.417.058.33.054.33.055.216.037c.57.106 1.137.227 1.701.363l.692.18.192.053.296.084c.192.054.384.108.576.17l.246.08c.417.13.834.27 1.25.417l.28.104.371.142.559.225c.217.092.417.183.638.28l.25.108.342.162.304.142.3.15.38.192.304.159c.23.125.463.25.692.383l.292.167c.342.196.68.417 1.01.613l.27.175.288.188.283.191h.021l.188.13c.417.279.796.57 1.188.871l.275.217c.18.142.363.288.543.417.087.07.179.146.266.225l.267.225.346.309c.117.104.234.208.346.317l.196.179c.011.009.02.018.03.03.112.1.22.208.333.312l.15.146c.059.062.117.12.18.18l.329.337c.167.17.333.346.496.525a28.238 28.238 0 0 1 .75.838l.493.588a31.938 31.938 0 0 1 1.584 2.127l.2.304c.075.108.142.217.213.325l.18.28c.1.162.2.32.295.483l.263.45c.054.092.108.184.158.276l.121.217.121.216.175.33.171.33c.392.766.748 1.549 1.068 2.347l.137.338c.13.329.25.654.367.988l.104.3c.046.142.096.283.138.417.042.133.083.254.121.383l.075.242c.038.117.07.234.104.35.034.117.08.288.121.418.063.233.121.467.18.704l.087.367c.042.175.08.35.117.525 0 .076.029.15.046.226.016.075.041.2.058.3.017.1.033.158.046.238l.037.2c0 .062 0 .125.034.187.033.063 0 .121.029.184l.063.375c0 .125.033.25.054.375.02.125.037.28.054.417.017.138.033.267.046.417l.025.23c0 .137.029.275.042.417v.204c0 .142.025.283.033.417.002.01.002.02 0 .029v.538c0 .15 0 .3.02.45v.463c.05.325.05.621.047.917z"/>
        <path fill="#000" d="M246.487 30.417v.747c0 .212 0 .417-.03.642v.133c0 .18-.02.359-.037.534v.154a.567.567 0 0 1 0 .084c0 .162-.025.325-.042.487-.017.163-.029.259-.042.392-.037.321-.079.643-.129.964-.029.212-.062.417-.096.633a.18.18 0 0 0 0 .046c-.02.104-.037.209-.058.317-.02.109-.02.121-.033.184-.013.062 0 .108-.034.166-.033.059-.041.226-.066.334-.026.108-.046.22-.071.333-.025.113-.034.163-.055.246-.02.084-.062.28-.095.417a.054.054 0 0 0 0 .025l-.076.288-.087.35c-.038.142-.08.284-.117.417 0 .042 0 .075-.033.113l-.125.417c-.134.442-.28.884-.417 1.322l-.15.417-.088.229a30.167 30.167 0 0 0-13.15-32.523 30.138 30.138 0 0 0-37.543 4.178 30.217 30.217 0 0 0-3.683-3.127 29.688 29.688 0 0 0-3.119-1.977 30.209 30.209 0 0 0-29.029 0 29.8 29.8 0 0 0-4.282 2.86 30.338 30.338 0 0 0-5.837 6.176c-.6.84-1.157 1.712-1.668 2.61a.15.15 0 0 1 0 .038c-.473.838-.903 1.7-1.288 2.58a27.85 27.85 0 0 0-.605 1.468c.046-.191.096-.383.146-.57.025-.097.05-.197.075-.289.025-.091.03-.116.046-.175l.125-.417c.1-.33.2-.659.308-.988l.155-.45c.225-.638.467-1.251.734-1.893l.162-.371c.084-.188.167-.376.255-.563.141-.3.287-.6.417-.897l.037-.066c.067-.138.138-.267.209-.417l.246-.455c.104-.187.212-.375.32-.563.05-.087.105-.175.155-.267.05-.091.062-.096.092-.15v-.029c.066-.108.133-.217.204-.325.07-.109.154-.246.233-.367.176-.271.355-.542.538-.809l.196-.28.246-.337c.084-.121.171-.238.263-.354l.317-.417c.1-.121.196-.246.292-.367l.104-.125.213-.259c.108-.133.22-.263.333-.392l.146-.17.025-.03.254-.284.284-.312c.267-.288.542-.576.834-.834l.33-.325.512-.484c.113-.104.225-.209.342-.309.117-.1.267-.242.417-.358l.267-.225c.087-.08.18-.155.267-.226.18-.15.363-.296.542-.417l.275-.216c.459-.35.922-.688 1.397-1.014l.283-.191.288-.188.271-.175.417-.25.2-.121.292-.171c.392-.23.784-.45 1.18-.659l.238-.125.367-.188.304-.15.304-.142.305-.146.308-.137.309-.134c.417-.179.834-.346 1.25-.504l.28-.184.334-.12.296-.105.25-.083.575-.184.296-.091.238-.067.234-.067c.139-.041.278-.079.417-.112l.55-.142a30.436 30.436 0 0 1 1.71-.367l.233-.042.325-.054.334-.054.417-.063.246-.033c.55-.07 1.1-.13 1.668-.17H175.307c.134 0 .271 0 .417.024h.284c.442.033.884.08 1.321.13l.592.079.417.058.33.054.33.054.216.038c.57.105 1.137.226 1.701.363l.692.179.192.054.296.084c.192.054.384.108.572.17l.25.08c.417.128.834.267 1.25.417l.284.104.371.142.559.225c.217.092.417.183.638.28l.25.108.342.162.304.142.3.15.38.192.3.158c.234.125.467.25.697.384l.291.167c.342.196.676.417 1.01.613l.27.175.288.187.284.192.187.13c.417.279.797.57 1.189.87l.275.218c.18.141.363.287.542.417.087.07.18.146.267.225l.267.225.417.359c.116.1.229.204.341.308l.48.509.33.325.333-.325.509-.484c.112-.104.225-.208.342-.308.116-.1.266-.242.417-.359l.266-.225c.088-.08.18-.154.267-.225.18-.15.363-.296.542-.417l.275-.217c.46-.35.922-.688 1.397-1.013l.284-.192.288-.188.27-.175.397-.25.2-.12.292-.172c.392-.23.784-.45 1.18-.659l.237-.125.367-.187.305-.15.304-.142.304-.146.309-.138.309-.133c.416-.18.833-.346 1.25-.505.1-.037.205-.079.309-.112l.33-.121.3-.105.246-.083.575-.183.296-.092.238-.067.233-.067c.138-.041.275-.079.417-.112l.546-.142a30.436 30.436 0 0 1 1.71-.367l.233-.041.326-.055.333-.054.417-.062.246-.034c.55-.07 1.101-.13 1.668-.17H217.933c.134 0 .271 0 .417.024h.284c.442.034.884.08 1.321.13l.592.079.417.058.33.054.33.055.216.037c.57.106 1.137.227 1.701.363l.692.18.192.053.296.084c.192.054.384.108.576.17l.246.08c.417.13.834.27 1.25.417l.28.104.371.142.559.225c.217.092.417.183.638.28l.25.108.342.162.304.142.3.15.38.192.304.159c.23.125.463.25.692.383l.292.167c.342.196.68.417 1.01.613l.27.175.288.188.283.191h.021l.188.13c.417.279.796.57 1.188.871l.275.217c.18.142.363.288.543.417.087.07.179.146.266.225l.267.225.346.309c.117.104.234.208.346.317l.196.179c.011.009.02.018.03.03.112.1.22.208.333.312l.15.146c.059.062.117.12.18.18l.329.337c.167.17.333.346.496.525a28.238 28.238 0 0 1 .75.838l.493.588a31.938 31.938 0 0 1 1.584 2.127l.2.304c.075.108.142.217.213.325l.18.28c.1.162.2.32.295.483l.263.45c.054.092.108.184.158.276l.121.217.121.216.175.33.171.33c.392.766.748 1.549 1.068 2.347l.137.338c.13.329.25.654.367.988l.104.3c.046.142.096.283.138.417.042.133.083.254.121.383l.075.242c.038.117.07.234.104.35.034.117.08.288.121.418.063.233.121.467.18.704l.087.367c.042.175.08.35.117.525 0 .076.029.15.046.226.016.075.041.2.058.3.017.1.033.158.046.238l.037.2c0 .062 0 .125.034.187.033.063 0 .121.029.184l.063.375c0 .125.033.25.054.375.02.125.037.28.054.417.017.138.033.267.046.417l.025.23c0 .137.029.275.042.417v.204c0 .142.025.283.033.417.002.01.002.02 0 .029v.538c0 .15 0 .3.02.45v.463c.05.325.05.621.047.917z" opacity=".1"/>
        <path fill="#FF6584" d="M316.257 123.337V124a.054.054 0 0 1 0 .025v.266l-.038.297c0 .063-.02.13-.029.192v.154a.209.209 0 0 1 0 .05v.104a.834.834 0 0 1-.02.1v.075c0 .025 0 .088-.03.13l-.025.087-.025.105-.038.129v.037a.861.861 0 0 1-.041.13c-.038.137-.084.27-.13.417 0 .045-.033.087-.045.129a.509.509 0 0 1-.03.07 8.981 8.981 0 0 1-1.217 2.223l-.096.13c-.242.312-.504.609-.784.887l-13.155 13.026-13.013-13.013a9.523 9.523 0 0 1-1.551-2.043 9.24 9.24 0 0 1-1.114-5.233c0-.167.034-.334.059-.5.041-.292.095-.584.166-.872 0-.058.025-.117.042-.175l.025-.087v-.055l.038-.129c.029-.1.062-.2.095-.3l.046-.138c.067-.197.142-.389.226-.575l.05-.117.075-.17c.045-.093.087-.184.137-.272v-.02l.067-.122.075-.137c.03-.059.063-.117.096-.175l.05-.08.025-.045c0-.034.037-.067.058-.1.021-.034.05-.076.071-.113.021-.038.109-.167.167-.246l.058-.088.075-.104.08-.104.1-.13.087-.112.034-.038.062-.079.104-.12.042-.05.08-.088c.024-.034.058-.063.087-.096a8.73 8.73 0 0 1 .25-.263l.1-.096.154-.15.105-.096.125-.108.079-.067.083-.07.163-.134.088-.067c.137-.104.279-.208.416-.308l.088-.059.083-.058.084-.05.125-.08.058-.033.092-.054c.117-.07.238-.138.359-.2l.07-.038.113-.058.092-.046.096-.046.091-.042.092-.041.096-.042.38-.154.095-.034.1-.037.092-.033.075-.025.175-.055.092-.029.071-.02.07-.022.13-.033.167-.042c.17-.045.346-.083.521-.112H292.798c.167-.021.334-.042.505-.054h1.397l.417.041.183.025h.388c.175.03.346.067.521.109l.209.054h.058l.092.025.175.054.075.021c.13.042.254.083.38.133l.087.03.113.046.17.066.192.084.08.037.104.046.091.046.092.046.117.058.092.05.212.113.088.054c.104.058.208.12.308.188l.084.05.087.058.088.058.058.042.363.263a.65.65 0 0 0 .083.066l.167.134.08.07.083.067.12.109.105.096.154.15c.037.03.072.062.105.096a.73.73 0 0 1 .1-.096l.154-.15.104-.096.121-.109.083-.066.08-.071.166-.134a.65.65 0 0 0 .084-.066l.417-.309.087-.058.088-.059.083-.05.121-.079.063-.033.087-.054c.12-.073.24-.14.363-.2l.071-.038.113-.058.091-.046.092-.046.096-.042.092-.042.096-.041.379-.155.096-.033.1-.037.092-.034.075-.025.175-.054.092-.03.07-.02.071-.02.125-.034.167-.042c.175-.044.35-.082.526-.112H305.812c.17-.021.338-.042.504-.055h1.397l.417.042c.063 0 .121 0 .18.025h.391a7.6 7.6 0 0 1 .517.108l.213.055h.058l.092.025.175.054.075.02c.125.042.255.084.38.134l.083.03.113.045.17.067.197.083.075.038.104.046.096.046.092.045.112.059.096.05.209.112.091.055c.104.058.205.12.309.187l.083.05.084.059.087.058.054.042c.125.083.246.17.363.262l.088.067.162.134.084.07.079.067.108.096.105.096.058.054.1.096.046.042.054.054.1.104.154.159c.03.033.059.062.084.096l.146.162.15.18c.17.208.333.416.484.65l.062.092.063.1.054.083.092.15.079.134.05.087.037.067.034.067c.02.03.038.062.054.096l.05.104c.12.233.23.47.33.713 0 .037.029.07.041.104l.113.3c0 .034 0 .063.029.096s.029.084.046.13a.955.955 0 0 1 .033.116l.025.071c0 .038.02.07.03.108l.037.134c.02.07.037.142.054.212.012.037.021.075.03.113 0 .054.024.108.033.163.008.054 0 .046 0 .066v1.289a.53.53 0 0 0 0 .083v.28c0 .045.254.191.25.283z"/>
        <path fill="#000" d="M316.257 123.337V124a.054.054 0 0 1 0 .025v.266l-.038.297c0 .063-.02.13-.029.192v.154a.209.209 0 0 1 0 .05v.104a.834.834 0 0 1-.02.1v.075c0 .025 0 .088-.03.13l-.025.087-.025.105-.038.129v.037a.861.861 0 0 1-.041.13c-.038.137-.084.27-.13.417 0 .045-.033.087-.045.129a.509.509 0 0 1-.03.07 9.223 9.223 0 0 0-4.516-10.224 9.227 9.227 0 0 0-9.731.547c-.429.304-.83.644-1.201 1.017a9.327 9.327 0 0 0-1.126-.959 9.173 9.173 0 0 0-11.888.959 9.507 9.507 0 0 0-1.518 1.993 8.656 8.656 0 0 0-.575 1.239c0-.059.025-.117.042-.175l.025-.088v-.054l.038-.13c.029-.1.062-.2.096-.3l.045-.137c.067-.197.142-.39.226-.576l.05-.116.075-.171c.046-.092.087-.184.137-.271v-.021l.067-.121.075-.138c.03-.058.063-.116.096-.175l.05-.079.025-.046c0-.033.038-.067.058-.1.021-.033.05-.075.071-.112.021-.038.109-.167.167-.246l.058-.088.075-.104.08-.105.1-.129.087-.112.034-.038.062-.08.104-.12.042-.05.08-.088c.024-.033.058-.062.087-.096a8.73 8.73 0 0 1 .25-.262l.1-.096.154-.15.105-.096.125-.109.079-.066.083-.071.163-.134.088-.066c.137-.105.279-.209.417-.309l.087-.058.084-.059.083-.05.125-.079.058-.033.092-.054c.117-.071.238-.138.359-.2l.07-.038.113-.058.092-.046.096-.046.092-.042.091-.042.096-.041.38-.155.095-.033.1-.037.092-.034.075-.025.175-.054.092-.03.071-.02.071-.02.13-.034.166-.042c.171-.046.346-.083.521-.113H292.95c.166-.02.333-.041.504-.054h1.397l.417.042.183.025h.388c.175.03.346.067.521.108l.209.055h.058l.092.025.175.054.075.02c.13.042.254.084.38.134l.087.03.113.045.17.067.192.083.08.038.104.046.092.046.091.045.117.059.092.05.212.112.088.055c.104.058.208.12.309.187l.083.05.088.059.087.058.058.042.363.262a.65.65 0 0 0 .084.067l.166.134.08.07.083.067.12.109.105.095.154.15c.037.03.072.062.105.096a.73.73 0 0 1 .1-.095l.154-.15.104-.096.121-.109.084-.067.079-.07.167-.134a.65.65 0 0 0 .083-.067l.417-.308.087-.059.088-.058.083-.05.121-.08.063-.033.087-.054c.12-.072.24-.139.363-.2l.071-.037.113-.059.091-.046.092-.046.096-.041.092-.042.096-.042.38-.154.095-.033.1-.038.092-.033.075-.025.175-.054.092-.03.07-.02.071-.021.126-.034.166-.041c.175-.045.35-.082.526-.113H305.962c.17-.02.338-.042.504-.054h1.397l.417.042c.063 0 .121 0 .18.025h.391a7.6 7.6 0 0 1 .517.108l.213.054h.059l.091.025.175.054.075.021c.126.042.255.084.38.134l.083.029.113.046.17.067.197.083.075.037.104.046.096.046.092.046.112.058.096.05.209.113.091.054c.105.059.205.121.309.188l.083.05.084.058.087.059.054.041c.126.084.246.171.363.263l.088.067.162.133.084.071.079.067.108.096.105.096.058.054.1.096.046.041.054.055.1.104.155.158c.029.034.058.063.083.096l.146.163.15.18c.17.208.334.416.484.65l.062.091.063.1.054.084.092.15.079.133.05.088.037.067.034.066c.02.03.038.063.054.096l.05.104c.121.234.23.472.33.713 0 .038.029.071.041.105l.113.3c0 .033 0 .062.029.096.03.033.03.083.046.129a.955.955 0 0 1 .033.117l.025.07c0 .038.021.072.03.11l.037.132c.02.071.037.142.054.213.012.037.021.075.03.113 0 .054.024.108.033.162.008.055 0 .046 0 .067v1.288a.53.53 0 0 0 0 .084v.279c0 .046.104.225.1.317z" opacity=".1"/>
        <path fill="#FF6584" d="M255.935 106.07v.851c.002.04.002.078 0 .117 0 .1 0 .2-.038.296-.037.096 0 .13-.029.192a.771.771 0 0 1 0 .096.325.325 0 0 1 0 .058V107.83l-.025.1a.484.484 0 0 1 0 .075 1.176 1.176 0 0 1-.029.13.667.667 0 0 0 0 .087 1.042 1.042 0 0 0-.03.109l-.037.129a.1.1 0 0 1 0 .033l-.037.134c-.042.133-.084.27-.134.417 0 .041-.029.083-.046.125l-.025.07a9.173 9.173 0 0 1-1.221 2.227l-.096.125c-.24.314-.501.612-.78.893l-13.013 13.009-13.014-13.01a9.232 9.232 0 0 1-1.017-1.213 9.002 9.002 0 0 1-.534-.834 9.173 9.173 0 0 1-1.109-5.228c0-.171.034-.334.054-.5.042-.297.096-.584.167-.876 0-.059.03-.117.046-.171a.592.592 0 0 1 .02-.092.233.233 0 0 1 0-.05l.038-.133c.03-.1.059-.2.092-.3l.05-.138c.067-.196.142-.388.221-.58l.05-.112c.025-.059.05-.117.08-.171.029-.055.087-.184.133-.276v-.02l.062-.126.075-.137.1-.171a.834.834 0 0 1 .046-.083l.03-.046.062-.1c.021-.038.046-.075.071-.113l.163-.246.062-.083.075-.105.08-.108.095-.13c.029-.037.06-.074.092-.108a.359.359 0 0 1 .03-.041l.066-.075.1-.121.046-.055.075-.087.088-.096.25-.259.1-.1.158-.146c.033-.034.068-.066.104-.095l.121-.109.084-.07.079-.067.167-.134.083-.067c.138-.108.284-.212.417-.308l.088-.059.087-.058.084-.054.12-.075.059-.038.092-.054c.116-.067.237-.138.358-.2l.075-.038-.008-.095.092-.046.091-.042.092-.046.096-.042.092-.041.383-.155.092-.033.1-.037.092-.03.08-.025.174-.058.088-.025.075-.02.07-.022.126-.037.167-.042.52-.113h.476c.167-.02.338-.037.505-.05h1.397c.133 0 .27.021.417.038l.179.025h.388c.175.033.35.07.52.113l.213.054h.059c.03.006.059.015.087.025l.175.05.08.025.375.13.088.032.112.042.171.071.196.083.075.034.104.05.092.041.092.046.117.059.091.05.213.117.092.05.304.187.083.054.088.059.088.058.058.038a8.146 8.146 0 0 1 .613.467l.083.066.08.071.12.109c.037.03.072.061.105.096l.158.145.1.1.1-.1.155-.145.104-.096.125-.109.08-.07.082-.067c.055-.046.109-.092.167-.134a8.92 8.92 0 0 1 .5-.375l.088-.058.088-.059.079-.054.125-.075.058-.038.092-.054c.117-.066.238-.137.359-.2l.07-.037.113-.059.096-.046.092-.041.092-.046.095-.042.092-.042.38-.154.096-.033.1-.038.091-.029.075-.025.175-.058.092-.025.071-.021.071-.021.13-.038.166-.041c.175-.042.346-.08.521-.113H245.528c.166-.02.333-.037.504-.05h1.397l.417.038.18.025h.387c.175.033.346.07.521.112l.213.054h.054a.588.588 0 0 1 .092.025l.175.05.075.025.38.13.087.033.112.042.171.07.196.084.075.033.105.05.091.042.092.046.117.058.092.05.212.117.088.05.308.188.084.054.087.058.088.059.058.037.363.267.083.067.167.133.08.067.083.07.104.093.108.096.059.058.104.096.046.046.054.054.1.1.15.163.088.095c.05.05.096.105.142.159l.15.18c.17.212.333.416.483.65l.063.091.063.1c.02.029.037.058.054.088.033.046.062.096.091.146.03.05.055.092.08.138l.05.083.037.067.038.066.05.1c0 .034.037.067.054.1a7.886 7.886 0 0 1 .367.822c.042.1.08.2.113.3 0 .03.02.063.033.092l.042.13.037.116c0 .025 0 .05.021.075.02.025 0 .07.033.104l.038.134c0 .07.037.146.054.216l.025.113.038.158v.071a.596.596 0 0 1 0 .092.417.417 0 0 1 0 .071.321.321 0 0 1 0 .063v.112c.002.038.002.075 0 .113.002.039.002.078 0 .116 0 .042 0 .084.02.126v.954c.184.138.184.23.184.33z"/>
        <path fill="#000" d="M255.935 106.07v.851c.002.04.002.078 0 .117 0 .1 0 .2-.038.296-.037.096 0 .13-.029.192a.771.771 0 0 1 0 .096.325.325 0 0 1 0 .058V107.83l-.025.1a.484.484 0 0 1 0 .075 1.176 1.176 0 0 1-.029.13.667.667 0 0 0 0 .087 1.042 1.042 0 0 0-.03.109l-.037.129a.1.1 0 0 1 0 .033l-.037.134c-.042.133-.084.27-.134.417 0 .041-.029.083-.046.125l-.025.07a9.198 9.198 0 0 0-.062-4.544 9.198 9.198 0 0 0-15.39-4.116 9.094 9.094 0 0 0-2.076-1.56 9.215 9.215 0 0 0-10.937 1.56c-.431.362-.828.762-1.185 1.197-.183.259-.35.525-.504.796a9.893 9.893 0 0 0-.392.788c-.067.146-.125.297-.184.447 0-.059.03-.117.046-.171a.592.592 0 0 1 .021-.092.234.234 0 0 1 0-.05l.038-.134c.029-.1.058-.2.091-.3l.05-.137c.067-.196.142-.388.221-.58l.05-.112c.025-.059.05-.117.08-.171.029-.055.087-.184.133-.276v-.02l.063-.126.075-.137.1-.171a.834.834 0 0 1 .046-.083l.029-.046.062-.1c.021-.038.046-.075.071-.113l.163-.246.062-.083.075-.105.08-.108.096-.13c.028-.037.059-.074.091-.108a.359.359 0 0 1 .03-.041l.066-.075.1-.121.046-.055.075-.087.088-.096.25-.259.1-.1.158-.146c.033-.034.068-.066.105-.095l.12-.109.084-.07.08-.067.166-.134.083-.067c.138-.108.284-.212.417-.308l.088-.059.087-.058.084-.054.12-.075.06-.038.09-.054c.118-.067.239-.138.36-.2l.075-.038.158-.07.092-.046.091-.042.092-.046.096-.042.092-.041.383-.155.092-.033.1-.037.092-.03.08-.025.174-.058.088-.025.075-.02.07-.022.126-.037.167-.042.52-.113h.476c.167-.02.338-.037.505-.05h1.397c.133 0 .27.021.417.038l.179.025h.388c.175.033.35.07.52.113l.213.054h.059c.03.006.059.015.087.025l.175.05.08.025.375.13.088.032.112.042.171.071.196.083.075.034.104.05.092.041.092.046.117.059.091.05.213.117.092.05.304.187.083.054.088.059.088.058.058.038a8.146 8.146 0 0 1 .613.467l.083.066.08.071.12.109c.037.03.072.061.105.096l.158.145.1.1.1-.1.155-.145.104-.096.125-.109.08-.07.082-.067c.055-.046.109-.092.167-.134a8.92 8.92 0 0 1 .5-.375l.088-.058.088-.059.079-.054.125-.075.058-.038.092-.054c.117-.066.238-.137.359-.2l.07-.037.113-.059.096-.046.092-.041.092-.046.095-.042.092-.042.38-.154.096-.033.1-.038.091-.029.075-.025.175-.058.092-.025.071-.021.071-.021.13-.038.166-.041c.175-.042.346-.08.521-.113H245.528c.166-.02.333-.037.504-.05h1.397l.417.038.18.025h.387c.175.033.346.07.521.112l.213.054h.054a.588.588 0 0 1 .092.025l.175.05.075.025.38.13.087.033.112.042.171.07.196.084.075.033.105.05.091.042.092.046.117.058.092.05.212.117.088.05.308.188.084.054.087.058.088.059.058.037.363.267.083.067.167.133.08.067.083.07.104.093.108.096.059.058.104.096.046.046.054.054.1.1.15.163.088.095c.05.05.096.105.142.159l.15.18c.17.212.333.416.483.65l.063.091.063.1c.02.029.037.058.054.088.033.046.062.096.091.146.03.05.055.092.08.138l.05.083.037.067.038.066.05.1c0 .034.037.067.054.1a7.886 7.886 0 0 1 .367.822c.042.1.08.2.113.3 0 .03.02.063.033.092l.042.13.037.116c0 .025 0 .05.021.075.02.025 0 .07.033.104l.038.134c0 .07.037.146.054.216l.025.113.038.158v.071a.596.596 0 0 1 0 .092.417.417 0 0 1 0 .071.321.321 0 0 1 0 .063v.112c.002.038.002.075 0 .113.002.039.002.078 0 .116 0 .042 0 .084.02.126v.954c.184.138.184.23.184.33z" opacity=".1"/>
        <path fill="#FF6584" d="M132.91 115.21a.534.534 0 0 1 0 .08v.754c.003.04.003.081 0 .121 0 .1-.02.196-.037.296-.017.1 0 .13-.03.192a.655.655 0 0 1 0 .096V116.962l-.024.1a.484.484 0 0 1 0 .075c0 .042 0 .087-.03.13a.667.667 0 0 0-.02.087.971.971 0 0 0-.03.104l-.037.13a.12.12 0 0 1 0 .037l-.037.129a11.824 11.824 0 0 1-.18.546l-.025.071a9.136 9.136 0 0 1-1.221 2.222l-.096.13c-.24.312-.501.609-.78.888l-13.013 13.013-13.014-13.013a9.286 9.286 0 0 1-1.021-1.21 13.205 13.205 0 0 1-.53-.833 9.202 9.202 0 0 1-1.109-5.233c0-.167.033-.334.054-.5.042-.292.096-.584.167-.872 0-.058.03-.117.042-.175l.025-.088a.271.271 0 0 1 0-.054c0-.041.02-.087.033-.129.03-.1.058-.2.092-.3.033-.1.033-.092.046-.138.07-.197.144-.389.225-.575l.05-.117c.025-.054.05-.113.079-.171.03-.058.088-.183.133-.271v-.02l.063-.122.075-.137.1-.175.046-.08.03-.046.062-.1c.02-.037.046-.075.07-.112l.163-.246.063-.088.075-.104c.025-.033.05-.07.08-.104a1.48 1.48 0 0 1 .095-.13l.092-.112.029-.038.062-.079.105-.12.046-.05.075-.088.087-.096.25-.263.1-.096.159-.15.104-.096.121-.108.083-.067.08-.07.166-.134.084-.067c.137-.104.28-.208.417-.309l.087-.058.088-.058.083-.05a1.21 1.21 0 0 1 .121-.08l.059-.033.091-.054c.117-.071.238-.138.359-.2l.075-.042.037-.058.092-.046.092-.046.092-.042.096-.041.091-.042.384-.154.092-.034.1-.037.091-.034.08-.025.175-.054.087-.03.075-.02h.071l.125-.033.167-.042c.175-.046.346-.083.521-.113H109.311l.125-.02h.075c.166 0 .337-.042.504-.055H111.4l.416.042.18.02.12.022h.268c.175.029.35.066.52.108l.213.054h.059l.087.025.175.055.075.02c.13.042.255.084.38.134l.087.03.113.045.171.067.196.083.075.038.104.045.092.046.092.046.117.059.091.05.213.112.087.054c.105.059.209.121.309.188l.083.05.088.058.088.059c.02.011.04.025.058.041.122.084.243.171.363.263l.083.067.167.133.079.071.083.067.121.108.105.096.158.15.1.096.1-.096.154-.15.105-.096.125-.108.079-.067.083-.07.167-.134.084-.067c.137-.104.279-.208.417-.308l.087-.059.088-.058.079-.05.125-.08.058-.033.092-.054c.117-.07.238-.138.359-.2a.417.417 0 0 0 .07-.042l.113-.054.092-.046.096-.046.091-.041.096-.042.092-.042.38-.154.095-.033.1-.038.092-.033.075-.025.175-.055.092-.029.071-.02h.07l.13-.034.167-.042c.17-.046.346-.083.521-.112h.271l.13-.021h.075c.166 0 .333-.042.504-.054h1.397l.417.041.183.021.121.021h.267c.175.03.346.067.521.109l.209.054h.058l.092.025.175.054.075.02c.13.042.254.084.38.134l.087.03.113.045.17.067.192.083.08.038.104.046.092.046.091.046.117.058.092.05.212.113.088.054c.104.058.208.12.309.187l.083.05.087.059.088.058.058.042.363.263.084.066.166.134.08.07.083.067.104.096c.037.03.072.062.104.096l.063.054.104.096.042.042.058.054.1.104.15.159.088.096.142.162.15.18c.17.208.333.417.484.65l.062.092.063.1c.02.026.038.054.054.083.033.05.062.1.092.15l.079.134.05.087.037.067.038.067.05.096c.02.033.037.07.054.104.12.232.229.47.325.713l.042.104c.042.1.08.2.113.3l.033.096c0 .042.03.084.042.13l.037.116c0 .025 0 .05.021.071l.033.109c.014.043.025.088.034.133.02.07.037.142.058.213l.025.112.038.163v.067a.709.709 0 0 1 0 .091.484.484 0 0 1 0 .075.246.246 0 0 1 0 .059v.229c.002.037.002.075 0 .113v.129c.002.04.002.08 0 .12v.263a1.25 1.25 0 0 1 0 .13.504.504 0 0 0 0 .079v.363c0 .046.192.175.192.267z"/>
        <path fill="#000" d="M132.91 115.21a.534.534 0 0 1 0 .08v.754c.003.04.003.081 0 .121 0 .1-.02.196-.037.296-.017.1 0 .13-.03.192a.655.655 0 0 1 0 .096V116.962l-.024.1a.484.484 0 0 1 0 .075c0 .042 0 .087-.03.13a.667.667 0 0 0-.02.087.971.971 0 0 0-.03.104l-.037.13a.12.12 0 0 1 0 .037l-.037.129a11.824 11.824 0 0 1-.18.546l-.025.071a9.215 9.215 0 0 0-.062-4.549 9.202 9.202 0 0 0-4.112-5.354c-.162-.108-.333-.204-.5-.3a9.236 9.236 0 0 0-8.86 0 9.215 9.215 0 0 0-2.076 1.564 9.015 9.015 0 0 0-1.127-.96 9.131 9.131 0 0 0-.95-.604 9.236 9.236 0 0 0-8.86 0c-.46.253-.897.546-1.306.876a9.173 9.173 0 0 0-2.285 2.68 9.893 9.893 0 0 0-.392.789c-.066.15-.125.3-.183.45 0-.058.029-.117.042-.175l.025-.088a.271.271 0 0 1 0-.054c0-.041.02-.087.033-.129.03-.1.058-.2.092-.3.033-.1.033-.092.046-.138.069-.197.144-.389.225-.575l.05-.117c.025-.054.05-.113.079-.171.03-.058.088-.183.133-.271v-.02l.063-.122.075-.137.1-.175.046-.08.03-.046.062-.1c.02-.037.045-.075.07-.112l.163-.246.063-.088.075-.104c.025-.033.05-.07.079-.104a1.48 1.48 0 0 1 .096-.13l.092-.112.029-.038.062-.079.105-.12.045-.05.075-.088.088-.096.25-.263.1-.096.159-.15.104-.096.12-.108.084-.067.08-.07.166-.134.084-.067c.137-.104.279-.208.417-.309l.087-.058.088-.058.083-.05a1.21 1.21 0 0 1 .121-.08l.058-.033.092-.054c.117-.071.238-.138.359-.2l.075-.042.187-.058.092-.046.092-.046.092-.042.096-.041.091-.042.384-.154.092-.034.1-.037.091-.034.08-.025.175-.054.087-.03.075-.02h.071l.125-.033.167-.042c.175-.046.346-.083.521-.113H109.311l.125-.02h.075c.166 0 .337-.042.504-.055H111.4l.416.042.18.02.12.022h.268c.175.029.35.066.52.108l.213.054h.059l.087.025.175.055.075.02c.13.042.255.084.38.134l.087.03.113.045.171.067.196.083.075.038.104.045.092.046.092.046.117.059.091.05.213.112.087.054c.105.059.209.121.309.188l.083.05.088.058.088.059c.02.011.04.025.058.041.122.084.243.171.363.263l.083.067.167.133.079.071.083.067.121.108.105.096.158.15.1.096.1-.096.154-.15.105-.096.125-.108.079-.067.083-.07.167-.134.084-.067c.137-.104.279-.208.417-.308l.087-.059.088-.058.079-.05.125-.08.058-.033.092-.054c.117-.07.238-.138.359-.2a.417.417 0 0 0 .07-.042l.113-.054.092-.046.096-.046.091-.041.096-.042.092-.042.38-.154.095-.033.1-.038.092-.033.075-.025.175-.055.092-.029.071-.02h.07l.13-.034.167-.042c.17-.046.346-.083.521-.112h.271l.13-.021h.075c.166 0 .333-.042.504-.054h1.397l.417.041.183.021.121.021h.267c.175.03.346.067.521.109l.209.054h.058l.092.025.175.054.075.02c.13.042.254.084.38.134l.087.03.113.045.17.067.192.083.08.038.104.046.092.046.091.046.117.058.092.05.212.113.088.054c.104.058.208.12.309.187l.083.05.087.059.088.058.058.042.363.263.084.066.166.134.08.07.083.067.104.096c.037.03.072.062.104.096l.063.054.104.096.042.042.058.054.1.104.15.159.088.096.142.162.15.18c.17.208.333.417.484.65l.062.092.063.1c.02.026.038.054.054.083.033.05.062.1.092.15l.079.134.05.087.037.067.038.067.05.096c.02.033.037.07.054.104.12.232.229.47.325.713l.042.104c.042.1.08.2.113.3l.033.096c0 .042.03.084.042.13l.037.116c0 .025 0 .05.021.071l.033.109c.014.043.025.088.034.133.02.07.037.142.058.213l.025.112.038.163v.067a.709.709 0 0 1 0 .091.484.484 0 0 1 0 .075.246.246 0 0 1 0 .059v.229c.002.037.002.075 0 .113v.129c.002.04.002.08 0 .12v.263a1.25 1.25 0 0 1 0 .13.504.504 0 0 0 0 .079v.363c0 .046.192.175.192.267z" opacity=".1"/>
        <path fill="#FF6584" d="M128.887 181.607v.146a.559.559 0 0 1 0 .084v.446a.054.054 0 0 1 0 .025v.267l-.038.296c0 .062 0 .13-.029.192v.15a.208.208 0 0 1 0 .05.767.767 0 0 1-.02.104.834.834 0 0 1-.022.1v.075c0 .025 0 .088-.029.13l-.025.087-.025.108-.037.13v.033c0 .012-.025.088-.042.133-.038.134-.083.271-.13.417l-.045.125a.363.363 0 0 1-.03.071 9.006 9.006 0 0 1-1.217 2.227l-.096.125c-.242.313-.503.61-.784.888L113.31 201.03l-13.013-13.013a9.524 9.524 0 0 1-1.551-2.043 9.173 9.173 0 0 1-1.11-5.233c0-.167.03-.333.055-.496.042-.296.096-.584.167-.876 0-.058.025-.116.041-.175l.025-.087v-.05l.038-.134c.033-.1.062-.2.096-.3l.046-.138c.07-.196.141-.387.225-.58l-.063-.116.075-.17c.046-.093.088-.184.138-.276v-.02l.067-.122.075-.137c.029-.059.062-.117.096-.171l.05-.084.025-.046c0-.033.037-.066.058-.1.02-.033.05-.075.07-.112l.168-.246c.02-.03.037-.059.058-.084l.075-.104.08-.108.1-.13.087-.112.033-.038.063-.079.104-.12.046-.05.08-.088.12-.105c.08-.087.163-.175.25-.258l.1-.1.155-.15.104-.092.125-.109.08-.07.083-.067c.054-.046.108-.092.166-.134a8.92 8.92 0 0 1 .5-.375l.088-.058a.638.638 0 0 1 .088-.059l.079-.054.125-.075.058-.037.092-.055c.117-.07.238-.137.359-.2l.07-.037.113-.059.092-.045.096-.042.092-.046.091-.042.096-.041.38-.155.096-.033.1-.038.091-.029.075-.025.176-.058.091-.03.071-.02h.071l.13-.038.166-.041c.171-.042.346-.08.521-.113H105.48c.166-.02.333-.038.504-.05H107.367l.417.037.184.025h.388c.175.03.346.067.52.109l.21.058h.058l.091.03.176.05.075.025c.129.037.254.083.38.129l.087.033.112.042.171.07.192.084.08.033.103.05.092.042.092.046.117.058.091.05.213.117.088.05c.104.063.208.121.308.188l.084.054.087.058.088.059.058.037.363.267.083.067.167.133.08.067.083.071.12.108.105.092.154.15.104.1.1-.1.155-.15.104-.092.12-.108.084-.07.08-.068.166-.133.084-.067c.141-.108.283-.212.417-.308l.087-.059.088-.058.083-.054.121-.075.063-.038.087-.054.363-.2.07-.038.113-.058.092-.046.092-.042.096-.046.091-.041.096-.042.38-.154.096-.034.1-.037.091-.03.075-.024.176-.059.091-.029.071-.02h.071l.125-.038.171-.042c.171-.042.346-.08.521-.113H118.48l.504-.05H120.368c.138 0 .271.021.417.038l.18.025h.392c.175.03.346.067.517.108l.212.059h.059l.091.029.175.05.076.025c.125.038.254.083.379.13l.083.033.113.041.17.071.197.084.075.033.104.05.096.042.092.046.117.058.091.05c.071.038.142.075.209.117l.091.05.309.187.083.055.088.058.083.058.055.038c.125.087.246.175.362.267l.088.066.162.134.084.067.08.07.108.092.104.096.058.058.1.096.046.046.054.054.1.1.155.163.087.092.142.162.15.18c.171.212.334.417.484.65l.062.092.063.1.054.088.092.146.079.137.05.084.038.066c0 .021.02.046.033.067.012.02.037.067.054.1s.033.067.054.1c.117.234.225.475.326.717 0 .034.029.067.041.105l.113.3.029.091c0 .042.03.088.046.13.017.041.025.079.033.116l.025.076.03.104.037.133c.02.071.037.142.054.217.012.037.022.075.03.113 0 .05.024.104.033.158v1.359a.588.588 0 0 0 0 .084v.279c0 .046.229.163.225.254z"/>
        <path fill="#000" d="M128.887 181.607v.146a.559.559 0 0 1 0 .084v.446a.054.054 0 0 1 0 .025v.267l-.038.296c0 .062 0 .13-.029.192v.15a.208.208 0 0 1 0 .05.767.767 0 0 1-.02.104.834.834 0 0 1-.022.1v.075c0 .025 0 .088-.029.13l-.025.087-.025.108-.037.13v.033c0 .012-.025.088-.042.133-.038.134-.083.271-.13.417l-.045.125a.363.363 0 0 1-.03.071c.179-.73.264-1.48.255-2.23a9.048 9.048 0 0 0-.313-2.315 9.244 9.244 0 0 0-3.952-5.378 9.202 9.202 0 0 0-10.236.25 8.835 8.835 0 0 0-1.31 1.017 9.327 9.327 0 0 0-1.126-.959 9.21 9.21 0 0 0-11.888.959 9.077 9.077 0 0 0-1.513 1.993 8.656 8.656 0 0 0-.392.788 5.9 5.9 0 0 0-.183.446c0-.058.025-.116.041-.175l.025-.087v-.05l.038-.134c.033-.1.062-.2.096-.3l.046-.137c.07-.196.141-.388.225-.58l.037-.096.075-.17.138-.276v-.02l.067-.122.075-.137c.029-.059.062-.117.096-.171l.05-.084.025-.046c0-.033.037-.066.058-.1.02-.033.05-.075.07-.112l.168-.246c.02-.03.037-.059.058-.084l.075-.104.08-.108.1-.13.087-.112.033-.038.063-.079.104-.12.046-.05.08-.088.12-.105c.08-.087.163-.175.25-.258l.1-.1.155-.15.104-.092.125-.109.08-.07.083-.067c.054-.046.108-.092.166-.134a8.92 8.92 0 0 1 .5-.375l.088-.058a.638.638 0 0 1 .088-.059l.079-.054.125-.075.058-.037.092-.055c.117-.07.238-.137.359-.2l.07-.037.113-.059.092-.045.096-.042.092-.046.091-.042.096-.041.38-.155.096-.033.1-.038.091-.029.075-.025.176-.058.091-.03.071-.02h.071l.13-.038.166-.041c.171-.042.346-.08.521-.113H105.48c.166-.02.333-.038.504-.05H107.367l.417.037.184.025h.388c.175.03.346.067.52.109l.21.058h.058l.091.03.176.05.075.025c.129.037.254.083.38.129l.087.033.112.042.171.07.192.084.08.033.103.05.092.042.092.046.117.058.091.05.213.117.088.05c.104.063.208.121.308.188l.084.054.087.058.088.059.058.037.363.267.083.067.167.133.08.067.083.071.12.108.105.092.154.15.104.1.1-.1.155-.15.104-.092.12-.108.084-.07.08-.068.166-.133.084-.067c.141-.108.283-.212.417-.308l.087-.059.088-.058.083-.054.121-.075.063-.038.087-.054.363-.2.07-.038.113-.058.092-.046.092-.042.096-.046.091-.041.096-.042.38-.154.096-.034.1-.037.091-.03.075-.024.176-.059.091-.029.071-.02h.071l.125-.038.171-.042c.171-.042.346-.08.521-.113H118.48l.504-.05H120.368c.138 0 .271.021.417.038l.18.025h.392c.175.03.346.067.517.108l.212.059h.059l.091.029.175.05.076.025c.125.038.254.083.379.13l.083.033.113.041.17.071.197.084.075.033.104.05.096.042.092.046.117.058.091.05c.071.038.142.075.209.117l.091.05.309.187.083.055.088.058.083.058.055.038c.125.087.246.175.362.267l.088.066.162.134.084.067.08.07.108.092.104.096.058.058.1.096.046.046.054.054.1.1.155.163.087.092.142.162.15.18c.171.212.334.417.484.65l.062.092.063.1.054.088.092.146.079.137.05.084.038.066c0 .021.02.046.033.067.012.02.037.067.054.1s.033.067.054.1c.117.234.225.475.326.717 0 .034.029.067.041.105l.113.3.029.091c0 .042.03.088.046.13.017.041.025.079.033.116l.025.076.03.104.037.133c.02.071.037.142.054.217.012.037.022.075.03.113 0 .05.024.104.033.158v1.359a.588.588 0 0 0 0 .084v.279c0 .046.229.163.225.254z" opacity=".1"/>
        <path fill="#FF6584" d="M163.536 138.94v.104a.238.238 0 0 1 0 .054V139.536a.626.626 0 0 1 0 .083l-.025.209-.025.133v.067a.15.15 0 0 1 0 .042V140.299a.938.938 0 0 0 0 .092v.058c0 .025 0 .054-.02.08l-.026.091v.021l-.025.096a5.65 5.65 0 0 1-.095.283c-.034.092 0 .063-.03.092l-.02.05a6.576 6.576 0 0 1-.86 1.572l-.07.088a6.008 6.008 0 0 1-.55.63l-9.195 9.193-9.194-9.194a6.521 6.521 0 0 1-1.88-5.15c0-.116.025-.233.041-.354.029-.206.068-.41.117-.613 0-.041.021-.083.03-.125a.346.346 0 0 0 0-.062v-.038l.024-.091c.021-.075.046-.146.067-.213l.033-.1c.05-.138.1-.271.159-.417l.037-.08c0-.041.034-.079.055-.12l.091-.192a.884.884 0 0 0 .046-.088l.054-.095c.022-.042.045-.083.071-.121.009-.021.02-.04.034-.059v-.033l.046-.067.05-.08.116-.174.042-.063.05-.07.058-.08.071-.087a.58.58 0 0 1 .063-.08l.02-.029.047-.054c.025-.03.045-.058.07-.083l.034-.038.054-.058.063-.071.175-.184.07-.07.113-.105a.538.538 0 0 0 .071-.067l.088-.075.058-.05.058-.045.117-.096.059-.046.3-.221.062-.042.063-.037.058-.038.084-.054.045-.025.063-.038c.083-.05.167-.1.254-.141l.05-.03.08-.041.066-.03.067-.033.063-.03.066-.028.067-.03.271-.108.067-.025.07-.025.063-.025h.054l.125-.042h.163l.092-.025.117-.029c.125-.033.246-.058.37-.08h.334c.117 0 .238-.028.355-.037h.988l.283.03H149.118c.12.02.246.045.367.075l.15.041H149.739l.125.034h.05l.271.091.059.025.079.03.12.05.138.058.055.025.075.033.066.034.063.029.083.042.063.037.15.08.062.037.221.133.059.038.058.037.063.042.041.03c.088.058.171.12.255.187l.058.046.121.096.054.046.059.05.087.075.075.066c.034.037.07.072.109.105l.07.07.071-.07a1.28 1.28 0 0 0 .109-.105l.075-.066.087-.075.059-.05.054-.046.121-.096.058-.046a5.58 5.58 0 0 1 .3-.221l.063-.042.058-.037.059-.038.087-.054.042-.025.063-.038c.087-.05.17-.1.258-.141l.05-.03.08-.041.062-.03.067-.033.066-.029.067-.03.067-.028.267-.109.066-.025.071-.025.067-.025h.054l.121-.041h.167l.087-.025.121-.03c.121-.033.246-.058.367-.079h.338c.117 0 .234-.03.354-.037h.989l.283.029h.405l.362.075.15.042H158.93l.12.033h.055l.267.092.062.025.08.029.12.05.138.058.054.025.071.034.067.033.067.03.079.04.067.038.15.08.062.037c.075.042.146.088.217.134l.058.037.063.038.063.041.037.03a3.7 3.7 0 0 1 .259.187l.058.046c.04.03.08.062.117.096l.058.046.058.05.076.066.075.067.041.042.071.07.03.03.041.038.07.075.11.112.058.067.1.112.108.13c.121.146.234.3.342.458l.042.063c0 .025.029.05.046.07l.037.063c.021.034.046.067.067.105l.054.095a.417.417 0 0 1 .033.059l.03.046.025.05.037.07.038.071c.083.163.158.334.229.505l.03.075a3.201 3.201 0 0 1 .1.275c0 .034 0 .063.033.092l.025.083a.388.388 0 0 0 0 .055c0 .025 0 .05.02.075l.026.091c0 .05.029.1.041.15.013.05 0 .055 0 .084l.025.112v.113a.209.209 0 0 0 0 .05v.375a.621.621 0 0 1 0 .088v.046a.626.626 0 0 0 0 .091.171.171 0 0 0 0 .046v.092a.296.296 0 0 1 0 .058.275.275 0 0 1 0 .059.805.805 0 0 1 0 .1.805.805 0 0 1 0 .1l.1.192z"/>
        <path fill="#000" d="M163.536 138.94v.104a.238.238 0 0 1 0 .054V139.536a.626.626 0 0 1 0 .083l-.025.209-.025.133v.067a.15.15 0 0 1 0 .042V140.299a.938.938 0 0 0 0 .092v.058c0 .025 0 .054-.02.08l-.026.091v.021l-.025.096a5.65 5.65 0 0 1-.095.283c-.034.092 0 .063-.03.092l-.02.05a6.484 6.484 0 0 0 .179-1.576 6.63 6.63 0 0 0-.221-1.639 6.521 6.521 0 0 0-1.668-2.918 6.613 6.613 0 0 0-1.468-1.101 6.517 6.517 0 0 0-6.871.384 6.86 6.86 0 0 0-.834.717 6.671 6.671 0 0 0-.792-.676 5.729 5.729 0 0 0-.676-.417 6.517 6.517 0 0 0-6.254 0 6.605 6.605 0 0 0-1.464 1.1 6.821 6.821 0 0 0-.717.835c-.13.183-.246.371-.354.563a5.837 5.837 0 0 0-.41.875c0-.041.022-.083.03-.125a.346.346 0 0 0 0-.062v-.038l.025-.091c.021-.075.046-.146.067-.213l.033-.1c.05-.138.1-.271.159-.417l.037-.08c0-.041.034-.079.054-.12l.092-.192a.884.884 0 0 0 .046-.088l.054-.096c.021-.041.045-.082.071-.12.009-.021.02-.04.033-.059v-.033l.046-.067.05-.08.117-.174.042-.063.05-.07.058-.08.071-.087a.58.58 0 0 1 .063-.08l.02-.029.046-.054c.025-.03.046-.058.071-.083l.034-.038.054-.058.062-.071.175-.184.071-.07.113-.105a.538.538 0 0 0 .07-.067l.088-.075.059-.05.058-.045.117-.096.058-.046.3-.221.063-.042.063-.037.058-.038.083-.054.046-.025.063-.038c.083-.05.166-.1.254-.141l.05-.03.08-.041.066-.03.067-.033.062-.03.067-.028.067-.03.27-.108.067-.025.071-.025.063-.025h.054l.125-.042h.163l.091-.025.117-.029c.125-.033.246-.058.371-.08h.334c.117 0 .238-.028.354-.037h.989l.283.03h.405c.12.02.246.045.366.075l.15.041H149.782l.125.034h.05l.27.091.06.025.079.03.12.05.138.058.054.025.075.033.067.034.063.029.083.042.062.037.15.08.063.037.221.133.059.038.058.037.062.042.042.03c.088.058.171.12.254.187l.059.046.12.096.055.046.058.05.088.075.075.066c.034.037.07.072.108.105l.071.07.071-.07a1.28 1.28 0 0 0 .109-.105l.075-.066.087-.075.059-.05.054-.046.12-.096.059-.046c.096-.075.196-.15.3-.221l.063-.042.058-.037.059-.038.087-.054.042-.025.062-.038c.088-.05.171-.1.259-.141l.05-.03.08-.041.062-.03.066-.033.067-.029.067-.03.067-.028.266-.109.067-.025.071-.025.067-.025h.054l.12-.041h.168l.087-.025.121-.03c.121-.033.246-.058.367-.079h.338c.116 0 .233-.03.354-.037h.988l.284.029h.404l.363.075.15.042H158.971l.12.033h.055l.267.092.062.025.08.029.12.05.138.058.054.025.071.034.067.033.066.03.08.04.066.038.15.08.063.037c.075.042.146.088.217.134l.058.037.063.038.062.041.038.03a3.7 3.7 0 0 1 .258.187l.059.046c.04.03.08.062.116.096l.059.046.058.05.075.066.075.067.042.042.07.07.03.03.042.037.07.076.109.112.058.067.1.112.109.13c.12.146.233.3.342.458l.041.063c0 .025.03.05.046.07l.038.063c.02.034.046.067.067.105l.054.095a.417.417 0 0 1 .033.059l.03.046.024.05.038.07.037.071c.084.163.159.334.23.505l.029.075a3.201 3.201 0 0 1 .1.275c0 .034 0 .063.033.092l.025.083a.388.388 0 0 0 0 .055c0 .025 0 .05.021.075l.025.091c0 .05.03.1.042.15.012.05 0 .055 0 .084l.025.112v.113a.208.208 0 0 0 0 .05v.375a.621.621 0 0 1 0 .088v.046a.625.625 0 0 0 0 .091.17.17 0 0 0 0 .046v.092a.296.296 0 0 1 0 .058.275.275 0 0 1 0 .059.805.805 0 0 1 0 .1.805.805 0 0 1 0 .1l.058.217z" opacity=".1"/>
        <path fill="#FF6584" d="M261.935 174.165v.104a.296.296 0 0 1 0 .058v.168a1.022 1.022 0 0 0 0 .112v.158a.567.567 0 0 1 0 .083l-.025.209V175.261a.125.125 0 0 1 0 .042v.037a.567.567 0 0 1 0 .071v.217a.346.346 0 0 0 0 .063v.075l-.025.092v.025a.78.78 0 0 0-.03.091c-.028.096-.058.192-.091.288a.75.75 0 0 0-.033.088l-.021.05a6.5 6.5 0 0 1-.86 1.572l-.066.087a6.584 6.584 0 0 1-.554.63l-9.194 9.194-9.174-9.194a6.03 6.03 0 0 1-.72-.855 5.95 5.95 0 0 1-.376-.596 6.509 6.509 0 0 1-.784-3.699c0-.117.012-.233.038-.35.028-.208.067-.414.116-.617 0-.042 0-.084.034-.125a.346.346 0 0 1 0-.063.12.12 0 0 1 0-.037l.025-.092c0-.07.045-.142.066-.213a.938.938 0 0 0 .034-.1c.05-.137.104-.27.158-.417l.038-.083c0-.038.033-.08.054-.121.02-.042.062-.13.096-.192l.041-.087.055-.096c.025-.042.046-.084.07-.121.01-.02.021-.04.034-.059v-.033c0-.025.03-.05.046-.07l.05-.08.117-.175.041-.059.054-.075.055-.075.07-.091.063-.08V170l.046-.054.07-.083.034-.038.054-.062.063-.067c.058-.063.117-.125.18-.184a.571.571 0 0 1 .07-.07 1.28 1.28 0 0 1 .109-.105l.075-.066a.75.75 0 0 1 .083-.08l.058-.05.059-.046.116-.095.059-.046c.1-.075.2-.15.3-.217l.063-.042.062-.042.059-.037.087-.054.042-.025.062-.038.255-.142.05-.029.079-.037.067-.034.066-.029.067-.033.063-.03.066-.029.271-.108.067-.025.071-.025.063-.02.054-.022.125-.037h.162l.092-.025.117-.03c.125-.029.246-.058.371-.079h.334l.358-.037h.984l.288.029h.4c.124.02.246.046.367.08l.15.037H248.18l.126.037h.054l.267.092h.058l.08.03.12.05.138.058.054.025.075.037.067.03.062.033.084.041.066.034.146.083.067.033.217.134.058.037.063.042.058.042.042.029.254.188.063.045.116.096.059.046.054.05.088.08.075.066.108.104c.026.022.05.046.07.071.026-.025.047-.05.072-.07l.112-.105a.538.538 0 0 1 .071-.066l.088-.08.058-.05.059-.046.116-.096.059-.045c.1-.075.2-.15.3-.217l.062-.042.063-.042.058-.037.084-.054.046-.025.062-.038.255-.142.05-.029.079-.037.066-.034.063-.029.067-.033.066-.03.067-.029.267-.108.067-.025.07-.025.067-.02.055-.022.125-.037h.162l.092-.025.117-.03c.12-.029.246-.058.367-.079h.337l.355-.037h.988l.284.029H256.748c.12.02.246.046.367.08l.15.037H257.369l.121.037h.054l.267.092h.063l.079.03.12.05.139.058.054.025.075.037.062.03.067.033.083.041.063.034.15.083.063.033c.075.042.146.088.216.134l.059.037.062.042.063.042.042.029.254.188.058.045.117.096.058.046.059.05.075.067.075.067a.392.392 0 0 0 .042.041c0 .025.045.046.07.071l.034.03.037.041.071.071.109.113.058.066c.036.037.069.076.1.117l.109.125c.12.15.233.3.341.459 0 .02.03.042.042.067l.046.066.038.063c.025.033.045.07.066.104l.054.096.038.058.025.05.025.046.038.071.037.071a6.058 6.058 0 0 1 .259.58c.029.07.054.141.079.212l.025.067c.008.03.017.059.029.088l.025.083v.129l.025.092c0 .05.03.104.042.154.012.05 0 .05 0 .08l.025.112v.901a.238.238 0 0 0 0 .054v.058a.805.805 0 0 1 0 .1.805.805 0 0 1 0 .1l.079.255z"/>
        <path fill="#000" d="M261.935 174.165v.104a.296.296 0 0 1 0 .058v.168a1.022 1.022 0 0 0 0 .112v.158a.567.567 0 0 1 0 .083l-.025.209V175.261a.125.125 0 0 1 0 .042v.037a.567.567 0 0 1 0 .071v.217a.346.346 0 0 0 0 .063v.075l-.025.092v.025a.78.78 0 0 0-.03.091c-.028.096-.058.192-.091.288a.75.75 0 0 0-.033.088l-.021.05a6.496 6.496 0 0 0-2.835-6.997 6.128 6.128 0 0 0-.355-.213 6.517 6.517 0 0 0-6.254 0 6.367 6.367 0 0 0-.617.388 6.517 6.517 0 0 0-.834.717 6.384 6.384 0 0 0-.793-.68c-.216-.15-.44-.29-.67-.416a6.525 6.525 0 0 0-6.255 0 6.7 6.7 0 0 0-.922.617c-.19.151-.371.314-.542.488a6.154 6.154 0 0 0-1.071 1.4 6.345 6.345 0 0 0-.41.876c0-.041 0-.083.034-.125a.346.346 0 0 1 0-.062.12.12 0 0 1 0-.038l.025-.092c0-.07.046-.141.067-.212a.938.938 0 0 0 .033-.1c.05-.138.105-.271.159-.417l.037-.084c0-.037.034-.079.055-.12.02-.042.062-.13.095-.192l.042-.088.054-.096c.025-.042.046-.083.071-.12.01-.021.02-.04.034-.06v-.033c0-.025.029-.05.045-.07l.05-.08.117-.175.042-.058.054-.075.054-.075.071-.092.063-.08v-.028l.046-.055.07-.083.034-.038.054-.062.063-.067c.058-.062.116-.125.179-.183a.571.571 0 0 1 .07-.071 1.28 1.28 0 0 1 .11-.104l.074-.067a.75.75 0 0 1 .084-.08l.058-.05.058-.045.117-.096.059-.046c.1-.075.2-.15.3-.217l.062-.042.063-.041.058-.038.088-.054.041-.025.063-.037.254-.142.05-.03.08-.037.066-.033.067-.03.067-.033.062-.03.067-.028.271-.109.067-.025.07-.025.063-.02.054-.021.125-.038h.163l.092-.025.117-.03c.125-.028.246-.058.37-.078h.334l.359-.038h.984l.288.03H247.575c.123.02.246.046.367.079l.15.037H248.196l.125.038h.054l.267.091h.059l.079.03.12.05.138.058.055.025.075.037.066.03.063.033.083.042.067.033.146.083.067.034.216.133.059.038.062.041.059.042.041.03.255.187.062.046.117.096.058.046.055.05.087.079.075.067.109.104c.025.021.05.045.07.07.026-.024.046-.05.071-.07l.113-.104a.538.538 0 0 1 .07-.067l.088-.08.059-.05.058-.045.117-.096.058-.046c.1-.075.2-.15.3-.217l.063-.042.063-.041.058-.038.083-.054.046-.025.063-.038.254-.141.05-.03.08-.037.066-.033.063-.03.066-.033.067-.03.067-.028.267-.109.066-.025.071-.025.067-.02.054-.021.125-.038h.163l.092-.025.116-.03c.121-.028.246-.058.367-.078h.338l.354-.038h.989l.283.03h.405c.12.02.246.045.367.079l.15.037H257.386l.12.038h.055l.267.091h.062l.08.03.12.05.138.058.054.025.075.037.063.03.067.033.083.042.063.033.15.083.062.034c.075.041.146.087.217.133l.058.038.063.041.063.042.041.03.255.187.058.046.117.096.058.046.058.05.076.066.075.067a.392.392 0 0 0 .041.042c0 .025.046.046.071.07l.034.03.037.042.071.07.108.113.059.067c.035.037.069.076.1.116l.108.126c.121.15.234.3.342.458 0 .021.03.042.042.067l.046.067.037.062c.025.034.046.071.067.104l.054.096.038.059.025.05.025.046.037.07.038.071a6.058 6.058 0 0 1 .258.58c.03.07.054.142.08.213l.025.066c.007.03.017.06.029.088l.025.083v.129l.025.092c0 .05.029.104.041.154.013.05 0 .05 0 .08l.025.112v.901a.238.238 0 0 0 0 .054v.059a.805.805 0 0 1 0 .1.805.805 0 0 1 0 .1l.063.246z" opacity=".1"/>
        <path fill="url(#a)" d="M234.37 176.12a47.95 47.95 0 0 0-4.237-3.815c.18-2.235.597-7.585.634-8.614.042-1.305-1.88-2.973-5.992-4.512-4.11-1.539-2.918 5.637-2.86 6.284.058.646.955 2.602 2.502 3.244.554.229.704.517.667.788l-.13-.021c-3.38-.417-4.907-1.201-4.907-1.201s-1.25 3.753-1.25 5.554v.283c-.042.326-.008.657.1.968h.287a3.14 3.14 0 0 1-.23 1.426c-.121.348-.26.69-.416 1.026a28.691 28.691 0 0 1-.196-3.09c.066-1-1.526-5.066-1.526-5.066s-.663-.267-2.056-1.868-2.502-2.268-3.448-2.602c-.947-.334-4.378-4.8-5.792-5.837-1.126-.834-1.58-.342-1.718-.109l-.083.058c-.655-.909-1.122-1.776-1.122-2.393 0-.454.046-1.388.13-2.573.49.378.948.796 1.367 1.251.96 1.064 1.668 2.331 2.715 3.311a4.42 4.42 0 0 0 2.993 1.31c.37.015.738-.043 1.084-.172 1.393-.538 2.29-2.235 3.753-2.301 1.15.058 1.997 1.121 2.94 1.822a3.94 3.94 0 0 0 2.422.834 2.76 2.76 0 0 0 1.022-.163c1.084-.417 1.826-1.739 1.33-2.785-.767-1.618-3.378-1.251-4.49-2.66a1.1 1.1 0 0 1-.26-1.034.721.721 0 0 1 .676-.492c.528.058 1.02.293 1.397.667.542.55 1.25 1.25 1.922 1.175a.913.913 0 0 0 .546-.104c.021-.496.046-.992.067-1.488.71.398 1.505.624 2.318.659.15.005.301-.002.45-.021.88-.117 1.719-.934 1.619-1.785.388.322.884.487 1.388.463.226.012.452-.016.667-.084a2.018 2.018 0 0 0 1.351-1.734c.067-.926-.504-1.76-1.055-2.502l-2.727-3.727a1.51 1.51 0 0 1-.417-1.076 2.24 2.24 0 0 1 .467-.834c.742-1.084.38-2.673-.567-3.586-.946-.913-2.326-1.23-3.636-1.205-.988.02-2.084.188-2.88-.375-.63-.417-.927-1.218-1.127-1.964-.58-2.193-.613-4.495-1.017-6.726-.405-2.23-1.276-4.524-3.086-5.883a2.856 2.856 0 0 0-1.43-.626c-.444.008-.887.044-1.326.109-1.5.083-2.84-.95-3.786-2.127-.946-1.175-1.668-2.543-2.756-3.573-1.605-1.614-4.261-2.085-6.396-1.48-.976.27-1.751 1.063-2.76 1.105-1.48.066-3.086-.271-4.562-.417-1.388-.125-2.806-.246-4.17.092a4.436 4.436 0 0 0-2.918 2.164l-.355-3.007s-.733-5.67-1.063-6.133c-.237-.338-.133-.81.042-1.339l.067.063c.05-.15.104-.305.158-.459a1.092 1.092 0 0 0 0-.35c.13-1.138-1.939-8.385-1.939-8.385h-1.86c0-.088-.029-.18-.045-.267-.542-2.948-1.456-7.555-2.085-8.664-.417-.763-.463-1.852-.375-2.802.11-1.099.14-2.204.087-3.307a9.052 9.052 0 0 1 .075-1.593 2.235 2.235 0 0 0-.888-2.085c-2.44-1.81-8.368-5.929-11.837-6.033-4.445-.133 1.392 7.668 1.325 8.402-.066.734 4.445 1.4 4.445 1.4s.267 2.265.534 3.532c.183.88.492 7.406.667 11.321-1.088-.133-2.99-1.122-2.99-1.122s-5.174-1.396-5.641 0c-.467 1.397 6.304 8.135 6.304 8.135s2.39 6.334 1.668 8.34c-.721 2.005-.2 11.466-.2 11.466s.067 11.258.563 14.135c.496 2.877-.896 4.466-.896 4.466s-.597 7.067 0 7.734c.61.832 1.156 1.709 1.634 2.623l.175.317c-1.96 2.393-3.907 4.682-4.928 5.003-1.99.6-15.586 6.255-15.586 6.255s-4.44 4.244-5.112 4.244c-.672 0 4.044 4.537 4.044 4.537s4.245 3.398 4.712 3.932c.467.534 12.092 6.867 12.092 6.867s1.993.6 2.189 1.201c.196.6 2.852 2.264 2.852 2.264s2.035 2.352 2.568 3.853c0 .108 0 .2.03.288.025.417.054.608.079.508.354.976 2.743 3.465 1.593 5.241-.534.834 0 2.331 1.03 3.54-.28 1.493-.668 3.194-1.085 3.753-.796 1.068-.442 2.577-1.25 2.756-.81.18-1.064 4.09-1.064 4.09l-.688 8.62s-.179 1.775-1.15 2.222c-.972.446 0 2.843 0 2.843s-1.043 2.043-.418 3.198c.626 1.155-1.25 6.492-1.25 6.492s-.797 10.312 0 11.734a11.675 11.675 0 0 1 1.25 4.532c0 .888.442 17.512.442 17.512s-1.063 6.755-1.417 7.998c-.355 1.242.975 4.003.092 5.42-.884 1.418-.71 4.62-.71 4.62s-1.325 12.534-.529 17.158c.797 4.624-.254 5.6-.254 5.6.546.31 1.121.563 1.718.759l.062.554c.417 3.878 1.03 10.558.471 12.092-.558 1.535-.717 4.428-.771 6.071v.271l-1.547 2.502s-.308 2.206-.709 2.56c-.4.355-3.723 6.388-4.17 7.164l-.045.083s-3.36 6.18 4.953 6.354c8.314.176 7.251-4.086 7.251-4.086s.025-.834.104-1.855c.1-1.251.284-2.773.605-3.17.575-.708 2.256-4.044 2.256-4.044v-4.895h-.534c0-.083 0-.175.03-.267.07-1.018.225-2.03.462-3.023.263-.62-.575-4.357-.575-4.357s.183-7.184 1.005-11.725c.037-.2.075-.396.112-.584.618-.268 1.216-.58 1.789-.934 0 0 0-9.064 1.063-10.665 1.063-1.602.838-6.134.838-6.134s.263-3.999 1.06-4.8c.796-.8.608-4.356.608-4.356s.705-2.31 1.501-4.17c.797-1.86 1.251-7.11 1.251-7.11a9.019 9.019 0 0 1 1.251-2.58c.888-1.251 0-3.999 0-3.999s-.972-1.776-.35-3.557c.621-1.78 4.065-16.178 4.065-16.178l1.33-5.153 1.943 6.575s-.262 4.712 0 6.046c.263 1.334 2.123 4.17 2.123 4.17v13.955s.179 9.424.888 10.933c.709 1.51 1.059 7.114 1.059 7.114s2.389 16.444.884 18.842c.769.524 1.587.972 2.443 1.338v9.686s-1.734 5.863-1.142 9.853c0 .08.025.159.037.238-.158.117-.333.217-.442.175l.28 6.671s.075 3.703-.634 5.65a8.039 8.039 0 0 0-.417 2.118c-.154 2.64.863 6.255 6.671 5.88 7.735-.492 6.542-5.42 6.542-5.42s0-.193-.029-.53a20.093 20.093 0 0 0-1.918-7.247c-1.855-3.645-1.589-8.181-1.589-8.181-.153.055-.31.097-.47.125 0-.088 0-.18.02-.271.1-1.25.255-2.873.417-3.632.263-1.334 0-4.44 0-4.44l.997-9.736.054-.542a7.98 7.98 0 0 0 1.372-.834 9.978 9.978 0 0 1-.513-2.71 2.393 2.393 0 0 1 .513-1.714c1.15-1.155 1.943-15.645 1.943-15.645s.625-5.1.63-6.821v-.309c-.072-1.038-.622-5.103-.614-7.476a4.7 4.7 0 0 1 .171-1.484c.53-1.335 1.251-26.402 1.251-26.402l.884-11.108v-9.123a53.788 53.788 0 0 0-1.58-12.955c2.41 1.25 6.542 4.094 7.297 3.336.93-.934 1.392-16.937 1.126-18.534 0-.088-.034-.2-.063-.326a38.818 38.818 0 0 0-.267-1.138l.367-.638c1.814-3.14 4.587-8.126 4.808-9.59.25-1.668.58-6 1.205-7.897.05-.153.11-.302.179-.446.163-.33.338-.51.538-.459 1.13.267 1.86 1.134 2.456.8a.292.292 0 0 0 .079-.066.997.997 0 0 0 .15-.213c.054-.097.1-.2.138-.304.041-.109.079-.23.116-.359v-.037c0-.055.03-.109.042-.163a.271.271 0 0 0 0-.054c0-.046.02-.096.033-.142l.025-.104v-.054c.105-.472.184-.96.234-1.301 0-.125.03-.23.042-.309v-.167l.05-.029z"/>
        <path fill="url(#b)" d="M174.352 193.958c.037-.253.006-.51-.091-.747.029.6.062.876.091.747z"/>
        <path fill="#FBBEBE" d="M224.371 171.313s1.576-1.076.037-1.71c-1.538-.634-2.443-2.585-2.501-3.227-.059-.642-1.251-7.78 2.86-6.255 4.111 1.526 6.033 3.186 5.992 4.487-.042 1.3-.709 9.548-.709 9.548l-5.679-2.843z"/>
        <path fill="#0DA176" d="M234.37 176.98s0 .191-.063.474c-.12.834-.417 2.552-.867 2.798-.596.334-1.326-.53-2.456-.796-.2-.046-.375.13-.538.459a3.874 3.874 0 0 0-.18.442c-.625 1.893-.954 6.204-1.204 7.863-.225 1.464-2.994 6.43-4.808 9.553-.27.471-.525.9-.742 1.25-.5.835-.834 1.381-.834 1.381l-4.586-8.598v-12.68c.328-.56.607-1.147.833-1.755.187-.448.265-.934.23-1.418a.726.726 0 0 0-.196-.417.5.5 0 0 1-.088-.129.655.655 0 0 1-.041-.108 1.376 1.376 0 0 1-.059-.325v-.276c0-1.788 1.251-5.529 1.251-5.529s1.526.797 4.908 1.193c3.381.396 9.44 6.617 9.44 6.617z"/>
        <path fill="#000" d="M234.307 177.454c-.12.834-.417 2.552-.867 2.798-.596.334-1.326-.53-2.456-.796-.2-.046-.375.13-.538.459a3.874 3.874 0 0 0-.18.442c-2.28-1.11-6.254-3.12-6.508-3.686-.254-.567-3.023-.697-4.587-.722h-.283a2.114 2.114 0 0 1-.1-.963c.117-1.864 1.25-5.27 1.25-5.27s1.527.796 4.908 1.192c3.19.367 8.727 5.904 9.361 6.546z" opacity=".1"/>
        <path fill="#0DA176" d="M234.37 176.983s-.334 2.94-.93 3.27c-.596.329-1.326-.53-2.456-.793-.2-.05-.375.125-.538.455-2.247-1.093-6.442-3.194-6.671-3.774-.23-.58-3.386-.713-4.87-.73-.547-1.142 1.15-6.254 1.15-6.254s1.526.796 4.908 1.197c3.382.4 9.407 6.63 9.407 6.63zM223.09 218.304c-.929.93-6.967-3.582-8.622-3.848-1.655-.267-7.672-25.468-7.672-25.468l.905-14.202-3.528-13.068-.458-1.71s.35-1.042 1.768 0c1.417 1.043 4.861 5.488 5.791 5.817.93.33 2.056 1.001 3.448 2.594 1.393 1.593 2.056 1.855 2.056 1.855s1.593 4.05 1.526 5.041c-.067.993.534 7.764 1.251 8.36.717.597 1.922 6.038 1.922 6.038s2.193 7.643 2.656 9.824c.03.128.052.236.063.325.288 1.593-.175 17.512-1.105 18.442z"/>
        <path fill="#000" d="M212.742 186.682l4.378 1.171s.834 7.564 1.142 7.964c.309.4 1.376 15.92 1.376 15.92l-6.896-3.119-2.59-8.34v-9.226l2.59-4.37z" opacity=".1"/>
        <path fill="#FBBEBE" d="M180.102 309.456a14.773 14.773 0 0 0-.63 2.502c-.833 4.52-1.004 11.675-1.004 11.675s.834 3.715.575 4.336a18.196 18.196 0 0 0-.463 3.006c-.07.65-.112 1.147-.112 1.147l-8.098-.53s0-.479.025-1.213c.055-1.634.225-4.511.772-6.037.546-1.527-.05-8.19-.471-12.05-.18-1.668-.326-2.81-.326-2.81s11.096-3.578 9.732-.026zM211.704 311.633l-.997 9.686s.263 3.093 0 4.42c-.15.754-.304 2.364-.417 3.614-.075.947-.125 1.693-.125 1.693s-6.192 4.337-7.605.53a6.734 6.734 0 0 1-.35-1.426c-.593-3.974 1.142-9.807 1.142-9.807V307.88l8.581 1.4-.23 2.353z"/>
        <path fill="#000" d="M180.102 309.456a14.773 14.773 0 0 0-.63 2.502 12.355 12.355 0 0 1-8.756.33c-.179-1.669-.325-2.811-.325-2.811s11.075-3.573 9.711-.021zM211.946 309.277l-.242 2.347c-3.002 1.376-6.209.534-8.34-.417v-3.335l8.582 1.405z" opacity=".1"/>
        <path fill="#3F3D56" d="M177.392 200.392s-.705 5.22-1.501 6.283c-.797 1.063-.442 2.564-1.251 2.74-.809.175-1.063 4.07-1.063 4.07l-.676 8.58s-.179 1.768-1.15 2.21c-.972.442 0 2.831 0 2.831s-1.043 2.035-.418 3.186c.626 1.15-1.25 6.454-1.25 6.454s-.797 10.262 0 11.675a11.604 11.604 0 0 1 1.25 4.512c0 .884.442 17.425.442 17.425s-1.063 6.725-1.417 7.964c-.355 1.238.975 3.977.092 5.395-.884 1.418-.71 4.587-.71 4.587s-1.367 12.488-.57 17.074c.796 4.587-.255 5.57-.255 5.57a12.38 12.38 0 0 0 12.459-.529s0-9.023 1.063-10.616c1.063-1.592.888-6.1.888-6.1s.263-3.982 1.06-4.778c.796-.797.608-4.324.608-4.324s.705-2.302 1.501-4.17c.797-1.868 1.251-7.088 1.251-7.088a8.923 8.923 0 0 1 1.251-2.568c.888-1.251 0-3.978 0-3.978s-.972-1.772-.35-3.54c.621-1.768 4.065-16.1 4.065-16.1l1.33-5.128 1.943 6.547s-.262 4.686 0 6.012c.263 1.326 2.123 4.17 2.123 4.17v13.889s.179 9.377.888 10.878c.709 1.501 1.059 7.089 1.059 7.089s2.389 16.365.884 18.763c0 0 6.813 4.862 12.208.884 0 0-1.15-3.273 0-4.424 1.151-1.151 1.943-15.57 1.943-15.57s.71-5.75.622-7.088c-.088-1.338-.972-7.605-.442-8.931.53-1.326 1.25-26.269 1.25-26.269l.885-11.053v-9.048a53.15 53.15 0 0 0-2.002-14.486c-1.497-5.274-3.57-11.324-5.312-11.704-.03 0-27.478 3.04-32.698-1.296z"/>
        <path fill="#000" d="M178.58 330.95c-.07.65-.112 1.147-.112 1.147l-8.098-.53s0-.479.025-1.213c3.799-3.369 7.585.596 7.585.596h.6z" opacity=".1"/>
        <path fill="#3F3D56" d="M179.085 331.23v4.912s-1.668 3.335-2.256 4.023c-.321.392-.504 1.897-.605 3.152-.079 1.001-.104 1.843-.104 1.843s1.063 4.25-7.25 4.07c-8.315-.18-4.954-6.325-4.954-6.325l.046-.08c.417-.775 3.781-6.796 4.17-7.13.387-.333.708-2.547.708-2.547l1.547-2.502c3.807-3.402 7.61.575 7.61.575l1.088.009z"/>
        <path fill="#000" d="M176.12 345.144s1.063 4.249-7.25 4.07c-8.315-.18-4.954-6.31-4.954-6.31l.046-.079c.229 1.251 1.209 2.548 4.332 2.381 4.232-.22 6.813-1.3 7.922-1.889-.07.984-.096 1.827-.096 1.827zM210.303 329.345c-.075.947-.125 1.693-.125 1.693s-6.192 4.336-7.606.53a6.734 6.734 0 0 1-.35-1.427c.123-.092.24-.192.35-.3 1.013-1.5 6.409-1.547 6.672-.834.162.409.675.409 1.059.338z" opacity=".1"/>
        <path fill="#3F3D56" d="M207.747 350.764c-5.838.367-6.843-3.223-6.672-5.837a7.922 7.922 0 0 1 .417-2.106c.71-1.939.634-5.625.634-5.625l-.28-6.633c.222.087.755-.442.755-.442 1.014-1.501 6.41-1.547 6.672-.834.262.713 1.505.229 1.505.229s-.267 4.512 1.589 8.135a19.96 19.96 0 0 1 1.947 7.739s1.167 4.887-6.567 5.374z"/>
        <path fill="#000" d="M207.747 350.764c-5.838.367-6.843-3.223-6.672-5.837 0 0 1.514 2.573 6.905 1.955a15.132 15.132 0 0 0 6.296-2.03c.025.333.03.525.03.525s1.175 4.9-6.56 5.387zM213.763 208.197c-1.196-3.419-2.501-6.254-3.685-6.492l-1.055.108c1.1.592 2.31 3.228 3.415 6.384a66.147 66.147 0 0 1 3.627 21.782v6.963L215.181 248s-.709 24.943-1.25 26.269c-.543 1.326.354 7.605.441 8.935.088 1.33-.621 7.089-.621 7.089s-.796 14.418-1.943 15.565c-1.147 1.146 0 4.424 0 4.424a7.922 7.922 0 0 1-4.17 1.538 8.114 8.114 0 0 0 5.508-1.538s-1.15-3.274 0-4.424c1.151-1.151 1.943-15.565 1.943-15.565s.71-5.75.622-7.089c-.088-1.338-.972-7.61-.442-8.935.53-1.326 1.25-26.269 1.25-26.269l.885-11.058v-6.963a66.147 66.147 0 0 0-3.64-21.782zM170.537 310.961s1.05-.975.254-5.574c-.796-4.6.53-17.07.53-17.07s-.175-3.186.709-4.587c.884-1.401-.442-4.17-.092-5.396s1.418-7.964 1.418-7.964-.455-16.55-.455-17.437a11.57 11.57 0 0 0-1.25-4.508c-.797-1.417 0-11.674 0-11.674s1.855-5.308 1.25-6.455c-.604-1.147.417-3.186.417-3.186s-.971-2.389 0-2.83c.972-.443 1.151-2.21 1.151-2.21l.705-8.582s.267-3.89 1.063-4.07c.796-.179.442-1.667 1.25-2.739.597-.796 1.147-3.936 1.381-5.454a5.512 5.512 0 0 1-1.468-.833s-.709 5.216-1.505 6.279c-.796 1.063-.442 2.564-1.25 2.74-.81.175-1.06 4.069-1.06 4.069l-.684 8.585s-.179 1.768-1.15 2.21c-.972.442 0 2.831 0 2.831s-1.043 2.035-.418 3.186c.626 1.15-1.25 6.454-1.25 6.454s-.797 10.262 0 11.675a11.57 11.57 0 0 1 1.25 4.508c0 .888.442 17.424.442 17.424s-1.063 6.726-1.413 7.964c-.35 1.239.971 3.978.088 5.396-.884 1.418-.71 4.586-.71 4.586s-1.338 12.493-.541 17.08c.796 4.586-.255 5.574-.255 5.574a12.184 12.184 0 0 0 6.563 1.397 11.88 11.88 0 0 1-4.97-1.389z" opacity=".1"/>
        <path fill="#3F3D56" d="M204.645 117.796c1.096 1.025 1.81 2.389 2.756 3.556.946 1.168 2.285 2.198 3.786 2.119.439-.067.882-.105 1.326-.113.525.072 1.02.288 1.43.625 1.81 1.351 2.68 3.628 3.085 5.838.405 2.21.417 4.511 1.018 6.696.2.742.496 1.518 1.125 1.956.814.559 1.893.388 2.882.37 1.309-.024 2.689.297 3.636 1.202.946.905 1.309 2.502.567 3.569a2.172 2.172 0 0 0-.467.809c-.01.398.14.784.417 1.071l2.727 3.711c.55.743 1.121 1.576 1.054 2.502a1.96 1.96 0 0 1-3.452 1.122c.296.921-.613 1.876-1.572 2.001-.959.125-1.893-.304-2.764-.725l-.071 1.572c-.8.417-1.647-.417-2.285-1.068-.638-.65-1.952-1.026-2.256-.175a1.1 1.1 0 0 0 .259 1.034c1.113 1.389 3.723 1.034 4.49 2.644.496 1.042-.246 2.376-1.33 2.772-1.084.397-2.33 0-3.26-.667-.93-.667-1.84-1.83-3.053-1.822-1.513 0-2.418 1.751-3.832 2.298-1.33.508-2.852-.155-3.89-1.13-1.038-.976-1.76-2.24-2.718-3.298-2.469-2.723-6.209-3.803-9.695-4.966-3.486-1.164-7.176-2.748-8.977-5.95-.55-.989-.9-2.085-1.584-2.99-1.176-1.535-3.153-2.252-4.441-3.69a5.7 5.7 0 0 1-.871-6.092c.608-1.288 1.667-2.285 2.539-3.427a11.525 11.525 0 0 0 2.264-6.764c0-.917-.096-1.863.196-2.735.446-1.317 1.739-2.206 3.09-2.543 1.35-.338 2.768-.217 4.17-.096 1.475.133 3.08.467 4.56.417 1.01-.046 1.785-.834 2.761-1.101 2.118-.596 4.774-.138 6.38 1.468z"/>
        <g fill="#000" opacity=".1">
            <path d="M216.311 128.774c.417 2.223.417 4.512 1.022 6.693.12.54.345 1.051.663 1.505a5.935 5.935 0 0 1-.134-.442c-.58-2.185-.613-4.474-1.017-6.697a11.913 11.913 0 0 0-1.339-3.844c.37.896.64 1.83.805 2.785zM225.543 142.563a2.143 2.143 0 0 0-.472.834c-.009.397.141.782.417 1.068.038.05.071.1.109.145a.65.65 0 0 1 0-.154c.097-.3.257-.576.471-.809.65-.955.446-2.293-.254-3.219a2.573 2.573 0 0 1-.271 2.135zM221.76 157.582a2.28 2.28 0 0 1-1.475 2.252c-1.089.392-2.331 0-3.26-.672-.93-.67-1.84-1.826-3.049-1.818-1.518 0-2.418 1.752-3.836 2.294-1.33.513-2.852-.155-3.89-1.13-1.038-.976-1.76-2.24-2.715-3.294-2.468-2.723-6.208-3.807-9.698-4.97-3.49-1.164-7.155-2.74-8.96-5.93.162.355.329.705.516 1.043 1.802 3.202 5.488 4.787 8.973 5.95 3.486 1.163 7.23 2.243 9.699 4.966.959 1.059 1.668 2.322 2.714 3.298 1.047.976 2.56 1.639 3.89 1.13 1.418-.546 2.319-2.285 3.837-2.297 1.209 0 2.084 1.1 3.052 1.822.967.721 2.172 1.063 3.256.667 1.084-.396 1.83-1.73 1.335-2.773a1.951 1.951 0 0 0-.388-.538zM229.153 149.797c.093.275.133.565.117.855a1.964 1.964 0 0 1-3.456 1.126c.296.917-.613 1.872-1.572 2.001-.96.13-1.893-.304-2.765-.725-.025.521-.046 1.046-.07 1.568-.801.417-1.668-.417-2.281-1.064-.613-.646-1.952-1.03-2.26-.175-.096.365.002.754.258 1.03.07.088.147.17.23.246a.767.767 0 0 1 .041-.217c.309-.834 1.622-.467 2.26.176.638.642 1.48 1.488 2.285 1.067 0-.525.046-1.047.067-1.572.871.417 1.81.834 2.768.726.96-.109 1.868-1.08 1.568-2.002a1.964 1.964 0 0 0 3.457-1.122 3.14 3.14 0 0 0-.647-1.918zM183.275 141.304c-1.171-1.534-3.152-2.247-4.436-3.69-.18-.2-.344-.415-.488-.642a5.3 5.3 0 0 0 1.017 1.705c1.285 1.439 3.265 2.156 4.437 3.69.165.217.314.446.446.684a9.415 9.415 0 0 0-.976-1.747z"/>
        </g>
        <path fill="#FBBEBE" d="M191.16 140.424s.972 10.791-3.452 14.06c-4.424 3.27 9.465 12.209 9.465 12.209l10.528-2.302s-5.133-4.774-5.133-6.809.884-13.447 2.302-14.773c1.417-1.326-13.71-2.385-13.71-2.385z"/>
        <path fill="#0DA176" d="M188.083 140.424l-2.406 5.258s-3.586 2.127-3.849 2.323c-.262.195-3.118 3.452-3.118 3.452l-7.035 4.511s-.17-.32-.417-.775a21.002 21.002 0 0 0-1.634-2.61c-.596-.663 0-7.693 0-7.693s1.393-1.593.896-4.445c-.496-2.852-.562-14.064-.562-14.064s-.53-9.423.2-11.412c.73-1.99-1.668-8.294-1.668-8.294s-6.763-6.721-6.3-8.11c.462-1.388 5.641 0 5.641 0s2.056 1.064 3.115 1.13c.642.038 4.073.055 6.704.059h3.115s2.19 7.626 1.927 8.422a30.43 30.43 0 0 0-.159.46c-.213.612-.375 1.158-.108 1.53.33.466 1.063 6.104 1.063 6.104l.73 6.104s1.125 4.774 1.059 5.441c-.067.667-1.727 2.056-.997 3.315.73 1.26 1 5.108 1 5.108s1.218 2.823 2.423 3.898c.115.11.243.207.38.288z"/>
        <circle cx="199.274" cy="134.862" r="12.738" fill="#000" opacity=".1"/>
        <circle cx="199.274" cy="134.332" r="12.738" fill="#FBBEBE"/>
        <path fill="#FFF" d="M212.742 186.682c-1.15 1.25-1.414 13.343-.734 14.418.68 1.076-3.423 3.186-5.812 3.094-2.39-.092-8.928 1.947-8.928 1.947s-13.096-3.54-15.844-1.768c-2.748 1.773-6.634-3.185-5.483-4.953 1.15-1.768-1.251-4.245-1.593-5.216a7.785 7.785 0 0 1-.142-1.251c-.32-4.453-.654-18.722-.654-18.722V157.85l12.033-8.494a57.724 57.724 0 0 1 5.583 3.232 27.344 27.344 0 0 1 3.611 2.781c3.278 3.098 11.412 6.371 11.412 6.371s8.936 10.704 10.083 11.767c1.146 1.063-2.385 11.937-3.532 13.176z"/>
        <path fill="#000" d="M173.556 174.21v-14.084s.367 25.655.655 32.806c-.322-4.453-.655-18.721-.655-18.721zM174.26 193.991c.098.235.13.491.092.742-.029.125-.062-.15-.091-.742z" opacity=".1"/>
        <path fill="#000" d="M191.248 157.14a10.8 10.8 0 0 0-1.923 2.719c-.663 1.46-15.77.267-15.77.267v-2.277l12.034-8.494a57.724 57.724 0 0 1 5.584 3.232c.075 2.493.075 4.553.075 4.553zM174.26 192.928c.098.234.13.491.092.742-.029.13-.062-.146-.091-.742zM188.083 140.424l-2.406 5.258s-3.586 2.127-3.849 2.323c-.262.195-3.118 3.452-3.118 3.452l-7.035 4.511s-.17-.32-.417-.775c1.914-2.323 3.87-4.795 5.004-5.662 2.256-1.722-.067-1.923 0-2.256.067-.334 4.978-2.122 6.304-3.382 1.08-1.03 4.082-3.035 5.146-3.752.112.108.237.203.37.283z" opacity=".1"/>
        <path fill="#0DA176" d="M188.083 140.424s-4.199 2.719-5.525 3.978c-1.326 1.26-6.254 3.052-6.304 3.386-.05.333 2.255.53 0 2.255-2.256 1.727-7.76 9.816-9.753 10.424-1.993.61-15.586 6.255-15.586 6.255s-4.445 4.17-5.108 4.17c-.663 0 4.045 4.511 4.045 4.511s4.244 3.386 4.711 3.915c.467.53 12.084 6.81 12.084 6.81s1.993.596 2.189 1.192c.196.596 2.852 2.256 2.852 2.256s2.965 3.406 2.677 4.62c-.288 1.213-.797-34.608-.797-34.608s15.107 1.192 15.77-.267a10.8 10.8 0 0 1 1.922-2.719s-.042-12.27-.888-13.18c-.846-.909-2.272-1.872-2.29-2.998z"/>
        <path fill="#000" d="M152.97 169.545s3.978 4.311 5.838 5.04a5.024 5.024 0 0 1 2.585 2.657s2.19 1.25 3.386 1.46c1.197.208 2.985 1.988 2.985 1.988s4.445 1.251 4.445 2.19c0 .937 1.793 2.192 1.793 2.192l-.446-25.476s-7.384.926-9.507 4.045c-2.122 3.118-11.078 5.904-11.078 5.904z" opacity=".1"/>
        <path fill="#000" d="M161.643 171.95c.334-.2 9.39-11.866 9.39-11.866l1.668-.342s-4.299 6.438-4.232 6.967c.067.53-6.826 5.242-6.826 5.242zM165.442 175.782s2.389-5.508 3.052-6.437c.663-.93 4.232-7.164 4.232-7.164a4.195 4.195 0 0 1 0 1.593c-.187.596-7.284 12.008-7.284 12.008zM181.428 134.716s-5.308 9.686-4.84 10.153c.466.467 4.84-10.153 4.84-10.153zM183.288 138.565s-4.378 6.4-3.982 6.316c.396-.083 3.982-6.316 3.982-6.316z" opacity=".1"/>
        <path fill="#FBBEBE" d="M179.306 102.014l-8.36.596s0-.271-.03-.738c-.116-2.76-.537-12.384-.763-13.46-.266-1.25-.533-3.515-.533-3.515s-4.512-.663-4.445-1.392c.067-.73-5.77-8.494-1.326-8.34 3.47.105 9.398 4.204 11.838 6 .645.477.984 1.264.888 2.06a8.935 8.935 0 0 0-.075 1.585 22.224 22.224 0 0 1-.088 3.29c-.087.946-.05 2.03.375 2.79.617 1.104 1.53 5.687 2.085 8.618.259 1.447.434 2.506.434 2.506z"/>
        <path fill="#000" d="M182.692 108.447l-.159.455c-1.814-1.797-13.176-2.944-13.176-2.944-.996-1.159-.104-1.668.96-3.085.62-.834 4.344-2.018 7.333-2.857h3.115s2.19 7.635 1.927 8.431z" opacity=".1"/>
        <path fill="#000" d="M179.306 102.014l-8.36.596s0-.271-.03-.738c1.314-.771 4.27-1.697 6.734-2.385h1.21c.27 1.468.446 2.527.446 2.527z" opacity=".1"/>
        <path fill="#0DA176" d="M182.692 108.18c-.055.155-.109.31-.159.46-1.814-1.802-13.176-2.949-13.176-2.949-.996-1.159-.104-1.668.96-3.081.62-.834 4.344-2.022 7.333-2.86h3.115s2.19 7.634 1.927 8.43z"/>
        <path fill="#000" d="M189.922 173.856s-.93 17.846 0 18.71c.93.862 0-18.71 0-18.71zM196.489 181.353s-.334 19.639 0 19.835c.333.196 0-19.835 0-19.835zM204.173 183.676s1.251 13.534 2.39 14.064c1.138.53-2.39-14.064-2.39-14.064zM223.887 199.804a2.764 2.764 0 0 1-1.063-.417c-1.126-.73-2.39-8.56-4.044-9.62-1.656-1.059-7.63-11.479-7.63-11.479s-2.323-4.17-3.253-5.24c-.93-1.072-.463-5.838-.463-5.838s-2.473-2.848-3.52-5.241a4.753 4.753 0 0 1-.458-1.706s.355-1.046 1.768 0c1.414 1.047 4.862 5.487 5.792 5.817.93.33 2.055.996 3.452 2.59 1.397 1.592 2.056 1.859 2.056 1.859s1.593 4.044 1.526 5.04c-.067.997.53 7.76 1.25 8.36.722.601 1.923 6.034 1.923 6.034s2.201 7.66 2.664 9.84zM218.788 174.978v-.275c.047.196.07.398.07.6a1.376 1.376 0 0 1-.07-.325z" opacity=".1"/>
        <path fill="#000" d="M224.254 197.773c-.27.471-.525.9-.742 1.25-1.097-1.13-2.33-8.501-3.936-9.527a7.505 7.505 0 0 1-1.46-1.638V179.1c.329-.56.608-1.147.834-1.755.196 2.368.647 5.88 1.164 6.305.73.596 1.922 6.037 1.922 6.037s1.426 5.02 2.218 8.085z" opacity=".1"/>
        <path fill="#0DA176" d="M224.154 199.537a2.614 2.614 0 0 1-1.063-.417c-1.13-.73-2.39-8.556-4.049-9.62-1.66-1.063-7.626-11.474-7.626-11.474s-2.323-4.17-3.252-5.241c-.93-1.072-.463-5.838-.463-5.838s-2.473-2.852-3.52-5.241a4.795 4.795 0 0 1-.458-1.71s.35-1.042 1.768 0c1.418 1.043 4.862 5.488 5.792 5.817.93.33 2.055 1 3.448 2.593 1.392 1.593 2.055 1.856 2.055 1.856s1.593 4.049 1.527 5.041c-.067.992.533 7.764 1.25 8.36.718.596 1.923 6.038 1.923 6.038s2.205 7.655 2.668 9.836z"/>
        <circle cx="210.62" cy="173.86" r="1" fill="#3F3D56"/>
        <circle cx="216.507" cy="181.92" r="1" fill="#3F3D56"/>
        <path fill="#000" d="M223.354 179.543s-4.316-1.972-3.653-.909c.663 1.064 3.653.91 3.653.91zM223.354 182.416s-4.383-1.192-3.453-.496c.93.696 3.453.496 3.453.496zM222.628 185.569s-2.985-2.16-2.256-1.364c.73.796 2.256 1.364 2.256 1.364zM225.743 187.853s-3.044 5.988-1.589 6.38c1.455.392 1.589-6.38 1.589-6.38zM182.404 286.102s-6.988 6.634-4.954 6.546c2.035-.087 4.954-6.546 4.954-6.546zM172.584 295.304c.355 0 7.43-.708 5.571-1.063-1.86-.354-5.57 1.063-5.57 1.063zM206.992 285.043s7.505.263 7.343 1.059c-.163.796-7.343-1.059-7.343-1.059zM205.754 288.05s4.332 3.272 5.308 2.21c.975-1.064-5.308-2.21-5.308-2.21z" opacity=".1"/>
        <path fill="#FBBEBE" d="M184.993 241.166a2.202 2.202 0 0 1-.275.671.68.68 0 0 1-.192.2c-.888.618-3.185 1.769-3.54 1.668-.162-.041-.796-.233-1.493-.417-.813-.237-1.713-.492-2.051-.537-.338-.046-.534-.584-.584-1.11-.05-.525 0-.934.221-1.013a.525.525 0 0 0 .188-.275c.046-.121.085-.245.117-.371l.033-.125c.117-.484.213-1.097.28-1.601.037-.271.062-.513.083-.676v-.225l.583-.03h.555c1.501-.062 4.078-.128 5.058.051.417.083.738.5.921 1.06.12.388.19.79.209 1.196a5.341 5.341 0 0 1-.113 1.534zM215.285 244.247a.617.617 0 0 0 0 .088c0 .905-.062 1.589-.062 1.701 0 .35-9.198 2.831-11.496 2.652-1.51-.117-.388-1.15.455-2.218.291-.331.518-.715.667-1.13a.834.834 0 0 0 0-.455c-.046-.166-.088-.316-.117-.454-.217-.955-.108-1.25.117-1.484.136-.17.239-.364.304-.572.07-.19.113-.39.13-.592a1.793 1.793 0 0 0-.338-1.28c-.71-.942 2.656-1.447 2.656-1.447h6.392c.625 0 .959.884 1.126 2.027a.117.117 0 0 0 0 .037c.045.334.083.688.104 1.051.02.363.037.684.042 1.017.004.334.02.722.02 1.06zM187.353 270.979s-7.088 1.668-6.367 1.25c.271-.17.334-.746.309-1.396a9.282 9.282 0 0 0-.084-.963c-.091-.738-.225-1.355-.225-1.355s3.715-.797 5.041-.442c.487.171.859.57.997 1.067.02.048.038.096.054.146.171.548.264 1.118.275 1.693z"/>
        <path fill="#000" d="M192.732 130.805c.971-.33 1.826-.922 2.76-1.347.934-.425 2.022-.684 2.969-.292.482.23.922.538 1.3.913.835.738 1.669 1.476 2.453 2.264.758.86 1.616 1.625 2.556 2.281 2.189 1.339 4.97 1.038 7.505.638a4.624 4.624 0 0 0 1.48-.417c1.113-.609 1.543-2.085 1.28-3.315-.262-1.23-1.059-2.301-1.905-3.248a26.686 26.686 0 0 0-8.702-6.438c-3.511-1.613-7.69-2.418-11.192-.796a12.138 12.138 0 0 0-2.918 1.993c-1.218 1.084-4.366 3.84-3.67 5.704.768 2.097 4.27 2.669 6.084 2.06z" opacity=".1"/>
        <path fill="#3F3D56" d="M192.732 130.538c.971-.325 1.826-.921 2.76-1.347.934-.425 2.022-.68 2.969-.292.48.232.92.54 1.3.914.835.738 1.669 1.476 2.453 2.264.757.86 1.615 1.626 2.556 2.28 2.189 1.339 4.97 1.039 7.505.638a4.52 4.52 0 0 0 1.48-.417c1.113-.604 1.543-2.084 1.28-3.314-.262-1.23-1.059-2.302-1.905-3.249a26.623 26.623 0 0 0-8.702-6.433c-3.511-1.614-7.69-2.419-11.192-.8a12.259 12.259 0 0 0-2.918 1.992c-1.218 1.084-4.366 3.845-3.67 5.708.768 2.098 4.27 2.669 6.084 2.056z"/>
        <path fill="#000" d="M213.763 134.028a4.474 4.474 0 0 1-1.476.417c-2.535.417-5.312.696-7.505-.638a14.406 14.406 0 0 1-2.568-2.302c-.784-.792-1.622-1.526-2.452-2.264a4.845 4.845 0 0 0-1.301-.917c-.95-.388-2.039-.133-2.973.296-.934.43-1.785 1.017-2.756 1.347-1.814.609-5.316.037-6.1-2.052a1.564 1.564 0 0 1-.08-.312 1.73 1.73 0 0 0 .08.834c.784 2.084 4.286 2.66 6.1 2.051.971-.33 1.826-.921 2.756-1.347.93-.425 2.022-.684 2.973-.292.482.23.922.538 1.3.913.835.738 1.669 1.477 2.453 2.265.758.859 1.616 1.624 2.556 2.28 2.189 1.339 4.966 1.039 7.505.638a4.587 4.587 0 0 0 1.476-.417c.984-.533 1.43-1.734 1.347-2.86a2.802 2.802 0 0 1-1.335 2.36zM177.846 237.622c-.098.8-.253 1.593-.462 2.372.188-.79.327-1.593.417-2.401l.045.029z" opacity=".1"/>
        <path fill="#000" d="M184.526 242.054c-.888.617-3.185 1.768-3.54 1.668-.354-.1-2.919-.884-3.544-.971-.625-.088-.788-1.948-.363-2.123a.525.525 0 0 0 .188-.275c-.043.126-.093.25-.15.371-.484 1.043.417 1.947.417 1.947l3.677.951 3.465-1.893c.834-1.147-.1-3.79-.575-4.22-.475-.43-6.159 0-6.159 0l-.125-.12v-.034l.584-.03h.555c1.5-.062 4.077-.128 5.057.051 1.397.254 1.397 4.061.513 4.678z" opacity=".1"/>
        <path fill="#000" fill-rule="nonzero" d="M214.005 239.048h-6.392s-3.365.505-2.656 1.447c.71.942.159 2.176-.096 2.443-.254.267-.362.622 0 1.947.363 1.326-3.435 3.628-1.138 3.803 2.297.175 11.496-2.301 11.496-2.652 0-.35.496-6.988-1.214-6.988zm.863 6.863c0 .334-8.668 2.665-10.84 2.502-2.173-.163 1.413-2.33 1.071-3.582-.342-1.25-.242-1.584 0-1.834s.759-1.418.092-2.306c-.667-.888 2.502-1.364 2.502-1.364h6.025c1.617-.004 1.15 6.25 1.15 6.584zM186.027 268.06c-1.326-.354-5.04.442-5.04.442s.708 3.273 0 3.715c-.71.442 6.37-1.25 6.37-1.25s0-2.552-1.33-2.907zm-4.932 4.086c.683-.417 0-3.59 0-3.59s3.59-.767 4.87-.417c1.28.35 1.28 2.819 1.28 2.819s-6.838 1.614-6.15 1.188z" opacity=".1"/>
        <path fill="#000" d="M215.281 243.18l-10.536 1.251 10.495-2.26c.02.33.037.663.041 1.01z" opacity=".1"/>
        <path fill="#3F3D56" d="M204.649 244.18l10.945-2.355.233 1.026z"/>
        <path fill="#000" d="M215.285 244.247a.617.617 0 0 0 0 .088l-11.112 2.135c.292-.331.518-.715.667-1.13l10.445-1.093z" opacity=".1"/>
        <path fill="#3F3D56" d="M202.98 245.273l13.344-1.4-12.989 2.497z"/>
        <path fill="#000" d="M215.131 241.074l-9.836.7c-.017.203-.06.402-.13.593l9.97-1.25-.004-.043z" opacity=".1"/>
        <path fill="#3F3D56" d="M204.649 241.558l11.178-.796-11.345 1.426z"/>
        <path fill="#000" d="M185.127 239.62l-7.71.25c.117-.484.213-1.097.28-1.602l7.221.155c.12.388.19.79.209 1.196z" opacity=".1"/>
        <path fill="#3F3D56" d="M176.842 237.985l10.515.22-1.284 1.122-9.231.296z"/>
        <path fill="#000" d="M184.993 241.166a2.202 2.202 0 0 1-.275.671l-5.225 1.447c-.813-.237-1.713-.492-2.051-.538-.338-.045-.534-.583-.584-1.109l8.135-.47z" opacity=".1"/>
        <path fill="#3F3D56" d="M175.461 241.475l12.25-.713-11.232 3.11z"/>
        <path fill="#000" d="M187.078 269.273l-5.783 1.547a9.282 9.282 0 0 0-.084-.963 568.63 568.63 0 0 1 5.813-.73c.02.048.038.097.054.146z" opacity=".1"/>
        <path fill="#3F3D56" d="M179.881 269.782c.221-.087 8.273-1.059 8.273-1.059l-8.273 2.21v-1.15z"/>
        <circle cx="310.657" cy="39.741" r="9.019" fill="#0DA176"/>
        <circle cx="350.689" cy="61.835" r="7.093" fill="#0DA176"/>
        <circle cx="310.657" cy="39.741" r="9.019" fill="#000" opacity=".4"/>
        <circle cx="350.689" cy="61.835" r="7.093" fill="#000" opacity=".4"/>
        <circle cx="55.289" cy="61.835" r="22.762" fill="#0DA176"/>
        <circle cx="55.289" cy="61.835" r="22.762" fill="#000" opacity=".4"/>
        <circle cx="348.596" cy="30.163" r="2.502" fill="#0DA176"/>
        <circle cx="348.596" cy="30.163" r="2.502" fill="#000" opacity=".4"/>
        <path fill="#0DA176" d="M133.29 317.887s2.593 3.39-1.197 8.51c-3.79 5.12-6.913 9.44-5.65 12.634 0 0 5.717-9.507 10.37-9.64 4.654-.133 1.585-5.783-3.523-11.504z"/>
        <path fill="#000" d="M133.29 317.887c.226.327.405.685.53 1.063 4.54 5.337 6.959 10.316 2.597 10.424-4.065.113-8.944 7.385-10.111 9.22.038.14.084.28.137.416 0 0 5.717-9.506 10.37-9.64 4.654-.133 1.585-5.762-3.523-11.483z" opacity=".1"/>
        <path fill="#FFD037" d="M138.098 322.215c0 1.193-.134 2.16-.3 2.16-.167 0-.297-.967-.297-2.16 0-1.192.167-.634.33-.634.162 0 .267-.563.267.634z"/>
        <path fill="#FFD037" d="M139.753 323.637c-1.047.571-1.964.917-2.04.771-.074-.146.706-.725 1.752-1.296 1.047-.572.634-.155.713 0 .08.154.617-.046-.425.525z"/>
        <path fill="#0DA176" d="M119.584 317.887s-2.593 3.39 1.197 8.51c3.79 5.12 6.913 9.44 5.65 12.634 0 0-5.717-9.507-10.37-9.64-4.653-.133-1.597-5.783 3.523-11.504z"/>
        <path fill="#000" d="M119.584 317.887a4.17 4.17 0 0 0-.53 1.063c-4.54 5.337-6.958 10.316-2.597 10.424 4.066.113 8.944 7.385 10.112 9.22a3.82 3.82 0 0 1-.138.416s-5.717-9.506-10.37-9.64c-4.653-.133-1.597-5.762 3.523-11.483z" opacity=".1"/>
        <path fill="#FFD037" d="M114.764 322.215c0 1.193.134 2.16.3 2.16.167 0 .297-.967.297-2.16 0-1.192-.167-.634-.33-.634-.162 0-.267-.563-.267.634z"/>
        <path fill="#FFD037" d="M113.109 323.637c1.047.571 1.96.917 2.039.771.08-.146-.705-.725-1.751-1.296-1.047-.572-.634-.155-.713 0-.08.154-.622-.046.425.525z"/>
        <path fill="#A8A8A8" d="M115.59 338.59s7.247-.222 9.432-1.781c2.185-1.56 11.153-3.411 11.695-.918.542 2.494 10.891 12.41 2.706 12.476-8.184.067-19.013-1.276-21.194-2.602-2.18-1.326-2.639-7.176-2.639-7.176z"/>
        <path fill="#000" d="M139.57 347.491c-8.181.067-19.014-1.276-21.195-2.602-1.668-1.013-2.322-4.645-2.543-6.317h-.242s.459 5.838 2.64 7.176c2.18 1.339 13.013 2.669 21.193 2.602 2.365 0 3.182-.859 3.136-2.105-.33.77-1.23 1.246-2.99 1.246z" opacity=".2"/>
        <path stroke="#535461" stroke-width="2" d="M280.702 343.818s-4.632-15.732.868-27.311a24.847 24.847 0 0 0 2.01-15.59 41.838 41.838 0 0 0-2.206-7.318"/>
        <path fill="#0DA176" d="M284.797 286.281c0 1.93-3.49 7.506-3.49 7.506s-3.494-5.592-3.494-7.506a3.494 3.494 0 0 1 6.984 0zM290.568 296.964c-1.047 1.618-7.018 4.411-7.018 4.411s.109-6.588 1.155-8.205a3.492 3.492 0 1 1 5.863 3.794zM290.313 315.214c-1.718.868-8.285.267-8.285.267s3.424-5.633 5.141-6.504a3.5 3.5 0 0 1 3.144 6.254v-.017zM287.015 328.978c-1.55 1.147-8.122 1.668-8.122 1.668s2.418-6.13 3.97-7.276a3.496 3.496 0 0 1 4.169 5.612l-.017-.004zM276.22 301.75c1.384 1.343 7.826 2.736 7.826 2.736s-1.58-6.4-2.96-7.743a3.49 3.49 0 1 0-4.866 5.003v.005zM272.555 317.887c1.722.867 8.285.267 8.285.267s-3.42-5.633-5.141-6.505a3.494 3.494 0 0 0-3.144 6.238zM271.167 334.082c1.546 1.146 8.118 1.668 8.118 1.668s-2.419-6.134-3.97-7.28a3.498 3.498 0 0 0-4.17 5.616l.022-.004z"/>
        <path fill="#0DA176" d="M284.797 286.281c0 1.93-3.49 7.506-3.49 7.506s-3.494-5.592-3.494-7.506a3.494 3.494 0 0 1 6.984 0zM290.568 296.964c-1.047 1.618-7.018 4.411-7.018 4.411s.109-6.588 1.155-8.205a3.492 3.492 0 1 1 5.863 3.794zM290.313 315.214c-1.718.868-8.285.267-8.285.267s3.424-5.633 5.141-6.504a3.5 3.5 0 0 1 3.144 6.254v-.017zM287.015 328.978c-1.55 1.147-8.122 1.668-8.122 1.668s2.418-6.13 3.97-7.276a3.496 3.496 0 0 1 4.169 5.612l-.017-.004zM276.22 301.75c1.384 1.343 7.826 2.736 7.826 2.736s-1.58-6.4-2.96-7.743a3.49 3.49 0 1 0-4.866 5.003v.005zM272.555 317.887c1.722.867 8.285.267 8.285.267s-3.42-5.633-5.141-6.505a3.494 3.494 0 0 0-3.144 6.238zM271.167 334.082c1.546 1.146 8.118 1.668 8.118 1.668s-2.419-6.134-3.97-7.28a3.498 3.498 0 0 0-4.17 5.616l.022-.004z"/>
        <path fill="#A8A8A8" d="M269.749 342.825s5.645-1.121 7.147-2.614c1.5-1.493 8.276-4.107 9.03-2.239.756 1.868 10.154 8.214 3.754 9.336-6.4 1.121-15.049 1.492-16.929.746-1.88-.746-3.002-5.229-3.002-5.229z"/>
        <path fill="#000" d="M289.688 346.611c-6.396 1.122-15.048 1.497-16.929.751-1.43-.571-2.426-3.302-2.823-4.587l-.187.038s1.13 4.482 3.01 5.229c1.88.746 10.533.375 16.929-.747 1.843-.325 2.372-1.084 2.172-2.043-.158.638-.8 1.122-2.172 1.36z" opacity=".2"/>
        <path fill="#FF6584" d="M70.992 35.763v.15a.48.48 0 0 0 0 .08v.445a.054.054 0 0 1 0 .025v.271l-.038.292c0 .067-.02.13-.033.192a.771.771 0 0 0 0 .096v.058a.208.208 0 0 1 0 .05c0 .034 0 .067-.02.1-.022.034 0 .067-.022.1-.02.034 0 .05 0 .075 0 .025-.02.088-.029.13a.667.667 0 0 1-.02.087 1.042 1.042 0 0 1-.03.109c0 .041-.02.087-.033.129a.1.1 0 0 0 0 .033c0 .046-.025.088-.042.134-.038.133-.083.27-.13.417 0 .041-.033.083-.045.125-.013.041-.021.05-.03.07-.299.796-.709 1.546-1.217 2.227l-.096.125a9.236 9.236 0 0 1-.784.893L55.285 55.2l-13.01-13.009a9.269 9.269 0 0 1-1.02-1.213 8.956 8.956 0 0 1-.53-.834 9.219 9.219 0 0 1-1.114-5.229c0-.166.034-.333.059-.5.041-.278.096-.57.162-.876 0-.058.03-.116.046-.17l.025-.092v-.05l.038-.134c.029-.1.062-.2.096-.3l.045-.138c.067-.196.142-.387.226-.58l.05-.112.075-.17.133-.276c0-.042.042-.083.067-.125.022-.048.047-.094.075-.138.03-.058.062-.112.096-.17A.834.834 0 0 0 40.85 31a.171.171 0 0 0 .029-.046l.062-.1c.025-.037.046-.075.071-.108l.167-.25.058-.084.076-.104.079-.109.1-.129.087-.108.034-.042.062-.075c.033-.042.068-.082.105-.12a.613.613 0 0 1 .041-.055l.075-.088.092-.096c.08-.087.163-.175.25-.258l.1-.1.155-.146.104-.096.125-.108.08-.071.082-.067.163-.133.083-.067c.142-.108.284-.213.417-.309l.084-.058.087-.058.084-.055.12-.075.063-.037.088-.054c.12-.067.242-.138.363-.2l.07-.038.113-.058.092-.042.096-.046.091-.046.092-.042.096-.041c.125-.054.254-.104.38-.15l.095-.038.1-.037.092-.03.075-.025.175-.058.142-.096.071-.02h.07l.13-.038.167-.042c.17-.042.346-.08.521-.113H47.58c.167 0 .334-.037.505-.05h1.397c.137 0 .27.025.417.038l.183.025h.388c.175.033.346.07.517.113l.213.054h.058l.092.025.175.05.075.025.38.13.083.032.112.042.175.071.192.083.075.034.109.05.091.046.092.041.117.063.092.046.212.117.088.05.308.187.084.054.087.059.084.058.058.038.363.267.083.066.163.134.083.066.08.071.125.109.104.096.154.146.1.1.104-.1c.05-.05.1-.1.155-.146.032-.035.067-.067.104-.096l.12-.109.084-.07.08-.067.166-.134.084-.066c.141-.109.283-.213.417-.309l.087-.058.088-.059.083-.054.121-.075.063-.038.087-.054c.121-.066.242-.137.363-.2l.07-.037.113-.059.092-.041.092-.046.096-.046.091-.042.096-.042c.125-.054.25-.104.38-.15l.092-.037.104-.038.092-.029.075-.025.175-.058.087-.025.075-.021h.071l.125-.038.167-.041c.175-.042.35-.08.525-.113H60.59c.166 0 .337-.038.504-.05h1.397l.417.037.18.025h.391c.171.034.346.071.517.113l.213.054h.058l.092.025.175.05.075.025.38.13.083.033.113.042.17.07.196.084.076.033.104.05.091.046.096.042.113.062.092.046.212.117.092.05.309.188.079.054.087.058.092.067.054.038a8.146 8.146 0 0 1 .613.467l.084.066.079.071.108.092.105.096.058.058.1.096.046.046.054.054.1.1.154.163c.03.03.058.062.084.096.05.05.096.104.146.158l.15.18c.17.212.33.416.48.65.03.02.06.045.087.07.025.031.047.063.067.097l.054.087.092.146.079.138.046.083.037.067.038.067.054.1.05.1c.12.233.23.475.33.717l.041.104c.038.1.075.2.108.3.013.03.024.06.034.092 0 .046.029.088.042.13l.037.116.025.075c0 .038.02.071.03.104l.037.134c.02.07.037.146.054.217.017.07.02.075.03.112.007.038.02.104.033.159a.417.417 0 0 0 0 .07v1.206a.559.559 0 0 1 0 .083.559.559 0 0 1 0 .083v.28l.179.296z"/>
        <path fill="#000" d="M70.992 35.763v.15a.48.48 0 0 0 0 .08v.445a.054.054 0 0 1 0 .025v.271l-.038.292c0 .067-.02.13-.033.192a.771.771 0 0 0 0 .096v.058a.208.208 0 0 1 0 .05c0 .034 0 .067-.02.1-.022.034 0 .067-.022.1-.02.034 0 .05 0 .075 0 .025-.02.088-.029.13a.667.667 0 0 1-.02.087 1.042 1.042 0 0 1-.03.109c0 .041-.02.087-.033.129a.1.1 0 0 0 0 .033c0 .046-.025.088-.042.134-.038.133-.083.27-.13.417 0 .041-.033.083-.045.125-.013.041-.021.05-.03.07a9.173 9.173 0 0 0-2.439-8.66 9.323 9.323 0 0 0-2.076-1.547 9.173 9.173 0 0 0-9.853.547c-.43.301-.831.64-1.2 1.013a10.082 10.082 0 0 0-1.126-.96 9.21 9.21 0 0 0-11.12.271 9.327 9.327 0 0 0-2.286 2.682 8.656 8.656 0 0 0-.392.788c-.066.146-.129.296-.187.446 0-.058.029-.117.046-.17l.025-.093v-.05l.037-.133c.03-.1.063-.2.096-.3l.046-.138c.067-.196.142-.388.225-.58l.05-.112.075-.17.133-.276c0-.042.042-.083.067-.125.022-.048.047-.094.075-.138.03-.058.063-.112.096-.17a.834.834 0 0 0 .046-.084.171.171 0 0 0 .03-.046l.062-.1c.025-.038.046-.075.07-.108l.167-.25.059-.084.075-.104.08-.109.1-.129.087-.108.033-.042.063-.075c.032-.042.067-.083.104-.121a.613.613 0 0 1 .042-.054l.075-.088.091-.096c.08-.087.163-.175.25-.258l.1-.1.155-.146.104-.096.125-.109.08-.07.083-.067.162-.134.084-.066c.142-.109.283-.213.417-.309l.083-.058.088-.059.083-.054.121-.075.063-.037.087-.055c.121-.066.242-.137.363-.2l.07-.037.113-.059.092-.041.096-.046.092-.046.091-.042.096-.041c.125-.055.255-.105.38-.15l.096-.038.1-.038.091-.029.076-.025.175-.058.133-.067.071-.02h.07l.13-.038.167-.042c.17-.042.346-.08.521-.113H47.58c.167 0 .334-.037.505-.05h1.397c.137 0 .27.025.417.038l.183.025h.388c.175.033.346.07.517.113l.213.054h.058l.092.025.175.05.075.025.38.13.083.032.112.042.175.071.192.083.075.034.109.05.091.046.092.041.117.063.092.046.212.117.088.05.308.187.084.054.087.059.084.058.058.038.363.267.083.066.163.134.083.066.08.071.125.109.104.096.154.146.1.1.104-.1c.05-.05.1-.1.155-.146.032-.035.067-.067.104-.096l.12-.109.084-.07.08-.067.166-.134.084-.066c.141-.109.283-.213.417-.309l.087-.058.088-.059.083-.054.121-.075.063-.038.087-.054c.121-.066.242-.137.363-.2l.07-.037.113-.059.092-.041.092-.046.096-.046.091-.042.096-.042c.125-.054.25-.104.38-.15l.092-.037.104-.038.092-.029.075-.025.175-.058.087-.025.075-.021h.071l.125-.038.167-.041c.175-.042.35-.08.525-.113H60.59c.166 0 .337-.038.504-.05h1.397l.417.037.18.025h.391c.171.034.346.071.517.113l.213.054h.058l.092.025.175.05.075.025.38.13.083.033.113.042.17.07.196.084.076.033.104.05.091.046.096.042.113.062.092.046.212.117.092.05.309.188.079.054.087.058.092.067.054.038a8.146 8.146 0 0 1 .613.467l.084.066.079.071.108.092.105.096.058.058.1.096.046.046.054.054.1.1.154.163c.03.03.058.062.084.096.05.05.096.104.146.158l.15.18c.17.212.33.416.48.65.03.02.06.045.087.07.025.031.047.063.067.097l.054.087.092.146.079.138.046.083.037.067.038.067.054.1.05.1c.12.233.23.475.33.717l.041.104c.038.1.075.2.108.3.013.03.024.06.034.092 0 .046.029.088.042.13l.037.116.025.075c0 .038.02.071.03.104l.037.134c.02.07.037.146.054.217.017.07.02.075.03.112.007.038.02.104.033.159a.417.417 0 0 0 0 .07v1.206a.559.559 0 0 1 0 .083.559.559 0 0 1 0 .083v.28l.179.296z" opacity=".1"/>
    </g>
</svg>
