<svg xmlns="http://www.w3.org/2000/svg" width="12" height="12" viewBox="0 0 12 12">
    <path fill="#FFF" fill-rule="evenodd" d="M11.213 5.238c.213 0 .398.073.553.221A.717.717 0 0 1 12 6a.777.777 0 0 1-.221.553.745.745 0 0 1-.566.234h-4.45v4.426c0 .23-.074.418-.222.566A.736.736 0 0 1 6 12a.717.717 0 0 1-.541-.234.777.777 0 0 1-.221-.553V6.787H.787a.756.756 0 0 1-.553-.234A.756.756 0 0 1 0 6c0-.213.078-.393.234-.541a.777.777 0 0 1 .553-.221h4.45V.81c0-.229.074-.422.222-.577A.717.717 0 0 1 6 0c.213 0 .393.078.541.234a.808.808 0 0 1 .221.577v4.427h4.451z"/>
</svg>
