<?xml version="1.0" encoding="UTF-8"?>
<svg width="79px" height="64px" viewBox="0 0 79 64" version="1.1" xmlns="http://www.w3.org/2000/svg" xmlns:xlink="http://www.w3.org/1999/xlink">
    <!-- Generator: Sketch 53 (72520) - https://sketchapp.com -->
    <title>“</title>
    <desc>Created with Sketch.</desc>
    <g id="Static" stroke="none" stroke-width="1" fill="none" fill-rule="evenodd" opacity="0.266350446">
        <g id="Home-page----1440---alternate-1-with-dropdown" transform="translate(-120.000000, -1967.000000)" fill="#AAAAAA">
            <path d="M137.173913,1998.8552 C141.372002,1999.24133 144.80675,2000.88234 147.478261,2003.77828 C150.149772,2006.67422 151.485507,2010.34236 151.485507,2014.78281 C151.485507,2019.60938 150.054362,2023.51884 147.192029,2026.51131 C144.329696,2029.50379 140.704128,2031 136.315217,2031 C131.35384,2031 127.394338,2029.16593 124.436594,2025.49774 C121.47885,2021.82954 120,2016.13428 120,2008.41176 C120,1993.54593 124.865893,1980.70744 134.597826,1969.89593 C136.506048,1967.9653 138.700471,1967 141.181159,1967 C143.280204,1967 145.092988,1967.72397 146.619565,1969.17195 C148.146143,1970.61992 148.90942,1972.30919 148.90942,1974.23982 C148.90942,1976.36351 148.146143,1978.19758 146.619565,1979.74208 C141.658188,1984.95478 138.509669,1991.32575 137.173913,1998.8552 Z M184.688406,1998.8552 C188.886494,1999.24133 192.321243,2000.88234 194.992754,2003.77828 C197.664265,2006.67422 199,2010.34236 199,2014.78281 C199,2019.60938 197.568855,2023.51884 194.706522,2026.51131 C191.844189,2029.50379 188.218621,2031 183.82971,2031 C178.868333,2031 174.908831,2029.16593 171.951087,2025.49774 C168.993343,2021.82954 167.514493,2016.13428 167.514493,2008.41176 C167.514493,1993.54593 172.380386,1980.70744 182.112319,1969.89593 C184.020541,1967.9653 186.214963,1967 188.695652,1967 C190.794696,1967 192.60748,1967.72397 194.134058,1969.17195 C195.660636,1970.61992 196.423913,1972.30919 196.423913,1974.23982 C196.423913,1976.36351 195.660636,1978.19758 194.134058,1979.74208 C189.172681,1984.95478 186.024161,1991.32575 184.688406,1998.8552 Z" id="“"></path>
        </g>
    </g>
</svg>