<svg xmlns="http://www.w3.org/2000/svg" xmlns:xlink="http://www.w3.org/1999/xlink" width="267" height="529" viewBox="0 0 267 529">
    <defs>
        <rect id="b" width="181" height="43" x="23" y="383" rx="4"/>
        <filter id="a" width="103.9%" height="116.3%" x="-1.9%" y="-5.8%" filterUnits="objectBoundingBox">
            <feOffset dy="1" in="SourceAlpha" result="shadowOffsetOuter1"/>
            <feGaussianBlur in="shadowOffsetOuter1" result="shadowBlurOuter1" stdDeviation="1"/>
            <feColorMatrix in="shadowBlurOuter1" values="0 0 0 0 0 0 0 0 0 0 0 0 0 0 0 0 0 0 0.161741395 0"/>
        </filter>
    </defs>
    <g fill="none" fill-rule="evenodd">
        <path stroke="#0DA176" stroke-linecap="round" stroke-linejoin="round" stroke-width="2" d="M115.5 1.203V446.91"/>
        <g transform="translate(0 1)">
            <use fill="#000" filter="url(#a)" xlink:href="#b"/>
            <use fill="#0DA176" xlink:href="#b"/>
        </g>
        <g transform="translate(101 11)">
            <circle cx="14" cy="14" r="14" fill="#0DA176"/>
            <path fill="#FFF" d="M11.73 18v-1.02h2.19V9.93h-1.74v-.795a7.48 7.48 0 0 0 1.148-.293c.325-.115.617-.252.877-.412h.945v8.55h1.98V18h-5.4z"/>
        </g>
        <g transform="translate(101 135)">
            <circle cx="14" cy="14" r="14" fill="#0DA176"/>
            <path fill="#FFF" d="M11.145 18v-.735c.72-.72 1.36-1.37 1.92-1.95.56-.58 1.03-1.117 1.41-1.612.38-.496.67-.95.87-1.365.2-.416.3-.818.3-1.208 0-.55-.15-1-.45-1.35-.3-.35-.755-.525-1.365-.525-.4 0-.77.112-1.11.337-.34.226-.65.498-.93.818l-.705-.705c.4-.44.825-.792 1.275-1.057.45-.266.99-.398 1.62-.398.89 0 1.59.257 2.1.773.51.515.765 1.197.765 2.047 0 .45-.097.902-.293 1.357a7.661 7.661 0 0 1-.81 1.41c-.345.486-.754.99-1.23 1.515a70.342 70.342 0 0 1-1.567 1.673l.81-.06c.28-.02.545-.03.795-.03h2.775V18h-6.18z"/>
        </g>
        <g transform="translate(101 266)">
            <circle cx="14" cy="14" r="14" fill="#0DA176"/>
            <path fill="#FFF" d="M14.085 18.18c-.38 0-.727-.037-1.043-.113a4.266 4.266 0 0 1-.862-.3 3.816 3.816 0 0 1-.697-.427 4.126 4.126 0 0 1-.548-.51l.63-.81c.29.3.627.565 1.013.795.385.23.862.345 1.432.345.58 0 1.055-.157 1.425-.473.37-.315.555-.742.555-1.282 0-.28-.052-.537-.158-.772a1.49 1.49 0 0 0-.517-.608c-.24-.17-.555-.3-.945-.39-.39-.09-.87-.135-1.44-.135v-.945c.51 0 .937-.045 1.283-.135.345-.09.624-.215.84-.375.215-.16.367-.35.457-.57.09-.22.135-.455.135-.705 0-.47-.147-.84-.442-1.11-.296-.27-.698-.405-1.208-.405-.4 0-.767.09-1.102.27a4.01 4.01 0 0 0-.938.705l-.66-.78a5.16 5.16 0 0 1 1.223-.862c.445-.226.952-.338 1.522-.338.42 0 .805.055 1.155.165.35.11.652.267.907.473.256.205.453.457.593.757.14.3.21.645.21 1.035 0 .58-.16 1.055-.48 1.425-.32.37-.74.655-1.26.855v.06c.29.07.56.172.81.308.25.135.47.304.66.51.19.205.337.442.442.712.106.27.158.57.158.9 0 .42-.082.8-.247 1.14-.166.34-.39.627-.675.863a3.046 3.046 0 0 1-.998.54c-.38.125-.79.187-1.23.187z"/>
        </g>
        <g transform="translate(33 392)">
            <circle cx="14" cy="14" r="14" fill="#FFF"/>
            <path fill="#0DA176" d="M15.105 18v-2.64H10.8v-.81l4.095-6.12h1.38v5.94h1.305v.99h-1.305V18h-1.17zm-3-3.63h3v-2.775a27.232 27.232 0 0 1 .075-1.845h-.06c-.12.23-.245.455-.375.675-.13.22-.265.445-.405.675l-2.235 3.27z"/>
        </g>
        <g transform="translate(120 501)">
            <circle cx="14" cy="14" r="14" fill="#0DA176"/>
            <path fill="#FFF" d="M14.16 18.18c-.34 0-.692-.082-1.058-.247a3.954 3.954 0 0 1-1.027-.683h-.045l-.105.75h-.99V7.32h1.23v2.91l-.03 1.32c.33-.29.69-.532 1.08-.728.39-.195.79-.292 1.2-.292.47 0 .885.087 1.245.263.36.175.662.424.907.75.246.325.43.714.555 1.17.126.455.188.962.188 1.522 0 .62-.085 1.175-.255 1.665-.17.49-.4.905-.69 1.245-.29.34-.625.597-1.005.773-.38.175-.78.262-1.2.262zm-.21-1.035c.3 0 .577-.067.833-.203.255-.135.474-.324.66-.57.185-.245.33-.547.434-.907.106-.36.158-.765.158-1.215 0-.4-.035-.765-.105-1.095a2.447 2.447 0 0 0-.338-.848 1.617 1.617 0 0 0-.6-.547 1.848 1.848 0 0 0-.877-.195c-.59 0-1.24.33-1.95.99v3.825c.32.28.637.477.953.593.315.115.592.172.832.172z"/>
        </g>
        <g transform="translate(239 501)">
            <circle cx="14" cy="14" r="14" fill="#0DA176"/>
            <path fill="#FFF" d="M15.27 18.18c-.48 0-.93-.085-1.35-.255a3.033 3.033 0 0 1-1.088-.742 3.492 3.492 0 0 1-.72-1.2 4.642 4.642 0 0 1-.262-1.613c0-.61.095-1.152.285-1.627.19-.476.445-.878.765-1.208.32-.33.692-.58 1.117-.75.426-.17.873-.255 1.343-.255.48 0 .89.085 1.23.255.34.17.64.37.9.6l-.63.81a3.088 3.088 0 0 0-.668-.465 1.706 1.706 0 0 0-.787-.18c-.33 0-.635.067-.915.202-.28.136-.52.328-.72.578-.2.25-.357.547-.473.893a3.613 3.613 0 0 0-.172 1.147c0 .42.055.8.165 1.14.11.34.262.632.458.877.195.246.432.435.712.57.28.136.585.203.915.203.34 0 .652-.072.938-.218a3.79 3.79 0 0 0 .772-.517l.54.825c-.33.29-.695.517-1.095.683-.4.165-.82.247-1.26.247z"/>
        </g>
        <g transform="translate(0 501)">
            <circle cx="14" cy="14" r="14" fill="#0DA176"/>
            <path fill="#FFF" d="M13.35 18.18c-.61 0-1.117-.18-1.522-.54-.406-.36-.608-.87-.608-1.53 0-.8.355-1.412 1.065-1.837.71-.426 1.845-.723 3.405-.893 0-.23-.022-.455-.067-.675a1.688 1.688 0 0 0-.233-.585 1.221 1.221 0 0 0-.458-.412c-.195-.106-.442-.158-.742-.158-.42 0-.815.08-1.185.24-.37.16-.7.34-.99.54l-.48-.855a7.96 7.96 0 0 1 1.245-.637 4.157 4.157 0 0 1 1.62-.308c.89 0 1.535.272 1.935.818.4.545.6 1.272.6 2.182V18h-1.02l-.105-.87h-.045c-.35.29-.725.537-1.125.742-.4.206-.83.308-1.29.308zm.36-.99c.35 0 .68-.082.99-.248.31-.165.64-.407.99-.727V14.19c-.61.08-1.122.175-1.537.285-.416.11-.75.24-1.005.39-.256.15-.44.322-.556.518a1.233 1.233 0 0 0-.172.637c0 .42.125.72.375.9.25.18.555.27.915.27z"/>
        </g>
        <g stroke="#0DA176" stroke-linecap="round" stroke-width="2">
            <path d="M13 501v-52h238.874a2 2 0 0 1 2 2v48a2 2 0 0 1-2 2"/>
            <path stroke-linejoin="round" d="M133.427 501v-51"/>
        </g>
    </g>
</svg>
