<svg xmlns="http://www.w3.org/2000/svg" xmlns:xlink="http://www.w3.org/1999/xlink" width="469" height="359" viewBox="0 0 469 359">
    <defs>
        <path id="a" d="M49.03 24.895c0 13.469-10.918 24.387-24.387 24.387C11.175 49.282.256 38.364.256 24.895.256 11.427 11.176.51 24.643.51c13.469 0 24.387 10.918 24.387 24.386z"/>
    </defs>
    <g fill="none" fill-rule="evenodd">
        <path fill="#EA0B4B" d="M146.818 339.354c-7.119-.96-18.437-2.319-18.434 3.439.002 2.173 10.044 4.264 11.705 4.665 5.14 1.24 9.953 3.073 14.975 4.927 9.318 3.442 16.78-1.195 9.402-6.393-6.084-4.287-11.91-5.864-17.648-6.638m155.337 12.633c-.495.463-.964.968-1.261 1.566-.816 1.639.024 3.858 1.775 4.569.88.356 1.868.35 2.824.337 8.183-.11 16.979-.41 23.516-5.105.798-.574 1.622-1.379 1.482-2.322-.172-1.14-1.587-1.633-2.772-1.863-8.18-1.58-18.989-3.345-25.564 2.818m137.413-127.07c-.972.396-1.964.895-2.522 1.752-.435.67-.553 1.479-.64 2.263a45.112 45.112 0 0 0-.275 4.917c-.002 1.799.193 3.792 1.574 5.016 1.861 1.648 4.817 1.071 7.255.39 1.374-.384 2.84-.824 3.722-1.9.646-.786.883-1.802 1.06-2.787.59-3.282 2.398-8.253.395-9.952-2.004-1.699-7.08-1.121-10.569.3m-397.741-99.92c-1.064-3.243-3.577-4.855-7.38-3.008-2.269 1.102-3.85 3.15-5.206 5.205-2.188 3.32-4.07 7.112-3.61 11.007.335 2.84 1.974 5.516 4.401 7.192.995.688 2.173 1.223 3.402 1.181 1.348-.044 2.566-.771 3.612-1.584 2.475-1.92 4.379-4.412 6.254-6.875.973-1.276 1.977-2.63 2.163-4.197.396-3.324-2.659-5.936-3.636-8.92m54.255-88.715c-1.438-.943-3.293-.4-4.723.337-.311.16-.63.376-.72.702-.188.676.668 1.156 1.365 1.374 1.087.34 2.27.67 3.35.312 1.08-.36 2.165-1.783.728-2.725m11.64-6.413c-.384.208-.581.616-.812.974-.794 1.231-2.169 2.017-3.57 2.565-.822.323-1.707.6-2.313 1.22-.964.984-.846 2.74.24 3.6.878.695 2.118.765 3.258.707 4.264-.21 8.445-1.772 11.725-4.38 4.317-3.432-6.155-5.971-8.528-4.686m120.844-13.5c0 2.782 0 7.557 12.267 6.776 3.764-.24 6.832-2.256 6.832-5.038 0-2.782-3.059-5.04-6.832-5.04-3.772 0-12.267-1.144-12.267 3.301M440.594 128.48c6.57 11.942 16.123 23.204 16.949 36.667 1.326 21.625-19.759 37.93-28.38 57.97-10.584 24.6-1.708 53.585-11.076 78.629-6.789 18.15-23.442 32.647-43.01 37.445-10.95 2.685-22.322 2.459-33.684 2.234-3.857-.076-7.714-.152-11.551-.114-42.991.417-85.816 15.283-128.22 8.535-20.94-3.334-40.736-11.84-61.771-14.568-25.225-3.272-54.616.685-72.642-16.458-25.186-23.95-6.488-67.987-25.39-96.72-6.086-9.252-15.89-16.492-19.177-26.955-3.841-12.227 2.381-25.258 10.108-35.68 7.727-10.424 17.287-20.023 21.473-32.147 3.8-11.01 1.479-22.977-3.195-33.676-7.16-16.391 12.77-53.975 52.308-51.158 18.123 1.29 26.282-19.702 46.163-25.52 22.764-6.663 51.342-1.307 68.115 4.268 17.042 5.663 38.11 8.642 47.88-5.831 13.792-20.433 54.91-23.63 73.374 9.552 6.744 12.12 12.748 21.55 27.102 20.625 77.789-5.013 64.861 65.154 74.624 82.902" opacity=".1"/>
        <path fill="#5677AD" d="M380.687 203.287s16.536-1.51 32.207-7.929c.496-.203.797 3.165.797 3.165s2.306-4.503 3.107-4.881c8.483-4 16.261-9.575 20.431-17.291 0 0 2.054 47.318-58.773 57.827l2.23-30.891M400.915 257.266s20.075 10.64 59.331 12.49c0 0-26.707 24.37-87.81 15.98l2.004-27.755 26.475-.715"/>
        <path fill="#5E82B5" d="M372.832 230.25s9.06-5.788 23.77-10.787c.587-.199 1.828 3.268 1.828 3.268s2.01-4.516 3.071-4.833c17.571-5.262 41.616-8.698 67.513-1.388 0 0-7.846 10.93-23.904 22.893-.684.51-5.22.108-5.22.108s1.905 2.294 1.278 2.73c-15.258 10.61-36.892 21.42-65.149 25.7l-3.187-37.69"/>
        <path fill="#4B68A3" d="M397.633 247.634v-1.133c3.252-.954 6.474-2.005 9.717-2.987 2.635-.92 5.283-1.803 7.914-2.733-.385.367-.773.733-1.163 1.097.82-.484 1.623-.999 2.405-1.541 1.186-.429 2.367-.87 3.542-1.331 8.442-3.072 16.733-6.557 24.9-10.308a339.827 339.827 0 0 0 12.152-5.848 266.541 266.541 0 0 0 11.914-6.34c-7.57 4.884-15.534 9.149-23.639 13.095-8.102 3.959-16.434 7.439-24.87 10.627-1.56.599-3.133 1.162-4.712 1.706a164.89 164.89 0 0 1-1.692-.06c.298.12.6.23.905.329-2.426.827-4.864 1.618-7.29 2.441l-6.482 1.941c-1.081.317-2.157.658-3.243.956l-.358.09"/>
        <path fill="#4B68A3" d="M414.101 241.878c.39-.364.778-.73 1.163-1.097 1.27-1.21 2.516-2.432 3.76-3.647 1.609-1.603 3.196-3.217 4.722-4.884 1.542-1.654 2.985-3.39 4.406-5.146a80.11 80.11 0 0 0 3.953-5.553 29.723 29.723 0 0 1-3.124 6.15 45.418 45.418 0 0 1-4.272 5.434c-2.491 2.665-5.21 5.129-8.203 7.202a39.342 39.342 0 0 1-2.405 1.541M397.633 244.25v-1.746c.56-.603 1.1-1.222 1.614-1.863a37.694 37.694 0 0 0 3.643-5.191c1.112-1.816 2-3.756 2.913-5.732-.424 2.121-1.017 4.254-2.01 6.213-.913 1.998-2.15 3.839-3.537 5.544a27.593 27.593 0 0 1-2.623 2.774M421.735 243.19c-1.008 0-2.015-.056-3.013-.189-1.259-.157-2.51-.4-3.716-.794a14.099 14.099 0 0 1-.905-.329c.566.023 1.13.043 1.692.06 1.006.029 2.006.046 3 .046 1.546 0 3.08-.042 4.612-.151 1.536-.081 3.062-.261 4.586-.483 1.536-.198 3.036-.551 4.604-.835-1.368.792-2.847 1.44-4.39 1.834-1.538.437-3.123.683-4.715.789-.583.034-1.17.052-1.755.052M402.855 251.552c-.473 0-.945-.01-1.417-.028a42.613 42.613 0 0 1-3.805-.38v-1.183c1.29.108 2.576.2 3.864.256 1.005.05 2.008.07 3.011.07.856 0 1.712-.015 2.569-.038a55.81 55.81 0 0 0 5.6-.559 20.662 20.662 0 0 1-5.504 1.578 31.691 31.691 0 0 1-4.318.284"/>
        <path fill="#516DA6" d="M397.633 215.16v-.978c.37-.119.734-.25 1.092-.4 2.17-.856 4.4-1.543 6.483-2.593 1.047-.505 2.147-.902 3.158-1.473l3.06-1.67c4.005-2.343 7.77-5.097 11.127-8.311.835-.81 1.677-1.613 2.427-2.504.384-.436.785-.86 1.155-1.309l1.079-1.374c1.435-1.835 2.73-3.793 3.766-5.901-1.62 4.439-4.476 8.35-7.714 11.792-3.26 3.458-7.108 6.32-11.185 8.74l-3.138 1.678c-1.042.57-2.159.98-3.237 1.467-2.154.996-4.422 1.69-6.672 2.417a15.3 15.3 0 0 1-1.4.42"/>
        <path fill="#618FBE" d="M447.422 273.097c-2.751.529-5.534.853-8.318 1.182-2.787.27-5.582.472-8.383.615-5.602.273-11.222.146-16.826-.24a112.786 112.786 0 0 1-8.368-1.004c-2.777-.421-5.548-.932-8.266-1.659-5.436-1.409-10.779-3.373-15.565-6.299 2.525 1.208 5.105 2.272 7.757 3.12a75.484 75.484 0 0 0 8.043 2.2c5.43 1.188 10.954 1.931 16.501 2.34 5.545.488 11.121.597 16.696.539a228.023 228.023 0 0 0 16.729-.794"/>
        <path fill="#618FBE" d="M421.11 282.904c-3.654.29-7.39-.5-10.744-2.123-1.663-.85-3.204-1.968-4.492-3.328-1.307-1.355-2.191-3.054-2.765-4.777 1.041 1.514 2.141 2.896 3.478 4.044 1.346 1.124 2.791 2.11 4.368 2.891 1.57.789 3.225 1.416 4.922 1.958 1.704.515 3.44.99 5.234 1.335M406.476 283.775c-3.63-.508-7.106-2.088-10.03-4.4-1.44-1.19-2.7-2.616-3.664-4.222-.984-1.604-1.478-3.455-1.667-5.262.69 1.704 1.465 3.291 2.52 4.701 1.07 1.389 2.27 2.665 3.64 3.77 1.362 1.109 2.842 2.08 4.382 2.976 1.551.871 3.144 1.711 4.82 2.437"/>
        <path fill="#EA0B4B" d="M246.05 323.777c-6.108-7.038-15.4-11.209-24.721-11.086-6.882.09-13.64 2.378-20.507 1.956-7.214-.433-14.193-4.008-18.755-9.621-4.563-5.614-6.65-13.164-5.609-20.322.796-5.441 3.642-10.905 8.57-13.34 2.684-1.323 5.788-1.655 8.77-1.386 2.754.247 5.39.994 7.879 2.107 5.698 2.528 10.653 6.985 14.614 11.905 3.595 4.475 11.808 11.058 17.36 15.308 3.255 2.48 5.602 4.16 5.602 4.16 3.915 3.619 4.118 15.708 6.798 20.32" opacity=".516"/>
        <path fill="#EA0B4B" d="M185.612 287.123c17.27 4.918 36.314 11.89 49.714 23.681a.495.495 0 1 0 .653-.743c-13.608-11.963-32.775-18.952-50.096-23.889a.494.494 0 1 0-.271.951"/>
        <path fill="#5E82B5" d="M297.213 284.214c-.256 2.873-.844 5.811-2.24 8.421-.963 1.8-2.268 3.375-3.744 4.773a28.789 28.789 0 0 1-2.4 2.032c-3.213 2.449-6.787 4.322-10.498 5.507-5.409 1.721-11.2 2.04-16.17 5.09-2.28 1.396-4.28 3.34-5.816 5.607a19.165 19.165 0 0 0-2.29 4.545l-.021-4.844c.53-5.363 1.073-10.825 3.071-15.951 1.29-3.321 3.153-6.417 5.191-9.355 3.256-4.702 6.999-9.082 11.318-12.725 3.492-2.945 7.491-5.446 11.76-6.082 4.262-.639 8.8.94 10.752 4.696 1.255 2.414 1.346 5.404 1.087 8.286"/>
        <path fill="#4A6CA6" d="M263.774 300.82v-1.508a39.392 39.392 0 0 1 7.694-6.653c3.02-1.982 6.23-3.483 9.34-5.13h2.072c-3.65 2.04-7.424 3.693-10.87 5.957-3.047 2-5.831 4.493-8.236 7.333"/>
        <path fill="#EA0B4B" d="M250.38 315.228c7.609-7.548 18.401-11.006 29.01-12.528 8.85-1.268 18.142-1.316 26.42 2.062 2.593 1.058 5.15 2.53 6.682 4.873 1.534 2.343 1.751 5.726-.122 7.809-1.579 1.755-4.145 2.183-6.507 2.268-7.77.28-15.374-1.98-22.985-3.576-13.082-2.741-27.327-3.403-39.22 2.699l6.723-3.607" opacity=".516"/>
        <path fill="#EA0B4B" d="M260.059 311.715c6.512-2.748 14.273-3.984 21.81-3.983 10.464-.006 20.505 2.395 26.127 6.296a.495.495 0 1 0 .563-.813c-5.911-4.081-16.072-6.467-26.69-6.473-7.645.001-15.521 1.248-22.194 4.061a.494.494 0 1 0 .384.912"/>
        <path fill="#EA0B4B" d="M73.616 234.024c-7.115-3.419-10.525-12.529-16.371-14.487-3.711-1.282-6.054.215-9.031 1.712-2.835 1.427-6.246 2.853-11.96 1.876-9.832-1.68-12.819-12.737-29.255-9.316-5.019 1.045-8.35 5.288-6.465 10.377 1.41 5.063 8.383 8.267 12.533 10.852 3.68 2.078 6.937 3.192 9.118 7.056l.065.126c1.467 3.14.881 5.94 4.309 8.238 4.92 3.6 10.58 1.49 16.328-.62 3.63-1.333 7.295-2.665 10.83-2.56 6.44.194 6.26 6.88 14.003 8.818 3.077.769 4.515.124 6.173-.521 2.473-.963 5.438-1.925 15.07 1.808a1.121 1.121 0 1 0 1.216-1.82c-11.263-11.788-6.09-16.506-16.563-21.539" opacity=".227"/>
        <path fill="#EA0B4B" d="M73.616 234.024c-7.115-3.419-10.525-12.529-16.371-14.487-3.711-1.282-6.054.215-9.031 1.712-2.835 1.427-6.246 2.853-11.96 1.876-9.832-1.68-12.819-12.737-29.255-9.316-5.019 1.045-8.35 5.288-6.465 10.377 1.41 5.063 8.383 8.267 12.533 10.852 3.68 2.078 6.937 3.192 9.118 7.056l.065.126c1.467 3.14.881 5.94 4.309 8.238 4.92 3.6 10.58 1.49 16.328-.62 3.63-1.333 7.295-2.665 10.83-2.56 6.44.194 6.26 6.88 14.003 8.818 3.077.769 4.515.124 6.173-.521 2.473-.963 5.438-1.925 15.07 1.808a1.121 1.121 0 1 0 1.216-1.82c-11.263-11.788-6.09-16.506-16.563-21.539" opacity=".493"/>
        <path fill="#EA0B4B" d="M73.394 242.57c-2.302-2.167-4.734-4.118-7.81-5.078a8.59 8.59 0 0 0-2.596-.374c-1.096 0-2.175.164-3.255.328s-2.16.328-3.26.328c-.491 0-.988-.034-1.49-.114-2.933-.474-4.859-2.928-7.454-4.129-.918-.424-1.851-.566-2.794-.566-.931 0-1.871.138-2.816.274-.946.138-1.896.274-2.847.274-.605 0-1.21-.055-1.815-.201-2.89-.7-5.346-2.579-7.65-4.367-6.13-4.76-12.487-7.953-20.414-7.953h-.078-.001c-.414 0-.576-.967-.21-.968h.084c7.187 0 13.593 2.468 19.232 6.853 2.726 2.12 5.543 4.636 8.987 5.47.59.142 1.178.197 1.766.197.959 0 1.914-.146 2.863-.291.951-.147 1.896-.292 2.838-.292.853 0 1.702.12 2.548.469 2.865 1.18 4.896 4.001 8.128 4.33.25.025.5.037.75.037 1.995 0 3.953-.729 5.945-.774l.232-.002c1.498 0 2.955.328 4.343.896 1.474.603 2.796 1.416 4.03 2.35a166.21 166.21 0 0 0 2.744 3.302"/>
        <path fill="#EA0B4B" d="M142.884 281.865c-23.409 2.475-27.154 4.496-32.765 2.07-7.153-3.091-14.67-2.323-21.88-5.279-7.209-2.955-15.038-5.212-22.73-3.965-2.43.396-5.129 1.384-5.468 4.236-.136 1.144.232 2.302.903 3.237 1.694 2.364 4.463 3.157 7.11 3.887l8.85 2.44c2.878.794 2.693 5.034-.262 5.458l-.074.01c-2.48.337-4.99-.154-7.432-.695-5.314-1.177-10.639-2.608-16.083-2.616-6.586-.008-13.569 2.37-16.827 8.511-1.155 2.178-1.588 4.708-1.177 7.138 1.147 6.793 7.5 9.06 13.132 8.552 3.962-.358 7.707-1.889 11.448-3.242 9.138-3.306 16.956.34 26.67.593 26.81.698 56.585-30.335 56.585-30.335" opacity=".493"/>
        <path fill="#EA0B4B" d="M42.38 303.78c16.668-1.904 33.491-3.833 49.545-8.921 2.296-.73 5.02-1.213 8.815-2.74 3.794-1.528 8.655-4.097 15.301-9.002a.495.495 0 0 0-.588-.796c-6.595 4.866-11.375 7.388-15.083 8.88-3.71 1.494-6.352 1.959-8.744 2.715-15.932 5.05-32.69 6.979-49.357 8.881a.494.494 0 1 0 .112.984"/>
        <path fill="#EA0B4B" d="M69.324 206.625c.554.435 1.136.79 1.742 1.08 2.861 1.411 6.137 1.606 8.413 4.174 1.519 1.615 2.342 3.78 3.478 5.704.23.425.493.831.779 1.218 3.518 4.826 6.98 5.386 10.685 5.304 1.52-.038 3.092-.183 4.709-.182 2.475-.004 5.108.317 7.943 1.875 1.79.964 3.661 2.426 5.64 4.589.355.386.992.42 1.496.098.45-.296.68-.823.581-1.297-.99-4.454-2.928-7.378-5.26-9.575-6.557-6.204-16.236-6.696-16.823-19.505-.123-2.744.46-4.69.021-6.645-.226-.984-.711-1.974-1.677-3.073-1.983-2.136-4.834-3.081-7.374-4.789-6.877-4.905-3.6-12.931-4.209-20.568-.41-6.234-6.015-10.293-10.6-13.822-5.73-4.218-5.716-11.823-9.583-17.476-3.86-5.659-13.468-7.937-18.58-.335-5.428 7.589-2.446 17.077-.886 24.773a17.893 17.893 0 0 0 2.054 5.425c2.86 4.996 7.771 8.554 12.014 12.786 2.615 2.598 4.791 5.542 6.314 8.865a26.093 26.093 0 0 1 1.961 6.21c.092.513.191 1.021.291 1.529.99 5.339 2.158 10.092 6.871 13.637" opacity=".493"/>
        <path fill="#EA0B4B" d="M81.256 193.609c-1.033-1.745-2.953-2.764-4.253-4.315-.9-1.074-1.608-2.285-2.224-3.538-1.412-2.87-2.261-6-3.835-8.792-1.028-1.822-2.344-3.305-4.113-4.429-1.323-.84-2.68-1.489-3.601-2.807-.776-1.113-1.07-2.454-1.42-3.741-.633-2.335-1.449-4.252-3.08-6.065-2.318-2.574-5.266-4.47-7.72-6.901-5.258-5.21-5.794-12.497-6.069-19.51-.01-.273.087-.383.207-.383.171 0 .387.224.399.52.19 4.86.341 10.022 2.61 14.44 1.901 3.705 5.3 6.04 8.37 8.703 2.095 1.817 4.06 3.855 5.09 6.477.799 2.035.84 4.546 2.304 6.263 1.23 1.442 3.23 2.046 4.642 3.296 4.272 3.784 4.801 9.943 7.834 14.531 1.345 2.037 3.456 3.29 4.86 5.15v1.1"/>
        <path fill="#5677AD" d="M162.577 288.475c-4.423-1.747-10.33-2.464-13.164 1.353-2.375 3.196-1.146 7.725.495 11.353 1.384 3.063 3.142 6.176 6.062 7.841 1.995 1.137 4.332 1.48 6.612 1.75a158.257 158.257 0 0 0 19.166 1.109c7.422-.021 16.412 3.01 22.553 7.637-7.88-14.648-26.84-25.165-41.724-31.043"/>
        <path fill="#4565A1" d="M199.05 312.976h-1.808c-.38-.24-.778-.484-1.192-.731a98.792 98.792 0 0 0-4.111-2.314l.11-1.062c2.697 1.432 5.15 2.847 7.001 4.107m-15.896-7.407a185.453 185.453 0 0 0-6.335-2.81l.001-1.07c1.892.785 4.061 1.739 6.321 2.784l.013 1.096m-14.97-5.672c-3.469-.732-7.037-1.067-10.618-1.27-.02-.334-.05-.666-.084-.996 3.551.198 7.116.522 10.61 1.237l.091 1.03"/>
        <path fill="#EA0B4B" d="M378.67 179.545a8.978 8.978 0 0 0-.184 1.952c.01 3.051 1.236 5.942.005 8.983-.737 1.99-2.242 3.617-3.407 5.408a9.944 9.944 0 0 0-.711 1.185c-2.637 5.068-1.644 8.274.004 11.41.679 1.288 1.472 2.573 2.159 3.959 1.056 2.118 1.902 4.51 1.774 7.603-.063 1.944-.519 4.168-1.53 6.784-.18.468.063 1.029.552 1.322.446.263.995.234 1.358-.052 3.394-2.745 5.075-5.648 5.964-8.58 2.525-8.26-1.172-16.762 9.55-22.715 2.3-1.273 4.214-1.603 5.702-2.81.748-.613 1.388-1.45 1.919-2.746.987-2.607.584-5.45.965-8.354 1.275-7.98 9.547-8.588 15.83-12.36 5.166-3.005 6.256-9.533 7.33-14.963 1.174-6.704 7.696-9.93 10.892-15.649 3.206-5.714 1.068-14.914-7.62-16.06-8.81-1.419-15.671 5.172-21.6 9.786a17.087 17.087 0 0 0-3.773 4.068c-3.063 4.577-4.022 10.298-5.842 15.733-1.113 3.347-2.708 6.463-4.906 9.182a24.957 24.957 0 0 1-4.486 4.324c-.4.296-.794.598-1.186.899-4.152 3.122-7.729 6.145-8.76 11.69" opacity=".516"/>
        <path fill="#EA0B4B" d="M397.633 178.77v-1.719c.177-.36.374-.71.6-1.043 1.77-2.619 4.17-4.727 6.064-7.248 1.108-1.474 2.038-3.08 2.422-4.9.348-1.65.13-3.436.79-5.018.57-1.364 1.688-2.317 2.776-3.26 1.585-1.378 2.884-2.799 3.747-4.738 1.354-3.049 1.724-6.42 2.694-9.59 2.133-6.968 8.028-10.558 14.097-13.875a.235.235 0 0 1 .117-.033c.33 0 .527.773.238.931-3.555 1.943-7.237 3.94-10.073 6.89-2.935 3.054-3.941 6.865-4.885 10.867-.672 2.846-1.405 5.813-3.25 8.155-.908 1.153-2.075 2-3.137 2.995-2.032 1.905-2.001 3.935-2.394 6.485-.882 5.74-6.209 9.002-9.087 13.646a9.204 9.204 0 0 0-.719 1.456"/>
        <path fill="#EA0B4B" d="M353.1 301.69c6.74 3.8 9.49 12.929 15.08 15.218 3.497 1.472 5.866.217 8.814-1.039 2.89-1.23 6.337-2.462 11.946-1.12 9.507 2.274 11.717 13.28 28.01 10.99 4.976-.698 8.506-4.633 6.99-9.731-1.053-5.043-7.666-8.623-11.559-11.42-3.465-2.268-6.58-3.567-8.463-7.485l-.057-.128c-1.233-3.165-.479-5.866-3.683-8.333-4.576-3.832-10.24-2.14-15.99-.448-3.642 1.071-7.318 2.143-10.773 1.811-6.286-.601-5.68-7.13-13.13-9.521-2.932-.942-4.38-.423-6.023.098-2.49.786-5.43 1.574-14.666-2.722a1.098 1.098 0 1 0-1.306 1.7c10.255 12.251 4.892 16.534 14.81 22.13" opacity=".338"/>
        <path fill="#EA0B4B" d="M353.1 301.69c6.74 3.8 9.49 12.929 15.08 15.218 3.497 1.472 5.866.217 8.814-1.039 2.89-1.23 6.337-2.462 11.946-1.12 9.507 2.274 11.717 13.28 28.01 10.99 4.976-.698 8.506-4.633 6.99-9.731-1.053-5.043-7.666-8.623-11.559-11.42-3.465-2.268-6.58-3.567-8.463-7.485l-.057-.128c-1.233-3.165-.479-5.866-3.683-8.333-4.576-3.832-10.24-2.14-15.99-.448-3.642 1.071-7.318 2.143-10.773 1.811-6.286-.601-5.68-7.13-13.13-9.521-2.932-.942-4.38-.423-6.023.098-2.49.786-5.43 1.574-14.666-2.722a1.098 1.098 0 1 0-1.306 1.7c10.255 12.251 4.892 16.534 14.81 22.13l75.72 9.13" opacity=".242"/>
        <path fill="#EA0B4B" d="M415.46 319.542h-.02c-6.913-.436-13.008-3.195-18.174-7.748-2.6-2.293-5.227-5.061-8.633-6.115-.78-.242-1.571-.32-2.367-.32-.715 0-1.433.063-2.15.126-.716.063-1.43.125-2.138.125-.994 0-1.973-.123-2.925-.544-2.876-1.272-4.635-4.307-7.88-4.869a11.39 11.39 0 0 0-1.954-.156c-.805 0-1.595.065-2.382.13l-.144.011.075-.927.162-.015c.824-.075 1.647-.15 2.469-.15.847 0 1.692.08 2.53.323 2.649.766 4.298 3.19 6.652 4.465 1.12.604 2.306.763 3.523.763.67 0 1.35-.049 2.032-.096a28.947 28.947 0 0 1 2.05-.096c1.028 0 2.051.109 3.044.494 2.534.981 4.625 2.81 6.63 4.59 5.71 5.075 11.751 8.554 19.53 9.044.364.023.493.965.07.965M357.33 297.57a24.757 24.757 0 0 1-2.339-2.06v-.96c.733.73 1.494 1.424 2.3 2.05l.04.97"/>
        <path fill="#5677AD" d="M112.351 283.232s-29.382-6.428-51.979-4.009c-.714.076.156-4.376.156-4.376s-4.655 4.941-5.83 5.13c-12.427 1.985-24.535 6.264-32.793 14.652 0 0 15.033-61.756 97.36-52.574l-6.914 41.177"/>
        <path fill="#5E82B5" d="M129.432 286.544s-13.164-5.909-29.598-18.74c-.656-.512 2.324-4.455 2.324-4.455s-6.547 1.067-7.684.11c-18.835-15.849-40.383-40.306-51.233-74.747 0 0 18.038.762 43.281 9.982 1.076.392 3.96 5.78 3.96 5.78s1.175-3.828 2.123-3.445c23.136 9.318 51.186 25.642 76.783 54.205l-39.956 31.31"/>
        <path fill="#90B7D7" d="M43.561 189.717l-.32-.165.312.139.008.026"/>
        <path fill="#4B68A3" d="M81.256 211.815a524.98 524.98 0 0 0-6.63-4.224 457.579 457.579 0 0 0-15.503-9.334 353.768 353.768 0 0 0-15.562-8.54l-.008-.026c10.942 4.872 21.483 10.62 31.776 16.753a319.51 319.51 0 0 1 5.927 3.609v1.762M81.256 227.368c-1.603-.07-3.215-.106-4.84-.106h-.36a40.2 40.2 0 0 1 5.2-.84v.946M57.96 213.585a27.767 27.767 0 0 1 6.151-1.83 42.255 42.255 0 0 1 6.403-.597c.15-.002.301-.002.45-.002 3.46 0 6.925.3 10.292 1.062v.395c-1.472-.07-2.94-.124-4.404-.18a161.704 161.704 0 0 0-4.539-.074c-.593 0-1.186.005-1.779.016-2.103.02-4.198.156-6.295.323-2.093.206-4.174.5-6.28.887"/>
        <path fill="#6E9FC9" d="M34.553 281.117c3.746-5.117 8.89-9.092 14.35-12.319 5.494-3.237 11.522-5.488 17.681-7.086l4.672-.99c1.555-.344 3.148-.456 4.721-.68 1.752-.268 3.514-.4 5.28-.483v1.534c-1.697.127-3.388.285-5.063.599-1.538.258-3.103.36-4.622.718l-4.565 1.007c-6.04 1.524-11.922 3.668-17.45 6.557-1.377.729-2.763 1.451-4.062 2.318-.657.418-1.333.816-1.978 1.257l-1.903 1.367c-2.536 1.83-4.936 3.868-7.061 6.201M77.494 276.941c-.758-3.185.072-6.612 1.539-9.495a22.27 22.27 0 0 1 2.223-3.425V267a49.92 49.92 0 0 0-.66 1.246c-.715 1.354-1.293 2.757-1.844 4.183-.525 1.443-.888 2.923-1.258 4.511"/>
        <path fill="#3A5796" d="M215.114 313.502h48.66v-33.465h-48.66z"/>
        <path fill="#32488C" d="M215.114 292.166h48.66v-4.636h-48.66z"/>
        <path fill="#3A5796" d="M288.829 312.976h-98.77a5.648 5.648 0 0 0 0 11.296h98.77a5.648 5.648 0 1 0 0-11.296"/>
        <path fill="#8698C0" d="M186.255 322.798c-.373-.34-.7-.729-.972-1.156h.002c.27.427.597.816.97 1.156"/>
        <path fill="#32488C" d="M288.828 324.27H190.06a5.628 5.628 0 0 1-3.806-1.472c-.373-.34-.7-.729-.97-1.156.498.062 1.053.108 1.614.108.889 0 1.858-.12 2.606-.239.183.018.368.027.556.027h97.385a6.58 6.58 0 0 0 3.278 2.407c-.593.211-1.231.326-1.896.326"/>
        <path fill="#FFFFFE" d="M87.193 284.705a3.468 3.468 0 0 1-3.463-3.463V80.152a3.467 3.467 0 0 1 3.463-3.463h304.504a3.467 3.467 0 0 1 3.463 3.463v201.09a3.468 3.468 0 0 1-3.463 3.463H87.193"/>
        <path fill="#3A5796" d="M391.697 74.215H87.193a5.937 5.937 0 0 0-5.937 5.937v201.09a5.937 5.937 0 0 0 5.937 5.937h304.504a5.937 5.937 0 0 0 5.936-5.937V80.152a5.937 5.937 0 0 0-5.936-5.937m0 4.947c.545 0 .989.445.989.99v201.09c0 .545-.444.99-.99.99H87.194a.99.99 0 0 1-.99-.99V80.152a.99.99 0 0 1 .99-.99h304.504"/>
        <path fill="#EA0B4B" d="M297.887 206.442H181.19c-5.328 0-9.65-4.319-9.65-9.649 0-5.33 4.322-9.65 9.65-9.65h116.697c5.328 0 9.649 4.32 9.649 9.65s-4.321 9.65-9.65 9.65" opacity=".1"/>
        <path fill="#3A5796" d="M397.632 280.833v-19.66H81.257v19.66a6.695 6.695 0 0 0 6.698 6.697h302.98a6.696 6.696 0 0 0 6.697-6.697"/>
        <path fill="#EA0B4B" d="M263.832 119.606c0 13.469-10.92 24.387-24.388 24.387-13.467 0-24.386-10.918-24.386-24.387 0-13.468 10.919-24.386 24.386-24.386 13.469 0 24.388 10.918 24.388 24.386" opacity=".1"/>
        <g transform="translate(214.801 94.711)">
            <mask id="b" fill="#fff">
                <use xlink:href="#a"/>
            </mask>
            <path fill="#EA0B4B" d="M38.865 58.79V42.325c0-6.259-5.074-11.332-11.332-11.332h-5.78c-6.258 0-11.33 5.073-11.33 11.332V58.79a3.141 3.141 0 0 0 3.14 3.14h22.161a3.141 3.141 0 0 0 3.14-3.14zm-4.797-39.46a9.425 9.425 0 0 1-18.849 0c0-5.205 4.22-9.424 9.424-9.424s9.425 4.219 9.425 9.423z" mask="url(#b)"/>
        </g>
        <path fill="#EA0B4B" d="M297.793 171.734H181.096c-5.328 0-9.648-4.32-9.648-9.65 0-5.329 4.32-9.649 9.648-9.649h116.697a9.65 9.65 0 0 1 9.649 9.65 9.65 9.65 0 0 1-9.65 9.649" opacity=".1"/>
        <path fill="#EA0B4B" d="M293.742 164.605H185.147a2.52 2.52 0 0 1 0-5.04h108.595a2.52 2.52 0 0 1 0 5.04" opacity=".244"/>
        <path fill="#EA0B4B" d="M231.654 196.963a2.52 2.52 0 1 0-5.04 0 2.52 2.52 0 0 0 5.04 0m-7.493 0a2.52 2.52 0 1 0-5.04 0 2.52 2.52 0 0 0 5.04 0m-7.492 0a2.52 2.52 0 1 0-5.041 0 2.52 2.52 0 0 0 5.04 0m-7.493 0a2.52 2.52 0 1 0-5.04 0 2.52 2.52 0 0 0 5.04 0m-7.493 0a2.52 2.52 0 1 0-5.04 0 2.52 2.52 0 0 0 5.04 0m-7.493 0a2.52 2.52 0 1 0-5.04 0 2.52 2.52 0 0 0 5.04 0m-10.013 2.52a2.521 2.521 0 1 1 .002-5.042 2.521 2.521 0 0 1-.002 5.042"/>
        <path fill="#EA0B4B" d="M256.017 242.803h-33.145c-5.329 0-9.65-4.32-9.65-9.65s4.321-9.65 9.65-9.65h33.145c5.33 0 9.65 4.32 9.65 9.65a9.65 9.65 0 0 1-9.65 9.65" opacity=".32"/>
        <path fill="#E8E8E3" d="M309.149 261.173h-6.799v-1.999c0-10.06 8.186-18.246 18.248-18.246 1.16 0 2.296.11 3.398.317-8.442 1.597-14.847 9.03-14.847 17.93v1.998"/>
        <path fill="#325092" d="M338.843 269.397H302.35v-8.224h6.799v8.224h29.694"/>
        <path fill="#E8E8E3" d="M334.853 235.956a27.072 27.072 0 0 0-10.857-3.823c1.114-.14 2.248-.21 3.399-.21 1.95 0 3.857.205 5.693.597.393.575.77 1.122 1.128 1.639l.448-.08c.078.27.157.539.234.809l-.045 1.068"/>
        <path fill="#B5D6DB" d="M374.485 287.809h-5.604c-.089-.091-.177-.184-.264-.28h5.89l-.022.28"/>
        <path fill="#119385" d="M368.881 287.809h-1.194l.023-.28h.907c.087.096.175.189.264.28"/>
        <path fill="#E8E8E3" d="M376.625 261.173h-6.798l.06-.749c2.391-.383 4.527-.966 6.248-1.807l-.22-52.147v-.05-.02-.033-.02-.032-.019-.034-.017-.037c0-.005 0-.009-.002-.014v-.041-.01-.05-.002c-.094-14.727-5.67-24.415-16.312-26.176.386-.07.777-.129 1.174-.173.07-.452.05-.766-.086-1.315a6.475 6.475 0 0 1-.592-.174c-.21-.07-.409-.15-.6-.236 1.37-.75 2.52-2.18 3.265-3.954 2.716-2.62 4.56-5.86 3.667-9.946a.794.794 0 0 1 .1-.6c-1.17-2.095-3.328-3.1-5.72-5.269-.908-.821-1.834-1.422-2.759-1.834a8.555 8.555 0 0 1 3.424-.733c1.983 0 4.105.732 6.13 2.567 2.394 2.168 4.551 3.174 5.722 5.268a.794.794 0 0 0-.099.6c.894 4.09-.955 7.334-3.676 9.954-1.002 2.379-2.727 4.143-4.743 4.466-.017.464-.018.82-.006 1.184 3.919.345 7.214 1.689 9.865 3.907 3.157 1.906 10.51 5.72 18.019 6.457v11.163a14.708 14.708 0 0 1-1.922-.196 311.367 311.367 0 0 1-8.509-1.54l.033.254.037.28c.118.94.21 1.908.273 2.903l.017.238a56.17 56.17 0 0 1 .097 3.284l.22 52.147c-.41.201-.85.383-1.306.555-.146.056-.3.104-.45.157a20.554 20.554 0 0 1-1.543.472c-.342.09-.69.174-1.047.254-.184.04-.367.083-.555.12a33.9 33.9 0 0 1-1.306.236l-.04.007-.06.755"/>
        <path fill="#325092" d="M393.214 201.256c-.176 0-.35-.003-.528-.01v-11.162c.828.082 1.657.125 2.484.125.81 0 1.62-.042 2.42-.133v10.552a16.026 16.026 0 0 1-4.376.628M374.506 287.53h-6.796l2.117-26.357h6.798l-2.119 26.357"/>
        <path fill="#119385" d="M356.943 287.809h-1.951v-.28h1.94l.011.28"/>
        <path fill="#325092" d="M356.931 287.53h-1.939v-.534h1.919l.02.534"/>
        <path fill="#E8E8E3" d="M355.884 261.173h-1.238v-.324c.407.023.817.046 1.227.066l.01.258"/>
        <path fill="#325092" d="M356.213 269.472a6.59 6.59 0 0 0-.994-.075h-.573v-8.224h1.238l.329 8.299"/>
        <path fill="#E8E8E3" d="M334.977 232.995c-.621-.18-1.25-.338-1.889-.475-2.749-4.022-6.19-9.334-7.656-13.956-1.048-3.305 4.516-13.927 12.598-23.234-1.387 4.375-2.091 9.393-2.091 14.687l-.13 3.09c-1.405 1.686-2.357 3.162-2.394 4.099-.09 2.26.778 5.06 1.901 7.681l-.34 8.108"/>
        <path fill="#CFCEC9" d="M354.646 261.173h-2.333l.004-.485c.771.06 1.547.114 2.329.16v.325"/>
        <path fill="#2D4A8D" d="M356.91 286.996h-1.918v-11.028a6.561 6.561 0 0 0-2.77-5.36l.09-9.435h2.334v8.224h.573c.338 0 .67.025.994.075l.698 17.524"/>
        <path fill="#CFCEC9" d="M334.898 234.888c-.077-.27-.156-.54-.234-.809l-.448.08c-.357-.517-.735-1.064-1.128-1.639.64.137 1.268.295 1.889.475l-.08 1.893"/>
        <path fill="#EA0B4B" d="M227.884 212.753c-2.995 0-5.806-.785-8.238-2.16a129.968 129.968 0 0 0 3.035-4.15h18.308c-3.072 3.846-7.8 6.31-13.105 6.31m14.238-25.61H230a9.143 9.143 0 0 0-4.232 0h-12.121c2.958-4.75 8.228-7.912 14.237-7.912 6.008 0 11.28 3.162 14.238 7.913" opacity=".626"/>
        <path fill="#EA0B4B" d="M240.989 206.442H222.68a58.658 58.658 0 0 0 1.443-2.166A9.096 9.096 0 0 0 230 187.143h12.123a16.685 16.685 0 0 1 2.523 8.849c0 3.953-1.368 7.585-3.656 10.45m-26.712-.662a16.682 16.682 0 0 1-3.153-9.788c0-3.248.923-6.28 2.523-8.848h12.12c-4.002.954-6.979 4.552-6.979 8.848 0 1.65.44 3.198 1.207 4.531-1.446 1.352-3.477 3.3-5.718 5.257m-.129-11.337a2.521 2.521 0 1 0 .002 5.042 2.521 2.521 0 0 0-.002-5.042" opacity=".366"/>
        <path fill="#EA0B4B" d="M214.148 199.483a2.521 2.521 0 1 1 .002-5.042 2.521 2.521 0 0 1-.002 5.042"/>
        <path fill="#BEE3EB" d="M230 187.144h-4.232a9.151 9.151 0 0 1 4.232 0"/>
        <path fill="#EA0B4B" d="M227.884 205.088c-1.34 0-2.614-.29-3.76-.812.18-.285.35-.56.505-.825l-.05-.121c.834-.205 1.704-.654 2.205-1.24.69-.806.634-1.706.134-2.643-.337-.63-.824-.983-1.366-1.124.39-.238.77-.493 1.132-.77a2.52 2.52 0 1 0 .122-1.552c-.412.051-.8.338-1.152.6-.438.327-1.088.84-1.699 1.362a2.52 2.52 0 1 0-1.449 1.368c-.162.157-.31.327-.433.507-.11.161-.205.335-.279.518a4.698 4.698 0 0 1-.665-.873c-.319.282-.7.635-1.134 1.04a9.055 9.055 0 0 1-1.207-4.531c0-4.296 2.977-7.894 6.98-8.848H230a9.096 9.096 0 0 1-2.115 17.944" opacity=".235"/>
        <path fill="#EA0B4B" d="M229.134 199.483a2.52 2.52 0 0 1-2.45-1.93c.22-.17.434-.347.64-.533.128-.117.257-.242.313-.404.055-.163.012-.373-.14-.452l-.311-.139a.958.958 0 0 0-.38-.024 2.52 2.52 0 1 1 2.328 3.482m-7.492 0a2.52 2.52 0 1 1 2.313-1.52c-.516.442-1.004.89-1.311 1.235h.005a3.586 3.586 0 0 0-.143.133c-.27.098-.56.152-.864.152M302.35 276.374v-17.2c0-10.06 8.186-18.246 18.248-18.246 10.06 0 18.245 8.185 18.245 18.246v17.2H302.35m18.248-44.452c-15.028 0-27.252 12.224-27.252 27.252v26.206h54.503v-26.206c0-15.028-12.226-27.252-27.251-27.252"/>
        <path fill="#EA0B4B" d="M339.429 269.397h-.586v-6.229l.586 6.229m-37.079 0h-3.513v-10.328c0-12 9.762-21.76 21.76-21.76a21.66 21.66 0 0 1 13.986 5.102l-.2 4.821a18.26 18.26 0 0 0-10.387-5.987 18.315 18.315 0 0 0-3.398-.317c-10.062 0-18.248 8.185-18.248 18.246v10.223"/>
        <path fill="#EA0B4B" d="M348.296 324.272h-55.398a6.695 6.695 0 0 1-6.696-6.696v-41.485a6.695 6.695 0 0 1 6.696-6.694h55.398a6.695 6.695 0 0 1 6.696 6.694v41.485a6.696 6.696 0 0 1-6.696 6.696"/>
        <path fill="#325092" d="M330.598 293.033c0-5.523-4.478-10.001-10.001-10.001s-10 4.478-10 10.001c0 3.861 2.192 7.206 5.396 8.872v10.812h9.207v-10.812c3.206-1.666 5.398-5.01 5.398-8.872"/>
        <path fill="#C4CCB0" d="M337.21 324.272h-44.437a6.548 6.548 0 0 1-2.048-.327l.05-.016c.666.222 1.38.343 2.123.343h44.311"/>
        <path fill="#20468B" d="M287.499 321.538h-.053a6.555 6.555 0 0 1-.87-1.665h.03c.22.6.522 1.16.893 1.665"/>
        <path fill="#25377B" d="M290.724 323.945a6.58 6.58 0 0 1-3.278-2.407h.053a6.706 6.706 0 0 0 3.273 2.39l-.048.017"/>
        <path fill="#EA0B4B" d="M337.21 324.272h-44.312c-.744 0-1.457-.12-2.124-.343l-.002-.001a6.706 6.706 0 0 1-4.165-4.055c.111.002.224.003.337.003 11.341 0 21.394-10.195 27.99-18.608.339.233.692.446 1.059.637v10.812h9.207v-10.812c3.206-1.666 5.398-5.01 5.398-8.872a9.995 9.995 0 0 0-4.911-8.61 101.592 101.592 0 0 0 6.209-15.026h7.533l4.86 51.675c-3.064.848-5.59 1.863-7.08 3.2"/>
        <path fill="#3A5796" d="M325.2 312.717h-9.207v-10.812a9.941 9.941 0 0 1-1.059-.637 103.372 103.372 0 0 0 10.753-16.845 9.995 9.995 0 0 1 4.91 8.61c0 3.861-2.191 7.206-5.397 8.872v10.812"/>
        <path fill="#C4CCB0" d="M351.963 323.237l-.005-.054a6.69 6.69 0 0 0 3.034-5.607v-14.613V317.7a6.567 6.567 0 0 1-3.029 5.536"/>
        <path fill="#253B75" d="M354.992 286.996v-10.905a6.684 6.684 0 0 0-2.77-5.423v-.06a6.561 6.561 0 0 1 2.77 5.36v11.028"/>
        <path fill="#EA0B4B" d="M351.958 323.183l-.194-2.355h-.021l.48-50.16a6.684 6.684 0 0 1 2.769 5.423v41.485a6.69 6.69 0 0 1-3.034 5.607"/>
        <path fill="#F1BCCA" d="M327.246 231.935l1.312 4.533c.115.397.244.817.555 1.088.417.364 1.03.359 1.581.333.681-.032 1.422-.088 1.925-.55.292-.265.465-.64.562-1.022.281-1.114-.042-2.31-.628-3.296-.587-.988-1.418-1.801-2.24-2.604M408.699 179.762a36.142 36.142 0 0 1 2.153-6.147c.468.594.415 1.433.34 2.187a4.949 4.949 0 0 1 2.41-2.547c.13-.06.279-.117.41-.063.148.061.209.235.248.39a7.034 7.034 0 0 1-.544 4.868 7.041 7.041 0 0 1-3.613 3.309"/>
        <path fill="#5677AD" d="M364.196 320.616c3.85.938 7.073 2.07 8.84 3.656h-14.84l.285-3.444 5.715-.212M346.05 320.616c-3.85.938-7.074 2.07-8.84 3.656h14.838l-.284-3.444-5.715-.212"/>
        <path fill="#2C2B6D" d="M372 234.147l-6.997 87.074s-2.444.598-3.29.598c-.417 0-1.205-.14-1.923-.267a61.77 61.77 0 0 1-1.518-.33l-2.618-65.821h-3.286l-.628 65.82s-1.75.522-3.568.522c-1.773 0-3.87-.522-3.87-.522l-8.397-89.299L372 234.147"/>
        <path fill="#2B295D" d="M348.771 321.723c-.162-10.41-1.263-38.8-1.953-61.56 1.751.198 3.604.379 5.5.525l-.578 60.533s-1.385.41-2.969.502M360.512 321.677c-.238-.04-.483-.083-.722-.125a61.77 61.77 0 0 1-1.518-.33l-2.4-60.307c1.163.057 2.33.098 3.49.117.542 21.687 1.15 49.651 1.15 60.645"/>
        <path fill="#1E2449" d="M348.476 171.608l.047.117c.53 2.88 3.262 4.354 6.3 5.193 2.469.681 3.041.98 5.024-.452 4.112-2.968 7.77-6.912 6.582-12.35a.794.794 0 0 1 .1-.6c-1.17-2.094-3.328-3.099-5.72-5.268-8.046-7.29-17.608 2.839-13.987 7.01.588.675 1.658 3.621 1.654 6.35"/>
        <path fill="#94B7D6" d="M375.914 206.47c0-16.552-6.85-26.845-19.971-26.845-13.12 0-20.004 13.841-20.004 30.392l-2.017 48.212s30.587 6.066 42.213.388l-.22-52.147"/>
    </g>
</svg>
