<svg xmlns="http://www.w3.org/2000/svg" width="426" height="354" viewBox="0 0 426 354">
    <defs>
        <linearGradient id="a" x1="-.028%" x2="100.01%" y1="49.995%" y2="49.995%">
            <stop offset="0%" stop-color="gray" stop-opacity=".25"/>
            <stop offset="54%" stop-color="gray" stop-opacity=".12"/>
            <stop offset="100%" stop-color="gray" stop-opacity=".1"/>
        </linearGradient>
    </defs>
    <g fill="none" fill-rule="evenodd">
        <path fill="#F4F4F4" d="M-620-1136h1718V903H-620z"/>
        <g fill-rule="nonzero">
            <path fill="#0DA176" d="M247.573 47.312c-27.27-.947-53.244-9.74-78.045-19.362-24.802-9.623-49.367-20.285-75.985-25.382-17.12-3.28-36.7-3.742-50.492 5.425-13.277 8.84-17.567 24.056-19.872 38.191-1.736 10.633-2.755 21.825 1.998 31.776 3.303 6.912 9.16 12.72 13.214 19.342 14.103 23.033 4.133 51.437-11.146 73.927-7.163 10.553-15.485 20.626-21.017 31.847-5.533 11.222-8.09 24.099-3.249 35.556 4.795 11.365 16.227 19.885 28.61 25.883 25.152 12.186 54.778 15.671 83.688 17.645 63.976 4.374 128.289 2.48 192.433.585 23.74-.703 47.58-1.414 70.933-5.08 12.97-2.037 26.356-5.266 35.774-13.07 11.95-9.904 14.912-26.674 6.902-39.096-13.433-20.831-50.564-26.005-59.965-48.36-5.166-12.308.14-26.013 7.652-37.429 16.113-24.481 43.118-45.961 44.538-73.944.978-19.22-12.004-38.469-32.078-47.565-21.039-9.53-50.218-8.334-65.733 7.446-15.99 16.248-44.079 22.499-68.16 21.665z" opacity=".1"/>
            <ellipse cx="204.147" cy="329.161" fill="#0DA176" opacity=".1" rx="128.082" ry="17.309"/>
            <path fill="#0DA176" d="M140.74 277.631s8.849-1.414 14.158 4.832c0 0-3.893 3.065-12.27-1.178l-1.888-3.654zM139.796 277.492s-5.646 6.98-2.878 14.67c0 0 4.602-1.84 5.103-11.21l-2.225-3.46zM134.74 266.08s3.54-6.481 17.697 2.594c0 0-1.888 4.36-8.14 4.007-6.254-.354-7.926-3.182-9.557-6.6zM133.809 265.614s-7.345-.842-8.057 15.953c0 0 4.656.968 7.964-4.348 3.308-5.317 1.938-8.288.093-11.605zM129.528 252.22s4.129-11.437 19.117-3.305c0 0-3.422 10.494-17.584 7.194l-1.533-3.89zM124.926 235.126s7.787-11.55 21.595-.842c0 0-4.837 10.843-20.415 4.95l-1.18-4.108zM123.275 218.861s9.084-10.607 22.753 0c0 0-8.617 9.311-22.753 2.711v-2.71zM121.859 203.068s9.202-11.083 22.303-.59c0 0-10.387 9.783-22.303 3.183v-2.593zM122.685 189.039s9.691-14.261 21.949-4.597c0 0-10.387 12.262-21.95 7.307v-2.71zM124.926 172.656s10.265-14.143 22.185-3.3c0 0-12.156 12.257-22.185 5.893v-2.593zM128.352 158.012s12.148-13.289 22.754-7.998c0 0-12.667 14.114-23.285 11.521l.531-3.523zM132.595 144.134s14.044-16.269 22.185-10.847c0 0-10.332 12.628-23.175 13.911l.99-3.064zM138.726 128.03s12.279-13.294 21.245-9.994c0 0-10.5 13.794-22.893 14.148l1.648-4.155zM144.28 112.969s13.568-12.73 19.467-10.49c0 0-9.793 14.143-20.057 13.318l.59-2.828zM149.707 99.061s11.68-15.204 18.051-14.025c0 0-7.079 13.554-18.051 15.574v-1.549zM155.593 80.321s10.328-11.66 15.903-11.63c0 0-8.15 15.574-16.324 15.431l.421-3.8zM159.086 67.824l9.97-24.28s.501 21.948-11.242 28.784l1.272-4.504zM163.131 41.049s1.652-20.272.59-21.922c0 0 7.134 16.837-.657 30.88l.067-8.958zM129.144 251.946s-10.344-6.402-17.036 9.26c0 0 9.203 6.104 18.25-5.265l-1.214-3.995zM124.598 234.473s-12.683-5.779-18.84 10.574c0 0 9.801 6.735 19.994-6.44l-1.154-4.134zM122.685 219.834s-9.085-10.608-22.754 0c0 0 8.613 9.31 22.754 2.71v-2.71zM121.551 203.068s-9.207-11.083-22.303-.59c0 0 10.383 9.783 22.303 3.183v-2.593z"/>
            <path fill="#0DA176" d="M122.685 189.443s-6.456-15.975-20.487-9.105c0 0 7.584 14.168 19.918 11.756l.569-2.651zM125.74 172.576s-6.414-16.252-20.647-8.717c0 0 8.713 14.896 20.014 11.23l.633-2.513zM129.717 158.096s-2.528-17.822-14.305-19.417c0 0 2.499 18.79 12.734 22.625l1.571-3.208zM132.899 144.163s-.99-21.467-10.745-22.212c0 0 .328 16.29 9.645 25.256l1.1-3.044zM139.741 127.415s-2.911-17.848-12.22-20.032c0 0 1.155 17.287 11.298 24.414l.922-4.382zM145.384 113.099s-.102-18.597-5.79-21.328c0 0-3.527 16.837 4.142 23.702l1.648-2.374zM150.14 98.842s-.8-19.152-6.686-21.85c0 0-2.019 15.153 5.802 23.1l.885-1.25zM156.42 81.837s-.039-15.575-4.244-19.228c0 0-4.18 17.064 2.048 22.36l2.195-3.132z"/>
            <path fill="#0DA176" d="M158.59 67.058l-4.088-25.925s-5.562 21.244 4.281 30.601l-.194-4.676zM159.39 41.293s-10.505-17.422-10.286-19.363c0 0 1.113 18.269 14.327 27.36l-4.041-7.997zM160.62 36.15s-9.91-24.755-14.394-26.76c0 0 14.158 7.19 15.22 26.052l-.826.707z"/>
            <path fill="#444053" d="M155.117 84.257l-.678-.206c8.364-27.247 10.454-44.619 5.878-48.97l.489-.514c4.845 4.592 2.882 21.762-5.689 49.69z"/>
            <path fill="#444053" d="M132.085 148.036l-.998-.354a198.38 198.38 0 0 1 2.844-7.53c8.73-21.737 16.163-41.954 20.93-57.478l.871-.42c-4.774 15.553-12.072 36.549-20.815 58.31-.999 2.476-1.951 5.001-2.832 7.472z"/>
            <path fill="#444053" d="M153.191 298.025c-.134-.151-13.694-15.397-23.14-41.436a153.258 153.258 0 0 1-9.145-47.464c-.648-20.26 3.607-42.88 10.897-63.425l.792.926c-16.361 46.117-9.86 85.638-1.239 109.441 9.355 25.799 22.754 40.885 22.889 41.032l-1.054.926z"/>
            <rect width="3.733" height="30.736" x="271.275" y="122.414" fill="#3A3768" rx=".964"/>
            <rect width="2.094" height="10.119" x="147.212" y="98.333" fill="#3A3768" rx=".964"/>
            <rect width="2.36" height="17.612" x="147.136" y="116.862" fill="#3A3768" rx=".964"/>
            <rect width="2.246" height="17.763" x="147.174" y="140.636" fill="#3A3768" rx=".964"/>
            <rect width="124.893" height="253.562" x="148.396" y="64.894" fill="#3A3768" rx="16.412"/>
            <path fill="#0DA176" d="M255.672 71.482h-14.327v1.721c0 2.165-.86 4.24-2.393 5.77a8.17 8.17 0 0 1-5.777 2.388h-45.562a8.17 8.17 0 0 1-5.777-2.388 8.153 8.153 0 0 1-2.394-5.77v-1.721H166.03c-5.478 0-9.918 4.436-9.918 9.909v220.553a9.903 9.903 0 0 0 2.905 7.006 9.924 9.924 0 0 0 7.013 2.903h89.642c5.478 0 9.919-4.437 9.919-9.91V81.408a9.903 9.903 0 0 0-2.9-7.017 9.924 9.924 0 0 0-7.02-2.908z"/>
            <rect width="17.44" height="3.536" x="198.796" y="72.467" fill="#E6E8EC" rx="1.629"/>
            <ellipse cx="220.884" cy="74.235" fill="#E6E8EC" rx="2.01" ry="2.008"/>
            <path fill="#0DA176" d="M316.53 53.773s-35.48-2.138-31.3 22.697c0 0-.842 4.39 3.152 6.381 0 0 .063-1.84 3.64-1.212 1.274.21 2.568.273 3.856.185a8.036 8.036 0 0 0 4.711-1.924s9.974-4.116 13.85-20.398c0 0 2.87-3.552 2.756-4.466l-5.987 2.555s2.047 4.315.42 7.901c0 0-.193-7.745-1.343-7.577-.232.034-3.11 1.495-3.11 1.495s3.518 7.513.864 12.977c0 0 1.007-9.26-1.964-12.434l-4.213 2.458s4.112 7.762 1.323 14.097c0 0 .716-9.715-2.212-13.5l-3.818 2.977s3.864 7.648 1.509 12.901c0 0-.308-11.306-2.335-12.16 0 0-3.341 2.946-3.851 4.15 0 0 2.646 5.556 1.003 8.486 0 0-1.007-7.535-1.833-7.577 0 0-3.329 4.992-3.675 8.419 0 0 .144-5.09 2.87-8.89 0 0-3.22.55-5.099 2.635 0 0 .519-3.528 5.92-3.84 0 0 2.752-3.788 3.485-4.015 0 0-5.368-.45-8.625.993 0 0 2.865-3.33 9.611-1.814l3.772-3.077s-7.071-.964-10.071.101c0 0 3.45-2.946 11.086-.8l4.104-2.45s-6.03-1.296-9.62-.841c0 0 3.793-2.042 10.825.172l2.95-1.317s-4.416-.867-5.71-1.006c-1.293-.139-1.36-.493-1.36-.493a15.331 15.331 0 0 1 8.296.922s6.228-2.32 6.122-2.71zM280.136 42.728s-16.012-.964-14.14 10.258c0 0-.376 1.983 1.423 2.884 0 0 .03-.842 1.648-.552a7.386 7.386 0 0 0 1.74.084 3.609 3.609 0 0 0 2.128-.875s4.509-1.86 6.261-9.218c0 0 1.294-1.604 1.243-2.017l-2.705 1.154s.923 1.949.198 3.57c0 0-.088-3.499-.606-3.419-.106 0-1.408.678-1.408.678s1.593 3.397.392 5.863c0 0 .455-4.184-.889-5.619l-1.905 1.128s1.859 3.507.599 6.369c0 0 .324-4.39-.999-6.1l-1.723 1.348s1.744 3.455.682 5.83c0 0-.143-5.11-1.057-5.498 0 0-1.509 1.33-1.74 1.877 0 0 1.196 2.526.455 3.835 0 0-.455-3.405-.843-3.422 0 0-1.504 2.256-1.66 3.788a8.21 8.21 0 0 1 1.297-4.015 4.536 4.536 0 0 0-2.304 1.19s.236-1.594 2.675-1.733c0 0 1.264-1.714 1.576-1.819 0 0-2.427-.202-3.897.45 0 0 1.293-1.502 4.34-.82l1.685-1.39s-3.198-.42-4.55.047c0 0 1.558-1.33 5.01-.362l1.853-1.107s-2.726-.585-4.348-.375c0 0 1.715-.921 4.892.076l1.327-.593s-1.997-.392-2.583-.455c-.585-.063-.615-.223-.615-.223a6.913 6.913 0 0 1 3.75.42s2.849-1.06 2.798-1.237z"/>
            <path fill="#000" d="M167.244 95.626h87.201v184.888h-87.201z" opacity=".1"/>
            <path fill="url(#a)" d="M251.774 332.129s-2.056-4.782-2.975-6.988c-.518-1.263-1.395-1.473-2.065-1.444l.038-.42.165-1.991.033-.421c1.589-.333 2.95-.594 2.95-.594l-.99-51.067s-.422-.539-1.441-3.788c-.506-1.62-2.95-3.612-5.234-5.199a51.94 51.94 0 0 0-1.053-.711 26.287 26.287 0 0 1 2.617-1.928c1.297-.753 1.727-5.051 1.727-5.051l-.215.42c.215-.42 0-11.394 0-11.394l-.758-11.39s-.54-13.541-4.753-17.09c-4.214-3.548-9.536-4.79-9.536-4.79l-2.95-.757-5.435-1.394c-.151-.248-.299-.509-.421-.783-.055-.105-.105-.214-.156-.324a12.708 12.708 0 0 0 5.208-12.413c0-.126-.046-.257-.072-.383.447-.305.87-.644 1.264-1.014a5.738 5.738 0 0 0 1.543-1.89c.058-.144.106-.292.143-.442 0-.042 0-.084.025-.13.026-.047.038-.224.05-.337v-.127-.37-.093c0-.139-.02-.278-.041-.42a.055.055 0 0 0 0-.026 7.238 7.238 0 0 0-.38-1.431c-.42-1.086-.969-2.105-1.167-3.262-.244-1.368.038-2.863-.615-4.092a3.653 3.653 0 0 0-2.566-1.763 6.052 6.052 0 0 0-3.169.362 4.512 4.512 0 0 1-1.563.42 3.268 3.268 0 0 1-1.142-.277 16.94 16.94 0 0 1-3.54-1.899 16.95 16.95 0 0 0-2.528-1.65 3.425 3.425 0 0 0-2.915-.118c-1.56.792-1.854 2.997-3.304 3.97-.999.673-2.3.606-3.506.648-1.205.042-2.57.341-3.164 1.385-.421.724-.32 1.587-.24 2.433l.025.286c0 .101 0 .206.025.307a7.725 7.725 0 0 1-.476 3.183c-.581 1.54-1.685 3.06-1.647 4.63.003.25.036.498.097.74.033.122.072.241.118.358.232.52.492 1.028.779 1.52l.038.067c.03.06.059.118.084.177.026.059.076.16.106.24.03.08.033.08.046.118.013.038.055.156.076.236.07.237.1.485.088.732-.05.319-.076.641-.08.964a.707.707 0 0 0 .565.686.94.94 0 0 0 .489-.151 7.825 7.825 0 0 0 1.074-.737c0 .135 0 .27.025.42a12.732 12.732 0 0 0 3.83 7.927c0 .13 0 .265-.029.42-.03.157-.021.304-.03.46l-4.719 1.481s.026.084.076.228l-.497.197c-2.448.99-5.174 2.219-6.7 3.334-.674.488-1.29.888-1.841 1.22a10.526 10.526 0 0 0-4.365 5.283l-.064.16c-.421.964-2.486 7.522-2.486 7.522s-1.512 3.654-1.732 6.02c0 0-2.486 7.842-1.837 13.002 0 0-1.946 7.417-1.188 8.595 0 0-.775 3.191 2.63 6.403-.25.151-.519.315-.801.496-2.638 1.659-6.443 4.349-7.092 6.424-1.007 3.228-1.44 3.788-1.44 3.788l-1.02 50.987s1.36.261 2.949.59l.034.42.164 1.987.038.421c-.67-.03-1.546.202-2.065 1.448-.923 2.201-2.95 6.979-2.95 6.979s-4.537 4.21-1.786 8.115c.121.179.263.343.421.489 1.977 1.793 6.19.644 9.186-.526a8.956 8.956 0 0 0 3.793-3.056c.244-.32.61-.523 1.01-.56a4.132 4.132 0 0 0 1.884-.821 2.525 2.525 0 0 0 1.037-2.168l-.266-5.99s-.324-4.184-1.356-3.914l-.266.063-.071-.421-.14-.812-.071-.421h.573s.143-4.732 1.875-8.452c1.732-3.721 2.87-33.78 2.87-33.78s21.434.35 22.15-1.658c.422 0 .881 0 1.32-.03.72 2.008 20.95 2.105 20.95 2.105s1.15 30.092 2.878 33.817c.364.798.667 1.623.906 2.467.543 1.952.87 3.958.973 5.981h.573l-.076.421-.139.808-.072.421-.273-.063c-1.024-.265-1.349 3.919-1.349 3.919l-.274 6.028a2.445 2.445 0 0 0 1.003 2.104 4.216 4.216 0 0 0 1.917.842c.402.032.77.235 1.012.556a8.982 8.982 0 0 0 3.792 3.056c3.236 1.262 7.888 2.496 9.616.042 2.772-3.915-1.766-8.107-1.766-8.107zm-54.482-75.069h.05-.05zm33.856-17.207s.544 2.041 1.513 3.115c.969 1.073.489 7.74.489 7.74a5.99 5.99 0 0 0-1.13.182c-.745-4.433-1.432-9.353-.872-11.037z"/>
            <path fill="#8E6F7F" d="M184.541 323.874l-8.474.842-.236-2.833-.164-1.949-.232-2.85 8.006.422.637 3.657.134.796h.005zM246.25 317.51l-.232 2.845-.16 1.95-.24 2.832-8.478-.842.337-1.915.13-.791.637-3.658z"/>
            <path fill="#5F5570" d="M237.27 276.516l-25.197 1.182a35.128 35.128 0 0 1-3.438 0l-24.073-1.178v-19.051h52.709v19.047z"/>
            <path fill="#000" d="M237.27 276.516l-25.197 1.182a35.128 35.128 0 0 1-3.438 0l-24.073-1.178v-19.051h52.709v19.047z" opacity=".1"/>
            <path fill="#EAEAF2" d="M205.002 206.14s-8.393 2.817-11.553 5.132a26.12 26.12 0 0 1-1.795 1.2 10.273 10.273 0 0 0-4.243 5.169c-.022.058-.043.109-.064.155-.421.947-2.423 7.367-2.423 7.367s-1.474 3.577-1.685 5.893c-.21 2.315 12.009 8.523 12.009 8.523s-5.9 12.839-3.266 16.1c2.634 3.263 41.083 4.841 40.24 0-.842-4.84-2.317-12.838-1.58-15.047l13.063-9.471s-.527-13.26-4.635-16.732c-4.108-3.473-9.27-4.736-9.27-4.736l-8.179-2.104s-2.882 7.156-6.042 8.103c-3.16.947-10.084-3.427-10.577-9.551z"/>
            <path fill="#000" d="M216.792 218.192s-3.564 2.972-5.435 0c0 0-1.686 5.026 0 6.71l-.064.34-.299 1.499-3.902 32.411 3.211 5.536 5.845-7.325-.472-30.306-.211-1.739-.05-.42h.998s2.65-4.576.38-6.706z" opacity=".1"/>
            <path fill="#000" d="M217.635 218.192s-3.565 2.972-5.436 0c0 0-1.685 5.026 0 6.71l-.063.34-.299 1.499-3.902 32.411 3.211 5.536 5.844-7.325-.472-30.306-.21-1.739-.05-.42h.998s2.65-4.576.379-6.706z" opacity=".1"/>
            <path fill="#940016" d="M216.569 256.947l-5.844 7.311-3.22-5.505 3.906-32.429.3-1.498.067-.345.527-1.364 3.53 1.364.051.42.211 1.739z"/>
            <path fill="#000" d="M184.078 321.16a28.652 28.652 0 0 1-5.415-.552 97.834 97.834 0 0 0-2.992-.678l-.236-2.85 8.006.421.637 3.658z" opacity=".1"/>
            <path fill="#5F5570" d="M210.788 277.736c-.7 1.966-21.59 1.62-21.59 1.62s-1.122 29.466-2.807 33.115c-1.686 3.65-1.829 8.276-1.829 8.276s-3.649 0-5.899-.56-5.9-1.263-5.9-1.263l.987-49.985s.421-.526 1.403-3.687c.632-2.033 4.34-4.668 6.906-6.314 1.433-.901 2.503-1.49 2.503-1.49l12.464.505 7.694.311s6.772 17.507 6.068 19.472z"/>
            <path fill="#000" d="M184.545 323.87l-8.478.842-.24-2.833c.318.009.63.077.923.202 1.546 1.111 5.966.227 7.462-.126l.333 1.915z" opacity=".1"/>
            <path fill="#BC8487" d="M186.146 332.057a2.47 2.47 0 0 1-1.015 2.058 4.026 4.026 0 0 1-1.833.804 1.37 1.37 0 0 0-.982.548 8.792 8.792 0 0 1-3.708 2.992c-2.92 1.145-7.028 2.27-8.954.514-.159-.141-.3-.301-.421-.476-2.684-3.839 1.74-7.947 1.74-7.947s1.997-4.68 2.895-6.836a2.106 2.106 0 0 1 2.895-1.212c1.685 1.212 6.796.05 7.795-.206.998-.257 1.319 3.834 1.319 3.834l.27 5.864a.32.32 0 0 0 0 .063z"/>
            <path fill="#000" d="M246.254 317.506l-.236 2.845c-1.007.215-2.107.459-2.996.678a28.728 28.728 0 0 1-5.41.555l.636-3.657 8.006-.421z" opacity=".1"/>
            <path fill="#5F5570" d="M248.93 319.345s-3.65.703-5.9 1.263c-2.25.56-5.898.56-5.898.56s-.14-4.63-1.825-8.276c-1.685-3.645-2.81-33.114-2.81-33.114s-19.712-.114-20.416-2.08c-.703-1.965 8.592-18.941 8.592-18.941l5.667-.295 10.792-.572s2.106 1.145 4.314 2.69c2.208 1.544 4.606 3.506 5.099 5.093.982 3.16 1.403 3.687 1.403 3.687l.982 49.985z"/>
            <path fill="#000" d="M245.858 322.3l-.236 2.833-8.482-.842.337-1.915c1.496.358 5.9 1.237 7.458.126a2.53 2.53 0 0 1 .923-.202z" opacity=".1"/>
            <path fill="#BC8487" d="M244.935 322.923a2.109 2.109 0 0 1 2.9 1.212c.893 2.155 2.894 6.84 2.894 6.84s4.424 4.104 1.74 7.943c-1.685 2.408-6.22 1.2-9.37-.038a8.737 8.737 0 0 1-3.709-2.993 1.374 1.374 0 0 0-.986-.547 4.136 4.136 0 0 1-1.87-.842 2.407 2.407 0 0 1-.974-2.054l.265-5.893s.316-4.095 1.315-3.839c.999.257 6.11 1.423 7.795.21z"/>
            <path fill="#FFC4D0" d="M223.155 209.693l-8.507 9.008-.236.253-.308-.181c-1.778-1.052-10.673-6.415-9.91-8.027.42-.918.67-2.829.8-4.475 0-.198.025-.391.042-.58.084-1.301.106-2.311.106-2.311s16.011-2.737 15.38 0c-.258 1.107.126 2.353.67 3.443.16.315.336.614.51.896.425.7.911 1.36 1.453 1.974z"/>
            <path fill="#000" d="M221.191 206.823a12.503 12.503 0 0 1-16.155-1.133c.084-1.3.106-2.31.106-2.31s16.011-2.737 15.38 0c-.245 1.115.126 2.353.67 3.443z" opacity=".1"/>
            <path fill="#FFC4D0" d="M226.277 196.346c.096 6.735-5.171 12.332-11.906 12.653-6.735.32-12.51-4.753-13.055-11.466-.034-.393-.051-.789-.051-1.187a12.486 12.486 0 0 1 6.183-11.007 12.513 12.513 0 0 1 12.634 0 12.486 12.486 0 0 1 6.183 11.007h.012z"/>
            <path fill="#000" d="M226.121 194.35a2.994 2.994 0 0 1-2.35.636c-1.93-.42-2.592-3.367-4.564-3.57-1.972-.201-3.283 2.526-5.28 2.472-.843-.021-1.601-.573-2.376-.956-1.357-.67-3.59-1.077-5.057-.572-2.204.753-2.95 2.79-4.357 4.411-.24.276-.504.53-.788.762-.033-.393-.05-.789-.05-1.187-.06-6.553 4.961-12.037 11.5-12.562 6.539-.525 12.372 4.088 13.36 10.567h-.038z" opacity=".1"/>
            <path fill="#8E6F7F" d="M211.55 192.515c.776.38 1.517.935 2.377.956 1.993.05 3.295-2.69 5.275-2.475 1.98.215 2.634 3.136 4.572 3.57 1.302.294 2.528-.678 3.502-1.583a5.57 5.57 0 0 0 1.504-1.848c.421-1.044.202-2.248-.19-3.309-.391-1.06-.943-2.08-1.137-3.195-.236-1.338.038-2.803-.599-4.007a3.552 3.552 0 0 0-2.502-1.726 5.905 5.905 0 0 0-3.089.35 4.373 4.373 0 0 1-1.521.42 3.222 3.222 0 0 1-1.117-.273 16.494 16.494 0 0 1-3.447-1.856 16.16 16.16 0 0 0-2.456-1.617 3.315 3.315 0 0 0-2.84-.113c-1.517.774-1.808 2.946-3.22 3.885-.973.657-2.241.59-3.412.636-1.172.046-2.529.328-3.085 1.35-.497.88-.248 1.962-.185 2.968a7.612 7.612 0 0 1-.468 3.115c-.653 1.743-1.98 3.46-1.508 5.262.307 1.183 1.37 2.163 1.306 3.367-.05.31-.077.624-.08.939a.695.695 0 0 0 .552.673.843.843 0 0 0 .472-.151c.7-.392 1.329-.9 1.858-1.503 1.424-1.625 2.162-3.658 4.365-4.411 1.488-.493 3.717-.097 5.074.576z"/>
            <path fill="#FFC4D0" d="M226.05 265.992l-2.276.62-5.254 1.443a12.701 12.701 0 0 1-4.041 2.008c-3.215.812-5.292-.956-7.02-3.692-.695-1.094-.345-1.97.565-2.656 2.19-1.654 7.61-2.193 9.27-1.974a6.942 6.942 0 0 0 3.198-.497c.718-.26 1.41-.588 2.069-.976l3.489 5.724z"/>
            <path fill="#000" d="M226.05 265.992l-2.276.62c-.653-1.966-1.727-4.433-3.265-5.38.718-.261 1.41-.588 2.069-.977l3.472 5.737z" opacity=".1"/>
            <path fill="#000" d="M241.438 260.58a72.075 72.075 0 0 0-1.745 1.456s-10.955 3.43-13.062 7.745c0 0-1.685-8.419-5.267-8.524 0 0 3.856-1.511 4.968-2.803l10.8-.564s2.106 1.145 4.306 2.69z" opacity=".1"/>
            <path fill="#EAEAF2" d="M241.274 227.583l2.422 3.578.738 11.154s.21 10.734 0 11.155l.21-.421s-.42 4.21-1.685 4.946c-1.264.736-4.108 3.199-4.108 3.199s-10.956 3.43-13.063 7.745c0 0-1.685-8.419-5.267-8.524 0 0 5.373-2.104 5.267-3.472 0 0 4.109-3.684 4.425-4.63.316-.948 2.368-1.053 2.368-1.053s.476-6.524-.472-7.577c-.948-1.052-1.475-3.051-1.475-3.051l10.64-13.05z"/>
            <path fill="#000" d="M214.479 270.05c-3.215.813-5.292-.955-7.02-3.691-.695-1.095-.345-1.97.565-2.656l.328.13s5.794 2.509 6.127 6.217z" opacity=".1"/>
            <path fill="#FFC4D0" d="M213.147 273.413c-3.792 5.262-10.85-2.054-11.376-3.527-.19-.535-.91-1.01-1.74-1.393a18.798 18.798 0 0 0-3.266-1.082l6.27-5.102 1.2.48 3.696 1.478s9.009 3.885 5.216 9.146z"/>
            <path fill="#000" d="M204.236 262.79c-3.456 1.64-4.193 4.002-4.214 5.703a18.798 18.798 0 0 0-3.266-1.082l6.27-5.102 1.21.48z" opacity=".1"/>
            <path fill="#000" d="M198.716 271.885s-10.113-7.997-14.959-11.47c-.606-.431-1.17-.919-1.685-1.456 1.432-.901 2.503-1.49 2.503-1.49l12.464.505c.333.576.53.968.53.968l6.742 4.42c-8.123 2.63-5.595 8.523-5.595 8.523z" opacity=".1"/>
            <path fill="#EAEAF2" d="M185.232 229.898l-2.001 1.158s-2.423 7.681-1.791 12.733c0 0-1.896 7.26-1.159 8.418 0 0-.948 3.894 3.898 7.366 4.845 3.473 14.958 11.47 14.958 11.47s-2.528-5.892 5.583-8.523l-6.742-4.42s-2.262-4.487-4.424-5.472c0 0-1.685-1.684-.632-2.841 1.053-1.158 1.896-2.42 1.896-3.578s.421-6.63.421-6.63l1.265-5.893-11.272-3.788z"/>
            <path fill="#000" d="M215.886 224.897h-4.108a.543.543 0 0 1-.067-.075l.067-.346.527-1.363 3.53 1.363.051.421z" opacity=".1"/>
            <path fill="#AF1129" d="M217.214 217.771s-3.565 2.972-5.436 0c0 0-1.685 5.026 0 6.71h5.056s2.65-4.58.38-6.71z"/>
            <path fill="#000" d="M222.034 208.01l5.31 1.368s-5.032 13.048-6.14 13.048l-6.371-3.051 7.201-11.365z" opacity=".1"/>
            <path fill="#000" d="M223.155 209.693l-8.507 9.008-.236.253-.308-.181 7.437-11.332.181.3c.42.69.9 1.344 1.433 1.952z" opacity=".1"/>
            <path fill="#EAEAF2" d="M221.613 207.589l5.309 1.368s-5.031 13.049-6.14 13.049l-6.37-3.052 7.2-11.365z"/>
            <path fill="#000" d="M204.581 206.562l-4.601 1.448s4.53 13.68 5.794 14.416l8.216-3.051-9.409-12.813z" opacity=".1"/>
            <path fill="#000" d="M214.648 218.701l-.236.253s-11.061-6.42-10.219-8.208c.422-.918.67-2.829.801-4.475v-.256l9.654 12.686z" opacity=".1"/>
            <path fill="#EAEAF2" d="M205.002 206.14l-4.6 1.449s4.529 13.68 5.793 14.417l8.217-3.052-9.41-12.813z"/>
            <path fill="#000" d="M194.043 228.488s2.772.492 2.722 3.367c-.05 2.875 1.142-3.717 1.142-3.717l-3.864.35zM194.675 237.327s-.771 4.349 0 8.28c.77 3.931.704 5.262 1.302 5.472.598.21-1.302-13.752-1.302-13.752zM230.07 236.906a1.526 1.526 0 0 0-1.265 1.966c.354 1.76 1.264-1.966 1.264-1.966zM181.895 251.639s9.03-.77 10.534.842c1.504 1.612-10.534-.842-10.534-.842zM234.283 252.25s6.603-.813 8.15.31M236.955 253.323s3.93.138 4.845.631M237.726 254.733s3.581-.14 4.074.42M187.217 274.516s3.067 1.596 2.755 3.225c-.311 1.629-2.755-3.225-2.755-3.225zM184.562 275.29s4.681 6.066 4.045 8.066c-.636 2-4.045-8.065-4.045-8.065zM234.742 276.297s-2.317 1.907-2.254 3.48M181.23 313.873s0 1.789 3.315 4.42M239.76 309.664s-.353 3.72-3.58 5.649" opacity=".1"/>
            <g fill="#000" opacity=".1">
                <path d="M199.98 183.369c0-.29-.05-.59-.076-.884a8.49 8.49 0 0 0 .059 1.928c.029-.348.034-.696.017-1.044zM199.31 195.13c.063-1.221-.999-2.202-1.306-3.368a1.135 1.135 0 0 1-.034-.173c-.096.475-.085.966.034 1.436.248.964.998 1.789 1.234 2.723.021-.219.063-.417.072-.619zM228.78 189.872a5.612 5.612 0 0 1-1.504 1.848c-.982.905-2.2 1.877-3.502 1.583-1.934-.421-2.6-3.368-4.572-3.57-1.971-.202-3.282 2.526-5.275 2.47-.843-.02-1.601-.572-2.376-.955-1.357-.669-3.586-1.077-5.057-.572-2.204.753-2.95 2.79-4.365 4.411a7.107 7.107 0 0 1-1.854 1.507.894.894 0 0 1-.476.147.586.586 0 0 1-.472-.378v.03c-.05.311-.077.626-.08.942a.695.695 0 0 0 .552.67.894.894 0 0 0 .476-.148 7.107 7.107 0 0 0 1.854-1.507c1.424-1.62 2.161-3.658 4.365-4.411 1.488-.505 3.717-.097 5.057.572.775.383 1.516.935 2.376.956 1.993.05 3.295-2.69 5.275-2.471 1.98.219 2.638 3.132 4.572 3.57 1.302.294 2.528-.678 3.502-1.583a5.612 5.612 0 0 0 1.504-1.848 3.55 3.55 0 0 0 .181-1.911c-.035.222-.096.44-.18.648z"/>
            </g>
            <path fill="#000" d="M170.977 330.554s3.443-1.06 4.871.952M250.729 330.975s-5.701-.332-5.478 1.208" opacity=".1"/>
            <ellipse cx="364.552" cy="325.941" fill="#0DA176" opacity=".1" rx="11.347" ry="1.915"/>
            <ellipse cx="38.804" cy="341.658" fill="#0DA176" opacity=".1" rx="11.347" ry="1.915"/>
            <ellipse cx="82.697" cy="351.933" fill="#0DA176" opacity=".1" rx="11.347" ry="1.915"/>
            <ellipse cx="339.713" cy="346.465" fill="#0DA176" rx="16.943" ry="2.862"/>
            <path fill="#0DA176" d="M346.72 341.785a4.929 4.929 0 0 0 1.614-2.437c.21-.964-.202-2.105-1.13-2.48-1.036-.395-2.144.324-2.983 1.048-.838.724-1.803 1.554-2.903 1.398a4.409 4.409 0 0 0 1.37-4.13 1.738 1.738 0 0 0-.384-.841c-.573-.615-1.618-.354-2.305.134-2.19 1.537-2.802 4.513-2.814 7.186-.224-.964-.034-1.97-.042-2.947-.009-.976-.274-2.105-1.113-2.622a3.348 3.348 0 0 0-1.685-.396c-.986-.038-2.082.063-2.756.783-.843.892-.615 2.39.11 3.367.724.977 1.832 1.604 2.852 2.282a6.318 6.318 0 0 1 2.035 1.94c.063.11.114.228.152.35h6.156a17.302 17.302 0 0 0 3.826-2.635zM83.283 304.865s2.317 3.027-1.066 7.577c-3.384 4.55-6.173 8.418-5.057 11.268 0 0 5.107-8.482 9.27-8.6 4.163-.117 1.425-5.143-3.147-10.245z"/>
            <path fill="#000" d="M83.283 304.865c.202.293.36.613.472.951 4.053 4.757 6.215 9.198 2.317 9.307-3.628.105-7.98 6.588-9.025 8.225.033.126.075.248.122.375 0 0 5.107-8.482 9.27-8.6 4.163-.118 1.416-5.156-3.156-10.258z" opacity=".1"/>
            <path fill="#FFD037" d="M87.585 308.72c0 1.066-.118 1.929-.266 1.929-.147 0-.265-.863-.265-1.928s.147-.564.295-.564c.147 0 .236-.501.236.564z"/>
            <path fill="#FFD037" d="M89.064 309.992c-.936.51-1.753.817-1.82.686-.068-.13.627-.648 1.563-1.157.935-.51.569-.14.636 0 .068.139.556-.038-.38.471z"/>
            <path fill="#0DA176" d="M71.059 304.865s-2.318 3.027 1.066 7.577c3.384 4.55 6.173 8.418 5.056 11.268 0 0-5.102-8.482-9.27-8.6-4.167-.117-1.432-5.143 3.148-10.245z"/>
            <path fill="#000" d="M71.059 304.865a3.787 3.787 0 0 0-.476.951c-4.054 4.757-6.211 9.198-2.318 9.307 3.633.105 7.985 6.588 9.03 8.225a3.264 3.264 0 0 1-.126.375s-5.103-8.482-9.27-8.6c-4.168-.118-1.42-5.156 3.16-10.258z" opacity=".1"/>
            <path fill="#FFD037" d="M66.753 308.72c0 1.066.122 1.929.27 1.929.147 0 .265-.863.265-1.928s-.148-.564-.295-.564c-.148 0-.24-.501-.24.564z"/>
            <path fill="#FFD037" d="M65.278 309.992c.935.51 1.749.817 1.82.686.072-.13-.632-.648-1.567-1.157-.936-.51-.565-.14-.637 0-.071.139-.552-.038.384.471z"/>
            <path fill="#A8A8A8" d="M67.49 323.327s6.472-.202 8.427-1.587c1.955-1.385 9.957-3.047 10.438-.82.48 2.226 9.729 11.065 2.422 11.124-7.306.06-16.98-1.136-18.927-2.319-1.947-1.183-2.36-6.398-2.36-6.398z"/>
            <path fill="#000" d="M88.904 331.27c-7.307.059-16.981-1.137-18.928-2.32-1.479-.904-2.073-4.141-2.271-5.631h-.215s.421 5.21 2.355 6.398c1.935 1.187 11.622 2.378 18.928 2.319 2.107 0 2.836-.766 2.798-1.877-.295.682-1.1 1.098-2.667 1.11z" opacity=".2"/>
        </g>
    </g>
</svg>
