<svg xmlns="http://www.w3.org/2000/svg" viewBox="0 0 41.558 31.85">
    <defs>
        <style>
            .cls-1{fill:#ea0b4b;fill-rule:evenodd}
        </style>
    </defs>
    <path id="Path_100" d="M348.245 15.566a1.34 1.34 0 1 1 2.674.179 19.224 19.224 0 0 0 1.91 10.235c1.06 1.918 2.814 3.781 5.215 3.11a8.668 8.668 0 0 0 4.022-3.025 1.339 1.339 0 1 1 2.058 1.715 11.216 11.216 0 0 1-5.363 3.882c-3.695 1.029-6.587-1.341-8.279-4.4a21.912 21.912 0 0 1-2.237-11.693zm-.031-6.61a1.858 1.858 0 0 0-1.31 2.268 3.431 3.431 0 0 1 4.053 0 1.714 1.714 0 0 0-.055-1.13 2.165 2.165 0 0 0-2.689-1.138zm4.147-5.714a7.259 7.259 0 0 0-4.054-2.62 17.519 17.519 0 0 0-5.995-.507 13.815 13.815 0 0 0-6.158 1.629 5.291 5.291 0 0 0-2.754 4.311 9.581 9.581 0 0 0 1.263 4.958 33.567 33.567 0 0 0 7.491 8.98l1.232 1.037a1.341 1.341 0 0 0 1.692-2.081l-1.169-.99a30.9 30.9 0 0 1-6.86-8.185 7.1 7.1 0 0 1-.974-3.539 2.74 2.74 0 0 1 1.458-2.214 11.417 11.417 0 0 1 4.967-1.24 14.671 14.671 0 0 1 5.059.405 4.679 4.679 0 0 1 2.6 1.59 1.347 1.347 0 0 0 1.871.327 1.331 1.331 0 0 0 .327-1.863zm7.764 5.714a1.858 1.858 0 0 1 1.31 2.268 3.431 3.431 0 0 0-4.053 0 1.714 1.714 0 0 1 .055-1.13 2.165 2.165 0 0 1 2.689-1.138zm-1.957-4.178a4.707 4.707 0 0 1 2.6-1.59 15.062 15.062 0 0 1 5.059-.405 11.416 11.416 0 0 1 4.973 1.238 2.751 2.751 0 0 1 1.458 2.214 7.022 7.022 0 0 1-.974 3.539 30.9 30.9 0 0 1-6.86 8.185 21.837 21.837 0 0 1-5.729 3.929c-.725.249-.491-.288-.359-.982a23.513 23.513 0 0 1 1.645-4.724 1.339 1.339 0 1 0-2.455-1.068c-1.465 3.352-2.035 5.581-1.957 6.961a2.544 2.544 0 0 0 1.442 2.4 3.419 3.419 0 0 0 2.557-.047 23.84 23.84 0 0 0 6.61-4.436 33.687 33.687 0 0 0 7.491-8.98 9.58 9.58 0 0 0 1.263-4.958 5.291 5.291 0 0 0-2.752-4.311 13.845 13.845 0 0 0-6.162-1.628 17.714 17.714 0 0 0-5.995.507 7.259 7.259 0 0 0-4.054 2.619 1.341 1.341 0 1 0 2.2 1.536z" class="cls-1" data-name="Path 100" transform="translate(-333.387 -.058)"/>
</svg>
