<svg xmlns="http://www.w3.org/2000/svg" viewBox="0 0 114.425 22.999">
    <defs>
        <style>
            .cls-1{fill:#5e5971;fill-rule:evenodd}
        </style>
    </defs>
    <path id="Path_99" d="M15.6 514.685H9.02a1.2 1.2 0 0 0-1.211 1.215 1.219 1.219 0 0 0 1.211 1.211h5.244a5.985 5.985 0 1 1-5.892-7.211 6.019 6.019 0 0 1 4.863 2.3 1.358 1.358 0 0 0 1.7.439 1.17 1.17 0 0 0 .439-1.669 8.164 8.164 0 0 0-6.989-3.48 8.443 8.443 0 0 0-3.242.648 8.723 8.723 0 0 0-2.66 1.812 8.557 8.557 0 0 0-1.812 2.66A8.238 8.238 0 0 0 0 515.887a8.539 8.539 0 0 0 .648 3.261 8.723 8.723 0 0 0 1.812 2.66 8.556 8.556 0 0 0 2.66 1.812 8.4 8.4 0 0 0 3.261.648 8.61 8.61 0 0 0 3.29-.648 8.721 8.721 0 0 0 2.66-1.812 8.557 8.557 0 0 0 1.812-2.66 8.4 8.4 0 0 0 .648-3.261 1.182 1.182 0 0 0-1.192-1.2zm8.61-2.47a6.074 6.074 0 0 0-6.074 6.055v4.854a1.2 1.2 0 1 0 2.393 0v-4.854a3.667 3.667 0 0 1 3.681-3.662 1.213 1.213 0 0 0 1.211-1.211 1.2 1.2 0 0 0-1.211-1.182zm7.209 12.12a6.084 6.084 0 1 1 6.074-6.084 6.1 6.1 0 0 1-6.074 6.084zm0-9.774a3.69 3.69 0 1 0 3.681 3.69 3.685 3.685 0 0 0-3.681-3.69zm16.058-2.346a1.2 1.2 0 0 0-1.211 1.182v6.027a2.5 2.5 0 1 1-5.006 0V513.4a1.2 1.2 0 0 0-2.393 0v6.084a4.9 4.9 0 0 0 9.793 0V513.4a1.182 1.182 0 0 0-1.182-1.182zm8.734 12.215a6.074 6.074 0 1 0-6.074-6.074v10.861a1.2 1.2 0 0 0 1.211 1.182 1.182 1.182 0 0 0 1.182-1.182v-6.026a6.028 6.028 0 0 0 3.681 1.24zm0-9.745a3.681 3.681 0 1 1-3.681 3.709v-.029a3.677 3.677 0 0 1 3.681-3.681zm19.789.63a5.019 5.019 0 0 0 1.068-3 4.921 4.921 0 0 0-4.72-4.834h-4.675a1.229 1.229 0 0 0-1.23 1.211v14.437a1.2 1.2 0 0 0 1.211 1.211h6.436a4.83 4.83 0 0 0 4.52-4.749 4.9 4.9 0 0 0-2.61-4.276zm-1.335-3.023a2.5 2.5 0 0 1-2.517 2.47h-3.29V509.9h3.29a2.447 2.447 0 0 1 2.517 2.393zm-.753 9.621h-5.057v-4.739h4.93a2.52 2.52 0 0 1 2.422 2.4 2.358 2.358 0 0 1-2.3 2.336zm7.285 2.422a1.2 1.2 0 0 0 1.182-1.211V513.4a1.2 1.2 0 0 0-2.393 0v9.726a1.2 1.2 0 0 0 1.211 1.211zm0-14.542a1.247 1.247 0 0 0 .849-.334 1.221 1.221 0 0 0 0-1.7 1.2 1.2 0 1 0-1.7 1.7 1.247 1.247 0 0 0 .849.334zm19.71 7.285a4.853 4.853 0 0 0-4.863-4.835 4.792 4.792 0 0 0-3.652 1.669 4.793 4.793 0 0 0-3.652-1.669 4.853 4.853 0 0 0-4.863 4.835v6.093a1.2 1.2 0 1 0 2.393 0v-6.093a2.455 2.455 0 0 1 4.911 0v6.093a1.213 1.213 0 0 0 1.211 1.211 1.2 1.2 0 0 0 1.182-1.211v-6.093a2.47 2.47 0 0 1 4.939 0v6.093a1.2 1.2 0 0 0 1.182 1.211 1.219 1.219 0 0 0 1.211-1.211V517.3a.2.2 0 0 0-.029-.124c.029-.029.029-.048.029-.1zm7.571-4.844a6.082 6.082 0 0 0-6.122 6.131 5.94 5.94 0 0 0 6.122 5.96 5.272 5.272 0 0 0 3.576-1.211 1.272 1.272 0 0 0 1.163 1.211 1.167 1.167 0 0 0 1.211-1.211v-4.749a5.946 5.946 0 0 0-5.95-6.131zm0 9.726a3.662 3.662 0 0 1-3.747-3.595 3.8 3.8 0 0 1 3.747-3.757 3.655 3.655 0 0 1 3.576 3.757 3.516 3.516 0 0 1-3.58 3.596z" class="cls-1" data-name="Path 99" transform="translate(0 -507.4)"/>
</svg>
