<svg xmlns="http://www.w3.org/2000/svg" width="34" height="40" viewBox="0 0 34 40">
    <defs>
        <linearGradient id="a" x1="94.012%" x2="12.378%" y1="77.976%" y2="18.204%">
            <stop offset="0%" stop-color="#FFF"/>
            <stop offset="100%" stop-color="#FFF"/>
        </linearGradient>
    </defs>
    <g fill="none" fill-rule="evenodd" transform="translate(-875 -2985)">
        <path fill="#FFF" d="M0 0h1440v4315H0z"/>
        <text fill="#EA0B4B" font-family="SourceSansPro-Regular, Source Sans Pro" font-size="120" opacity=".05">
            <tspan x="821" y="3013">5</tspan>
        </text>
        <circle cx="892" cy="3005" r="36" fill="url(#a)" opacity=".652"/>
        <g fill="#EA0B4B" fill-rule="nonzero">
            <path d="M908.841 3018.21l-5.832-10.247c.59-.276.945-.906.906-1.616l-.433-3.625 2.482-2.601c.552-.552.591-1.498.04-2.168l-2.483-2.68.512-3.665c.08-.788-.473-1.576-1.26-1.734l-3.587-.709-1.734-3.192c-.355-.749-1.222-1.064-2.01-.749h-.04l-3.31 1.537-3.231-1.576a1.541 1.541 0 0 0-1.182-.118c-.394.118-.71.394-.907.748l-1.773 3.192-3.586.63c-.828.159-1.38.907-1.3 1.774l.433 3.626-2.483 2.6c-.552.553-.591 1.498-.04 2.168l2.483 2.68-.512 3.665c-.079.71.355 1.38 1.025 1.655l-5.872 10.404c-.158.237-.119.552 0 .789.157.236.394.394.67.394h6.305l2.877 5.005c.157.236.394.394.67.394a.763.763 0 0 0 .67-.394l5.635-9.616 5.636 9.734c.157.236.394.394.67.394a.763.763 0 0 0 .67-.394l2.876-5.123h6.306a.763.763 0 0 0 .67-.394.652.652 0 0 0 .04-.789zm-23.133 4.216l-2.443-4.217c-.158-.236-.394-.394-.67-.394h-5.439l5.439-9.615 2.246.394 1.734 3.192c.355.748 1.222 1.064 2.01.748h.04l1.615-.748.788 1.379-5.32 9.261zm2.286-11.31h-.04l-1.734-3.271c-.236-.394-.63-.71-1.103-.749l-3.626-.67.513-3.626c.079-.472-.08-.985-.394-1.3l-2.444-2.68 2.483-2.6a1.48 1.48 0 0 0 .434-1.301l-.434-3.586s0-.04.04-.08l3.586-.63a1.595 1.595 0 0 0 1.103-.788l1.774-3.192 3.231 1.576c.434.237.985.237 1.419 0l3.27-1.497h.04l1.734 3.27c.237.395.63.71 1.064.75l3.586.709-.512 3.625c-.079.473.079.986.394 1.3l2.483 2.68-2.522 2.602a1.48 1.48 0 0 0-.434 1.3l.434 3.626-3.547.59a1.595 1.595 0 0 0-1.104.79l-1.773 3.191-3.231-1.576a1.507 1.507 0 0 0-1.42 0l-3.27 1.537zm13.399 6.7a.763.763 0 0 0-.67.393l-2.443 4.335-5.557-9.615a.635.635 0 0 0-.158-.276l-.867-1.537.276-.118 3.232 1.576c.236.118.473.158.71.158.55 0 1.103-.276 1.378-.789l1.774-3.192 2.364-.433 5.4 9.497h-5.44z"/>
            <path d="M899.856 2998.899c0-4.335-3.547-7.882-7.882-7.882-4.335 0-7.882 3.547-7.882 7.882 0 4.335 3.547 7.882 7.882 7.882 4.335 0 7.882-3.547 7.882-7.882zm-7.882 6.305c-3.468 0-6.305-2.837-6.305-6.305 0-3.468 2.837-6.305 6.305-6.305 3.468 0 6.306 2.837 6.306 6.305 0 3.468-2.838 6.305-6.306 6.305z"/>
        </g>
    </g>
</svg>
