<svg xmlns="http://www.w3.org/2000/svg" width="36" height="39" viewBox="0 0 36 39">
    <defs>
        <linearGradient id="a" x1="94.012%" x2="12.378%" y1="77.976%" y2="18.204%">
            <stop offset="0%" stop-color="#FFF"/>
            <stop offset="100%" stop-color="#FFF"/>
        </linearGradient>
    </defs>
    <g fill="none" fill-rule="evenodd" transform="translate(-562 -2986)">
        <path fill="#FFF" d="M0 0h1440v4315H0z"/>
        <text fill="#EA0B4B" font-family="SourceSansPro-Regular, Source Sans Pro" font-size="120" opacity=".05">
            <tspan x="505" y="3013">4</tspan>
        </text>
        <circle cx="580" cy="3005" r="36" fill="url(#a)" opacity=".652"/>
        <g fill="#EA0B4B" fill-rule="nonzero">
            <path d="M591.079 3009.561v-8.947a3.36 3.36 0 0 0-3.355-3.355c-.437 0-.854.084-1.237.237a3.36 3.36 0 0 0-3.237-2.474c-.437 0-.854.085-1.237.237a3.36 3.36 0 0 0-3.237-2.474 3.362 3.362 0 0 0-3.237 2.473 3.36 3.36 0 0 0-4.591 3.12V3000.616a5.587 5.587 0 0 0-2.237 4.47v4.474a7.846 7.846 0 0 0 4.473 7.076v1.02a3.36 3.36 0 0 0-2.237 3.163v2.237c0 .618.501 1.119 1.119 1.119h15.658c.617 0 1.118-.501 1.118-1.119v-2.237a3.36 3.36 0 0 0-2.237-3.163v-1.02a7.846 7.846 0 0 0 4.474-7.076zm-4.474-8.947a1.12 1.12 0 0 1 2.237 0v2.237a1.12 1.12 0 0 1-1.118 1.118 1.12 1.12 0 0 1-1.119-1.118v-2.237zm-4.473-2.237a1.12 1.12 0 0 1 2.237 0v4.474a1.12 1.12 0 0 1-1.119 1.118 1.12 1.12 0 0 1-1.118-1.118v-4.474zm-4.474-2.237a1.12 1.12 0 0 1 1.118-1.118 1.12 1.12 0 0 1 1.119 1.118v3.548a3.34 3.34 0 0 0-1.119-.192h-1.118v-3.356zm-4.474 2.237a1.12 1.12 0 0 1 1.119-1.118 1.12 1.12 0 0 1 1.118 1.118v1.119h-1.118c-.383 0-.757.038-1.119.112v-1.23zm13.421 23.562h-13.42v-1.119a1.12 1.12 0 0 1 1.118-1.118h11.184a1.12 1.12 0 0 1 1.118 1.118v1.119zm-1.491-7.103c-.447.158-.746.58-.746 1.054v1.575h-8.947v-1.575c0-.474-.299-.896-.746-1.054a5.602 5.602 0 0 1-3.728-5.275v-4.473a3.36 3.36 0 0 1 3.356-3.356h4.473a1.12 1.12 0 0 1 0 2.237h-4.473a1.118 1.118 0 0 0 0 2.237 5.598 5.598 0 0 1 5.592 5.592 1.118 1.118 0 0 0 2.237 0 7.81 7.81 0 0 0-2.477-5.708 3.37 3.37 0 0 0 1.358-.74 3.341 3.341 0 0 0 2.237.856c.859 0 1.643-.325 2.237-.857a3.341 3.341 0 0 0 3.355.665v3.547a5.602 5.602 0 0 1-3.728 5.275zM581.013 2986c-.618 0-1.118.5-1.118 1.118v3.43a1.118 1.118 0 0 0 2.237 0v-3.43c0-.617-.501-1.118-1.119-1.118zM590.751 2988.639a1.118 1.118 0 0 0-1.581 0l-2.237 2.237a1.118 1.118 0 1 0 1.582 1.581l2.236-2.236a1.119 1.119 0 0 0 0-1.582zM596.671 3001.732h-2.237a1.118 1.118 0 0 0 0 2.237h2.237a1.118 1.118 0 0 0 0-2.237zM565.355 3001.732h-2.237a1.118 1.118 0 0 0 0 2.237h2.237a1.118 1.118 0 0 0 0-2.237zM575.094 2990.876l-2.237-2.237a1.118 1.118 0 1 0-1.582 1.582l2.237 2.236a1.118 1.118 0 1 0 1.582-1.581zM568.092 2994.022l-2.237-1.119a1.119 1.119 0 0 0-1 2l2.237 1.12a1.118 1.118 0 0 0 1-2.001zM595.435 2993.403a1.118 1.118 0 0 0-1.5-.5l-2.238 1.119a1.118 1.118 0 0 0 1 2l2.237-1.118c.553-.276.777-.948.5-1.5z"/>
        </g>
    </g>
</svg>
