<svg xmlns="http://www.w3.org/2000/svg" width="451" height="354" viewBox="0 0 451 354">
    <defs>
        <linearGradient id="a" x1="49.997%" x2="49.997%" y1="100%" y2="0%">
            <stop offset="0%" stop-color="gray" stop-opacity=".25"/>
            <stop offset="54%" stop-color="gray" stop-opacity=".12"/>
            <stop offset="100%" stop-color="gray" stop-opacity=".1"/>
        </linearGradient>
        <linearGradient id="b" x1="49.997%" x2="49.997%" y1="100.006%" y2=".005%">
            <stop offset="0%" stop-color="gray" stop-opacity=".25"/>
            <stop offset="54%" stop-color="gray" stop-opacity=".12"/>
            <stop offset="100%" stop-color="gray" stop-opacity=".1"/>
        </linearGradient>
    </defs>
    <g fill="none" fill-rule="evenodd">
        <path fill="#EA0B4B" fill-rule="nonzero" d="M220.432 31.042c-16.132-1.934-31.22-7.876-46.446-12.9a415.121 415.121 0 0 0-51.723-13.364C103.61 1.212 84.38-1.112 65.676.55 46.974 2.21 28.726 8.188 16.798 19.115-3.411 37.65-1.705 65.745 4.968 90.508c7.921 29.38 21.616 58.423 44.032 83.445 15.932 17.787 35.924 33.185 55.738 48.47 11.202 8.625 22.507 17.31 35.591 24.092 12.171 6.3 25.61 10.819 38.954 15.272 14.249 4.76 28.532 9.547 43.244 13.186 46.956 11.616 96.389 11.252 144.722 10.218 17.01-.36 34.79-.952 49.06-7.595 11.12-5.193 19.045-13.606 25.048-22.578 7.855-11.753 12.816-25.78 7.237-38.888-8.224-19.335-36.41-30.726-45.793-49.767-12.024-24.434 11.331-50.261 4.722-75.695-2.748-10.58-10.5-20.145-18.715-29.064-19.594-21.266-45.637-40.637-80.64-37.806-29.634 2.388-56.664 10.974-87.736 7.244z" opacity=".1"/>
        <path fill="url(#a)" fill-rule="nonzero" d="M148.163 19.158h135.474c7.393 0 13.393 5.98 13.417 13.373v296.59c-.024 7.392-6.024 13.372-13.417 13.372H148.163c-7.393 0-13.393-5.98-13.417-13.373V32.526c.026-7.39 6.026-13.368 13.417-13.368z"/>
        <rect width="159.832" height="319.621" x="135.98" y="21.634" fill="#3A3768" fill-rule="nonzero" rx="26.87" transform="rotate(-180 215.896 181.444)"/>
        <path fill="#FFF" fill-rule="nonzero" d="M284.04 311.524H147.747V51.37h136.291z"/>
        <ellipse cx="232.001" cy="36.499" fill="#FFF" fill-rule="nonzero" rx="1.238" ry="1.238"/>
        <path fill="#FFF" fill-rule="nonzero" d="M224.803 37.737h-25.26a1 1 0 0 1-1-1v-.48a1 1 0 0 1 1-1h25.26a1 1 0 0 1 1 1v.48a1 1 0 0 1-1 1z"/>
        <ellipse cx="216.515" cy="323.91" fill="#FFF" fill-rule="nonzero" rx="8.674" ry="8.673"/>
        <ellipse cx="209.403" cy="332.725" fill="#EA0B4B" fill-rule="nonzero" opacity=".1" rx="109.937" ry="21.205"/>
        <path fill="#EA0B4B" fill-rule="nonzero" d="M163.308 91.676h105.176v140.648H163.308z" opacity=".1"/>
        <path fill="url(#b)" fill-rule="nonzero" d="M253.365 159.858c-.26-.294-.524-.58-.796-.865 2.09-2.372 4.259-4.808 4.237-7.855-.022-3.709-3.311-6.552-4.54-10.057-1.671-4.76.649-9.876 1.601-14.831a27.815 27.815 0 0 0-6.033-22.91c-.966-1.143-2.087-2.247-3.528-2.697-2.186-.692-4.514.269-6.79.55-7.528.926-14.375-5.557-21.936-4.977-.501.02-.994.13-1.455.33-.978.466-1.506 1.496-2.112 2.388-2.35 3.462-6.293 5.193-10.219 6.924a5.489 5.489 0 0 0-1.393.64c-1.178.55-2.338 1.121-3.433 1.77-5.453 3.272-6.319 7.466-4.618 10.962a10.702 10.702 0 0 0 2.65 3.367 6.317 6.317 0 0 1-.157.628c-1.112 3.999-5.007 7.586-4.298 11.745.156.81.45 1.587.866 2.298 1.156 2.09 3.069 3.895 3.804 6.163.076.23.138.464.187.7.398 1.983-.234 3.87-1.104 5.743-8.293 1.918-17.66 5.449-18.386 11.685-1.273 10.845-5.099 40.8-5.099 40.8s-2.562 13.85 3.61 15.537c1.943.528 4.76-.16 8.803-2.882l-.216.64c-.048.143-.095.282-.139.433a126.859 126.859 0 0 0-4.233 16.229h59.557a65.283 65.283 0 0 0-2.325-10.2c-.073-.243-.147-.464-.212-.671a45.645 45.645 0 0 0 5.194 1.87c2.195.657 3.956.648 5.371.229 5.155-1.537 5.7-8.517 5.7-8.517l2.217-17.016 2.649-25.373c.391-1.1.589-2.26.584-3.428 0-2.445-.831-5.734-4.008-9.352zm-45.221-15.977c.03-.295.052-.593.07-.888l.077.052c0 .282-.03.563-.06.84v.048a11.194 11.194 0 0 1-.563 2.596c.23-.868.389-1.754.476-2.648zm30.055 61.374c-1.329.606-3.099-.264-3.099-.264.151.277.294.545.433.814v.03l-.095-.052-1.018-.52a25.068 25.068 0 0 1 2-5.945 49.53 49.53 0 0 0 2.069-4.839c.255-.727.467-1.393.64-2.008-.03 2.726.101 5.452.394 8.162.381 2.947-.35 4.185-1.324 4.622z"/>
        <path fill="#B0605D" fill-rule="nonzero" d="M197.5 110.117c-1.415.965-2.9 2.081-3.401 3.721-.814 2.644 1.229 5.297 1.428 8.058.368 5.016-5.306 9.162-4.47 14.126.57 3.401 4.059 5.712 4.73 9.088.978 4.933-4.367 9.282-3.948 14.28.226 2.671 2.082 4.939 4.186 6.592a20.383 20.383 0 0 0 10.227 4.198c-.246-4.289-3.432-8.197-2.882-12.46.376-2.92 2.432-5.314 3.623-8.01 2.09-4.734 1.42-10.213.168-15.233-1.25-5.02-3.064-9.984-3.155-15.147-.056-3.116 1.407-7.69.333-10.646-1.302-3.583-4.41-.22-6.838 1.433z"/>
        <path fill="#000" fill-rule="nonzero" d="M197.934 109.251c-1.416.965-2.9 2.082-3.402 3.722-.814 2.644 1.229 5.297 1.428 8.058.368 5.016-5.306 9.161-4.471 14.125.571 3.402 4.06 5.713 4.73 9.088.979 4.934-4.367 9.283-3.947 14.281.225 2.67 2.082 4.938 4.186 6.591a20.383 20.383 0 0 0 10.227 4.198c-.246-4.289-3.432-8.196-2.882-12.46.376-2.92 2.432-5.313 3.622-8.01 2.09-4.734 1.42-10.213.17-15.233-1.252-5.02-3.065-9.984-3.156-15.147-.056-3.115 1.407-7.69.333-10.645-1.303-3.584-4.41-.221-6.838 1.432z" opacity=".1"/>
        <path fill="#FFB9B9" fill-rule="nonzero" d="M202.513 174.304s-22.94-23.37-5.627-21.638c3.926.394 6.583-.308 8.345-1.623 2.008-1.497 2.852-3.791 3.086-6.184.476-4.76-1.476-9.954-1.476-9.954s23.372-18.609 18.611 4.76a39.835 39.835 0 0 0-.909 7.223c-.077 4.96 1.554 6.86 3.844 7.639 3.86 1.32 9.6-.528 12.214 3.747 4.761 7.807-38.088 16.03-38.088 16.03z"/>
        <path fill="#000" fill-rule="nonzero" d="M225.452 139.683a39.835 39.835 0 0 0-.909 7.223 17.67 17.67 0 0 1-1.9.54 18.648 18.648 0 0 1-14.326-2.596c.476-4.76-1.476-9.953-1.476-9.953s23.372-18.583 18.611 4.786z" opacity=".05"/>
        <path fill="#FFB9B9" fill-rule="nonzero" d="M237.139 128.431c0 10.277-8.333 18.609-18.612 18.609-10.279 0-18.611-8.332-18.611-18.609 0-.346 0-.692.03-1.034.574-10.05 9.036-17.82 19.099-17.54 10.063.279 18.08 8.509 18.094 18.574z"/>
        <path fill="#000" fill-rule="nonzero" d="M202.513 174.304s-22.94-23.37-5.627-21.638c3.926.394 6.583-.308 8.345-1.623-3.328 5.557-7.12 15.536 9.834 14.606 15.516-.866 15.252-7.046 13.322-11.105 3.86 1.32 9.6-.528 12.214 3.748 4.761 7.79-38.088 16.012-38.088 16.012z" opacity=".05"/>
        <path fill="#FFD6EF" fill-rule="nonzero" d="M255.72 173.382a5.89 5.89 0 0 1-.403.922l-5.882 4.488-.749.575-9.812 7.487s.9 1.575-.385 6.189a41.698 41.698 0 0 1-2.645 6.794 25.306 25.306 0 0 0-1.956 5.894.67.67 0 0 1 0 .091c-.073.377-.138.749-.19 1.117a31.587 31.587 0 0 0 .346 11.212c.208.987.402 1.658.48 1.909l.04.117s.207.554.519 1.523l.026.087a65.915 65.915 0 0 1 2.45 10.537h-58.09a128.408 128.408 0 0 1 4.22-16.276l.213-.632c-.355.243-.702.472-1.035.68-4.025 2.527-6.696 2.791-8.449 1.817-4.877-2.713-2.635-15.047-2.635-15.047s3.735-29.709 4.977-40.463c.714-6.184 9.855-9.685 17.95-11.59a95.76 95.76 0 0 1 12.477-2.033h.087s-.121.147-.325.432l-.026.035c-.151.199-.346.454-.562.766a29.825 29.825 0 0 0-3.537 6.323c-1.341 3.53-1.57 7.387 2.355 9.347 1.978.991 5.008 1.502 9.474 1.255 6.904-.38 10.687-1.822 12.587-3.657a5.163 5.163 0 0 0 1.562-2.817c.498-2.631-1.103-5.4-2.216-6.95a15.113 15.113 0 0 0-.986-1.23l11.348.81a22.56 22.56 0 0 1 14.677 6.764c.268.273.528.559.78.866 4.96 5.751 4.033 10.685 3.315 12.658z"/>
        <path fill="#000" fill-rule="nonzero" d="M187.797 172.573s.866 6.924-.866 9.088c-1.731 2.164-2.164 12.117 0 18.176l.866-27.264z" opacity=".05"/>
        <rect width="29.432" height="12.117" x="189.961" y="187.282" fill="#CDD0DB" fill-rule="nonzero" rx="3.75"/>
        <rect width="29.432" height="12.117" x="189.961" y="187.282" fill="#000" fill-rule="nonzero" opacity=".05" rx="3.75"/>
        <rect width="29.432" height="12.117" x="189.961" y="187.715" fill="#CDD0DB" fill-rule="nonzero" rx="3.75"/>
        <ellipse cx="213.117" cy="193.558" fill="#9DA7C0" fill-rule="nonzero" rx="1.298" ry="1.298"/>
        <path fill="#000" fill-rule="nonzero" d="M177.435 206.475a8.418 8.418 0 0 1 4.891-5.15c1.48-.614 3.285-1.73 4.198-3.769 1.706-3.778 4.735-7.673 12.526-5.076 7.791 2.597-2.164 4.328-2.164 4.328s17.746-2.597 10.82 2.596c-6.924 5.193-15.58 8.223-15.58 8.223l-4.264 4.513c-2.597 2.757-7.107 2.744-9.522-.19-1.082-1.324-1.65-3.107-.905-5.475z" opacity=".05"/>
        <path fill="#FFB9B9" fill-rule="nonzero" d="M177.002 205.61a8.418 8.418 0 0 1 4.891-5.15c1.48-.614 3.285-1.731 4.199-3.77 1.705-3.777 4.735-7.672 12.525-5.076 7.791 2.597-2.164 4.328-2.164 4.328s17.746-2.597 10.82 2.597c-6.924 5.193-15.58 8.222-15.58 8.222l-4.264 4.514c-2.597 2.757-7.107 2.744-9.522-.19-1.082-1.325-1.65-3.108-.905-5.475z"/>
        <path fill="#000" fill-rule="nonzero" d="M238.004 214.55l-3.03 7.358-3.895-2.852-10.82-7.967-7.358-4.76c-10.388-7.79 0-9.089 0-9.089-3.896-1.73 0-3.462 0-3.462 13.85-3.03 11.253 8.223 11.253 8.223l8.773 4.548 2.913 1.51 2.164 6.492z" opacity=".05"/>
        <path fill="#FFB9B9" fill-rule="nonzero" d="M238.87 213.685l-3.03 7.357-3.895-2.852-10.82-7.967-7.359-4.76c-10.388-7.79 0-9.088 0-9.088-3.895-1.731 0-3.462 0-3.462 13.85-3.03 11.254 8.222 11.254 8.222l8.773 4.549 2.913 1.51 2.164 6.491z"/>
        <path fill="#000" fill-rule="nonzero" d="M238.87 213.685l-3.03 7.357-3.895-2.852c3.51.126 7.656-1.57 1.83-12.506l2.913 1.51 2.182 6.491z" opacity=".05"/>
        <path fill="#FFD6EF" fill-rule="nonzero" d="M254.884 169.976l.836 3.406-2.567 25.157-2.164 16.877s-.866 11.252-10.82 8.223c-9.956-3.03-10.821-6.059-10.821-6.059s14.283 4.76 5.194-12.117c0 0 5.193 2.596 4.328-4.328-.866-6.924 0-19.041 0-19.041l16.014-12.118z"/>
        <path fill="#000" fill-rule="nonzero" d="M237.139 128.431a18.61 18.61 0 0 1-14.496 18.15c-.623-1.8-1.064-3.592-.61-5.414.866-3.535 4.96-6.115 4.506-9.728a2.397 2.397 0 0 0-.433-1.134c-.913-1.203-2.774-.606-4.255-.307-3.826.761-8.016-1.822-9.054-5.583a12.653 12.653 0 0 1-12.872 2.982c.574-10.05 9.035-17.82 19.098-17.54 10.063.279 18.08 8.509 18.094 18.574h.022z" opacity=".05"/>
        <path fill="#B0605D" fill-rule="nonzero" d="M213.255 123.55c1.035 3.76 5.229 6.344 9.05 5.578 1.481-.295 3.342-.892 4.255.311.234.335.375.724.412 1.13.458 3.618-3.623 6.193-4.502 9.733-.904 3.644 1.732 7.162 2.316 10.87.307 2.03 0 4.099 0 6.15 0 2.052.485 4.259 2.008 5.626 1.524 1.368 4.328 1.394 5.354-.39 4.87 2.576 2.926 10.551 6.622 14.632 2.039 2.25 5.393 2.792 8.419 2.506a3.55 3.55 0 0 0 1.978-.64c.5-.494.838-1.128.97-1.818a14.76 14.76 0 0 0-.377-8.755c-.485-1.346-1.182-2.705-1-4.12.138-1.108.8-2.073 1.502-2.942 2.324-2.883 5.497-5.67 5.475-9.374-.022-3.705-3.233-6.492-4.432-9.954-1.632-4.73.632-9.797 1.562-14.714a27.906 27.906 0 0 0-5.89-22.72c-.944-1.133-2.039-2.228-3.463-2.678-2.134-.684-4.406.268-6.635.545-7.358.922-14.028-5.51-21.412-4.934a3.93 3.93 0 0 0-1.42.325c-.956.463-1.471 1.489-2.064 2.371-3.26 4.869-9.665 6.258-14.686 9.279-14.642 8.815 4.74 24.776 15.958 13.982z"/>
        <path stroke="#535461" stroke-width="2" d="M302.568 337.655s-6.267-31.748 6.64-53.507a49.027 49.027 0 0 0 6.765-30.268 82.453 82.453 0 0 0-3.03-14.774"/>
        <path fill="#EA0B4B" fill-rule="nonzero" d="M321.002 225.344c-.346 3.787-8.224 14.143-8.224 14.143s-5.851-11.616-5.5-15.407a6.89 6.89 0 1 1 13.72 1.26l.004.004zM330.416 247.367c-2.35 2.99-14.586 7.41-14.586 7.41s1.402-12.932 3.752-15.922a6.891 6.891 0 0 1 10.82 8.512h.014zM326.624 283.183c-3.54 1.393-16.33-.97-16.33-.97s7.739-10.455 11.28-11.849a6.89 6.89 0 0 1 5.05 12.819zM317.656 309.637c-3.254 1.974-16.26 1.805-16.26 1.805s5.86-11.61 9.114-13.584a6.891 6.891 0 0 1 10.56 5.72 6.89 6.89 0 0 1-3.414 6.06zM301.356 254.188c2.476 2.89 14.885 6.785 14.885 6.785s-1.948-12.861-4.42-15.748a6.891 6.891 0 1 0-10.465 8.963zM291.259 285.256c3.224 2.016 16.235 2.02 16.235 2.02s-5.705-11.684-8.934-13.705a6.891 6.891 0 0 0-10.618 5.584 6.89 6.89 0 0 0 3.317 6.1zM285.584 316.804c2.84 2.532 15.66 4.739 15.66 4.739s-3.649-12.485-6.493-15.017a6.891 6.891 0 1 0-9.171 10.282l.004-.004zM176.998 51.862H87.716c-9.05 0-16.387 7.336-16.387 16.385 0 9.049 7.337 16.384 16.387 16.384l74.648-.143 17.17 14.978V84.41a16.372 16.372 0 0 0 13.85-16.163c0-9.05-7.336-16.385-16.386-16.385z"/>
        <ellipse cx="90.546" cy="68.809" fill="#FFF" fill-rule="nonzero" rx="5.653" ry="5.652"/>
        <ellipse cx="109.755" cy="68.809" fill="#FFF" fill-rule="nonzero" rx="5.653" ry="5.652"/>
        <ellipse cx="128.968" cy="68.809" fill="#FFF" fill-rule="nonzero" rx="5.653" ry="5.652"/>
        <path fill="#EA0B4B" fill-rule="nonzero" d="M163.091 254.828h45.013v13.416h-45.013z"/>
        <path fill="#EA0B4B" fill-rule="nonzero" d="M223.254 254.828h45.013v13.416h-45.013z" opacity=".1"/>
    </g>
</svg>
