<svg xmlns="http://www.w3.org/2000/svg" width="40" height="34" viewBox="0 0 40 34">
    <defs>
        <linearGradient id="a" x1="94.012%" x2="12.378%" y1="77.976%" y2="18.204%">
            <stop offset="0%" stop-color="#FFF"/>
            <stop offset="100%" stop-color="#FFF"/>
        </linearGradient>
    </defs>
    <g fill="none" fill-rule="evenodd" transform="translate(-552 -2701)">
        <path fill="#FFF" d="M0 0h1440v4315H0z"/>
        <text fill="#EA0B4B" font-family="SourceSansPro-Regular, Source Sans Pro" font-size="120" opacity=".05">
            <tspan x="505" y="2727">1</tspan>
        </text>
        <circle cx="572" cy="2718" r="36" fill="url(#a)" opacity=".652"/>
        <g fill="#EA0B4B" fill-rule="nonzero">
            <path d="M588.484 2718.443c-.972 0-1.91.41-2.572 1.126l-3.445 3.718a3.524 3.524 0 0 0-3.358-2.487h-5.413a3.104 3.104 0 0 1-2.058-.781 8.186 8.186 0 0 0-10.75-.075 3.508 3.508 0 0 0-2.872-1.5h-4.844c-.647 0-1.172.527-1.172 1.178v14.14c0 .65.525 1.177 1.172 1.177h4.844a3.5 3.5 0 0 0 2.642-1.207l.694.196a26.814 26.814 0 0 0 7.293 1.011h10.464a8.227 8.227 0 0 0 6.563-3.299l5.626-7.542c.46-.616.702-1.35.702-2.12 0-1.95-1.577-3.535-3.516-3.535zm-29.296 12.961c0 .65-.526 1.179-1.172 1.179h-3.672V2720.8h3.672c.646 0 1.172.528 1.172 1.178v9.426zm30.235-8.72l-5.626 7.542a5.877 5.877 0 0 1-4.688 2.357h-10.463c-2.252 0-4.492-.31-6.66-.923l-.458-.13c.002-.042.003-.083.003-.126v-8.893l.817-.723a5.848 5.848 0 0 1 7.742 0 5.438 5.438 0 0 0 3.606 1.368h5.414c.646 0 1.171.529 1.171 1.179s-.525 1.178-1.171 1.178h-8.33c-.646 0-1.171.527-1.171 1.178 0 .651.525 1.178 1.172 1.178h9.114c.972 0 1.91-.41 2.572-1.125l5.16-5.569c.224-.242.529-.375.857-.375a1.176 1.176 0 0 1 .94 1.883zM585.833 2710.322a.753.753 0 0 1-.052.026l-3.594 1.623a.817.817 0 0 1-.65.01l-2.157-.89-2.157.89a.817.817 0 0 1-.625 0l-2.157-.89-2.158.89a.817.817 0 0 1-.624 0l-1.567-.645c-1.124 2.552-3.554 4.21-6.3 4.21-3.829 0-6.944-3.263-6.944-7.273s3.115-7.273 6.944-7.273c2.862 0 5.37 1.79 6.428 4.52h14.506c1.337 0 2.426 1.14 2.426 2.541 0 .958-.506 1.824-1.319 2.261zm-1.107-3.016h-15.107a.858.858 0 0 1-.816-.633c-.675-2.325-2.69-3.888-5.011-3.888-2.889 0-5.239 2.462-5.239 5.488 0 3.025 2.35 5.487 5.239 5.487 2.305 0 4.315-1.547 5.001-3.85a.882.882 0 0 1 .446-.54.816.816 0 0 1 .68-.025l2.052.847 2.157-.89a.817.817 0 0 1 .625 0l2.157.89 2.157-.89a.818.818 0 0 1 .625 0l2.143.884 3.24-1.464a.759.759 0 0 0 .372-.66c0-.417-.324-.756-.721-.756z"/>
            <path d="M564.026 2710.697c-1.32 0-2.393-1.088-2.393-2.424 0-1.337 1.073-2.425 2.393-2.425 1.319 0 2.392 1.088 2.392 2.425 0 1.336-1.073 2.424-2.392 2.424zm0-2.987a.56.56 0 0 0-.556.563c0 .31.25.563.556.563a.56.56 0 0 0 .555-.563.56.56 0 0 0-.555-.563z"/>
        </g>
    </g>
</svg>
