<svg xmlns="http://www.w3.org/2000/svg" width="404" height="297" viewBox="0 0 404 297">
    <defs>
        <linearGradient id="a" x1="50%" x2="50%" y1="100%" y2="0%">
            <stop offset="0%" stop-color="gray" stop-opacity=".25"/>
            <stop offset="54%" stop-color="gray" stop-opacity=".12"/>
            <stop offset="100%" stop-color="gray" stop-opacity=".1"/>
        </linearGradient>
        <linearGradient id="b" x1="50.016%" x2="50.016%" y1="99.994%" y2=".007%">
            <stop offset="0%" stop-color="gray" stop-opacity=".25"/>
            <stop offset="54%" stop-color="gray" stop-opacity=".12"/>
            <stop offset="100%" stop-color="gray" stop-opacity=".1"/>
        </linearGradient>
    </defs>
    <g fill="none" fill-rule="evenodd">
        <path fill="#0DA176" fill-rule="nonzero" d="M53.468 150.574c-5.313 1.605-10.287 5.492-11.614 10.884-1.518 6.198 1.983 12.445 2.489 18.808 1.634 20.848-28.025 35.557-23.794 56.036 1.68 8.142 8.47 14.132 15.162 19.08 10.718 7.903 22.61 14.884 35.78 16.854 19.99 2.995 40.875-5.807 60.305-.245 15.671 4.489 27.663 17.642 43.227 22.495 11.846 3.696 24.61 2.24 36.917.743 6.637-.805 13.59-1.734 18.944-5.716 9.956-7.413 10.582-22.051 17.248-32.542 10.295-16.177 32.869-19.354 51.797-16.21 18.927 3.144 37.307 10.884 56.483 10.254 4.099-.137 8.297-.693 11.872-2.705 4.347-2.443 7.284-6.749 9.88-11.009a178.138 178.138 0 0 0 25.83-88.515c.113-5.372-.078-10.976-2.604-15.717-3.194-5.998-9.578-9.586-15.933-12-15.26-5.807-32.118-6.757-47.072-13.307-14.423-6.317-26.104-17.397-38.664-26.892a205.946 205.946 0 0 0-84.823-37.776c-7.214-1.394-14.7-2.39-21.869-.78-8.258 1.854-15.377 7.002-21.777 12.544-17.028 14.742-30.675 32.931-46.367 49.088a263.977 263.977 0 0 1-35.225 30.376c-5.807 4.185-11.98 9.155-18.45 12.25-5.924 2.828-11.478 2.115-17.742 4.002z" opacity=".2"/>
        <path stroke="#535461" stroke-width="2" d="M129.37 19.554s-16.033 21.292-4.564 46.11c11.47 24.817-19.99 64.692-19.99 64.692"/>
        <path fill="#8ED16F" fill-rule="nonzero" d="M136.558 11.585c-1.274 5.48-7.367 8.745-7.367 8.745s-4.024-5.621-2.75-11.1c1.273-5.48 4.563-9.396 7.367-8.745 2.804.652 4.023 5.62 2.75 11.1z"/>
        <ellipse cx="131.297" cy="10.359" fill="#8ED16F" fill-rule="nonzero" rx="3.198" ry="1.199" transform="rotate(-76.9 131.297 10.359)"/>
        <ellipse cx="131.297" cy="10.359" fill="#000" fill-rule="nonzero" opacity=".3" rx="3.198" ry="1.199" transform="rotate(-76.9 131.297 10.359)"/>
        <path fill="#8ED16F" fill-rule="nonzero" d="M133.787 35.93c-5.293 1.908-11.345-1.435-11.345-1.435s2.53-6.433 7.827-8.337c5.297-1.904 10.37-1.245 11.345 1.435.975 2.68-2.534 6.43-7.827 8.337z"/>
        <ellipse cx="131.892" cy="30.579" fill="#8ED16F" fill-rule="nonzero" rx="3.197" ry="1.198" transform="rotate(-19.885 131.892 30.579)"/>
        <ellipse cx="131.892" cy="30.579" fill="#000" fill-rule="nonzero" opacity=".3" rx="3.197" ry="1.198" transform="rotate(-19.885 131.892 30.579)"/>
        <path fill="#8ED16F" fill-rule="nonzero" d="M132.555 55.33c-5.293 1.909-11.345-1.434-11.345-1.434s2.53-6.434 7.827-8.338c5.297-1.904 10.37-1.244 11.345 1.435.975 2.68-2.534 6.434-7.827 8.338z"/>
        <ellipse cx="130.724" cy="50.271" fill="#8ED16F" fill-rule="nonzero" rx="3.198" ry="1.199" transform="rotate(-19.8 130.724 50.271)"/>
        <ellipse cx="130.724" cy="50.271" fill="#000" fill-rule="nonzero" opacity=".3" rx="3.198" ry="1.199" transform="rotate(-19.8 130.724 50.271)"/>
        <path fill="#8ED16F" fill-rule="nonzero" d="M138.74 78.091c-5.293 1.908-11.345-1.435-11.345-1.435s2.53-6.434 7.827-8.338c5.297-1.904 10.37-1.244 11.345 1.436.975 2.68-2.534 6.441-7.827 8.337z"/>
        <ellipse cx="136.909" cy="73.042" fill="#8ED16F" fill-rule="nonzero" rx="3.198" ry="1.199" transform="rotate(-19.8 136.91 73.042)"/>
        <ellipse cx="136.909" cy="73.042" fill="#000" fill-rule="nonzero" opacity=".3" rx="3.198" ry="1.199" transform="rotate(-19.8 136.91 73.042)"/>
        <path fill="#8ED16F" fill-rule="nonzero" d="M134.716 98.906c-5.293 1.908-11.345-1.435-11.345-1.435s2.53-6.434 7.828-8.338c5.297-1.904 10.37-1.244 11.344 1.435.975 2.68-2.53 6.434-7.827 8.338z"/>
        <ellipse cx="132.895" cy="93.504" fill="#8ED16F" fill-rule="nonzero" rx="3.197" ry="1.198" transform="rotate(-19.885 132.895 93.504)"/>
        <ellipse cx="132.895" cy="93.504" fill="#000" fill-rule="nonzero" opacity=".3" rx="3.197" ry="1.198" transform="rotate(-19.885 132.895 93.504)"/>
        <path fill="#8ED16F" fill-rule="nonzero" d="M109.89 41.443c3.907 4.049 10.814 3.733 10.814 3.733s.568-6.89-3.34-10.938c-3.907-4.049-8.747-5.716-10.813-3.733-2.066 1.982-.568 6.89 3.339 10.938z"/>
        <ellipse cx="113.776" cy="37.705" fill="#8ED16F" fill-rule="nonzero" rx="1.199" ry="3.198" transform="rotate(-43.99 113.776 37.705)"/>
        <ellipse cx="113.776" cy="37.705" fill="#000" fill-rule="nonzero" opacity=".3" rx="1.199" ry="3.198" transform="rotate(-43.99 113.776 37.705)"/>
        <path fill="#8ED16F" fill-rule="nonzero" d="M107.646 105.734c3.907 4.048 10.814 3.733 10.814 3.733s.568-6.89-3.34-10.938c-3.907-4.049-8.748-5.716-10.813-3.734-2.066 1.983-.569 6.89 3.339 10.939z"/>
        <ellipse cx="111.526" cy="102.002" fill="#8ED16F" fill-rule="nonzero" rx="1.199" ry="3.198" transform="rotate(-43.99 111.526 102.002)"/>
        <ellipse cx="111.526" cy="102.002" fill="#000" fill-rule="nonzero" opacity=".3" rx="1.199" ry="3.198" transform="rotate(-43.99 111.526 102.002)"/>
        <path fill="#8ED16F" fill-rule="nonzero" d="M112.827 64.166c5.036 2.514 11.436-.1 11.436-.1s-1.763-6.682-6.795-9.196c-5.031-2.513-10.154-2.488-11.436.1-1.281 2.588 1.76 6.682 6.795 9.196z"/>
        <ellipse cx="115.229" cy="59.334" fill="#8ED16F" fill-rule="nonzero" rx="1.199" ry="3.198" transform="rotate(-63.48 115.229 59.334)"/>
        <ellipse cx="115.229" cy="59.334" fill="#000" fill-rule="nonzero" opacity=".3" rx="1.199" ry="3.198" transform="rotate(-63.48 115.229 59.334)"/>
        <path fill="#8ED16F" fill-rule="nonzero" d="M114.938 86.802c5.036 2.514 11.436-.1 11.436-.1s-1.763-6.682-6.794-9.196c-5.032-2.513-10.155-2.489-11.436.1-1.282 2.588 1.78 6.707 6.794 9.196z"/>
        <ellipse cx="117.342" cy="81.973" fill="#8ED16F" fill-rule="nonzero" rx="1.199" ry="3.198" transform="rotate(-63.48 117.342 81.973)"/>
        <ellipse cx="117.342" cy="81.973" fill="#000" fill-rule="nonzero" opacity=".3" rx="1.199" ry="3.198" transform="rotate(-63.48 117.342 81.973)"/>
        <path fill="#8ED16F" fill-rule="nonzero" d="M52.153 65.32S81.434 94.6 64.904 138.05c-16.53 43.45 28.336 115.706 28.336 115.706s-.481-.07-1.373-.229c-60.147-10.614-90.013-79.397-56.58-130.493 12.416-18.998 22.64-41.281 16.866-57.716z"/>
        <path fill="#8ED16F" fill-rule="nonzero" d="M0 183.75s33.413-5.322 36.457 24.623c3.045 29.945 64.25 34.097 64.25 34.097s-.416.274-1.15.763C49.022 276.417.713 264.363 7.993 220.315c2.713-16.38 2.49-32.828-7.993-36.565z"/>
        <path fill="#FFF" fill-rule="nonzero" d="M0 183.75s33.413-5.322 36.457 24.623c3.045 29.945 64.25 34.097 64.25 34.097s-.416.274-1.15.763C49.022 276.417.713 264.363 7.993 220.315c2.713-16.38 2.49-32.828-7.993-36.565z" opacity=".3"/>
        <ellipse cx="43.696" cy="159.409" fill="#8ED16F" fill-rule="nonzero" rx="9.188" ry="23.972"/>
        <ellipse cx="43.696" cy="159.409" fill="#000" fill-rule="nonzero" opacity=".3" rx="9.188" ry="23.972"/>
        <ellipse cx="33.109" cy="236.722" fill="#8ED16F" fill-rule="nonzero" rx="6.193" ry="13.784" transform="rotate(-45 33.11 236.722)"/>
        <ellipse cx="33.109" cy="236.722" fill="#000" fill-rule="nonzero" opacity=".3" rx="6.193" ry="13.784" transform="rotate(-45 33.11 236.722)"/>
        <path fill="url(#a)" fill-rule="nonzero" d="M300.273 110.529H82.774c-5.473 0-9.91 4.437-9.91 9.91V247.92c0 5.473 4.437 9.91 9.91 9.91h217.499c5.473 0 9.91-4.437 9.91-9.91V120.438c0-5.472-4.437-9.91-9.91-9.91z"/>
        <rect width="231.731" height="143.833" x="75.656" y="112.263" fill="#0DA176" fill-rule="nonzero" rx="24.81"/>
        <path fill="#0DA176" fill-rule="nonzero" d="M75.656 137.433h231.731v26.369H75.656z"/>
        <path fill="#000" fill-rule="nonzero" d="M75.656 137.433h231.731v26.369H75.656z" opacity=".3"/>
        <path fill="#D6D6E3" fill-rule="nonzero" d="M97.633 183.381h187.782v12.784H97.633z"/>
        <circle cx="113.213" cy="228.13" r="18.38" fill="#0DA176" fill-rule="nonzero"/>
        <circle cx="113.213" cy="228.13" r="18.38" fill="#000" fill-rule="nonzero" opacity=".3"/>
        <path fill="url(#b)" fill-rule="nonzero" d="M294.213 76.797a4.024 4.024 0 0 0 1.77 2.24c3.813 2.518 12.1 1.983 13.096 1.983.212 0 .49.377.797 1.012 1.464 3.02 3.733 11.871 3.886 13.862.204 2.41 2.443 13.689 6.11 17.891.112.129.224.249.332.36 3.597 3.614 7.815-.36 7.815-.36l.606-2.103c-.17.83-.361 1.796-.552 2.879-.095.543-.19 1.12-.282 1.713a65.66 65.66 0 0 0-.859 10.109c-.009 1.23.044 2.459.158 3.683.033.34.07.676.116 1.004.187 1.491.279 2.993.274 4.496-.033 8.927-2.31 20.031-2.31 20.031l.086-.029c-.053.278-.087.415-.087.415l.133-.041c-.063.412-.124.833-.182 1.265-.772 5.6-1.216 12.568-1.427 16.592-.11 2.122-.015 4.25.282 6.355l4.048 28.5v13.275a23.436 23.436 0 0 0 .73 5.965c1.32 5.015.233 22.52-.377 30.824-.17 2.265-.303 3.85-.34 4.305v.137l.116-.045v.145c.173-.074.354-.127.54-.158-1.606 2.489-4.514 6.604-6.75 7.297a7.08 7.08 0 0 0-3.372 2.235l-.058.08-.083.115c-.277.37-.445.81-.486 1.27a1.402 1.402 0 0 1-.074-.245c-.17.925.386 1.771 2.132 2.182 1.018.194 2.054.278 3.09.249 6.056 0 16.804-1.863 17.99-3.866v-6.911l.195.062v.062l.743.245 2.036-6.836c2.444-1.808.415-34.175 0-41.613-.373-6.778 3.82-33.74 4.563-38.49l-.1-.12.113-.693c.15.109.288.231.415.365.243.29.456.604.634.938.35.593.652 1.215.9 1.858 4.099 10.22 5.944 39.448 5.944 42.07v27.485a28.622 28.622 0 0 0 1.12 8.018c.377 1.371.668 2.765.872 4.173a72.686 72.686 0 0 1 .427 3.231c0 .129.029.253.041.37.013.115 0 .111 0 .17.112 1.082.17 1.791.17 1.791a.415.415 0 0 1 .083-.162l.021.262a.56.56 0 0 1 .162-.257c.168-.166.352-.316.547-.448v3.492l-.1-.074v.601c4.223 3.186 11.097 4.148 16.373 4.11 3.422 0 6.193-.414 7.155-.895 1.378-.676.623-2.253-.63-3.46-.97-.937-2.236-1.659-3.036-1.568-1.336.146-5.903-5.027-8.296-7.86l.27-.12.38-.166V216.22s.615-18.094 2.444-35.988c.868-9.02-.2-18.123-3.132-26.697l-.058-.17.556.087c.589.091.904.145.904.145s0-.141-.037-.415h.037s-.713-7.76-.722-17.509c0-11.05.934-24.523 4.796-32.147 2.223-4.389 2.965-7.881 2.903-10.636.097-2.423-.6-4.812-1.987-6.802a5.392 5.392 0 0 0-2.285-1.809l-.08-.046h-.04a5.683 5.683 0 0 0-2.1-.414h-8.341a5.57 5.57 0 0 1-2.754-.726l-3.265-1.85c-1.087-2.377-1.244-5.322-1.012-8.085 0-.22.041-.44.062-.655l.237-.25c.182-.194.352-.414.518-.6a4.625 4.625 0 0 1-.037.489c-.042.261-.112.415-.224.448 1.783-.233 3.774-.585 4.87-1.962.045-.054.087-.112.128-.17a8.89 8.89 0 0 0 .8-1.66 4.82 4.82 0 0 1 .61-1.111c.274-.357.631-.647.925-.987l.05-.059c1.05-1.244 1.108-3.028 1.12-4.654.021-3.949-.095-8.296-2.737-11.257-2.195-2.464-5.696-3.398-9.018-3.506-3.323-.107-6.637.49-9.956.507-2.256 0-4.977-.038-6.222 1.829-.61.917-.684 2.115-1.348 2.995-.381.506-.966.941-1 1.572-.004.29.07.577.216.83v.028c.805 1.585 2.514 2.572 4.298 2.883-.302.363-.579.746-.83 1.145a10.901 10.901 0 0 0-1.66 5.807c0 .241 0 .478.026.714a10.963 10.963 0 0 0 3.476 7.305c-.033.232-.067.464-.104.692l.075.067c.235.213.48.415.734.605l.091.07v.416c0 .24 0 .485-.025.721-.025.237 0 .382-.025.573l-.054-.046-4.052-3.385-6.517-6.03s-16.293-11.86-17.11-6.223a4.06 4.06 0 0 0 .775 2.813c2.99 4.562 13.274 8.445 13.274 8.445s6.13 6.483 10.233 13.473c-.145.079-.29.153-.444.224-3.65 1.696-8.976.979-8.976.979-6.152.958-6.707 7.698-6.674 10.424V97.222l-8.164-19.168-.024-.058a4.036 4.036 0 0 0-3.053-2.398c-5.46-.917-19.102-2.829-17.961 1.199zm34.175 186.247c.12-.028.24-.05.361-.066l-.037.058-.324.008z"/>
        <path fill="#ACA9C9" fill-rule="nonzero" d="M369.176 259.124s7.732 9.72 9.52 9.52c1.788-.2 5.948 3.766 3.571 4.978-2.377 1.21-16.061 1.982-22.814-3.174v-7.769l9.723-3.555zM330.106 259.717s-4.563 8.13-7.732 9.126c-3.17.996-5.949 4.563-1.784 5.554 4.165.992 19.04-1.19 20.425-3.571V260.31l-10.91-.594z"/>
        <path fill="#618FD8" fill-rule="nonzero" d="M324.377 179.847l3.94 28.115v13.07c-.011 1.984.228 3.96.714 5.883 1.286 4.948.228 22.212-.369 30.405-.195 2.671-.344 4.38-.344 4.38 2.576-1.19 13.485 2.576 13.485 2.576l1.103-3.754.88-2.986c2.38-1.784.415-33.712 0-41.066-.27-5.023 1.97-21.309 3.405-31.069.415-2.758.751-4.978.954-6.313l.2-1.29c.437.356.8.794 1.07 1.29.341.586.634 1.2.875 1.833 3.99 10.084 5.807 38.913 5.807 41.48v27.112a28.588 28.588 0 0 0 1.091 7.91 41.48 41.48 0 0 1 1.074 5.712c.283 2.153.415 3.887.415 3.887.2-1.19 12.494-6.546 12.494-6.546v-45.213s.593-17.837 2.381-35.5a63.332 63.332 0 0 0-2.281-23.884 59.017 59.017 0 0 0-1.415-4.251c-.726-1.93-1.244-2.995-1.244-2.995H328.11c-.68.128-1.244 1.497-1.754 3.575-.332 1.394-.622 3.103-.876 4.978-.75 5.521-1.182 12.394-1.39 16.368a33.126 33.126 0 0 0 .287 6.293z"/>
        <g fill="#000" fill-rule="nonzero" opacity=".1">
            <path d="M370.458 260.605v-45.214s.593-17.836 2.38-35.499c1.789-17.662-4.977-31.135-4.977-31.135h.792s6.74 13.485 4.978 31.135c-1.763 17.65-2.381 35.5-2.381 35.5v45.213s-12.295 5.355-12.494 6.546c0 0 0-.266-.062-.722 2.68-1.863 11.764-5.824 11.764-5.824zM329.508 261.578c-.374.01-.744.1-1.09.27v-.24a5.877 5.877 0 0 1 1.09-.03zM343.093 257.635c2.381-1.784.415-33.711 0-41.066-.415-7.354 4.563-38.668 4.563-38.668.26.202.49.44.684.706-.73 4.679-4.811 31.28-4.45 37.962.414 7.338 2.38 39.266 0 41.066l-1.983 6.74-.722-.24 1.908-6.5z"/>
        </g>
        <path fill="#F7C4A7" fill-rule="nonzero" d="M332.482 99.682l-4.148 14.675s-4.363 4.148-7.93 0c-3.568-4.148-5.767-15.269-5.982-17.65-.216-2.38-3.373-14.675-4.563-14.675-1.19 0-13.087.792-14.477-4.148-1.111-3.974 12.17-2.074 17.488-1.183a3.94 3.94 0 0 1 2.975 2.365L324 98.54s4.318-5.007 8.482 1.14zM359.254 65.572s-5.156 14.477 1.39 19.633c6.545 5.156-23.408 6.546-23.408 6.546l4.065-3.866s2.875-11.403.892-20.923l17.06-1.39z"/>
        <path fill="#000" fill-rule="nonzero" d="M352.907 85.205s5.256-1.29 5.256-2.676l4.658 2.676h11.702s8.528 4.758 1.39 19.04c-7.14 14.281-3.966 49.361-3.966 49.361s-25.382-4.563-46.404 2.381c0 0 3.173-15.667 1.982-24.59-1.19-8.922 1.983-21.416 1.983-21.416l1.784-7.537s-.1-7.051-7.438-3.472c0 0-1.09-10.212 6.447-11.403 0 0 8.71 1.19 11.303-3.173 0 .017 5.753 3.39 11.303.809z" opacity=".1"/>
        <path fill="#940016" fill-rule="nonzero" d="M352.907 84.81s5.256-1.29 5.256-2.675l3.414 1.962c.816.468 1.74.714 2.68.714h8.183a5.392 5.392 0 0 1 4.385 2.232c1.879 2.642 3.563 7.852-.913 16.807-7.138 14.278-3.965 49.362-3.965 49.362s-25.382-4.563-46.404 2.381c0 0 3.173-15.667 1.982-24.59-1.19-8.922 1.983-21.387 1.983-21.387l1.784-7.537s-.1-7.051-7.438-3.472c0 0-1.061-9.93 6.135-11.349.2-.044.406-.058.61-.041 1.54.162 8.711.68 11.01-3.207-.005.004 5.748 3.377 11.298.8z"/>
        <path fill="#000" fill-rule="nonzero" d="M372.938 102.855s-6.346 3.965-16.658 0c0 0-11.304-4.148-14.875-12.295-3.572-8.147 18.044 1.39 18.044 1.39s4.563 0 5.948-.992c1.386-.991 11.109 7.533 7.541 11.897z" opacity=".1"/>
        <path fill="#F7C4A7" fill-rule="nonzero" d="M372.938 102.063s-6.346 3.965-16.658 0c0 0-11.304-4.148-14.875-12.295-3.572-8.147-11.897-17.07-11.897-17.07s-14.476-5.554-13.688-11.104c.788-5.55 16.658 6.148 16.658 6.148l6.347 5.948 20.624 17.45s4.563 0 5.948-.99c1.386-.992 11.109 7.549 7.541 11.913z"/>
        <path fill="#000" fill-rule="nonzero" d="M342.002 67.555l17.053-1.39a39.145 39.145 0 0 0-1.78 8.077c-4.124 4.276-10.914 4.46-15.265.415a19.384 19.384 0 0 0-.008-7.102z" opacity=".1"/>
        <circle cx="349.639" cy="66.07" r="10.905" fill="#F7C4A7" fill-rule="nonzero"/>
        <path fill="#000" fill-rule="nonzero" d="M355.624 68.439c-.638-1.054.66-2.427.233-3.58-.394-1.062-1.962-1.245-2.49-2.236-.414-.8 0-1.784-.165-2.667-.237-1.14-1.464-1.85-2.63-1.908-1.166-.058-2.29.377-3.397.75-1.805.61-3.704 1.079-5.596.863-1.891-.215-3.779-1.244-4.62-2.932a1.66 1.66 0 0 1-.212-.805c.033-.622.605-1.05.974-1.547.647-.867.722-2.05 1.311-2.954 1.203-1.841 3.845-1.796 6.044-1.804 3.235 0 6.454-.606 9.69-.498 3.235.108 6.637 1.025 8.781 3.455 2.572 2.925 2.688 7.206 2.667 11.105 0 1.605-.066 3.351-1.09 4.592-.3.36-.664.66-.95 1.028-.623.83-.789 1.892-1.374 2.734-1.037 1.497-3.06 1.862-4.865 2.103.53-.07.091-3.625 0-3.953-.349-1.634-.726-1.601-2.31-1.746z" opacity=".1"/>
        <path fill="#281C1C" fill-rule="nonzero" d="M355.624 68.045c-.638-1.054.66-2.427.233-3.58-.394-1.062-1.962-1.245-2.49-2.236-.414-.8 0-1.784-.165-2.667-.237-1.14-1.464-1.85-2.63-1.908-1.166-.058-2.29.377-3.397.75-1.805.61-3.704 1.079-5.596.863-1.891-.215-3.779-1.244-4.62-2.932a1.66 1.66 0 0 1-.212-.805c.033-.622.605-1.05.974-1.547.647-.867.722-2.05 1.311-2.954 1.203-1.841 3.845-1.796 6.044-1.804 3.235 0 6.454-.606 9.69-.498 3.235.108 6.637 1.025 8.781 3.455 2.572 2.925 2.688 7.206 2.667 11.105 0 1.605-.066 3.351-1.09 4.592-.3.36-.664.66-.95 1.028-.623.83-.789 1.892-1.374 2.734-1.037 1.497-3.06 1.862-4.865 2.103.53-.07.091-3.625 0-3.953-.349-1.655-.726-1.605-2.31-1.746z"/>
        <path fill="#000" fill-rule="nonzero" d="M372.839 103.353s-5.355-13.884-9.52-14.278c-4.165-.394 7.931 0 7.931 0l3.966 7.139-2.377 7.139z" opacity=".1"/>
        <path fill="#940016" fill-rule="nonzero" d="M373.237 103.353s-5.355-13.884-9.52-14.278c-4.164-.394 7.931 0 7.931 0l3.966 7.139-2.377 7.139z"/>
        <path fill="#618FD8" fill-rule="nonzero" d="M358.246 263.169c.282 2.152.415 3.886.415 3.886.199-1.19 12.494-6.545 12.494-6.545v-3.223a5.467 5.467 0 0 0-.938.045c-2.385.32-4.596 1.477-6.637 2.713a60.532 60.532 0 0 1-5.334 3.124z"/>
        <path fill="#000" fill-rule="nonzero" d="M358.246 263.169c.282 2.152.415 3.886.415 3.886.199-1.19 12.494-6.545 12.494-6.545v-3.223a5.467 5.467 0 0 0-.938.045c-2.385.32-4.596 1.477-6.637 2.713a60.532 60.532 0 0 1-5.334 3.124z" opacity=".3"/>
        <path fill="#618FD8" fill-rule="nonzero" d="M328.318 261.7c2.576-1.19 13.485 2.576 13.485 2.576l1.103-3.754a59.082 59.082 0 0 1-5.653-1.44 18.807 18.807 0 0 1-2.539-.937 17.007 17.007 0 0 0-1.692-.788c-1.423-.49-2.904-.282-4.364-.037-.19 2.671-.34 4.38-.34 4.38z"/>
        <path fill="#000" fill-rule="nonzero" d="M328.318 261.7c2.576-1.19 13.485 2.576 13.485 2.576l1.103-3.754a59.082 59.082 0 0 1-5.653-1.44 18.807 18.807 0 0 1-2.539-.937 17.007 17.007 0 0 0-1.692-.788c-1.423-.49-2.904-.282-4.364-.037-.19 2.671-.34 4.38-.34 4.38z" opacity=".3"/>
        <path fill="#FFF" fill-rule="nonzero" d="M382.16 273.004c.335-.144.586-.435.68-.789a1.166 1.166 0 0 1-.68 1.382c-2.382 1.19-16.062 1.982-22.815-3.174v-.593c6.753 5.156 20.433 4.364 22.814 3.174zM320.486 273.796c4.148.991 19.04-1.19 20.425-3.572v.594c-1.39 2.38-16.26 4.562-20.425 3.571-1.7-.415-2.244-1.244-2.074-2.153.133.672.755 1.228 2.074 1.56z" opacity=".4"/>
        <path fill="#000" fill-rule="nonzero" d="M344.678 129.332s-4.364-1.39-5.555 0c-1.19 1.39-11.365 4.646-11.365 4.646" opacity=".1"/>
        <path fill="#8ED16F" fill-rule="nonzero" d="M316.521 74.843h-21.217v-1h21.217z"/>
        <path fill="#8ED16F" fill-rule="nonzero" d="M316.521 75.291h-21.217v-1h21.217z"/>
        <path fill="#000" fill-rule="nonzero" d="M316.521 75.291h-21.217v-1h21.217z" opacity=".1"/>
        <path fill="#8ED16F" fill-rule="nonzero" d="M316.521 75.74h-21.217v-1h21.217z"/>
        <path fill="#8ED16F" fill-rule="nonzero" d="M316.521 76.183h-21.217v-1h21.217z"/>
        <path fill="#000" fill-rule="nonzero" d="M316.521 76.183h-21.217v-1h21.217z" opacity=".1"/>
        <path fill="#8ED16F" fill-rule="nonzero" d="M316.521 76.631h-21.217v-1h21.217z"/>
        <path fill="#8ED16F" fill-rule="nonzero" d="M316.521 77.075h-21.217v-1h21.217z"/>
        <path fill="#000" fill-rule="nonzero" d="M316.521 77.075h-21.217v-1h21.217z" opacity=".1"/>
        <path fill="#8ED16F" fill-rule="nonzero" d="M316.521 77.523h-21.217v-1h21.217z"/>
        <path fill="#8ED16F" fill-rule="nonzero" d="M316.521 77.966h-21.217v-1h21.217z"/>
        <path fill="#000" fill-rule="nonzero" d="M316.521 77.966h-21.217v-1h21.217z" opacity=".1"/>
        <path fill="#8ED16F" fill-rule="nonzero" d="M316.521 71.276h-21.217v-1h21.217zM326.623 74.237L310.311 60.67l.639-.77 16.313 13.568zM311.751 67.1L295.44 53.531l.639-.769 16.313 13.567z"/>
        <path fill="#8ED16F" fill-rule="nonzero" d="M316.521 71.72h-21.217v-1h21.217z"/>
        <path fill="#000" fill-rule="nonzero" d="M316.521 71.72h-21.217v-1h21.217z" opacity=".1"/>
        <path fill="#8ED16F" fill-rule="nonzero" d="M316.521 72.172h-21.217v-1h21.217z"/>
        <path fill="#8ED16F" fill-rule="nonzero" d="M316.521 72.615h-21.217v-1h21.217z"/>
        <path fill="#000" fill-rule="nonzero" d="M316.521 72.615h-21.217v-1h21.217z" opacity=".1"/>
        <path fill="#8ED16F" fill-rule="nonzero" d="M316.521 73.059h-21.217v-1h21.217z"/>
        <path fill="#8ED16F" fill-rule="nonzero" d="M316.521 73.508h-21.217v-1h21.217z"/>
        <path fill="#000" fill-rule="nonzero" d="M316.521 73.508h-21.217v-1h21.217z" opacity=".1"/>
        <path fill="#8ED16F" fill-rule="nonzero" d="M316.521 73.952h-21.217v-1h21.217z"/>
        <path fill="#8ED16F" fill-rule="nonzero" d="M316.521 74.4h-21.217v-1h21.217z"/>
        <path fill="#000" fill-rule="nonzero" d="M316.521 74.4h-21.217v-1h21.217z" opacity=".1"/>
        <path fill="#8ED16F" fill-rule="nonzero" d="M300.216 93.205l-7.602-1.412 2.751-14.817 7.602 1.412z"/>
        <ellipse cx="297.897" cy="85.138" fill="#8ED16F" fill-rule="nonzero" rx="3.173" ry="1.585" transform="rotate(-79.48 297.897 85.138)"/>
        <ellipse cx="297.897" cy="85.138" fill="#000" fill-rule="nonzero" opacity=".1" rx="3.173" ry="1.585" transform="rotate(-79.48 297.897 85.138)"/>
        <path fill="#8ED16F" fill-rule="nonzero" d="M301.517 124.478l-7.602-1.411 2.752-14.817 7.602 1.412z"/>
        <ellipse cx="299.193" cy="116.408" fill="#8ED16F" fill-rule="nonzero" rx="3.173" ry="1.585" transform="rotate(-79.48 299.193 116.408)"/>
        <ellipse cx="299.193" cy="116.408" fill="#000" fill-rule="nonzero" opacity=".1" rx="3.173" ry="1.585" transform="rotate(-79.48 299.193 116.408)"/>
        <path fill="#8ED16F" fill-rule="nonzero" d="M262.739 52.997l3.68-6.8 13.254 7.172-3.68 6.8z"/>
        <ellipse cx="272.497" cy="53.475" fill="#8ED16F" fill-rule="nonzero" rx="1.588" ry="3.181" transform="rotate(-61.39 272.497 53.475)"/>
        <ellipse cx="272.497" cy="53.475" fill="#000" fill-rule="nonzero" opacity=".1" rx="1.588" ry="3.181" transform="rotate(-61.39 272.497 53.475)"/>
        <path fill="#8ED16F" fill-rule="nonzero" d="M233.637 187.196l3.68-6.8 13.254 7.173-3.68 6.8z"/>
        <ellipse cx="242.062" cy="187.473" fill="#8ED16F" fill-rule="nonzero" rx="1.585" ry="3.173" transform="rotate(-61.58 242.062 187.473)"/>
        <ellipse cx="242.062" cy="187.473" fill="#000" fill-rule="nonzero" opacity=".1" rx="1.585" ry="3.173" transform="rotate(-61.58 242.062 187.473)"/>
        <path fill="#8ED16F" fill-rule="nonzero" d="M215.832 76.45l3.68-6.8 13.254 7.173-3.68 6.8z"/>
        <ellipse cx="224.252" cy="76.721" fill="#8ED16F" fill-rule="nonzero" rx="1.585" ry="3.173" transform="rotate(-61.58 224.252 76.721)"/>
        <ellipse cx="224.252" cy="76.721" fill="#000" fill-rule="nonzero" opacity=".1" rx="1.585" ry="3.173" transform="rotate(-61.58 224.252 76.721)"/>
        <path fill="#8ED16F" fill-rule="nonzero" d="M238.149 52.996l3.68-6.8 13.253 7.172-3.68 6.8z"/>
        <ellipse cx="246.569" cy="53.266" fill="#8ED16F" fill-rule="nonzero" rx="1.585" ry="3.173" transform="rotate(-61.58 246.569 53.266)"/>
        <ellipse cx="246.569" cy="53.266" fill="#000" fill-rule="nonzero" opacity=".1" rx="1.585" ry="3.173" transform="rotate(-61.58 246.569 53.266)"/>
        <path fill="#8ED16F" fill-rule="nonzero" d="M256.423 74.71l7.686-.84 1.638 14.981-7.686.84z"/>
        <ellipse cx="260.983" cy="81.794" fill="#8ED16F" fill-rule="nonzero" rx="1.585" ry="3.173" transform="rotate(-6.24 260.983 81.794)"/>
        <ellipse cx="260.983" cy="81.794" fill="#000" fill-rule="nonzero" opacity=".1" rx="1.585" ry="3.173" transform="rotate(-6.24 260.983 81.794)"/>
        <path fill="#8ED16F" fill-rule="nonzero" d="M309.12 156.742l7.686-.84 1.638 14.98-7.686.84z"/>
        <ellipse cx="313.684" cy="163.825" fill="#8ED16F" fill-rule="nonzero" rx="1.585" ry="3.173" transform="rotate(-6.24 313.684 163.825)"/>
        <ellipse cx="313.684" cy="163.825" fill="#000" fill-rule="nonzero" opacity=".1" rx="1.585" ry="3.173" transform="rotate(-6.24 313.684 163.825)"/>
        <path fill="#8ED16F" fill-rule="nonzero" d="M230.332 112.494l3.68-6.8 13.254 7.172-3.68 6.8z"/>
        <ellipse cx="238.75" cy="112.77" fill="#8ED16F" fill-rule="nonzero" rx="1.585" ry="3.173" transform="rotate(-61.58 238.75 112.77)"/>
        <ellipse cx="238.75" cy="112.77" fill="#000" fill-rule="nonzero" opacity=".1" rx="1.585" ry="3.173" transform="rotate(-61.58 238.75 112.77)"/>
        <path fill="#8ED16F" fill-rule="nonzero" d="M196.887 102.941l3.68-6.8 13.254 7.172-3.68 6.8z"/>
        <ellipse cx="206.406" cy="103.657" fill="#8ED16F" fill-rule="nonzero" rx="1.588" ry="3.181" transform="rotate(-61.39 206.406 103.657)"/>
        <ellipse cx="206.406" cy="103.657" fill="#000" fill-rule="nonzero" opacity=".1" rx="1.588" ry="3.181" transform="rotate(-61.39 206.406 103.657)"/>
        <path fill="#8ED16F" fill-rule="nonzero" d="M186.175 263.764l3.68-6.8 13.254 7.172-3.68 6.8z"/>
        <ellipse cx="194.595" cy="264.037" fill="#8ED16F" fill-rule="nonzero" rx="1.585" ry="3.173" transform="rotate(-61.58 194.595 264.037)"/>
        <ellipse cx="194.595" cy="264.037" fill="#000" fill-rule="nonzero" opacity=".1" rx="1.585" ry="3.173" transform="rotate(-61.58 194.595 264.037)"/>
        <path fill="#8ED16F" fill-rule="nonzero" d="M178.802 267.187l1.41-7.602 14.818 2.748-1.41 7.603z"/>
        <path fill="#000" fill-rule="nonzero" d="M178.802 267.187l1.41-7.602 14.818 2.748-1.41 7.603z" opacity=".05"/>
        <ellipse cx="186.9" cy="264.857" fill="#8ED16F" fill-rule="nonzero" rx="1.585" ry="3.173" transform="rotate(-79.49 186.9 264.857)"/>
        <ellipse cx="186.9" cy="264.857" fill="#000" fill-rule="nonzero" opacity=".1" rx="1.585" ry="3.173" transform="rotate(-79.49 186.9 264.857)"/>
        <path fill="#8ED16F" fill-rule="nonzero" d="M180.19 271.746l1.41-7.602 14.818 2.749-1.41 7.602z"/>
        <ellipse cx="188.285" cy="269.416" fill="#8ED16F" fill-rule="nonzero" rx="1.585" ry="3.173" transform="rotate(-79.49 188.285 269.416)"/>
        <ellipse cx="188.285" cy="269.416" fill="#000" fill-rule="nonzero" opacity=".1" rx="1.585" ry="3.173" transform="rotate(-79.49 188.285 269.416)"/>
        <path fill="#8ED16F" fill-rule="nonzero" d="M201.809 283.309l3.68-6.8 13.254 7.172-3.68 6.8z"/>
        <ellipse cx="210.233" cy="283.582" fill="#8ED16F" fill-rule="nonzero" rx="1.585" ry="3.173" transform="rotate(-61.58 210.233 283.582)"/>
        <ellipse cx="210.233" cy="283.582" fill="#000" fill-rule="nonzero" opacity=".1" rx="1.585" ry="3.173" transform="rotate(-61.58 210.233 283.582)"/>
        <path fill="#8ED16F" fill-rule="nonzero" d="M194.438 286.727l1.41-7.602 14.818 2.749-1.41 7.602z"/>
        <path fill="#000" fill-rule="nonzero" d="M194.438 286.727l1.41-7.602 14.818 2.749-1.41 7.602z" opacity=".05"/>
        <ellipse cx="202.533" cy="284.397" fill="#8ED16F" fill-rule="nonzero" rx="1.585" ry="3.173" transform="rotate(-79.49 202.533 284.397)"/>
        <ellipse cx="202.533" cy="284.397" fill="#000" fill-rule="nonzero" opacity=".1" rx="1.585" ry="3.173" transform="rotate(-79.49 202.533 284.397)"/>
        <path fill="#8ED16F" fill-rule="nonzero" d="M195.826 291.29l1.41-7.602 14.817 2.749-1.41 7.602z"/>
        <ellipse cx="203.924" cy="288.96" fill="#8ED16F" fill-rule="nonzero" rx="1.585" ry="3.173" transform="rotate(-79.49 203.924 288.96)"/>
        <ellipse cx="203.924" cy="288.96" fill="#000" fill-rule="nonzero" opacity=".1" rx="1.585" ry="3.173" transform="rotate(-79.49 203.924 288.96)"/>
        <path fill="#8ED16F" fill-rule="nonzero" d="M225.265 270.713l3.68-6.8 13.254 7.172-3.68 6.8z"/>
        <ellipse cx="233.681" cy="270.984" fill="#8ED16F" fill-rule="nonzero" rx="1.585" ry="3.173" transform="rotate(-61.58 233.681 270.984)"/>
        <ellipse cx="233.681" cy="270.984" fill="#000" fill-rule="nonzero" opacity=".1" rx="1.585" ry="3.173" transform="rotate(-61.58 233.681 270.984)"/>
        <path fill="#8ED16F" fill-rule="nonzero" d="M217.892 274.134l1.41-7.602 14.818 2.749-1.41 7.602z"/>
        <path fill="#000" fill-rule="nonzero" d="M217.892 274.134l1.41-7.602 14.818 2.749-1.41 7.602z" opacity=".05"/>
        <ellipse cx="225.987" cy="271.803" fill="#8ED16F" fill-rule="nonzero" rx="1.585" ry="3.173" transform="rotate(-79.49 225.987 271.803)"/>
        <ellipse cx="225.987" cy="271.803" fill="#000" fill-rule="nonzero" opacity=".1" rx="1.585" ry="3.173" transform="rotate(-79.49 225.987 271.803)"/>
        <path fill="#8ED16F" fill-rule="nonzero" d="M219.28 278.697l1.41-7.603 14.817 2.75-1.41 7.601z"/>
        <ellipse cx="227.379" cy="276.367" fill="#8ED16F" fill-rule="nonzero" rx="1.585" ry="3.173" transform="rotate(-79.49 227.379 276.367)"/>
        <ellipse cx="227.379" cy="276.367" fill="#000" fill-rule="nonzero" opacity=".1" rx="1.585" ry="3.173" transform="rotate(-79.49 227.379 276.367)"/>
    </g>
</svg>
