<svg xmlns="http://www.w3.org/2000/svg" width="390" height="286" viewBox="0 0 390 286">
    <defs>
        <linearGradient id="a" x1="50%" x2="50%" y1="100%" y2="0%">
            <stop offset="0%" stop-color="gray" stop-opacity=".25"/>
            <stop offset="54%" stop-color="gray" stop-opacity=".12"/>
            <stop offset="100%" stop-color="gray" stop-opacity=".1"/>
        </linearGradient>
        <linearGradient id="b" x1="50.016%" x2="50.016%" y1="99.994%" y2=".007%">
            <stop offset="0%" stop-color="gray" stop-opacity=".25"/>
            <stop offset="54%" stop-color="gray" stop-opacity=".12"/>
            <stop offset="100%" stop-color="gray" stop-opacity=".1"/>
        </linearGradient>
    </defs>
    <g fill="none" fill-rule="evenodd">
        <path fill="#940016" fill-rule="nonzero" d="M51.488 144.997c-5.117 1.546-9.906 5.289-11.184 10.482-1.462 5.967 1.909 11.983 2.396 18.11 1.574 20.076-26.986 34.24-22.912 53.96 1.618 7.842 8.157 13.61 14.6 18.375 10.321 7.61 21.773 14.332 34.456 16.23 19.249 2.883 39.36-5.593 58.07-.236 15.091 4.322 26.64 16.988 41.626 21.661 11.408 3.56 23.7 2.157 35.55.715 6.392-.775 13.086-1.67 18.243-5.504 9.587-7.138 10.19-21.234 16.609-31.336 9.914-15.578 31.652-18.638 49.878-15.61 18.227 3.028 35.926 10.481 54.392 9.874 3.946-.132 7.989-.667 11.432-2.604 4.186-2.353 7.014-6.5 9.515-10.602a171.54 171.54 0 0 0 24.873-85.236c.108-5.173-.076-10.57-2.509-15.135-3.075-5.776-9.223-9.231-15.342-11.556-14.696-5.592-30.929-6.507-45.329-12.814-13.888-6.084-25.137-16.753-37.232-25.896a198.319 198.319 0 0 0-81.681-36.377c-6.947-1.342-14.157-2.3-21.059-.751-7.953 1.786-14.807 6.743-20.97 12.08-16.398 14.195-29.54 31.71-44.65 47.269a254.2 254.2 0 0 1-33.92 29.251c-5.593 4.03-11.537 8.816-17.768 11.796-5.704 2.724-11.052 2.037-17.084 3.854z" opacity=".2"/>
        <path stroke="#535461" stroke-width="2" d="M124.578 18.83s-15.439 20.503-4.394 44.402c11.044 23.898-19.25 62.296-19.25 62.296"/>
        <path fill="#940016" fill-rule="nonzero" d="M131.5 11.156c-1.226 5.277-7.094 8.42-7.094 8.42s-3.875-5.412-2.648-10.688c1.226-5.277 4.394-9.048 7.094-8.42 2.7.626 3.874 5.412 2.648 10.688z"/>
        <ellipse cx="126.434" cy="9.975" fill="#940016" fill-rule="nonzero" rx="3.08" ry="1.154" transform="rotate(-76.9 126.434 9.975)"/>
        <ellipse cx="126.434" cy="9.975" fill="#000" fill-rule="nonzero" opacity=".3" rx="3.08" ry="1.154" transform="rotate(-76.9 126.434 9.975)"/>
        <path fill="#940016" fill-rule="nonzero" d="M128.832 34.6c-5.097 1.837-10.925-1.382-10.925-1.382s2.437-6.196 7.538-8.03c5.1-1.833 9.986-1.198 10.924 1.383.939 2.58-2.44 6.191-7.537 8.029z"/>
        <ellipse cx="127.008" cy="29.446" fill="#940016" fill-rule="nonzero" rx="3.078" ry="1.154" transform="rotate(-19.885 127.008 29.446)"/>
        <ellipse cx="127.008" cy="29.446" fill="#000" fill-rule="nonzero" opacity=".3" rx="3.078" ry="1.154" transform="rotate(-19.885 127.008 29.446)"/>
        <path fill="#940016" fill-rule="nonzero" d="M127.645 53.281c-5.096 1.838-10.924-1.382-10.924-1.382s2.436-6.195 7.537-8.028c5.101-1.834 9.986-1.199 10.925 1.382.939 2.58-2.44 6.195-7.538 8.028z"/>
        <ellipse cx="125.882" cy="48.409" fill="#940016" fill-rule="nonzero" rx="3.08" ry="1.154" transform="rotate(-19.8 125.882 48.41)"/>
        <ellipse cx="125.882" cy="48.409" fill="#000" fill-rule="nonzero" opacity=".3" rx="3.08" ry="1.154" transform="rotate(-19.8 125.882 48.41)"/>
        <path fill="#940016" fill-rule="nonzero" d="M133.601 75.199c-5.097 1.837-10.925-1.382-10.925-1.382s2.437-6.196 7.538-8.029c5.1-1.833 9.986-1.198 10.925 1.382.938 2.58-2.441 6.203-7.538 8.029z"/>
        <ellipse cx="131.839" cy="70.337" fill="#940016" fill-rule="nonzero" rx="3.08" ry="1.154" transform="rotate(-19.8 131.839 70.337)"/>
        <ellipse cx="131.839" cy="70.337" fill="#000" fill-rule="nonzero" opacity=".3" rx="3.08" ry="1.154" transform="rotate(-19.8 131.839 70.337)"/>
        <path fill="#940016" fill-rule="nonzero" d="M129.727 95.243c-5.097 1.837-10.925-1.382-10.925-1.382s2.436-6.196 7.537-8.029c5.101-1.833 9.986-1.198 10.925 1.382.939 2.58-2.437 6.195-7.537 8.029z"/>
        <ellipse cx="127.973" cy="90.041" fill="#940016" fill-rule="nonzero" rx="3.078" ry="1.154" transform="rotate(-19.885 127.973 90.04)"/>
        <ellipse cx="127.973" cy="90.041" fill="#000" fill-rule="nonzero" opacity=".3" rx="3.078" ry="1.154" transform="rotate(-19.885 127.973 90.04)"/>
        <path fill="#940016" fill-rule="nonzero" d="M105.82 39.908c3.763 3.899 10.413 3.595 10.413 3.595s.548-6.635-3.215-10.533c-3.763-3.899-8.424-5.504-10.414-3.595-1.989 1.91-.547 6.635 3.216 10.533z"/>
        <ellipse cx="109.562" cy="36.309" fill="#940016" fill-rule="nonzero" rx="1.154" ry="3.08" transform="rotate(-43.99 109.562 36.309)"/>
        <ellipse cx="109.562" cy="36.309" fill="#000" fill-rule="nonzero" opacity=".3" rx="1.154" ry="3.08" transform="rotate(-43.99 109.562 36.309)"/>
        <path fill="#940016" fill-rule="nonzero" d="M103.659 101.818c3.763 3.898 10.413 3.595 10.413 3.595s.548-6.635-3.215-10.534c-3.763-3.898-8.424-5.504-10.413-3.595-1.99 1.91-.548 6.635 3.215 10.534z"/>
        <ellipse cx="107.396" cy="98.224" fill="#940016" fill-rule="nonzero" rx="1.154" ry="3.08" transform="rotate(-43.99 107.396 98.224)"/>
        <ellipse cx="107.396" cy="98.224" fill="#000" fill-rule="nonzero" opacity=".3" rx="1.154" ry="3.08" transform="rotate(-43.99 107.396 98.224)"/>
        <path fill="#940016" fill-rule="nonzero" d="M108.648 61.79c4.85 2.42 11.013-.096 11.013-.096s-1.698-6.435-6.543-8.856c-4.845-2.42-9.779-2.397-11.013.096-1.234 2.492 1.694 6.435 6.543 8.856z"/>
        <ellipse cx="110.961" cy="57.137" fill="#940016" fill-rule="nonzero" rx="1.154" ry="3.08" transform="rotate(-63.48 110.96 57.137)"/>
        <ellipse cx="110.961" cy="57.137" fill="#000" fill-rule="nonzero" opacity=".3" rx="1.154" ry="3.08" transform="rotate(-63.48 110.96 57.137)"/>
        <path fill="#940016" fill-rule="nonzero" d="M110.681 83.587c4.85 2.42 11.013-.096 11.013-.096s-1.698-6.435-6.543-8.855c-4.845-2.421-9.778-2.397-11.013.095-1.234 2.493 1.714 6.46 6.543 8.856z"/>
        <ellipse cx="112.996" cy="78.937" fill="#940016" fill-rule="nonzero" rx="1.154" ry="3.08" transform="rotate(-63.48 112.996 78.937)"/>
        <ellipse cx="112.996" cy="78.937" fill="#000" fill-rule="nonzero" opacity=".3" rx="1.154" ry="3.08" transform="rotate(-63.48 112.996 78.937)"/>
        <path fill="#940016" fill-rule="nonzero" d="M50.222 62.9S78.418 91.097 62.5 132.938c-15.918 41.842 27.285 111.42 27.285 111.42s-.463-.068-1.322-.22c-57.919-10.221-86.678-76.457-54.484-125.66C45.936 100.184 55.782 78.726 50.222 62.9z"/>
        <path fill="#940016" fill-rule="nonzero" d="M0 176.945s32.175-5.125 35.107 23.71c2.932 28.836 61.87 32.834 61.87 32.834s-.4.264-1.107.735C47.206 266.18.687 254.572 7.697 212.155c2.613-15.774 2.397-31.612-7.697-35.21z"/>
        <path fill="#FFF" fill-rule="nonzero" d="M0 176.945s32.175-5.125 35.107 23.71c2.932 28.836 61.87 32.834 61.87 32.834s-.4.264-1.107.735C47.206 266.18.687 254.572 7.697 212.155c2.613-15.774 2.397-31.612-7.697-35.21z" opacity=".3"/>
        <ellipse cx="42.077" cy="153.505" fill="#940016" fill-rule="nonzero" rx="8.848" ry="23.084"/>
        <ellipse cx="42.077" cy="153.505" fill="#000" fill-rule="nonzero" opacity=".3" rx="8.848" ry="23.084"/>
        <ellipse cx="31.883" cy="227.955" fill="#940016" fill-rule="nonzero" rx="5.964" ry="13.273" transform="rotate(-45 31.883 227.955)"/>
        <ellipse cx="31.883" cy="227.955" fill="#000" fill-rule="nonzero" opacity=".3" rx="5.964" ry="13.273" transform="rotate(-45 31.883 227.955)"/>
        <path fill="url(#a)" fill-rule="nonzero" d="M289.152 106.435H79.709a9.543 9.543 0 0 0-9.543 9.543v122.76a9.543 9.543 0 0 0 9.543 9.543h209.443a9.543 9.543 0 0 0 9.542-9.543v-122.76a9.543 9.543 0 0 0-9.542-9.543z"/>
        <rect width="223.148" height="138.506" x="72.854" y="108.105" fill="#940016" fill-rule="nonzero" rx="24.81"/>
        <path fill="#940016" fill-rule="nonzero" d="M72.854 132.343h223.148v25.392H72.854z"/>
        <path fill="#000" fill-rule="nonzero" d="M72.854 132.343h223.148v25.392H72.854z" opacity=".3"/>
        <path fill="#D6D6E3" fill-rule="nonzero" d="M94.017 176.589h180.827V188.9H94.017z"/>
        <circle cx="109.02" cy="219.681" r="17.699" fill="#940016" fill-rule="nonzero"/>
        <circle cx="109.02" cy="219.681" r="17.699" fill="#000" fill-rule="nonzero" opacity=".3"/>
        <path fill="url(#b)" fill-rule="nonzero" d="M283.316 73.953c.285.903.892 1.67 1.705 2.157 3.671 2.424 11.652 1.909 12.61 1.909.204 0 .472.363.768.975 1.41 2.907 3.595 11.432 3.742 13.349.196 2.32 2.353 13.181 5.884 17.228.108.124.216.24.32.347 3.463 3.48 7.525-.347 7.525-.347l.583-2.025c-.163.798-.347 1.73-.53 2.772a79.407 79.407 0 0 0-.272 1.65 63.228 63.228 0 0 0-.827 9.734 35.315 35.315 0 0 0 .151 3.547c.032.327.068.65.112.966.18 1.437.269 2.883.264 4.33-.032 8.596-2.225 19.29-2.225 19.29l.084-.029c-.052.268-.084.4-.084.4l.128-.04c-.061.397-.12.803-.176 1.218-.743 5.393-1.17 12.103-1.374 15.978a31.995 31.995 0 0 0 .272 6.12l3.898 27.445v12.782a22.568 22.568 0 0 0 .703 5.744c1.27 4.83.224 21.686-.363 29.683-.164 2.18-.292 3.706-.328 4.146v.132l.112-.044v.14c.166-.072.34-.123.52-.152-1.547 2.396-4.347 6.359-6.5 7.026a6.818 6.818 0 0 0-3.247 2.153l-.056.076-.08.112c-.266.356-.428.779-.467 1.222a1.35 1.35 0 0 1-.072-.236c-.164.89.371 1.706 2.053 2.101.98.187 1.978.268 2.976.24 5.832 0 16.181-1.794 17.324-3.723v-6.655l.187.06v.06l.715.236 1.962-6.583c2.352-1.741.4-32.91 0-40.072-.36-6.527 3.678-32.49 4.393-37.064l-.095-.116.107-.667c.144.105.278.222.4.352.235.278.44.58.611.902.338.572.628 1.17.867 1.79 3.946 9.842 5.724 37.987 5.724 40.511v26.467a27.561 27.561 0 0 0 1.078 7.721c.363 1.321.643 2.663.84 4.019a69.996 69.996 0 0 1 .41 3.111c0 .124.029.244.04.356.013.112 0 .108 0 .164a89.75 89.75 0 0 1 .164 1.725.4.4 0 0 1 .08-.156l.02.252a.54.54 0 0 1 .156-.248c.162-.159.339-.303.527-.43v3.362l-.096-.072v.58c4.067 3.067 10.685 3.994 15.766 3.958 3.296 0 5.964-.4 6.89-.863 1.327-.65.6-2.169-.607-3.331-.934-.903-2.152-1.598-2.923-1.51-1.287.14-5.684-4.841-7.99-7.57l.26-.115.368-.16v-44.13s.591-17.424 2.353-34.656a61.306 61.306 0 0 0-3.016-25.708l-.056-.164.535.084c.567.088.87.14.87.14s0-.136-.035-.4h.036s-.687-7.473-.695-16.86c0-10.64.899-23.615 4.617-30.956 2.141-4.227 2.856-7.59 2.797-10.242a10.713 10.713 0 0 0-1.914-6.55 5.193 5.193 0 0 0-2.2-1.743l-.077-.043h-.04a5.472 5.472 0 0 0-2.02-.4h-8.034c-.93 0-1.843-.24-2.652-.699l-3.143-1.781c-1.047-2.29-1.199-5.125-.975-7.786 0-.211.04-.423.06-.63l.228-.24c.175-.188.34-.4.499-.58a4.454 4.454 0 0 1-.036.472c-.04.251-.108.4-.216.431 1.718-.223 3.635-.563 4.69-1.89.044-.051.084-.107.123-.163a8.56 8.56 0 0 0 .771-1.598c.148-.38.346-.74.588-1.07.263-.344.607-.623.89-.95l.048-.057c1.01-1.198 1.067-2.916 1.079-4.481.02-3.803-.092-7.99-2.637-10.841-2.113-2.373-5.484-3.272-8.683-3.376-3.2-.103-6.391.472-9.587.488-2.173 0-4.793-.036-5.992 1.761-.587.883-.659 2.037-1.298 2.884-.367.488-.93.907-.962 1.514-.005.28.067.556.207.799v.028c.775 1.526 2.42 2.476 4.138 2.776-.29.35-.557.718-.798 1.103a10.497 10.497 0 0 0-1.598 5.592c0 .231 0 .46.024.687a10.557 10.557 0 0 0 3.347 7.034c-.032.224-.064.447-.1.667l.072.064c.226.205.462.4.707.583l.088.068v.4c0 .231 0 .467-.024.694-.024.228 0 .368-.024.552l-.052-.044-3.902-3.26-6.276-5.808s-15.69-11.42-16.477-5.991a3.91 3.91 0 0 0 .747 2.708c2.88 4.394 12.783 8.133 12.783 8.133s5.903 6.243 9.854 12.973c-.14.076-.28.148-.428.216-3.515 1.634-8.644.943-8.644.943-5.923.923-6.459 7.413-6.427 10.038V93.62l-7.86-18.458-.025-.056a3.887 3.887 0 0 0-2.94-2.309c-5.256-.883-18.394-2.724-17.295 1.155zm32.91 179.349c.114-.028.23-.049.347-.064l-.036.056-.311.008z"/>
        <path fill="#ACA9C9" fill-rule="nonzero" d="M355.503 249.527s7.445 9.359 9.167 9.167c1.722-.192 5.728 3.627 3.44 4.793-2.29 1.167-15.467 1.91-21.97-3.055v-7.482l9.363-3.423zM317.88 250.098s-4.394 7.83-7.446 8.788c-3.052.959-5.728 4.394-1.718 5.348 4.01.955 18.335-1.146 19.669-3.439V250.67l-10.506-.57z"/>
        <path fill="#000" fill-rule="nonzero" d="M312.363 173.186l3.795 27.074v12.586a22.56 22.56 0 0 0 .687 5.664c1.238 4.766.22 21.39-.356 29.28a327.678 327.678 0 0 1-.331 4.218c2.48-1.147 12.986 2.48 12.986 2.48l1.062-3.615.847-2.876c2.293-1.717.4-32.462 0-39.545-.26-4.837 1.897-20.519 3.28-29.918.399-2.656.722-4.793.918-6.08l.192-1.241c.42.343.77.765 1.03 1.242.33.564.611 1.155.843 1.765 3.843 9.71 5.592 37.472 5.592 39.944v26.108a27.53 27.53 0 0 0 1.05 7.617 39.944 39.944 0 0 1 1.035 5.5c.272 2.074.4 3.743.4 3.743.192-1.146 12.031-6.303 12.031-6.303V207.29s.571-17.176 2.293-34.184a60.987 60.987 0 0 0-2.197-23 56.831 56.831 0 0 0-1.362-4.094c-.7-1.858-1.198-2.884-1.198-2.884h-39.002c-.655.124-1.198 1.442-1.69 3.443-.32 1.342-.599 2.988-.842 4.793-.723 5.317-1.139 11.936-1.338 15.762a31.9 31.9 0 0 0 .275 6.06z"/>
        <g fill="#000" fill-rule="nonzero" opacity=".1">
            <path d="M356.737 250.953v-43.54s.571-17.175 2.293-34.183c1.721-17.008-4.793-29.982-4.793-29.982h.762s6.491 12.985 4.794 29.982c-1.698 16.996-2.293 34.184-2.293 34.184v43.539s-11.84 5.157-12.031 6.303c0 0 0-.255-.06-.695 2.58-1.793 11.328-5.608 11.328-5.608zM317.304 251.89c-.36.01-.716.101-1.05.27v-.24c.349-.044.7-.054 1.05-.03zM330.386 248.093c2.293-1.718.4-32.463 0-39.545-.4-7.082 4.394-37.236 4.394-37.236.25.194.473.423.659.68-.703 4.505-4.634 30.121-4.286 36.556.4 7.066 2.293 37.811 0 39.545l-1.91 6.49-.695-.23 1.838-6.26z"/>
        </g>
        <path fill="#F7C4A7" fill-rule="nonzero" d="M320.168 95.99l-3.994 14.132s-4.202 3.994-7.638 0c-3.435-3.994-5.552-14.703-5.76-16.996-.207-2.293-3.247-14.132-4.393-14.132-1.147 0-12.603.762-13.94-3.995-1.071-3.827 11.719-1.997 16.84-1.138a3.795 3.795 0 0 1 2.864 2.277L312 94.89s4.158-4.821 8.168 1.099zM345.948 63.144s-4.965 13.94 1.338 18.905c6.303 4.965-22.54 6.303-22.54 6.303l3.914-3.722s2.768-10.981.86-20.148l16.428-1.338z"/>
        <path fill="#000" fill-rule="nonzero" d="M339.837 82.05s5.06-1.243 5.06-2.577l4.486 2.576h11.269s8.212 4.582 1.338 18.335c-6.875 13.752-3.819 47.533-3.819 47.533s-24.442-4.394-44.685 2.293c0 0 3.055-15.087 1.909-23.679-1.147-8.592 1.91-20.623 1.91-20.623l1.717-7.258s-.096-6.79-7.162-3.343c0 0-1.05-9.835 6.207-10.98 0 0 8.388 1.145 10.885-3.057 0 .016 5.54 3.264 10.885.78z" opacity=".1"/>
        <path fill="#940016" fill-rule="nonzero" d="M339.837 81.67s5.06-1.242 5.06-2.577l3.288 1.89c.786.45 1.675.687 2.58.687h7.881a5.193 5.193 0 0 1 4.222 2.149c1.81 2.544 3.432 7.561-.878 16.185-6.875 13.749-3.819 47.534-3.819 47.534s-24.442-4.394-44.685 2.292c0 0 3.055-15.086 1.909-23.678-1.147-8.592 1.91-20.596 1.91-20.596l1.717-7.257s-.096-6.791-7.162-3.344c0 0-1.023-9.562 5.908-10.929.192-.042.39-.056.587-.04 1.482.156 8.388.656 10.6-3.087-.003.004 5.537 3.251 10.882.77z"/>
        <path fill="#000" fill-rule="nonzero" d="M359.126 99.045s-6.112 3.82-16.042 0c0 0-10.885-3.994-14.324-11.839-3.439-7.845 17.376 1.338 17.376 1.338s4.394 0 5.728-.955c1.334-.954 10.697 7.254 7.262 11.456z" opacity=".1"/>
        <path fill="#F7C4A7" fill-rule="nonzero" d="M359.126 98.283s-6.112 3.818-16.042 0c0 0-10.885-3.995-14.324-11.84s-11.456-16.437-11.456-16.437-13.94-5.348-13.181-10.693c.759-5.344 16.041 5.92 16.041 5.92l6.112 5.728 19.86 16.804s4.394 0 5.728-.954c1.334-.955 10.697 7.27 7.262 11.472z"/>
        <path fill="#000" fill-rule="nonzero" d="M329.335 65.053l16.421-1.338a37.695 37.695 0 0 0-1.713 7.777c-3.972 4.118-10.51 4.296-14.7.4.419-2.261.416-4.58-.008-6.839z" opacity=".1"/>
        <circle cx="336.689" cy="63.623" r="10.501" fill="#F7C4A7" fill-rule="nonzero"/>
        <path fill="#000" fill-rule="nonzero" d="M342.453 65.904c-.615-1.015.635-2.337.224-3.447-.38-1.023-1.89-1.199-2.397-2.153-.4-.771 0-1.718-.16-2.569-.227-1.098-1.41-1.781-2.532-1.837-1.123-.056-2.205.363-3.272.723-1.737.587-3.567 1.038-5.388.83-1.821-.207-3.639-1.198-4.45-2.823a1.598 1.598 0 0 1-.204-.775c.032-.6.584-1.01.94-1.49.622-.835.694-1.973 1.261-2.844 1.159-1.774 3.703-1.73 5.82-1.738 3.116 0 6.216-.583 9.331-.48 3.116.105 6.391.987 8.456 3.328 2.477 2.816 2.589 6.938 2.569 10.693 0 1.546-.064 3.228-1.05 4.422-.288.348-.64.635-.915.99-.6.8-.76 1.822-1.323 2.633-.998 1.442-2.947 1.793-4.685 2.025.511-.068.088-3.491 0-3.807-.336-1.573-.7-1.541-2.225-1.681z" opacity=".1"/>
        <path fill="#281C1C" fill-rule="nonzero" d="M342.453 65.524c-.615-1.014.635-2.336.224-3.447-.38-1.022-1.89-1.198-2.397-2.153-.4-.77 0-1.717-.16-2.568-.227-1.099-1.41-1.782-2.532-1.838-1.123-.056-2.205.364-3.272.723-1.737.588-3.567 1.039-5.388.831-1.821-.208-3.639-1.198-4.45-2.824a1.598 1.598 0 0 1-.204-.775c.032-.599.584-1.01.94-1.49.622-.835.694-1.973 1.261-2.844 1.159-1.773 3.703-1.73 5.82-1.737 3.116 0 6.216-.583 9.331-.48 3.116.104 6.391.987 8.456 3.328 2.477 2.816 2.589 6.938 2.569 10.693 0 1.546-.064 3.227-1.05 4.422-.288.347-.64.635-.915.99-.6.8-.76 1.822-1.323 2.633-.998 1.441-2.947 1.793-4.685 2.025.511-.068.088-3.491 0-3.807-.336-1.594-.7-1.546-2.225-1.682z"/>
        <path fill="#000" fill-rule="nonzero" d="M359.03 99.525s-5.157-13.37-9.167-13.749c-4.01-.38 7.637 0 7.637 0l3.819 6.874-2.29 6.875z" opacity=".1"/>
        <path fill="#940016" fill-rule="nonzero" d="M359.413 99.525s-5.156-13.37-9.167-13.749c-4.01-.38 7.637 0 7.637 0l3.82 6.874-2.29 6.875z"/>
        <path fill="#333" fill-rule="nonzero" d="M344.978 253.422c.271 2.073.399 3.742.399 3.742.192-1.146 12.031-6.303 12.031-6.303v-3.104a5.265 5.265 0 0 0-.903.044c-2.296.308-4.425 1.422-6.39 2.613a58.29 58.29 0 0 1-5.137 3.008z"/>
        <path fill="#000" fill-rule="nonzero" d="M344.978 253.422c.271 2.073.399 3.742.399 3.742.192-1.146 12.031-6.303 12.031-6.303v-3.104a5.265 5.265 0 0 0-.903.044c-2.296.308-4.425 1.422-6.39 2.613a58.29 58.29 0 0 1-5.137 3.008z" opacity=".3"/>
        <path fill="#333" fill-rule="nonzero" d="M316.158 252.008c2.48-1.147 12.986 2.48 12.986 2.48l1.062-3.615a56.894 56.894 0 0 1-5.444-1.386 18.11 18.11 0 0 1-2.445-.903 16.377 16.377 0 0 0-1.63-.759c-1.37-.47-2.796-.271-4.202-.036a295.715 295.715 0 0 1-.327 4.219z"/>
        <path fill="#000" fill-rule="nonzero" d="M316.158 252.008c2.48-1.147 12.986 2.48 12.986 2.48l1.062-3.615a56.894 56.894 0 0 1-5.444-1.386 18.11 18.11 0 0 1-2.445-.903 16.377 16.377 0 0 0-1.63-.759c-1.37-.47-2.796-.271-4.202-.036a295.715 295.715 0 0 1-.327 4.219z" opacity=".3"/>
        <path fill="#FFF" fill-rule="nonzero" d="M368.005 262.892c.324-.138.566-.418.655-.759a1.122 1.122 0 0 1-.655 1.33c-2.292 1.147-15.466 1.91-21.969-3.055v-.571c6.503 4.965 19.677 4.202 21.97 3.055zM308.616 263.655c3.995.955 18.335-1.146 19.669-3.439v.571c-1.338 2.293-15.658 4.394-19.669 3.44-1.637-.4-2.16-1.199-1.997-2.074.128.647.727 1.183 1.997 1.502z" opacity=".4"/>
        <path fill="#000" fill-rule="nonzero" d="M331.912 124.542s-4.202-1.338-5.349 0c-1.146 1.338-10.944 4.474-10.944 4.474" opacity=".1"/>
    </g>
</svg>
