<svg xmlns="http://www.w3.org/2000/svg" viewBox="0 0 12 16.45">
    <defs>
        <style>
            .cls-1{fill:#0da176}
        </style>
    </defs>
    <g id="pdf-file-symbol" transform="translate(-12.336)">
        <g id="Group_822" data-name="Group 822" transform="translate(12.336)">
            <path id="Path_231" d="M43.371 37.845a2.115 2.115 0 0 0-.458.04v2.93a1.856 1.856 0 0 0 .352.02 1.388 1.388 0 0 0 1.515-1.568 1.285 1.285 0 0 0-1.409-1.422z" class="cls-1" data-name="Path 231" transform="translate(-37.505 -31.178)"/>
            <path id="Path_232" d="M24.164 37.78a1.732 1.732 0 0 0-.419.04v1.322a1.542 1.542 0 0 0 .339.027c.538 0 .87-.272.87-.731 0-.412-.285-.658-.79-.658z" class="cls-1" data-name="Path 232" transform="translate(-21.712 -31.032)"/>
            <path id="Path_233" d="M20.75 0h-8.414v16.45h12V4.879l-4.263-2.944zM16 8.327a1.854 1.854 0 0 1-1.3.421 2.238 2.238 0 0 1-.309-.018v1.429h-.9V6.215a7.376 7.376 0 0 1 1.222-.083 1.918 1.918 0 0 1 1.222.32 1.168 1.168 0 0 1 .427.925 1.278 1.278 0 0 1-.362.95zm5.07-2.165h2.444V6.9h-1.535v.913h1.435v.735h-1.435v1.607h-.908zm-.593 1.9a2.027 2.027 0 0 1-.664 1.619 2.87 2.87 0 0 1-1.844.516 7.872 7.872 0 0 1-1.026-.059V6.215a8.069 8.069 0 0 1 1.222-.083 2.57 2.57 0 0 1 1.635.428 1.769 1.769 0 0 1 .679 1.506z" class="cls-1" data-name="Path 233" transform="translate(-12.336)"/>
            <path id="Path_234" d="M61.227 0l-.614 1.757L64.3 4.3z" class="cls-1" data-name="Path 234" transform="translate(-52.301)"/>
        </g>
    </g>
</svg>
