<svg xmlns="http://www.w3.org/2000/svg" width="184" height="34" viewBox="0 0 184 34">
    <g fill="none" fill-rule="evenodd">
        <path fill="#D40A46" d="M63.14 29.837c-.874 0-1.732.708-1.732 1.737 0 1.019.858 1.727 1.731 1.727.29 0 .57-.073.828-.218a.333.333 0 0 0 .16-.277.335.335 0 0 0-.34-.33c-.064 0-.139.02-.184.054a.932.932 0 0 1-.449.136c-.554 0-1.027-.471-1.027-1.097 0-.616.473-1.097 1.027-1.097.16 0 .31.059.454.136a.335.335 0 0 0 .519-.276.333.333 0 0 0-.16-.277 1.726 1.726 0 0 0-.828-.218zm62.681.354v1.101h-1.576v-1.101a.343.343 0 0 0-.344-.335.343.343 0 0 0-.344.335v2.756c0 .18.154.335.344.335.19 0 .344-.156.344-.335V31.86h1.576v1.087a.345.345 0 0 0 .689 0v-2.756a.345.345 0 0 0-.689 0zm6.919-.34c-.13 0-.214.117-.27.223l-1.282 2.766a.301.301 0 0 0-.03.136c0 .18.155.325.335.325.134 0 .26-.082.31-.194l.333-.723h1.208l.339.723c.05.112.174.2.304.2.185 0 .34-.151.34-.33a.391.391 0 0 0-.03-.137l-1.283-2.766c-.054-.106-.14-.223-.274-.223zm0 1.116l.394.854h-.783l.389-.854zm7.562-1.096h-.913c-.22 0-.379.155-.379.368v2.727a.34.34 0 0 0 .344.335.34.34 0 0 0 .345-.335v-1.014h.603c.779 0 1.277-.451 1.277-1.038 0-.578-.498-1.043-1.277-1.043zm-.04 1.509h-.563v-.937h.563c.364 0 .649.112.649.47 0 .37-.285.467-.649.467zm7.308-1.51h-.913c-.22 0-.379.156-.379.37v2.726a.34.34 0 0 0 .344.335.34.34 0 0 0 .345-.335v-1.014h.603c.778 0 1.277-.451 1.277-1.038 0-.578-.499-1.043-1.277-1.043zm-.04 1.51h-.563v-.937h.563c.364 0 .649.112.649.47 0 .37-.285.467-.649.467zm6.325-1.524a.354.354 0 0 0-.354.345v2.756c0 .184.16.344.354.344.19 0 .35-.16.35-.344V30.2a.353.353 0 0 0-.35-.345zm7.523 0a.35.35 0 0 0-.354.345v1.81l-1.403-1.96a.447.447 0 0 0-.368-.195.305.305 0 0 0-.31.31v2.786a.348.348 0 1 0 .698 0v-1.83l1.442 1.976a.423.423 0 0 0 .364.203c.14 0 .275-.112.275-.31V30.2a.352.352 0 0 0-.344-.345zm5.81 2.83v-.83h.874c.165 0 .304-.132.304-.297 0-.16-.14-.286-.304-.286h-.873v-.82h1.372c.164 0 .304-.131.304-.296 0-.156-.14-.287-.304-.287h-1.702c-.219 0-.379.156-.379.37v2.658c0 .214.16.37.38.37h1.75a.302.302 0 0 0 .305-.297c0-.155-.14-.286-.305-.286h-1.421zm7.468-2.85c-.609 0-1.142.355-1.142.903 0 .529.394.81.952.985l.155.049c.409.126.584.286.584.538 0 .306-.295.418-.54.418a.825.825 0 0 1-.608-.282.295.295 0 0 0-.25-.126.31.31 0 0 0-.309.306c0 .063.02.121.06.175.275.31.654.5 1.108.5.514 0 1.222-.326 1.222-.99 0-.481-.294-.855-1.102-1.121l-.155-.049c-.33-.121-.434-.209-.434-.403 0-.204.205-.334.459-.334.195 0 .364.048.479.165.055.077.14.11.24.11.159 0 .284-.12.284-.28a.279.279 0 0 0-.06-.19 1.28 1.28 0 0 0-.943-.373zm6.948 0c-.608 0-1.142.355-1.142.903 0 .529.394.81.953.985l.155.049c.408.126.583.286.583.538 0 .306-.294.418-.539.418a.825.825 0 0 1-.608-.282.295.295 0 0 0-.25-.126.31.31 0 0 0-.309.306c0 .063.02.121.06.175.274.31.653.5 1.107.5.514 0 1.223-.326 1.223-.99 0-.481-.294-.855-1.103-1.121l-.154-.049c-.33-.121-.434-.209-.434-.403 0-.204.204-.334.459-.334.194 0 .364.048.478.165.055.077.14.11.24.11.16 0 .284-.12.284-.28a.279.279 0 0 0-.06-.19 1.28 1.28 0 0 0-.943-.373zm-113.54 0c-.873 0-1.736.709-1.736 1.733s.863 1.732 1.736 1.732c.878 0 1.741-.708 1.741-1.732s-.863-1.732-1.74-1.732zm0 .636c.554 0 1.018.442 1.018 1.097s-.474 1.097-1.018 1.097c-.539 0-1.017-.442-1.017-1.097s.478-1.097 1.017-1.097zm6.627-.616a.35.35 0 0 0-.354.345v1.81l-1.403-1.96a.447.447 0 0 0-.369-.195.305.305 0 0 0-.309.31v2.786a.349.349 0 1 0 .698 0v-1.83l1.442 1.976a.423.423 0 0 0 .364.203c.14 0 .275-.112.275-.31V30.2a.352.352 0 0 0-.344-.345zm5.314 0a.35.35 0 0 0-.354.345v1.81l-1.402-1.96a.447.447 0 0 0-.37-.195.305.305 0 0 0-.309.31v2.786a.349.349 0 1 0 .698 0v-1.83l1.442 1.976a.423.423 0 0 0 .365.203c.14 0 .274-.112.274-.31V30.2a.352.352 0 0 0-.344-.345zm3.588 2.83v-.83h.873c.165 0 .304-.132.304-.297 0-.16-.14-.286-.304-.286h-.873v-.82h1.372c.164 0 .304-.131.304-.296 0-.156-.14-.287-.304-.287h-1.701c-.22 0-.38.156-.38.37v2.658c0 .214.16.37.38.37h1.75a.302.302 0 0 0 .305-.297c0-.155-.14-.286-.304-.286h-1.422zm5.818-2.85c-.873 0-1.731.709-1.731 1.738 0 1.019.858 1.727 1.73 1.727.29 0 .57-.073.829-.218a.333.333 0 0 0 .16-.277.335.335 0 0 0-.34-.33c-.064 0-.14.02-.184.054a.932.932 0 0 1-.45.136c-.553 0-1.027-.471-1.027-1.097 0-.616.474-1.097 1.028-1.097.16 0 .31.059.454.136a.335.335 0 0 0 .519-.276.333.333 0 0 0-.16-.277 1.726 1.726 0 0 0-.828-.218zm5.783.035h-2.18a.302.302 0 0 0-.305.296c0 .165.14.295.305.295h.728v2.485c0 .19.165.354.37.354.194 0 .358-.165.358-.354v-2.485h.724c.165 0 .304-.13.304-.295a.302.302 0 0 0-.304-.296zm7.027 0h-2.18a.301.301 0 0 0-.305.296c0 .165.14.295.305.295h.728v2.485c0 .19.164.354.369.354.195 0 .36-.165.36-.354v-2.485h.723c.164 0 .304-.13.304-.295a.301.301 0 0 0-.304-.296zm4.092-.034c-.873 0-1.736.708-1.736 1.732s.863 1.732 1.736 1.732c.878 0 1.74-.708 1.74-1.732s-.862-1.732-1.74-1.732zm0 .635c.553 0 1.017.442 1.017 1.097s-.474 1.097-1.017 1.097c-.54 0-1.018-.442-1.018-1.097s.479-1.097 1.018-1.097z"/>
        <path fill="#5E5971" d="M75.313 15.584h-7.181a1.31 1.31 0 0 0-1.322 1.322 1.33 1.33 0 0 0 1.322 1.322h5.724a6.532 6.532 0 1 1-6.432-7.868 6.57 6.57 0 0 1 5.308 2.508c.418.59 1.201.793 1.853.479a1.277 1.277 0 0 0 .479-1.822 8.911 8.911 0 0 0-7.63-3.799c-1.214 0-2.417.241-3.538.708a9.52 9.52 0 0 0-2.904 1.978 9.34 9.34 0 0 0-1.978 2.904 8.994 8.994 0 0 0-.728 3.58c0 1.221.24 2.43.707 3.56a9.521 9.521 0 0 0 1.978 2.903 9.34 9.34 0 0 0 2.904 1.978 9.166 9.166 0 0 0 3.56.708 9.4 9.4 0 0 0 3.59-.708 9.52 9.52 0 0 0 2.904-1.978 9.34 9.34 0 0 0 1.978-2.903 9.169 9.169 0 0 0 .708-3.56 1.291 1.291 0 0 0-1.302-1.312zm9.399-2.695a6.63 6.63 0 0 0-6.63 6.609v5.298a1.306 1.306 0 1 0 2.612 0v-5.298a4.002 4.002 0 0 1 4.018-3.997 1.324 1.324 0 0 0 1.322-1.322 1.304 1.304 0 0 0-1.322-1.29zm7.869 13.229a6.64 6.64 0 1 1 6.63-6.64 6.661 6.661 0 0 1-6.63 6.64zm0-10.669a4.028 4.028 0 1 0-.021 8.056 4.028 4.028 0 0 0 .02-8.056zm17.527-2.56a1.304 1.304 0 0 0-1.322 1.29v6.578a2.732 2.732 0 1 1-5.464 0V14.18a1.306 1.306 0 0 0-2.613 0v6.64a5.345 5.345 0 1 0 10.69 0v-6.64a1.29 1.29 0 0 0-1.291-1.29zm9.534 13.333a6.63 6.63 0 1 0-6.63-6.63v11.855a1.304 1.304 0 0 0 1.322 1.29 1.29 1.29 0 0 0 1.29-1.29v-6.578a6.58 6.58 0 0 0 4.018 1.353zm0-10.638a4.018 4.018 0 1 1-4.018 4.05v-.032a4.013 4.013 0 0 1 4.018-4.018zm21.597.687a5.478 5.478 0 0 0 1.165-3.278 5.372 5.372 0 0 0-5.152-5.277h-5.1c-.733 0-1.331.588-1.342 1.322v15.758a1.31 1.31 0 0 0 1.322 1.322h7.025a5.272 5.272 0 0 0 4.934-5.184 5.35 5.35 0 0 0-2.852-4.663zm-1.457-3.299a2.734 2.734 0 0 1-2.748 2.696h-3.59V10.36h3.59a2.672 2.672 0 0 1 2.748 2.612zm-.823 10.502h-5.516V18.3h5.381a2.75 2.75 0 0 1 2.644 2.623 2.573 2.573 0 0 1-2.509 2.55zm7.952 2.644a1.304 1.304 0 0 0 1.29-1.322V14.179a1.306 1.306 0 0 0-2.612 0v10.617a1.31 1.31 0 0 0 1.322 1.322zm0-15.873c.344 0 .675-.13.927-.364.5-.517.5-1.336 0-1.853a1.31 1.31 0 1 0-1.853 1.853c.252.234.583.364.926.364zm21.514 7.952a5.297 5.297 0 0 0-5.308-5.277 5.231 5.231 0 0 0-3.987 1.821 5.231 5.231 0 0 0-3.986-1.821 5.297 5.297 0 0 0-5.308 5.277v6.65a1.306 1.306 0 0 0 2.612 0v-6.65a2.68 2.68 0 0 1 5.36 0v6.65c.002.73.593 1.321 1.322 1.323a1.304 1.304 0 0 0 1.291-1.322v-6.651a2.696 2.696 0 0 1 5.391 0v6.65a1.304 1.304 0 0 0 1.291 1.323 1.33 1.33 0 0 0 1.322-1.322v-6.412a.216.216 0 0 0-.031-.135c.03-.031.03-.052.03-.104zm8.264-5.287a6.64 6.64 0 0 0-6.682 6.692 6.483 6.483 0 0 0 6.682 6.505 5.754 5.754 0 0 0 3.903-1.322 1.388 1.388 0 0 0 1.27 1.322 1.274 1.274 0 0 0 1.322-1.322v-5.183a6.49 6.49 0 0 0-6.495-6.692zm0 10.616a3.998 3.998 0 0 1-4.09-3.924 4.148 4.148 0 0 1 4.09-4.1 3.99 3.99 0 0 1 3.903 4.1 3.839 3.839 0 0 1-3.903 3.924z"/>
        <path fill="#EA0B4B" d="M15.627 16.66a1.41 1.41 0 1 1 2.81.19 20.221 20.221 0 0 0 2.009 10.765c1.115 2.017 2.96 3.977 5.485 3.272a9.118 9.118 0 0 0 4.23-3.182 1.41 1.41 0 0 1 2.166 1.804 11.798 11.798 0 0 1-5.636 4.085c-3.887 1.082-6.929-1.41-8.709-4.633a23.049 23.049 0 0 1-2.355-12.3zm-.033-6.953a1.955 1.955 0 0 0-1.379 2.387 3.609 3.609 0 0 1 4.268 0c.116-.392.096-.81-.057-1.189a2.277 2.277 0 0 0-2.83-1.197l-.002-.001zm4.362-6.01A7.636 7.636 0 0 0 15.688.94 18.422 18.422 0 0 0 9.383.408a14.53 14.53 0 0 0-6.478 1.715 5.565 5.565 0 0 0-2.89 4.533c-.039 1.827.42 3.63 1.328 5.216a35.309 35.309 0 0 0 7.88 9.446l1.295 1.091a1.41 1.41 0 0 0 1.78-2.186l-1.23-1.04a32.5 32.5 0 0 1-7.216-8.61A7.471 7.471 0 0 1 2.827 6.85 2.882 2.882 0 0 1 4.36 4.522a12.009 12.009 0 0 1 5.23-1.31 15.432 15.432 0 0 1 5.322.427 4.922 4.922 0 0 1 2.738 1.673 1.417 1.417 0 0 0 2.55-.564 1.4 1.4 0 0 0-.237-1.052h-.007zm8.166 6.01a1.955 1.955 0 0 1 1.378 2.387 3.609 3.609 0 0 0-4.267 0 1.803 1.803 0 0 1 .057-1.189 2.277 2.277 0 0 1 2.829-1.197l.003-.001zm-2.058-4.395a4.951 4.951 0 0 1 2.739-1.673 15.843 15.843 0 0 1 5.321-.427c1.817.034 3.603.48 5.223 1.304a2.893 2.893 0 0 1 1.537 2.329 7.39 7.39 0 0 1-1.025 3.723 32.5 32.5 0 0 1-7.216 8.61 22.97 22.97 0 0 1-6.026 4.132c-.763.263-.52-.302-.377-1.033a24.733 24.733 0 0 1 1.73-4.969 1.408 1.408 0 1 0-2.583-1.123c-1.542 3.526-2.14 5.871-2.058 7.322a2.676 2.676 0 0 0 1.516 2.525c.87.332 1.833.315 2.69-.049a25.076 25.076 0 0 0 6.953-4.666 35.435 35.435 0 0 0 7.88-9.446 10.076 10.076 0 0 0 1.329-5.216 5.565 5.565 0 0 0-2.895-4.535A14.564 14.564 0 0 0 34.325.408a18.63 18.63 0 0 0-6.305.533 7.635 7.635 0 0 0-4.268 2.755 1.41 1.41 0 1 0 2.313 1.616z"/>
    </g>
</svg>
