<svg xmlns="http://www.w3.org/2000/svg" width="151" height="116" viewBox="0 0 151 116">
    <path fill="#EA0B4B" fill-rule="evenodd" d="M54.294 56.719a4.86 4.86 0 0 1 2.662-4.194 4.869 4.869 0 0 1 4.96.333 4.858 4.858 0 0 1 2.078 4.51 69.678 69.678 0 0 0 6.934 37.13c3.848 6.956 10.218 13.714 18.935 11.28a31.47 31.47 0 0 0 14.604-10.972 4.868 4.868 0 0 1 6.782-.541 4.857 4.857 0 0 1 .691 6.761 40.723 40.723 0 0 1-19.455 14.089c-13.415 3.733-23.917-4.864-30.06-15.977a79.423 79.423 0 0 1-8.131-42.42zm-.38-24.255c-3.532 1.006-5.627 4.82-4.691 8.536 4.323-3.33 10.201-3.33 14.524 0a6.756 6.756 0 0 0-.195-4.251c-1.673-3.83-5.848-5.686-9.628-4.281l-.01-.004zM69.081 11.57A26.467 26.467 0 0 0 54.3 2.082 64.169 64.169 0 0 0 32.46.247a50.56 50.56 0 0 0-22.44 5.904C4.207 9.301.427 15.197.008 21.766a34.554 34.554 0 0 0 4.6 17.963 121.772 121.772 0 0 0 27.296 32.534l4.489 3.757a4.905 4.905 0 0 0 6.73-.81 4.838 4.838 0 0 0-.565-6.718l-4.262-3.585c-10-8.366-18.458-18.4-24.996-29.652a25.619 25.619 0 0 1-3.55-12.822 9.924 9.924 0 0 1 5.31-8.02 41.79 41.79 0 0 1 18.117-4.509 53.754 53.754 0 0 1 18.434 1.47c3.72.813 7.06 2.84 9.485 5.76a4.925 4.925 0 0 0 6.818 1.187 4.819 4.819 0 0 0 2.013-3.127 4.8 4.8 0 0 0-.82-3.623h-.025zm28.005 20.893c3.53 1.006 5.626 4.82 4.69 8.536-4.323-3.33-10.201-3.33-14.524 0a6.756 6.756 0 0 1 .195-4.251c1.673-3.83 5.848-5.686 9.628-4.281l.01-.004zm-6.665-15.396a17.01 17.01 0 0 1 9.406-5.741 54.47 54.47 0 0 1 18.281-1.465 41.281 41.281 0 0 1 17.942 4.476 9.93 9.93 0 0 1 5.28 7.992 25.348 25.348 0 0 1-3.521 12.778 111.57 111.57 0 0 1-24.788 29.55A78.908 78.908 0 0 1 92.32 78.846c-2.62.9-1.788-1.04-1.294-3.548a84.842 84.842 0 0 1 5.942-17.054 4.83 4.83 0 0 0-.548-4.803 4.84 4.84 0 0 0-8.326.948c-5.295 12.103-7.351 20.152-7.069 25.132a9.184 9.184 0 0 0 5.21 8.666 12.363 12.363 0 0 0 9.239-.168 86.147 86.147 0 0 0 23.887-16.015 121.645 121.645 0 0 0 27.07-32.422 34.561 34.561 0 0 0 4.561-17.901 19.1 19.1 0 0 0-9.943-15.565A50.064 50.064 0 0 0 118.8.238a64.052 64.052 0 0 0-21.66 1.83 26.231 26.231 0 0 0-14.658 9.455 4.838 4.838 0 0 0-.417 4.824 4.845 4.845 0 0 0 8.361.72h-.003z"/>
</svg>
