<svg xmlns="http://www.w3.org/2000/svg" xmlns:xlink="http://www.w3.org/1999/xlink" width="69" height="45" viewBox="0 0 69 45">
    <defs>
        <path id="b" d="M54 7L57.106.789a1 1 0 0 1 1.788 0L62 7h49a4 4 0 0 1 4 4v97a4 4 0 0 1-4 4H4a4 4 0 0 1-4-4V11a4 4 0 0 1 4-4h50z"/>
        <filter id="a" width="106.1%" height="106.3%" x="-3%" y="-2.2%" filterUnits="objectBoundingBox">
            <feOffset dy="1" in="SourceAlpha" result="shadowOffsetOuter1"/>
            <feGaussianBlur in="shadowOffsetOuter1" result="shadowBlurOuter1" stdDeviation="1"/>
            <feColorMatrix in="shadowBlurOuter1" values="0 0 0 0 0 0 0 0 0 0 0 0 0 0 0 0 0 0 0.158967391 0"/>
        </filter>
        <linearGradient id="c" x1="50.014%" x2="50.014%" y1="100.014%" y2="-.012%">
            <stop offset="0%" stop-color="gray" stop-opacity=".25"/>
            <stop offset="54%" stop-color="gray" stop-opacity=".12"/>
            <stop offset="100%" stop-color="gray" stop-opacity=".1"/>
        </linearGradient>
        <linearGradient id="d" x1="50.003%" x2="50.003%" y1="100.015%" y2="-.001%">
            <stop offset="0%" stop-color="gray" stop-opacity=".25"/>
            <stop offset="54%" stop-color="gray" stop-opacity=".12"/>
            <stop offset="100%" stop-color="gray" stop-opacity=".1"/>
        </linearGradient>
    </defs>
    <g fill="none" fill-rule="evenodd">
        <path fill="#F6F6F6" d="M-398-2000h1440V498H-398z"/>
        <g transform="translate(-27 -21)">
            <use fill="#000" filter="url(#a)" xlink:href="#b"/>
            <use fill="#FFF" xlink:href="#b"/>
        </g>
        <g>
            <path fill="#0DA176" d="M63.523 36.958c-.212.186-.429.367-.65.543l-.114.09c-.79.613-1.62 1.173-2.482 1.677l-.162.094a41.132 41.132 0 0 1-2.903 1.521l-.01.005-.071.034c-.764.366-1.539.717-2.325 1.051l-.02.007c-.354.15-.709.295-1.063.436-.145.06-.29.114-.436.17-.274.105-.548.208-.824.307l-.035.013-.059.02-.074.028c-.721.257-1.452.495-2.193.714l-.013.003c-.517.15-1.037.29-1.56.418l-.072.018c-.768.185-1.549.345-2.334.473l-.181.029a30.16 30.16 0 0 1-1.736.22c-3.273.317-6.586.06-9.84-.381-6.57-.891-13.054-2.562-18.967-5.181a55.187 55.187 0 0 1-3.339-1.614l-.025-.014a48.237 48.237 0 0 1-2.487-1.4 49.416 49.416 0 0 1-1.562-.98l-.139-.093-.053-.036c-.075-.05-.149-.1-.223-.152-2.778-1.891-5.256-4.183-6.426-7.052-1.352-3.31-.487-7.506 2.863-9.463 1.151-.674 2.49-1.04 3.842-1.342l.138-.03.685-.147c.797-.17 1.599-.337 2.393-.525.413-.097.823-.2 1.23-.31l.167-.046a19.924 19.924 0 0 0 2.873-1.012h.006c.1-.044.199-.09.296-.138.062-.03.125-.059.188-.091 1.004-.5 2.068-1.194 2.887-2.02a7.594 7.594 0 0 0 .332-.36c.574-.67.971-1.412 1.047-2.2a2.837 2.837 0 0 0-.036-.794 32.364 32.364 0 0 1-.248-1.455c-.124-.89-.166-1.74.005-2.56.175-.836.57-1.64 1.325-2.42.114-.119.237-.237.368-.355a7.76 7.76 0 0 1 2.047-1.293c.092-.04.185-.08.279-.119C25.905.407 28.396.232 30.724.348a37.6 37.6 0 0 1 6.962 1.017c1.806.437 3.583.986 5.32 1.645 4.515 1.698 8.776 4.055 12.757 6.657l.118.077c.166.109.331.217.496.327.318.21.633.423.945.636l.211.144c.104.07.208.142.31.213l.318.22c.014.008.029.018.042.03l.27.186.466.328.333.237c.07.05.14.098.208.149l.355.259.08.059a.961.961 0 0 1 .048.036l.01.007c.961.705 1.9 1.436 2.778 2.211l.114.1.012.011c.095.085.191.172.285.259 1.148 1.045 2.177 2.168 3.017 3.409 3.861 5.733 2.715 13.672-2.656 18.393z" opacity=".1"/>
            <path fill="url(#c)" fill-rule="nonzero" d="M66.053 20.453c.038-.103-.245-.674-.245-.702 0-.029-.295-.346-.295-.525 0-.178-.386-.561-.386-.561s-.519-.216-.576-.684c-.057-.467-.6-.477-.622-.478 0 0 0-.042.004-.107 0-.146-.004-.405-.07-.548a.556.556 0 0 0-.32-.272s-.06-.365-.17-.477a.537.537 0 0 1-.132-.506c.032-.1.005-.283-.073-.437-.06-.122-.155-.227-.276-.256h-.01c-.27-.065-.574-.166-.574-.166s-.03.006-.076.012l-.038-.012a1.69 1.69 0 0 1-.197.025.245.245 0 0 1-.16-.053c-.095-.103-.859-.3-1-.3-.141 0-.547-.187-.547-.187l-.405-.309c-.114-.086-.324-.437-.355-.49l-.005-.006a1.607 1.607 0 0 1-.074-.206l-.011-.04c.082-.086.157-.179.225-.277v-.003c.018-.025.035-.053.052-.08.025-.039.049-.08.071-.122l.028-.055c.02 0 .04-.004.06-.01l.025-.01a.3.3 0 0 0 .065-.04l.019-.017a.462.462 0 0 0 .135-.241c0-.007.004-.015.005-.021a.584.584 0 0 0 .01-.043l.003-.024c0-.015.004-.028.007-.042.002-.014 0-.017 0-.024 0-.017.005-.036.006-.053.009-.067.016-.133.03-.198v-.003a1.51 1.51 0 0 1 .14-.36c.058-.113.123-.226.177-.343a1.706 1.706 0 0 0 .08-.217c0-.01.006-.023.009-.034a.83.83 0 0 0 .026-.122 1.45 1.45 0 0 0-.082-.776c-.07-.178-.177-.334-.247-.51-.108-.266-.137-.568-.27-.822-.22-.425-.744-.638-1.174-.478-.204.076-.382.224-.59.29-.279.09-.577.023-.866-.018-.288-.04-.607-.043-.839.145-.266.217-.34.625-.59.863a1.36 1.36 0 0 1-.198.147c-.05.035-.102.07-.15.11a.56.56 0 0 0-.187.28c0 .009-.003.018-.004.028-.002.01 0 .013 0 .02v.049c0 .015.004.031.007.047v.013c0 .005.007.027.012.04a.03.03 0 0 1 0 .007c.005.014.01.028.017.042 0 .007.006.015.009.022a1.119 1.119 0 0 1 .096.235.23.23 0 0 1-.047.207.788.788 0 0 1-.067.073 1.958 1.958 0 0 0-.456.77l.012.003.013.003a.414.414 0 0 0 .07.015.732.732 0 0 0 .28-.02h.007c.053-.014.105-.032.155-.054l.036-.016V11.764a2.224 2.224 0 0 0 1.233 1.863l.009.06.006.05-.026-.024a.172.172 0 0 0-.07-.014c-.04 0-.078.01-.112.028a.414.414 0 0 0-.148.144c-.16.244-.462.355-.462.355s-1.714.271-1.781.496l-.802.047s-.283.037-.31.627v.014c-.005.07-.01.133-.017.189v.008c-.05.393-.162.435-.162.435s-.33.58-.302.88v.007a.386.386 0 0 1-.007.121.532.532 0 0 1-.247.32l-.038.531s-.31-.047-.396.319c-.085.365-.236.532-.236.532s-.519.43-.547.795l-.32.197s-.745-.168-.915-.468l-.052-.05-.005-.006v.003c-.111-.105-.348-.325-.311-.275.022.048.027.101.015.152l-.056-.06-.148-.165s-.212-.198-.51-.435a9.151 9.151 0 0 0-.216-.167c-.382-.283-.842-.57-1.183-.614-.007-.014-.035-.12-.102-.12a.112.112 0 0 0-.073.035.984.984 0 0 0-.007 1.442l.078.073.24.224.81.757.03.021.047.06.037.047.065.082.092.118-.014.036a3.646 3.646 0 0 0-.09.244v.008l-.017.055c0 .005-.004.012-.006.018l-.016.051-.008.031c-.002.01-.004.012-.006.018a3.584 3.584 0 0 0-.052.207l-.062-.02.059.027a.08.08 0 0 1 0 .01l-.004.019a.806.806 0 0 0 .06.025l.013.006.231.102.152.068c.055.025.097.043.15.065.605.27 1.453.657 1.513.734.094.123.716.478 1.283.178.566-.3.687-.76.687-.76s.547-.757.566-.87c.015-.086.268-.183.385-.224l.01-.003.048-.016V20.55c0 .264-.003.837-.086 1.254v.003c-.019.108-.05.213-.094.314-.217.458-.622 2.49-.622 2.49h.01a.274.274 0 0 1 .07-.003l-.017.087-.006.03h.007a.272.272 0 0 1 .091 0c0 .011-.003.025-.005.042v.015l-.005.028c-.05.338-.191 1.218-.191 1.218s-.06.487-.151.655c-.04.072-.064.27-.08.473 0 .03-.004.06-.006.09-.015.25-.018.485-.018.485l-.004.016-.139.63a.181.181 0 0 0 .008.017c.01.019.026.051.049.091l.007.016c.084.17.194.326.327.46.031.031.064.06.1.085 0 .007-.003.015-.004.021l-.006.033a.957.957 0 0 1-.067.237.79.79 0 0 0-.068.257c-.007.064-.009.128-.005.192l-.008.035a9.523 9.523 0 0 0-.13.76.732.732 0 0 0 0 .131c.003.074-.001.148-.013.221 0 .021-.004.043-.007.065a5.96 5.96 0 0 1-.085.426l-.17 1.629v.096c0 .012 0 .027-.003.043 0 .038-.006.083-.01.137a.516.516 0 0 1-.004.059c0 .018 0 .036-.003.056v.03c0 .011 0 .031-.003.047s0 .03 0 .045v.042c-.005.087-.011.181-.015.276v.091c0 .03 0 .06-.005.091V34.668c.002.063.006.126.015.188.006.046.01.095.013.144V35.368c-.015.203-.042.368-.046.394v.056c0 .014.003.033.005.054v.03c0 .01 0 .022.003.034.004.012 0 .011 0 .018 0 .02.004.043.006.066.003.023.006.048.007.073l.004.046c0 .023.005.046.006.07v.023c0 .016.004.031.005.048l.005.073c0 .016.004.032.005.048v.025l.008.096c0 .016 0 .031.003.047 0 .025.003.05.006.074.002.023 0 .054.004.079s.003.05.003.072a.998.998 0 0 1 0 .2c-.015.068-.065.256-.093.46 0 .02-.005.038-.007.057-.002.018 0 .021 0 .033l-.004.044c0 .035-.004.071-.004.106a.82.82 0 0 0 .027.237c.013.051.023.103.03.156 0 .008 0 .017.002.026 0 .019.005.038.006.059l.004.059c0 .041.004.084.006.127v.086a8.44 8.44 0 0 1-.011.556v.015s.059 1.05.122 1.386a1.434 1.434 0 0 1 .021.187c.008.194-.005.39-.04.581 0 0-.066.72-.094.72-.014 0-.075.112-.085.28v.004c-.008.188.05.446.31.7l.03.028.033-.013c.277-.099.551-.201.825-.306.145-.056.29-.112.436-.17.357-.142.712-.287 1.064-.437a.067.067 0 0 1-.034-.042c-.055-.145.026-.591.043-.66.017-.068.17-1.526.17-1.526s-.06-.459.019-.655c.078-.196-.095-.956-.095-.956s-.06-.093.047-.205c.107-.113.066-1.114.066-1.114s-.009-.506-.009-.638c0-.13.113-.608.216-.768.103-.16.039-.656.039-.656l.006-.038c0-.014.004-.032.008-.053l.009-.05c.045-.274.106-.545.183-.812.123-.394.264-1.086.264-1.086l.825-2.211.027-.07.01-.026s.405.75.405 1.442c0 0 .104.833.076 1.058-.028.225.085 1.283.085 1.283s.121 1.517.121 1.582c0 .065.152 1.232.246 1.41.095.177-.094.72-.15.777-.057.056.019 1.433.019 1.433s-.143 1.085-.17 1.31l-.023.177a41.415 41.415 0 0 0 2.903-1.521l.006-1.344s.066-.627-.01-.88c-.075-.254-.15-.74-.046-.87.104-.132.01-.74.01-.74s0-1.283.14-1.6c.142-.319.095-2.332.095-2.332l.037-1.32s.301-.285.237-1.761v-.05c.329-.021.7-.033.755.013.09.072.596.4.988.318a.48.48 0 0 0 .18-.075c.086-.038.474-.365.474-.365l-.15-2.526-.016-.28c.028.042.053.08.074.117.06.09.092.145.092.145 0-.393 1.113-1.666 1.113-1.666s1.037-1.339 1.263-1.498c.226-.16.67-1.002.67-1.002.065-.161.14-.317.226-.468.1-.17-.24-.62-.203-.723zm-3.319 1.797a.587.587 0 0 1-.125.253l-.014-.174v-.015c-.066-.824-.137-1.82-.105-1.918.027-.078.036-.285.04-.484.003-.226 0-.442 0-.442l.01-.014c.19.59.78 1.28.78 1.28s.105.3.227.309c.122.01.075.393.075.393a.446.446 0 0 0-.16.06 1.409 1.409 0 0 0-.167.112c-.271.206-.554.544-.56.64z"/>
            <path fill="#65617D" d="M48.506 21.225s.344-1.803 1.45-1.813l.808 1.664-.544.37s-1.168.036-1.714-.221z"/>
            <path fill="#000" d="M50.761 21.073l-.54.372s-.825.026-1.414-.118a1.614 1.614 0 0 1-.301-.102s0-.01.006-.03v-.006a4.103 4.103 0 0 1 .323-.91c.162-.312.39-.617.701-.768a.959.959 0 0 1 .368-.097h.049l.019.037.273.562.516 1.06z" opacity=".1"/>
            <path fill="#65617D" d="M59.942 28.563s1.162-.111 1.264-.028c.102.083.762.511 1.152.242.391-.27.13-1.208.13-1.246 0-.037-.037-1.366-.037-1.366l-.697-.938-.873-1.645-1.784-.177.046 2.611-.009 1.339.808 1.208z"/>
            <path fill="#000" d="M59.942 28.563s1.162-.111 1.264-.028c.102.083.762.511 1.152.242.391-.27.13-1.208.13-1.246 0-.037-.037-1.366-.037-1.366l-.697-.938-.873-1.645-1.784-.177.046 2.611-.009 1.339.808 1.208z" opacity=".1"/>
            <path fill="#A5636D" d="M49.72 19.364s-.091 1.134-.8 1.151c0 0-.2-.118-.47-.322-.62-.464-1.604-1.356-1.332-2.187.39-1.189 2.285 1.005 2.285 1.005l.146.163.172.19z"/>
            <path fill="#000" d="M49.72 19.364s-.091 1.134-.8 1.151c0 0-.2-.118-.47-.322l-.059-.077c.12.063.252.098.387.104a.519.519 0 0 0 .506-.318c.074-.146.14-.296.195-.45.034-.09.058-.184.071-.279l.17.191z" opacity=".1"/>
            <path fill="#E7EFFD" d="M49.414 21.417l-.16-.204-.531-.689-.276-.351c.12.062.251.098.386.104.178.004.378-.06.506-.319a3.99 3.99 0 0 0 .195-.45c.088-.25.087-.38.055-.423-.03-.044.198.168.308.273l.004.004.05.048.02.038.27.538v.023c.024.17.114 1.255-.827 1.408z"/>
            <path fill="#3F3D56" d="M54.808 41.971a.27.27 0 0 0-.056-.036h-.004c-.111-.047-.01-.623.01-.698.018-.074.166-1.512.166-1.512s-.055-.454.02-.65c.074-.196-.094-.946-.094-.946s-.056-.092.047-.204c.102-.112.065-1.106.065-1.106s-.01-.501-.01-.632c0-.13.112-.603.214-.762.102-.158.037-.65.037-.65l.006-.038.008-.052.009-.05c0-.011.004-.024.006-.037l.018-.097.013-.066a10.669 10.669 0 0 1 .085-.394l.014-.054a16.419 16.419 0 0 0 .305-1.235l.864-2.27.01-.027.027.053c.09.182.372.8.372 1.378 0 0 .103.827.074 1.05-.028.222.084 1.273.084 1.273s.119 1.505.119 1.57c0 .065.149 1.227.241 1.403.093.176-.092.716-.149.768-.056.053.02 1.422.02 1.422l-.169 1.3c-.005.054-.017.143-.03.253l.072-.034.01-.005a41.415 41.415 0 0 0 2.784-1.455l.008-1.425s.065-.623-.009-.873-.149-.734-.047-.865c.102-.13.01-.733.01-.733s0-1.274.139-1.59c.139-.315.093-2.313.093-2.313l.037-1.31s.303-.29.232-1.798c-.008-.16-.02-.335-.036-.525a99.13 99.13 0 0 0-.164-1.644c-.004-.05-.01-.099-.015-.146l-.032-.29a103.143 103.143 0 0 0-.053-.447l-.015-.128-.022-.173c0-.013-.003-.026-.005-.04 0-.023-.005-.045-.008-.067-.031-.241-.05-.373-.05-.373h-.008l-.934.008-2.04.02h-.06l-1.064.01h-.065l-.51.005h-.087l-1.064.01h-.064l-.437 1.8-.892 2.045s-.014.224-.045.443v.013c0 .007 0 .014-.004.02-.003.007-.003.023-.005.034-.012.1-.038.196-.075.289a.722.722 0 0 0-.06.204c-.01.075-.015.15-.013.226v.013s-.07.322-.112.596a2.691 2.691 0 0 0-.019.15.953.953 0 0 0-.008.174.971.971 0 0 1-.007.177c0 .022-.004.043-.007.065-.03.218-.088.461-.088.461l-.168 1.618V33.144c0 .013 0 .027-.003.043 0 .038-.006.084-.01.137a.516.516 0 0 1-.004.059c0 .018 0 .037-.003.056v.03c0 .012 0 .032-.003.048s0 .03 0 .045v.042c-.005.086-.011.18-.015.276v.091c0 .03 0 .059-.004.09v.607c0 .066.005.132.014.197.006.044.01.09.013.135V35.368c-.014.203-.042.368-.046.394v.056c0 .014.003.033.005.054v.03c0 .01 0 .022.004.034.003.012 0 .011 0 .018 0 .02.003.043.006.066l.007.073.003.046c0 .023.005.046.007.07v.023c0 .016.003.031.004.048l.006.073c0 .016.003.032.004.048v.025l.008.096c0 .016 0 .031.003.047 0 .025.004.05.006.074.002.023 0 .054.004.079s.003.05.004.072c.006.065.006.13 0 .194-.04.154-.07.31-.093.467 0 .018-.005.037-.007.056v.033l-.003.044c0 .035-.004.071-.004.106a.814.814 0 0 0 .026.223 1.836 1.836 0 0 1 .043.314l.005.128v.085c.004.281-.012.55-.012.55v.011c.006.119.06 1.05.119 1.364a1.419 1.419 0 0 1 .023.22c.005.181-.01.363-.042.542 0 0-.087.722-.114.722-.015 0-.086.131-.084.323v.005c0 .181.07.414.307.65l.066.067c.277-.1.551-.202.825-.307.145-.056.29-.112.435-.17.358-.141.713-.287 1.064-.436l.021-.014z"/>
            <path fill="#A5636D" d="M59.682 14.048l-1.375 1.47s-1.765-.71-1.58-.946c.072-.094.06-.389.02-.714-.066-.515-.205-1.108-.205-1.108s3.084-.502 2.824.019c-.095.19-.079.414-.02.617.076.237.19.46.336.662z"/>
            <path fill="#000" d="M59.366 12.766c-.095.19-.14.208-.081.414-.403.433-.916.906-1.554.906-.342 0-.679-.078-.985-.23-.065-.515-.204-1.108-.204-1.108s3.084-.502 2.824.018z" opacity=".1"/>
            <path fill="#A5636D" d="M59.943 11.818a2.212 2.212 0 1 1-4.424 0v-.032a2.212 2.212 0 0 1 4.423.032z"/>
            <path fill="#000" d="M60.262 26.408c-.295 0-1.268.011-2.358.028h-.014l-.36.006h-.01c-1.293.02-2.567-.232-3.078-.184-1.088.102.39-1.005.39-1.005.81.197 1.643.281 2.476.251l.313-.017c.988-.055 1.98-.148 2.5-.304.036.289.088.706.141 1.225z" opacity=".1"/>
            <path fill="#5F5D7E" d="M60.262 26.353c-.295 0-1.268.01-2.358.028h-.014l-.36.006h-.01c-1.293.02-2.567-.232-3.078-.184-1.088.101.39-1.005.39-1.005.81.196 1.643.28 2.476.25l.313-.016c.988-.056 1.98-.149 2.5-.304.036.288.088.707.141 1.225z"/>
            <path fill="#000" d="M57.136 14.664l-1.71.799-1.319 10.2s.78-.354 1.226-.13c.447.225 1.822.02 1.822.02s1.004-.06 1.152.055c.147.115 1.896-.465 1.896-.465s.315-.706.074-.817c-.242-.111.074-1.21.074-1.21l-.148-7.36-.296-.945-.799-.483-.817.65-.39.056-.765-.37z" opacity=".1"/>
            <path fill="#E7EFFD" d="M57.136 14.55l-1.71.8-1.319 10.202s.78-.354 1.226-.13c.447.225 1.822.019 1.822.019s1.004-.056 1.152.055c.147.111 1.896-.464 1.896-.464s.315-.706.074-.818c-.242-.111.074-1.208.074-1.208l-.148-7.36-.296-.945-.799-.484-.817.65-.39.056-.765-.373z"/>
            <path fill="#000" d="M57.108 15.024s.493.585.483.707c-.01.12-.027.408-.027.408l-.37.753s-.204.939-.204 1.134c0 .195-.325 1.886-.325 1.886l-.39 2.6-.493 3.411.502.864.595-.502.789-6.076.167-1.199s.177-2.155.177-2.378c0-.223-.102-.809-.102-.809s.121-.557.623-.687-.037-.028-.037-.028l-.288-.233-.251.103s-.7-.214-.85.046z" opacity=".1"/>
            <path fill="#0DA176" d="M57.052 14.969s.493.585.484.705c-.01.121-.029.41-.029.41l-.371.753s-.205.938-.205 1.133c0 .195-.325 1.886-.325 1.886l-.39 2.601-.493 3.41.502.864.594-.502.79-6.075.167-1.2s.177-2.155.177-2.378c0-.224-.102-.808-.102-.808s.118-.558.622-.688c.504-.13-.036-.028-.036-.028l-.289-.232-.25.102s-.697-.214-.846.047z"/>
            <path fill="#000" d="M56.727 13.993s-.074.055-.093.427c-.018.372-.279 1.208-.279 1.208s.967-.669 1.45-.594l-1.078-1.041z" opacity=".1"/>
            <path fill="#E7EFFD" d="M56.727 13.881s-.074.056-.093.428c-.018.37-.279 1.208-.279 1.208s.967-.67 1.45-.595l-1.078-1.04z"/>
            <path fill="#000" d="M59.366 13.696l-1.521 1.338s1.283.762 1.45.945c.167.184.334-1.82.334-1.82l-.263-.463z" opacity=".1"/>
            <path fill="#E7EFFD" d="M59.422 13.584l-1.524 1.338s1.282.762 1.45.946c.167.184.334-1.822.334-1.822l-.26-.462z"/>
            <path fill="#000" d="M56.781 13.993s-.167-.084-.325.158c-.158.241-.455.354-.455.354s-1.692.27-1.757.493l-.79.046s-.279.033-.305.625c-.026.59-.177.64-.177.64s-.326.577-.295.874c.03.297-.252.446-.252.446l1.164 3.017s.037 1.245-.177 1.7c-.215.456-.614 2.472-.614 2.472s.168-.037.158.075c-.01.112-.204 1.329-.204 1.329s-.056.482-.149.65c-.093.167-.102 1.04-.102 1.04l-.153.633s.355.79.892.677c.538-.111 1.515-2.22 1.515-2.22l.622-2.276.484-2.25.14-1.523.222-3.373.325-2.23s.365-1.2.233-1.357z" opacity=".1"/>
            <path fill="#65617D" d="M56.727 13.881s-.167-.083-.325.159c-.158.241-.456.354-.456.354s-1.69.27-1.756.493l-.79.046s-.278.038-.306.623c-.028.585-.177.641-.177.641s-.326.576-.296.874c.03.297-.25.445-.25.445l1.16 3.018s.036 1.246-.178 1.7c-.215.456-.613 2.473-.613 2.473s.167-.038.158.074c-.01.112-.205 1.329-.205 1.329s-.055.483-.148.65c-.093.167-.102 1.04-.102 1.04l-.148.636s.354.79.892.678c.537-.11 1.515-2.22 1.515-2.22l.622-2.277.483-2.246.14-1.524.223-3.373.325-2.23s.362-1.204.232-1.363z"/>
            <path fill="#000" d="M50.761 21.073l-.54.372s-.825.026-1.414-.118l-.3-.133-.059-.027.062.02c.311.092.554.09.744.026.763-.256.678-1.516.65-1.8 0-.029-.005-.047-.006-.054v-.004l.005.007a.338.338 0 0 0 .069.085l.269.539v.022l.52 1.065z" opacity=".1"/>
            <path fill="#65617D" d="M52.63 17.442l-.26.074-.038.532s-.307-.046-.39.316c-.083.363-.232.532-.232.532s-.512.428-.54.79l-.316.195s-.734-.167-.901-.464c0 0 .334 2.397-1.45 1.812 0 0 1.998.873 2.091.994.093.12.707.473 1.264.177.557-.295.678-.762.678-.762s.54-.752.558-.864c.018-.111.437-.241.437-.241l.799-1.933-1.7-1.158z"/>
            <path fill="#000" d="M59.152 14.81l.27-1.226s.118.4.242.492c.123.093.4.307.4.307s.399.186.538.186.892.195.985.296c.093.1.465.027.465.027s.306.103.576.168c.27.065.4.511.343.687a.537.537 0 0 0 .13.502c.112.112.168.473.168.473.136.044.25.141.316.27.093.204.065.65.065.65l-1.384 1.95s.018.753-.038.92c-.055.167.195 3.01.195 3.01l.288 4.888s-.38.325-.464.363c-.084.037-.168-1.729-.168-1.794 0-.065-2.146-3.215-2.146-3.215s-.288-.465-.288-.567c0-.102-.27-1.04-.27-1.04l-.407-1.808.184-5.539z" opacity=".1"/>
            <path fill="#65617D" d="M63.765 17.538c0 .064-.003.107-.003.107l-1.384 1.95s.019.753-.037.92c-.032.097.039 1.097.104 1.918.047.591.091 1.093.091 1.093l.122 2.073.166 2.815s-.381.325-.464.362c-.084.037-.168-1.728-.168-1.794 0-.065-2.148-3.216-2.148-3.216s-.288-.465-.288-.567c0-.102-.27-1.041-.27-1.041l-.408-1.812.186-5.538.158-1.227s.232.4.355.493c.122.092.399.307.399.307s.4.186.539.186c.14 0 .892.195.985.295.093.1.464.028.464.028s.307.102.576.167c.27.065.4.512.344.688a.536.536 0 0 0 .13.502c.111.11.168.472.168.472.136.045.25.142.316.27.063.147.069.404.067.55z"/>
            <path fill="#000" d="M53.723 42.416c-.144.06-.29.114-.435.17-.456-.132-.882-.289-.882-.289.441.016.88.056 1.317.12zM58.121 37.456s1.106.26 1.17.436l-1.17-.436zM53.856 38.255s-.577.167-.019.501c.558.335.019-.501.019-.501zM56.411 29.322c.065 0 1.078-.334 1.431-.185.353.149.79.148.79.148l-2.221.037zM56.545 30.386l-.01.093-.867 2.266s-.14.687-.26 1.077a7.065 7.065 0 0 0-.182.807l.769-4.756.55.513z" opacity=".1"/>
            <path fill="#3F3D56" d="M57.89 26.38l-.36.007h-.01l-.212-.937c.104-.005.208-.01.313-.017l.27.948z"/>
            <path fill="#A5636D" d="M62.274 25.244l-.23.19-.77.637s-2.091 1.116-2.667.056c-.508-.933 1.862-1.6 2.433-1.745l.122-.03 1.112.892z"/>
            <path fill="#000" d="M53.345 16.111s.409.186.501.447c.093.26-.5-.447-.5-.447zM52.08 18.9s-.594.724-.354 1.004.355-1.005.355-1.005zM62.711 16.52s-.557.056-.576.54l.576-.54zM57.545 24.14c.059-.056 1.338-1.95 1.635-1.784l-1.635 1.784zM59.943 11.818c0 .365-.09.723-.262 1.044h-.017c-.14-.03-.213-.193-.32-.295a.436.436 0 0 0-.501-.07.509.509 0 0 0-.247.476c-.07-.295-.048-.614-.118-.912-.07-.298-.277-.6-.562-.605-.123 0-.266.045-.355-.047-.054-.055-.064-.143-.104-.21-.204-.33-.824-.163-1.077.006-.253.17-.547.439-.861.584a2.212 2.212 0 0 1 4.423.032v-.003z" opacity=".1"/>
            <path fill="#4C3E42" d="M57.457 11.14c.04.068.051.156.105.211.088.092.231.045.354.047.285.005.493.307.563.605.069.298.046.614.118.912a.509.509 0 0 1 .246-.477.434.434 0 0 1 .501.07c.107.102.178.265.32.296.144.031.276-.105.327-.253.05-.148.047-.31.08-.463.063-.29.252-.527.355-.803a1.454 1.454 0 0 0-.01-1.038c-.07-.177-.173-.331-.244-.506-.106-.265-.135-.563-.265-.815-.219-.423-.734-.634-1.157-.473-.202.076-.378.223-.583.289-.274.088-.568.022-.852-.018-.285-.04-.599-.043-.828.144-.263.215-.335.62-.582.856-.104.099-.233.162-.342.254-.11.091-.204.228-.192.377.017.193.205.367.136.545a.43.43 0 0 1-.104.136 1.95 1.95 0 0 0-.45.766c.498.155 1.036-.393 1.425-.65.256-.174.876-.34 1.08-.011z"/>
            <path fill="#000" d="M62.274 25.244l-.23.19c-.205-.339-1.042-1.018-1.042-1.018l.036-.034c.077-.02.122-.03.122-.03l1.114.892z" opacity=".1"/>
            <path fill="#E7EFFD" d="M62.498 24.902s-.083.207-.17.386c-.085.179-.177.34-.184.209-.01-.26-1.087-1.134-1.087-1.134l.146-.142.17-.165 1.125.846z"/>
            <path fill="#000" d="M62.535 23.526l.122 2.074c-.289-.449-1.081-1.6-1.59-1.562l1.235-1.419a1.59 1.59 0 0 0 .142-.182c.047.59.091 1.09.091 1.09z" opacity=".1"/>
            <path fill="#000" d="M62.498 24.902s-.083.207-.17.386c-.323-.445-.768-.97-1.122-1.067l.17-.165 1.122.846z" opacity=".1"/>
            <path fill="#65617D" d="M63.427 17.383l.335.26s.557.01.613.473c.055.463.566.678.566.678s.382.38.382.558c0 .176.287.492.287.52 0 .027.28.594.242.697-.037.102.296.548.195.715-.084.15-.158.306-.223.465 0 0-.436.836-.66.994-.223.158-1.245 1.487-1.245 1.487s-1.096 1.263-1.096 1.655c0 0-1.069-1.785-1.7-1.738l1.235-1.422s.214-.232.223-.371c.01-.14.595-.781.874-.809 0 0 .046-.381-.075-.39-.12-.009-.223-.307-.223-.307s-.818-.966-.827-1.58c-.01-.613 1.097-1.885 1.097-1.885z"/>
            <path fill="#000" d="M63.92 18.27s-.781.575-.614.761c.167.186.613-.762.613-.762zM63.957 20.646s1.449-.465 1.596 0h-1.596zM53.73 18.156s0 2.118-.181 2.327c-.181.21.181-2.327.181-2.327zM62.107 18.838l.27.758s.107-.743-.27-.758z" opacity=".1"/>
            <g fill="#000" opacity=".1">
                <path d="M55.54 10.717c.068-.175-.11-.346-.134-.532a.355.355 0 0 0-.03.167c.012.142.119.273.144.404a.236.236 0 0 0 .02-.04zM58.621 12.718c-.067-.296-.047-.604-.115-.896-.067-.293-.277-.6-.562-.605-.123 0-.266.045-.354-.047-.054-.056-.065-.143-.105-.21-.203-.33-.823-.163-1.076.006-.38.252-.902.78-1.39.661a2.119 2.119 0 0 0-.063.172c.497.155 1.035-.393 1.425-.65.253-.169.872-.336 1.076-.006.04.067.051.155.105.21.088.092.231.044.354.047.285.005.493.307.563.604.069.298.046.615.118.913a.505.505 0 0 1 .024-.2zM60.018 12.37c-.05.147-.183.282-.326.252-.143-.03-.213-.193-.32-.295a.436.436 0 0 0-.502-.07.505.505 0 0 0-.246.45.485.485 0 0 1 .219-.27.434.434 0 0 1 .5.071c.108.102.178.265.321.296.143.03.276-.106.327-.253a1.3 1.3 0 0 0 .05-.268.831.831 0 0 1-.023.086zM60.455 11.104c-.105.275-.295.513-.355.802-.013.06-.02.119-.027.178.064-.289.252-.526.355-.8.047-.124.075-.254.086-.386-.014.07-.034.139-.059.206z"/>
            </g>
            <circle cx="47.053" cy="17.836" r="1" fill="#E6E8EC"/>
            <path fill="#0DA176" d="M28.45 30.778s.651-.466 1.327-.177c0 0-.19.4-1.029.395l-.297-.218zM28.37 30.805s-.174.782.354 1.29c0 0 .296-.332-.04-1.102l-.314-.188zM27.508 30.094s.024-.66 1.52-.5c0 0 .023.426-.491.647-.515.221-.76.06-1.029-.147zM27.416 30.09s-.62.227-.007 1.6c0 0 .414-.11.464-.667.05-.557-.176-.738-.457-.932zM26.54 29.191s-.127-1.08 1.397-1.027c0 0 .145.976-1.12 1.277l-.278-.25zM25.488 28.007s.162-1.236 1.694-.928c0 0 .046 1.064-1.435 1.21l-.259-.282zM24.706 26.77s.303-1.212 1.821-.908c0 0-.316 1.088-1.714 1.123l-.107-.215zM23.962 25.562s.296-1.254 1.76-.937c0 0-.44 1.198-1.655 1.145l-.105-.208zM23.467 24.406s.204-1.526 1.573-1.244c0 0-.34 1.396-1.463 1.461l-.11-.217zM22.992 23.005s.256-1.542 1.642-1.15c0 0-.481 1.467-1.537 1.36l-.105-.21zM22.68 21.698s.442-1.55 1.503-1.55c0 0-.449 1.636-1.402 1.853l-.1-.303zM22.466 20.415s.473-1.862 1.34-1.753c0 0-.321 1.422-1.3 2.039l-.04-.286zM22.313 18.882s.45-1.555 1.3-1.648c0 0-.289 1.523-1.265 2.045l-.035-.397zM22.155 17.454s.577-1.56 1.138-1.616c0 0-.218 1.523-1.072 1.866l-.066-.25zM22.034 16.124s.326-1.684.883-1.843c0 0-.025 1.367-.822 1.966l-.061-.123zM21.755 14.388s.36-1.346.808-1.565c0 0-.03 1.57-.69 1.886l-.118-.32zM21.536 13.25l-.173-2.343s.917 1.738.25 2.752l-.077-.41zM20.79 10.944s-.678-1.69-.828-1.779c0 0 1.241 1.064 1.182 2.498l-.355-.72zM26.497 29.185s-1.083-.1-.992 1.422c0 0 .98.118 1.25-1.15l-.258-.272zM25.436 27.968s-1.246.043-1.084 1.596c0 0 1.052.146 1.34-1.314l-.256-.282zM24.698 26.872s-1.15-.487-1.822.908c0 0 1.061.402 1.93-.691l-.108-.217zM23.937 25.574s-1.179-.52-1.807.843c0 0 1.222.37 1.91-.635l-.103-.208z"/>
            <path fill="#0DA176" d="M23.483 24.439s-1.154-1.021-2.002.089c0 0 1.172.831 2.063.146l-.06-.235zM23.054 22.967s-1.162-1.046-2 .126c0 0 1.292.845 2.049.1l-.049-.226zM22.794 21.648s-.915-1.325-1.92-.983c0 0 .95 1.404 1.923 1.3l-.003-.317zM22.491 20.406s-.936-1.679-1.747-1.35c0 0 .678 1.292 1.78 1.637l-.033-.287zM22.37 18.792s-.946-1.313-1.777-1.116c0 0 .782 1.337 1.878 1.502l-.102-.386zM22.249 17.42s-.751-1.484-1.315-1.477c0 0 .39 1.488 1.277 1.732l.038-.254zM22.06 16.09s-.827-1.501-1.408-1.482c0 0 .445 1.294 1.387 1.618l.021-.136zM21.882 14.477s-.625-1.245-1.107-1.37c0 0 .347 1.533 1.057 1.709l.05-.339z"/>
            <path fill="#0DA176" d="M21.466 13.207l-1.363-1.912s.404 1.922 1.565 2.278l-.202-.366zM20.5 11.113s-1.536-.976-1.596-1.14c0 0 .82 1.418 2.24 1.618l-.644-.478zM20.393 10.652s-1.782-1.586-2.22-1.568c0 0 1.418.01 2.258 1.478l-.038.09z"/>
            <path fill="#444053" d="M21.875 14.723l-.063.01c-.42-2.515-.945-3.99-1.486-4.155l.018-.059c.572.173 1.1 1.627 1.531 4.204z"/>
            <path fill="#444053" d="M22.58 20.748l-.093.012a18.83 18.83 0 0 1-.073-.716c-.17-2.09-.384-4.005-.623-5.438l.052-.07c.237 1.436.495 3.408.666 5.497.019.242.044.482.072.715z"/>
            <path fill="#444053" d="M30.262 31.914c-.017-.007-1.71-.686-3.507-2.394a13.735 13.735 0 0 1-2.627-3.435c-.861-1.596-1.425-3.577-1.663-5.513l.1.042c.532 4.346 2.633 7.25 4.273 8.81 1.779 1.693 3.453 2.365 3.47 2.373l-.046.117z"/>
            <g opacity=".7">
                <path fill="#0DA176" d="M31.439 29.986s.76-.251 1.318.224c0 0-.3.327-1.1.072l-.218-.296zM31.353 29.987s-.398.695-.044 1.337c0 0 .38-.228.29-1.064l-.246-.273zM30.742 29.052s.22-.623 1.596-.024c0 0-.104.414-.661.473s-.74-.17-.935-.449zM30.656 29.027s-.66.031-.483 1.524c0 0 .425.02.64-.497.216-.517.052-.764-.157-1.027zM30.085 27.904s.201-1.069 1.64-.565c0 0-.152.975-1.448.886l-.192-.321zM29.434 26.459s.522-1.132 1.892-.382c0 0-.271 1.026-1.73.729l-.162-.347zM29.056 25.045s.65-1.067 2.01-.325c0 0-.627.945-1.971.565l-.04-.24zM28.705 23.67s.654-1.11 1.96-.37c0 0-.777 1.012-1.923.6l-.037-.23zM28.577 22.42s.65-1.398 1.87-.72c0 0-.74 1.231-1.832.96l-.038-.24zM28.54 20.94s.703-1.395 1.91-.608c0 0-.897 1.257-1.873.838l-.038-.23zM28.632 19.599s.882-1.348 1.895-1.032c0 0-.916 1.428-1.892 1.351l-.003-.32zM28.808 18.312s1.005-1.638 1.801-1.275c0 0-.73 1.261-1.847 1.56l.046-.285zM29.119 16.802s.892-1.35 1.73-1.187c0 0-.728 1.369-1.817 1.577l.087-.39zM29.392 15.393s1.015-1.32 1.567-1.206c0 0-.661 1.39-1.578 1.464l.01-.258zM29.671 14.086s.813-1.51 1.392-1.497c0 0-.43 1.3-1.37 1.633l-.022-.136zM29.923 12.346s.743-1.177 1.236-1.255c0 0-.496 1.492-1.22 1.596l-.016-.34zM30.051 11.193l.532-2.287s.36 1.931-.579 2.703l.047-.416zM30.025 8.77s-.144-1.814-.262-1.944c0 0 .87 1.386.384 2.736l-.122-.792zM30.047 27.884s-1.005-.418-1.37 1.064c0 0 .9.407 1.537-.727l-.167-.337zM29.396 26.405s-1.202-.328-1.51 1.204c0 0 .96.453 1.671-.855l-.161-.349zM29.018 25.14s-.954-.807-2.01.326c0 0 .893.699 2.048-.087l-.038-.24zM28.677 23.675s-.97-.847-1.976.269c0 0 1.057.715 2.013-.039l-.037-.23zM28.582 22.456s-.798-1.319-1.937-.511c0 0 .87 1.143 1.925.753l.012-.242z"/>
                <path fill="#0DA176" d="M28.61 20.922s-.799-1.343-1.95-.473c0 0 .982 1.191 1.927.705l.023-.232zM28.753 19.586s-.479-1.537-1.54-1.51c0 0 .49 1.624 1.448 1.816l.092-.306zM28.834 18.31s-.394-1.88-1.266-1.808c0 0 .263 1.435 1.213 2.092l.053-.284zM29.199 16.732s-.513-1.536-1.365-1.595c0 0 .35 1.51 1.346 1.993l.019-.398zM29.491 15.388s-.275-1.641-.816-1.801c0 0-.07 1.537.705 2.034l.111-.233zM29.71 14.061s-.345-1.68-.903-1.832c0 0 .039 1.367.843 1.957l.06-.125zM30.017 12.47s-.226-1.375-.65-1.639c0 0-.125 1.567.5 1.946l.15-.308z"/>
                <path fill="#0DA176" d="M29.997 11.133L29.265 8.9s-.186 1.956.816 2.642l-.084-.41zM29.699 8.846s-1.177-1.39-1.183-1.564c0 0 .36 1.596 1.655 2.212l-.472-.648zM29.733 8.374s-1.229-2.045-1.655-2.158c0 0 1.352.433 1.714 2.083l-.06.075z"/>
                <path fill="#444053" d="M29.937 12.701l-.063-.008c.348-2.526.283-4.092-.183-4.41l.036-.052c.494.336.566 1.881.21 4.47z"/>
                <path fill="#444053" d="M28.818 18.664l-.093-.017a16.4 16.4 0 0 1 .144-.706c.458-2.044.827-3.937 1.023-5.379l.07-.05a68.822 68.822 0 0 1-1.001 5.448c-.052.236-.1.472-.143.704z"/>
                <path fill="#444053" d="M32.83 31.61c-.015-.012-1.43-1.165-2.636-3.33a13.718 13.718 0 0 1-1.489-4.061c-.348-1.78-.296-3.842.053-5.758l.083.07c-.783 4.308.355 7.705 1.458 9.683 1.195 2.145 2.593 3.285 2.607 3.297l-.076.098z"/>
            </g>
            <path fill="url(#d)" d="M18.704 26.164c-.139.058-.283.1-.43.13a4.33 4.33 0 0 1-.783.073l.02.192c.014.16.022.271.022.271l-.277-.019-2.286-.156-1.337-.198c.064.087.134.17.21.247.077.082.167.152.267.207 0 0 1.206.977 1.415.986.03 0 .039.03.034.077.508 0 2.086.073 1.648.952a.7.7 0 0 1-.358.35c-.507.214-1.271-.172-1.665-.409a9.23 9.23 0 0 1-.107.205c-.067.126-.114.209-.114.209l-.04-.028-2.028-1.445-.445-.377a1.551 1.551 0 0 1-.384-.067l-.06-.019a.827.827 0 0 0-.043.158l.001.021c-.008.055-.014.11-.017.166l-.002.119c-.004.805.319 2.099.319 2.099s.836 2.133.54 2.625a.222.222 0 0 1-.06.064c-.104.076-.167.21-.2.37-.11.523.084 1.32.084 1.32l-.048.076a2.286 2.286 0 0 1-.259.338 1.03 1.03 0 0 1-.118.107l.024.072a1.441 1.441 0 0 1-.047.97c-.077.2-.127.41-.149.624a4.78 4.78 0 0 0 .03 1.177l-.025-.014a45.844 45.844 0 0 1-2.488-1.398 49.416 49.416 0 0 1-1.562-.98l-.139-.093-.053-.036c-.075-.05-.149-.1-.223-.152-.306-.395-.585-.81-.836-1.24a3.79 3.79 0 0 1-.111-.213v-.004l-.02-.043-.084-.03c-.156-.054-.256-.093-.256-.093a2.9 2.9 0 0 0 .103-.81c-.005-.531-.152-1.24-.758-1.81-.896-.846-1.02-1.683-1.033-2.004v-.059c0-.027.001-.054.004-.08l.068-.066a3.837 3.837 0 0 0-.337-.051s.595-2.152 1.596-2.87c.497-.355.91-.946 1.202-1.453a22.02 22.02 0 0 1 1.79-2.624l.18-.227.053-.067.01-.013.015-.02a5.37 5.37 0 0 0-.074-.11l-.017-.024c-.079-.118-.146-.236-.135-.377v-.004-.03a.454.454 0 0 1 .013-.07.067.067 0 0 0 .007.01c.084-.246.41-.354.65-.49.566-.318.807-1.014.928-1.661.094-.504.172-1.068.562-1.392.252-.208.591-.276.846-.482.147-.13.27-.287.36-.462.058-.1.11-.205.164-.305.252-.455.583-.878 1.02-1.15.439-.273.994-.38 1.474-.196.185.07.355.177.532.256.11.045.223.08.339.105.36.085.74.107 1.08.257.551.245.91.786 1.238 1.3.17.267.436.656.587 1.047v-.04a1.5 1.5 0 0 1 .118.543.828.828 0 0 1-.025.236c-.054.201-.193.328-.368.422l-.027.013c-.038.02-.076.037-.115.052a2.586 2.586 0 0 1-.056.237c-.126.422-.372.799-.709 1.084-.233.2-.502.352-.793.449l-.063.019a.51.51 0 0 1-.075.138.398.398 0 0 1-.155.12c-.213.095-.505.02-.71-.123l-.03-.023a1.68 1.68 0 0 1-.028.196c-.007.03-.009.045-.013.067a2.955 2.955 0 0 1-.01.053l-.008.03a4.643 4.643 0 0 1-.658 1.602c-.046.07-.096.138-.15.202l-.146.223v.03c.027.515-.142.994-.38 1.407a4.1 4.1 0 0 1-.264.395l.034.02c.33.188.983.523 1.396.495 0 0 1.56.202 1.741.1.025-.014.049.006.072.048.252-.154.832-.48 1.29-.523.32-.03.581.076.63.473.048.397-.19.653-.525.796z"/>
            <path fill="#FBBEBE" d="M10.162 34.292c.203.345.234.765.086 1.137-.144.36-.16.808-.145 1.138a56.281 56.281 0 0 1-1.23-.742 49.416 49.416 0 0 1-.887-.567l-.139-.092-.053-.036a.111.111 0 0 0-.017-.024c-.08-.084-.541-.746-.815-1.248a3.638 3.638 0 0 1-.127-.256v-.004c-.06-.131-.087-.236-.07-.284a.583.583 0 0 1 .287-.355c.34-.177.887-.013 1.427.247.465.235.91.507 1.332.812l.048.035.005.003c.177.126.28.21.28.21s.008.009.018.026z"/>
            <path fill="#000" d="M10.073 34.213c.202.346.234.766.085 1.138-.144.36-.16.809-.145 1.139a45.646 45.646 0 0 1-2.114-1.31l-.139-.092-.053-.036a.128.128 0 0 0-.017-.024c-.08-.083-.54-.745-.815-1.248a3.638 3.638 0 0 1-.127-.256v-.003c-.06-.132-.087-.237-.07-.285a.585.585 0 0 1 .287-.355c.34-.177.887-.013 1.427.247.465.235.91.507 1.332.812l.048.035.005.003c.177.126.28.21.28.21l.016.025z" opacity=".05"/>
            <path fill="#FBBEBE" d="M12.249 35.647c-.017.101-.045.2-.083.295-.066.172-.11.35-.135.532a4.7 4.7 0 0 0 .005 1.163 45.844 45.844 0 0 1-2.488-1.398c-.042-.315-.1-.592-.168-.66-.087-.092-.587-.806-.897-1.369-.04-.071-.075-.14-.107-.205v-.003a4.092 4.092 0 0 1-.036-.075c-.08-.172-.122-.305-.1-.37a.682.682 0 0 1 .243-.35c.524-.384 1.614.135 2.45.65l.021.012c.159.099.309.196.444.287l.078.053c.347.237.577.42.577.42a1.498 1.498 0 0 1 .186.454c.04.186.044.377.01.564z"/>
            <path fill="#000" d="M6.965 33.858c.43.15 1.064.349 1.409.354.036.001.071 0 .107-.005.243-.033.992.02 1.68.082.275.024.54.05.76.072l.55.06v-.213a13.614 13.614 0 0 0-.521-.34c-.84-.52-1.944-1.05-2.472-.664-.744-.36-1.5-.532-1.714.108-.025.083.065.294.2.546z" opacity=".1"/>
            <path fill="#5C5C8E" d="M4.9 28.904c.012.318.131 1.145.987 1.98 1.09 1.065.626 2.594.626 2.594s1.3.51 1.86.524c.037.002.072 0 .108-.005.336-.047 1.673.077 2.442.154l.55.06v-4.523l-6.025-1.464-.546.544c-.003.045-.004.09-.002.136z"/>
            <g fill="#000" opacity=".1">
                <path d="M11.375 34.154l.098.01v.049l-.55-.06a38.942 38.942 0 0 0-1.951-.157c.385-.034 1.659.083 2.403.158zM4.902 28.77l.546-.543.364.088-.454.456c-.003.045-.003.09 0 .136.011.318.13 1.145.986 1.98 1.091 1.064.626 2.594.626 2.594s1.076.422 1.692.51c-.059-.001-.118.002-.177.01a.667.667 0 0 1-.107.004c-.561-.014-1.861-.524-1.861-.524s.465-1.53-.626-2.593c-.86-.836-.98-1.663-.99-1.98a1.064 1.064 0 0 1 .001-.137z"/>
            </g>
            <path fill="#FBBEBE" d="M16.943 25.71s1.822-1.264 1.955-.127-1.955.978-1.955.978v-.851z"/>
            <path fill="#F7CDDD" d="M13.8 24.872s.986.65 1.531.611c0 0 1.49.2 1.663.1.173-.1.28 1.444.28 1.444l-2.448-.174-1.57-.239s-.785-.479-.785-.891c0-.413 1.33-.851 1.33-.851z"/>
            <path fill="#0DA176" d="M13.8 24.872s.986.65 1.531.611c0 0 1.49.2 1.663.1.173-.1.28 1.444.28 1.444l-2.448-.174-1.57-.239s-.785-.479-.785-.891c0-.413 1.33-.851 1.33-.851z"/>
            <path fill="#FBBEBE" d="M15.245 28.16s2.216-.091 1.72.94c-.497 1.033-2.176-.22-2.176-.22l.456-.72z"/>
            <path fill="#5C5C8E" d="M13.017 25.962s1.795-1.343 1.543-2.98c-.252-1.636-1.543 1.251-1.543 1.251v1.73z"/>
            <path fill="#FBBEBE" d="M13.514 18.545a2.27 2.27 0 0 0 1.711 2.2 2.305 2.305 0 0 0 .559.071c.254 0 .506-.044.745-.13a2.27 2.27 0 1 0-3.015-2.141z"/>
            <path fill="#000" d="M4.9 28.904c.203.037.455.106.455.21 0 .178 2.837 1.136 2.837 1.136s-.107.248.177.674c.284.426 2.59 2.873 2.59 2.873l-.007.072-.03.282-.14 1.349s.886-.32 1.17-.284c.092.011.192-.047.283-.132a1.36 1.36 0 0 0-.185-.454s-.23-.18-.577-.42v-4.522l-6.025-1.464-.546.544c-.003.045-.004.09-.002.136z" opacity=".1"/>
            <path fill="#0DA176" d="M4.645 28.654s.709.07.709.248 2.837 1.136 2.837 1.136-.106.247.178.673c.283.427 2.59 2.874 2.59 2.874l-.177 1.702s.886-.32 1.17-.284c.127.016.267-.101.383-.236.096-.114.182-.236.256-.365 0 0-.32-1.349.107-1.668.426-.32-.461-2.66-.461-2.66s-.402-1.664-.284-2.378a.868.868 0 0 1 .035-.14c0-.006.003-.011.005-.016.253-.682 2.974-6.405 2.974-6.405a4.073 4.073 0 0 0-.055-.623 2.376 2.376 0 0 0-.107-.409c-.084-.216-.212-.382-.405-.386 0 0-.213-.237-.71-.3-.366-.047-.886 0-1.595.3-1.667.71-2.057.745-2.057.745L9.2 21.559l-.173.226a21.71 21.71 0 0 0-1.709 2.594c-.279.501-.674 1.086-1.147 1.437-.958.71-1.526 2.838-1.526 2.838z"/>
            <path fill="#000" d="M10.862 24.552s-2.368.586-3.286 2.062l3.286-2.062zM10.13 27.146s-.448 3.006-.323 3.233c.124.226.323-3.233.323-3.233zM10.29 28.69c.173.225.872 1.968.872 1.968l-.202 2.927-.178 1.702s.887-.32 1.171-.284c.127.016.268-.1.383-.236-.184-.997-.578-3.083-.65-3.123-.094-.054-.573-1.73-.598-2.196-.025-.466-.692-1.515-.692-1.515s-.28.53-.106.756zM10.96 25.816c.043.133.111.904.111.904.049.68.563.903.882.974a.868.868 0 0 1 .035-.14c.212-.602 2.98-6.42 2.98-6.42a3.82 3.82 0 0 0-.111-.876c-.603-.178-1.557.095-1.557.095-.275-.036-1.174 1.752-1.174 1.752s-.6 1.37-.665 1.556c-.066.186 0 .493-.027.6-.026.106-.306.198-.346.345-.04.147-.014.438-.04.491-.027.054-.134.586-.088.72z" opacity=".1"/>
            <path fill="#0DA176" d="M11.173 25.71c.043.133.111.904.111.904.04.566.405.815.71.924.137.049.28.078.425.085l.428.371 1.975 1.457s.736-1.36.537-1.368c-.2-.009-1.352-.975-1.352-.975-.355-.188-.706-.817-.87-1.14a.919.919 0 0 0 .022-.118c.071-.602 1.56-2.908 1.56-2.908s.576-.678.8-1.934c.007-.029.012-.06.017-.088a.964.964 0 0 0 .012-.119c.026-.482-.325-.658-.742-.7a3.004 3.004 0 0 0-.65.02 4.682 4.682 0 0 0-.639.125c-.177-.023-.618.72-.906 1.245-.156.285-.268.507-.268.507s-.602 1.37-.67 1.557c-.067.186 0 .492-.026.599-.026.107-.307.199-.346.346-.039.147-.014.438-.04.491-.027.053-.133.586-.088.719z"/>
            <path fill="#000" d="M8.881 22.643c.375.386.986.387 1.474.191.488-.195.903-.553 1.356-.827.296-.178.605-.327.895-.512l.124-.084c.335-.237.624-.54.97-.757.231-.153.5-.24.778-.25a.882.882 0 0 1 .431.11c.114.065.22.145.314.236.097.088.191.182.295.264.007-.029.01-.06.016-.088a.964.964 0 0 0 .012-.119 2.237 2.237 0 0 0 .983-.12c0-.01.003-.02.005-.03.085-.446.237-.92.598-1.17.209-.147.542-.206.83-.317a2.27 2.27 0 1 0-4.276.246c-.367-.048-.887 0-1.596.3-1.667.708-2.057.744-2.057.744l-.833 1.1c.09.138.192.274.202.435.019.3-.27.506-.521.648z" opacity=".1"/>
            <path fill="#7C5C5C" d="M17.135 19.274c-.36.252-.513.725-.598 1.171-.026.14-.052.287-.137.397-.19.248-.575.178-.825 0-.249-.177-.445-.447-.724-.573-.37-.166-.804-.044-1.15.172-.346.217-.635.52-.97.756-.323.229-.684.391-1.02.596-.453.276-.867.633-1.356.828-.489.195-1.1.195-1.473-.19.25-.14.54-.346.52-.645-.02-.298-.368-.522-.344-.827.023-.305.383-.427.642-.577.54-.315.768-1.005.886-1.643.09-.499.164-1.056.537-1.376.24-.206.566-.273.807-.477.23-.194.355-.488.502-.758.24-.451.556-.87.974-1.14.418-.269.949-.373 1.408-.191.177.069.335.177.51.252.43.187.925.162 1.353.358.527.243.87.778 1.182 1.286.268.435.792 1.204.645 1.765-.15.573-.978.542-1.369.816z"/>
            <g fill="#000" opacity=".1">
                <path d="M9.058 20.921a.367.367 0 0 1 .012-.069c.095.15.214.296.225.473.003.04 0 .082-.01.121-.106-.17-.242-.329-.227-.525zM10.249 22.16c.489-.197.902-.554 1.355-.828.337-.205.698-.368 1.02-.596.335-.237.625-.54.97-.756.347-.216.781-.339 1.151-.172.278.126.473.392.724.573.251.18.634.25.825.003.085-.111.11-.258.137-.397.085-.447.236-.92.598-1.172.391-.273 1.22-.242 1.37-.818a.887.887 0 0 0 .019-.313c.096.256.145.514.087.738-.15.577-.978.546-1.37.819-.36.252-.513.725-.598 1.172-.026.139-.051.286-.136.396-.192.248-.576.177-.828-.003s-.446-.447-.724-.573c-.37-.166-.804-.044-1.15.172-.346.217-.636.52-.97.756-.323.23-.684.391-1.02.596-.454.277-.867.633-1.356.828-.49.195-1.1.194-1.474-.191.097-.053.189-.113.274-.182.342.124.75.085 1.096-.053z"/>
            </g>
            <path fill="#940016" d="M22.903 19.354L40.952 38.12a1 1 0 0 0 1.413.028l3.578-3.434a1 1 0 0 0 .019-1.424L27.62 14.71a1 1 0 0 0-1.415-.009l-3.285 3.247a1 1 0 0 0-.018 1.405z"/>
            <path fill="#940016" d="M41.708 14.684L22.94 32.732a1 1 0 0 0-.028 1.414l3.435 3.578a1 1 0 0 0 1.424.019L46.35 19.4a1 1 0 0 0 .008-1.414l-3.247-3.285a1 1 0 0 0-1.404-.018z"/>
            <path fill="#0DA176" d="M45.09 35.898s-1.807-.109-1.595 1.158a.31.31 0 0 0 .16.325s0-.094.186-.062a.816.816 0 0 0 .196.01.406.406 0 0 0 .24-.1s.508-.21.706-1.04c0 0 .146-.181.14-.228l-.305.13s.105.22.023.403c0 0-.01-.394-.069-.385-.012 0-.158.076-.158.076s.177.383.043.662c0 0 .052-.473-.1-.634l-.214.125s.21.396.067.72c0 0 .037-.496-.112-.689l-.195.151s.197.39.077.659c0 0-.015-.577-.118-.62 0 0-.17.15-.197.211 0 0 .135.284.052.433 0 0-.052-.385-.094-.386 0 0-.17.254-.187.429a.923.923 0 0 1 .146-.454.512.512 0 0 0-.26.135s.027-.177.302-.196c0 0 .14-.193.177-.205 0 0-.273-.023-.44.051 0 0 .147-.17.49-.093l.192-.156s-.36-.05-.513.004c0 0 .177-.15.565-.04l.21-.125s-.308-.066-.491-.043c0 0 .193-.104.552.01l.15-.068s-.226-.044-.292-.05c-.066-.007-.07-.026-.07-.026a.782.782 0 0 1 .423.047s.32-.119.314-.139zM41.848 27.052s-.918 1.561.307 1.946a.31.31 0 0 0 .363.005s-.082-.045.029-.193a.846.846 0 0 0 .098-.17.414.414 0 0 0 .02-.26s.044-.548-.606-1.101c0 0-.096-.213-.14-.229l-.022.331s.243.007.369.163c0 0-.355-.17-.375-.114-.003.012-.004.178-.004.178s.423.014.61.26c0 0-.397-.26-.61-.198l.014.249s.448-.008.671.266c0 0-.425-.258-.664-.213l.046.243s.438 0 .622.23c0 0-.521-.248-.607-.178 0 0 .06.22.1.272 0 0 .313.008.409.15 0 0-.366-.129-.387-.092 0 0 .15.267.296.362a.925.925 0 0 1-.338-.336.51.51 0 0 0 0 .295s-.148-.105-.037-.355c0 0-.109-.212-.102-.25 0 0-.145.233-.155.413 0 0-.085-.207.14-.479l-.052-.242s-.208.299-.229.46c0 0-.054-.225.22-.522l-.016-.243s-.199.243-.26.417c0 0-.005-.22.258-.487l.008-.164s-.142.18-.177.236c-.036.056-.054.05-.054.05a.777.777 0 0 1 .233-.354s.042-.342.022-.346zM36.106 14.598s-.917 1.561.308 1.946c.108.08.254.082.363.005 0 0-.082-.046.03-.194a.842.842 0 0 0 .097-.17.41.41 0 0 0 .02-.26s.044-.547-.607-1.1c0 0-.095-.213-.138-.229l-.023.33s.244.008.369.164c0 0-.355-.17-.374-.114-.004.012-.004.177-.004.177s.422.014.609.261c0 0-.397-.26-.61-.198l.014.248s.448-.007.671.266c0 0-.425-.257-.664-.212l.046.242s.438 0 .622.23c0 0-.521-.248-.607-.177 0 0 .06.22.1.271 0 0 .313.008.409.15 0 0-.366-.128-.386-.091 0 0 .15.267.295.361a.926.926 0 0 1-.338-.335.513.513 0 0 0 0 .292s-.148-.106-.037-.358c0 0-.109-.212-.103-.251 0 0-.144.233-.154.414 0 0-.085-.208.14-.48l-.052-.242s-.208.3-.228.46c0 0-.055-.225.22-.522l-.017-.243s-.199.244-.26.418c0 0-.006-.22.257-.487l.009-.165s-.142.181-.178.237c-.035.055-.053.05-.053.05a.781.781 0 0 1 .236-.355s.039-.332.018-.34zM16.343 2.77s-3.416 2.483-1.155 4.45c0 0 .256.466.772.348 0 0-.133-.174.242-.387.133-.076.256-.168.368-.274a.952.952 0 0 0 .285-.532s.604-1.131-.271-2.92c0 0-.005-.543-.085-.618l-.355.687s.514.242.637.693c0 0-.603-.697-.695-.592a7.07 7.07 0 0 0-.172.373s.892.424 1.06 1.126c0 0-.607-.926-1.122-.994l-.2.545s.963.402 1.187 1.194c0 0-.67-.946-1.224-1.073l-.125.562s.932.411 1.114 1.071c0 0-.887-1.015-1.134-.94 0 0-.084.523-.04.672 0 0 .663.31.734.704 0 0-.662-.616-.74-.557 0 0 .072.709.299 1.05 0 0-.372-.478-.41-1.033 0 0-.254.295-.268.627 0 0-.22-.364.253-.8 0 0-.034-.555.016-.632 0 0-.527.365-.717.743 0 0 .011-.523.745-.893l.113-.567s-.721.445-.916.768c0 0 .094-.532.957-.911l.191-.535s-.65.336-.946.65c0 0 .194-.473 1.005-.802l.17-.343s-.473.254-.6.34c-.127.085-.163.059-.163.059.222-.255.51-.442.831-.542 0 0 .399-.688.36-.716zM13.024 10.962s-4.42-1.858-4.998 1.493c0 0-.302.522.118.954 0 0 .09-.232.518.008.152.084.314.15.482.196.227.062.468.05.687-.037 0 0 1.453-.078 2.676-1.98 0 0 .523-.324.55-.446l-.877.06s.068.64-.295 1.026c0 0 .322-.996.167-1.024-.031-.005-.463.051-.463.051s.112 1.116-.473 1.693c0 0 .543-1.135.307-1.673l-.646.125s.177 1.173-.463 1.855c0 0 .526-1.205.323-1.818l-.62.208s.15 1.148-.385 1.715c0 0 .467-1.455.247-1.655 0 0-.556.225-.676.354 0 0 .089.828-.252 1.126 0 0 .21-1.005.106-1.046 0 0-.647.487-.845.907 0 0 .247-.642.764-1.005 0 0-.434-.073-.769.109 0 0 .224-.427.925-.224 0 0 .52-.36.624-.355 0 0-.663-.296-1.143-.259 0 0 .514-.296 1.305.198l.616-.223s-.856-.44-1.286-.438c0 0 .571-.22 1.447.394l.632-.13s-.709-.435-1.188-.536c0 0 .574-.09 1.37.506l.433-.036s-.524-.309-.682-.384c-.158-.075-.151-.123-.151-.123.377.065.728.234 1.015.488 0 0 .896-.019.9-.074zM10.378 6.27S8.811 2.65 6.558 4.31c0 0-.476.138-.472.632 0 0 .185-.086.302.3.044.137.104.268.178.39a.89.89 0 0 0 .429.37s.908.782 2.719.348c0 0 .496.106.58.05l-.553-.466s-.325.42-.761.44c0 0 .758-.408.682-.513-.016-.02-.304-.232-.304-.232s-.57.725-1.241.737c0 0 .968-.366 1.134-.819l-.455-.296s-.572.8-1.34.842c0 0 1-.417 1.228-.896l-.486-.227s-.565.769-1.204.797c0 0 1.106-.598 1.088-.842 0 0-.459-.183-.604-.172 0 0-.418.54-.791.525 0 0 .697-.478.658-.561 0 0-.662-.08-1.018.059 0 0 .512-.241 1.025-.162 0 0-.215-.292-.517-.373 0 0 .377-.126.678.393 0 0 .513.083.573.145 0 0-.225-.555-.532-.805 0 0 .473.118.663.86l.493.22s-.258-.75-.515-.992c0 0 .466.194.636 1.058l.448.283s-.173-.662-.4-.995c0 0 .393.273.526 1.081l.278.225s-.136-.481-.187-.616c-.052-.135-.02-.16-.02-.16a1.7 1.7 0 0 1 .325.868s.544.496.577.464zM40.918 8.155s-.37-1.773-1.537-1.235a.309.309 0 0 0-.272.24s.092-.021.109.163c.006.066.02.13.042.192.03.084.085.156.159.206 0 0 .336.435 1.188.408 0 0 .214.093.258.075l-.207-.26s-.185.159-.382.127c0 0 .378-.112.354-.167a3.088 3.088 0 0 0-.115-.133s-.322.274-.627.217c0 0 .469-.075.586-.263l-.177-.175s-.328.306-.677.254c0 0 .488-.095.635-.29l-.197-.147s-.325.292-.616.246c0 0 .553-.166.568-.277 0 0-.19-.125-.256-.134 0 0-.236.205-.404.163 0 0 .355-.15.348-.191 0 0-.29-.097-.463-.068a.929.929 0 0 1 .476.022.507.507 0 0 0-.198-.216s.18-.021.268.237c0 0 .223.084.244.118 0 0-.05-.27-.164-.414 0 0 .202.097.218.449l.202.144s-.047-.36-.14-.494c0 0 .191.13.187.532l.178.169s-.017-.314-.088-.484c0 0 .151.159.136.532l.104.127s-.016-.229-.026-.296c-.011-.066.006-.073.006-.073.06.131.083.277.065.42 0 0 .197.286.215.276zM34.557 41.026s-.37-1.774-1.537-1.235a.31.31 0 0 0-.273.24s.092-.021.11.163c.005.065.02.13.042.192.029.084.085.156.158.206 0 0 .336.435 1.19.408 0 0 .213.093.256.075l-.206-.26s-.185.159-.383.127c0 0 .378-.113.355-.167a2.724 2.724 0 0 0-.115-.133s-.323.274-.628.216c0 0 .47-.074.586-.263l-.177-.177s-.324.307-.674.253c0 0 .488-.095.635-.29l-.198-.147s-.324.292-.614.247c0 0 .552-.166.567-.278 0 0-.19-.125-.256-.134 0 0-.236.205-.404.163 0 0 .355-.15.348-.191 0 0-.29-.097-.463-.068a.93.93 0 0 1 .476.022.511.511 0 0 0-.198-.215s.18-.022.268.236c0 0 .223.085.244.118 0 0-.05-.27-.164-.413 0 0 .202.096.218.448l.202.144s-.047-.36-.14-.494c0 0 .191.13.188.532l.177.17s-.017-.315-.088-.485c0 0 .151.16.136.532l.105.127s-.017-.229-.028-.295c-.01-.067.006-.074.006-.074.06.132.083.277.066.42 0 0 .196.288.213.28z" opacity=".5"/>
        </g>
    </g>
</svg>
