<svg xmlns="http://www.w3.org/2000/svg" width="475" height="329" viewBox="0 0 475 329">
    <defs>
        <linearGradient id="a" x1=".043%" x2="99.991%" y1="49.996%" y2="49.996%">
            <stop offset="0%" stop-color="gray" stop-opacity=".25"/>
            <stop offset="54%" stop-color="gray" stop-opacity=".12"/>
            <stop offset="100%" stop-color="gray" stop-opacity=".1"/>
        </linearGradient>
    </defs>
    <g fill="none" fill-rule="nonzero">
        <path fill="#EA0B4B" d="M268.483 45.021c-30.425.04-59.71-8.584-87.723-18.165-28.011-9.582-55.807-20.311-85.666-24.857C75.89-.924 54.054-.655 39.042 9.956 24.592 20.164 20.408 37.06 18.389 52.669c-1.518 11.743-2.218 24.068 3.468 34.81 3.948 7.456 10.705 13.602 15.467 20.709 16.623 24.722 6.627 56.304-9.528 81.6-7.575 11.87-16.448 23.246-22.175 35.794-5.727 12.549-8.075 26.779-2.235 39.164 5.788 12.276 18.862 21.186 32.892 27.271 28.492 12.382 61.665 15.036 93.946 16.057 71.458 2.267 143.054-2.356 214.458-6.98 26.424-1.71 52.967-3.431 78.845-8.385 14.368-2.747 29.164-6.826 39.352-15.764 12.931-11.348 15.577-29.876 6.166-43.194-15.78-22.337-57.39-26.55-68.706-50.72-6.24-13.305-.859-28.564 7.066-41.39 16.998-27.519 46.255-52.168 46.747-82.948.338-21.137-14.877-41.757-37.601-50.943-23.82-9.622-56.296-7.148-72.984 10.786-17.16 18.475-48.22 26.457-75.084 26.485z" opacity=".1"/>
        <path fill="#EA0B4B" d="M403.986 263.086s-5.002-3.301-9.96-.953c0 0 1.526 2.939 7.803 2.662l2.157-1.71zM404.621 263.26s1.522 5.797-2.296 9.74c0 0-2.295-2.388 0-8.241l2.296-1.498zM410.84 257.697s-.37-4.93-11.502-3.293c0 0-.053 3.179 3.854 4.685 3.908 1.506 5.699.236 7.648-1.392zM411.54 257.664s4.706 1.51.51 11.95c0 0-3.106-.692-3.664-4.847-.558-4.156 1.095-5.589 3.154-7.103zM417.825 250.671s.639-8.112-10.737-7.281c0 0-.814 7.326 8.73 9.231l2.007-1.95zM425.343 241.513s-1.56-9.194-12.931-6.455c0 0-.041 7.95 11.075 8.645l1.856-2.19zM430.838 232.046s-2.613-8.955-13.88-6.277c0 0 2.682 8.056 13.13 7.93l.75-1.653zM436.056 222.798s-2.552-9.292-13.432-6.512c0 0 3.63 8.828 12.711 8.083l.72-1.57zM439.418 214.015s-1.962-11.365-12.105-8.85c0 0 2.947 10.34 11.36 10.506l.745-1.656zM442.572 203.403s-2.356-11.453-12.618-8.14c0 0 4.022 10.827 11.89 9.707l.728-1.567zM444.51 193.529s-3.74-11.458-11.674-11.149c0 0 3.822 12.101 11.01 13.432l.664-2.283zM445.763 183.89s-4.07-13.79-10.525-12.727c0 0 2.816 10.542 10.297 14.877l.228-2.15zM446.472 172.392s-3.818-11.49-10.176-11.95c0 0 2.597 11.307 10.05 14.938l.126-2.988zM447.24 161.663s-4.757-11.503-8.954-11.763c0 0 2.068 11.327 8.548 13.651l.407-1.888zM447.766 151.683s-2.927-12.492-7.131-13.53c0 0 .574 10.22 6.708 14.466l.423-.936zM449.353 138.609s-3.077-9.96-6.484-11.478c0 0 .672 11.742 5.699 13.912l.785-2.434zM450.668 130.061l.619-17.559s-6.37 13.237-1.079 20.64l.46-3.08zM455.585 112.596s4.587-12.822 5.698-13.538c0 0-8.995 8.32-8.116 19.02l2.418-5.482zM418.134 250.61s8.068-1.054 7.827 10.347c0 0-7.29 1.188-9.67-8.242l1.843-2.105zM425.725 241.204s9.321-.029 8.548 11.64c0 0-7.827 1.401-10.408-9.434l1.86-2.206zM430.927 232.799s8.462-3.969 13.876 6.276c0 0-7.815 3.305-14.625-4.62l.75-1.656zM436.243 222.884s8.666-4.221 13.753 5.784c0 0-9.027 3.11-14.47-4.201l.717-1.583zM439.308 214.263s8.34-7.966 14.995.09c0 0-8.52 6.557-15.378 1.684l.383-1.774z"/>
        <path fill="#EA0B4B" d="M442.1 203.13s8.389-8.14 14.99.375c0 0-9.414 6.688-15.291 1.335l.301-1.71zM443.667 193.203s6.464-10.175 14.075-7.904c0 0-6.708 10.774-14.002 10.294l-.073-2.39zM445.572 183.825s6.512-12.813 12.675-10.582c0 0-4.697 9.85-12.842 12.744l.167-2.162zM446.024 171.725s6.695-10.087 12.968-8.853c0 0-5.475 10.228-13.62 11.77l.652-2.917zM446.545 161.439s5.19-11.32 9.406-11.397c0 0-2.49 11.238-9.056 13.318l-.35-1.921zM447.562 151.438s5.768-11.462 10.103-11.486c0 0-2.951 9.801-9.911 12.492l-.192-1.006zM448.43 139.325s4.314-9.484 7.887-10.558c0 0-2.157 11.56-7.411 13.074l-.477-2.516z"/>
        <path fill="#EA0B4B" d="M451.18 129.715l9.643-14.69s-2.47 14.49-11.05 17.503l1.408-2.813zM457.8 113.78s11.204-7.733 11.612-8.983c0 0-5.699 10.831-16.282 12.744l4.67-3.76zM458.47 110.3s12.867-12.37 16.151-12.357c0 0-10.61.484-16.46 11.698l.31.66z"/>
        <path fill="#444053" d="M448.555 141.16l.469.062c2.417-18.923 5.942-30.12 9.923-31.492l-.155-.447c-4.22 1.465-7.77 12.491-10.237 31.878z"/>
        <path fill="#444053" d="M444.998 186.414l.708.057c.15-1.766.265-3.574.342-5.377.676-15.662 1.722-30.046 3.098-40.829l-.407-.508c-1.38 10.806-2.723 25.622-3.399 41.309-.077 1.79-.191 3.59-.342 5.348z"/>
        <path fill="#444053" d="M390.782 272.114c.122-.053 12.59-5.621 25.529-18.899a102.66 102.66 0 0 0 18.662-26.456c5.983-12.183 9.63-27.153 10.851-41.696l-.736.346c-2.748 32.643-17.608 54.948-29.424 67.098-12.814 13.16-25.142 18.67-25.264 18.723l.382.884z"/>
        <path fill="#3F3D56" d="M423.063 35.098H31.96a3.484 3.484 0 0 0-3.484 3.484v10.151h398.072V38.582a3.484 3.484 0 0 0-3.485-3.484z"/>
        <path fill="#FFF" d="M28.476 48.733v228.44a7.025 7.025 0 0 0 7.025 7.025h384.021a7.025 7.025 0 0 0 7.026-7.025V48.733H28.476z"/>
        <circle cx="34.78" cy="41.814" r="1.628" fill="#FA5959" opacity=".8"/>
        <circle cx="39.258" cy="41.814" r="1.628" fill="#FED253" opacity=".8"/>
        <circle cx="43.735" cy="41.814" r="1.628" fill="#8CCF4D" opacity=".8"/>
        <path fill="#000" d="M65.478 86.823h319.923V227.5H65.478z" opacity=".05"/>
        <path fill="#EA0B4B" d="M67.921 87.889H382.96v137.575H67.921z" opacity=".2"/>
        <path fill="#EA0B4B" d="M153.803 123.296c-17.31 0-31.34 14.032-31.34 31.342 0 17.309 14.03 31.34 31.34 31.34 17.31 0 31.341-14.031 31.341-31.34a31.341 31.341 0 0 0-31.34-31.342zm5.621 32.095v14.84h-11.08v-14.84a9.178 9.178 0 1 1 11.08 0z"/>
        <path fill="#000" d="M153.803 123.296c-17.31 0-31.34 14.032-31.34 31.342 0 17.309 14.03 31.34 31.34 31.34 17.31 0 31.341-14.031 31.341-31.34a31.341 31.341 0 0 0-31.34-31.342zm5.621 32.095v14.84h-11.08v-14.84a9.178 9.178 0 1 1 11.08 0z" opacity=".05"/>
        <path fill="#EA0B4B" d="M153.803 114.342c-22.255 0-40.296 18.04-40.296 40.296 0 22.254 18.041 40.295 40.296 40.295s40.296-18.04 40.296-40.295a40.296 40.296 0 0 0-40.296-40.296zm7.225 41.264v19.078h-14.246v-19.078a11.804 11.804 0 1 1 14.246 0z"/>
        <path fill="#FFF" d="M210.787 149.35h130.249v13.839H210.787z"/>
        <path fill="#EA0B4B" d="M312.951 174.586h28.085v13.839h-28.085zM223.608 156.062h-2.357l2.097-2.092a.208.208 0 0 0 0-.289.204.204 0 0 0-.29 0l-2.095 2.096v-2.36a.204.204 0 0 0-.204-.204.208.208 0 0 0-.204.203v2.361l-2.092-2.108a.204.204 0 0 0-.289 0 .208.208 0 0 0 0 .289l2.097 2.092h-2.361a.208.208 0 0 0-.204.203c0 .113.091.204.204.204h2.36l-2.096 2.096a.208.208 0 0 0 0 .29.212.212 0 0 0 .29 0l2.091-2.097v2.357a.204.204 0 0 0 .408 0v-2.357l2.096 2.096a.212.212 0 0 0 .289 0 .208.208 0 0 0 0-.289l-2.097-2.096h2.357a.204.204 0 0 0 .204-.204.204.204 0 0 0-.204-.19zM232.156 156.062h-2.357l2.096-2.092a.208.208 0 0 0 0-.289.204.204 0 0 0-.289 0l-2.096 2.096v-2.36a.204.204 0 0 0-.203-.204.208.208 0 0 0-.204.203v2.361l-2.092-2.108a.204.204 0 0 0-.29 0 .208.208 0 0 0 0 .289l2.097 2.092h-2.36a.208.208 0 0 0-.204.203c0 .113.091.204.203.204h2.361l-2.096 2.096a.208.208 0 0 0 0 .29.212.212 0 0 0 .289 0l2.092-2.097v2.357a.204.204 0 0 0 .407 0v-2.357l2.096 2.096a.212.212 0 0 0 .29 0 .208.208 0 0 0 0-.289l-2.097-2.096h2.357a.204.204 0 0 0 .203-.204.204.204 0 0 0-.203-.19zM240.703 156.062h-2.356l2.096-2.092a.208.208 0 0 0 0-.289.204.204 0 0 0-.29 0l-2.095 2.096v-2.36a.204.204 0 0 0-.204-.204.208.208 0 0 0-.203.203v2.361l-2.093-2.108a.204.204 0 0 0-.289 0 .208.208 0 0 0 0 .289l2.097 2.092h-2.361a.208.208 0 0 0-.204.203c0 .113.092.204.204.204h2.36l-2.096 2.096a.208.208 0 0 0 0 .29.212.212 0 0 0 .29 0l2.092-2.097v2.357a.204.204 0 0 0 .407 0v-2.357l2.096 2.096a.212.212 0 0 0 .289 0 .208.208 0 0 0 0-.289l-2.096-2.096h2.356a.204.204 0 0 0 .204-.204.204.204 0 0 0-.204-.19zM249.25 156.062h-2.356l2.096-2.092a.208.208 0 0 0 0-.289.204.204 0 0 0-.289 0l-2.096 2.096v-2.36a.204.204 0 0 0-.203-.204.208.208 0 0 0-.204.203v2.361l-2.092-2.108a.204.204 0 0 0-.289 0 .208.208 0 0 0 0 .289l2.096 2.092h-2.36a.208.208 0 0 0-.204.203c0 .113.091.204.203.204h2.361l-2.096 2.096a.208.208 0 0 0 0 .29.212.212 0 0 0 .289 0l2.092-2.097v2.357a.204.204 0 0 0 .407 0v-2.357l2.096 2.096a.212.212 0 0 0 .29 0 .208.208 0 0 0 0-.289l-2.097-2.096h2.357a.204.204 0 0 0 .203-.204.204.204 0 0 0-.203-.19zM257.798 156.062h-2.356l2.096-2.092a.208.208 0 0 0 0-.289.204.204 0 0 0-.29 0l-2.095 2.096v-2.36a.204.204 0 0 0-.204-.204.208.208 0 0 0-.203.203v2.361l-2.092-2.108a.204.204 0 0 0-.29 0 .208.208 0 0 0 0 .289l2.097 2.092H252.1a.208.208 0 0 0-.203.203c0 .113.09.204.203.204h2.36l-2.095 2.096a.208.208 0 0 0 0 .29.212.212 0 0 0 .289 0l2.092-2.097v2.357a.204.204 0 0 0 .407 0v-2.357l2.096 2.096a.212.212 0 0 0 .289 0 .208.208 0 0 0 0-.289l-2.096-2.096h2.356a.204.204 0 0 0 .204-.204.204.204 0 0 0-.204-.19zM266.346 156.062h-2.357l2.096-2.092a.208.208 0 0 0 0-.289.204.204 0 0 0-.289 0l-2.096 2.096v-2.36a.204.204 0 0 0-.203-.204.208.208 0 0 0-.204.203v2.361l-2.092-2.108a.204.204 0 0 0-.289 0 .208.208 0 0 0 0 .289l2.096 2.092h-2.36a.208.208 0 0 0-.204.203c0 .113.091.204.204.204h2.36l-2.096 2.096a.208.208 0 0 0 0 .29.212.212 0 0 0 .29 0l2.091-2.097v2.357a.204.204 0 0 0 .407 0v-2.357l2.096 2.096a.212.212 0 0 0 .29 0 .208.208 0 0 0 0-.289l-2.097-2.096h2.357a.204.204 0 0 0 .203-.204.204.204 0 0 0-.203-.19zM274.894 156.062h-2.357l2.096-2.092a.208.208 0 0 0 0-.289.204.204 0 0 0-.289 0l-2.096 2.096v-2.36a.204.204 0 0 0-.204-.204.208.208 0 0 0-.203.203v2.361l-2.092-2.108a.204.204 0 0 0-.29 0 .208.208 0 0 0 0 .289l2.097 2.092h-2.36a.208.208 0 0 0-.204.203c0 .113.09.204.203.204h2.36l-2.095 2.096a.208.208 0 0 0 0 .29.212.212 0 0 0 .289 0l2.092-2.097v2.357a.204.204 0 0 0 .407 0v-2.357l2.096 2.096a.212.212 0 0 0 .289 0 .208.208 0 0 0 0-.289l-2.096-2.096h2.357a.204.204 0 0 0 .203-.204.204.204 0 0 0-.203-.19zM283.441 156.062h-2.357l2.097-2.092a.208.208 0 0 0 0-.289.204.204 0 0 0-.29 0l-2.096 2.096v-2.36a.204.204 0 0 0-.203-.204.208.208 0 0 0-.204.203v2.361l-2.092-2.108a.204.204 0 0 0-.289 0 .208.208 0 0 0 0 .289l2.096 2.092h-2.36a.208.208 0 0 0-.204.203c0 .113.091.204.204.204h2.36l-2.096 2.096a.208.208 0 0 0 0 .29.212.212 0 0 0 .29 0l2.091-2.097v2.357a.204.204 0 0 0 .407 0v-2.357l2.097 2.096a.212.212 0 0 0 .289 0 .208.208 0 0 0 0-.289l-2.097-2.096h2.357a.204.204 0 0 0 .204-.204.204.204 0 0 0-.204-.19zM291.989 156.062h-2.357l2.096-2.092a.208.208 0 0 0 0-.289.204.204 0 0 0-.289 0l-2.096 2.096v-2.36a.204.204 0 0 0-.204-.204.208.208 0 0 0-.203.203v2.361l-2.092-2.108a.204.204 0 0 0-.29 0 .208.208 0 0 0 0 .289l2.097 2.092h-2.36a.208.208 0 0 0-.204.203c0 .113.09.204.203.204h2.361l-2.096 2.096a.208.208 0 0 0 0 .29.212.212 0 0 0 .289 0l2.092-2.097v2.357a.204.204 0 0 0 .407 0v-2.357l2.096 2.096a.212.212 0 0 0 .29 0 .208.208 0 0 0 0-.289l-2.097-2.096h2.357a.204.204 0 0 0 .203-.204.204.204 0 0 0-.203-.19zM300.536 156.062h-2.356l2.096-2.092a.208.208 0 0 0 0-.289.204.204 0 0 0-.29 0l-2.095 2.096v-2.36a.204.204 0 0 0-.204-.204.208.208 0 0 0-.203.203v2.361l-2.093-2.108a.204.204 0 0 0-.289 0 .208.208 0 0 0 0 .289l2.097 2.092h-2.361a.208.208 0 0 0-.204.203c0 .113.091.204.204.204h2.36l-2.096 2.096a.208.208 0 0 0 0 .29.212.212 0 0 0 .29 0l2.092-2.097v2.357a.204.204 0 0 0 .407 0v-2.357l2.096 2.096a.212.212 0 0 0 .289 0 .208.208 0 0 0 0-.289l-2.096-2.096h2.356a.204.204 0 0 0 .204-.204.204.204 0 0 0-.204-.19zM309.084 156.062h-2.357l2.096-2.092a.208.208 0 0 0 0-.289.204.204 0 0 0-.289 0l-2.096 2.096v-2.36a.204.204 0 0 0-.203-.204.208.208 0 0 0-.204.203v2.361l-2.092-2.108a.204.204 0 0 0-.289 0 .208.208 0 0 0 0 .289l2.096 2.092h-2.36a.208.208 0 0 0-.204.203c0 .113.091.204.203.204h2.361l-2.096 2.096a.208.208 0 0 0 0 .29.212.212 0 0 0 .289 0l2.092-2.097v2.357a.204.204 0 0 0 .407 0v-2.357l2.096 2.096a.212.212 0 0 0 .29 0 .208.208 0 0 0 0-.289l-2.097-2.096h2.357a.204.204 0 0 0 .203-.204.204.204 0 0 0-.203-.19z"/>
        <path fill="url(#a)" d="M374.611 205.577a7.286 7.286 0 0 0-.183-1.461c-.367-1.376-1.193-3.04-2.552-3.456a21.426 21.426 0 0 1-4.046-1.71c-.244-4.363.757-8.828-.334-13.057-.407-1.547-1.078-3.028-1.258-4.612-.223-1.97.314-4.07-.472-5.885-.618-1.433-1.978-2.442-3.44-2.971-1.46-.53-3.036-.672-4.586-.814-1.954-.16-8.28-.908-10.485.838a2.304 2.304 0 0 0-.407.407 1.628 1.628 0 0 0-.13.212l-.02.032a1.653 1.653 0 0 0-.11.265c-.032.1-.055.202-.07.305v.733c.028.366.081.732.081 1.095.005.18-.012.36-.048.537a3.76 3.76 0 0 1-.676 1.319l-.073.106c-.045.065-.09.126-.13.19-.041.066-.074.115-.106.172-.033.057-.066.093-.094.146a1.99 1.99 0 0 0-.106.208c0 .04-.045.077-.06.118a2.271 2.271 0 0 0-.147 1.425c.11.456.298.89.557 1.282.102.167.212.33.326.492l.285.387a8.784 8.784 0 0 0-.086 1.14 8.421 8.421 0 0 0 3.216 6.618 24.93 24.93 0 0 1-.053 5.165 32.458 32.458 0 0 1-.265 1.97 4.131 4.131 0 0 1-1.778-.134 8.381 8.381 0 0 0-.815-.314c-1.184-.297-2.393.883-3.565.525 0 .057-.033.11-.053.163a1.596 1.596 0 0 0-.814-.24c-.696-.033-1.262-.537-1.767-1.014l-1.55-1.46a1.714 1.714 0 0 1-.269-.302 2.112 2.112 0 0 1-.187-.5c-.26-.843-.892-1.515-1.502-2.154a1.018 1.018 0 0 0-.444-.321.684.684 0 0 0-.203 0 3.83 3.83 0 0 0-.472-.505c-.741-.684-.814-1.27-1.458-2.035-.56-.73-1.07-1.498-1.522-2.3a17.558 17.558 0 0 0-.216-1.31 16.863 16.863 0 0 0-.891-2.972l-.814-1.803-.094.094c-.59-.88-1.22-1.36-1.786-1.246-.949.196-1.417 2.035-1.266 4.44l.325 2.443c0 .061.029.122.045.183-.059.29-.089.584-.09.88 0 .341.318.594.485.899.267.413.408.896.407 1.388-.02.175-.073.342-.082.513.023.382.156.75.383 1.058l2.035 3.419.407.716.025.033c.128.25.315.465.545.627a7.457 7.457 0 0 0 .9 2.918c.547.9 1.191 1.736 1.92 2.495l.97 1.087c.956 1.066 1.913 2.137 2.95 3.122.372.395.82.71 1.32.924a1.494 1.494 0 0 0 1.48-.216v1.514a.85.85 0 0 1 .644 1.34c-.855 2.193-1.718 4.407-3.012 6.373.914.541 1.76 1.187 2.523 1.926.496.548.936 1.144 1.315 1.778.037.301.065.599.082.896.3 4.851-1.576 9.667-3.257 14.29-.484 1.311-1.013 2.683-.972 4.046a7.941 7.941 0 0 0-.912.656c.334.87.203 1.648.167 2.58a4.57 4.57 0 0 1-.338 1.628c-.177.359-.373.708-.586 1.046-1.054 1.86-1.286 4.07-1.498 6.195-.126 1.282.37 2.85-.212 3.997-1.005 1.97-1.896 4.07-2.035 6.26a6.276 6.276 0 0 1-.187 1.462c-.126.407-.35.753-.464 1.151a4.93 4.93 0 0 0-.082 1.629c.078 1.95-.212 3.899-.854 5.743-.51 1.453-1.07 3.008-.672 4.501a6.346 6.346 0 0 0-1.722 3.782c-.01.362-.054.723-.13 1.078-.124.363-.288.711-.488 1.038a9.085 9.085 0 0 0-1.107 4.885c-1.221 1.656-1.832 3.7-2.194 5.73-.363 2.032-.521 4.1-.985 6.106-.619 2.654-1.738 5.336-1.958 8.055-1.319.842-1.889 2.475-2.141 4.017-.252 1.543-.293 3.163-.94 4.587-.334.741-.814 1.405-1.132 2.162a9.923 9.923 0 0 0-.488 1.86c-.196.993-.367 2.1-.126 3.053a4.603 4.603 0 0 1-1.193.907c.065-.252.118-.504.163-.76-1.05.952-2.955.618-3.794 1.762a1.718 1.718 0 0 0 .407 2.356c.263.16.546.282.843.362 2.035.652 4.127 1.307 6.22.961.247-.027.486-.103.703-.224.273-.2.496-.459.656-.757.313-.496.627-.993.936-1.49.75.224 1.512.402 2.283.534.078.65.135 1.302.163 1.953.407.082.953.106 1.144-.272a.99.99 0 0 0 .07-.452c0-.29.04-.672.064-1.063h.082c1.241.05 2.477-.2 3.602-.728-.436-3.606 1.001-7.131 2.247-10.542 1.314-3.59 2.442-7.245 3.577-10.9.814-2.573 1.714-5.064 2.512-7.64 1.004-3.256 2.012-6.513 3.024-9.769.44-1.433.883-2.849 1.388-4.274a66.577 66.577 0 0 1 3.773-8.397c.407-.769.814-1.53 1.148-2.328.407-.973.696-1.99 1.021-2.995a46.401 46.401 0 0 1 2.557-6.016c.028-.053.048-.102.077-.15.33 1.346.66 2.714.88 4.07.297 1.661.32 3.36.068 5.03-.195 1.136-.565 2.26-.52 3.411.06 1.592.911 3.037 1.33 4.571.27 1.148.423 2.321.456 3.5.114 1.832 1.107 3.888.407 5.585-2.177 5.377-1.123 11.45-2.365 17.095-.639 2.898-2.597 5.621-2.442 8.584.109 2.103.293 4.2.554 6.293.062.66.234 1.305.509 1.909.162.317.348.622.557.911-.179.07-.33.253-.46.64-.334 1.017 0 2.279.904 2.849.368.197.765.334 1.176.407a6.195 6.195 0 0 0 1.701.236c.18-.01.358-.032.534-.065.629.264 1.271.495 1.925.692 0 .167.032.333.053.5.002.177.079.344.211.46a.635.635 0 0 0 .326.057h2.21v-.553a1.82 1.82 0 0 0 1.404-.456c.196-.25.335-.538.408-.847.602-2.043 1.2-4.088 1.795-6.134a19.61 19.61 0 0 0 .875-7c-.786-7.502.94-15.028.378-22.55a54.016 54.016 0 0 1 .692-13.53c.183-1.009.407-2.035.489-3.04.179-1.897-.041-3.814.093-5.698.045-.66.134-1.315.216-1.97.558-4.068.85-8.167.875-12.272a38.667 38.667 0 0 0-.252-4.07c.424-.108.81-.334 1.11-.652.363-.472.27-1.135.265-1.738 0-1.44.607-2.8 1.095-4.16a49.43 49.43 0 0 0 1.539-5.722c.42-1.56.65-3.167.684-4.783 0-.163-.009-.325-.025-.488.154-.107.281-.246.375-.407.106-.239.172-.493.195-.753.147-1.038.297-2.08.444-3.122l.321-2.235 1.295-9.032c.11-.785.223-1.567.333-2.348l.338-2.337c.037-.276.078-.553.106-.814.993-1.66.045-3.874-.061-5.763zm-10.798 33.816c-.48-1.14-.928-2.308-.815-3.537h-.044a1.815 1.815 0 0 0-.053-1.148c-.126-.297-.346-.55-.48-.847a3.102 3.102 0 0 1-.22-1.14 31.068 31.068 0 0 1 .582-7.383c.053-.285.11-.574.163-.859.17-.098.326-.22.464-.362.214-.244.39-.518.525-.814.46-.924.879-1.864 1.266-2.82.126-.31.309-.668.622-.746-.065 2.381.18 4.811-.79 6.96-.183.347-.32.717-.406 1.1-.09.606.162 1.22.073 1.823-.045.313-.18.602-.232.912a.891.891 0 0 0 .236.863.712.712 0 0 0 .175.09c-.024.162-.045.329-.061.488-.033.333-.049.647-.07.842-.093.996-.13 1.996-.11 2.996 0 1.078.042 2.157.025 3.256a2.21 2.21 0 0 1-.154.924c-.081.151-.186.289-.31.407a10.587 10.587 0 0 0-.386-1.005z"/>
        <ellipse cx="330.378" cy="185.797" fill="#FBBEBE" rx="2.296" ry="6.5" transform="rotate(-11.58 330.378 185.797)"/>
        <path fill="#3F3D56" d="M350.65 322.992c-.334 1.01 0 2.271.903 2.82.366.196.76.333 1.168.408a6.162 6.162 0 0 0 1.697.232c.705-.033 1.38-.31 2.084-.407a.326.326 0 0 1 .24.032.346.346 0 0 1 .09.285c.008.4.038.8.09 1.197a.615.615 0 0 0 .211.46.635.635 0 0 0 .326.057h2.206a21.515 21.515 0 0 0-.63-5.756 1.286 1.286 0 0 0-.164-.407 1.347 1.347 0 0 0-.704-.407 3.936 3.936 0 0 0-1.705-.297c-.713.094-1.307.554-1.913.936-.607.383-1.433.72-2.17.525-.737-.195-1.351-.81-1.73.322z"/>
        <path fill="#FBBEBE" d="M318.258 321.205a6.105 6.105 0 0 1-2.226 1.514l-.375.18a.26.26 0 0 0-.126.101.22.22 0 0 0 .04.183c.641.99 1.861 1.434 2.988 1.087.243-.06.467-.178.656-.342.31-.368.488-.83.504-1.31a2.682 2.682 0 0 0-.06-1.503c-.566-1.274-.774-.696-1.4.09z"/>
        <path fill="#3F3D56" d="M326.716 326.22a.99.99 0 0 1-.069.451c-.191.375-.725.354-1.14.273a27.393 27.393 0 0 0-.5-4.11c-.79-.038-1.36.711-1.783 1.383l-1.091 1.73c-.158.298-.38.556-.651.757a1.93 1.93 0 0 1-.704.224c-2.084.346-4.189-.31-6.2-.96-.296-.08-.58-.2-.842-.359a1.722 1.722 0 0 1-.407-2.353c.843-1.14 2.735-.814 3.785-1.758a9.476 9.476 0 0 1-.537 1.942c1.404-.212 2.349-1.498 3.48-2.357.284-.241.627-.404.993-.472.275-.023.55.006.814.085a9.549 9.549 0 0 1 3.582 1.763c.428.337 1.095.814 1.282 1.335.2.622-.012 1.762-.012 2.426z"/>
        <circle cx="354.716" cy="183.516" r="8.409" fill="#FBBEBE"/>
        <path fill="#3F3D56" d="M371.281 233.165a19.944 19.944 0 0 1-.68 4.758 49.104 49.104 0 0 1-1.538 5.699c-.484 1.355-1.09 2.715-1.087 4.151 0 .599.098 1.262-.268 1.734a2.532 2.532 0 0 1-1.189.68 1.486 1.486 0 0 0-1.001.891 6.289 6.289 0 0 1-.847-1.864 156.421 156.421 0 0 1-2.035-6.744.875.875 0 0 1 .057-.814 1.01 1.01 0 0 1 .354-.2c.418-.17.8-.415 1.128-.724.154-.137.28-.301.374-.485.119-.291.173-.605.159-.92 0-1.078 0-2.153-.028-3.231-.018-.996.02-1.992.113-2.984 0-.195.037-.509.07-.842.06-.64.183-1.38.529-1.628.517-.346 2.063.118 2.65.199 1.009.138 2.035.301 3.02.493.143.6.217 1.214.22 1.831zM337.327 192.93c-.325.652-1.107.965-1.71 1.376l-2.063 1.417a1.376 1.376 0 0 1-1.021.35 1.343 1.343 0 0 1-.762-.712.142.142 0 0 0 0-.033l-.427-.716-2.035-3.411a1.942 1.942 0 0 1-.379-1.05c0-.175.061-.338.078-.513a2.463 2.463 0 0 0-.407-1.384c-.163-.305-.489-.558-.48-.9-.016-.449.061-.897.227-1.314.214-.387.52-.714.892-.953.191-.138.386-.268.59-.407.108-.074.228-.129.354-.163.338-.069.672.212 1.014.224 1.469.985 2.035 2.85 3.19 4.193.652.765.717 1.35 1.454 2.035.118.106.232.22.342.338.145.158.268.336.366.529.134.35.944.76.777 1.095z"/>
        <path fill="#FBBEBE" d="M351.76 191.93c.607 1.281 1.08 2.69.904 4.098a2.56 2.56 0 0 1-.354 1.079c-.586.9-1.815 1.062-2.886 1.115a1.701 1.701 0 0 0-1.253.407 1.14 1.14 0 0 0 .077 1.392c.344.367.771.646 1.245.814 1.694.745 3.521 1.36 5.36 1.189.856-.082 1.686-.33 2.537-.456.927-.1 1.86-.152 2.792-.155 1.107-.04 2.21-.15 3.313-.26l2.923-.29a.651.651 0 0 0 .435-.158c.216-.253-.061-.623-.33-.814-1.55-1.148-3.525-1.938-4.408-3.663-.407-.815-.533-1.783-.834-2.662-.301-.88-.782-1.673-.969-2.569-.1-.785-.145-1.577-.134-2.369a3.179 3.179 0 0 0-.814-2.165c-.582-.541-1.425-.68-2.214-.712-1.946-.086-4.018.378-5.398 1.75-.37.37-.688.814-1.07 1.148-.383.333-.904.431-.651.87.252.44.749.713 1.017 1.1.272.417.51.855.712 1.31z"/>
        <path fill="#3F3D56" d="M368.339 203.77a46.246 46.246 0 0 1-2.491 9.17 34.54 34.54 0 0 0-1.466 4.111c-.313 1.262-.252 2.613-.541 3.879-.358 1.575-.716 3.154-1.005 4.742a31.093 31.093 0 0 0-.578 7.367c0 .389.075.774.22 1.136.134.293.35.545.476.846.19.535.15 1.125-.114 1.628a4.713 4.713 0 0 1-.839 1.27c-3.793 1.132-7.851.761-11.803 1.002-3.643.22-7.327.968-10.917.345-.407-1.628.273-3.333.855-4.92 1.689-4.612 3.557-9.415 3.256-14.246a14.759 14.759 0 0 0-.191-1.681c-.59-3.423.053-6.969 1.082-10.286.64-2.068.611-4.27.464-6.423a11.73 11.73 0 0 1-.028-2.104 3.7 3.7 0 0 1 .765-1.966c0-.029.037-.057.057-.086.02-.028.18-.024.305 0a.26.26 0 0 0 .204 0l.045-.028a.102.102 0 0 1 .118 0c.093.057.146.252.35.289.3.045.604.074.907.085.366.011.73.063 1.083.155h.049c.53.09 1.073.043 1.58-.134.336-.084.662-.21.968-.375.09-.097.651-.187.765-.256.37-.224.29-1.274.366-1.706.043-.432.146-.857.306-1.261a2.15 2.15 0 0 1 1.742-1.014c.7-.017 1.401.046 2.088.187 1.518.216 3.073.18 4.563.53.749.175 1.567.44 2.255.097.187.045.215.208.215.407-.017.19-.055.377-.114.558-.26 1.123.623 2.157 1.437 2.971.344.384.75.707 1.2.957.408.187.815.264 1.222.468.33.176.61.432.814.745.235.358.393.761.464 1.184a7.082 7.082 0 0 1-.134 2.357z"/>
        <path fill="#000" d="M368.339 203.77a46.246 46.246 0 0 1-2.491 9.17 34.54 34.54 0 0 0-1.466 4.111c-.313 1.262-.252 2.613-.541 3.879-.358 1.575-.716 3.154-1.005 4.742a6.248 6.248 0 0 1-1.86.647 9.769 9.769 0 0 1-2.98-.098l-5.808-.777c-2.32-.314-4.79-.692-6.513-2.263-.956-.863-1.583-2.003-2.27-3.102a14.759 14.759 0 0 0-.192-1.68c-.59-3.424.053-6.97 1.083-10.286.639-2.068.61-4.27.464-6.423a11.73 11.73 0 0 1-.029-2.105 3.7 3.7 0 0 1 .765-1.965c.12-.035.24-.063.363-.082.082-.016.164-.027.248-.032h.118c.137 0 .274.016.407.048.277.089.55.193.814.314h.049c.349.115.715.167 1.083.154.537 0 1.09-.085 1.628-.122a3.004 3.004 0 0 1 1.929.346c.378.304.737.632 1.075.981.407.32.865.57 1.355.737a14.405 14.405 0 0 0 10.835-.228 2.12 2.12 0 0 1 1.087-.277c.28.055.547.17.781.334.244.143.485.28.733.407.234.359.392.762.464 1.185.093.796.05 1.603-.126 2.385z" opacity=".1"/>
        <path fill="#EA0B4B" d="M371.884 201.075a21.723 21.723 0 0 1-4.64-2.035 2.08 2.08 0 0 0-.782-.334 2.186 2.186 0 0 0-1.09.277 14.397 14.397 0 0 1-10.832.228 4.71 4.71 0 0 1-1.355-.737 12.17 12.17 0 0 0-1.074-.98c-1.34-.868-3.192.15-4.69-.408a8.307 8.307 0 0 0-.813-.313c-1.185-.297-2.39.883-3.554.525a19.802 19.802 0 0 0-.956 3.63 39.575 39.575 0 0 0-.265 4.283c0 .858-.04 1.717 0 2.576.29.048.547.214.708.46.109.287.085.607-.065.875-.85 2.186-1.713 4.396-3.004 6.354.91.542 1.754 1.186 2.516 1.921 1.424 1.506 2.124 3.618 3.663 5.01 1.734 1.568 4.205 1.95 6.512 2.26l5.809.777c.983.184 1.99.218 2.983.102a6.28 6.28 0 0 0 1.592-.517 2.85 2.85 0 0 0 .887-.586c.215-.244.392-.518.525-.814.46-.92.88-1.86 1.266-2.813.134-.338.338-.733.704-.761 2.157-1.946 4.192-3.94 6.35-5.886a14.07 14.07 0 0 0 2.316-2.442c1.07-1.583.097-3.826 0-5.739a7.245 7.245 0 0 0-.183-1.453c-.35-1.388-1.173-3.049-2.528-3.46z"/>
        <path fill="#000" d="M337.327 192.93c-.325.652-1.107.965-1.71 1.376l-2.063 1.417a1.376 1.376 0 0 1-1.021.35 1.343 1.343 0 0 1-.762-.712v-.294c-.015-.329.029-.659.13-.972.203-.46.516-.863.912-1.173a7.465 7.465 0 0 1 2.675-1.628.916.916 0 0 1 .488-.048.643.643 0 0 1 .18.077c.145.159.268.337.365.529.163.334.973.745.806 1.079z" opacity=".1"/>
        <path fill="#EA0B4B" d="M342.187 197.22c-.692-.032-1.257-.533-1.762-1.009l-1.543-1.433a1.44 1.44 0 0 1-.268-.3 2.112 2.112 0 0 1-.188-.501 5.743 5.743 0 0 0-1.498-2.15.977.977 0 0 0-.443-.317.891.891 0 0 0-.493.049 7.445 7.445 0 0 0-2.674 1.628 3.04 3.04 0 0 0-.912 1.172 2.707 2.707 0 0 0-.13.973 7.473 7.473 0 0 0 .936 3.557 14.095 14.095 0 0 0 1.913 2.487l.969 1.083c.952 1.066 1.905 2.133 2.939 3.114.37.395.82.708 1.319.92.51.208 1.094.114 1.514-.244a2.19 2.19 0 0 0 .431-.774c.627-1.628 1.221-3.321 1.258-5.075a19.155 19.155 0 0 0-.09-2.105c-.06-.74-.586-1.03-1.278-1.074z"/>
        <path fill="#33313F" d="M366.853 254.204a94.052 94.052 0 0 1-.871 12.24c-.081.655-.17 1.31-.216 1.966-.134 1.9.086 3.81-.093 5.698-.094 1.022-.306 2.035-.485 3.032a53.919 53.919 0 0 0-.692 13.493c.562 7.502-1.16 15.007-.378 22.488a18.178 18.178 0 0 1-.24 4.352c-.146.89-.357 1.77-.631 2.629-.594 2.038-1.191 4.073-1.791 6.105-.07.31-.21.599-.407.847a1.93 1.93 0 0 1-1.527.452c-2.348-.073-4.558-1.087-6.691-2.076a2.332 2.332 0 0 1-.672-.407c-.443-.46-.407-1.185-.602-1.791-.195-.606-.725-1.176-1.026-1.8a5.873 5.873 0 0 1-.443-1.851 75.9 75.9 0 0 1-.554-6.276c-.155-2.955 1.8-5.674 2.442-8.548 1.221-5.65.187-11.706 2.357-17.067.684-1.693-.31-3.744-.407-5.568a17.653 17.653 0 0 0-.456-3.492c-.407-1.53-1.266-2.971-1.327-4.559-.045-1.147.326-2.267.517-3.398.254-1.666.23-3.361-.07-5.019-.215-1.368-.545-2.735-.874-4.07l-.074.15a45.994 45.994 0 0 0-2.552 6.004c-.325.997-.61 2.015-1.017 2.984-.334.814-.745 1.558-1.148 2.324a66.752 66.752 0 0 0-3.765 8.364c-.505 1.408-.948 2.85-1.388 4.262l-3.016 9.768c-.814 2.569-1.705 5.051-2.503 7.616-1.128 3.663-2.255 7.294-3.566 10.875-1.22 3.4-2.674 6.92-2.238 10.51a7.734 7.734 0 0 1-3.594.728 21.043 21.043 0 0 1-6.106-1.481c-.777-.29-1.583-.615-2.108-1.254-.904-1.103-.68-2.719-.407-4.123a9.968 9.968 0 0 1 .488-1.856c.31-.749.814-1.412 1.132-2.153.639-1.42.68-3.028.932-4.571.252-1.543.814-3.17 2.133-4.01.223-2.71 1.339-5.384 1.953-8.034.464-2.007.619-4.07.985-6.105.367-2.036.957-4.07 2.186-5.72a9.064 9.064 0 0 1 1.107-4.883 5.34 5.34 0 0 0 .485-1.038c.075-.354.119-.713.13-1.075a6.354 6.354 0 0 1 1.717-3.773c-.407-1.486.16-3.036.668-4.477.64-1.839.93-3.782.855-5.727a5.019 5.019 0 0 1 .077-1.628c.114-.407.338-.753.468-1.144.116-.479.178-.969.183-1.461.159-2.202 1.05-4.278 2.035-6.244.587-1.148.09-2.707.212-3.985.212-2.125.444-4.322 1.498-6.174.195-.35.407-.684.582-1.046a4.53 4.53 0 0 0 .338-1.629c.036-.932.167-1.705-.167-2.572 2.178-1.811 5.149-2.32 7.982-2.442 2.833-.122 5.698.134 8.47-.468.814-.183 1.628-.436 2.487-.558 1.95-.285 3.928.159 5.853.598-.134 1.222.313 2.394.814 3.53a37.882 37.882 0 0 1 3.016 14.538z"/>
        <path fill="#000" d="M357.268 255.136l-4.677 10.518c-.216-1.368-.546-2.735-.875-4.07l-.074.15v-.22l2.548-5.604 3.078-.774zM371.281 233.165c-.27.202-.591.322-.928.346a4.514 4.514 0 0 1-1.522-.207l-3.663-.916a1.8 1.8 0 0 1-.334-.118c.061-.64.183-1.38.53-1.628.516-.346 2.063.118 2.65.199 1.008.138 2.034.301 3.02.493.152.599.235 1.213.247 1.831z" opacity=".1"/>
        <path fill="#EA0B4B" d="M374.379 208.947c.077.338.187.672.252 1.014.11.838.08 1.69-.085 2.52l-.334 2.327-.334 2.34-1.29 9.008-.317 2.23-.448 3.114c-.021.26-.087.513-.196.75-.27.449-.75.732-1.274.752a4.616 4.616 0 0 1-1.522-.207l-3.663-.92a1.148 1.148 0 0 1-.448-.183.883.883 0 0 1-.236-.86c.053-.308.187-.597.232-.907.09-.602-.163-1.22-.073-1.82.088-.38.225-.748.407-1.094 1.221-2.699.513-5.849.928-8.78a13.31 13.31 0 0 1 2.825-6.284 18.04 18.04 0 0 1 3.118-3.061c.455-.354 1.18-1.083 1.754-1.221.737-.155.582.77.704 1.282z"/>
        <path fill="#33313F" d="M346.656 173.886c-.268.855.151 1.795-.04 2.666-.208.96-1.112 1.628-1.368 2.593-.407 1.469.839 2.808 1.75 4.03 3.379 4.533 2.935 10.81 1.779 16.341a84.38 84.38 0 0 1-3.846 13.025c-.51 1.315-1.07 2.65-2.072 3.635 1.872-.537 3.863-1.079 5.739-.558 2.377.66 4.428 2.967 6.838 2.442 1.449-.321 2.467-1.607 3.769-2.32 2.442-1.314 5.385-.488 8.108-.065.587.139 1.2.108 1.77-.09a2.943 2.943 0 0 0 1.075-.988 10.037 10.037 0 0 0 2.092-5.414 6.944 6.944 0 0 0-1.998-5.344c-.578-.546-1.27-.985-1.714-1.628a5.055 5.055 0 0 1-.671-2.467c-.322-4.477.769-9.048-.355-13.379-.407-1.542-1.07-3.02-1.25-4.6-.223-1.965.31-4.07-.471-5.868-.615-1.43-1.97-2.443-3.432-2.964-1.46-.52-3.024-.667-4.575-.814-2.23-.187-10.196-1.143-11.128 1.767z"/>
        <g fill="#000" opacity=".1">
            <path d="M348.777 199.516a84.214 84.214 0 0 1-3.826 12.972c.28-.557.517-1.144.74-1.726a83.933 83.933 0 0 0 3.847-13.024c1.16-5.536 1.604-11.804-1.775-16.343-.814-1.082-1.86-2.254-1.823-3.524-.3.384-.535.816-.692 1.278-.407 1.469.839 2.808 1.75 4.03 3.379 4.53 2.935 10.806 1.779 16.337zM346.665 176.14a3.96 3.96 0 0 0 .716-1.37 6.972 6.972 0 0 0-.049-1.816c-.313.236-.549.56-.676.932-.24.72.037 1.502.009 2.255zM370.923 212.806a2.93 2.93 0 0 1-1.074.985 3.11 3.11 0 0 1-1.77.09c-2.724-.408-5.7-1.246-8.109.068-1.306.709-2.32 1.995-3.773 2.32-2.405.538-4.457-1.77-6.834-2.442-1.685-.468-3.46-.081-5.157.407a7.11 7.11 0 0 1-1.347 1.946c1.872-.537 3.863-1.079 5.739-.558 2.377.66 4.428 2.968 6.838 2.442 1.449-.321 2.467-1.607 3.769-2.32 2.442-1.314 5.385-.488 8.108-.065.587.139 1.2.108 1.77-.09a2.943 2.943 0 0 0 1.075-.988 10.94 10.94 0 0 0 1.685-3.224c-.272.498-.58.975-.92 1.429z"/>
        </g>
    </g>
</svg>
