<?xml version="1.0" encoding="UTF-8"?>
<svg width="79px" height="64px" viewBox="0 0 79 64" version="1.1" xmlns="http://www.w3.org/2000/svg" xmlns:xlink="http://www.w3.org/1999/xlink">
    <!-- Generator: Sketch 53 (72520) - https://sketchapp.com -->
    <title>“ copy</title>
    <desc>Created with Sketch.</desc>
    <g id="Static" stroke="none" stroke-width="1" fill="none" fill-rule="evenodd" opacity="0.266350446">
        <g id="Home-page----1440---alternate-1-with-dropdown" transform="translate(-1241.000000, -2031.000000)" fill="#AAAAAA">
            <path d="M1258.17391,2062.8552 C1262.372,2063.24133 1265.80675,2064.88234 1268.47826,2067.77828 C1271.14977,2070.67422 1272.48551,2074.34236 1272.48551,2078.78281 C1272.48551,2083.60938 1271.05436,2087.51884 1268.19203,2090.51131 C1265.3297,2093.50379 1261.70413,2095 1257.31522,2095 C1252.35384,2095 1248.39434,2093.16593 1245.43659,2089.49774 C1242.47885,2085.82954 1241,2080.13428 1241,2072.41176 C1241,2057.54593 1245.86589,2044.70744 1255.59783,2033.89593 C1257.50605,2031.9653 1259.70047,2031 1262.18116,2031 C1264.2802,2031 1266.09299,2031.72397 1267.61957,2033.17195 C1269.14614,2034.61992 1269.90942,2036.30919 1269.90942,2038.23982 C1269.90942,2040.36351 1269.14614,2042.19758 1267.61957,2043.74208 C1262.65819,2048.95478 1259.50967,2055.32575 1258.17391,2062.8552 Z M1305.68841,2062.8552 C1309.88649,2063.24133 1313.32124,2064.88234 1315.99275,2067.77828 C1318.66426,2070.67422 1320,2074.34236 1320,2078.78281 C1320,2083.60938 1318.56885,2087.51884 1315.70652,2090.51131 C1312.84419,2093.50379 1309.21862,2095 1304.82971,2095 C1299.86833,2095 1295.90883,2093.16593 1292.95109,2089.49774 C1289.99334,2085.82954 1288.51449,2080.13428 1288.51449,2072.41176 C1288.51449,2057.54593 1293.38039,2044.70744 1303.11232,2033.89593 C1305.02054,2031.9653 1307.21496,2031 1309.69565,2031 C1311.7947,2031 1313.60748,2031.72397 1315.13406,2033.17195 C1316.66064,2034.61992 1317.42391,2036.30919 1317.42391,2038.23982 C1317.42391,2040.36351 1316.66064,2042.19758 1315.13406,2043.74208 C1310.17268,2048.95478 1307.02416,2055.32575 1305.68841,2062.8552 Z" id="“-copy" transform="translate(1280.500000, 2063.000000) rotate(-180.000000) translate(-1280.500000, -2063.000000) "></path>
        </g>
    </g>
</svg>