<svg xmlns="http://www.w3.org/2000/svg" xmlns:xlink="http://www.w3.org/1999/xlink" width="23" height="15" viewBox="0 0 23 15">
    <defs>
        <path id="b" d="M0 0h222v764H0z"/>
        <filter id="a" width="106.3%" height="101.8%" x="-3.2%" y="-.7%" filterUnits="objectBoundingBox">
            <feOffset dy="2" in="SourceAlpha" result="shadowOffsetOuter1"/>
            <feGaussianBlur in="shadowOffsetOuter1" result="shadowBlurOuter1" stdDeviation="2"/>
            <feColorMatrix in="shadowBlurOuter1" values="0 0 0 0 0 0 0 0 0 0 0 0 0 0 0 0 0 0 0.0696022727 0"/>
        </filter>
    </defs>
    <g fill="none" fill-rule="evenodd">
        <path fill="#FFF" d="M-28-312h1440v1658H-28z"/>
        <g transform="translate(-28 -312)">
            <use fill="#000" filter="url(#a)" xlink:href="#b"/>
            <use fill="#FFF" xlink:href="#b"/>
        </g>
        <path d="M-28-18h222v48H-28z"/>
        <path fill="#EA0B4B" fill-rule="nonzero" d="M19.892 6.6a2.72 2.72 0 0 0 1.12-2.206c0-1.491-1.175-2.697-2.627-2.697-1.451 0-2.625 1.206-2.625 2.697 0 .911.441 1.72 1.12 2.206a4.525 4.525 0 0 0-1.553.935 5.842 5.842 0 0 0-2.13-1.192 3.444 3.444 0 0 0 1.607-2.926C14.804 1.529 13.316 0 11.477 0 9.64 0 8.151 1.533 8.151 3.417c0 1.239.641 2.328 1.606 2.926A5.89 5.89 0 0 0 7.65 7.521a4.56 4.56 0 0 0-1.534-.916 2.72 2.72 0 0 0 1.12-2.206C7.236 2.907 6.062 1.7 4.61 1.7S1.984 2.907 1.984 4.4c0 .911.442 1.72 1.12 2.206C1.297 7.245 0 9.007 0 11.078v.309c0 .01.01.018.018.018h5.566c-.032.258-.05.524-.05.79v.318c0 1.375 1.083 2.487 2.42 2.487h7.055c1.338 0 2.42-1.112 2.42-2.487v-.318c0-.266-.017-.532-.05-.79h5.603c.009 0 .018-.009.018-.018v-.309c-.01-2.075-1.302-3.837-3.108-4.478zm-3.404-2.21c0-1.076.85-1.95 1.897-1.95 1.047 0 1.898.874 1.898 1.95 0 1.06-.833 1.925-1.861 1.948h-.073c-1.033-.018-1.861-.883-1.861-1.949zM8.794 3.41c0-1.505 1.213-2.73 2.706-2.73 1.493 0 2.706 1.225 2.706 2.73 0 1.454-1.133 2.644-2.55 2.725h-.312c-1.417-.08-2.55-1.271-2.55-2.725zM2.7 4.39c0-1.075.85-1.949 1.897-1.949 1.047 0 1.898.874 1.898 1.95 0 1.06-.833 1.925-1.861 1.948H4.56C3.531 6.32 2.699 5.455 2.699 4.39zm3.012 6.264H.737C.942 8.662 2.58 7.1 4.57 7.086h.055a3.79 3.79 0 0 1 2.48.95 6.188 6.188 0 0 0-1.393 2.617zm10.982 1.86c0 .958-.76 1.74-1.693 1.74H7.946c-.933 0-1.693-.782-1.693-1.74v-.318c0-2.902 2.257-5.277 5.065-5.361.05.005.105.005.155.005s.104 0 .154-.005c2.808.084 5.066 2.459 5.066 5.361v.318zm.541-1.86a6.172 6.172 0 0 0-1.379-2.6 3.808 3.808 0 0 1 2.503-.967h.055c1.988.014 3.627 1.576 3.832 3.567h-5.01z"/>
    </g>
</svg>
