<svg xmlns="http://www.w3.org/2000/svg" xmlns:xlink="http://www.w3.org/1999/xlink" width="71" height="49" viewBox="0 0 71 49">
    <defs>
        <path id="b" d="M54 7L57.106.789a1 1 0 0 1 1.788 0L62 7h49a4 4 0 0 1 4 4v97a4 4 0 0 1-4 4H4a4 4 0 0 1-4-4V11a4 4 0 0 1 4-4h50z"/>
        <filter id="a" width="106.1%" height="106.3%" x="-3%" y="-2.2%" filterUnits="objectBoundingBox">
            <feOffset dy="1" in="SourceAlpha" result="shadowOffsetOuter1"/>
            <feGaussianBlur in="shadowOffsetOuter1" result="shadowBlurOuter1" stdDeviation="1"/>
            <feColorMatrix in="shadowBlurOuter1" values="0 0 0 0 0 0 0 0 0 0 0 0 0 0 0 0 0 0 0.158967391 0"/>
        </filter>
        <linearGradient id="c" x1="50%" x2="50%" y1="99.998%" y2=".011%">
            <stop offset="0%" stop-color="gray" stop-opacity=".25"/>
            <stop offset="54%" stop-color="gray" stop-opacity=".12"/>
            <stop offset="100%" stop-color="gray" stop-opacity=".1"/>
        </linearGradient>
    </defs>
    <g fill="none" fill-rule="evenodd">
        <path fill="#F6F6F6" d="M-272-1994h1440V504H-272z"/>
        <g transform="translate(-25 -15)">
            <use fill="#000" filter="url(#a)" xlink:href="#b"/>
            <use fill="#FFF" xlink:href="#b"/>
        </g>
        <g>
            <rect width="5.289" height="1.984" x="21.816" y="5.158" fill="#0DA176" fill-rule="nonzero" opacity=".1" rx=".399"/>
            <rect width="5.289" height="1.984" x="37.549" y="3.372" fill="#0DA176" fill-rule="nonzero" opacity=".1" rx=".399"/>
            <rect width="5.289" height="1.984" x="34.641" y="23.541" fill="#0DA176" fill-rule="nonzero" opacity=".1" rx=".399"/>
            <rect width="5.289" height="1.984" x="37.02" y="25.723" fill="#0DA176" fill-rule="nonzero" opacity=".1" rx=".399"/>
            <rect width="5.289" height="1.984" x="51.168" y="24.731" fill="#0DA176" fill-rule="nonzero" opacity=".1" rx=".399"/>
            <rect width="5.289" height="1.984" x="8.131" y="26.318" fill="#0DA176" fill-rule="nonzero" opacity=".1" rx=".399"/>
            <rect width="5.289" height="1.984" x="32.988" y="27.906" fill="#0DA176" fill-rule="nonzero" opacity=".1" rx=".399"/>
            <path fill="url(#c)" fill-rule="nonzero" d="M47.526 12.115l-2.424-7.037-.871.132-.78.1c.02-.265.054-1.214-.43-1.712-.047-.17-.17-.364-.408-.583-1.16-1.063-1.401 1.112-1.401 1.112s-.265.459-.629 1.1l-.191-.036-.054.473c-.807 1.427-1.878 3.357-1.878 3.538 0 .29-.145.677-.145.677s-.821 1.353-1.111 2.03c-.17.4-.417.76-.728 1.063 0 0-.07.054-.185.132.008-.128.03-.254.066-.377.106-.346.352-.642.418-.998.015-.085.02-.172.017-.259.015-.417-.188-.828-.273-1.245-.098-.483-.045-1.016-.303-1.435-.198-.321-.55-.52-.916-.613-.335-.084-.666-.054-1.004-.09-.311-.033-.608-.17-.919-.221a1.185 1.185 0 0 0-.503 0c-.526.145-.69.807-1.097 1.172-.146.132-.325.223-.457.368-.192.21-.26.505-.25.793a1.69 1.69 0 0 0 .018.29c.05.345.184.673.264 1.012.061.25.094.508.099.766 0 .058 0 .117-.005.174a.61.61 0 0 1-.09.33c-.073.102-.194.15-.302.216a2.344 2.344 0 0 1-.761-1.08s-.018.022-.049.065v-.066s-.66-.97-.761-1.763l.23.023.529-7.442-1.35-.199c-.038-.384-.141-.941-.413-1.348.227-.447.341-1.052-.653-1.112-1.163-.071-1.092.836-.968 1.332-.056.27-.079.547-.066.823l-1.19-.173-.007.096h-.283l-.866 7.593.738-.037 2.704.282c.216 1.965.556 4.395.959 4.968.013.019.028.037.044.055v3.478s-.048 4.497-.87 5.22a4.296 4.296 0 0 1 1.572-.247 8.439 8.439 0 0 0-.278 1.45 11 11 0 0 0-.031.316 17.057 17.057 0 0 0 .042 3.024c.338 3.576.87 6.138.87 6.138l.148 2.079s-.145 3.528.24 4.687c.146.135.314.243.495.321.004.033.008.066.01.101l.014.136c-.173.079-.496.39-.566 1.617 0 0 .096.918-.145 1.353-.241.434-.097 1.691.628 1.836a3.87 3.87 0 0 0 1.4 0s.34 0 .097-1.208l-.042-.31c-.005-.598.02-1.239.139-1.43.241-.387-.097-.773-.097-.773s-.024.013-.063.031c-.062-.334-.143-.876-.114-1.29 0-.035.006-.066.01-.103.147-.077.285-.171.41-.282v-4.59s-.05-7.056.482-7.201c0 0 .242 2.561.145 3.818-.096 1.257.145 2.61.145 2.61l.096 5.123s.093.044.242.097l-.01.093c-.058.57-.153 1.429-.239 1.955a.389.389 0 0 0-.234.271c-.145.484-.049 1.692-.339 2.03-.171.199-.376.603-.276.889-.062.25-.035.642.711.706 1.111.097 1.595-.483 1.595-.483s.144-.241 0-.676c-.145-.436.048-1.209.048-1.209s.104-.656-.066-.742c-.015-.078-.028-.127-.028-.127a.582.582 0 0 0-.153-.402c-.004-.506.017-1.442.195-2.058l.032-.103c.143-.024.281-.073.409-.143 0 0-.049-1.112.29-1.885.338-.773.145-3.866.145-3.866s-.145-.813.059-1.471c.234-.73.41-1.478.525-2.236l.285-1.996s.75-2.43-.238-4.924a6.771 6.771 0 0 0-.407-.847l-.05-.084.163-.041s-1.305-3.042-.484-4.592c0 0 .463-.463.53-.971.081-.673.17-1.344.317-2.006l.026-.116.01-.063a.993.993 0 0 0 .055-.038c1.392-1.017 2.593-5.263 2.593-5.263l.386-.728.184-.388-.377 3.288 2.947.727 1.884-.144-.005-.406 1.436-.112 1.737-.729zM28.844 2.527l-.524-.077c-.092-.473-.154-.783-.154-.783.11-.136.207-.281.29-.434.253.387.35.916.388 1.291v.003zm-1.956-1.015c.036.124.07.204.07.204l.066.546-.179-.026c-.01-.243.005-.487.044-.727v.003zm16.514 3.81l-.709.09c.1-.293.224-.775.152-1.21a.608.608 0 0 0 .194-.506c.421.503.381 1.392.363 1.623v.002zm-1.177-.755c.211-.07.407-.181.577-.325.061.428-.066.898-.162 1.177l-.661.085-.183-.035.43-.902z"/>
            <path fill="#0DA176" fill-rule="nonzero" d="M47.4 12.24l-1.725.72-2.004-6.989.47-.558.861-.133z"/>
            <path fill="#FFF" fill-rule="nonzero" d="M47.4 12.24l-1.725.72-2.004-6.989.47-.558.861-.133z" opacity=".2"/>
            <path fill="#0DA176" fill-rule="nonzero" d="M44.141 5.413l-2.993.384 1.534 7.396 2.993-.233z"/>
            <path fill="#FFF" fill-rule="nonzero" d="M44.141 5.413l-2.993.384 1.534 7.396 2.993-.233z" opacity=".07"/>
            <path fill="#535461" fill-rule="nonzero" d="M43.363 5.58l-.048-.006c0-.018.199-1.764-.897-1.984l.01-.047c1.142.23.939 2.019.935 2.037z"/>
            <path fill="#774E55" fill-rule="nonzero" d="M32.29 10.676h3.297v4.827H32.29z"/>
            <path fill="#000" fill-rule="nonzero" d="M32.29 10.676h3.297v4.827H32.29z" opacity=".2"/>
            <path fill="#0DA176" fill-rule="nonzero" d="M44.26 13.471l-1.864.144.287-7.265.621-.383.86.144z"/>
            <path fill="#000" fill-rule="nonzero" d="M44.26 13.471l-1.864.144.287-7.265.621-.383.86.144z" opacity=".2"/>
            <path fill="#0DA176" fill-rule="nonzero" d="M43.304 5.967l-2.962-.574-.86 7.505 2.914.717zM25.863 2.383h-.43l-.86 7.504 1.91-.096z"/>
            <path fill="#000" fill-rule="nonzero" d="M25.863 2.383h-.43l-.86 7.504 1.91-.096z" opacity=".2"/>
            <path fill="#0DA176" fill-rule="nonzero" d="M25.72 2.287l-.526 7.552 4.587.478.526-7.361z"/>
            <path fill="#5C3D53" fill-rule="nonzero" d="M31.262 41.482s-.573-.048-.669 1.625c0 0 .096.908-.143 1.339-.24.43-.096 1.673.621 1.816.46.085.93.085 1.389 0 0 0 .334 0 .096-1.195l-.478-3.49-.816-.095z"/>
            <path fill="#000" fill-rule="nonzero" d="M31.262 41.482s-.573-.048-.669 1.625c0 0 .096.908-.143 1.339-.24.43-.096 1.673.621 1.816.46.085.93.085 1.389 0 0 0 .334 0 .096-1.195l-.478-3.49-.816-.095z" opacity=".05"/>
            <path fill="#F8BDC5" fill-rule="nonzero" d="M34.267 13.88c-.04.712.101 1.124.101 1.124l-1.242.335s-2.055.287-1.242-.53c.28-.28.419-.762.48-1.272.037-.347.049-.697.034-1.047a9.34 9.34 0 0 0-.084-.979s3.01-1.051 2.341.67a6.12 6.12 0 0 0-.287.958 5.057 5.057 0 0 0-.1.741z"/>
            <path fill="#000" fill-rule="nonzero" d="M34.655 12.181a6.12 6.12 0 0 0-.287.96 2.058 2.058 0 0 1-1.97-.65 9.34 9.34 0 0 0-.084-.979s3.01-1.051 2.341.67z" opacity=".1"/>
            <ellipse cx="33.939" cy="11.034" fill="#F8BDC5" fill-rule="nonzero" rx="2.055" ry="2.055"/>
            <path fill="#F8BDC5" fill-rule="nonzero" d="M30.307 12.038v.621l-1.052 2.725-.286-.287a.483.483 0 0 1-.044-.054c-.694-.987-1.2-7.546-1.2-7.546l-.668-5.546s-.716-1.72.86-1.626c1.576.094.334 1.577.334 1.577s1.051 5.258.908 5.45c-.144.19 0 .764 0 .764s.43 1.1.382 1.912c-.048.812.766 2.01.766 2.01zM42.157 4.772l-2.485 5.258-.382.716s-1.19 4.2-2.564 5.206a1.256 1.256 0 0 1-.256.147l-.286-2.294.264-.667.02-.05c.306-.3.55-.657.716-1.052.287-.67 1.1-2.008 1.1-2.008s.143-.382.143-.67c0-.286 2.724-5.018 2.724-5.018s.239-2.151 1.388-1.1c1.15 1.052-.382 1.532-.382 1.532zM32.552 42.916s-1.625.669-1.434.047c.117-.377.074-1.089.022-1.587-.033-.324-.07-.561-.07-.561l1.388.143c-.048.121-.075.25-.08.38-.045.635.174 1.578.174 1.578zM35.079 41.056c-.25.87-.185 2.386-.185 2.386s-1.482.191-1.338-.191c.1-.265.246-1.575.325-2.346.035-.336.057-.57.057-.57l1.338.287a1.337 1.337 0 0 0-.197.434z"/>
            <path fill="#000" fill-rule="nonzero" d="M31.07 40.813l1.389.143c-.048.121-.076.25-.08.38-.385.202-.84.216-1.236.038-.035-.325-.072-.561-.072-.561zM35.277 40.622a1.337 1.337 0 0 0-.199.434c-.451.073-.925-.055-1.197-.15.035-.337.057-.57.057-.57l1.339.286z" opacity=".1"/>
            <path fill="#5E52AD" fill-rule="nonzero" d="M36.806 29.484l-.282 1.975c-.114.749-.288 1.488-.52 2.21-.202.651-.058 1.455-.058 1.455s.19 3.059-.144 3.824c-.334.765-.287 1.864-.287 1.864-.765.43-1.863-.096-1.863-.096l-.096-5.066s-.239-1.339-.144-2.58c.096-1.24-.143-3.775-.143-3.775-.529.143-.478 7.122-.478 7.122v4.54c-1.147 1.004-2.15 0-2.15 0-.383-1.147-.24-4.636-.24-4.636l-.143-2.055s-.529-2.534-.86-6.07a16.867 16.867 0 0 1-.04-2.992l.03-.313c.046-.452.129-.9.248-1.339.037-.144.086-.286.145-.423l5.135.238.302.014.728.034a6.388 6.388 0 0 1 .495.892c.046.102.09.204.132.306.976 2.466.233 4.871.233 4.871z"/>
            <path fill="#000" fill-rule="nonzero" d="M31.167 23.605s-.225 2.249-1.81 1.598l.03-.313c.374.101 1.405.24 1.444-1.285h.336zM36.57 24.614c-1.097.392-1.51-.652-1.652-1.248l.302.014c.165.937.822.992 1.222.926.045.104.088.207.128.308z" opacity=".1"/>
            <path fill="#5C3D53" fill-rule="nonzero" d="M31.688 42.662c-.244-.039-.617-.173-.5-.642 0 0-.451-.156-.403 1.708 0 0-.048.908-.144 1.1-.096.192 0 1.338 1.004 1.243 0 0 .716.238.907-.144 0 0-.143-2.199.096-2.579.24-.38-.096-.765-.096-.765s-.338.188-.582.132c-.092-.025-.187-.038-.282-.053zM32.887 45.784s-.478.812.621.908c1.1.095 1.577-.479 1.577-.479s.143-.238 0-.669c-.144-.43.047-1.195.047-1.195s.144-.908-.19-.717c-.335.192-2.055 2.152-2.055 2.152z"/>
            <path fill="#000" fill-rule="nonzero" d="M32.887 45.784s-.478.812.621.908c1.1.095 1.577-.479 1.577-.479s.143-.238 0-.669c-.144-.43.047-1.195.047-1.195s.144-.908-.19-.717c-.335.192-2.055 2.152-2.055 2.152z" opacity=".05"/>
            <path fill="#5C3D53" fill-rule="nonzero" d="M34.13 42.868s-.574-.239-.717.239c-.143.477-.048 1.673-.335 2.007-.286.335-.669 1.243.478 1.195 1.147-.047 1.389-.43 1.389-.43s-.048-1.195.096-1.53c.143-.334 0-.86 0-.86s.044-.672-.911-.62z"/>
            <ellipse cx="26.961" cy="2.956" fill="#000" fill-rule="nonzero" opacity=".2" rx="1" ry="1"/>
            <ellipse cx="28.969" cy="3.195" fill="#000" fill-rule="nonzero" opacity=".2" rx="1" ry="1"/>
            <path fill="#535461" fill-rule="nonzero" d="M28.992 3.195h-.047c0-.02.033-2.036-1.124-2.222-.228-.037-.415.015-.554.153-.478.474-.28 1.813-.278 1.827l-.047.007c-.009-.056-.203-1.377.292-1.868.15-.15.352-.206.595-.167 1.198.192 1.164 2.25 1.163 2.27zM42.513 5.882l-.043-.02c.008-.016.744-1.612-.229-2.168l.024-.042c1.01.578.256 2.213.248 2.23z"/>
            <path fill="#000" fill-rule="nonzero" d="M34.368 15.002l-1.242.334s-2.055.287-1.242-.529c.28-.28.419-.763.48-1.272.324.509.714.364.714.364l1.185-.023h.005c-.042.716.1 1.126.1 1.126zM36.726 15.953a1.256 1.256 0 0 1-.255.148l-.287-2.295.265-.667.066-.05c.597.17.289 2.367.211 2.864zM30.307 12.038v.621l-1.052 2.725-.286-.287a.483.483 0 0 1-.044-.054c.124-1.42 1.382-3.005 1.382-3.005zM36.168 23.777c-.668.167-4.157.987-5.192.21-.409-.306-.89-.418-1.34-.436.037-.145.086-.286.145-.424l5.135.239.302.014.728.034c.079.12.153.24.222.363z" opacity=".1"/>
            <path fill="#F8BDC5" fill-rule="nonzero" d="M27.177.733s.717 1.195 1.195 0M41.918 3.195s-.286 1.434.86.765"/>
            <g fill="#000" fill-rule="nonzero" opacity=".1">
                <path d="M33.047 29.766c-.023-.29-.04-.472-.04-.472-.53.143-.479 7.121-.479 7.121v4.541c-.335.294-.66.416-.948.441.345.03.756-.066 1.19-.44v-4.542s-.037-5.056.277-6.649z"/>
                <path d="M36.546 24.614a4.7 4.7 0 0 0-.132-.306 6.159 6.159 0 0 0-.495-.892l-.727-.034-.303-.014-5.134-.239-.005.01 4.9.229.303.014.727.034a6.388 6.388 0 0 1 .496.892c.046.101.09.204.132.306.977 2.466.235 4.87.235 4.87l-.281 1.975c-.115.749-.288 1.488-.52 2.21-.202.651-.059 1.455-.059 1.455s.191 3.059-.143 3.824c-.335.765-.287 1.864-.287 1.864-.185.1-.39.156-.6.165.29.027.58-.03.838-.165 0 0-.047-1.1.287-1.864.335-.764.144-3.824.144-3.824s-.144-.804.059-1.455c.231-.722.405-1.461.52-2.21l.28-1.975s.743-2.405-.235-4.87z"/>
            </g>
            <path fill="#EB6475" fill-rule="nonzero" d="M34.263 13.974c.661.311 2.208-.885 2.208-.885.67.191.191 2.964.191 2.964l-.026.115a20.672 20.672 0 0 0-.314 1.984c-.062.502-.52.96-.52.96-.812 1.53.478 4.542.478 4.542s-4.157 1.1-5.304.238c-1.146-.86-2.867-.19-2.867-.19.813-.718.86-5.163.86-5.163V15.1c.095-1.434 1.388-3.059 1.388-3.059.529 1.482 1.998 1.58 1.998 1.58.326.529.727.38.727.38l1.181-.027z"/>
            <path fill="#000" fill-rule="nonzero" d="M33.404 8.138a1.172 1.172 0 0 0-.498 0c-.52.143-.683.798-1.084 1.158-.144.132-.322.221-.453.364-.233.256-.28.634-.23.976.05.342.182.666.264 1.001.082.336.113.682.092 1.026a.604.604 0 0 1-.088.325c-.096.132-.273.174-.397.28-.38.326-.066 1.004-.344 1.421-.12.18-.344.3-.39.512-.032.15.037.301.104.44.177.363.36.737.661 1.008.3.27.671.407 1.04.545.112.042.252.078.337-.004.105-.103.026-.278-.047-.406-.115-.198-.205-.437-.137-.661.067-.223.283-.372.429-.558.374-.483.252-1.176.066-1.758-.079-.245-.168-.506-.1-.756.028-.107.084-.204.12-.309.158-.468-.108-.982-.03-1.47.04-.19.107-.375.198-.547l.42-.903a.892.892 0 0 1 .186-.292.661.661 0 0 1 .462-.144c.344.008.67.156.902.41.45.5.42 1.257.366 1.924l-.039.481c-.028.347-.066.716-.284.986-.17.209-.444.351-.514.612-.061.224.053.467-.007.691-.09.336-.504.457-.722.728a.744.744 0 0 0-.055.836c.084.133.217.265.199.42-.015.125-.128.226-.127.352a.28.28 0 0 0 .203.243.82.82 0 0 0 .335.016l1.185-.108c.074 0 .147-.02.211-.058.083-.06.11-.17.121-.27.048-.422-.066-.883.145-1.252.066-.118.163-.217.237-.33.404-.635-.004-1.496.216-2.217.105-.341.348-.635.413-.986.086-.468-.158-.926-.253-1.389-.097-.478-.045-1.004-.3-1.42-.195-.318-.544-.515-.905-.606-.33-.083-.66-.054-.991-.09-.316-.036-.61-.172-.917-.221z" opacity=".1"/>
            <path fill="#774E55" fill-rule="nonzero" d="M33.404 8.042a1.172 1.172 0 0 0-.498 0c-.52.143-.683.798-1.084 1.158-.144.132-.322.221-.453.365-.233.255-.28.633-.23.975.05.342.182.666.264 1.001.082.336.113.682.092 1.026a.604.604 0 0 1-.088.325c-.096.132-.273.174-.397.28-.38.326-.066 1.004-.344 1.422-.12.18-.344.3-.39.51-.032.15.037.302.104.44.177.364.36.738.661 1.009.3.271.671.407 1.04.545.112.042.252.078.337-.004.105-.103.026-.278-.047-.406-.115-.198-.205-.437-.137-.66.067-.224.283-.372.429-.559.374-.483.252-1.176.066-1.758-.079-.245-.168-.506-.1-.755.028-.108.084-.205.12-.31.158-.468-.108-.982-.03-1.47.04-.19.107-.375.198-.547l.42-.902a.892.892 0 0 1 .186-.293.661.661 0 0 1 .462-.144c.344.008.67.156.902.41.45.5.42 1.257.366 1.924l-.039.481c-.028.347-.066.716-.284.986-.17.21-.444.351-.514.612-.061.224.053.467-.007.691-.09.336-.504.457-.722.728a.744.744 0 0 0-.055.836c.084.133.217.265.199.42-.015.125-.128.226-.127.352a.28.28 0 0 0 .203.243.82.82 0 0 0 .335.016l1.185-.107c.074 0 .147-.02.211-.059.083-.06.11-.169.121-.27.048-.422-.066-.883.145-1.252.066-.118.163-.217.237-.33.404-.635-.004-1.496.216-2.216.105-.342.348-.636.413-.987.086-.468-.158-.926-.253-1.389-.097-.478-.045-1.004-.3-1.42-.195-.318-.544-.515-.905-.606-.33-.083-.66-.053-.991-.09-.316-.035-.61-.171-.917-.221z"/>
            <path fill="#000" fill-rule="nonzero" d="M30.856 18.992s.956.287 2.341-.334h.716s.048.669 1.912.382" opacity=".1"/>
            <ellipse cx="35.5" cy="45.694" fill="#0DA176" fill-rule="nonzero" opacity=".1" rx="35.5" ry="3.24"/>
            <rect width="5.289" height="1.984" x="16.659" y="17.127" fill="#0DA176" fill-rule="nonzero" opacity=".1" rx=".399"/>
            <rect width="5.289" height="1.984" x="19.039" y="19.309" fill="#0DA176" fill-rule="nonzero" opacity=".1" rx=".399"/>
            <rect width="5.289" height="1.984" x="39.863" y="17.259" fill="#0DA176" fill-rule="nonzero" opacity=".1" rx=".399"/>
            <rect width="5.289" height="1.984" x="42.243" y="19.441" fill="#0DA176" fill-rule="nonzero" opacity=".1" rx=".399"/>
            <rect width="5.289" height="1.984" x="15.007" y="21.491" fill="#0DA176" fill-rule="nonzero" opacity=".1" rx=".399"/>
            <rect width="5.289" height="1.984" x="20.295" y="29.228" fill="#0DA176" fill-rule="nonzero" opacity=".1" rx=".399"/>
            <rect width="5.289" height="1.984" x="22.675" y="31.41" fill="#0DA176" fill-rule="nonzero" opacity=".1" rx=".399"/>
            <rect width="5.289" height="1.984" x="18.642" y="33.592" fill="#0DA176" fill-rule="nonzero" opacity=".1" rx=".399"/>
            <rect width="5.289" height="1.984" x="41.582" y="34.783" fill="#0DA176" fill-rule="nonzero" opacity=".1" rx=".399"/>
            <rect width="5.289" height="1.984" x="37.549" y="36.965" fill="#0DA176" fill-rule="nonzero" opacity=".1" rx=".399"/>
            <g opacity=".1">
                <path stroke="#535461" stroke-width=".625" d="M62.49 43.934s-.958-4.851 1.013-8.176a7.494 7.494 0 0 0 1.034-4.625c-.085-.765-.24-1.52-.463-2.257"/>
                <path fill="#0DA176" fill-rule="nonzero" d="M65.305 26.773c-.053.578-1.256 2.16-1.256 2.16s-.894-1.774-.84-2.353a1.053 1.053 0 0 1 2.095.192zM66.743 30.139c-.36.457-2.228 1.132-2.228 1.132s.214-1.976.573-2.433a1.052 1.052 0 1 1 1.653 1.3h.002zM66.164 35.61c-.541.212-2.495-.149-2.495-.149s1.182-1.597 1.723-1.81a1.052 1.052 0 0 1 .772 1.958zM64.793 39.653c-.497.302-2.484.276-2.484.276s.896-1.774 1.393-2.076a1.052 1.052 0 1 1 1.091 1.8zM62.304 31.179c.378.442 2.274 1.037 2.274 1.037s-.298-1.966-.675-2.407a1.052 1.052 0 1 0-1.599 1.37zM60.761 35.928c.493.308 2.48.309 2.48.309s-.871-1.786-1.365-2.094a1.052 1.052 0 1 0-1.115 1.785zM59.894 40.748c.434.387 2.392.724 2.392.724s-.558-1.908-.992-2.294a1.052 1.052 0 1 0-1.4 1.57z"/>
            </g>
            <g opacity=".1">
                <path stroke="#535461" stroke-width=".625" d="M54.184 42.87s-.514-2.605.544-4.39a4.024 4.024 0 0 0 .555-2.485 6.768 6.768 0 0 0-.247-1.212"/>
                <path fill="#0DA176" fill-rule="nonzero" d="M55.696 33.654c-.028.31-.674 1.16-.674 1.16s-.48-.952-.452-1.263a.565.565 0 0 1 1.124.103h.002zM56.467 35.461c-.193.246-1.196.608-1.196.608s.115-1.058.308-1.306a.565.565 0 0 1 .888.698zM56.157 38.4c-.29.114-1.34-.08-1.34-.08s.635-.86.926-.972a.565.565 0 0 1 .414 1.052zM55.421 40.569c-.264.162-1.333.148-1.333.148s.48-.953.747-1.115a.565.565 0 1 1 .586.967zM54.084 36.02c.203.238 1.221.557 1.221.557s-.159-1.058-.362-1.292a.565.565 0 1 0-.86.736h.001zM53.256 38.57c.264.165 1.331.166 1.331.166s-.468-.959-.732-1.124a.565.565 0 0 0-.6.958zM52.791 41.158c.233.208 1.285.389 1.285.389s-.3-1.024-.53-1.232a.565.565 0 0 0-.751.844l-.004-.001z"/>
            </g>
            <g opacity=".1">
                <path stroke="#535461" stroke-width=".625" d="M12.338 43.266s-.514-2.605.544-4.39a4.024 4.024 0 0 0 .554-2.484 6.768 6.768 0 0 0-.247-1.212"/>
                <path fill="#0DA176" fill-rule="nonzero" d="M13.85 34.05c-.029.311-.675 1.161-.675 1.161s-.48-.953-.451-1.263a.565.565 0 0 1 1.124.103h.002zM14.621 35.858c-.193.245-1.196.608-1.196.608s.115-1.058.308-1.306a.565.565 0 0 1 .888.698zM14.31 38.797c-.29.114-1.339-.08-1.339-.08s.635-.86.926-.972a.565.565 0 0 1 .414 1.052zM13.575 40.966c-.265.162-1.334.148-1.334.148s.48-.953.748-1.115a.565.565 0 1 1 .586.967zM12.238 36.417c.203.238 1.22.557 1.22.557s-.158-1.058-.361-1.292a.565.565 0 1 0-.86.735zM11.41 38.967c.264.165 1.331.166 1.331.166s-.468-.96-.732-1.125a.565.565 0 0 0-.6.96v-.001zM10.945 41.555c.233.207 1.284.389 1.284.389s-.298-1.025-.529-1.232a.565.565 0 0 0-.752.843h-.003z"/>
            </g>
        </g>
    </g>
</svg>
