<svg xmlns="http://www.w3.org/2000/svg" xmlns:xlink="http://www.w3.org/1999/xlink" width="72" height="44" viewBox="0 0 72 44">
    <defs>
        <path id="b" d="M260 1471l6.211 3.106a1 1 0 0 1 0 1.788L260 1479v63a4 4 0 0 1-4 4H149a4 4 0 0 1-4-4v-97a4 4 0 0 1 4-4h107a4 4 0 0 1 4 4v26z"/>
        <filter id="a" width="105.7%" height="106.7%" x="-2.9%" y="-2.4%" filterUnits="objectBoundingBox">
            <feOffset dy="1" in="SourceAlpha" result="shadowOffsetOuter1"/>
            <feGaussianBlur in="shadowOffsetOuter1" result="shadowBlurOuter1" stdDeviation="1"/>
            <feColorMatrix in="shadowBlurOuter1" values="0 0 0 0 0 0 0 0 0 0 0 0 0 0 0 0 0 0 0.158967391 0"/>
        </filter>
        <linearGradient id="c" x1="49.969%" x2="49.969%" y1="100.009%" y2=".033%">
            <stop offset="0%" stop-color="gray" stop-opacity=".25"/>
            <stop offset="54%" stop-color="gray" stop-opacity=".12"/>
            <stop offset="100%" stop-color="gray" stop-opacity=".1"/>
        </linearGradient>
    </defs>
    <g fill="none" fill-rule="evenodd">
        <path fill="#F6F6F6" d="M-167-1459h1440v2498H-167z"/>
        <g transform="translate(-167 -1459)">
            <use fill="#000" filter="url(#a)" xlink:href="#b"/>
            <use fill="#FFF" xlink:href="#b"/>
        </g>
        <g>
            <path fill="#0DA176" d="M71.937 26.18a11.403 11.403 0 0 1-1.642 5.918c0 2.182-1.015 4.16-2.662 5.602a9.102 9.102 0 0 1-1.383.998l-.106.063-.034.02a10.331 10.331 0 0 1-5.1 1.31H13.657c-.377 0-.751-.014-1.122-.045A13.25 13.25 0 0 1 7.99 38.85a12.344 12.344 0 0 1-.527-.265 11.784 11.784 0 0 1-2.167-1.474c-2.138-1.843-3.464-4.388-3.464-7.2A11.399 11.399 0 0 1 0 23.69c0-6.249 4.983-11.315 11.13-11.315.189 0 .377.006.566.016.027 0 .054 0 .08.003 1.037-1.77 2.422-3.397 4.088-4.83 4.542-3.902 11.182-6.361 18.577-6.361 6.214 0 11.894 1.736 16.245 4.606a10.932 10.932 0 0 1 5.405-1.422c6.146 0 11.13 5.067 11.13 11.316-.001.396-.022.79-.063 1.184a11.355 11.355 0 0 1 4.78 9.293z" opacity=".1"/>
            <g opacity=".2" transform="translate(4.968 22.063)">
                <path fill="#3F3D56" d="M3.733 17.007a.752.752 0 0 1-.006.085c-.24-.095-.475-.197-.706-.306a.572.572 0 0 1-.326-.16l-.201-.105a.863.863 0 0 1 .05-.092c.13-.205.327-.334.544-.327.217.007.405.148.521.36.09.167.132.355.124.545z"/>
                <path fill="#3F3D56" d="M3.767 15.928c-.004.189-.059.373-.158.534-.13.205-.326.334-.543.327l-.045-.003a.572.572 0 0 1-.326-.16.79.79 0 0 1-.15-.197 1.109 1.109 0 0 1 .034-1.079c.13-.205.326-.334.543-.327.217.007.405.148.521.36.09.167.132.355.124.545z"/>
                <ellipse cx="3.129" cy="14.829" fill="#3F3D56" rx="1" ry="1" transform="rotate(-88.19 3.129 14.829)"/>
                <ellipse cx="3.163" cy="13.75" fill="#3F3D56" rx="1" ry="1" transform="rotate(-88.19 3.163 13.75)"/>
                <ellipse cx="3.202" cy="12.6" fill="#3F3D56" rx="1" ry="1" transform="rotate(-88.282 3.202 12.6)"/>
                <path fill="#0DA176" d="M.91 5.204a3.132 3.132 0 0 1-.239-.378l1.777-.236-1.913-.046a3.246 3.246 0 0 1 .02-2.561l2.522 1.415-2.31-1.819a3.222 3.222 0 0 1 5.717.453 3.239 3.239 0 0 1-.508 3.33c.137.186.254.388.349.6L3.992 7.085l2.474-.746a3.242 3.242 0 0 1-.618 3.02 3.238 3.238 0 0 1-.483 4.36 3.219 3.219 0 0 1-4.374-.138A3.238 3.238 0 0 1 .782 9.2a3.239 3.239 0 0 1 .126-3.995H.91z"/>
                <path fill="#000" d="M6.603 7.384a3.223 3.223 0 0 1-.755 1.975 3.238 3.238 0 0 1-.483 4.36 3.219 3.219 0 0 1-4.374-.138A3.238 3.238 0 0 1 .782 9.2C.37 8.636 6.614 7.02 6.602 7.384z" opacity=".1"/>
            </g>
            <path fill="#FFF" d="M60.241 8.725v30.206c0 .641-.518 1.16-1.158 1.16h-46.23a1.158 1.158 0 0 1-1.158-1.16l.001-13.48v-13.06c.027 0 .054 0 .08.003 1.037-1.77 2.422-3.397 4.088-4.83h43.22c.639 0 1.157.52 1.157 1.161z"/>
            <rect width="8.667" height="2.267" x="44.783" y="11.487" fill="#3F3D56" rx="1.124"/>
            <rect width="7.537" height="1.508" x="45.347" y="11.866" fill="#000" opacity=".1" rx=".748"/>
            <rect width="2.722" height="1.343" x="49.974" y="11.949" fill="#0DA176" rx=".666"/>
            <ellipse cx="51.314" cy="12.621" fill="#FFF" rx="1" ry="1"/>
            <rect width="8.667" height="2.267" x="44.783" y="26.43" fill="#3F3D56" rx="1.124"/>
            <rect width="7.537" height="1.508" x="45.347" y="26.809" fill="#000" opacity=".1" rx=".748"/>
            <rect width="2.722" height="1.343" x="49.974" y="26.892" fill="#0DA176" rx=".666"/>
            <ellipse cx="51.314" cy="27.564" fill="#FFF" rx="1" ry="1"/>
            <rect width="8.667" height="2.267" x="44.783" y="33.901" fill="#3F3D56" rx="1.124"/>
            <rect width="7.537" height="1.508" x="45.347" y="34.281" fill="#000" opacity=".1" rx=".748"/>
            <rect width="2.722" height="1.343" x="49.974" y="34.363" fill="#0DA176" rx=".666"/>
            <ellipse cx="51.314" cy="35.035" fill="#FFF" rx="1" ry="1"/>
            <rect width="5.066" height="1.343" x="18.487" y="10.06" fill="#0DA176" rx=".666"/>
            <rect width="14.069" height="1.343" x="18.487" y="11.949" fill="#0DA176" rx=".666"/>
            <rect width="14.069" height="1.343" x="18.487" y="13.838" fill="#0DA176" rx=".666"/>
            <g fill="#0DA176" opacity=".5" transform="translate(18.487 17.524)">
                <rect width="5.066" height="1.343" y=".007" rx=".666"/>
                <rect width="10.501" height="1.343" y="1.896" rx=".666"/>
                <rect width="14.069" height="1.343" y="3.785" rx=".666"/>
            </g>
            <rect width="5.066" height="1.343" x="18.487" y="25.003" fill="#0DA176" rx=".666"/>
            <rect width="14.069" height="1.343" x="18.487" y="26.892" fill="#0DA176" rx=".666"/>
            <rect width="8.741" height="1.343" x="18.487" y="28.781" fill="#0DA176" rx=".666"/>
            <rect width="5.066" height="1.343" x="18.487" y="32.474" fill="#0DA176" rx=".666"/>
            <rect width="14.069" height="1.343" x="18.487" y="34.363" fill="#0DA176" rx=".666"/>
            <rect width="11.319" height="1.343" x="18.487" y="36.252" fill="#0DA176" rx=".666"/>
            <path stroke="#3F3D56" stroke-linecap="round" stroke-width=".5" d="M16.35 16.408h40.998M16.35 24.004h40.998M16.35 31.6h40.998M16.35 39.385h40.998" opacity=".7"/>
            <ellipse cx="49.991" cy="43.337" fill="#0DA176" opacity=".1" rx="9.286" ry="1"/>
            <ellipse cx="4.434" cy="8.9" fill="#0DA176" opacity=".1" rx="1.36" ry="1.363"/>
            <ellipse cx="10.103" cy="1.363" fill="#0DA176" opacity=".1" rx="1.36" ry="1.363"/>
            <ellipse cx="9.642" cy="6.541" fill="#0DA176" opacity=".1" rx="2.279" ry="2.285"/>
            <rect width="8.667" height="2.267" x="44.783" y="18.958" fill="#3F3D56" rx="1.124"/>
            <rect width="7.537" height="1.508" x="45.347" y="19.338" fill="#000" opacity=".1" rx=".748"/>
            <path fill="url(#c)" fill-rule="nonzero" d="M45.6 41.668c.099-.015.198-.035.294-.058a.923.923 0 0 1-.083.28c-.096.183-.284.293-.457.405a.141.141 0 0 0-.178-.012c-.208.127-.374.304-.595.413-.077.038-.158.068-.233.11a1.26 1.26 0 0 0-.44.456c-.063.098-.114.226-.053.323a.28.28 0 0 0 .09.08c.09.063.197.095.306.092.063-.006.126-.03.194-.04.086-.016.174-.008.261-.016.126-.016.25-.048.367-.095l.432-.151c.122-.04.241-.089.356-.147.068-.037.133-.08.203-.114.078-.035.16-.064.242-.086l.246-.072a.238.238 0 0 1 .11-.014c.034.006.063.027.098.036.053.01.107.004.157-.015l.284-.08a.535.535 0 0 0 .17-.071c.13-.093.153-.277.152-.438 0-.243-.028-.486-.082-.723a.225.225 0 0 0-.092.07 1.351 1.351 0 0 0-.094-.118 1.407 1.407 0 0 1-.283-.525.923.923 0 0 0 .251-.285c-.15-.575-.304-1.158-.61-1.664-.1-.166-.214-.32-.314-.483-.298-.473-.359-1.072-.699-1.513a.263.263 0 0 1 0-.308c.04-.052.102-.1.09-.164-.009-.046-.056-.089-.038-.131.009-.021.03-.033.046-.048.058-.054.05-.145.056-.225.013-.2.132-.378.246-.54a.331.331 0 0 1 .09-.098c.032-.019.068-.027.099-.046.108-.07.1-.229.152-.347.068-.156.239-.235.35-.362.144-.161.18-.386.33-.526a.386.386 0 0 1 .05-.04c-.065.239-.095.486-.089.734-.014.853.197 1.735.098 2.584-.078.672.332 1.342.912 1.678.228.122.465.223.71.302.364.13.726.265 1.082.415.252.106.5.22.745.341.302.148.596.312.88.492.35.225.7.454.949.79a.75.75 0 0 0 .418-.155c.096.076.212.133.302.217.124.13.207.293.238.47h-.037l.012.252a.107.107 0 0 1-.01.063.114.114 0 0 1-.033.031l-.194.132c-.14.095-.296.216-.303.387-.004.05.01.099.042.138a.296.296 0 0 0 .172.078c.337.071.682.14 1.024.094.162-.022.33-.075.435-.201.097-.115.126-.27.153-.419.042-.252.077-.51.105-.766.008-.174.043-.345.104-.509a.063.063 0 0 1 .027-.034c.015-.006.032 0 .047-.006s.025-.03.03-.048c.062-.25.092-.505.09-.762a.514.514 0 0 0-.03-.196.395.395 0 0 0-.269-.208 2.139 2.139 0 0 0-.348-.042 1.723 1.723 0 0 1-.288-.053.264.264 0 0 0-.12-.015.084.084 0 0 0-.073.084.108.108 0 0 0 .015.04l-.098-.02c-.08-.014-.19-.048-.308-.077 0-.02.001-.041.004-.063a.12.12 0 0 0-.067-.109l-1.661-.89-.31-.166c-.681-.365-1.384-.702-2.066-1.067-.046.013-.083-.039-.097-.086-.013-.046-.022-.102-.066-.122-.021-.01-.05-.01-.063-.028a.075.075 0 0 1-.012-.056c.023-.332.26-.639.212-.968-.02-.14-.092-.28-.062-.417.022-.095.09-.173.125-.264.082-.203 0-.447.09-.645.06-.13.1-.27.12-.411.042-.283.127-.558.251-.816.06-.13.14-.25.234-.357.05-.055.106-.103.154-.16.144-.173.198-.403.239-.63.074-.404.125-.823.032-1.224-.031-.136-.079-.271-.077-.411 0-.168.067-.36-.014-.495a.435.435 0 0 0 .157-.269.349.349 0 0 1 .022-.111.323.323 0 0 1 .105-.095.436.436 0 0 0 .162-.433c.086.04.177-.048.217-.135.041-.086.072-.189.16-.228.059-.025.125-.01.188-.027.1-.025.161-.126.232-.2.143-.154.346-.234.534-.33.557-.284 1.011-.733 1.456-1.176.232-.216.442-.453.629-.71.05-.073.095-.15.137-.228l.012-.006.003.014c.007.028.016.056.024.083l.063.195c.067.189.141.39.28.534a.66.66 0 0 0 .143.111c.114.062.24.1.369.111.049.006.099.01.148.013l.149.005 1.017.027c-.35-.508-.377-1.168-.354-1.787.059-1.588.367-3.191.08-4.755-.034-.189-.08-.378-.195-.53-.15-.198-.399-.294-.64-.35-.242-.056-.492-.083-.718-.185-.189-.086-.362-.225-.566-.27a1.243 1.243 0 0 0-.453.007c-.184.028-.366.06-.548.097l-.044.01h.002l-.03.007h-.008l-.027.006h-.01l-.025.007-.012.003-.023.008-.013.004-.022.007-.013.006-.02.007-.016.007-.018.008-.015.007-.017.009-.015.008-.016.01-.015.01-.014.009-.015.01-.013.01-.014.013-.012.01a.15.15 0 0 0-.014.015l-.01.011a.19.19 0 0 0-.015.018c0 .003-.005.006-.008.01l-.017.026v.003a.384.384 0 0 0-.034.075c-.005.014-.01.027-.012.04a.603.603 0 0 0-.014.082c0 .014 0 .028-.003.042v.084c.002.047.007.095.015.141a1.537 1.537 0 0 0-.073 2.6c.003.024.005.05.005.074v.017c-.003.089-.012.178-.027.266a3.68 3.68 0 0 0-.755-.068c-.15 0-.303.014-.455.026a6.878 6.878 0 0 1-.455-.618l-.336-.493a4.703 4.703 0 0 1-.315-.504c-.082-.16-.146-.33-.238-.486-.188-.32-.497-.591-.535-.961l-.089.018c-.048-.08-.11-.163-.132-.21a4.139 4.139 0 0 1-.279-.819c-.03-.146-.054-.298-.134-.424a.957.957 0 0 0-.195-.209 1.293 1.293 0 0 0-.42-.264.54.54 0 0 0-.427.025.628.628 0 0 0-.063-.025.518.518 0 0 0-.476.055c-.132.102-.188.276-.208.441-.035.23.004.464.111.67.126.226.351.378.537.557.13.126.243.267.338.421.03.34.02.683-.026 1.022-.024.145-.062.288-.074.434-.046.528.228 1.056.13 1.576a.385.385 0 0 0 .178.408c.141.076.306.086.46.126.304.078.567.273.873.345.142.034.289.04.43.078l.022.007c-.109.123-.186.27-.226.43-.063.265-.004.548-.067.813-.051.218-.18.408-.308.593l-.738 1.071c-.165.252-.347.491-.544.717-.34.371-.924.666-1.096 1.112-.004-.01-.01-.021-.013-.032-.244.18-.335.514-.53.747-.094.113-.211.204-.314.309-.127.135-.243.28-.348.433-.289.402-.58.806-.787 1.257-.108.234-.192.478-.278.721-.338.956-.89 1.863-1.12 2.853-.056.24-.202.459-.224.706-.025.264.095.517.22.75.188.355.398.7.566 1.066.098.213.184.433.294.641.12.227.267.438.393.662.306.574.482 1.209.645 1.835zm4.16-18.064l-.03-.015a1.042 1.042 0 0 1-.305-.202c-.27-.29-.387-.727-.472-1.117a3.625 3.625 0 0 1-.027-.14c.329.469.64.953.834 1.476v-.002z"/>
            <path fill="#FBBEBE" d="M48.525 19.819c-.031-.146-.054-.297-.133-.422a.955.955 0 0 0-.197-.207 1.304 1.304 0 0 0-.42-.262.523.523 0 0 0-.475.054c-.133.101-.189.274-.21.442-.034.228.005.46.112.665.13.224.352.374.539.553.135.131.253.28.35.441.045.084.099.163.16.235a.304.304 0 0 0 .252.101.44.44 0 0 0 .205-.121c.077-.068.283-.19.29-.295.005-.086-.156-.281-.196-.363a4.13 4.13 0 0 1-.277-.821z"/>
            <path fill="#000" d="M48.525 19.819c-.031-.146-.054-.297-.133-.422a.955.955 0 0 0-.197-.207 1.304 1.304 0 0 0-.42-.262.523.523 0 0 0-.475.054c-.133.101-.189.274-.21.442-.034.228.005.46.112.665.13.224.352.374.539.553.135.131.253.28.35.441.045.084.099.163.16.235a.304.304 0 0 0 .252.101.44.44 0 0 0 .205-.121c.077-.068.283-.19.29-.295.005-.086-.156-.281-.196-.363a4.13 4.13 0 0 1-.277-.821z" opacity=".1"/>
            <path fill="#F86D70" d="M52.874 23.969a3.694 3.694 0 0 0-1.017-.126c-.573.008-1.163.147-1.709-.03a2.977 2.977 0 0 1-.408-.174 1.042 1.042 0 0 1-.306-.201c-.272-.288-.388-.723-.473-1.11a7.42 7.42 0 0 1-.129-1.18c-.141.066-.29.13-.446.118-.155-.014-.315-.133-.315-.29.024.367.04.738-.02 1.1-.024.144-.063.286-.074.43-.046.526.228 1.05.13 1.568a.379.379 0 0 0 .178.405c.141.076.307.085.461.126.304.077.566.27.874.343.142.034.29.04.43.078.201.053.384.169.589.205.153.027.314.008.467.022.135.011.267.046.403.05.332.008.645-.18.865-.43.22-.249.36-.604.5-.904z"/>
            <path fill="#000" d="M52.874 23.969a3.694 3.694 0 0 0-1.017-.126c-.573.008-1.163.147-1.709-.03a2.977 2.977 0 0 1-.408-.174 1.042 1.042 0 0 1-.306-.201c-.272-.288-.388-.723-.473-1.11a7.42 7.42 0 0 1-.129-1.18c-.141.066-.29.13-.446.118-.155-.014-.315-.133-.315-.29.024.367.04.738-.02 1.1-.024.144-.063.286-.074.43-.046.526.228 1.05.13 1.568a.379.379 0 0 0 .178.405c.141.076.307.085.461.126.304.077.566.27.874.343.142.034.29.04.43.078.201.053.384.169.589.205.153.027.314.008.467.022.135.011.267.046.403.05.332.008.645-.18.865-.43.22-.249.36-.604.5-.904z" opacity=".1"/>
            <path fill="#FBBEBE" d="M53.784 40.197a.86.86 0 0 1 .293.092c.12.085.21.206.256.345.137.34.165.713.171 1.079.005.296-.005.598-.11.874a.557.557 0 0 1-.146.23.523.523 0 0 1-.2.096c-.157.044-.34.043-.469-.058-.143-.112-.179-.31-.21-.49-.04-.242-.098-.5-.278-.667-.133-.126-.324-.19-.421-.342-.116-.183-.055-.423.019-.627.063-.177.158-.536.343-.627.184-.09.56.06.752.095zM46.973 41.067c.055.198.154.38.288.536.082.095.184.21.141.327a.304.304 0 0 1-.077.104c-.607.595-1.457.882-2.3.99a.08.08 0 0 1-.04 0c-.025-.01-.031-.041-.034-.069a.854.854 0 0 1 0-.265c.041-.206.222-.352.398-.466.177-.114.37-.224.468-.41.123-.23.071-.53.217-.747.118-.176.338-.252.548-.284.072-.011.226-.09.288-.054.061.037.082.265.103.338z"/>
            <path fill="#F86D70" d="M53.867 40.176c0-.043.03-.078.073-.084a.273.273 0 0 1 .12.015c.094.027.19.045.288.054.117.004.234.018.349.041.116.024.215.1.27.206a.513.513 0 0 1 .03.196c.002.255-.029.509-.09.756-.006.019-.013.041-.032.048-.018.007-.031 0-.046.007a.057.057 0 0 0-.027.034c-.06.162-.096.332-.105.504-.027.252-.063.508-.105.76-.024.148-.055.303-.152.416-.106.127-.274.179-.436.2-.342.046-.688-.022-1.025-.093a.3.3 0 0 1-.173-.078.195.195 0 0 1-.042-.137c.007-.17.163-.29.303-.384l.195-.13a.1.1 0 0 0 .034-.031.106.106 0 0 0 .01-.063l-.013-.252c.262.004.5.153.62.387.027.053.052.116.108.136a.142.142 0 0 0 .169-.102.438.438 0 0 0-.006-.22c-.114-.609-.087-1.235-.156-1.851a.419.419 0 0 0-.063-.196c-.03-.042-.091-.083-.098-.14z"/>
            <rect width="2.722" height="1.343" x="45.536" y="19.421" fill="#0DA176" rx=".666" transform="rotate(180 46.897 20.092)"/>
            <ellipse cx="46.918" cy="20.092" fill="#FFF" rx="1" ry="1"/>
            <path fill="#F86D70" d="M45.408 42.539c-.029.047-.073.084-.1.132a.114.114 0 0 0 .022.148c.028.013.06.016.09.01a3.022 3.022 0 0 0 1.635-.743c.076-.065.143-.139.2-.22.054-.082.099-.181.189-.215.055.236.083.478.084.721 0 .16-.022.343-.153.435a.542.542 0 0 1-.17.07l-.284.08a.302.302 0 0 1-.157.015c-.034-.008-.063-.03-.098-.036a.238.238 0 0 0-.11.014l-.246.072a1.56 1.56 0 0 0-.243.085c-.07.034-.135.077-.204.114a2.435 2.435 0 0 1-.356.145l-.432.15a1.563 1.563 0 0 1-.368.095c-.086.008-.175 0-.261.015-.063.01-.126.035-.195.04a.51.51 0 0 1-.306-.09.285.285 0 0 1-.09-.08c-.063-.097-.008-.224.052-.322a1.27 1.27 0 0 1 .44-.452c.076-.042.157-.072.235-.11.22-.107.387-.286.595-.409.197-.115.323.183.23.336z"/>
            <path fill="#FBBEBE" d="M51.48 25.085c.23.157.491.26.766.298.143.018.288.026.432.024.603-.001 1.206-.051 1.8-.151-.236-.262-.475-.542-.565-.883a1.46 1.46 0 0 1-.028-.552c.036-.236.093-.468.168-.694a4.87 4.87 0 0 1-.76-.02c-.144-.015-.498-.146-.623-.046-.125.1-.029.42-.027.571v.016c-.006.23-.055.456-.145.667-.18.408-.57.743-1.017.77z"/>
            <path fill="#000" d="M52.644 23.629c.367.24.82.31 1.242.189.036-.236.092-.468.168-.693a4.87 4.87 0 0 1-.76-.02c-.145-.015-.498-.146-.623-.047-.125.1-.03.42-.027.57z" opacity=".1"/>
            <ellipse cx="53.474" cy="22.286" fill="#FBBEBE" rx="1.516" ry="1.52"/>
            <path fill="#F86D70" d="M47.041 29.976a.708.708 0 0 0 .343.61c.116.061.241.105.37.13.692.168 1.404.303 2.117.262a1.16 1.16 0 0 0 .449-.094.483.483 0 0 0 .277-.347c0-.038.008-.076.021-.11a.322.322 0 0 1 .105-.095.432.432 0 0 0 .163-.43c.086.04.177-.048.218-.134.04-.086.072-.189.159-.226.059-.025.126-.01.188-.027.1-.026.161-.126.232-.198.143-.154.348-.234.535-.329.558-.281 1.013-.728 1.459-1.168.232-.214.442-.45.629-.705.05-.073.096-.148.138-.226.134-.26.25-.527.349-.802.057-.147.114-.302.09-.459 0-.013-.005-.027-.008-.042a.883.883 0 0 0-.137-.278c-.154-.227-.356-.442-.622-.512-.265-.07-.53.014-.799.072-.09.02-.18.034-.27.041-.286.02-.567-.057-.845-.133l-.3-.083c-.15-.042-.226-.224-.378-.256a.51.51 0 0 0-.204.01c-.309.06-.62.136-.893.293a1.34 1.34 0 0 0-.174.119c-.197.148-.34.358-.403.597-.063.263-.004.544-.067.807-.051.216-.182.406-.309.588l-.74 1.064c-.166.249-.347.487-.545.71-.399.435-1.137.762-1.148 1.351z"/>
            <path fill="#FBBEBE" d="M49.018 19.819c-.03-.146-.053-.297-.133-.422a.955.955 0 0 0-.196-.207 1.304 1.304 0 0 0-.42-.262.523.523 0 0 0-.475.054c-.133.101-.19.274-.21.442-.035.228.005.46.112.665.126.224.352.374.538.553.136.131.254.28.351.441.045.084.098.163.16.235a.304.304 0 0 0 .251.101.44.44 0 0 0 .206-.121c.077-.068.283-.19.29-.295.004-.086-.157-.281-.196-.363a4.13 4.13 0 0 1-.278-.821z"/>
            <path fill="#434175" d="M43.691 37.421c.189.353.399.694.57 1.06.098.212.183.43.293.637.12.225.268.434.394.656.315.561.492 1.194.655 1.817a3.603 3.603 0 0 0 1.29-.455.915.915 0 0 0 .338-.338c-.15-.567-.304-1.149-.61-1.652-.1-.164-.215-.316-.315-.48-.297-.47-.359-1.062-.699-1.501a.258.258 0 0 1 0-.305c.04-.051.102-.1.09-.163-.009-.047-.057-.088-.038-.131.008-.02.03-.032.046-.047.058-.053.05-.145.056-.223.013-.199.132-.374.247-.536a.336.336 0 0 1 .09-.098c.031-.019.068-.028.098-.047.108-.067.1-.226.153-.344.068-.155.24-.234.352-.36.142-.16.178-.382.33-.522a.447.447 0 0 1 .049-.04 2.508 2.508 0 0 0-.089.732c-.014.847.197 1.723.098 2.565-.078.667.332 1.332.913 1.667.228.12.466.22.712.3.363.129.726.262 1.083.411.251.105.503.218.746.339.302.147.596.31.88.489.35.223.701.45.95.783.24-.006.461-.15.613-.338.153-.187.247-.414.336-.637.077-.194.154-.392.16-.601a.12.12 0 0 0-.067-.108l-1.664-.882-.314-.166c-.681-.362-1.383-.697-2.068-1.06-.046.014-.084-.038-.097-.084-.013-.045-.023-.102-.066-.122-.022-.01-.05-.01-.063-.028a.076.076 0 0 1-.011-.055c.022-.33.26-.634.212-.962-.02-.14-.093-.277-.063-.414.022-.095.09-.172.125-.262.082-.202 0-.441.09-.641.06-.13.1-.267.12-.408.043-.282.129-.555.255-.81.06-.13.139-.249.233-.355.05-.054.107-.103.154-.158.145-.172.198-.402.24-.623.074-.401.125-.82.032-1.216-.031-.135-.08-.27-.077-.409 0-.183.082-.398-.045-.531a.415.415 0 0 0-.188-.096 5.674 5.674 0 0 0-.903-.167l-1.387-.181a1.273 1.273 0 0 1-.462-.12c-.189-.104-.315-.298-.39-.5-.244.179-.336.51-.53.742-.095.112-.212.203-.315.307a3.472 3.472 0 0 0-.348.43c-.29.4-.582.801-.79 1.248-.107.233-.188.476-.277.716-.339.95-.892 1.852-1.121 2.833-.057.24-.203.457-.225.702-.026.26.094.513.22.742z"/>
            <path fill="#000" d="M50.968 29.535a.433.433 0 0 1 .05.206c-.03-.154-.241-.239-.255-.39-.006-.07.007-.068.05-.03.066.054.094.154.155.214zM50.326 30.002a.325.325 0 0 1 .096.142.363.363 0 0 1 .019.248c-.03-.014-.042-.052-.051-.086a.592.592 0 0 0-.063-.146c-.025-.04-.14-.135-.139-.178-.002-.066.107-.003.138.02zM50.252 24.859c.097.083.204.155.319.213.3.152.633.232.936.378.149.076.294.16.434.252.3.19.599.378.898.57a.99.99 0 0 1 .198.151c.108.116.108.316.207.442.11.126.268.199.435.201.166.002.33-.026.486-.082a2.4 2.4 0 0 0 .278-.101c.095-.04.184-.091.267-.153a.769.769 0 0 0 .314-.497.984.984 0 0 0-.053-.406 1.585 1.585 0 0 0-.096-.246.957.957 0 0 0-.076-.13c-.207-.293-.57-.43-.922-.5-.185-.036-.374-.058-.56-.09-.09.02-.18.035-.27.042-.286.02-.567-.056-.845-.133l-.3-.083c-.15-.041-.226-.224-.378-.256a.51.51 0 0 0-.204.011c-.309.059-.62.135-.893.293a1.34 1.34 0 0 0-.175.124z" opacity=".1"/>
            <path fill="#F86D70" d="M49.519 20.825c.038.367.348.637.536.954.092.155.156.324.239.483.094.175.199.343.314.505l.337.49c.198.287.398.578.65.819.44.075.812.403 1.23.563.335.126.7.145 1.051.213.352.07.715.207.921.5.077.116.136.244.173.379.046.13.064.267.053.405a.769.769 0 0 1-.314.498c-.166.115-.35.2-.544.252-.156.055-.32.083-.486.082a.593.593 0 0 1-.437-.202c-.098-.126-.097-.327-.205-.441a.99.99 0 0 0-.198-.15l-.899-.568a4.535 4.535 0 0 0-.434-.252c-.302-.148-.635-.228-.936-.378-.3-.15-.58-.404-.64-.737-.182-1.02-.887-1.88-1.49-2.723.02-.004.014-.05.021-.069a.881.881 0 0 1 .44-.446c.194-.105.41-.132.618-.177z"/>
            <path fill="#434175" d="M52.695 20.833a.56.56 0 0 1 .063-.32c.1-.167.309-.226.499-.265.19-.039.364-.07.548-.096.15-.03.303-.033.453-.008.205.046.378.184.566.269.227.101.478.126.72.184.241.058.49.15.641.348.115.15.161.34.196.526.287 1.553-.022 3.145-.08 4.723-.024.614.004 1.27.354 1.775l-1.02-.027c-.26-.007-.54-.02-.746-.182-.18-.142-.266-.37-.343-.587a1.832 1.832 0 0 1-.131-.527c-.016-.37.194-.734.126-1.099-.051-.272-.252-.493-.46-.671-.21-.179-.447-.334-.619-.552-.305-.387-.363-.916-.325-1.409.022-.292.075-.585.05-.878a1.107 1.107 0 0 0-.231-.615c-.16-.194-.246-.315-.26-.59z"/>
            <path fill="#000" d="M52.758 20.512c.098-.164.302-.223.489-.261a.482.482 0 0 0-.242.189.569.569 0 0 0-.063.32c.014.275.098.396.26.59.139.177.22.391.232.615.025.293-.027.585-.05.878-.038.492.02 1.022.326 1.41.171.217.407.372.618.55.212.18.41.4.46.672.068.365-.142.729-.125 1.1.016.18.06.358.13.525.077.217.163.446.343.588.205.161.486.175.747.182l.722.019.05.079-1.019-.027c-.26-.007-.541-.021-.746-.183-.181-.141-.267-.37-.344-.586a1.832 1.832 0 0 1-.13-.527c-.016-.37.194-.734.125-1.1-.05-.271-.251-.492-.46-.67-.209-.179-.446-.335-.618-.552-.305-.388-.363-.917-.326-1.409.023-.292.076-.586.05-.878a1.107 1.107 0 0 0-.23-.615c-.163-.194-.248-.315-.262-.59a.56.56 0 0 1 .063-.319zM45.1 36.513l1.873 4.573a.915.915 0 0 0 .26-.288c-.15-.567-.304-1.149-.61-1.652-.1-.164-.215-.316-.315-.48-.297-.47-.359-1.062-.699-1.501a.258.258 0 0 1 0-.305c.039-.051.102-.1.09-.163-.009-.047-.057-.088-.038-.131.008-.02.03-.032.046-.047.058-.053.05-.145.056-.223.013-.199.131-.374.247-.536a.336.336 0 0 1 .09-.098c.03-.019.067-.028.098-.047.108-.067.1-.226.153-.344.068-.155.239-.234.352-.36.142-.16.178-.382.329-.522l.013-.032-.141-.883-1.804 3.04z" opacity=".1"/>
            <ellipse cx="61.439" cy="41.564" fill="#0DA176" rx="2.135" ry="1"/>
            <ellipse cx="61.475" cy="41.388" fill="#3F3D56" rx="1" ry="1"/>
            <ellipse cx="61.475" cy="40.99" fill="#3F3D56" rx="1" ry="1"/>
            <ellipse cx="61.475" cy="40.591" fill="#3F3D56" rx="1" ry="1"/>
            <ellipse cx="61.475" cy="40.193" fill="#3F3D56" rx="1" ry="1"/>
            <ellipse cx="61.475" cy="39.794" fill="#3F3D56" rx="1" ry="1"/>
            <ellipse cx="61.475" cy="39.395" fill="#3F3D56" rx="1" ry="1"/>
            <ellipse cx="61.475" cy="38.997" fill="#3F3D56" rx="1" ry="1"/>
            <path fill="#0DA176" d="M60.544 36.268a1.184 1.184 0 0 1-.092-.136l.652-.108-.706.006a1.2 1.2 0 0 1-.022-.946l.947.492-.874-.643a1.19 1.19 0 0 1 2.118.1c.185.407.126.885-.151 1.235.053.068.098.14.135.218l-.847.441.904-.304a1.19 1.19 0 0 1-.192 1.12c.383.49.328 1.193-.129 1.615a1.188 1.188 0 0 1-1.615 0 1.195 1.195 0 0 1-.128-1.614 1.196 1.196 0 0 1 0-1.476z"/>
            <path fill="#000" d="M62.67 37.006c.001.268-.089.528-.254.738.383.49.328 1.192-.129 1.614a1.188 1.188 0 0 1-1.615 0 1.195 1.195 0 0 1-.128-1.614c-.16-.203 2.127-.872 2.127-.738z" opacity=".1"/>
            <ellipse cx="65.597" cy="36.992" fill="#0DA176" rx="1.436" ry="1"/>
            <ellipse cx="65.621" cy="36.875" fill="#3F3D56" rx="1" ry="1"/>
            <ellipse cx="65.621" cy="36.607" fill="#3F3D56" rx="1" ry="1"/>
            <ellipse cx="65.621" cy="36.338" fill="#3F3D56" rx="1" ry="1"/>
            <ellipse cx="65.621" cy="36.071" fill="#3F3D56" rx="1" ry="1"/>
            <ellipse cx="65.621" cy="35.803" fill="#3F3D56" rx="1" ry="1"/>
            <ellipse cx="65.621" cy="35.535" fill="#3F3D56" rx="1" ry="1"/>
            <ellipse cx="65.621" cy="35.266" fill="#3F3D56" rx="1" ry="1"/>
            <path fill="#0DA176" d="M64.996 33.432a.693.693 0 0 1-.063-.092l.44-.072-.475.004a.797.797 0 0 1-.016-.636l.638.331-.588-.433a.8.8 0 1 1 1.32.898.792.792 0 0 1 .092.147l-.57.297.607-.205a.807.807 0 0 1-.128.756c.259.33.222.803-.085 1.087a.8.8 0 0 1-1.088 0 .805.805 0 0 1-.085-1.087.803.803 0 0 1 0-.992v-.003z"/>
            <path fill="#000" d="M66.425 33.929c0 .18-.06.354-.171.496.259.329.222.802-.085 1.087a.8.8 0 0 1-1.088 0 .805.805 0 0 1-.085-1.087c-.108-.137 1.429-.587 1.429-.496z" opacity=".1"/>
        </g>
    </g>
</svg>
