<svg xmlns="http://www.w3.org/2000/svg" width="36" height="36" viewBox="0 0 36 36">
    <defs>
        <linearGradient id="a" x1="94.012%" x2="12.378%" y1="77.976%" y2="18.204%">
            <stop offset="0%" stop-color="#FFF"/>
            <stop offset="100%" stop-color="#FFF"/>
        </linearGradient>
    </defs>
    <g fill="none" fill-rule="evenodd" transform="translate(-875 -2701)">
        <path fill="#FFF" d="M0 0h1440v4315H0z"/>
        <text fill="#EA0B4B" font-family="SourceSansPro-Regular, Source Sans Pro" font-size="120" opacity=".05">
            <tspan x="821" y="2727">2</tspan>
        </text>
        <circle cx="893" cy="2719" r="36" fill="url(#a)" opacity=".652"/>
        <g fill="#EA0B4B" fill-rule="nonzero">
            <path d="M910.844 2702.085a1.055 1.055 0 0 0-.932-.932c-8.346-.927-15.46 2.412-21.264 8.386-1.661 1.71-3.102 3.52-4.331 5.266-2.081-.084-4.389.857-6.025 2.493l-2.983 2.983a1.055 1.055 0 0 0 1.019 1.765 14.688 14.688 0 0 1 2.897-.452c.395-.019.724-.013.996.008-.658 1.266-1.163 2.327-1.33 2.592-.262.417-.201.96.147 1.308l1.726 1.726c-2.512 3.427-2.554 5.181-2.545 5.43.019.526.43 1.02 1.11 1.02.588 0 2.277-.25 5.352-2.533l1.815 1.815c.351.351.9.41 1.317.142.284-.183 1.282-.666 2.48-1.292.019.892-.102 2.203-.365 3.979-.15 1.007 1.075 1.614 1.79.9l2.982-2.983c1.539-1.538 2.43-3.823 2.365-5.967 1.84-1.285 3.754-2.802 5.541-4.555 5.917-5.802 9.153-12.863 8.238-21.099zm-2.017 1.086a21.062 21.062 0 0 1-.535 6.611c-1.3-.409-2.57-1.213-3.717-2.36-1.151-1.151-1.957-2.427-2.364-3.73a21.265 21.265 0 0 1 6.616-.521zm-29.74 16.315l.697-.696a6.66 6.66 0 0 1 3.025-1.72 59.31 59.31 0 0 0-1.523 2.56c-.69-.152-1.459-.18-2.198-.144zm1.997 5.079c.228-.45.504-1.016 1.01-1.973l1.39 1.389a41.97 41.97 0 0 0-1.404 1.58l-.996-.996zm5.157-.404c.769-.768 1.506-.908 2.421-.928-.02.892-.163 1.654-.929 2.42-3.274 3.274-5.519 4.737-6.861 5.39.662-1.369 2.128-3.64 5.37-6.882zm1.187 6.748l-1.088-1.088c.497-.422 1.022-.89 1.575-1.408l1.478 1.477c-.972.52-1.377.715-1.965 1.019zm5.78 1.305l-.844.845c.069-1.023.045-1.769-.052-2.344a61.088 61.088 0 0 0 2.501-1.486c-.252 1.115-.817 2.198-1.605 2.985zm-1.895-3.386l-1.89-1.892c1.399-1.54 1.347-3.023 1.347-4.757 0-.582-.473-1.054-1.055-1.054-1.62 0-3.178-.087-4.757 1.347l-1.806-1.806c4.931-8.647 10.631-14.121 17.036-16.376.507 1.64 1.493 3.222 2.896 4.624 1.396 1.396 2.969 2.38 4.602 2.89-2.267 6.368-7.74 12.065-16.373 17.024z"/>
            <path d="M901.592 2710.405a5.28 5.28 0 0 0-7.458 0 5.28 5.28 0 0 0 0 7.459 5.28 5.28 0 0 0 7.458 0 5.28 5.28 0 0 0 0-7.459zm-1.492 5.967a3.168 3.168 0 0 1-4.475 0 3.168 3.168 0 0 1 0-4.475 3.168 3.168 0 0 1 4.475 0 3.168 3.168 0 0 1 0 4.475z"/>
        </g>
    </g>
</svg>
