<svg xmlns="http://www.w3.org/2000/svg" width="79" height="64" viewBox="0 0 79 64">
    <path fill="#EA0B4B" fill-rule="evenodd" d="M17.174 31.855c4.198.386 7.633 2.027 10.304 4.923 2.672 2.896 4.008 6.564 4.008 11.005 0 4.826-1.432 8.736-4.294 11.728C24.33 62.504 20.704 64 16.315 64c-4.961 0-8.92-1.834-11.878-5.502C1.479 54.83 0 49.134 0 41.412 0 26.546 4.866 13.707 14.598 2.896 16.506.966 18.7 0 21.18 0c2.1 0 3.912.724 5.439 2.172 1.526 1.448 2.29 3.137 2.29 5.068 0 2.124-.764 3.958-2.29 5.502-4.962 5.213-8.11 11.584-9.446 19.113zm47.514 0c4.198.386 7.633 2.027 10.305 4.923C77.664 39.674 79 43.342 79 47.783c0 4.826-1.431 8.736-4.293 11.728C71.844 62.504 68.219 64 63.83 64c-4.962 0-8.921-1.834-11.879-5.502-2.958-3.668-4.437-9.364-4.437-17.086 0-14.866 4.866-27.705 14.598-38.516C64.021.966 66.215 0 68.696 0c2.099 0 3.911.724 5.438 2.172 1.527 1.448 2.29 3.137 2.29 5.068 0 2.124-.763 3.958-2.29 5.502-4.961 5.213-8.11 11.584-9.446 19.113z"/>
</svg>
