<svg xmlns="http://www.w3.org/2000/svg" width="250" height="180" viewBox="0 0 250 180">
    <defs>
        <linearGradient id="a" x1="50%" x2="50%" y1="100%" y2="0%">
            <stop offset="0%" stop-color="gray" stop-opacity=".25"/>
            <stop offset="54%" stop-color="gray" stop-opacity=".12"/>
            <stop offset="100%" stop-color="gray" stop-opacity=".1"/>
        </linearGradient>
        <linearGradient id="b" x1="50.01%" x2="50.01%" y1="99.997%" y2="-.002%">
            <stop offset="0%" stop-color="gray" stop-opacity=".25"/>
            <stop offset="54%" stop-color="gray" stop-opacity=".12"/>
            <stop offset="100%" stop-color="gray" stop-opacity=".1"/>
        </linearGradient>
    </defs>
    <g fill="none" fill-rule="evenodd" transform="translate(-647 -4491)">
        <rect width="790" height="5648" x="120.5" y="631.5" stroke="#979797" rx="6"/>
        <g fill="#000" font-family="SourceSansPro-Regular, Source Sans Pro" font-size="16">
            <text transform="translate(156 4510)">
                <tspan x="0" y="16">Steps 3</tspan> <tspan x="0" y="36" font-size="36">Pre-Medical Checkup</tspan>
            </text>
            <text transform="translate(156 4510)">
                <tspan x="0" y="81">Research and select your policy before you proceed. Based on your car </tspan> <tspan x="0" y="101">make, model, age and other details, experts can help you find the ideal </tspan> <tspan x="0" y="121">policy for you.</tspan>
            </text>
        </g>
        <g transform="translate(647 4491)">
            <path fill="#0DA176" d="M145.301 31.731c-16.007-.556-31.264-5.724-45.811-11.377C84.943 14.701 70.524 8.437 54.892 5.441c-10.05-1.928-21.545-2.2-29.641 3.189-7.794 5.184-10.31 14.133-11.665 22.437-1.018 6.248-1.609 12.823 1.175 18.673 1.938 4.06 5.377 7.474 7.756 11.363 8.276 13.534 2.426 30.223-6.545 43.449-4.206 6.207-9.087 12.112-12.333 18.712-3.246 6.6-4.75 14.161-1.908 20.892 2.816 6.667 9.524 11.683 16.793 15.207 14.763 7.152 32.159 9.198 49.122 10.37 37.55 2.568 75.301 1.456 112.95.343 13.933-.414 27.928-.83 41.634-2.989 7.611-1.197 15.471-3.096 20.998-7.68 7.013-5.82 8.754-15.674 4.052-22.973-7.885-12.239-29.685-15.28-35.197-28.416-3.032-7.23.083-15.285 4.492-21.99 9.455-14.384 25.308-27.005 26.142-43.449.575-11.294-7.046-22.602-18.83-27.947-12.35-5.607-29.476-4.899-38.586 4.368-9.381 9.547-25.869 13.22-40 12.731z" opacity=".1"/>
            <path stroke="#535461" stroke-width="2" d="M55.92 166.676s-12.644-9.559-15.033-21.717a24.032 24.032 0 0 0-7.404-13.267 40.46 40.46 0 0 0-5.924-4.414"/>
            <path fill="#0DA176" d="M26.011 119.618c1.109 1.5 1.61 7.851 1.61 7.851s-5.924-2.333-7.035-3.83a3.376 3.376 0 1 1 5.425-4.02zM36.637 124.602c.115 1.86-2.913 7.465-2.913 7.465s-3.708-5.182-3.825-7.042a3.375 3.375 0 0 1 6.735-.423h.003zM46.936 138.929c-.837 1.664-6.283 4.974-6.283 4.974s-.582-6.344.255-8.009a3.375 3.375 0 0 1 6.028 3.035zM52.29 151.517c-.545 1.782-5.352 5.963-5.352 5.963s-1.648-6.154-1.104-7.937a3.375 3.375 0 1 1 6.456 1.974zM28.244 136.572c1.839.249 7.653-2.377 7.653-2.377s-4.906-4.064-6.754-4.312a3.375 3.375 0 1 0-.9 6.69zM34.692 151.218c1.839-.315 6.59-4.556 6.59-4.556s-5.898-2.41-7.735-2.094a3.375 3.375 0 1 0 1.15 6.65h-.005zM42.91 164.595c1.865 0 7.267-3.377 7.267-3.377s-5.405-3.372-7.269-3.372a3.375 3.375 0 1 0 0 6.75h.002z"/>
            <path stroke="#535461" stroke-width="2" d="M178.747 84.002s7.793-13.804 19.54-17.781a24.03 24.03 0 0 0 12.166-9.101 40.308 40.308 0 0 0 3.584-6.467"/>
            <path fill="#0DA176" d="M221.411 48.124c-1.337 1.297-7.565 2.64-7.565 2.64s1.529-6.185 2.867-7.484a3.375 3.375 0 0 1 4.698 4.844zM217.89 59.303c-1.84.364-7.787-1.894-7.787-1.894s4.644-4.368 6.472-4.724a3.375 3.375 0 1 1 1.315 6.618zM205.071 71.414c-1.76-.61-5.763-5.566-5.763-5.566s6.207-1.42 7.972-.811a3.375 3.375 0 1 1-2.209 6.377zM193.292 78.393c-1.84-.303-6.612-4.522-6.612-4.522s5.883-2.45 7.72-2.147a3.378 3.378 0 1 1-1.097 6.667l-.011.002zM204.91 52.575c-.002 1.864 3.38 7.273 3.38 7.273s3.377-5.402 3.377-7.264a3.375 3.375 0 1 0-6.747 0l-.01-.01zM191.248 60.91c.557 1.78 5.393 5.93 5.393 5.93s1.61-6.166 1.049-7.946a3.375 3.375 0 0 0-6.437 2.016h-.005zM179.094 70.834c.249 1.84 4.313 6.752 4.313 6.752s2.623-5.804 2.375-7.65a3.375 3.375 0 1 0-6.688.898z"/>
            <path fill="#000" d="M221.411 48.124c-1.337 1.297-7.565 2.64-7.565 2.64s1.529-6.185 2.867-7.484a3.375 3.375 0 0 1 4.698 4.844zM217.89 59.303c-1.84.364-7.787-1.894-7.787-1.894s4.644-4.368 6.472-4.724a3.375 3.375 0 1 1 1.315 6.618zM205.071 71.414c-1.76-.61-5.763-5.566-5.763-5.566s6.207-1.42 7.972-.811a3.375 3.375 0 1 1-2.209 6.377zM193.292 78.393c-1.84-.303-6.612-4.522-6.612-4.522s5.883-2.45 7.72-2.147a3.378 3.378 0 1 1-1.097 6.667l-.011.002zM204.91 52.575c-.002 1.864 3.38 7.273 3.38 7.273s3.377-5.402 3.377-7.264a3.375 3.375 0 1 0-6.747 0l-.01-.01zM191.248 60.91c.557 1.78 5.393 5.93 5.393 5.93s1.61-6.166 1.049-7.946a3.375 3.375 0 0 0-6.437 2.016h-.005zM179.094 70.834c.249 1.84 4.313 6.752 4.313 6.752s2.623-5.804 2.375-7.65a3.375 3.375 0 1 0-6.688.898z" opacity=".25"/>
            <path stroke="#535461" stroke-width="2" d="M179.195 83.729s1.531-15.78 10.649-24.17a24.04 24.04 0 0 0 7.434-13.251 40.3 40.3 0 0 0 .665-7.356"/>
            <path fill="#0DA176" d="M203.657 33.628c-.69 1.728-5.848 5.48-5.848 5.48s-1.108-6.274-.411-8.002a3.376 3.376 0 0 1 6.26 2.528v-.006zM204.97 45.287c-1.524 1.072-7.885 1.423-7.885 1.423s2.478-5.87 4.002-6.942a3.375 3.375 0 1 1 3.883 5.517v.002zM198.152 61.559c-1.858.156-7.527-2.759-7.527-2.759s5.104-3.816 6.961-3.972a3.375 3.375 0 1 1 .566 6.726v.005zM190.218 72.706c-1.804.46-7.882-1.442-7.882-1.442s4.384-4.623 6.188-5.092a3.375 3.375 0 0 1 1.694 6.534zM190.38 44.395c.753 1.704 6.027 5.288 6.027 5.288s.896-6.308.142-8.012a3.375 3.375 0 0 0-6.17 2.731v-.007zM181.267 57.55c1.23 1.4 7.33 3.234 7.33 3.234s-1.03-6.287-2.26-7.687a3.375 3.375 0 1 0-5.07 4.452zM174.166 71.554c.974 1.586 6.678 4.425 6.678 4.425s.048-6.37-.92-7.958a3.375 3.375 0 0 0-5.747 3.533h-.011z"/>
            <path fill="url(#a)" d="M167.471 21.933c.382-1.4.842-2.807 1.163-4.225-.386 1.418-.848 2.83-1.163 4.225z"/>
            <path fill="url(#b)" fill-rule="nonzero" d="M165.76 35.418c-.031-.055-.054-.11-.08-.16 0-.024-.023-.042-.032-.065a1.44 1.44 0 0 1-.154.062 3.52 3.52 0 0 1-.31.106c-.106.03-.15.046-.23.064a1.34 1.34 0 0 1-.205.053l.019.042c.085-.019.168-.035.253-.058l.023.285c.096 0 .186-.014.273-.014.042-.002.083-.002.124 0h.46c-.048-.103-.099-.211-.14-.315zm46.668 74.283c-1.08-1.455-3.237-17.073-3.237-17.073s-4.242-11.106-3.085-15.538c1.156-4.433-3.159-15.773-3.159-15.773s-2.85-1.239-3.004-3.078c0 0-11.64-3.678-12.184-6.437-.442-2.262-7.66-3.885-10.253-4.397-.791-3.191-1.586-6.168-2.173-7.794a18.541 18.541 0 0 0-.446-1.287c-.99-2.529-4.053-2.758-6.273-2.556a3.42 3.42 0 0 0-.527-1.202.66.66 0 0 0-.209-.32 1.22 1.22 0 0 0-.152-.11.726.726 0 0 0-.156-.198 1.106 1.106 0 0 0-.372-.223 2.21 2.21 0 0 0-.412-.113 3.389 3.389 0 0 0-.496-.064 3.023 3.023 0 0 0 1.06-.775 2.21 2.21 0 0 0 .434-.8c.073-.244.105-.499.096-.754a1.95 1.95 0 0 1-.206.297c.096-1.019-.442-2.053-.75-3.067a9.074 9.074 0 0 1-.202-4.057c.308-2.037 1.071-4.097 1.588-6.17a.152.152 0 0 0 0-.035c.272-1.03.44-2.084.501-3.147.09-2.145-.46-4.285-1.342-6.24-.784-1.73-1.94-3.434-3.71-4.137-1.315-.531-2.789-.446-4.205-.533-3.177-.198-6.207-1.315-9.228-2.331-3.02-1.017-6.128-1.94-9.308-1.764-3.179.177-6.45 1.71-7.9 4.524-.46.879-.725 1.856-1.274 2.68-1.03 1.557-2.874 2.337-4.412 3.41-1.538 1.074-2.892 2.598-3.448 4.416a5.892 5.892 0 0 0-.124 3.023c.05.226.114.449.193.667a4.724 4.724 0 0 0 1 1.634c.333.348.716.645 1.136.88a6.683 6.683 0 0 0 1.678.654c-.021.069-.042.142-.065.213a15.107 15.107 0 0 0-.31 1.216.269.269 0 0 0 0 .063 18.775 18.775 0 0 0-.326 5.873c.92 9.329 8.62 16.688 18.135 17.166.327.016.655.025.989.025h.46c.149.198.296.4.436.598.14.197.27.4.391.597l-.333-.344-.334-.306a2.71 2.71 0 0 1-.3.347 5.593 5.593 0 0 0-.665-.189c-.954-.211-2.407-.29-4.32.288-1.758.526-3.908 1.609-6.423 3.666l-12.255 7.357-6.63 4.032-2.388 5.839s-1.796 6.938-3.793 14.887a3.824 3.824 0 0 0-.23.074 4.48 4.48 0 0 0-4.975 4.274c-3.972 4.827-4.198 9.655-3.264 11.87.084.208.19.406.317.592.611.882 1.754 3.158 2.913 5.583-.03.2-.049.368-.058.495a1.228 1.228 0 0 0 0 .124s.69 10.416-1.61 13.402c-.503.65-.427 1.506 0 2.453 1.541 3.407 7.63 7.956 7.63 7.956s7.304-.039 11.373-.482l-.03 1.213c-.092 4.019-.092 7.387-.092 7.387l-.151 4.213s-1.38 8.88-2.07 11.33c-.434 1.535.067 15.753.504 26.206h71.959c.846-6.184-.347-24.972-.347-24.972s-1.134-4.858-1.175-9.092a.034.034 0 0 1 0-.03c0-.37 0-.731.014-1.085l.522-.019.937-.032h.086s.022-.087.075-.23c.124-.355.294-.692.504-1.004.4-.591 1.025-1.17 1.965-1.21.52-.02 1.324-.44 2.233-1.062a.041.041 0 0 0 .018 0c2.444-1.652 5.673-4.703 6.457-5.204 1.079-.69 6.242-5.288 6.242-5.288s.77-.974 1.59-2.149l.03-.041c1.021-1.472 2.106-3.23 1.84-3.784-.46-.993.308-3.368.308-3.368 2.397-4.389-.143-10.205-1.223-11.66zm-44.453-70.708a.92.92 0 0 1 .041.212c-.057-.076-.115-.157-.172-.23l-.055-.074-.04-.055.088-.12v.017c.06.074.107.159.138.25zm-.773-2.037c-.25.05-.448.097-.577.131-.163-.29-.32-.579-.46-.873.369.214.716.462 1.037.742zm-.432.364v-.014l.019.014c.094.062.186.121.27.183.077.056.146.108.215.164-.046.08-.097.163-.148.23-.08-.127-.156-.249-.23-.375a.828.828 0 0 1-.126-.202zm-1.38-2.837a6.802 6.802 0 0 1 1.336 0c.063 0 .118.011.173.02.125.02.247.051.365.095.272.38.44.824.485 1.29l-.124.018-.122.023c-.23.039-.46.078-.639.115l-.23.048a8.051 8.051 0 0 0-.49.12c-.03-.063-.059-.12-.091-.18-.05-.099-.104-.2-.15-.299-.046-.099-.105-.211-.154-.315-.032-.055-.055-.11-.08-.16 0-.024-.023-.042-.032-.065a.554.554 0 0 1-.035-.076c-.14-.285-.269-.57-.393-.85-.014-.028-.025-.058-.037-.085l.175-.012v.06l.044.253zM110.544 177.09c-.019-3.423-.267-7.127-.957-10.603a363.119 363.119 0 0 0-.906-4.409l-.23-1.08-.707.094h-.065c-1.93-9.106-3.95-17.129-3.95-17.129s-4.008-15.308-3.544-16.529c.06-.158-.016-.586-.186-1.213-.97-3.48-5.021-13.072-6.437-16.35 0-.014-.012-.03-.016-.041-.23-.55-.396-.92-.446-1.028l.333-4.892.019-.294.043-.625-.018-.016.018-.29s-3.499-2.869-9.425-4.94c-.23-.083-.474-.163-.715-.242.297-1.979.69-4.213 1.202-6.39.049-.219.101-.43.157-.644.048-.214.103-.42.158-.63.088-.34.182-.676.278-1.007.32-.101.635-.214.945-.333l.12-.046c7.906-3.077 12.325-11.52 10.345-19.77a16.871 16.871 0 0 0-3.292-6.667 12.34 12.34 0 0 0-.375-.439c.664-1.51 1.448-2.947 1.513-4.416a4.531 4.531 0 0 0 0-.559v-.023c-.085-.945-.504-1.9-1.479-2.905-1.423-1.474-3.448-2.221-5.473-2.58-2.025-.358-4.09-.368-6.127-.609-3.377-.405-6.666-1.446-10.043-1.765a23.864 23.864 0 0 0-12.145 2.069c-2.513 1.149-5.058 3.158-5.21 5.914-.123 2.279 1.463 4.463 1.063 6.713-.398 2.212-2.65 3.952-2.453 6.189.076.873.524 1.655 1.085 2.351.193.23.398.46.61.69.818.867 1.719 1.699 2.176 2.79.019.047.037.093.053.139.389 1.078.214 2.441-.747 3.06.005.004.01.01.011.016.014.018.028.032.04.05a.016.016 0 0 0 0-.011c.34.404.8.69 1.312.818l.196.06a10.7 10.7 0 0 0-.46.54l-.1.131c-.252.34-.483.698-.689 1.069-.117.207-.23.414-.324.62a7.798 7.798 0 0 0-.678 1.994c-.246 1.522.101 3.108-.271 4.598-.46 1.839-1.915 3.25-2.736 4.958-1.554 3.219-.673 6.996-.36 10.55.424 4.827-.265 9.675-.953 14.47l-1.094 7.658-2.758 19.237c-.336 2.35-.734 4.828-2.3 6.641h.017s0 .014-.016.019c.47.205.97.334 1.48.381 2.044.205 4.21-.783 6.048-1.864a28.584 28.584 0 0 0 4.122-2.894c-.188.69-.39 1.441-.607 2.25v.023c-2.595 9.885-6.77 28.007-6.77 28.007s-.379.789-.871 1.964h64.828c-.759-.92-1.465-1.8-2.016-2.51l-.223-.32zm-48-91.403c.016-.027.027-.053.043-.078v.499c0 .032 0 0 0 0 0 .094-.02.189-.037.283v.02l.23.086.267.11a68.977 68.977 0 0 0 4.786 1.69c.166.052.334.103.501.151l.035.285c.041.292.08.589.117.885v.023c.104.821.205 1.64.294 2.44 0 0-4.22-1.61-4.168.834a1.188 1.188 0 0 0 0 .131 1.09 1.09 0 0 0 0 .175c.04 1.903.635 3.032.755 3.611a.163.163 0 0 1-.037.065 1.257 1.257 0 0 0-.101.71c-.004.411.028.822.096 1.227-.124.076-.246.152-.368.23-.092.058-.179.122-.269.187a34.138 34.138 0 0 0-2.204-5.683c-.632-1.301-1.343-2.658-1.336-4.085 0-.092 0-.186.012-.28.025-.414.104-.823.234-1.217.053-.15.11-.296.175-.441.15-.344.318-.68.503-1.007.12-.216.246-.43.368-.646.04-.064.076-.131.113-.195l-.01-.01zM165.76 35.418c-.032-.055-.055-.11-.08-.16 0-.024-.024-.042-.033-.065a1.44 1.44 0 0 1-.154.062 3.52 3.52 0 0 1-.31.106c-.106.03-.15.046-.23.064l-.205.053.019.042c.085-.019.168-.035.253-.058l.023.285c.096 0 .186-.014.273-.014H165.901c-.048-.103-.099-.211-.14-.315z"/>
            <path fill="#E8F5FF" d="M115.531 69.184l-1.38.61s-8.99 34.928-8.99 37.75c0 2.824 19.064 18.532 19.064 18.532l2.975-20.078s-4.271-46.044-11.669-36.814z"/>
            <path fill="#FFC1C7" d="M157.35 58.074l-7.966-4.157a15.956 15.956 0 0 0-2.336-5.322c-1.165-1.682-2.715-3.335-4.646-4.197-4.88-2.189 20.644-13.676 20.644-13.676.402 1.38.875 2.738 1.418 4.069 1.315 3.246 3.497 7.443 6.308 8.639 4.78 2.034-13.423 14.644-13.423 14.644z"/>
            <path fill="#000" d="M164.464 34.79a19.03 19.03 0 0 1-17.416 13.805c-1.165-1.682-2.715-3.335-4.646-4.197-4.88-2.189 20.644-13.676 20.644-13.676.402 1.38.875 2.738 1.418 4.069z" opacity=".1"/>
            <path fill="#FFC1C7" d="M165.182 28.99a19.018 19.018 0 1 1-19.016-19.013 18.929 18.929 0 0 1 19.016 19.014z"/>
            <path fill="#575A89" d="M167.926 55.632l-5.186 12.101-4.574 8.033h-14.644l-4.271-10.982 1.73-11.389h11.185l7.22-.406 2.44-.814 1.572.892z"/>
            <path fill="#000" d="M166.14 39.501s3.235.69.338 3.065c-2.896 2.374-12.89 9.926-12.89 9.926s3.51 3.126 2.784 6.788l11.63-6.482 2.07-10.373s.231-3.117-3.932-2.924z" opacity=".1"/>
            <path fill="#000" d="M155.876 52.492l-7.398 1.22s1.527 5.644.763 7.247c-.023.05-.042.1-.057.154l-3.018 8.158 2.262 6.407L156.258 65l-2.67-4.041s2.821-3.738 4.5-5.035c1.678-1.296-2.212-3.432-2.212-3.432z" opacity=".1"/>
            <path fill="#DCE6F2" d="M155.876 52.177l-7.398 1.218s1.527 5.644.763 7.246c-.023.05-.042.102-.057.154l-3.018 8.159 2.262 6.407 7.83-10.685-2.67-4.042s2.821-3.737 4.5-5.034c1.678-1.297-2.212-3.423-2.212-3.423z"/>
            <path fill="#575A89" d="M166.45 38.892s3.235.69.336 3.064c-2.899 2.375-13.197 10.536-13.197 10.536s3.813 2.517 3.09 6.177l11.629-6.48 2.069-10.373s.23-3.117-3.926-2.924z"/>
            <path fill="#000" d="M147.556 49.315s.706 1.32 3.821 3.699c0 0-5.186 2.758-3.202 6.637l-7.934-2.07-1.22-3.813 8.535-4.453z" opacity=".1"/>
            <path fill="#575A89" d="M147.25 49.011s.706 1.32 3.821 3.7c0 0-5.186 2.744-3.202 6.634l-7.931-2.07-1.22-3.81 8.533-4.454z"/>
            <path fill="#000" d="M167.926 55.632l-5.186 12.101-4.565 8.033h-14.653l-4.271-10.982 1.728-11.389h3.11c-.05 2.658.92 5.78.858 6.94-.106 1.909 2.846 12.203 2.846 12.203s6.177-9.99 8.616-10.88c1.534-.56 4.782-5.207 6.986-8.591l4.531 2.565z" opacity=".1"/>
            <path fill="#E8F5FF" d="M188.356 119.313l-.526.662s3.814 19.142 2.759 23.49c-.18.783-.282 1.582-.306 2.386v.034c-.186 4.423 1.15 10.163 1.15 10.163s1.066 16.92.459 23.878h-71.407c-.418-10.29-.869-23.62-.46-25.098.69-2.44 2.07-11.288 2.07-11.288l.151-4.193s0-4.053.124-8.568c.053-2.03.131-4.16.244-6.05.145-2.377.347-4.38.625-5.363.171-.746.27-1.507.294-2.272 0-.071 0-.145.014-.218 0-.23.023-.478.032-.733v-.23c.044-1.48.028-3.237-.02-5.058v-.301c-.04-1.365-.097-2.759-.161-4.083-.2-4.138-.46-7.637-.46-7.637l-8.77-29.057 2.363-5.82 6.559-4.02 12.126-7.32c5.915-4.863 9.81-4.28 11.294-3.746.145.05.286.107.423.173.046.023.083.041.118.062a.972.972 0 0 1 .135.078 2.8 2.8 0 0 0-1.03.848c-.304.412-.52.881-.636 1.38a6.418 6.418 0 0 0-.164.94c-.03.333-.041.678-.041 1.025.016.761.082 1.52.195 2.274v.05c.076.538.17 1.065.262 1.559a.103.103 0 0 0 0 .025c.106.577.212 1.11.283 1.57l.037.23c.05.304.074.612.071.92.026.743.126 1.483.3 2.206.059.304.128.628.204.966.103.46.216.96.338 1.471.066.28.138.57.211.858.028.115.058.23.085.347l.046.181a216.253 216.253 0 0 0 1.662 6.173s3.462-5.598 6.225-8.784c.042-.046.079-.09.118-.131a14.9 14.9 0 0 1 .8-.855c.563-.561 1.069-.961 1.476-1.108a1.61 1.61 0 0 0 .25-.118c1.131-.64 2.956-2.97 4.665-5.409.167-.23.33-.48.496-.717a135.208 135.208 0 0 0 1.857-2.789c1.15-1.788 1.96-3.121 1.96-3.121l1.595-.072.278-.013h.186l7.244-.336s.312.053.827.156c.028 0 .055 0 .085.019 2.57.51 9.71 2.126 10.147 4.368.534 2.744 12.051 6.406 12.051 6.406.152 1.84 2.972 3.051 2.972 3.051s4.272 11.287 3.13 15.71c-1.13 4.368 2.937 15.173 3.045 15.476l-.78.984-19.28 24.389z"/>
            <path fill="#000" d="M166.138 38.699s7.05-2 8.653 2.117c1.602 4.117 5.186 20.745 5.186 20.745s-9.306 1.754-11.745 0a7.028 7.028 0 0 0-4.958-1.297l-5.263 3.584-1.554-.46s8.419-12.514 10.249-16.767 2.448-6.154-.568-7.922z" opacity=".1"/>
            <path fill="#E8F5FF" d="M165.832 37.78s7.055-2 8.665 2.117c1.609 4.117 5.186 20.744 5.186 20.744s-9.304 1.754-11.745 0a7.02 7.02 0 0 0-4.956-1.296l-5.267 3.584-1.554-.46s8.418-12.515 10.248-16.768 2.44-6.15-.577-7.922z"/>
            <path fill="#000" d="M118.506 104.113s5.262 1.296 6.255 4.27c.993 2.976-3.89 3.051-3.89 3.051s-2.974-5.262-2.365-7.321zM138.106 126.076s-12.888 26.388-9.913 28.906c2.975 2.517 9.913-28.906 9.913-28.906zM155.876 106.63s10.296 25.632 8.237 29.59c-2.06 3.96 4.423 0 4.423 0l-12.66-29.59z" opacity=".1"/>
            <path fill="#FFC1C7" d="M170.214 131.95s-34.777 1.678-24.632 12.507c10.144 10.83 30.963.46 30.963.46l-6.331-12.968z"/>
            <path fill="#000" d="M165.182 28.99a18.929 18.929 0 0 1-1.442 7.27c-.32.037-.639.06-.947.073-.46-1.009-.214-2.174-.204-3.285.009-1.11-.4-2.416-1.47-2.715-2.13-.6-3.602 3.384-5.703 2.665-1.61-.547-1.188-2.989-2.115-4.398-.733-1.115-2.202-1.43-3.345-2.129-2.43-1.492-2.356-3.878-3.485-6.135-1.181-2.366-3.678-1.667-5.846-.272-1.646 1.062-3.066 2.485-4.827 3.331-1.524.736-3.237 1.003-4.927 1.042-1.04.04-2.08-.07-3.09-.327 2.455-9.228 11.372-15.205 20.841-13.97 9.469 1.236 16.553 9.302 16.557 18.85h.003z" opacity=".1"/>
            <path fill="#99607E" d="M140.632 19.455c-1.648 1.062-3.066 2.483-4.827 3.334-1.525.733-3.237 1-4.927 1.039-2.069.046-4.296-.318-5.71-1.812-1.299-1.38-1.61-3.501-1.06-5.31.55-1.81 1.867-3.31 3.414-4.398 1.547-1.087 3.342-1.839 4.368-3.395.542-.823.804-1.793 1.255-2.67 1.441-2.802 4.683-4.319 7.816-4.507 3.133-.189 6.239.744 9.223 1.756 2.984 1.011 5.99 2.124 9.14 2.333 1.402.088 2.86 0 4.161.531 1.75.71 2.897 2.41 3.678 4.138.876 1.95 1.42 4.078 1.329 6.207-.193 4.545-3.195 9.005-1.876 13.359.35 1.16 1.005 2.351.655 3.512-.51 1.695-2.696 2.08-4.464 2.161-.46-1.009-.214-2.177-.205-3.285.01-1.108-.4-2.416-1.466-2.715-2.134-.595-3.605 3.382-5.702 2.665-1.597-.55-1.183-2.989-2.112-4.398-.733-1.117-2.205-1.43-3.345-2.129-2.43-1.492-2.356-3.878-3.485-6.135-1.19-2.377-3.69-1.679-5.86-.28z"/>
            <path fill="#E8F5FF" d="M106.91 106.933l-1.754.612s.69 10.372-1.609 13.347c-2.299 2.975 7.55 10.37 7.55 10.37s13.498-.076 13.88-1.15c.382-1.073-.69-19.218-.69-19.218s-7.246-2.823-6.636-7.322c0 0-2.212 10.6-5.49 10.143-3.278-.458-7-3.195-5.25-6.782z"/>
            <ellipse cx="112.761" cy="112.692" fill="#000" opacity=".1" rx="4.628" ry="4.232"/>
            <path fill="#FFC1C7" d="M117.82 107.24s-.919-28.065-8.923-21.812c-8.005 6.252-8.083 13.73-6.56 15.94 1.525 2.209 6.412 13.269 6.412 13.269a5.593 5.593 0 0 0 8.276-3.678l.796-3.72z"/>
            <path fill="#000" d="M167.754 36.152a.676.676 0 0 0-.207-.318c-.395-.36-1.246-.487-2.529-.377l.053.607c1.71-.147 2.049.193 2.092.25v.058l.053.076c.431.58.598 1.314.46 2.023-.375 1.874-2.676 3.366-2.699 3.382l-.055.032-.035.053c-.993 1.473-6.609 5.632-8.078 6.708l-.129-.147c-.657.57-6.436 5.63-6.749 7.568-.202 1.216-1.572 1.687-2.069 1.818-.524-.398-2.225-1.752-3.11-3.269-.83-1.427 2.51-4.214 2.804-5.301l-.46-.471c-.048.174-4.337 4.184-3.144 6.232.956 1.644 2.703 3.05 3.315 3.515-.196 1.775-1.412 12.195-3.28 14.664-2.323 3.07-4.274 18.536-4.058 23.936.19 4.798-1.062 13.86-5.246 17.752a6.706 6.706 0 0 1-5.534 1.839h-.1c-.06 0-6.13.62-11.228-3.679-4.173-3.51-6.536-9.239-7.028-17.032h-.101l-.041-2.269a4.425 4.425 0 1 0-.66.053h.05l.042 2.255-.203.014c.506 8.046 2.989 13.998 7.357 17.674a17.011 17.011 0 0 0 11.864 3.882c.306.034.612.05.92.051a7.54 7.54 0 0 0 5.287-2.126c4.407-4.104 5.747-13.5 5.538-18.46-.23-5.722 1.818-20.632 3.874-23.347 2.013-2.665 3.234-13.046 3.448-15.058.729-.204 2.377-.85 2.657-2.529.203-1.213 4.062-4.954 6.437-7.025l-.071-.083c1.278-.933 5.253-3.875 7.223-5.765.611-.586 1.218-1.172 1.853-1.731.763-.676 1.733-1.75 1.988-3.018a3.138 3.138 0 0 0-.501-2.437z" opacity=".1"/>
            <path fill="#353146" d="M147.189 58.446c-.097-.067-2.387-1.706-3.534-3.678-1.19-2.048 3.099-6.055 3.145-6.23l.46.471c-.292 1.085-3.632 3.874-2.803 5.299 1.046 1.8 3.249 3.375 3.272 3.39l-.54.748z"/>
            <path fill="#E8F5FF" d="M156.51 49.092l-.358-.494c.073-.053 7.294-5.276 8.432-6.966l.037-.05.053-.035c.023-.016 2.324-1.506 2.698-3.381a2.55 2.55 0 0 0-.46-2.021l-.052-.078v-.056c-.046-.06-.384-.397-2.094-.25l-.053-.61c1.285-.11 2.133.017 2.528.378a.69.69 0 0 1 .21.32c.502.706.69 1.588.52 2.438-.256 1.272-1.224 2.345-1.99 3.019-.632.558-1.24 1.15-1.85 1.73-2.31 2.215-7.368 5.874-7.62 6.056zM109.745 93.013l.609-.011.068 3.703-.61.01z"/>
            <circle cx="109.694" cy="89.115" r="4.448" fill="#0DA176"/>
            <circle cx="109.694" cy="89.115" r="3.694" fill="#E8F5FF"/>
            <path fill="#353146" d="M129.731 117.434c-.307 0-.614-.015-.92-.048a17.037 17.037 0 0 1-11.864-3.883c-4.368-3.678-6.846-9.623-7.356-17.675l.92-.058c.491 7.793 2.855 13.524 7.03 17.032 5.098 4.288 11.165 3.678 11.225 3.678h.1a6.72 6.72 0 0 0 5.536-1.839c4.182-3.892 5.435-12.954 5.244-17.751-.23-5.405 1.722-20.872 4.046-23.938 2.034-2.688 3.297-14.8 3.31-14.922l.035-.345.34-.06c.02 0 2.007-.377 2.255-1.862.322-1.935 6.092-6.995 6.747-7.568l.6.69c-2.384 2.069-6.243 5.812-6.436 7.028-.28 1.682-1.93 2.326-2.656 2.528-.23 2.014-1.441 12.393-3.448 15.058-2.055 2.715-4.103 17.625-3.873 23.347.197 4.96-1.13 14.359-5.536 18.46a7.543 7.543 0 0 1-5.299 2.128z"/>
            <g fill="#000" opacity=".1">
                <path d="M167.14 23.556c.377-1.393.832-2.795 1.15-4.207-.38 1.419-.837 2.814-1.15 4.207zM163.294 34.503c-.46-1.009-.214-2.177-.204-3.285.009-1.108-.4-2.404-1.467-2.715-2.133-.595-3.605 3.384-5.701 2.665-1.61-.55-1.184-2.989-2.113-4.398-.733-1.117-2.202-1.43-3.342-2.129-2.433-1.492-2.359-3.878-3.485-6.135-1.184-2.368-3.679-1.67-5.849-.272-1.648 1.063-3.066 2.486-4.827 3.334-1.524.733-3.237 1-4.927 1.039-2.057.048-4.296-.317-5.71-1.812-1.09-1.149-1.483-2.834-1.258-4.413-.039.108-.073.216-.108.324-.551 1.809-.23 3.935 1.06 5.31 1.414 1.494 3.653 1.858 5.71 1.812 1.693-.04 3.403-.306 4.93-1.04 1.765-.85 3.183-2.27 4.827-3.333 2.17-1.398 4.667-2.096 5.848.271 1.127 2.258 1.055 4.644 3.485 6.136 1.15.69 2.61 1.012 3.345 2.129.92 1.414.513 3.848 2.113 4.398 2.094.717 3.565-3.26 5.699-2.665 1.066.299 1.478 1.61 1.466 2.715-.011 1.106-.25 2.276.205 3.285 1.768-.08 3.954-.46 4.466-2.16.071-.245.104-.498.097-.753-.747 1.29-2.669 1.621-4.26 1.692z"/>
            </g>
            <path fill="#000" d="M204.841 91.147l2.67 2.823s2.135 15.556 3.202 17.012c1.066 1.455 3.586 7.243 1.22 11.59 0 0-.763 2.366-.305 3.357.457.99-3.43 5.95-3.43 5.95s-5.11 4.574-6.18 5.261c-1.069.688-6.71 6.177-8.616 6.253-1.905.076-2.528 2.441-2.528 2.441l-10.754.382s-5.94-.31-7.233.529c0 0 .69-9.076-5.947-15.025l8.465-3.051s3.204-1.38 4.195-2.82a5.18 5.18 0 0 1 2.529-1.906s2.363-1.679 2.439-2.594c.076-.915 2.89-2.036 2.89-2.036l-1.594-13.598.84-22.575s2.668-18.915 8.312-17.846c5.644 1.07 9.825 25.853 9.825 25.853z" opacity=".1"/>
            <path fill="#E8F5FF" d="M205.76 91.147l2.67 2.823s2.136 15.556 3.202 17.012c1.067 1.455 3.586 7.243 1.22 11.59 0 0-.76 2.366-.303 3.357.458.99-3.432 5.95-3.432 5.95s-5.11 4.574-6.18 5.261c-1.068.688-6.71 6.177-8.615 6.253-1.906.076-2.529 2.441-2.529 2.441l-10.754.382s-5.945-.31-7.232.529c0 0 .69-9.076-5.947-15.025l8.464-3.051s3.205-1.38 4.196-2.82a5.18 5.18 0 0 1 2.528-1.906s2.363-1.679 2.44-2.594c.075-.915 2.889-2.036 2.889-2.036l-1.593-13.598.839-22.575s2.669-18.915 8.313-17.846c5.643 1.07 9.825 25.853 9.825 25.853z"/>
            <path fill="#000" d="M195.84 113.952s7.854-2.07 9.914.46c2.06 2.528-9.915-.46-9.915-.46zM194.01 117.42c2.668 1.87 10.905 1.946 10.905 1.946l-10.906-1.945zM198.05 126.763c.23.076 5.663 5.874 7.943 4.12 2.28-1.754-7.942-4.12-7.942-4.12zM124.892 78.106s1.595 10.984.81 15.457c-.787 4.474 2.082 10.016 2.082 10.016l-2.892-25.473z" opacity=".1"/>
            <path fill="#FFCCD0" d="M89.572 82.572c-1.839 1.442-3.181 4.853-4.154 8.603-1.696 6.54-2.25 14.124-2.25 14.124s-14.644-3.356-13.577-4.88c.671-.96-.23-8.182-.982-13.419-.448-3.094-.848-5.497-.848-5.497s26.846-2.898 21.811 1.07z"/>
            <path fill="#000" d="M89.572 82.267c-1.839 1.443-3.181 4.853-4.154 8.602a16.897 16.897 0 0 1-16.809-4.172 291.867 291.867 0 0 0-.848-5.5s26.846-2.896 21.811 1.07z" opacity=".1"/>
            <path fill="#FFCCD0" d="M97.444 74.05a16.938 16.938 0 1 1-33.876.013 16.938 16.938 0 0 1 33.876-.012z"/>
            <path fill="#000" d="M110.795 179.926h-4.827l-.407-8.526-.425-8.825s1.096-.164 2.843-.407l.706-.094h.058c.381 1.79.758 3.63 1.121 5.466.605 3.261.92 6.569.94 9.885v.676c.014.614 0 1.228-.009 1.825z" opacity=".1"/>
            <path fill="#FF748E" d="M109.869 179.926H49.326c.263-.595.437-.956.437-.956s4.844-21.19 7.306-30.156v-.023a35.862 35.862 0 0 1 1.113-3.598c.028-.08.064-.157.108-.23 1.218-1.981 2.744-4.117.609-7.168-2.136-3.05-1.38-16.473-1.38-16.473s2.594-11.442 5.338-17.543a8.207 8.207 0 0 1 1.743-2.528c.239-.234.494-.45.763-.649.205-.154.418-.296.64-.425l.043-.028a9.223 9.223 0 0 1 3.754-1.165 10.71 10.71 0 0 1 2.816.078c4.45.653 8.014 1.745 10.846 2.989 7.676 3.372 10 7.892 10.046 7.986l.018.039c.308.72 4.814 11.239 6.437 16.147.42 1.278.65 2.177.559 2.423-.46 1.218 3.508 16.471 3.508 16.471s1.839 7.357 3.678 15.98a412.364 412.364 0 0 1 1.2 5.834c.61 3.283.925 6.615.94 9.954.034 1.04.04 2.054.021 3.041z"/>
            <path fill="#000" d="M69.44 93.738s-4.178-1.61-4.127.832c.05 2.441 1.018 3.61.712 3.966-.305.356.152 2.492.152 2.492s5.644 0 8.237 1.167c2.593 1.168 12.152 3.508 13.372 4.221 1.22.713 5.747 3.908 5.747 3.908l.407-6.05s-4.678-3.865-12.354-5.846c-7.676-1.982-12.147-4.69-12.147-4.69z" opacity=".1"/>
            <path fill="#FF748E" d="M69.44 93.432s-4.178-1.609-4.127.832c.05 2.442 1.018 3.61.712 3.966-.305.356.152 2.492.152 2.492s5.644 0 8.237 1.17 12.152 3.508 13.372 4.218c1.22.71 5.747 3.908 5.747 3.908l.412-6.032s-4.678-3.864-12.354-5.846c-7.676-1.981-12.152-4.708-12.152-4.708z"/>
            <path fill="#000" d="M82.048 107.993s7.982 8.641 7.575 11.035c-.407 2.393-7.575-11.035-7.575-11.035z" opacity=".1"/>
            <path d="M88.556 157.055s-3.1 6.306-1.423 5.899c1.678-.407 1.423-5.899 1.423-5.899z"/>
            <path fill="#000" d="M69.083 139.21s-5.85 5.39-7.575 5.696c-1.724.305 1.322 1.322 3.303.51 1.982-.811 6.207-2.947 6.207-2.947l-1.935-3.26z" opacity=".1"/>
            <path fill="#FFCCD0" d="M112.246 179.926H98.602c-1.908-1.655-3.712-3.188-4.862-4.11-1.839-1.476-3.165-3.648-4.011-5.395-.191-.398-.357-.77-.497-1.108a18.48 18.48 0 0 1-.662-1.782l10.104-6c.558.475 1.083.988 1.57 1.536l.122.14c.56.662 1.055 1.414 1.098 2.03.05.717 2.046 3.492 4.085 6.156 2.07 2.71 4.189 5.301 4.33 5.476 0 0 .349.476.919 1.207.402.529.899 1.163 1.448 1.85z"/>
            <path fill="#000" d="M93.717 63.457c-.485 1.095-.92 2.23-.984 3.449-.181 3.517.113 11.381-3.781 13.147-1.929.869-3.993-1.04-6.108-1.085-1.522-.032-2.918.933-3.846 2.14-.929 1.207-1.506 2.64-2.18 4.005a27.356 27.356 0 0 1-2.112 3.563 8.966 8.966 0 0 1-.782.986 16.933 16.933 0 1 1 19.793-26.195v-.01z" opacity=".1"/>
            <path fill="#FFE0D0" d="M92.428 66.285c-.184 3.517.112 11.382-3.784 13.145-1.93.869-3.993-1.037-6.108-1.083-1.522-.034-2.915.933-3.846 2.138-.931 1.205-1.504 2.64-2.18 4.007a27.411 27.411 0 0 1-2.112 3.563c-.474.671-.998 1.345-1.727 1.722-1.269.662-2.807.29-4.168-.136a68.26 68.26 0 0 1-5.218-1.88c.04-.259.06-.52.06-.782-.05.097-.106.187-.161.283l-.108.189c-.196.344-.386.69-.561 1.043a6.772 6.772 0 0 0-.189.416 5.287 5.287 0 0 0-.43 1.646c-.117 1.534.64 2.989 1.31 4.368 2.583 5.336 4.178 11.575 2.235 17.173-.841 2.434-2.298 4.597-3.363 6.949a22.453 22.453 0 0 0-1.57 13.283c.531 2.786 1.595 5.545 1.333 8.37-.46 4.862-4.652 8.48-8.852 10.968-2.27 1.338-5.046 2.528-7.456 1.47 1.536-1.792 1.931-4.273 2.262-6.613a33837.154 33837.154 0 0 1 3.812-26.786c.676-4.777 1.36-9.607.938-14.414-.308-3.542-1.177-7.303.358-10.51.812-1.7 2.258-3.106 2.708-4.936.37-1.487.026-3.069.27-4.584.133-.689.359-1.357.67-1.986a9.759 9.759 0 0 1 1.541-2.35c-.616-.179-1.19-.425-1.54-.94.988-.643 1.138-2.094.69-3.184-.449-1.09-1.345-1.92-2.152-2.779-.807-.86-1.584-1.862-1.685-3.034-.196-2.232 2.034-3.961 2.427-6.164.398-2.24-1.175-4.42-1.048-6.69.147-2.742 2.667-4.735 5.154-5.891a23.448 23.448 0 0 1 12.018-2.07c3.352.318 6.596 1.355 9.938 1.757 2.016.23 4.06.253 6.062.607 2.003.354 4.01 1.101 5.419 2.57 3.715 3.874-.736 7.062-.947 11.145z"/>
            <path fill="#000" d="M89.32 170.423c-1.173-.508-3.306-.205-6.968-1.32-3.662-1.114-4.368-6.154-4.368-6.154v-.016c-.044-.115-.384-.864-2.687-3.49-2.545-2.898-8.046-17.54-8.046-17.54s-4.879-5.239-4.725-7.17c.154-1.93-.866-7.069-.765-12.816.101-5.747 10.982-9.558 10.982-9.558 20.949-3.713 16.016 20.439 15.457 22.269-.559 1.83 2.34 6.772 2.34 6.772-.409 2.152 1.678 5.483 1.678 5.483s.506 2.947.61 4.066a.69.69 0 0 0 .034.152c.336 1.055 3.071 2.012 4.184 2.593 1.17.612 4.933 5.95 4.933 5.95.812 3.92-11.492 11.294-12.66 10.779z" opacity=".1"/>
            <path fill="#FF748E" d="M89.929 169.503c-1.17-.51-3.306-.204-6.966-1.321-3.66-1.118-4.368-6.152-4.368-6.152v-.016c-.041-.117-.384-.865-2.687-3.49-2.545-2.899-8.046-17.542-8.046-17.542s-4.878-5.237-4.726-7.168c.151-1.931-.865-7.07-.764-12.812.102-5.742 10.975-9.551 10.975-9.551 20.95-3.713 16.016 20.439 15.458 22.269-.559 1.83 2.34 6.772 2.34 6.772-.41 2.152 1.678 5.483 1.678 5.483s.506 2.947.611 4.066a.577.577 0 0 0 .033.152c.335 1.055 3.07 2.012 4.186 2.593 1.168.61 4.933 5.95 4.933 5.95.816 3.912-11.487 11.287-12.657 10.767z"/>
            <path fill="#000" d="M73.76 124.06s9.153 9.655 11.541 9.655c2.389 0-11.54-9.655-11.54-9.655z" opacity=".1"/>
            <path fill="#FF748E" d="M89.929 169.503c-1.17-.51-3.306-.204-6.966-1.321-3.66-1.118-4.368-6.152-4.368-6.152v-.016c2.426-1.61 8.568-6.154 10.989-7.816 1.703-1.166 3.094-2.878 3.908-4.014.336 1.055 3.071 2.011 4.186 2.593 1.168.61 4.933 5.95 4.933 5.95.791 3.921-11.512 11.296-12.682 10.776z"/>
            <g fill="#000" opacity=".1">
                <path d="M56.566 80.044c.011.018.027.034.04.053.07-.088.141-.175.215-.258a1.715 1.715 0 0 1-.255.205zM61.899 90.582c.096-1.276.78-2.4 1.418-3.522-.418-.161-.837-.324-1.25-.494.04-.258.06-.519.06-.78-.647 1.15-1.35 2.28-1.449 3.575-.117 1.536.64 2.988 1.31 4.368 2.584 5.333 4.178 11.572 2.235 17.172-.844 2.432-2.299 4.598-3.363 6.95a22.444 22.444 0 0 0-1.568 13.28c.526 2.789 1.593 5.545 1.331 8.37-.46 4.862-4.65 8.48-8.853 10.966-1.717 1.016-3.724 1.947-5.644 1.88a6.954 6.954 0 0 1-.593.816c2.412 1.065 5.187-.133 7.456-1.476 4.204-2.482 8.404-6.092 8.864-10.963.262-2.825-.805-5.581-1.333-8.37a22.462 22.462 0 0 1 1.563-13.28c1.057-2.35 2.528-4.518 3.363-6.95 1.943-5.6.347-11.839-2.235-17.172-.668-1.389-1.43-2.835-1.312-4.37z"/>
                <path d="M93.37 55.168a6.641 6.641 0 0 0-.726-.644c2.786 3.614-1.237 6.685-1.437 10.575-.18 3.517.115 11.384-3.782 13.145-1.926.87-3.993-1.037-6.105-1.083-1.525-.032-2.918.936-3.849 2.14-.93 1.205-1.503 2.64-2.177 4.005a27.531 27.531 0 0 1-2.115 3.563c-.46.674-.997 1.345-1.728 1.724-1.265.66-2.803.29-4.166-.138a65.212 65.212 0 0 1-3.94-1.38c-.003.24-.023.48-.06.716a67.255 67.255 0 0 0 5.22 1.88c1.362.428 2.9.798 4.166.138.729-.38 1.258-1.053 1.729-1.726a27.08 27.08 0 0 0 2.113-3.561c.676-1.366 1.246-2.802 2.179-4.007.933-1.205 2.324-2.17 3.846-2.138 2.115.046 4.182 1.954 6.108 1.083 3.897-1.761 3.6-9.628 3.782-13.145.211-4.09 4.662-7.276.942-11.147z"/>
            </g>
            <path fill="#000" d="M63.078 87.453c-.195.345-.386.69-.56 1.044a6.772 6.772 0 0 0-.19.416c-1.204-1.214-4.137-4.1-5.774-4.993a9.805 9.805 0 0 1 1.54-2.35s3.901 2.062 4.984 5.883z" opacity=".1"/>
            <path fill="#FF748E" d="M63.186 87.264c-.903-4.09-5.092-6.303-5.092-6.303a9.759 9.759 0 0 0-1.54 2.35c1.726.944 4.908 4.112 5.963 5.186l.67-1.233z"/>
        </g>
    </g>
</svg>
