<svg xmlns="http://www.w3.org/2000/svg" width="462" height="354" viewBox="0 0 462 354">
    <defs>
        <linearGradient id="a" x1="50%" x2="50%" y1="100.011%" y2=".005%">
            <stop offset="0%" stop-color="gray" stop-opacity=".25"/>
            <stop offset="54%" stop-color="gray" stop-opacity=".12"/>
            <stop offset="100%" stop-color="gray" stop-opacity=".1"/>
        </linearGradient>
        <linearGradient id="b" x1="37.287%" x2="80.985%" y1="98.45%" y2="2.803%">
            <stop offset="0%" stop-color="gray" stop-opacity=".25"/>
            <stop offset="54%" stop-color="gray" stop-opacity=".12"/>
            <stop offset="100%" stop-color="gray" stop-opacity=".1"/>
        </linearGradient>
        <linearGradient id="c" x1="50.012%" x2="50.012%" y1="99.986%" y2="-.002%">
            <stop offset="0%" stop-color="gray" stop-opacity=".25"/>
            <stop offset="54%" stop-color="gray" stop-opacity=".12"/>
            <stop offset="100%" stop-color="gray" stop-opacity=".1"/>
        </linearGradient>
    </defs>
    <g fill="none" fill-rule="evenodd">
        <path fill="#0DA176" d="M79.177 52.438c-2.468 2.995-3.418 7.206-4.481 11.165-8.557 31.905-29.644 57.568-53.659 75.898C10.867 147.266-1.513 157.68.712 171.6c1.198 7.476 6.454 12.98 10.358 19.07 8.193 12.75 10.85 30.08 6.945 45.344-4.44 17.366-16.853 33.571-13.011 51.131 2.369 10.81 10.413 18.502 18.146 25.114a496.44 496.44 0 0 0 37.345 28.968c8.603 6.035 17.754 11.908 27.78 12.674 8.827.675 17.475-2.68 25.856-5.99 7.323-2.896 14.831-5.91 20.745-11.71 3.86-3.788 6.936-8.674 11.223-11.773 10.07-7.278 23.006-2.666 34.554.45 27.248 7.315 56.41 4.644 82.338-7.54 39.774-18.69 70.089-57.94 108.993-79 16.727-9.058 34.922-14.678 50.411-26.343a94.17 94.17 0 0 0 22.159-23.979c11.71-18.064 18.042-41.097 16.213-63.643-1.828-22.546-12.074-44.273-28.166-57-17.227-13.624-38.985-16.17-58.586-24.348-20.231-8.458-38.237-22.988-58.275-32.045a119.203 119.203 0 0 0-102.827 2.302c-21.82 11.034-43.93 36.778-68.232 38.733-17.313 1.35-51.983-15.98-65.504.423z" opacity=".1"/>
        <path stroke="#535461" stroke-width="2" d="M391.44 156.769s-6.557-22.272 1.23-38.66a35.175 35.175 0 0 0 2.846-22.07 59.158 59.158 0 0 0-3.125-10.358"/>
        <path fill="#0DA176" d="M397.26 75.326c0 2.73-4.955 10.643-4.955 10.643s-4.954-7.913-4.954-10.643a4.954 4.954 0 1 1 9.881 0h.027zM405.407 90.441c-1.482 2.293-9.95 6.251-9.95 6.251s.154-9.327 1.636-11.62a4.954 4.954 0 0 1 8.296 5.374l.018-.005zM405.05 116.28c-2.436 1.23-11.71.378-11.71.378s4.842-7.976 7.279-9.206a4.954 4.954 0 0 1 4.45 8.823l-.018.005zM400.38 135.786c-2.193 1.62-11.498 2.355-11.498 2.355s3.423-8.679 5.62-10.305a4.954 4.954 0 0 1 5.856 7.945l.022.005zM385.099 97.22c1.959 1.9 11.08 3.873 11.08 3.873s-2.253-9.058-4.194-10.963a4.954 4.954 0 1 0-6.886 7.09zM379.924 120.08c2.437 1.23 11.71.38 11.71.38s-4.842-7.977-7.278-9.207a4.954 4.954 0 0 0-4.45 8.823l.018.005zM377.942 142.992c2.194 1.621 11.499 2.355 11.499 2.355s-3.423-8.679-5.621-10.305a4.954 4.954 0 1 0-5.855 7.945l-.023.005z"/>
        <path fill="#0DA176" d="M397.26 75.326c0 2.73-4.955 10.643-4.955 10.643s-4.954-7.913-4.954-10.643a4.954 4.954 0 1 1 9.881 0h.027zM405.407 90.441c-1.482 2.293-9.95 6.251-9.95 6.251s.154-9.327 1.636-11.62a4.954 4.954 0 0 1 8.296 5.374l.018-.005zM405.05 116.28c-2.436 1.23-11.71.378-11.71.378s4.842-7.976 7.279-9.206a4.954 4.954 0 0 1 4.45 8.823l-.018.005zM400.38 135.786c-2.193 1.62-11.498 2.355-11.498 2.355s3.423-8.679 5.62-10.305a4.954 4.954 0 0 1 5.856 7.945l.022.005zM385.099 97.22c1.959 1.9 11.08 3.873 11.08 3.873s-2.253-9.058-4.194-10.963a4.954 4.954 0 1 0-6.886 7.09zM379.924 120.08c2.437 1.23 11.71.38 11.71.38s-4.842-7.977-7.278-9.207a4.954 4.954 0 0 0-4.45 8.823l.018.005zM377.942 142.992c2.194 1.621 11.499 2.355 11.499 2.355s-3.423-8.679-5.621-10.305a4.954 4.954 0 1 0-5.855 7.945l-.023.005z" opacity=".1"/>
        <path stroke="#535461" stroke-width="2" d="M418.914 192.349s-6.558-22.271 1.23-38.66a35.175 35.175 0 0 0 2.845-22.07 59.158 59.158 0 0 0-3.125-10.358"/>
        <path fill="#0DA176" d="M424.732 110.906c0 2.73-4.954 10.643-4.954 10.643s-4.954-7.913-4.954-10.643a4.954 4.954 0 1 1 9.881 0h.027zM432.88 126.021c-1.482 2.293-9.931 6.247-9.931 6.247s.153-9.327 1.635-11.62a4.954 4.954 0 1 1 8.296 5.373zM432.524 151.86c-2.437 1.23-11.71.378-11.71.378s4.842-7.976 7.278-9.206a4.954 4.954 0 1 1 4.45 8.823l-.018.005zM427.854 171.366c-2.194 1.621-11.499 2.355-11.499 2.355s3.423-8.679 5.621-10.305a4.954 4.954 0 0 1 5.855 7.945l.023.005zM412.572 132.8c1.96 1.9 11.08 3.873 11.08 3.873s-2.252-9.057-4.194-10.962a4.954 4.954 0 0 0-6.886 7.089zM407.397 155.66c2.437 1.23 11.71.38 11.71.38s-4.841-7.977-7.278-9.207a4.954 4.954 0 0 0-4.45 8.823l.018.005zM405.416 178.572c2.193 1.621 11.498 2.355 11.498 2.355s-3.423-8.679-5.62-10.304a4.954 4.954 0 1 0-5.856 7.944l-.022.005z"/>
        <path fill="#0DA176" d="M424.732 110.906c0 2.73-4.954 10.643-4.954 10.643s-4.954-7.913-4.954-10.643a4.954 4.954 0 1 1 9.881 0h.027zM432.88 126.021c-1.482 2.293-9.931 6.247-9.931 6.247s.153-9.327 1.635-11.62a4.954 4.954 0 1 1 8.296 5.373zM432.524 151.86c-2.437 1.23-11.71.378-11.71.378s4.842-7.976 7.278-9.206a4.954 4.954 0 1 1 4.45 8.823l-.018.005zM427.854 171.366c-2.194 1.621-11.499 2.355-11.499 2.355s3.423-8.679 5.621-10.305a4.954 4.954 0 0 1 5.855 7.945l.023.005zM412.572 132.8c1.96 1.9 11.08 3.873 11.08 3.873s-2.252-9.057-4.194-10.962a4.954 4.954 0 0 0-6.886 7.089zM407.397 155.66c2.437 1.23 11.71.38 11.71.38s-4.841-7.977-7.278-9.207a4.954 4.954 0 0 0-4.45 8.823l.018.005zM405.416 178.572c2.193 1.621 11.498 2.355 11.498 2.355s-3.423-8.679-5.62-10.304a4.954 4.954 0 1 0-5.856 7.944l-.022.005z" opacity=".1"/>
        <ellipse cx="240.154" cy="231.157" fill="#0DA176" opacity=".1" rx="222.552" ry="35.823" transform="rotate(-5.57 240.154 231.157)"/>
        <path fill="url(#a)" d="M442.378 212.693c8.328-17.07 6.607-44.854 5.72-54.285-.193-2.063-.347-3.247-.347-3.247s-7.34-1.157-4.634-10.044c1.324-4.35-3.378-6.755-8.512-8.075a59.955 59.955 0 0 0-11.188-1.58l-71.11-4.392c-9.751-15.475-28.937-12.989-28.937-12.989s-17.115-1.779-29.248-1.964a32.657 32.657 0 0 0-6.017-4.202 19.817 19.817 0 0 0-4.08-1.86 11.561 11.561 0 0 0-10.215 1.914 5.432 5.432 0 0 0-1.662 1.933 5.292 5.292 0 0 0-.338 1.085c-.183.636-.333 1.28-.45 1.932-.106.314-.258.61-.45.878-.487.69-1.325 1.207-1.433 2.04a1.351 1.351 0 0 0 0 .145c-.09.159-.149.333-.176.513-.032.37.048.743.23 1.068.027.054.058.103.09.153a12.71 12.71 0 0 0-1.455 2.792c-.166.09-.327.191-.482.302l-.135.099v.275l-.076.058-.167 4.436.095.072a13.133 13.133 0 0 0 6.107 10.251 23.807 23.807 0 0 1 .5 5.278h-.077c-2.117-.9-5.738.424-8.85 1.969h-40.318c7.864-10.116 17.484-17.961 17.484-17.961v-8.891c-6.873-.342-67.251 28.662-80.488 35.067l-.585.283-68.03 2.108c-12.323-.076-23.096 1.734-32.428 4.684A92.279 92.279 0 0 0 20.11 188.48c-8.035 8.819-11.557 16.106-11.557 16.106l.076.612-.076.158.108.095 1.833 14.466 1.261 9.953c-8.764 5.666 2.59 7.936 2.59 7.936 10.809 9.269 28.198 8.886 28.198 8.886 4.247 5.796 16.61 5.022 16.61 5.022h64.896a157.242 157.242 0 0 1 4.053-17.655c2.77 19.947 18.51 35.229 37.508 35.229 1.409-.001 2.817-.087 4.215-.257 1.4.17 2.807.256 4.216.257 19.218 0 35.098-15.642 37.598-35.923h3.175a70.782 70.782 0 0 1-3.076 13.327c58.329-16.997 166.875-25.109 166.875-25.109.45-4.278.946-8.413 1.482-12.38 4.472 11.101 14.61 18.852 26.41 18.852a26.654 26.654 0 0 0 3.207-.198c1.064.13 2.135.197 3.207.198 14.011 0 25.672-10.93 28.302-25.424.348 2.558.547 5.134.594 7.715-.5 2.46-.936 4.031-.995 4.252.351-.643.685-1.3 1-1.973v.802c-.108.45-.185.702-.207.788l.198-.37v.59c-.045.019.194-.63.567-1.742z"/>
        <path fill="#6F7D95" d="M301.855 151.36h133.718v53.942H301.855z"/>
        <path fill="#333" d="M267.855 126.098l18.993 42.547 37.611-2.279 1.518-17.474 1.14-20.515-53.181-3.801z"/>
        <path fill="#940016" d="M267.855 126.098s7.207-6.837 15.958-8.36c8.75-1.522 37.99 1.519 37.99 1.519l4.179 7.206-.784 3.432-57.343-3.797z"/>
        <path fill="#333" d="M204.604 147.941h134.858v39.507H204.604z"/>
        <path fill="url(#b)" fill-rule="nonzero" d="M306.282 174.82c3.563-11.912-3.54-19.74-3.54-19.74l-11.773-8.215a.554.554 0 0 1-.036.081 15.313 15.313 0 0 1-3.202-6.206c-.036-.144-.068-.293-.104-.45a12.674 12.674 0 0 0 2.793-2.86c1.918-1.176 2.774-3.068 3.098-4.955a24.708 24.708 0 0 0 2.923-5.913c.117-.339.216-.683.297-1.032a5.405 5.405 0 0 0 .298-2.022 5.53 5.53 0 0 0-.748-2.162c-1.982-3.603-5.549-6.111-9.165-8.156a19.501 19.501 0 0 0-4.013-1.829 11.372 11.372 0 0 0-10.044 1.883 5.342 5.342 0 0 0-1.634 1.9c-.15.343-.261.701-.334 1.068-.175.626-.317 1.26-.428 1.9-.098.307-.24.596-.423.86-.482.676-1.302 1.185-1.41 2.01a1.324 1.324 0 0 0 0 .144 1.486 1.486 0 0 0-.17.504c-.034.365.044.73.224 1.05.027.054.059.103.09.153-.589.852-1.07 1.775-1.432 2.747-.165.09-.324.188-.477.297l-.13.095v.27l-.077.059-.167 4.364.09.072a12.912 12.912 0 0 0 6.004 10.084c.058.28.112.563.162.86.272 1.571.38 3.167.324 4.76a1.617 1.617 0 0 1 0-.414c-3.256-1.472-10.359 2.599-13.219 4.4a5.427 5.427 0 0 0-1.202.78l-.05.036c-1.968 1.594-5.855 6.026-8.94 17.416-4.278 15.894-3.832 19.497-6.95 23.181-3.116 3.684-6.21 29.64-6.21 29.64l6.274 1.689.802-2.577c7.458 6.801 28.342 10.075 28.342 10.075l.64-1.986c3.202 1.153 8.557-.599 8.557-.599 7.828-2.765 10.76-9.782 16.439-19.037 5.68-9.256 8.521-34.225 8.521-34.225zm-31.572 47.89l14.458-44.845c1.31 6.963-4.473 17.93-4.986 25.1-.32 4.611-5.688 13.777-9.472 19.744z"/>
        <path fill="#472727" d="M292.798 127.634s2.517 9.588-4.955 11.26c-7.471 1.67-2.549-4.31-2.549-4.31l7.206-7.022.298.072z"/>
        <path fill="#DDE0E4" d="M261.56 150.486s-5.559 2.252-9.644 17.42c-4.084 15.17-3.68 18.593-6.62 22.119-2.941 3.527-5.954 28.27-5.954 28.27l5.882 1.586 5.12-16.538 14.084-43.687-2.869-9.17z"/>
        <path fill="#000" d="M261.56 150.486s-5.559 2.252-9.644 17.42c-4.084 15.17-3.68 18.593-6.62 22.119-2.941 3.527-5.954 28.27-5.954 28.27l5.882 1.586 5.12-16.538 14.084-43.687-2.869-9.17z" opacity=".05"/>
        <path fill="#DB8B8B" d="M292.42 148.775s-23.267 11.827-19.863 4.112c1.685-3.81 1.622-7.76 1.13-10.81a23.087 23.087 0 0 0-1.463-5.233s15.818-12.512 14.89-2.297a19.547 19.547 0 0 0 .45 6.567c1.37 5.418 4.855 7.66 4.855 7.66z"/>
        <path fill="#000" d="M287.564 141.132a12.16 12.16 0 0 1-10.809 2.252 12.3 12.3 0 0 1-3.085-1.302 23.087 23.087 0 0 0-1.464-5.234s15.818-12.511 14.89-2.296c-.218 2.204-.06 4.429.468 6.58z" opacity=".1"/>
        <circle cx="280.107" cy="131.02" r="12.178" fill="#DB8B8B" transform="rotate(-74.93 280.107 131.02)"/>
        <path fill="#000" d="M273.99 125.08a2.905 2.905 0 0 1-4.054-1.067 1.747 1.747 0 0 1-.207-1c.104-.784.878-1.27 1.351-1.919.734-1.05.595-2.486 1.126-3.652a5.134 5.134 0 0 1 1.54-1.802 10.588 10.588 0 0 1 9.436-1.838 17.988 17.988 0 0 1 3.756 1.725c3.387 1.933 6.724 4.297 8.557 7.733.372.631.608 1.332.694 2.059a5.855 5.855 0 0 1-.405 2.297 23.942 23.942 0 0 1-2.806 5.706 4.396 4.396 0 0 0-1.46-1.176 1.504 1.504 0 0 0-1.729.32c-.392.5-.63 1.455-1.225 1.23-.387-.144-.383-.68-.365-1.095.081-1.801-.9-3.5-2.22-4.715-1.32-1.216-2.955-2.018-4.567-2.806-1.157-.567-2.702-1.87-3.972-2.099-1.577-.293-2.32 1.4-3.45 2.099z" opacity=".1"/>
        <path fill="#472727" d="M274.156 124.463a2.905 2.905 0 0 1-4.053-1.067 1.747 1.747 0 0 1-.207-1c.103-.784.878-1.27 1.35-1.919.735-1.05.595-2.486 1.127-3.652a5.134 5.134 0 0 1 1.54-1.802 10.588 10.588 0 0 1 9.436-1.838 17.988 17.988 0 0 1 3.756 1.725c3.387 1.933 6.724 4.297 8.557 7.733.371.631.608 1.332.694 2.059a5.855 5.855 0 0 1-.406 2.297 23.942 23.942 0 0 1-2.806 5.706 4.396 4.396 0 0 0-1.459-1.176 1.504 1.504 0 0 0-1.73.32c-.391.5-.63 1.455-1.224 1.23-.388-.144-.383-.68-.365-1.095.08-1.801-.9-3.5-2.22-4.715-1.32-1.216-2.955-2.018-4.567-2.806-1.158-.568-2.703-1.87-3.973-2.099-1.576-.297-2.32 1.4-3.45 2.099z"/>
        <path fill="#DDE0E4" d="M280.534 150.387s9.633-1.887 10.052-3.432l11.017 7.778s6.63 7.427 3.238 18.795c0 0-2.761 23.82-8.13 32.661-5.368 8.841-8.453 20.294-15.808 22.97 0 0-7.07-4.558-9.404-4.504 0 0 11.976-17.353 12.49-24.186.513-6.832 5.985-17.308 4.787-23.937l-16.214 50.397s-26.122-4.053-28.77-12.723c0 0 2.252-3.382 1.833-6.81-.42-3.427 9.854-29.211 9.854-29.211l4.918-26.888s9.728-6.797 13.602-5.031c-.018-.027-.72 3.328 6.535 4.12z"/>
        <g fill="#000" opacity=".1">
            <path fill-rule="nonzero" d="M284.042 129.48c-2.378-3.243-6.913-.58-7.656-.117l-1.167-.117c-1.018-1.108-4.139-4.053-7.07-1.887l-.127.095-.176 4.157.127.099a8.683 8.683 0 0 0 2.832 1.45c.65.19 1.335.225 2 .099a3.45 3.45 0 0 0 2.302-1.802l.608.04.45-.085a3.427 3.427 0 0 0 1.621 2.315c2.014 1.14 4.955 0 5.076-.022l.153-.059 1.081-4.022-.054-.144zm-1.527 3.657c-.599.203-2.86.87-4.377 0a2.91 2.91 0 0 1-1.351-2.189l-.054-.328-.987.202-.99-.036-.095.19a2.923 2.923 0 0 1-1.977 1.657c-1.698.365-3.662-.95-4.175-1.324l.148-3.513c2.55-1.716 5.36 1.067 6.17 1.977l.086.095 1.644.162.099-.068c.045-.027 4.13-2.77 6.458-.563.116.107.223.223.32.347l-.919 3.391z"/>
            <path d="M291.42 131.57l-7.657-.635-.63-.122.283-1.063a3.013 3.013 0 0 0-.32-.346l.928.09 6.265.612 1.13 1.464z"/>
        </g>
        <path fill="#472727" fill-rule="nonzero" d="M284.123 129.192c-2.378-3.243-6.913-.581-7.656-.117l-1.167-.117c-1.018-1.108-4.139-4.054-7.07-1.887l-.127.094-.175 4.157.126.1a8.683 8.683 0 0 0 2.833 1.45c.649.19 1.334.224 2 .099a3.45 3.45 0 0 0 2.3-1.802l.609.04.45-.085a3.427 3.427 0 0 0 1.621 2.315c2.014 1.14 4.955 0 5.076-.022l.153-.059 1.081-4.022-.054-.144zm-1.527 3.657c-.599.203-2.86.87-4.377 0a2.91 2.91 0 0 1-1.351-2.189l-.054-.329-.987.203-.977-.063-.095.19a2.923 2.923 0 0 1-1.968 1.675c-1.698.364-3.661-.95-4.175-1.324l.149-3.513c2.549-1.716 5.36 1.067 6.17 1.977l.086.094 1.643.162.1-.067c.045-.027 4.13-2.77 6.458-.563.116.107.222.223.32.347l-.942 3.4z"/>
        <path fill="#472727" d="M291.492 131.282l-7.63-.635-.63-.122.283-1.063a3.013 3.013 0 0 0-.32-.347l.928.09 6.265.613 1.104 1.464z"/>
        <path fill="#6F7D95" d="M105.452 178.711H239.17v53.942H105.452z"/>
        <ellipse cx="166.65" cy="227.145" fill="#4B5C7A" rx="37.314" ry="40.836"/>
        <ellipse cx="166.65" cy="227.145" fill="#000" opacity=".05" rx="37.314" ry="40.836"/>
        <ellipse cx="174.942" cy="227.145" fill="#4B5C7A" rx="37.314" ry="40.836"/>
        <circle cx="174.113" cy="227.353" r="16.583" fill="#000" opacity=".05"/>
        <circle cx="174.113" cy="227.353" r="4.977" stroke="#6F7D95" stroke-width="2"/>
        <circle cx="174.113" cy="218.647" r="1.243" fill="#6F7D95"/>
        <circle cx="180.915" cy="221.047" r="1.243" fill="#6F7D95" transform="rotate(-40 180.915 221.047)"/>
        <circle cx="183.458" cy="227.803" r="1.243" fill="#6F7D95" transform="rotate(-80 183.458 227.803)"/>
        <circle cx="179.904" cy="234.092" r="1.243" fill="#6F7D95" transform="rotate(-30 179.904 234.092)"/>
        <circle cx="172.813" cy="235.416" r="1.243" fill="#6F7D95" transform="rotate(-70 172.813 235.416)"/>
        <circle cx="167.237" cy="230.834" r="1.243" fill="#6F7D95" transform="rotate(-20 167.237 230.834)"/>
        <circle cx="167.166" cy="223.615" r="1.243" fill="#6F7D95" transform="rotate(-60 167.166 223.615)"/>
        <path fill="#000" d="M443.058 195.587c-1.274 8.8-4.819 18.434-4.819 18.434.024-.6.04-1.193.045-1.779v-2.252c-.45-24.257-13.669-39.223-22.194-46.389a47.916 47.916 0 0 0-7.12-5.026h23.171s9.116 18.614 11.017 27.73c.549 2.558.396 5.86-.1 9.282z"/>
        <path fill="#940016" d="M443.058 195.587c-1.274 8.8-4.819 18.434-4.819 18.434.024-.6.04-1.193.045-1.779v-2.252c-.45-24.257-13.669-39.223-22.194-46.389a47.916 47.916 0 0 0-7.12-5.026h23.171s9.116 18.614 11.017 27.73c.549 2.558.396 5.86-.1 9.282z" opacity=".05"/>
        <ellipse cx="403.551" cy="196.375" fill="#4B5C7A" rx="28.379" ry="31.058"/>
        <ellipse cx="403.551" cy="196.375" fill="#000" opacity=".05" rx="28.379" ry="31.058"/>
        <ellipse cx="409.856" cy="196.375" fill="#4B5C7A" rx="28.379" ry="31.058"/>
        <circle cx="409.226" cy="196.533" r="12.611" fill="#000" opacity=".05"/>
        <circle cx="409.226" cy="196.533" r="3.783" stroke="#6F7D95" stroke-width="2"/>
        <circle cx="409.226" cy="189.912" r="1" fill="#6F7D95"/>
        <circle cx="414.402" cy="191.737" r="1" fill="#6F7D95" transform="rotate(-40 414.402 191.737)"/>
        <circle cx="416.332" cy="196.879" r="1" fill="#6F7D95" transform="rotate(-80 416.332 196.88)"/>
        <circle cx="413.634" cy="201.661" r="1" fill="#6F7D95" transform="rotate(-30 413.634 201.661)"/>
        <circle cx="408.239" cy="202.667" r="1" fill="#6F7D95" transform="rotate(-70 408.239 202.667)"/>
        <circle cx="403.997" cy="199.178" r="1" fill="#6F7D95" transform="rotate(-20 403.997 199.178)"/>
        <circle cx="403.948" cy="193.689" r="1" fill="#6F7D95" transform="rotate(-60 403.948 193.69)"/>
        <path fill="#940016" d="M15.615 231.325l-3.432-26.973H52.83l20.893 18.614-10.255 23.933s-41.377-6.837-47.853-15.574z"/>
        <path fill="#000" d="M73.736 222.966l-10.255 23.933s-41.39-6.837-47.866-15.574l-.149-1.175-3.153-24.943-.031-.247-.077-.604h40.647l20.884 18.61z" opacity=".05"/>
        <path fill="#7597CE" d="M242.026 121.54v8.737s-21.006 17.115-26.005 33.261a20.348 20.348 0 0 0-.968 8.147c1.9 17.854-54.695-14.439-54.695-14.439l2.518-1.225c13.012-6.274 72.39-34.823 79.15-34.481z"/>
        <path fill="#FF4D52" d="M289.893 163.71s19.672-9.666 22.83-16.818c.423-.96.824-1.928 1.292-2.869 1.95-3.923 6.049-13.124 3.986-17.542-2.657-5.698 6.458.76 6.458.76l-5.319 26.965-12.916 7.206-16.714 2.297"/>
        <path fill="#940016" d="M289.893 163.71s19.672-9.666 22.83-16.818c.423-.96.824-1.928 1.292-2.869 1.95-3.923 6.049-13.124 3.986-17.542-2.657-5.698 6.458.76 6.458.76l-5.319 26.965-12.916 7.206-16.714 2.297" opacity=".05"/>
        <path fill="#000" d="M73.736 222.966l-10.255 23.933s-41.39-6.837-47.866-15.574l-.149-1.175c.167-.113.342-.23.527-.343 0 0 12.534 9.877 41.03 12.16 0 0 17.114-13.678-10.638-28.869 0 0-24.14.757-34.085-7.886l-.108-.09.076-.158c.066-.129.173-.33.32-.603h40.25l20.898 18.605zM215.053 171.681c1.9 17.858-54.695-14.435-54.695-14.435l2.518-1.225c1.666 1.775 8.319 7.76 21.618 7.112 8.558-.42 21.551-.036 31.55.4a20.348 20.348 0 0 0-.991 8.148z" opacity=".05"/>
        <path fill="#000" d="M239.175 178.711v53.943h-24.843c1.64-12.548.694-30.838-15.24-41.323a38.544 38.544 0 0 0-40.22-1.198c-10.444 5.963-22.123 18.087-29.545 42.52h-23.87v-53.942h133.718zM443.058 195.587c-.936 5.954-2.44 11.737-4.77 16.664-.3.664-.627 1.311-.98 1.942.058-.221.486-1.761.98-4.185 2.415-11.8 6.545-44.452-21.126-46.317-.36-.022-.717-.045-1.072-.058a47.916 47.916 0 0 0-7.12-5.058h23.171s9.116 18.614 11.017 27.73c.549 2.558.396 5.86-.1 9.282z" opacity=".05"/>
        <path fill="#940016" d="M438.06 213.823c.36-1.301 13.195-48.25-20.146-50.497-33.81-2.279-37.99 23.173-41.787 57.744 0 0-106.74 7.976-164.11 24.694 0 0 13.773-37.742-12.16-54.811a38.544 38.544 0 0 0-40.22-1.198c-12.79 7.305-27.441 23.87-33.85 60.945H61.96s-12.16.762-16.335-4.954c0 0-17.115.379-27.73-8.737 0 0-11.395-2.28-2.28-7.976 0 0 12.918 9.876 41.409 12.16 0 0 17.114-13.678-10.638-28.87 0 0-24.32.762-34.189-7.976 0 0 3.464-7.165 11.368-15.835a90.752 90.752 0 0 1 39.917-25.523 103.38 103.38 0 0 1 31.91-4.603l67.048-2.09s6.477 8.359 22.033 7.598c15.556-.761 45.966 1.14 45.966 1.14h.302l62.567-2.834a39.805 39.805 0 0 0 5.319-1.125c9.07-2.464 26.275-9.936 23.172-30.802l98.39 6.08c3.708.17 7.392.69 11.003 1.554 5.053 1.297 9.674 3.666 8.373 7.945-2.658 8.737 4.557 9.876 4.557 9.876s.154 1.167.343 3.194c.9 9.557 2.67 38.291-6.405 54.901z"/>
        <path fill="#000" d="M137.177 172.064s-41.03.378-68.007 24.32h15.195s42.548-11.016 52.803-19.753l.01-4.567z" opacity=".05"/>
        <path fill="#FFEC9F" d="M136.794 171.681s-41.03.378-68.007 24.32h15.196s42.547-11.016 52.802-19.753l.01-4.567z"/>
        <path fill="#000" d="M63.86 163.371v10.21L29.297 189.54l-5.35-.644A90.752 90.752 0 0 1 63.86 163.37z" opacity=".05"/>
        <path fill="#FFEC9F" d="M63.477 162.993v10.21L28.91 189.156l-5.35-.644a90.752 90.752 0 0 1 39.917-25.519z"/>
        <path d="M112.483 209.292s-18.614 11.395-20.515 36.481h10.638s4.18-27.351 16.335-36.48h-6.458z"/>
        <path fill="#000" d="M112.483 209.292s-18.614 11.395-20.515 36.481h10.638s4.18-27.351 16.335-36.48h-6.458z" opacity=".05"/>
        <path d="M332.44 210.054l-96.494 11.394s-6.382-40.624-5.202-56.428l62.567-2.833c1.795-.25 3.57-.621 5.315-1.112v3.77l47.105-11.395s7.98 11.773-13.29 56.604z"/>
        <path fill="#000" d="M332.44 210.054l-96.494 11.394s-6.382-40.624-5.202-56.428l62.567-2.833c1.795-.25 3.57-.621 5.315-1.112v3.77l47.105-11.395s7.98 11.773-13.29 56.604z" opacity=".05"/>
        <path fill="#940016" d="M321.802 119.257s20.515-2.658 29.63 14.817l-29.337-1.13-.293-13.687z"/>
        <path d="M350.01 140.2c-.807 2.526-.199 5.305 4.472 7.228 3.887 1.603 8.445-.252 9.773-4.238.775-2.324.243-4.954-3.945-7.094-4.189-2.139-8.89-.31-10.3 4.103z"/>
        <path fill="#000" d="M350.01 140.2c-.807 2.526-.199 5.305 4.472 7.228 3.887 1.603 8.445-.252 9.773-4.238.775-2.324.243-4.954-3.945-7.094-4.189-2.139-8.89-.31-10.3 4.103z" opacity=".05"/>
        <path stroke="#940016" d="M12.917 210.045s24.348 12.61 41.822 7.836M13.777 216.854s15.732 12.134 47.529 9.314M14.502 222.57s15.606 13.543 47.673 9.25"/>
        <path fill="#000" d="M350.257 132.034s-12.691 10.958-24.275 15.912c0 0 17.592 3.13 24.275-15.912z" opacity=".05"/>
        <path fill="#000" d="M215.8 164.286s60.225 5.688 83.015.369c0 0 1.216.806-6.04-2.446l-76.975 2.077z" opacity=".1"/>
        <path fill="#000" d="M444.468 158.922c-3.752-2.464-9.701-7.576-8.89-13.264.405-2.851-1.613-5.517-4.383-7.756 5.054 1.297 9.675 3.666 8.373 7.945-2.657 8.738 4.558 9.877 4.558 9.877s.149 1.171.342 3.198z" opacity=".05"/>
        <path fill="url(#c)" fill-rule="nonzero" d="M141.771 198.573c.036-1.504 0-3.067-.112-4.504 0-.274-.045-.54-.073-.801.847.64 1.352 1.126 1.352 1.126l-.743-39.111-4.099-20.488c0-14.53-7.823-18.624-7.823-18.624s-4.099-1.864-5.216-4.467c-1.116-2.604-11.016-8.107-11.02-8.107a28.01 28.01 0 0 1-.09-2.851c0-.248 0-.505.022-.761a12.295 12.295 0 0 0 4.265-15.62c.55 0 .996-.23 1.203-1.044.657-2.581.022-6.468-1.473-8.53a8.373 8.373 0 0 0-1.076-1.194 18.466 18.466 0 0 0-1.464-1.32c-1.28-1.063-2.702-2.18-4.288-2.09-.9.118-1.763.425-2.535.901-3.96 2.084-7.91 4.186-11.85 6.306-1.455.788-2.955 1.616-3.972 3.03-1.018 1.415-1.428 3.225-1.712 5.004a12.268 12.268 0 0 0-.166 3.662 4.734 4.734 0 0 0 1.436 2.918c.163.198.35.374.554.527.802.586 1.833.73 2.671 1.203a12.295 12.295 0 0 0 3.094 4.85c0 .23-.031.45-.05.703-.049.644-.126 1.351-.225 2.067 0 0-2.751-.072-6.85 5.513-4.098 5.585-13.038 6.332-13.038 6.332s-3.351-1.49-7.076 15.273c-3.725 16.763-4.842 27.924-2.982 29.797a10.16 10.16 0 0 0 2.64 1.649 32.342 32.342 0 0 0 10.057 3.152.9.9 0 0 0 .22.356l.266 3.247c.225 6.855.487 20.605-.9 23.654-1.865 4.099.373 6.706.373 6.706l.45-.031c.084.142.177.277.28.405l1.801-.121c-.13 7.656-.482 18.276-1.41 20.61-1.49 3.724 0 24.212 0 24.212l-2.607 36.877s-1.428 19.25-.09 21.479c-.73 4.004-2.04 11.633-1.77 13.534.374 2.607 8.94 6.332 8.94 6.332s10.057 2.252 14.899 1.49c2.53-.391 3.535-2.103 3.544-3.602 3.283.527 7.557 1.031 10.237.617 4.842-.743 4.099-6.333 1.491-5.959-2.608.374-5.59-4.868-7.805-7.476-1.126-1.315-2.063-3.666-2.702-5.68a2.08 2.08 0 0 0 1.225-.653c1.117-1.864 2.981-18.997 2.981-18.997l4.842-29.797s2.608-14.53 4.841-17.88c1.69-2.531 3.802-21.42 4.734-30.518h.108l.1-.32 1.4-4.522c.747 1.32 2.63 1.973 4.823 2.252-.234.955-.428 1.734-.54 2.18-.559 2.252 7.584 5.959 9.548 4.099.824-.78 1.252-3.603 1.351-6.693h.068l-.059-.302zm-48.938 101.58a232.88 232.88 0 0 0-.379 2.251c-.283-.9-.509-1.711-.662-2.31.37.013.716.031 1.04.058z"/>
        <path fill="#53526B" d="M105.322 292.388s1.436 6.458 3.603 8.967c2.166 2.509 5.022 7.53 7.53 7.174 2.509-.355 3.23 5.022-1.437 5.738-4.665.716-14.349-1.436-14.349-1.436s-8.25-3.603-8.606-6.099c-.356-2.495 2.152-15.425 2.152-15.425l11.107 1.08z"/>
        <path fill="#000" d="M105.322 292.388s1.436 6.458 3.603 8.967c2.166 2.509 5.022 7.53 7.53 7.174 2.509-.355 3.23 5.022-1.437 5.738-4.665.716-14.349-1.436-14.349-1.436s-8.25-3.603-8.606-6.099c-.356-2.495 2.152-15.425 2.152-15.425l11.107 1.08z" opacity=".05"/>
        <path fill="#53526B" d="M92.049 295.257s1.437 6.458 3.603 8.967c2.166 2.508 5.022 7.53 7.53 7.174 2.51-.355 3.23 5.022-1.436 5.738-4.666.716-14.35-1.432-14.35-1.432s-8.25-3.603-8.606-6.098c-.356-2.495 2.153-15.426 2.153-15.426l11.106 1.077z"/>
        <path fill="#5F5D7E" d="M124.693 196.974s-2.87 30.847-5.022 34.076c-2.153 3.23-4.662 17.218-4.662 17.218l-4.661 28.694s-1.802 16.502-2.869 18.295c-1.067 1.792-14.38 1.022-14.38 1.022l8.26-94.999 23.334-4.306z"/>
        <path fill="#000" d="M124.693 196.974s-2.87 30.847-5.022 34.076c-2.153 3.23-4.662 17.218-4.662 17.218l-4.661 28.694s-1.802 16.502-2.869 18.295c-1.067 1.792-14.38 1.022-14.38 1.022l8.26-94.999 23.334-4.306z" opacity=".05"/>
        <path fill="#5F5D7E" d="M130.43 182.27l-.936 2.976-5.067 16.084-.1.306h-.026c-.68.153-15.038 3.454-18.137 4.468a4.382 4.382 0 0 0-.49.184c-1.438.716-3.23 26.541-3.23 26.541s-1.077 24.393-1.802 26.186c-.725 1.792-3.603 38.732-5.382 37.66-1.779-1.071-14.705 0-14.705 0-1.436-1.436 0-20.803 0-20.803l2.509-35.512s-1.437-19.727 0-23.317 1.437-27.617 1.437-27.617l29.378-4.549 2.837-.45 13.715-2.158z"/>
        <path fill="#000" d="M129.494 185.246l-5.067 16.084-.122.315c-.68.153-15.038 3.454-18.137 4.468h-.31l8.021-21.236.23-.612 2.607.166 12.778.815z" opacity=".02"/>
        <path fill="#000" d="M95.994 110.533s13.273 14.349 21.524 2.508l7.89 5.382-1.436 8.251 4.662 62.414s-12.197-.36-20.804 2.509a13.35 13.35 0 0 1-13.988-3.23l1.436-54.878-3.229-16.858 3.945-6.098z" opacity=".1"/>
        <path fill="#53526B" d="M95.994 109.456s13.273 14.35 21.524 2.509l7.89 5.382-1.436 8.25 4.666 62.433s-12.196-.36-20.803 2.508a13.35 13.35 0 0 1-13.989-3.229l1.437-54.879-3.23-16.858 3.941-6.116z"/>
        <path fill="#F4F4F4" d="M108.506 156.793a.672.672 0 0 1 .37-.58.681.681 0 0 1 .691.046c.205.14.316.38.29.624a9.597 9.597 0 0 0 .965 5.14c.536.963 1.423 1.899 2.637 1.562a4.38 4.38 0 0 0 2.034-1.519.68.68 0 0 1 .944-.075.67.67 0 0 1 .096.936 5.67 5.67 0 0 1-2.709 1.95c-1.868.517-3.33-.673-4.186-2.211a10.94 10.94 0 0 1-1.132-5.873zm-.016-3.32a.933.933 0 0 0-.663 1.14 1.744 1.744 0 0 1 2.052 0 .855.855 0 0 0-.028-.567 1.097 1.097 0 0 0-1.36-.572h-.001zm2.097-2.869a3.673 3.673 0 0 0-2.052-1.315 8.914 8.914 0 0 0-3.03-.255 7.022 7.022 0 0 0-3.115.819 2.656 2.656 0 0 0-1.389 2.164 4.786 4.786 0 0 0 .638 2.49 16.884 16.884 0 0 0 3.788 4.51l.623.52a.681.681 0 0 0 .934-.112.67.67 0 0 0-.078-.93l-.592-.498a15.542 15.542 0 0 1-3.468-4.11 3.548 3.548 0 0 1-.493-1.777c.037-.472.315-.892.737-1.112a5.804 5.804 0 0 1 2.514-.625 7.467 7.467 0 0 1 2.558.204c.516.112.98.393 1.316.798a.684.684 0 0 0 .947.165.668.668 0 0 0 .165-.936h-.003zm3.925 2.87a.933.933 0 0 1 .663 1.139 1.744 1.744 0 0 0-2.052 0 .855.855 0 0 1 .028-.567 1.097 1.097 0 0 1 1.36-.572h.001zm-.989-2.099c.337-.404.8-.685 1.316-.798.835-.212 1.7-.28 2.559-.204.873.016 1.731.229 2.51.623.422.22.7.64.74 1.111a3.51 3.51 0 0 1-.494 1.778 15.542 15.542 0 0 1-3.468 4.11 11.045 11.045 0 0 1-2.897 1.973c-.367.125-.25-.145-.181-.493.191-.818.47-1.613.831-2.373a.669.669 0 0 0-.077-.668.679.679 0 0 0-1.165.132c-.74 1.684-1.028 2.803-.989 3.496-.021.51.265.985.73 1.205.417.16.88.15 1.292-.023a12.06 12.06 0 0 0 3.343-2.227 16.945 16.945 0 0 0 3.788-4.51 4.785 4.785 0 0 0 .638-2.49 2.656 2.656 0 0 0-1.391-2.165 7.039 7.039 0 0 0-3.114-.818 9.015 9.015 0 0 0-3.03.255 3.673 3.673 0 0 0-2.052 1.315.67.67 0 0 0-.058.67.678.678 0 0 0 1.17.101h-.001z"/>
        <g fill="#E82127">
            <path d="M122.486 173.356v2.257h.725v-1.504h2.635v1.504h.725v-2.252l-4.085-.005M123.134 172.627h2.784c.371-.09.663-.377.756-.748h-4.292c.095.37.386.658.757.748"/>
            <g>
                <path d="M97.967 171.884c.097.366.385.65.752.743h1.171l.059.022v2.955h.73v-2.955l.067-.022h1.17c.367-.095.654-.379.753-.743h-4.702"/>
            </g>
        </g>
        <path fill="#D39999" d="M123.616 183.702s0 9.327 2.153 13.272c2.153 3.946 14.705 1.802 14.705 1.802l-2.509-13.273-14.349-1.801z"/>
        <path fill="#FDC2CC" d="M139.11 205.225c-1.892 1.802-9.733-1.801-9.193-3.945.378-1.518 1.703-6.95 2.455-10.03l.522-2.166s4.594-1.437 6.215 0c.59.522 1.005 2.58 1.198 5.067.334 4.319.005 9.935-1.198 11.074zM121.82 115.91l-12.553 9.683s-18.65-1.076-13.989-10.043a33.436 33.436 0 0 0 3.603-12.674 26.5 26.5 0 0 0 0-4.904s17.218-15.764 15.066 2.152a40.642 40.642 0 0 0-.298 4.144c-.238 13.448 8.17 11.642 8.17 11.642z"/>
        <path fill="#000" d="M113.929 100.129a40.642 40.642 0 0 0-.298 4.143 11.755 11.755 0 0 1-6.517 1.955c-3.21 0-5.575-3.126-7.71-5.202.238-2.977-.536-3.049-.536-3.049s17.213-15.786 15.06 2.153z" opacity=".1"/>
        <circle cx="107.114" cy="93.67" r="11.836" fill="#FDC2CC"/>
        <path fill="#000" d="M98.688 104.97s-1.973.18-5.918 5.558c-3.946 5.378-12.58 6.098-12.58 6.098s-3.229-1.436-6.814 14.705c-3.585 16.142-4.661 26.902-2.869 28.694 1.793 1.793 8.967 4.306 12.552 4.306 0 0 1.077 22.595-.716 26.54-1.792 3.946.36 6.46.36 6.46l15.764-1.077s5.382-6.814 6.458-18.65c1.077-11.837 4.662-45.557 2.87-49.502-1.793-3.945-9.684-13.989-9.328-15.065.356-1.077.22-8.067.22-8.067z" opacity=".1"/>
        <path fill="#D39999" d="M98.656 104.862s-2.653-.072-6.598 5.31-12.552 6.099-12.552 6.099-3.23-1.437-6.814 14.704c-3.585 16.142-4.662 26.902-2.86 28.68 1.801 1.78 8.967 4.306 12.552 4.306 0 0 1.076 22.596-.716 26.541-1.793 3.946.36 6.459.36 6.459l15.763-1.076s5.382-6.815 6.459-18.65c1.076-11.837 4.661-45.557 2.869-49.502-1.793-3.946-9.683-13.99-9.328-15.066.356-1.076.865-7.805.865-7.805z"/>
        <path fill="#FDC2CC" d="M89.198 151.063s17.948-20.583 15.426-6.459c-1.802 10.044-8.607 15.426-11.836 16.502-3.23 1.076-3.59-10.043-3.59-10.043z"/>
        <path fill="#000" d="M140.307 194.15c-1.716-1.31-4.954-3.35-7.935-2.9l.522-2.166s4.594-1.437 6.215 0c.595.522 1.005 2.58 1.198 5.067zM113.748 107.123s9.148 5.918 10.224 8.431c1.076 2.514 5.022 4.306 5.022 4.306s7.53 3.945 7.53 17.934l3.946 19.727-17.944 25.104s-2.152-25.109-3.229-31.207c-1.076-6.098-2.509-17.565-2.509-17.565s-5.382-6.814-4.661-8.606c.72-1.793 1.621-18.124 1.621-18.124z" opacity=".1"/>
        <path fill="#D39999" d="M113.717 107.015s9.539 5.31 10.61 7.819c1.073 2.508 5.027 4.287 5.027 4.287s7.53 3.946 7.53 17.935l3.946 19.726.716 37.661s-6.459-6.098-11.12-3.229c-4.661 2.869-7.53-9.327-7.53-9.327s-2.153-25.11-3.23-31.207c-1.076-6.098-2.508-17.565-2.508-17.565s-5.382-6.787-4.662-8.589c.72-1.801 1.22-17.51 1.22-17.51z"/>
        <path fill="#000" d="M117.505 79.276a11.71 11.71 0 0 0-2.09-2.063c-1.234-1.026-2.599-2.098-4.13-2.008a6.18 6.18 0 0 0-2.441.873 1186.49 1186.49 0 0 0-11.408 6.09c-1.401.756-2.847 1.558-3.824 2.918-.977 1.36-1.374 3.108-1.649 4.82a11.814 11.814 0 0 0-.162 3.521 4.418 4.418 0 0 0 1.559 2.96c1.022.742 2.423.747 3.278 1.72.496.563.712 1.35 1.063 2.035.352.685.96 1.352 1.653 1.23.694-.122 1.113-.856 1.212-1.599.044-.753 0-1.509-.13-2.252-.136-1.351.035-2.783.819-3.788.54-.684 1.315-1.098 1.837-1.801 1.252-1.694.68-4.504 2.054-6.094a3.256 3.256 0 0 1 3.153-.9c1.112.234 2.13.837 3.152 1.35a23.42 23.42 0 0 0 4.32 1.667c1.252.342 2.702 1.162 3.13-.504.653-2.446.022-6.189-1.396-8.175z" opacity=".1"/>
        <path fill="#865A61" d="M117.144 78.916a11.71 11.71 0 0 0-2.09-2.063c-1.234-1.027-2.598-2.099-4.13-2.009a6.18 6.18 0 0 0-2.44.874c-3.81 2.009-6.977.108-11.409 6.09-.946 1.278-2.846 1.558-3.823 2.918-.978 1.36-1.374 3.107-1.649 4.819a11.814 11.814 0 0 0-.162 3.522 4.418 4.418 0 0 0 1.558 2.959c1.023.743 2.423.748 3.28 1.72.495.563.71 1.351 1.062 2.036.351.685.96 1.351 1.653 1.23.693-.122 1.112-.856 1.211-1.6.045-.752 0-1.508-.13-2.251-.135-1.351.036-2.784.82-3.788.54-.684 1.315-1.099 1.837-1.801 1.252-1.694.68-4.504 2.054-6.094a3.256 3.256 0 0 1 3.152-.9c1.113.233 2.13.837 3.153 1.35a23.42 23.42 0 0 0 4.32 1.667c1.251.342 2.702 1.162 3.13-.505.657-2.445.044-6.188-1.397-8.174z"/>
        <path fill="#D39999" d="M84.874 132.052s-.36 13.273-2.152 15.065c-1.793 1.793 1.076 3.946 1.076 3.946l7.175-1.802s-1.802 11.836 5.737 10.404c0 0-5.021 4.661-10.043 5.382-5.022.72-4.675-1.072-4.675-1.072l-7.53-8.967 10.412-22.956z"/>
        <path fill="#000" d="M84.816 133.664s-4.783 12.197-1.194 17.218l7.891-1.801s-7.175 2.153-6.098-2.153c1.076-4.306-.6-13.264-.6-13.264zM82.186 163.795s10.403.716 13.272-1.437a27.473 27.473 0 0 1-12.948 5.405l-.324-3.968zM127.03 140.839s5.382 16.502 5.022 19.01c-.36 2.51-1.077 30.131-1.077 30.131l-1.076-.36.36-30.13-3.229-18.651z" opacity=".1"/>
        <path stroke="#0DA176" d="M353.626 187.503s7.882 15.47 1.46 23.933c-6.423 8.463.585 31.527.585 31.527"/>
        <path fill="#0DA176" d="M355.96 182.688c0 2.982-2.19 5.405-2.19 5.405s-2.189-2.419-2.189-5.405 2.19-5.404 2.19-5.404 2.188 2.423 2.188 5.404z"/>
        <path stroke="#0DA176" d="M357.711 187.503s-7.882 15.47-1.46 23.933c6.423 8.463-.585 31.527-.585 31.527"/>
        <path fill="#0DA176" d="M355.374 182.688c0 2.982 2.189 5.405 2.189 5.405s2.188-2.419 2.188-5.405-2.188-5.404-2.188-5.404-2.19 2.423-2.19 5.404z"/>
        <path fill="#000" d="M355.374 182.688c0 2.982 2.189 5.405 2.189 5.405s2.188-2.419 2.188-5.405-2.188-5.404-2.188-5.404-2.19 2.423-2.19 5.404z" opacity=".1"/>
        <path stroke="#0DA176" d="M360.922 187.503s7.882 15.47 1.46 23.933c-6.423 8.463.585 31.527.585 31.527"/>
        <path fill="#0DA176" d="M363.255 182.688c0 2.982-2.189 5.405-2.189 5.405s-2.188-2.419-2.188-5.405 2.188-5.404 2.188-5.404 2.19 2.423 2.19 5.404zM362.03 195.083c-2.067 2.148-5.323 2.373-5.323 2.373s.099-3.26 2.166-5.404c2.067-2.144 5.324-2.374 5.324-2.374s-.1 3.257-2.167 5.405zM362.233 205.757c-2.067 2.148-5.324 2.373-5.324 2.373s.1-3.26 2.167-5.404c2.067-2.144 5.305-2.378 5.305-2.378s-.08 3.256-2.148 5.409zM351.023 211.625c1.955 2.252 1.887 5.513 1.887 5.513s-3.238-.392-5.193-2.644c-1.954-2.252-1.887-5.512-1.887-5.512s3.238.391 5.193 2.643zM352.838 188.868c2.486 1.648 3.292 4.81 3.292 4.81s-3.229.486-5.71-1.144c-2.482-1.63-3.293-4.81-3.293-4.81s3.225-.505 5.711 1.144z"/>
        <path fill="#000" d="M352.838 188.868c2.486 1.648 3.292 4.81 3.292 4.81s-3.229.486-5.71-1.144c-2.482-1.63-3.293-4.81-3.293-4.81s3.225-.505 5.711 1.144z" opacity=".1"/>
        <path stroke="#0DA176" d="M365.007 187.503s-7.881 15.47-1.459 23.933c6.423 8.463-.585 31.527-.585 31.527"/>
        <path fill="#0DA176" d="M362.674 182.688c0 2.982 2.19 5.405 2.19 5.405s2.188-2.419 2.188-5.405-2.189-5.404-2.189-5.404-2.189 2.423-2.189 5.404z"/>
        <path fill="#000" d="M362.674 182.688c0 2.982 2.19 5.405 2.19 5.405s2.188-2.419 2.188-5.405-2.189-5.404-2.189-5.404-2.189 2.423-2.189 5.404z" opacity=".1"/>
        <path fill="#0DA176" d="M363.305 195.313c-2.094 2.125-2.252 5.404-2.252 5.404s3.256-.185 5.35-2.31c2.095-2.126 2.252-5.405 2.252-5.405s-3.26.185-5.35 2.31z"/>
        <path fill="#000" d="M363.305 195.313c-2.094 2.125-2.252 5.404-2.252 5.404s3.256-.185 5.35-2.31c2.095-2.126 2.252-5.405 2.252-5.405s-3.26.185-5.35 2.31z" opacity=".1"/>
        <path fill="#0DA176" d="M367.408 210.099c-2.094 2.125-2.252 5.404-2.252 5.404s3.256-.185 5.35-2.31c2.095-2.126 2.252-5.405 2.252-5.405s-3.256.176-5.35 2.31z"/>
        <path stroke="#0DA176" d="M361.368 206.842s4.743-7.476 11.404-7.656M357.675 202.325s-4.742-7.476-11.404-7.657M357.058 212.999s4.743-7.476 11.404-7.656"/>
        <circle cx="372.551" cy="199.145" r="1.23" fill="#0DA176"/>
        <circle cx="346.384" cy="194.732" r="1.23" fill="#0DA176"/>
        <path stroke="#0DA176" d="M360.549 215.463s-4.743-7.477-11.404-7.657"/>
        <circle cx="349.257" cy="207.869" r="1.23" fill="#0DA176"/>
        <circle cx="368.552" cy="205.406" r="1.23" fill="#0DA176"/>
        <path fill="#A8A8A8" d="M386.77 233.969s-11.43-2.288-14.48-5.337c-3.05-3.05-16.768-8.368-18.29-4.572-1.522 3.797-20.578 16.782-7.634 19.065 12.944 2.283 30.486 3.05 34.297 1.522 3.81-1.526 6.107-10.678 6.107-10.678z"/>
        <path fill="#000" d="M346.366 241.71c12.958 2.289 30.486 3.05 34.297 1.523 2.9-1.162 4.918-6.756 5.715-9.332l.383.081s-2.288 9.148-6.098 10.67c-3.81 1.522-21.34.761-34.297-1.522-3.738-.663-4.81-2.212-4.405-4.171.33 1.275 1.63 2.26 4.405 2.752z" opacity=".2"/>
        <path fill="#0DA176" d="M51.488 272.098s3.774 4.954-1.743 12.386c-5.518 7.43-10.066 13.74-8.224 18.393 0 0 8.323-13.84 15.096-14.034 6.774-.193 2.32-8.422-5.13-16.745z"/>
        <path fill="#000" d="M51.488 272.098c.329.477.588 1 .77 1.55 6.611 7.764 10.129 15.01 3.778 15.195-5.918.171-13.016 10.75-14.718 13.426.056.206.124.41.203.608 0 0 8.323-13.84 15.096-14.034 6.774-.193 2.32-8.422-5.13-16.745z" opacity=".1"/>
        <path fill="#FFD037" d="M58.505 278.385c0 1.739-.194 3.153-.45 3.153-.258 0-.451-1.41-.451-3.153s.243-.9.482-.9c.238 0 .419-.834.419.9z"/>
        <path fill="#FFD037" d="M60.91 280.462c-1.527.833-2.856 1.35-2.968 1.121-.113-.23 1.026-1.058 2.553-1.887s.924-.225 1.04 0c.118.225.901-.068-.625.766z"/>
        <path fill="#0DA176" d="M31.55 272.098s-3.775 4.954 1.742 12.386c5.517 7.43 10.066 13.74 8.224 18.389 0 0-8.323-13.84-15.097-14.034-6.773-.194-2.32-8.418 5.13-16.74z"/>
        <path fill="#000" d="M31.55 272.098a6.112 6.112 0 0 0-.77 1.55c-6.613 7.764-10.13 15.01-3.78 15.195 5.918.171 13.016 10.75 14.719 13.426-.056.206-.124.41-.203.608 0 0-8.323-13.84-15.097-14.034-6.773-.193-2.32-8.422 5.13-16.745z" opacity=".1"/>
        <path fill="#FFD037" d="M24.532 278.385c0 1.739.194 3.153.45 3.153.257 0 .451-1.41.451-3.153s-.243-.9-.482-.9-.419-.834-.419.9z"/>
        <path fill="#FFD037" d="M22.127 280.462c1.527.833 2.856 1.35 2.968 1.121.113-.23-1.027-1.058-2.553-1.887-1.527-.829-.924-.225-1.04 0-.118.225-.902-.068.625.766z"/>
        <path fill="#A8A8A8" d="M25.735 302.224s10.552-.324 13.732-2.59c3.18-2.265 16.214-4.954 17.02-1.35.806 3.602 15.858 18.064 3.945 18.159-11.912.094-27.68-1.856-30.855-3.788-3.176-1.932-3.842-10.43-3.842-10.43z"/>
        <path fill="#000" d="M60.648 315.195c-11.912.095-27.68-1.855-30.855-3.788-2.419-1.472-3.383-6.755-3.702-9.192h-.352s.667 8.512 3.842 10.444c3.175 1.933 18.943 3.887 30.856 3.788 3.44-.027 4.625-1.252 4.562-3.062-.482 1.108-1.792 1.788-4.35 1.81z" opacity=".2"/>
    </g>
</svg>
