<svg xmlns="http://www.w3.org/2000/svg" width="448" height="354" viewBox="0 0 448 354">
    <defs>
        <linearGradient id="a" x1="50.194%" x2="50.194%" y1="100%" y2="-1.5%">
            <stop offset="0%" stop-color="gray" stop-opacity=".25"/>
            <stop offset="54%" stop-color="gray" stop-opacity=".12"/>
            <stop offset="100%" stop-color="gray" stop-opacity=".1"/>
        </linearGradient>
        <linearGradient id="b" x1="50.194%" x2="50.194%" y1="100%" y2="-2%">
            <stop offset="0%" stop-color="gray" stop-opacity=".25"/>
            <stop offset="54%" stop-color="gray" stop-opacity=".12"/>
            <stop offset="100%" stop-color="gray" stop-opacity=".1"/>
        </linearGradient>
        <linearGradient id="c" x1="50.001%" x2="50.001%" y1="99.991%" y2="-.002%">
            <stop offset="0%" stop-color="gray" stop-opacity=".25"/>
            <stop offset="54%" stop-color="gray" stop-opacity=".12"/>
            <stop offset="100%" stop-color="gray" stop-opacity=".1"/>
        </linearGradient>
        <linearGradient id="d" x1="49.979%" x2="49.979%" y1="100.04%" y2=".056%">
            <stop offset="0%" stop-color="gray" stop-opacity=".25"/>
            <stop offset="54%" stop-color="gray" stop-opacity=".12"/>
            <stop offset="100%" stop-color="gray" stop-opacity=".1"/>
        </linearGradient>
    </defs>
    <g fill="none" fill-rule="evenodd">
        <path fill="#0DA176" d="M70.988 109.285c-.444-15.12 1.998-32.907 13.64-40.047 5.774-3.544 12.666-3.596 18.899-5.918 13.984-5.194 22.694-20.6 31.125-34.385C143.082 15.151 154.17.86 168.842.04c20.212-1.13 33.96 23.13 52.592 32.176 35.32 17.136 76.769-23.85 112.58-8.1 5.195 2.286 10.165 5.906 13.086 11.336 2.877 5.35 3.524 11.958 6.329 17.36 8.862 17.069 32.61 13.233 45.237 26.838 4.343 4.679 6.956 11.032 9.473 17.225l8.766 21.575c1.642 4.048 3.316 8.219 3.512 12.678.344 7.827-3.916 15.303-3.16 23.09 1.174 12.162 13.48 18.818 17.38 30.21 1.838 5.37 1.642 11.343 1.199 17.092a226.252 226.252 0 0 1-5.594 35.56c-2.845 11.819-7.108 24.053-15.85 31.125-6.161 4.982-13.805 6.792-21.228 8.287-42.436 8.61-85.584 11.499-128.635 13.74-37.557 1.958-75.99 3.316-111.973-9.238-16.142-5.617-32.32-14.743-41.641-30.849-6.393-11.04-7.592-23.058-10.472-35.492-2.226-9.613-8.79-17.036-12.534-26.042a224.726 224.726 0 0 1-16.921-79.326z" opacity=".1"/>
        <path fill="#0DA176" d="M64.427 224.27a132.65 132.65 0 0 1 46.1 4.444c5.778 1.598 11.587 3.635 17.58 3.464 7.356-.212 14.152-3.688 20.933-6.549 10.692-4.515 22.262-7.683 33.821-6.632 21.272 1.93 39.987 17.771 61.335 17.04 18.295-.623 34.717-13.453 53.016-13.073 12.418.256 23.93 6.6 36.243 8.227 15.806 2.085 31.565-3.7 47.47-4.395a75.279 75.279 0 0 1 39.6 9.293c8.75 4.847 17.388 14.3 13.944 23.69-1.05 2.864-3.176 5.413-3.308 8.462-.296 6.792 8.458 9.669 12.825 14.871 5.374 6.393 3.197 16.929-3.12 22.399-6.317 5.47-15.45 6.604-23.697 5.234s-15.938-4.915-23.746-7.895a181.683 181.683 0 0 0-46.18-10.988c-10.931-1.123-22.046-1.246-32.842.8-8.083 1.526-15.902 4.247-23.973 5.74-40.379 7.46-80.285-16.113-121.331-15.953-11.535.048-22.962 1.974-34.417 3.34-35.508 4.231-71.411 3.053-107.155 1.87-3.616-.12-7.528-.348-10.308-2.665-5.195-4.34-3.197-12.75 0-18.71 5.242-9.722 12.386-18.1 17.732-27.686 5.801-10.34 18.387-13.444 29.478-14.327z"/>
        <path fill="url(#a)" d="M.41.895c.18-.24.266-.52.245-.8-.109.262-.19.529-.245.8z" opacity=".05" transform="translate(132.65 73.517)"/>
        <path fill="url(#b)" d="M.41.887c.18-.24.266-.52.245-.8C.546.35.465.617.41.888z" opacity=".05" transform="translate(132.65 73.117)"/>
        <path fill="url(#c)" d="M312.067 262.523c-.923.464-8.514-.643-14.93-1.694 3.455-.799 5.992-1.838 7.191-3.196 6.892-7.927-23.477-3.336-33.078-1.718l-7.728-1.546-8.654-1.998c-5.97-8.39-15.019-25.403-19.398-33.838 1.454-.328 2.341-.483 2.341-.483-.068-.264-.14-.52-.211-.78l.211-.04c-8.162-31.012-22.035-26.525-22.035-26.525-1.658 0-4.095.715-6.98 1.89a66.057 66.057 0 0 0-3.596-9.614l-.335-.727c.97.18 1.538.292 1.538.292s-.08-.216-.236-.612l.144.028.34.064h.071l.14.028.356.068s-11.188-30.405-35.02-48.697a43.091 43.091 0 0 0-21.8-8.818 35.905 35.905 0 0 0-1.235-.104l-.363-.036c-.308 0-.611-.032-.911-.04h-.64c-5.405-.08-9.349 1.259-13.904 3.596-.83.4-1.678.851-2.557 1.327a18.503 18.503 0 0 1-2.025-.36 15.05 15.05 0 0 1-1.071-.3c11.21-5.09 16.376-18.144 11.683-29.526a15.582 15.582 0 0 1 7.072-6.489c.373-.127.708-.348.97-.643a2.13 2.13 0 0 0 .276-1.219v-.036-.231V90.37a7.871 7.871 0 0 0-6.752-7.907 12.49 12.49 0 0 1-3.273-.947c-2.529-1.147-4.598-3.716-4.734-6.393.005-.238.026-.476.064-.711l-.06.092c0-.168.036-.332.06-.5-.568.967-2.238 1.319-3.225.564-.883-.675-1.242-1.786-1.278-2.921.011-.305.043-.61.096-.91.187-.841.29-1.698.307-2.558.04-.911-.131-1.738-.867-2.218-1.558 1.918-4.083 2.833-6.548 3.029-2.465.196-4.93-.24-7.38-.563-6.05-.8-12.85-.704-17.412 3.352-2.969 2.637-4.463 6.513-5.854 10.232-1.965 5.254-3.923 10.956-3.863 16.434a18.2 18.2 0 0 0 1.426 7.463c1.91 4.395 5.786 7.871 6.968 12.522.272 1.071.4 2.202.931 3.173 1.075 1.965 3.596 2.752 5.814 2.449a22.974 22.974 0 0 0 2.725 2.317c-.02.26-.044.516-.068.771a49.228 49.228 0 0 1-.664 4.715c-.18-.26-.431-.116-1.166-.116h-.32l-.296.036-.323.056h-.068l-.376.08-.4.1h-.055l-.46.124-.5.144h-.023c-1.423.427-3.157 1.05-4.982 1.754a22.375 22.375 0 0 0-5.994-12.015 12.21 12.21 0 0 0 1.539-2.84c.615-1.663-.02-2.798-1.091-3.784-.835-.915-2.098-1.667-3.217-2.498a47.263 47.263 0 0 0-16.713-7.89c-1.954-.484-3.971-.844-5.969-.624-1.898.208-3.704.927-5.434 1.734a51.985 51.985 0 0 0-7.847 4.535c-1.666 1.167-3.3 2.453-5.226 3.12-2.885 1-6.221.536-8.882 2.038-3.724 2.106-4.559 7.152-3.996 11.395.564 4.243 2.054 8.47 1.387 12.698-1.003 6.325-6.485 10.816-11.527 14.783-1.598 1.243-3.288 2.705-3.532 4.707-.152 1.25.308 2.485.691 3.688a31.333 31.333 0 0 1-.38 20.229 28.216 28.216 0 0 1-13.185 15.183c-2.317 1.198-5.126 2.445-5.67 5.002-.363 1.722.448 3.236 1.75 4.451a12.178 12.178 0 0 0 4.576 2.869 41.19 41.19 0 0 0 7.835 2.045c2.35.372 4.866.516 7.012-.515 2.497-1.199 4.02-3.744 5.338-6.181 3.372-6.225 7.248-10.364 10.452-15.379.424 1.83.763 3.105.8 3.177-2.658 2.397-3.9 6.329-2.446 12.662 5.714 24.891 13.057 31.012 13.057 31.012a8.654 8.654 0 0 1 1.515-3.731l.323.4c3.484 4.23 7.488 8.637 10.816 11.087a56.848 56.848 0 0 1 10.24 9.729 2.046 2.046 0 0 1-.699 3.124c-5.23 2.55-16.677 9.094-3.032 12.019 13.644 2.924 24.772-4.795 28.683-8.043a2.05 2.05 0 0 0 .3-2.865l-12.426-15.53-1.53-1.89c.823.583 1.658 1.198 2.52 1.826l-2.217-3.544 7.02.73c.204.428.4.848.616 1.247 1.398 2.873 2.88 5.119 4.427 6.365a15.079 15.079 0 0 0 1.997 8.259c5.594 10.156 36.447 10.092 45.085 9.873.805.127 1.616.206 2.43.235a20.337 20.337 0 0 0 4.027-.263l.28-.048c1.681-.246 3.277-.9 4.647-1.906l12.278-2.457.275.068c6.929 1.426 20.114 3.711 27.685 2.257 7.256-1.394 11.455 1.027 13.389 2.697-.208.746-.455 1.48-.74 2.202h.109c-.484 1.066-2.27 6.228 4.994 12.038 4.747 3.796 37.074 4.794 48.154 2.45 7.99-1.687-3.36-6.53-4.899-6.53-3.48 0-14.284-7.323-15.406-8.09-.184-.24-.608-.8-1.2-1.599 7.512 1.003 20.737 2.59 23.339 1.723 3.671-1.223 19.977.799 19.977.799s22.035 4.898 32.647 1.634c10.612-3.265-.391-10.193-2.022-9.378z"/>
        <path fill="url(#d)" d="M10.196 12.993c-1.286.552-4.347 3.432-8.314 7.572C.619 12.262-.196 4.775.332 1.658.377 1.193.537.747.799.36 3.196.196 8.023 6.153 11.887 11.547a29.77 29.77 0 0 0-1.69 1.446z" opacity=".05" transform="translate(157.822 163.415)"/>
        <path fill="#EF91A3" d="M231.363 212.768s20.776 41.153 25.97 42.751c5.194 1.598 8.79-.799 8.79-.799s43.152-7.99 35.16 1.199c-7.99 9.19-77.911 3.596-77.911 3.596l-17.58-39.556 25.57-7.191z"/>
        <path fill="#000" d="M171.83 213.567s33.562-22.375 42.752-22.375c0 0 13.584-4.395 21.575 25.97 0 0-27.569 4.795-27.17 17.98l-5.193-11.187-22.375 24.772-27.17-18.38 17.58-16.78z" opacity=".1"/>
        <path fill="#5D526E" d="M171.83 212.768s33.562-22.375 42.752-22.375c0 0 13.584-4.395 21.575 25.97 0 0-27.569 4.795-27.17 17.98l-5.193-11.187-22.375 24.772-27.17-18.38 17.58-16.78z"/>
        <path fill="#EF91A3" d="M208.588 201.58c-1.997 9.59-12.386 11.188-12.386 11.188l-14.783-9.19s-2.086-13.764-3.848-22.155c-.675-3.224-1.302-5.658-1.746-6.213-1.598-1.998 23.574-1.598 23.574-1.598a99.004 99.004 0 0 1 4.818 9.217c2.741 5.99 5.438 13.621 4.371 18.751zM144.66 129.262l-8.39 39.955-20.377-5.194s-18.779-14.784-13.185-23.973c1.83-3.005 2.76-7.376 3.196-11.895.875-9.313-.4-19.27-.4-19.27s22.376-5.993 17.98 10.388c-1.805 6.729 1.443 9.613 5.898 10.68 6.397 1.522 15.279-.691 15.279-.691z"/>
        <path fill="#000" d="M129.382 129.945a22.239 22.239 0 0 1-10.293 2.513c-4.934 0-9.685-3.088-13.384-5.793a91.269 91.269 0 0 0-.2-17.78s22.375-5.993 17.98 10.388c-1.806 6.72 1.442 9.59 5.897 10.672z" opacity=".1"/>
        <circle cx="119.089" cy="109.277" r="22.375" fill="#EF91A3"/>
        <path fill="#000" d="M117.415 155.952l6.07 8.47 3.452-12.518a62.282 62.282 0 0 0 2.093-15.342c.03-2.198.744-4.33 2.046-6.101 6.225-3.397 10.848-5.195 18.695-4.395a42.192 42.192 0 0 1 21.332 8.642c23.321 17.92 34.289 47.694 34.289 47.694s-31.964-6.393-30.366.799c0 0-13.984-22.375-17.18-18.779-3.197 3.596 6.792 51.142 6.792 51.142l-65.526 4.795-17.18-45.549.799-33.961s16.98-7.791 20.576-7.791c1.259 0 1.067-.44 1.598 1.598 2.05 7.839 7.788 14.703 12.51 21.296z" opacity=".1"/>
        <path fill="#000" d="M204.217 182.821c-5.557-1.002-21.3-3.564-26.646-1.406-.675-3.224-1.302-5.658-1.746-6.213-1.598-1.998 23.574-1.598 23.574-1.598a99.004 99.004 0 0 1 4.818 9.217z" opacity=".1"/>
        <path fill="#DFECFB" d="M118.214 155.552l6.07 8.47 3.452-12.517a62.282 62.282 0 0 0 2.093-15.343c.03-2.197.745-4.33 2.046-6.101 6.225-3.396 10.848-5.194 18.695-4.395a42.192 42.192 0 0 1 21.332 8.642c23.321 17.92 34.289 47.694 34.289 47.694s-31.964-6.392-30.366.8c0 0-13.984-22.375-17.18-18.78-3.197 3.597 6.792 51.143 6.792 51.143l-65.526 4.794-17.18-45.548.799-33.962s16.98-7.79 20.576-7.79c1.259 0 1.067-.44 1.599 1.597 2.05 7.84 7.787 14.704 12.51 21.296z"/>
        <path fill="#000" d="M103.555 125.087c-2.245.4-4.859-.356-5.953-2.358-.52-.95-.648-2.057-.915-3.104-1.159-4.551-4.955-7.951-6.825-12.258-3.148-7.26-.4-15.583 2.398-22.998 1.362-3.64 2.825-7.436 5.73-10.017 4.466-3.972 11.123-4.063 17.048-3.284 2.397.315 4.795.743 7.228.551 2.433-.192 4.886-1.087 6.393-2.965 1.286.835.799 2.765.547 4.276-.252 1.51-.044 3.236 1.159 4.155 1.202.919 3.448.16 3.348-1.347-1.083 3.197 1.306 6.737 4.395 8.135 1.018.453 2.094.765 3.196.927a7.707 7.707 0 0 1 6.609 7.74v.035c.033.418-.06.835-.268 1.199-.257.29-.584.507-.95.631a15.239 15.239 0 0 0-7.193 6.877c-.827 1.618-1.45 3.492-2.976 4.478-1.878 1.2-4.331.608-6.56.8a9.31 9.31 0 0 0-8.036 6.6c-.52 1.85-.447 3.868-1.598 5.51a3.144 3.144 0 0 1-2.185 1.378c-1.735.188-2.53-1.366-3.772-2.17-2.92-1.885-4.795.604-5.71 2.953-1.019 2.546-1.746 3.636-5.11 4.256z" opacity=".1"/>
        <path fill="#572142" d="M103.555 124.687c-2.245.4-4.859-.355-5.953-2.357-.52-.951-.648-2.058-.915-3.105-1.159-4.55-4.955-7.95-6.825-12.258-3.148-7.26-.4-15.582 2.398-22.998 1.362-3.64 2.825-7.435 5.73-10.017 4.466-3.971 11.123-4.063 17.048-3.284 2.397.316 4.795.743 7.228.552 2.433-.192 4.886-1.087 6.393-2.965 1.286.835.799 2.765.547 4.275-.252 1.51-.044 3.236 1.159 4.155 1.202.92 3.448.16 3.348-1.346-1.083 3.196 1.306 6.736 4.395 8.135 1.018.453 2.094.765 3.196.927a7.707 7.707 0 0 1 6.609 7.739v.036c.033.417-.06.835-.268 1.198-.257.29-.584.507-.95.632a15.239 15.239 0 0 0-7.193 6.876c-.827 1.618-1.45 3.492-2.976 4.479-1.878 1.199-4.331.607-6.56.799a9.31 9.31 0 0 0-8.036 6.6c-.52 1.85-.447 3.868-1.598 5.51a3.144 3.144 0 0 1-2.185 1.379c-1.735.188-2.53-1.367-3.772-2.17-2.92-1.886-4.795.604-5.71 2.953-1.019 2.545-1.746 3.636-5.11 4.255z"/>
        <g fill="#000" opacity=".05">
            <path d="M167.107 133.917c21.576 16.565 32.571 43.275 34.102 47.19 2.976.488 4.982.887 4.982.887s-10.968-29.77-34.29-47.682a42.192 42.192 0 0 0-21.331-8.646 35.716 35.716 0 0 0-3.089-.184 42.412 42.412 0 0 1 19.626 8.435zM100.91 133.849c2.05 7.847 7.783 14.711 12.51 21.304l6.069 8.47 1.255-4.539-2.526-3.524c-4.726-6.592-10.46-13.457-12.51-21.304-.53-2.037-.34-1.598-1.598-1.598a13.269 13.269 0 0 0-3.316.743l.116.448zM173.7 179.517c1.298 1.95 2.125 3.276 2.125 3.276-.699-3.136 4.995-3.687 11.631-3.316-5.206-.551-10.612-.787-13.756.04zM158.177 165.305c-1.89-1.778-3.484-2.637-4.327-1.686-3.196 3.596 6.792 51.142 6.792 51.142l-60.987 4.463.276.731 65.526-4.794s-8.714-41.401-7.28-49.856z"/>
        </g>
        <path fill="#EF91A3" d="M97.63 260.422c-3.824 3.164-14.68 10.748-28.085 7.875-13.404-2.873-2.153-9.27 2.97-11.767a1.998 1.998 0 0 0 .682-3.06 55.661 55.661 0 0 0-10.044-9.538c-3.257-2.397-7.192-6.712-10.588-10.855a194.816 194.816 0 0 1-4.795-6.066 1.998 1.998 0 0 1 2.13-3.144l26.194 7.112c.41.111.774.35 1.039.683l8.61 10.76L97.91 257.63c.687.85.562 2.095-.28 2.793z"/>
        <path fill="#000" d="M85.755 242.41c-21.86-15.942-30.11-13.093-33.19-9.345A194.815 194.815 0 0 1 47.77 227a1.998 1.998 0 0 1 2.13-3.145l26.194 7.112c.41.111.774.35 1.039.683l8.622 10.76z" opacity=".1"/>
        <path fill="#5D526E" d="M67.548 193.19s-35.16-11.587-29.567 12.785c5.594 24.373 12.786 30.366 12.786 30.366s1.997-19.178 35.959 5.993L74.74 223.156l13.984-17.58-21.176-12.386z"/>
        <path fill="#000" d="M59.157 171.215s-3.196 16.78 8.39 37.158c9.19 16.153-1.717 23.517-6.628 25.878a3.464 3.464 0 0 1-3.935-.659c-3.237-3.196-9.442-11.323-5.818-24.02l2.397-6.394-13.185-9.589s-3.568-13.229-1.997-16.205c1.57-2.977 14.383-10.964 14.383-10.964l6.393 4.795z" opacity=".1"/>
        <path fill="#EF91A3" d="M59.157 170.415s-3.196 16.781 8.39 37.158c9.19 16.154-1.717 23.518-6.628 25.88a3.464 3.464 0 0 1-3.935-.66c-3.237-3.196-9.442-11.323-5.818-24.02l2.397-6.394-13.185-9.589s-3.568-13.229-1.997-16.206c1.57-2.976 14.383-10.963 14.383-10.963l6.393 4.794z"/>
        <path fill="#DFECFB" d="M88.324 138.452S59.557 154.833 47.57 165.62c-11.986 10.788-9.589 14.384-9.589 14.384s11.587-21.576 21.576-2.797c0 0 27.968-20.377 35.56-11.587 7.59 8.79-6.793-27.17-6.793-27.17z"/>
        <path fill="#5D526E" d="M77.536 232.737l23.973-4.795-2.797 12.386-17.372-1.81z"/>
        <path fill="#FFC1CD" d="M119.09 180.005l-.8 8.79L89.523 184l-8.79-5.594-13.185-4.794a22.946 22.946 0 0 0 .699-13.361 20.281 20.281 0 0 0-2.298-5.418c-5.593-9.19 23.574-5.194 23.574-5.194a38.572 38.572 0 0 0-.44 6.26c.06 6.677 1.95 16.087 12.426 14.516l8.79 5.195 8.79 4.395z"/>
        <path fill="#FFC1CD" d="M90.721 167.619s14.784-6.393 21.976 6.792c7.192 13.185 10.388 12.386 10.388 12.386l-14.384-9.19-17.98-9.988z"/>
        <path fill="#5F5470" d="M103.107 234.343s-11.187 9.19-4.794 20.777c6.393 11.587 46.348 9.589 46.348 9.589s-25.364-9.53-19.075-41.525c0-.004-18.083 5.166-22.479 11.16zM156.247 247.928l-3.995 15.183 13.984-2.797s-5.993-12.786-5.194-16.382c.8-3.596-4.795 3.996-4.795 3.996z"/>
        <path fill="#FFC1CD" d="M167.435 229.549s36.359 3.596 46.347 9.19l7.592 2.397s2.797-.8 8.79 4.395l31.165 7.191 23.973 4.795s21.975 3.996 23.573 3.196c1.598-.799 12.386 5.994 1.998 9.19-10.389 3.196-31.964-1.598-31.964-1.598s-15.982-1.998-19.578-.8c-3.596 1.2-27.968-2.397-27.968-2.397l-23.973 1.599s-3.996-5.994-14.384-3.996c-7.412 1.427-20.321-.799-27.105-2.21a6.744 6.744 0 0 1-5.274-5.381l-2.398-12.786 9.206-12.785z"/>
        <path fill="#000" d="M167.435 229.549s36.359 3.596 46.347 9.19l7.592 2.397s2.797-.8 8.79 4.395l31.165 7.191 23.973 4.795s21.975 3.996 23.573 3.196c1.598-.799 12.386 5.994 1.998 9.19-10.389 3.196-31.964-1.598-31.964-1.598s-15.982-1.998-19.578-.8c-3.596 1.2-27.968-2.397-27.968-2.397l-23.973 1.599s-3.996-5.994-14.384-3.996c-7.412 1.427-20.321-.799-27.105-2.21a6.744 6.744 0 0 1-5.274-5.381l-2.398-12.786 9.206-12.785z" opacity=".05"/>
        <path fill="#000" d="M89.083 155.892a22.015 22.015 0 0 1-20.836 4.35 20.281 20.281 0 0 0-2.298-5.409c-5.593-9.19 23.574-5.194 23.574-5.194a38.572 38.572 0 0 0-.44 6.253z" opacity=".1"/>
        <circle cx="74.74" cy="138.444" r="21.975" fill="#FFC1CD"/>
        <path fill="#000" d="M65.55 170.815s16.781 9.19 17.58 15.183c.8 5.993-2.397 13.185-2.397 13.185s7.591 45.548 17.18 48.745l25.571-24.772 21.576-9.59s-12.785-.798-13.984-12.785c-1.199-11.986 1.598-15.982-12.786-21.575-14.383-5.594-22.175-12.187-22.175-12.187l-3.715.94 19.098 10.048s10.788 6.393-17.18 1.598l-26.37-9.59-2.398.8z" opacity=".1"/>
        <path fill="#FF808C" d="M65.15 170.016s16.781 9.19 17.58 15.183c.8 5.993-2.397 13.185-2.397 13.185s7.592 45.548 17.18 48.745l25.572-24.772 21.576-9.59s-12.786-.799-13.985-12.785c-1.198-11.986 1.599-15.982-12.785-21.576-14.384-5.593-22.175-12.186-22.175-12.186l-3.716.94 19.098 10.048s10.788 6.393-17.18 1.598l-26.37-9.59-2.398.8z"/>
        <path fill="#000" d="M71.144 173.212s-16.382-5.993-12.386 13.185c3.995 19.179 24.772 52.341 24.772 52.341l48.745-16.78s15.182-11.588 11.187-12.786c-3.996-1.199-25.172 6.392-25.172 6.392l-28.767 4.395-6.792-19.178s6.392-4.395 4.395-9.989l-.06-.167a30.905 30.905 0 0 0-15.283-17.093l-.64-.32z" opacity=".1"/>
        <path fill="#FFC1CD" d="M70.345 172.413s-16.382-5.993-12.386 13.185c3.995 19.179 24.772 52.341 24.772 52.341l48.744-16.78s15.183-11.588 11.188-12.786c-3.996-1.2-25.172 6.392-25.172 6.392l-28.767 4.395-6.793-19.178s6.393-4.395 4.395-9.989l-.06-.167a30.905 30.905 0 0 0-15.282-17.093l-.64-.32z"/>
        <path fill="#000" d="M71.87 106.931c-1.91-.471-3.887-.827-5.845-.611-1.853.272-3.65.845-5.318 1.698a50.899 50.899 0 0 0-7.683 4.439c-1.634 1.143-3.232 2.397-5.114 3.056-2.825.98-6.093.524-8.694 1.998-3.648 2.062-4.463 7.004-3.924 11.16.54 4.155 1.998 8.294 1.359 12.434-.98 6.193-6.353 10.592-11.284 14.46-1.554 1.198-3.22 2.648-3.46 4.606-.148 1.227.3 2.433.675 3.596a30.677 30.677 0 0 1-.307 19.766 27.629 27.629 0 0 1-12.918 14.875c-2.269 1.198-5.018 2.397-5.55 4.898-.675 3.197 2.75 5.638 5.794 6.765a40.326 40.326 0 0 0 7.671 1.997c2.302.364 4.763.508 6.865-.503 2.445-1.175 3.935-3.668 5.226-6.05 5.03-9.285 11.187-13.836 14.46-23.88.703-2.166 1.821-4.743 4.087-4.963 1.418-.135 2.7.756 3.903 1.515 5.814 3.664 11.923-.444 17.333-4.675 1.25-.979 2.325-2.21 3.716-2.973 2.96-1.626 7.275-1.158 9.05-4.035.412-.757.7-1.576.85-2.425.728-3.125 1.455-6.393.616-9.502-.78-2.864-2.797-5.194-3.996-7.93-1.198-2.738-1.262-6.43 1.179-8.116.731-.507 1.598-.767 2.333-1.29 2.098-1.522 2.146-4.563 2.134-7.156a3.812 3.812 0 0 1 .32-1.874 4.495 4.495 0 0 1 1.478-1.358c2.21-1.559 4.271-3.888 5.222-6.453 1.059-2.857-1.654-4.147-3.82-5.754a46.272 46.272 0 0 0-16.357-7.715z" opacity=".1"/>
        <path fill="#B46D86" d="M71.471 106.532c-1.91-.472-3.887-.827-5.845-.612-1.854.272-3.65.846-5.318 1.698a50.899 50.899 0 0 0-7.683 4.44c-1.635 1.142-3.233 2.397-5.115 3.056-2.824.979-6.093.523-8.694 1.998-3.648 2.061-4.463 7.004-3.923 11.16.539 4.154 1.997 8.294 1.358 12.433-.979 6.193-6.353 10.592-11.283 14.46-1.554 1.198-3.22 2.649-3.46 4.606-.148 1.227.3 2.434.675 3.596a30.677 30.677 0 0 1-.308 19.766 27.629 27.629 0 0 1-12.917 14.875c-2.27 1.199-5.018 2.398-5.55 4.899-.675 3.196 2.749 5.637 5.794 6.764a40.326 40.326 0 0 0 7.67 1.998c2.302.363 4.764.507 6.865-.504 2.445-1.174 3.936-3.667 5.226-6.049 5.03-9.285 11.188-13.836 14.46-23.88.703-2.166 1.822-4.743 4.087-4.963 1.419-.136 2.701.755 3.904 1.514 5.813 3.664 11.922-.443 17.332-4.675 1.25-.979 2.326-2.21 3.716-2.972 2.96-1.626 7.276-1.159 9.05-4.036.413-.757.7-1.576.85-2.425.728-3.124 1.455-6.393.616-9.501-.779-2.865-2.797-5.194-3.995-7.931-1.199-2.737-1.263-6.429 1.178-8.115.732-.508 1.599-.767 2.334-1.29 2.097-1.523 2.145-4.563 2.133-7.157a3.812 3.812 0 0 1 .32-1.873 4.495 4.495 0 0 1 1.478-1.359c2.21-1.558 4.272-3.887 5.222-6.453 1.06-2.856-1.654-4.147-3.82-5.753a46.272 46.272 0 0 0-16.357-7.715z"/>
        <path fill="#FFC1CD" d="M257.533 281.682c-10.848 2.29-42.5 1.318-47.147-2.398-7.112-5.69-5.362-10.743-4.89-11.786h-.104s3.995-9.59 0-16.781c0 0-.4-8.79-8.79-15.583-8.39-6.792-17.58-25.97-17.58-25.97l-4.795 9.988s-7.192 21.932-14.683 31.669a15.522 15.522 0 0 0-2.973 6.588c-.495 2.641-2.205 5.97-7.515 6.892l-.276.048a19.81 19.81 0 0 1-19.578-8.314c-3.596-5.15-7.627-12.294-8.542-19.259a16.929 16.929 0 0 1 3.92-13.133l.043-.052c8.594-10.168 38.433-45.145 43.211-47.182 0 0 21.576-20.777 29.966 7.192 8.391 27.968 11.188 36.358 11.188 36.358s10.033 17.92 12.785 23.973c2.845 6.257 14.68 21.864 15.882 23.442 1.1.751 11.675 7.923 15.083 7.923 1.507-.008 12.61 4.735 4.795 6.385z"/>
        <path fill="#000" d="M207.026 256.346c.34-3.104.156-6.792-1.634-10.024 0 0-.4-8.79-8.79-15.583-8.39-6.792-17.58-25.97-17.58-25.97l-4.795 9.988s-7.192 21.932-14.683 31.669a15.522 15.522 0 0 0-2.973 6.588c-.495 2.641-2.205 5.97-7.515 6.892l-.276.048a19.81 19.81 0 0 1-19.578-8.314c-3.536-5.09-7.531-12.139-8.506-19.027a16.59 16.59 0 0 0-.036 4.563c.915 6.96 4.966 14.108 8.542 19.258a19.81 19.81 0 0 0 19.578 8.315l.276-.048c5.31-.923 7.02-4.251 7.515-6.892a15.522 15.522 0 0 1 2.973-6.589c7.475-9.737 14.683-31.66 14.683-31.66l4.795-9.989s9.19 19.179 17.58 25.97c8.39 6.793 8.79 15.583 8.79 15.583a14.276 14.276 0 0 1 1.634 5.222zM102.908 204.569s17.18-.4 15.982-5.993" opacity=".05"/>
        <path fill="#0DA176" d="M53.64 266.623a132.65 132.65 0 0 1 46.1 4.443c5.777 1.598 11.586 3.636 17.58 3.464 7.355-.212 14.151-3.688 20.932-6.549 10.692-4.515 22.263-7.683 33.822-6.632 21.272 1.93 39.986 17.772 61.334 17.04 18.296-.623 34.717-13.452 53.016-13.073 12.418.256 23.93 6.6 36.243 8.227 15.807 2.086 31.565-3.7 47.47-4.395a75.279 75.279 0 0 1 39.6 9.293c8.75 4.847 17.388 14.3 13.944 23.69-1.05 2.864-3.176 5.413-3.308 8.462-.296 6.792 8.458 9.67 12.826 14.871 5.373 6.393 3.196 16.93-3.121 22.399-6.317 5.47-15.45 6.604-23.697 5.234s-15.938-4.914-23.745-7.895a181.683 181.683 0 0 0-46.18-10.988c-10.932-1.122-22.047-1.246-32.843.8-8.083 1.526-15.902 4.247-23.973 5.741-40.378 7.46-80.285-16.114-121.33-15.954-11.536.048-22.963 1.974-34.418 3.34-35.508 4.231-71.411 3.053-107.155 1.87-3.616-.12-7.527-.348-10.308-2.665-5.194-4.339-3.197-12.75 0-18.71 5.242-9.722 12.386-18.1 17.732-27.685 5.801-10.34 18.387-13.445 29.478-14.328z"/>
        <circle cx="318.664" cy="65.926" r="27.569" fill="#0DA176" opacity=".1"/>
        <path fill="#0DA176" d="M329.396 190.433s-27.022 16.301 22.774 41.401c0 0 10.972-20.377-1.159-36.986-4.874-6.7-13.986-8.697-21.216-4.65l-.4.235z"/>
        <path stroke="#535461" d="M329.7 190.09s23.125 17.691 22.47 41.744"/>
        <path stroke="#535461" stroke-width="2" d="M350.688 231.73s-8.467-28.767 1.598-49.907a45.409 45.409 0 0 0 3.672-28.488 76.366 76.366 0 0 0-4.032-13.37"/>
        <path fill="#0DA176" d="M358.163 126.597c0 3.524-6.392 13.74-6.392 13.74s-6.393-10.216-6.393-13.74a6.393 6.393 0 1 1 12.757 0h.028zM368.715 146.11c-1.913 2.958-12.821 8.068-12.821 8.068s.2-12.043 2.113-15a6.393 6.393 0 0 1 10.708 6.937v-.004zM368.256 179.461c-3.145 1.598-15.139.492-15.139.492s6.245-10.297 9.393-11.883a6.393 6.393 0 0 1 5.746 11.391zM362.227 204.617c-2.833 2.093-14.84 3.04-14.84 3.04s4.42-11.187 7.252-13.3a6.393 6.393 0 0 1 7.592 10.256l-.004.004zM342.501 154.861c2.525 2.453 14.3 4.998 14.3 4.998s-2.885-11.694-5.41-14.148a6.393 6.393 0 1 0-8.89 9.15zM335.82 184.368c3.145 1.598 15.14.491 15.14.491s-6.25-10.296-9.398-11.882a6.393 6.393 0 1 0-5.745 11.39h.004zM333.263 213.938c2.833 2.094 14.84 3.04 14.84 3.04s-4.42-11.187-7.252-13.3a6.393 6.393 0 1 0-7.592 10.256l.004.004z"/>
        <path fill="#000" d="M358.163 126.597c0 3.524-6.392 13.74-6.392 13.74s-6.393-10.216-6.393-13.74a6.393 6.393 0 1 1 12.757 0h.028zM368.715 146.11c-1.913 2.958-12.821 8.068-12.821 8.068s.2-12.043 2.113-15a6.393 6.393 0 0 1 10.708 6.937v-.004zM368.256 179.461c-3.145 1.598-15.139.492-15.139.492s6.245-10.297 9.393-11.883a6.393 6.393 0 0 1 5.746 11.391zM362.227 204.617c-2.833 2.093-14.84 3.04-14.84 3.04s4.42-11.187 7.252-13.3a6.393 6.393 0 0 1 7.592 10.256l-.004.004zM342.501 154.861c2.525 2.453 14.3 4.998 14.3 4.998s-2.885-11.694-5.41-14.148a6.393 6.393 0 1 0-8.89 9.15zM335.82 184.368c3.145 1.598 15.14.491 15.14.491s-6.25-10.296-9.398-11.882a6.393 6.393 0 1 0-5.745 11.39h.004zM333.263 213.938c2.833 2.094 14.84 3.04 14.84 3.04s-4.42-11.187-7.252-13.3a6.393 6.393 0 1 0-7.592 10.256l.004.004z" opacity=".25"/>
        <path stroke="#535461" stroke-width="2" d="M375.076 241.467s-8.466-28.767 1.598-49.907a45.409 45.409 0 0 0 3.672-28.488 76.366 76.366 0 0 0-4.031-13.37"/>
        <path fill="#0DA176" d="M382.56 136.334c0 3.524-6.393 13.74-6.393 13.74s-6.393-10.216-6.393-13.74a6.393 6.393 0 0 1 12.758 0h.028zM393.104 155.848c-1.914 2.957-12.822 8.067-12.822 8.067s.2-12.043 2.114-15a6.393 6.393 0 1 1 10.708 6.937v-.004zM392.644 189.194c-3.144 1.598-15.139.492-15.139.492s6.25-10.297 9.398-11.883a6.393 6.393 0 1 1 5.741 11.391zM386.611 214.366c-2.833 2.093-14.84 3.04-14.84 3.04s4.42-11.187 7.253-13.3a6.393 6.393 0 0 1 7.591 10.256l-.004.004zM366.885 164.598c2.526 2.453 14.3 4.998 14.3 4.998s-2.884-11.694-5.41-14.148a6.393 6.393 0 1 0-8.89 9.15zM360.209 194.105c3.144 1.598 15.139.491 15.139.491s-6.25-10.296-9.398-11.882a6.393 6.393 0 0 0-5.745 11.39h.004zM357.652 223.675c2.833 2.094 14.84 3.04 14.84 3.04s-4.42-11.187-7.253-13.3a6.393 6.393 0 1 0-7.591 10.256l.004.004z"/>
        <path fill="#0DA176" d="M206.367 51.773h-2.362a1.654 1.654 0 1 0 0-3.308h-19.13a1.654 1.654 0 1 0 0 3.308h2.361a1.654 1.654 0 0 0 0 3.309h-3.308a1.654 1.654 0 1 0 0 3.308h19.13a1.654 1.654 0 1 0 0-3.308h3.309a1.654 1.654 0 0 0 0-3.309zM353.001 85.336h-2.361a1.654 1.654 0 0 0 0-3.309h-19.13a1.654 1.654 0 0 0 0 3.309h2.36a1.654 1.654 0 0 0 0 3.308h-3.308a1.654 1.654 0 0 0 0 3.308h19.13a1.654 1.654 0 0 0 0-3.308h3.31a1.654 1.654 0 0 0 0-3.308zM228.342 95.324h-2.361a1.654 1.654 0 0 0 0-3.308h-19.13a1.654 1.654 0 0 0 0 3.308h2.36a1.654 1.654 0 1 0 0 3.309h-3.308a1.654 1.654 0 0 0 0 3.308h19.13a1.654 1.654 0 0 0 0-3.308h3.309a1.654 1.654 0 1 0 0-3.309z" opacity=".1"/>
    </g>
</svg>
