<svg xmlns="http://www.w3.org/2000/svg" width="306" height="211" viewBox="0 0 306 211">
    <defs>
        <linearGradient id="a" x1="50%" x2="50%" y1="99.998%" y2=".011%">
            <stop offset="0%" stop-color="gray" stop-opacity=".25"/>
            <stop offset="54%" stop-color="gray" stop-opacity=".12"/>
            <stop offset="100%" stop-color="gray" stop-opacity=".1"/>
        </linearGradient>
    </defs>
    <g fill="none" fill-rule="evenodd">
        <rect width="22.793" height="8.543" x="94.022" y="22.211" fill="#0DA176" fill-rule="nonzero" opacity=".1" rx="1.472"/>
        <rect width="22.793" height="8.543" x="161.832" y="14.522" fill="#0DA176" fill-rule="nonzero" opacity=".1" rx="1.472"/>
        <rect width="22.793" height="8.543" x="149.296" y="101.371" fill="#0DA176" fill-rule="nonzero" opacity=".1" rx="1.472"/>
        <rect width="22.793" height="8.543" x="159.553" y="110.768" fill="#0DA176" fill-rule="nonzero" opacity=".1" rx="1.472"/>
        <rect width="22.793" height="8.543" x="220.525" y="106.497" fill="#0DA176" fill-rule="nonzero" opacity=".1" rx="1.472"/>
        <rect width="22.793" height="8.543" x="35.045" y="113.331" fill="#0DA176" fill-rule="nonzero" opacity=".1" rx="1.472"/>
        <rect width="22.793" height="8.543" x="142.173" y="120.165" fill="#0DA176" fill-rule="nonzero" opacity=".1" rx="1.472"/>
        <path fill="url(#a)" fill-rule="nonzero" d="M204.83 52.17l-10.446-30.304-3.755.57-3.362.43c.085-1.14.234-5.229-1.852-7.373-.202-.734-.735-1.569-1.76-2.508-4.998-4.58-6.038 4.786-6.038 4.786s-1.14 1.976-2.71 4.739l-.823-.157-.234 2.039c-3.476 6.142-8.094 14.454-8.094 15.234 0 1.25-.624 2.913-.624 2.913s-3.539 5.826-4.79 8.742a13.978 13.978 0 0 1-3.134 4.578s-.302.231-.798.57a7.115 7.115 0 0 1 .285-1.626c.456-1.49 1.516-2.765 1.798-4.297.066-.367.091-.74.074-1.113.066-1.797-.809-3.565-1.174-5.362-.424-2.082-.196-4.374-1.307-6.182-.855-1.381-2.37-2.241-3.946-2.637-1.448-.361-2.872-.233-4.331-.387-1.34-.142-2.619-.735-3.958-.954a5.111 5.111 0 0 0-2.17 0c-2.266.624-2.975 3.477-4.725 5.046-.63.57-1.401.962-1.971 1.586-.83.908-1.117 2.175-1.074 3.417-.011.416.013.832.074 1.244.216 1.49.792 2.899 1.14 4.36.262 1.08.405 2.188.424 3.3 0 .25 0 .501-.023.749.01.501-.123.996-.385 1.424-.316.435-.837.646-1.302.925a10.094 10.094 0 0 1-3.282-4.653s-.077.097-.208.285v-.285s-2.849-4.18-3.282-7.594l.991.103 2.28-32.05-5.821-.853c-.162-1.655-.604-4.055-1.775-5.806.977-1.925 1.47-4.53-2.815-4.79-5.015-.305-4.707 3.6-4.174 5.735a14.358 14.358 0 0 0-.285 3.545l-5.129-.746-.028.416h-1.22l-3.732 32.695 3.18-.16 11.653 1.213c.932 8.466 2.396 18.928 4.134 21.394.058.083.122.162.19.236v14.98s-.207 19.364-3.749 22.476a18.53 18.53 0 0 1 6.776-1.062c-.04.128-.08.265-.12.41a36.31 36.31 0 0 0-1.08 5.832c-.05.434-.094.888-.134 1.36a73.386 73.386 0 0 0 .18 13.022c1.459 15.4 3.75 26.43 3.75 26.43l.638 8.953s-.624 15.192 1.04 20.186a7.542 7.542 0 0 0 2.13 1.381c.015.143.032.285.046.436l.057.584c-.746.339-2.14 1.683-2.442 6.962 0 0 .416 3.955-.623 5.826-1.04 1.87-.416 7.284 2.706 7.908 1.996.366 4.042.366 6.038 0 0 0 1.458 0 .416-5.203l-.183-1.332c-.023-2.577.086-5.337.599-6.16 1.04-1.665-.416-3.328-.416-3.328s-.103.057-.271.133c-.268-1.438-.618-3.772-.493-5.555 0-.15.026-.285.043-.441a8.77 8.77 0 0 0 1.763-1.216v-19.765s-.208-30.383 2.083-31.01c0 0 1.04 11.03.624 16.442-.416 5.414.624 11.24.624 11.24l.416 22.06s.399.19 1.043.415l-.043.401c-.253 2.452-.66 6.154-1.031 8.42a1.675 1.675 0 0 0-1.012 1.168c-.624 2.081-.208 7.284-1.459 8.742-.737.854-1.62 2.594-1.188 3.824-.27 1.08-.15 2.765 3.063 3.044 4.79.416 6.872-2.082 6.872-2.082s.624-1.039 0-2.913c-.624-1.873.208-5.202.208-5.202s.448-2.825-.285-3.195c-.062-.336-.12-.55-.12-.55.01-.64-.225-1.259-.657-1.73-.017-2.18.07-6.208.837-8.862.046-.151.091-.285.14-.442a5.626 5.626 0 0 0 1.76-.617s-.207-4.787 1.251-8.116c1.46-3.329.624-16.65.624-16.65s-.624-3.499.257-6.335a62.136 62.136 0 0 0 2.262-9.624l1.228-8.597s3.234-10.465-1.026-21.205a29.15 29.15 0 0 0-1.755-3.648c-.068-.12-.142-.242-.213-.362.447-.11.7-.176.7-.176s-5.62-13.099-2.082-19.77c0 0 1.994-1.994 2.28-4.183.352-2.896.737-5.79 1.37-8.637l.11-.501s.018-.097.046-.27c.08-.052.157-.106.234-.163 6-4.38 11.174-22.666 11.174-22.666l1.667-3.132.792-1.675-1.624 14.161 12.702 3.132 8.12-.623-.023-1.746 6.188-.481 7.485-3.14zm-80.518-41.29l-2.257-.33a656.418 656.418 0 0 0-.664-3.371c.473-.585.892-1.211 1.251-1.871 1.091 1.668 1.51 3.946 1.67 5.56v.012zm-8.428-4.37c.157.535.3.88.3.88l.284 2.348-.77-.11c-.043-1.047.02-2.096.189-3.13l-.003.011zm71.172 16.404l-3.054.393c.43-1.264.963-3.337.652-5.214a2.616 2.616 0 0 0 .838-2.178c1.815 2.167 1.644 5.994 1.564 6.99v.009zm-5.071-3.25a7.569 7.569 0 0 0 2.487-1.397c.262 1.842-.285 3.867-.701 5.068l-2.85.365-.786-.151 1.85-3.884z"/>
        <path fill="#0DA176" fill-rule="nonzero" d="M204.285 52.707l-7.434 3.101-8.635-30.095 2.025-2.403 3.713-.576z"/>
        <path fill="#FFF" fill-rule="nonzero" d="M204.285 52.707l-7.434 3.101-8.635-30.095 2.025-2.403 3.713-.576z" opacity=".2"/>
        <path fill="#0DA176" fill-rule="nonzero" d="M190.241 23.31l-12.9 1.654 6.612 31.847 12.898-1.003z"/>
        <path fill="#FFF" fill-rule="nonzero" d="M190.241 23.31l-12.9 1.654 6.612 31.847 12.898-1.003z" opacity=".07"/>
        <path fill="#535461" fill-rule="nonzero" d="M186.888 24.027l-.205-.025c0-.077.855-7.595-3.867-8.543l.04-.202c4.924.988 4.049 8.693 4.032 8.77z"/>
        <path fill="#774E55" fill-rule="nonzero" d="M139.164 45.97h14.212v20.79h-14.212z"/>
        <path fill="#000" fill-rule="nonzero" d="M139.164 45.97h14.212v20.79h-14.212z" opacity=".2"/>
        <path fill="#0DA176" fill-rule="nonzero" d="M190.754 58.01l-8.032.617 1.237-31.285 2.675-1.646 3.707.618z"/>
        <path fill="#000" fill-rule="nonzero" d="M190.754 58.01l-8.032.617 1.237-31.285 2.675-1.646 3.707.618z" opacity=".2"/>
        <path fill="#0DA176" fill-rule="nonzero" d="M186.634 25.696l-12.767-2.472-3.706 32.317 12.561 3.086zM111.465 10.26h-1.855l-3.707 32.313 8.237-.41z"/>
        <path fill="#000" fill-rule="nonzero" d="M111.465 10.26h-1.855l-3.707 32.313 8.237-.41z" opacity=".2"/>
        <path fill="#0DA176" fill-rule="nonzero" d="M110.847 9.847l-2.265 32.521 19.77 2.059 2.265-31.699z"/>
        <path fill="#5C3D53" fill-rule="nonzero" d="M134.737 178.627s-2.47-.205-2.883 6.999c0 0 .413 3.91-.619 5.763-1.031 1.854-.413 7.204 2.678 7.822 1.978.365 4.006.365 5.984 0 0 0 1.441 0 .413-5.145l-2.06-15.026-3.513-.413z"/>
        <path fill="#000" fill-rule="nonzero" d="M134.737 178.627s-2.47-.205-2.883 6.999c0 0 .413 3.91-.619 5.763-1.031 1.854-.413 7.204 2.678 7.822 1.978.365 4.006.365 5.984 0 0 0 1.441 0 .413-5.145l-2.06-15.026-3.513-.413z" opacity=".05"/>
        <path fill="#F8BDC5" fill-rule="nonzero" d="M147.686 59.77c-.176 3.063.436 4.84.436 4.84l-5.353 1.44s-8.856 1.237-5.354-2.277c1.211-1.21 1.806-3.286 2.066-5.479.162-1.498.212-3.005.15-4.51a40.184 40.184 0 0 0-.364-4.215s12.975-4.527 10.092 2.882a26.34 26.34 0 0 0-1.24 4.129 21.757 21.757 0 0 0-.433 3.19z"/>
        <path fill="#000" fill-rule="nonzero" d="M149.359 52.454a26.34 26.34 0 0 0-1.24 4.129 8.875 8.875 0 0 1-8.487-2.797 40.184 40.184 0 0 0-.365-4.214s12.975-4.527 10.092 2.882z" opacity=".1"/>
        <ellipse cx="146.27" cy="47.513" fill="#F8BDC5" fill-rule="nonzero" rx="8.855" ry="8.85"/>
        <path fill="#F8BDC5" fill-rule="nonzero" d="M130.617 51.836v2.677l-4.53 11.731-1.237-1.235a2.079 2.079 0 0 1-.188-.234c-2.991-4.248-5.168-32.493-5.168-32.493L116.614 8.4s-3.09-7.403 3.703-6.999c6.793.404 1.442 6.791 1.442 6.791s4.53 22.64 3.912 23.464c-.618.823 0 3.294 0 3.294s1.855 4.736 1.647 8.232c-.208 3.497 3.299 8.654 3.299 8.654zM181.691 20.55l-10.71 22.64-1.647 3.082s-5.128 18.087-11.052 22.418c-.34.254-.71.468-1.1.635l-1.236-9.88 1.14-2.87.085-.22a13.824 13.824 0 0 0 3.089-4.528c1.236-2.881 4.738-8.645 4.738-8.645s.618-1.645.618-2.881c0-1.236 11.739-21.613 11.739-21.613s1.028-9.263 5.983-4.735c4.955 4.527-1.647 6.597-1.647 6.597zM140.296 184.8s-7.004 2.882-6.18.205c.501-1.623.316-4.69.094-6.834-.143-1.398-.302-2.417-.302-2.417l5.983.618a4.838 4.838 0 0 0-.345 1.637c-.196 2.73.75 6.791.75 6.791zM151.185 176.793c-1.08 3.747-.798 10.274-.798 10.274s-6.385.823-5.766-.823c.43-1.14 1.06-6.783 1.401-10.1.151-1.45.245-2.455.245-2.455l5.767 1.236c-.392.567-.68 1.2-.849 1.868z"/>
        <path fill="#000" fill-rule="nonzero" d="M133.91 175.745l5.984.618a4.838 4.838 0 0 0-.345 1.637 6.109 6.109 0 0 1-5.328.163c-.15-1.401-.31-2.418-.31-2.418zM152.037 174.922a5.756 5.756 0 0 0-.855 1.87c-1.946.314-3.989-.235-5.16-.648.151-1.45.245-2.455.245-2.455l5.77 1.233z" opacity=".1"/>
        <path fill="#5E52AD" fill-rule="nonzero" d="M158.627 126.962l-1.214 8.502a61.453 61.453 0 0 1-2.24 9.52c-.87 2.804-.253 6.264-.253 6.264s.824 13.173-.618 16.467c-1.442 3.295-1.236 8.027-1.236 8.027-3.297 1.854-8.032-.413-8.032-.413l-.413-21.817s-1.029-5.764-.619-11.106c.41-5.341-.618-16.259-.618-16.259-2.28.618-2.06 30.668-2.06 30.668v19.554c-4.943 4.322-9.268 0-9.268 0-1.647-4.94-1.029-19.967-1.029-19.967l-.618-8.85s-2.28-10.909-3.704-26.14c-.44-4.28-.5-8.59-.177-12.88.04-.466.084-.915.131-1.346a35.91 35.91 0 0 1 1.066-5.766c.163-.624.373-1.234.627-1.826l22.13 1.028 1.304.06 3.134.145c.342.516.664 1.04.963 1.564.433.76.824 1.526 1.171 2.278.2.438.388.88.57 1.318 4.208 10.618 1.003 20.975 1.003 20.975z"/>
        <path fill="#000" fill-rule="nonzero" d="M134.324 101.647s-.969 9.682-7.798 6.88c.04-.467.083-.916.13-1.347 1.608.436 6.055 1.037 6.223-5.536l1.445.003zM157.613 105.99c-4.73 1.688-6.513-2.808-7.123-5.373l1.305.06c.71 4.034 3.541 4.27 5.265 3.986.194.45.379.891.553 1.327z" opacity=".1"/>
        <path fill="#5C3D53" fill-rule="nonzero" d="M136.572 183.707c-1.052-.165-2.659-.744-2.154-2.762 0 0-1.946-.672-1.741 7.355 0 0-.205 3.91-.618 4.735-.413.826 0 5.763 4.325 5.35 0 0 3.088 1.029 3.912-.617 0 0-.619-9.468.413-11.106 1.031-1.637-.413-3.294-.413-3.294s-1.46.809-2.508.57c-.399-.112-.809-.166-1.216-.231zM141.737 197.15s-2.06 3.5 2.678 3.91c4.739.41 6.796-2.06 6.796-2.06s.618-1.027 0-2.881c-.619-1.854.205-5.145.205-5.145s.618-3.91-.824-3.087c-1.441.823-8.855 9.263-8.855 9.263z"/>
        <path fill="#000" fill-rule="nonzero" d="M141.737 197.15s-2.06 3.5 2.678 3.91c4.739.41 6.796-2.06 6.796-2.06s.618-1.027 0-2.881c-.619-1.854.205-5.145.205-5.145s.618-3.91-.824-3.087c-1.441.823-8.855 9.263-8.855 9.263z" opacity=".05"/>
        <path fill="#5C3D53" fill-rule="nonzero" d="M147.094 184.595s-2.47-1.028-3.089 1.028c-.618 2.056-.205 7.204-1.441 8.645-1.237 1.44-2.884 5.35 2.06 5.146 4.943-.206 5.983-1.854 5.983-1.854s-.205-5.146.413-6.586c.618-1.441 0-3.702 0-3.702s.19-2.896-3.926-2.677z"/>
        <ellipse cx="116.2" cy="12.728" fill="#000" fill-rule="nonzero" opacity=".2" rx="1" ry="1"/>
        <ellipse cx="124.85" cy="13.756" fill="#000" fill-rule="nonzero" opacity=".2" rx="1" ry="1"/>
        <path fill="#535461" fill-rule="nonzero" d="M124.953 13.76h-.205c0-.09.145-8.771-4.844-9.571-.983-.157-1.786.065-2.387.66-2.06 2.042-1.209 7.808-1.2 7.865l-.202.031c-.037-.242-.875-5.928 1.26-8.04.649-.647 1.515-.89 2.563-.721 5.163.825 5.018 9.687 5.015 9.775zM183.227 25.329l-.185-.089c.03-.068 3.205-6.94-.99-9.334l.103-.18c4.357 2.49 1.106 9.531 1.072 9.603z"/>
        <path fill="#000" fill-rule="nonzero" d="M148.122 64.598l-5.353 1.441s-8.856 1.236-5.354-2.278c1.211-1.21 1.806-3.286 2.066-5.478 1.399 2.192 3.083 1.569 3.083 1.569l5.105-.1h.02c-.18 3.081.433 4.846.433 4.846zM158.285 68.696c-.34.254-.71.467-1.1.635l-1.236-9.88 1.14-2.871.284-.22c2.573.732 1.246 10.198.912 12.336zM130.617 51.836v2.677l-4.53 11.731-1.237-1.235a2.079 2.079 0 0 1-.188-.234c.536-6.116 5.955-12.939 5.955-12.939zM155.88 102.385c-2.88.72-17.918 4.251-22.38.908-1.76-1.318-3.835-1.802-5.775-1.88.163-.622.373-1.232.627-1.824l22.13 1.028 1.304.06 3.134.145c.342.518.661 1.039.96 1.563z" opacity=".1"/>
        <path fill="#F8BDC5" fill-rule="nonzero" d="M117.13 3.158s3.088 5.145 5.147 0M180.663 13.756s-1.237 6.177 3.703 3.295"/>
        <g fill="#000" fill-rule="nonzero" opacity=".1">
            <path d="M142.427 128.178c-.1-1.253-.174-2.036-.174-2.036-2.28.617-2.06 30.667-2.06 30.667v19.554c-1.447 1.264-2.85 1.788-4.089 1.9 1.488.13 3.26-.285 5.129-1.9v-19.554s-.16-21.775 1.194-28.631z"/>
            <path d="M157.51 105.99a20.23 20.23 0 0 0-.57-1.319 26.512 26.512 0 0 0-1.17-2.278 21.826 21.826 0 0 0-.964-1.563l-3.134-.145-1.305-.06-22.13-1.028-.019.046 21.12.982 1.306.06 3.134.145c.342.515.664 1.04.963 1.563.433.76.823 1.527 1.17 2.278.2.439.388.88.57 1.319 4.212 10.621 1.015 20.972 1.015 20.972l-1.214 8.502a61.453 61.453 0 0 1-2.24 9.52c-.871 2.804-.253 6.264-.253 6.264s.824 13.173-.618 16.467c-1.442 3.295-1.237 8.027-1.237 8.027a5.986 5.986 0 0 1-2.58.712 6.556 6.556 0 0 0 3.609-.712s-.205-4.735 1.236-8.027c1.442-3.292.619-16.467.619-16.467s-.619-3.463.253-6.265a61.453 61.453 0 0 0 2.24-9.519l1.214-8.502s3.196-10.357-1.015-20.972z"/>
        </g>
        <path fill="#EB6475" fill-rule="nonzero" d="M147.67 60.173c2.848 1.342 9.515-3.81 9.515-3.81 2.884.823.824 12.763.824 12.763l-.111.495c-.627 2.817-1.006 5.678-1.356 8.543-.265 2.161-2.24 4.137-2.24 4.137-3.502 6.587 2.06 19.554 2.06 19.554s-17.918 4.736-22.859 1.028c-4.94-3.707-12.357-.823-12.357-.823 3.502-3.086 3.704-22.23 3.704-22.23V65.023c.413-6.176 5.984-13.173 5.984-13.173 2.279 6.381 8.613 6.803 8.613 6.803 1.404 2.278 3.134 1.637 3.134 1.637l5.088-.117z"/>
        <path fill="#000" fill-rule="nonzero" d="M143.965 35.041a5.054 5.054 0 0 0-2.145 0c-2.24.618-2.943 3.44-4.673 4.99-.62.569-1.387.95-1.951 1.568-1.003 1.1-1.206 2.728-.992 4.2.214 1.472.784 2.868 1.14 4.311a14.91 14.91 0 0 1 .396 4.42c.008.492-.125.977-.382 1.398-.413.57-1.174.749-1.71 1.204-1.635 1.407-.284 4.326-1.484 6.122-.516.778-1.481 1.29-1.678 2.202-.14.646.157 1.298.447 1.893.764 1.566 1.556 3.175 2.85 4.343 1.293 1.167 2.891 1.754 4.481 2.349.482.18 1.086.336 1.453-.02.453-.444.111-1.196-.202-1.746-.496-.854-.883-1.885-.593-2.847.29-.963 1.223-1.6 1.85-2.403 1.615-2.08 1.085-5.063.284-7.57-.339-1.056-.72-2.18-.433-3.254.123-.461.365-.88.519-1.332.684-2.016-.465-4.229-.128-6.33.174-.821.462-1.614.854-2.355l1.81-3.887c.182-.468.454-.896.8-1.259a2.85 2.85 0 0 1 1.995-.62 5.415 5.415 0 0 1 3.883 1.768c1.937 2.152 1.815 5.41 1.581 8.28l-.168 2.073c-.122 1.492-.285 3.084-1.225 4.246-.732.9-1.915 1.512-2.217 2.634-.262.965.231 2.013-.028 2.978-.388 1.444-2.171 1.965-3.114 3.133a3.202 3.202 0 0 0-.234 3.602c.36.57.932 1.139.855 1.808-.066.538-.55.974-.547 1.515.047.495.395.91.875 1.045.471.122.963.145 1.444.068l5.109-.461c.32-.001.633-.088.908-.25.357-.257.473-.73.522-1.165.205-1.817-.285-3.802.624-5.39.285-.51.704-.935 1.02-1.424 1.744-2.734-.014-6.442.934-9.542.45-1.473 1.499-2.737 1.778-4.249.37-2.016-.68-3.986-1.088-5.98-.419-2.058-.194-4.325-1.294-6.116-.84-1.367-2.345-2.218-3.9-2.608-1.425-.36-2.85-.231-4.274-.385-1.362-.156-2.627-.743-3.952-.957z" opacity=".1"/>
        <path fill="#774E55" fill-rule="nonzero" d="M143.965 34.628a5.054 5.054 0 0 0-2.145 0c-2.24.618-2.943 3.44-4.673 4.99-.62.569-1.387.95-1.951 1.568-1.003 1.1-1.206 2.728-.992 4.2.214 1.473.784 2.868 1.14 4.311a14.91 14.91 0 0 1 .396 4.42c.008.493-.125.977-.382 1.398-.413.57-1.174.749-1.71 1.204-1.635 1.407-.284 4.326-1.484 6.123-.516.777-1.481 1.29-1.678 2.2-.14.647.157 1.3.447 1.894.764 1.566 1.556 3.175 2.85 4.343 1.293 1.167 2.891 1.754 4.481 2.349.482.18 1.086.336 1.453-.02.453-.444.111-1.196-.202-1.746-.496-.854-.883-1.885-.593-2.847.29-.963 1.223-1.6 1.85-2.403 1.615-2.079 1.085-5.063.284-7.569-.339-1.056-.72-2.181-.433-3.255.123-.461.365-.88.519-1.332.684-2.016-.465-4.229-.128-6.33.174-.821.462-1.613.854-2.355l1.81-3.887c.182-.468.454-.895.8-1.259a2.85 2.85 0 0 1 1.995-.62 5.415 5.415 0 0 1 3.883 1.768c1.937 2.153 1.815 5.41 1.581 8.28l-.168 2.073c-.122 1.492-.285 3.084-1.225 4.246-.732.9-1.915 1.512-2.217 2.634-.262.965.231 2.013-.028 2.978-.388 1.444-2.171 1.965-3.114 3.133a3.202 3.202 0 0 0-.234 3.602c.36.57.932 1.139.855 1.808-.066.538-.55.974-.547 1.515.047.495.395.91.875 1.045.471.122.963.145 1.444.068l5.109-.461c.32-.001.633-.088.908-.25.357-.257.473-.73.522-1.165.205-1.817-.285-3.802.624-5.39.285-.51.704-.935 1.02-1.424 1.744-2.734-.014-6.441.934-9.542.45-1.473 1.499-2.737 1.778-4.249.37-2.016-.68-3.986-1.088-5.98-.419-2.058-.194-4.325-1.294-6.116-.84-1.367-2.345-2.218-3.9-2.608-1.425-.36-2.85-.231-4.274-.385-1.362-.154-2.627-.74-3.952-.957z"/>
        <path fill="#000" fill-rule="nonzero" d="M132.985 81.783s4.12 1.236 10.091-1.44h3.086s.205 2.881 8.237 1.645" opacity=".1"/>
        <ellipse cx="153" cy="196.762" fill="#0DA176" fill-rule="nonzero" opacity=".1" rx="153" ry="13.953"/>
        <rect width="22.793" height="8.543" x="71.799" y="73.75" fill="#0DA176" fill-rule="nonzero" opacity=".1" rx="1.472"/>
        <rect width="22.793" height="8.543" x="82.056" y="83.147" fill="#0DA176" fill-rule="nonzero" opacity=".1" rx="1.472"/>
        <rect width="22.793" height="8.543" x="171.804" y="74.32" fill="#0DA176" fill-rule="nonzero" opacity=".1" rx="1.472"/>
        <rect width="22.793" height="8.543" x="182.061" y="83.717" fill="#0DA176" fill-rule="nonzero" opacity=".1" rx="1.472"/>
        <rect width="22.793" height="8.543" x="64.676" y="92.544" fill="#0DA176" fill-rule="nonzero" opacity=".1" rx="1.472"/>
        <rect width="22.793" height="8.543" x="87.469" y="125.86" fill="#0DA176" fill-rule="nonzero" opacity=".1" rx="1.472"/>
        <rect width="22.793" height="8.543" x="97.726" y="135.256" fill="#0DA176" fill-rule="nonzero" opacity=".1" rx="1.472"/>
        <rect width="22.793" height="8.543" x="80.346" y="144.653" fill="#0DA176" fill-rule="nonzero" opacity=".1" rx="1.472"/>
        <rect width="22.793" height="8.543" x="179.212" y="149.779" fill="#0DA176" fill-rule="nonzero" opacity=".1" rx="1.472"/>
        <rect width="22.793" height="8.543" x="161.832" y="159.175" fill="#0DA176" fill-rule="nonzero" opacity=".1" rx="1.472"/>
        <g opacity=".1">
            <path stroke="#535461" stroke-width=".57" d="M269.32 189.185s-4.126-20.889 4.37-35.206a32.247 32.247 0 0 0 4.454-19.916 54.232 54.232 0 0 0-1.995-9.721"/>
            <path fill="#0DA176" fill-rule="nonzero" d="M281.454 115.287c-.227 2.491-5.413 9.306-5.413 9.306s-3.852-7.643-3.621-10.138a4.535 4.535 0 0 1 4.922-4.007 4.534 4.534 0 0 1 4.11 4.836l.002.003zM287.651 129.78c-1.547 1.968-9.601 4.876-9.601 4.876s.923-8.509 2.47-10.476a4.537 4.537 0 0 1 7.917 1.024 4.531 4.531 0 0 1-.794 4.577h.008zM285.156 153.338c-2.331.917-10.75-.638-10.75-.638s5.094-6.88 7.425-7.796a4.532 4.532 0 1 1 3.325 8.434zM279.25 170.75c-2.143 1.299-10.705 1.188-10.705 1.188s3.858-7.64 6-8.938a4.538 4.538 0 0 1 6.952 3.763 4.533 4.533 0 0 1-2.248 3.988zM268.522 134.26c1.63 1.902 9.798 4.465 9.798 4.465s-1.282-8.463-2.909-10.362a4.537 4.537 0 0 0-7.772 1.412 4.531 4.531 0 0 0 .883 4.485zM261.872 154.71c2.123 1.327 10.687 1.33 10.687 1.33s-3.755-7.688-5.88-9.018a4.538 4.538 0 0 0-6.99 3.674 4.533 4.533 0 0 0 2.183 4.015zM258.134 175.466c1.87 1.666 10.308 3.118 10.308 3.118s-2.401-8.215-4.273-9.88a4.538 4.538 0 0 0-7.582 2.408 4.532 4.532 0 0 0 1.547 4.354z"/>
        </g>
        <g opacity=".1">
            <path stroke="#535461" stroke-width=".57" d="M233.526 184.6s-2.214-11.216 2.345-18.904a17.316 17.316 0 0 0 2.39-10.695 29.12 29.12 0 0 0-1.065-5.22"/>
            <path fill="#0DA176" fill-rule="nonzero" d="M240.042 144.918c-.123 1.338-2.906 4.997-2.906 4.997s-2.069-4.103-1.946-5.441a2.436 2.436 0 0 1 4.843.444h.009zM243.367 152.7c-.832 1.057-5.157 2.617-5.157 2.617s.496-4.556 1.328-5.624a2.437 2.437 0 0 1 3.374-.353 2.434 2.434 0 0 1 .455 3.36zM242.028 165.355c-1.251.492-5.773-.342-5.773-.342s2.736-3.702 3.99-4.186a2.434 2.434 0 1 1 1.786 4.528h-.003zM238.857 174.694c-1.14.698-5.747.638-5.747.638s2.071-4.103 3.222-4.8a2.437 2.437 0 0 1 3.748 2.018 2.434 2.434 0 0 1-1.223 2.144zM233.096 155.11c.874 1.021 5.262 2.397 5.262 2.397s-.687-4.556-1.561-5.564a2.438 2.438 0 0 0-3.436-.268 2.435 2.435 0 0 0-.268 3.434h.003zM229.526 166.086c1.14.712 5.738.715 5.738.715s-2.017-4.129-3.157-4.84a2.434 2.434 0 1 0-2.581 4.129v-.004zM227.523 177.231c1.003.895 5.536 1.675 5.536 1.675s-1.288-4.411-2.28-5.305a2.437 2.437 0 0 0-3.407.224 2.434 2.434 0 0 0 .165 3.41l-.014-.004z"/>
        </g>
        <g opacity=".1">
            <path stroke="#535461" stroke-width=".57" d="M53.174 186.31s-2.214-11.217 2.345-18.905a17.316 17.316 0 0 0 2.39-10.695 29.12 29.12 0 0 0-1.065-5.22"/>
            <path fill="#0DA176" fill-rule="nonzero" d="M59.69 146.626c-.123 1.339-2.906 4.998-2.906 4.998s-2.069-4.103-1.946-5.442a2.436 2.436 0 0 1 4.843.444h.009zM63.015 154.409c-.832 1.056-5.157 2.617-5.157 2.617s.496-4.556 1.328-5.624a2.437 2.437 0 0 1 3.374-.354 2.434 2.434 0 0 1 .455 3.36zM61.676 167.063c-1.251.493-5.773-.342-5.773-.342s2.736-3.701 3.99-4.186a2.434 2.434 0 1 1 1.786 4.528h-.003zM58.505 176.403c-1.14.697-5.747.638-5.747.638s2.071-4.104 3.222-4.801a2.437 2.437 0 0 1 3.748 2.019 2.434 2.434 0 0 1-1.223 2.144zM52.744 156.818c.874 1.022 5.262 2.397 5.262 2.397s-.687-4.556-1.561-5.564a2.438 2.438 0 0 0-3.436-.267 2.435 2.435 0 0 0-.268 3.434h.003zM49.174 167.795c1.14.712 5.738.715 5.738.715s-2.017-4.13-3.157-4.841a2.434 2.434 0 1 0-2.581 4.129v-.003zM47.17 178.94c1.004.894 5.537 1.674 5.537 1.674s-1.288-4.41-2.28-5.305a2.437 2.437 0 0 0-3.407.225 2.434 2.434 0 0 0 .165 3.409l-.014-.003z"/>
        </g>
    </g>
</svg>
