<svg xmlns="http://www.w3.org/2000/svg" xmlns:xlink="http://www.w3.org/1999/xlink" width="133" height="106" viewBox="0 0 133 106">
    <defs>
        <rect id="b" width="783" height="546" x="322" y="81" rx="2"/>
        <filter id="a" width="102.2%" height="103.3%" x="-1.1%" y="-1.4%" filterUnits="objectBoundingBox">
            <feOffset dy="1" in="SourceAlpha" result="shadowOffsetOuter1"/>
            <feGaussianBlur in="shadowOffsetOuter1" result="shadowBlurOuter1" stdDeviation="2.5"/>
            <feColorMatrix in="shadowBlurOuter1" result="shadowMatrixOuter1" values="0 0 0 0 0 0 0 0 0 0 0 0 0 0 0 0 0 0 0.2 0"/>
            <feOffset dy="3" in="SourceAlpha" result="shadowOffsetOuter2"/>
            <feGaussianBlur in="shadowOffsetOuter2" result="shadowBlurOuter2" stdDeviation="2"/>
            <feColorMatrix in="shadowBlurOuter2" result="shadowMatrixOuter2" values="0 0 0 0 0 0 0 0 0 0 0 0 0 0 0 0 0 0 0.12 0"/>
            <feOffset dy="2" in="SourceAlpha" result="shadowOffsetOuter3"/>
            <feGaussianBlur in="shadowOffsetOuter3" result="shadowBlurOuter3" stdDeviation="2"/>
            <feColorMatrix in="shadowBlurOuter3" result="shadowMatrixOuter3" values="0 0 0 0 0 0 0 0 0 0 0 0 0 0 0 0 0 0 0.14 0"/>
            <feMerge>
                <feMergeNode in="shadowMatrixOuter1"/>
                <feMergeNode in="shadowMatrixOuter2"/>
                <feMergeNode in="shadowMatrixOuter3"/>
            </feMerge>
        </filter>
        <linearGradient id="c" x1="-.004%" y1="49.962%" y2="49.962%">
            <stop offset="0%" stop-color="gray" stop-opacity=".25"/>
            <stop offset="54%" stop-color="gray" stop-opacity=".12"/>
            <stop offset="100%" stop-color="gray" stop-opacity=".1"/>
        </linearGradient>
    </defs>
    <g fill="none" fill-rule="evenodd">
        <g transform="translate(-385 -181)">
            <use fill="#000" filter="url(#a)" xlink:href="#b"/>
            <use fill="#FFF" xlink:href="#b"/>
        </g>
        <path fill="#F4F4F4" d="M-63-100h259v546H-63z"/>
        <g>
            <path fill="#0DA176" d="M130 26.997a31.785 31.785 0 0 0-5.193-8.252l-72.039-.704 59.313-8.303a33.743 33.743 0 0 0-12.034-2.375C88.397-1.924 72.01-2.478 59.754 5.999a33.669 33.669 0 0 0-15.42-3.704C28.33 2.295 14.992 13.345 12 28l118-1.003zM133 39.557A30.522 30.522 0 0 0 130.736 28L4.837 41.015a30.852 30.852 0 0 0-2.95 7.337l38.996 5.723L1 58.248c1.2 16.528 15.587 29.579 33.16 29.579 8.848 0 16.886-3.308 22.842-8.7C62.977 84.62 71.092 88 80.033 88c13.269 0 24.719-7.439 30.05-18.196 10.7-3.344 19.01-11.74 21.855-22.243l-49.304-7.532h50.36c.003-.157.006-.314.006-.472z" opacity=".1"/>
            <path stroke="#535461" stroke-width="2" d="M86 99s3.976-7.041 9.968-9.07a12.26 12.26 0 0 0 6.206-4.642A20.7 20.7 0 0 0 104 82"/>
            <path fill="#0DA176" d="M107.523 80.748C106.9 81.363 104 82 104 82s.712-2.932 1.335-3.548a1.551 1.551 0 0 1 1.523-.391c.54.156.957.594 1.094 1.148a1.62 1.62 0 0 1-.429 1.54zM104.735 87.976c-.877.217-3.735-1.13-3.735-1.13s2.228-2.6 3.105-2.816c.866-.186 1.693.52 1.864 1.591.17 1.071-.377 2.116-1.234 2.355zM98.834 93.904C97.97 93.538 96 90.576 96 90.576s3.054-.85 3.92-.485c.844.383 1.283 1.515.988 2.55-.295 1.036-1.215 1.596-2.074 1.263zM93.14 96.973c-.872-.18-3.14-2.683-3.14-2.683s2.789-1.455 3.66-1.274c.872.18 1.462 1.212 1.318 2.305-.143 1.092-.967 1.832-1.838 1.652zM98 84.554C98 85.438 99.998 88 99.998 88s2-2.56 2.002-3.443c-.03-.867-.916-1.557-2-1.557s-1.97.69-2 1.557v-.003zM92.06 88.077C92.394 88.954 95.3 91 95.3 91s.964-3.036.63-3.912c-.374-.832-1.477-1.277-2.509-1.012-1.031.265-1.628 1.147-1.355 2.005l-.006-.004zM86 92.743c.148.89 2.573 3.257 2.573 3.257s1.565-2.8 1.417-3.691c-.209-.843-1.19-1.409-2.243-1.294-1.053.115-1.814.87-1.74 1.728H86z"/>
            <path fill="#000" d="M107.523 80.748C106.9 81.363 104 82 104 82s.712-2.932 1.335-3.548a1.551 1.551 0 0 1 1.523-.391c.54.156.957.594 1.094 1.148a1.62 1.62 0 0 1-.429 1.54zM104.735 87.976c-.877.217-3.735-1.13-3.735-1.13s2.228-2.6 3.105-2.816c.866-.186 1.693.52 1.864 1.591.17 1.071-.377 2.116-1.234 2.355zM98.834 93.904C97.97 93.538 96 90.576 96 90.576s3.054-.85 3.92-.485c.844.383 1.283 1.515.988 2.55-.295 1.036-1.215 1.596-2.074 1.263zM93.14 96.973c-.872-.18-3.14-2.683-3.14-2.683s2.789-1.455 3.66-1.274c.872.18 1.462 1.212 1.318 2.305-.143 1.092-.967 1.832-1.838 1.652zM98 84.554C98 85.438 99.998 88 99.998 88s2-2.56 2.002-3.443c-.03-.867-.916-1.557-2-1.557s-1.97.69-2 1.557v-.003zM92.06 88.077C92.394 88.954 95.3 91 95.3 91s.964-3.036.63-3.912c-.374-.832-1.477-1.277-2.509-1.012-1.031.265-1.628 1.147-1.355 2.005l-.006-.004zM86 92.743c.148.89 2.573 3.257 2.573 3.257s1.565-2.8 1.417-3.691c-.209-.843-1.19-1.409-2.243-1.294-1.053.115-1.814.87-1.74 1.728H86z" opacity=".25"/>
            <path stroke="#535461" stroke-width="2" d="M86 99s.817-8.104 5.677-12.416c2.053-1.796 3.445-4.184 3.968-6.806.238-1.246.357-2.51.355-3.778"/>
            <path fill="#0DA176" d="M98.854 73.291C98.44 74.147 95.381 76 95.381 76s-.658-3.1-.245-3.955c.414-.855 1.582-1.268 2.608-.924 1.027.345 1.524 1.316 1.11 2.17zM98.385 79.247C97.73 79.814 95 80 95 80s1.061-3.106 1.718-3.675c.655-.567 1.558-.373 2.018.434.46.807.303 1.92-.351 2.488zM95.544 87.996C94.67 88.09 92 86.363 92 86.363s2.403-2.263 3.278-2.356c.874-.093 1.643.725 1.716 1.827.074 1.101-.575 2.07-1.45 2.162zM91.813 93.956c-.873.28-3.813-.86-3.813-.86s2.12-2.761 2.991-3.042c.864-.252 1.733.395 1.956 1.456.223 1.061-.282 2.148-1.136 2.446h.002z"/>
            <path fill="#0DA176" d="M91.176 79.367c.446.85 3.561 2.633 3.561 2.633s.53-3.145.085-3.994c-.287-.55-.9-.93-1.61-.996-.708-.065-1.404.193-1.826.678-.421.485-.504 1.124-.217 1.674l.007.005zM86.41 85.535C87.016 86.17 90 87 90 87s-.505-2.846-1.107-3.48a1.732 1.732 0 0 0-1.564-.49c-.579.106-1.052.49-1.242 1.007a1.441 1.441 0 0 0 .323 1.498zM83.293 93.697C83.842 94.523 87 96 87 96s.026-3.314-.516-4.14c-.345-.545-.977-.874-1.653-.86-.676.014-1.291.369-1.61.927a1.66 1.66 0 0 0 .072 1.77z"/>
            <ellipse cx="4" cy="97.5" fill="#0DA176" opacity=".1" rx="4" ry="1"/>
            <ellipse cx="10" cy="104.5" fill="#0DA176" opacity=".1" rx="4" ry="1"/>
            <path fill="#0DA176" d="M12.422 102.98c.255-.258.487-.562.56-.931.072-.37-.072-.812-.392-.947-.358-.151-.742.124-1.033.4-.29.277-.624.593-1.004.534.398-.397.577-.996.473-1.577a.7.7 0 0 0-.128-.32c-.199-.235-.56-.14-.798.05-.765.589-.97 1.724-.976 2.746-.076-.368-.011-.753-.014-1.123-.002-.371-.095-.798-.382-1a1.075 1.075 0 0 0-.588-.154c-.342-.014-.722.024-.954.3-.289.341-.214.914.037 1.29.252.374.638.611.987.871.283.186.524.439.707.74a.94.94 0 0 1 .052.141h2.13c.481-.273.926-.616 1.323-1.02zM6.422 96.99c.255-.258.487-.564.56-.933.072-.37-.072-.815-.392-.95-.358-.153-.742.122-1.033.4-.29.278-.624.595-1.004.537.398-.399.578-1 .473-1.583a.696.696 0 0 0-.128-.322c-.199-.235-.56-.14-.798.051-.765.59-.971 1.73-.975 2.757-.077-.371-.012-.756-.014-1.137-.003-.38-.096-.8-.383-1.004a1.073 1.073 0 0 0-.588-.152c-.341-.014-.721.024-.953.299-.29.344-.216.918.037 1.296.252.378.637.613.987.874.282.187.524.441.706.744.02.043.038.087.052.133h2.138a5.93 5.93 0 0 0 1.315-1.01z"/>
            <ellipse cx="112" cy="104.5" fill="#0DA176" opacity=".1" rx="6" ry="1"/>
            <path fill="#0DA176" d="M113.204 96s.8 1.123-.37 2.817c-1.17 1.695-2.136 3.127-1.746 4.183 0 0 1.767-3.148 3.203-3.191 1.437-.044.493-1.916-1.087-3.809z"/>
            <path fill="#000" d="M113.183 96c.07.109.126.227.165.352 1.418 1.766 2.175 3.415.812 3.457-1.27.039-2.795 2.447-3.16 3.054.012.047.026.092.043.137 0 0 1.788-3.147 3.24-3.19 1.453-.044.5-1.917-1.1-3.81z" opacity=".1"/>
            <path fill="#FFD037" d="M115.091 96.261c0 .408-.041.739-.092.739-.05 0-.09-.331-.09-.739 0-.407.05-.215.1-.215s.082-.194.082.215z"/>
            <path fill="#FFD037" d="M114.762 97.503c-.39.354-.73.566-.76.477-.03-.09.262-.449.652-.8.39-.351.237-.097.266 0 .029.097.236-.028-.158.323z"/>
            <path fill="#0DA176" d="M108.798 96s-.801 1.123.369 2.817c1.17 1.695 2.136 3.127 1.745 4.183 0 0-1.765-3.148-3.203-3.191-1.438-.044-.492-1.916 1.089-3.809z"/>
            <path fill="#000" d="M108.816 96a1.41 1.41 0 0 0-.167.352c-1.418 1.766-2.175 3.415-.81 3.457 1.27.039 2.796 2.447 3.161 3.054a1.065 1.065 0 0 1-.044.137s-1.787-3.147-3.24-3.19c-1.451-.044-.5-1.917 1.1-3.81z" opacity=".1"/>
            <path fill="#FFD037" d="M106.909 96.261c0 .408.041.739.092.739.05 0 .09-.331.09-.739 0-.407-.05-.215-.1-.215s-.082-.194-.082.215zM106.238 97.503c.39.354.73.566.76.477.03-.09-.263-.449-.654-.8-.392-.351-.235-.097-.266 0-.03.097-.23-.028.16.323z"/>
            <path fill="#A8A8A8" d="M108 102.144s2.15-.065 2.798-.52c.648-.455 3.302-.996 3.467-.267.165.728 3.231 3.623.804 3.642-2.428.02-5.64-.372-6.286-.76-.647-.387-.783-2.095-.783-2.095z"/>
            <path fill="#000" d="M115.114 104.735c-2.428.02-5.64-.391-6.287-.798-.49-.31-.689-1.423-.755-1.937H108s.137 1.794.783 2.201c.646.407 3.86.819 6.287.798.7-.006.943-.264.93-.646-.098.231-.366.382-.886.382z" opacity=".2"/>
            <ellipse cx="61.5" cy="100.5" fill="#0DA176" opacity=".1" rx="44.5" ry="5.5"/>
            <path fill="url(#c)" fill-rule="nonzero" d="M93.624 47.43a3.516 3.516 0 0 1-.376-1.216s-.637-.34-.382-1.407c.254-1.067-.722-1.65-.722-1.65 0-.006-.25-1.19-.25-1.786 0-.595-.721-1.49-.721-1.49s.125-1.25-.298-1.985c-.424-.736-1.273-2.179-2.334-2.65 0 0-2.256-3.498-2.929-3.77 0 0-.714-.532-.847-1.142a1.88 1.88 0 0 1 0-.238v-.108c.347-.323.712-.789.723-.941a7.528 7.528 0 0 1 .41-2.09c.026-.07.053-.138.081-.205.03-.068.068-.159.107-.238.218-.441.512-.851.649-1.326l.028-.105c.165-.708-.033-1.473-.419-2.09-.406-.65-1.002-1.16-1.629-1.605a7.253 7.253 0 0 0-2.067-1.092c-.752-.23-1.569-.274-2.307-.017-.738.258-1.378.815-2.139 1.015-.32.084-.659.103-.966.228-.619.253-1.01.888-1.145 1.548-.033.153-.049.31-.048.466.002.156.031.31.087.456a.645.645 0 0 0 .448.436l.07.018.085.018c-.023.046-.048.09-.07.137a4.54 4.54 0 0 0-.413 1.903c.006 2.003 1.302 3.767 3.195 4.348l.06.146c.068.175.13.357.182.538-.549.309-3.027 1.722-3.626 2.428a6.928 6.928 0 0 0-.482-2.698c-.449-1.064-1.305-1.998-2.407-2.337-.627-.19-1.286-.188-1.922-.32-.502-.103-.978-.288-1.476-.392a3.298 3.298 0 0 0-.602-.07 5.292 5.292 0 0 0-1.101-.912c-.392-.264-.802-.521-1.26-.634-.774-.196-1.582.031-2.381.118-.839.091-1.648-.127-2.475-.08-.724.03-1.44.16-2.13.387-.17.061-.335.138-.492.23.01-.017.022-.031.032-.048.01-.016.023-.044.034-.067.011-.023.016-.03.022-.047a1.562 1.562 0 0 0 .063-.222v-.021a.94.94 0 0 0 .011-.127 1.364 1.364 0 0 0-.02-.32c-.071-.357-.251-.679-.414-1.005-.163-.326-.3-.68-.27-1.043 0-.03 0-.06.012-.089a.956.956 0 0 1 .02-.104v-.007a1.05 1.05 0 0 1 .03-.103c.01-.034.022-.069.035-.103.012-.034.026-.067.04-.101l.045-.102c.015-.035.031-.07.048-.104l.099-.206c.032-.068.055-.126.081-.181l.015-.034c.051-.127.098-.254.138-.38 0-.014.009-.026.012-.039.04-.125.07-.252.096-.38v-.041c.021-.129.034-.26.037-.39v-.04a1.905 1.905 0 0 0-.141-.745c-.21-.499-.64-.87-1.082-1.18-.298-.21-.632-.41-1.002-.402-.43.009-.807.304-1.233.365a1.838 1.838 0 0 1-.813-.103c-.594-.189-1.142-.507-1.737-.69a4.292 4.292 0 0 0-1.767-.17c-.25.028-.51.086-.686.263-.177.176-.24.451-.338.691-.15.366-.401.68-.725.901-.354.242-.778.364-1.15.581-.31.18-.596.465-.677.803a.526.526 0 0 0-.015.108.567.567 0 0 0 0 .093c.02.165.048.33.088.49v.029c.054.38-.093.778-.306 1.106-.161.254-.375.508-.448.79a8.39 8.39 0 0 0-.27.068h-.935a.252.252 0 0 0-.251.254v.148c-.926.362-1.833.774-2.715 1.235 0 0-2.101 2.808-2.325 3.19a.889.889 0 0 0-.066.23c-.413.127-.888 3.632-.888 3.632s.6.906 1.266 1.75c.264.78 1.04 1.396 1.067 2.43.04 1.564 0 4.085 0 4.085s.595 3.862.168 5.617c-.428 1.755.077 4.276.204 5.266.126.99.223 3.254 0 4.37-.223 1.117-.318 2.842 0 2.235v.254c.006.528.015 1.743 0 2.301-.021.724.233 2.085 0 2.595-.233.51-.276 2.681-.276 2.98a5.16 5.16 0 0 1-.338 2.212c-.426 1.064 0 5.064 0 5.064s-1.312 2.85-.911 3.403c.401.553-.744.38-.744.38s-.25 2.725-1.486 4.043c-1.236 1.319-3.31 10.595-3.014 12.935 0 0-.89.888-.976 1.106-.059.15-.035 1.452-.015 2.214a.87.87 0 0 0-.282.445c-.297 1.17-.657 3.341-.657 3.341s-.404 1.212 2.206 1.319c2.61.106 2.567-.34 2.567-.34s-.041-2.089.086-2.46c.126-.37.125-1.776.125-1.796.06.007.12.022.176.043.467.212 1.146-.634.806-1.448-.34-.813.934-5.147.934-5.147s3.564-6.877 3.564-9.787c0-.212 1.4-1.914 1.572-3.02.132-.759.345-1.501.636-2.214 0 0 .593 2.936 0 4.085-.593 1.148-1.317 10.127-.764 11.02.552.894-.34 2.255-.468 2.51-.127.255-.297 3.192-.297 3.192h.281l-.111 2.365s4.604-.064 5.387.34c.783.403 5.56.38 5.56.38s2.206-.83.976-1.68c-1.23-.852-3.437-.936-3.437-.936s-1.83-2.539-2.173-2.646c-.229-.07-.585-.366-.908-.3.05-.499.156-.99.314-1.464.722-2.383.424-11.575.424-11.575s.552-.978.552-1.914c0-.937.849-1.745.849-1.745s2.462-10.211 3.007-12.551c.486-2.066 1.139-4.794.847-6.576 0-.014 0-.027-.009-.041.049-1.341.078-3.082-.074-3.5-.25-.702-.696-4.34-.696-4.34s-.084-.352-.168-.83l2.158.73c.157.606.319 1.22.14 1.634l-.026.063c-.191.448-.375.911-.174 1.723.104.474.164.956.18 1.44.028.635.025 1.29.03 1.753v9.02s-.032 4.084.265 6.317c.118.992.115 1.995-.01 2.986-.049.408-.106.755-.154 1.015-.056.297-.099.47-.099.47a17.035 17.035 0 0 0-.487 6.413c.413 3.543-.11 2.872-.11 2.872s.046 1.532.205 1.787c.159.255-.206 1.34-.206 1.34s.14.127.358.29a5.805 5.805 0 0 0-.12 1.657c.007.105.01.215.007.332v.146a21.799 21.799 0 0 1-1.003 2.714c-.486 1.047.827 2.271 1.476 2.791.207.166.463.255.726.254h.83c.365 0 .709-.172.929-.465.355-.472.822-1.217.782-1.817-.054-.814-.64-2.353-.815-2.792a1.05 1.05 0 0 0 .007-.112 3.135 3.135 0 0 0-.163-.824l-.26-1.355-.037-.196c.042-.064.077-.133.106-.204 0 0-.287-1.531 0-1.946.287-.415 1.941-6.287 1.941-8.68 0 0 1.21-2.425 1.306-4.404 0 0 0-3.032.477-4.245.478-1.213 1.05-4.754 1.05-4.754l.26 3.318.218 5.744s-.478 2.011 0 2.681c.477.67.318 2.585.318 2.585l-.35 6.701s-.031 1.117-.159 1.372c-.128.255-.202 3.506-.703 3.793 0 0 .078.06.207.148-.038.05-.078.107-.125.173a3.522 3.522 0 0 0-.518 1.578c0 .05-.01.096-.015.145-.118.136-.201.3-.242.475a.693.693 0 0 0 .08.476c-.218.471-1.04 2.37-.428 2.941.512.479 2.28.342 3.19.234a.59.59 0 0 0 .519-.627 15.916 15.916 0 0 0-.227-1.903l6.64.171c-.732.584-1.65 1.46-1.65 1.46s-1.241 1.085-1.861 1.324c-.62.238-1.03 1.198-.18 1.276.849.079 4.142.127 4.142.127l.116-.019c.01.2.125.372.447.43.796.142 8.053-.926 8.053-.926s-.01-.27-.03-.634c1.21.127 2.926.108 3.807-.165 1.167-.363 2.8-1.362 2.8-1.362v-.326c0-.199 0-.448-.01-.724-.011-.416-.038-.839-.098-.95a10.274 10.274 0 0 1-.594-1.635c.41-.05.781-.266 1.03-.599 0 0-1.072-.936-.764-1.142.308-.205.414-1.15.414-1.15s-.85-2.042-.01-4.765c.839-2.723.01-9.701-.415-10.248-.425-.547-.17-1.623-.17-1.623.595-.978-.583-3.871-.583-3.871s.456-5.022.116-5.471c-.34-.45.166-2.113.166-2.113.266-.33.484-.698.645-1.092.118.236.273.453.457.642 0 0 .058-.192.134-.508.04.045.082.087.126.127 0 0 .51-1.677.467-3.379-.043-1.701-.17-5.075-.17-5.075l-.007-.411 1.79-2.317s1.656-1.684 1.665-3.228a.63.63 0 0 0 .155-.14c.47-.36.193-1.046-.125-1.65zm-23.977 4.187l.029.525a7.06 7.06 0 0 1-.12-.702l.093.167-.002.01zm14.705-21.34c.06-.03.117-.064.17-.105l-.161.151a.085.085 0 0 0-.01-.045zm-25.423-2.744a2.269 2.269 0 0 0-.184.182c-.603.67-.796 1.7-1.556 2.182-.216.136-.461.217-.673.358-.514.341-.73.958-.868 1.576 0-.046.007-.09.013-.135-.041.17-.075.343-.106.508a2.03 2.03 0 0 0-.021.68c.02.315.132.596.42.67.146.037.301 0 .45.029.287.053.47.326.525.623v.032-.008c0 .034.01.07.013.104a.14.14 0 0 0 0 .023c-.046.295-.13.583-.25.856l-.008-.03c-.033.09-.064.18-.09.271a.785.785 0 0 0-.028.405.455.455 0 0 0 .05.226c.092.141.24.234.406.254.192.033.39.015.574-.05a1.281 1.281 0 0 0-.125.45c-.56.12-1.008.547-1.16 1.106a16.055 16.055 0 0 1-.368 1.108c-.015-.517-.052-.889-.125-1.034-.376-.762-.763-2.395-.763-2.395v-1.498c0-.921-1.678-1.558-1.693-1.565.066-.53.177-1.053.332-1.564l.041-.127a4.844 4.844 0 0 0 4.4-3.18c.015-.039.026-.077.04-.115.158.07.329.103.501.099a.907.907 0 0 0 .253-.04zm-3.177 20.734c0-.995-.11-2.082-.11-2.082l.043-.591a91.615 91.615 0 0 0 1.485-1.37c.084-.077.125-.126.125-.126a.962.962 0 0 1 .327.57c.06.274.065.558.014.834-.085.532.138 1.244.286 2.058.098.485.135.98.111 1.475l-2.281-.768zm11.527 46.287a8.881 8.881 0 0 1 .987-3.318c.891-1.66 2.005-7.532 2.005-7.532s.287-2.553.19-4.18c-.058-1.016.152-3.882.388-6.064.063.42.109.71.11.734 0 .081.837 3.635 1.102 5.202v7.24c0 .414-.087.824-.256 1.2l-.821 1.845a2.636 2.636 0 0 0-.021 2.091c.132.323.21.61.086.645a1.958 1.958 0 0 0-.304.127.728.728 0 0 0-.136-.107l-2.701 2.235-.795.109v-.102a.529.529 0 0 0 .172-.125h-.006zm10.683 3.617l-.106-.474-.028-.127.25.019s-.7-3.255-.223-4.628c.1-.333.167-.675.2-1.021.023-.198.045-.411.063-.635.207.635.389 1.29.277 1.433-.223.287-.027 1.915.034 2.01.061.095.476.634.19 1.096-.288.462-.251 1.88-.251 1.88s.072.01.194.02a4.344 4.344 0 0 0-.6.427zm3.568-.705l-.057-.108c.407-.146 1.023-.097 1.023-.097s-.955-3.536-.668-4.302c.287-.767-1.21-8.17-1.942-9.862-.731-1.69.25-6.413.25-6.413l1.6-4.275 1.324 4.432c-.212 1.23.213 3.875.85 4.513.636.638.508 1.488.25 1.83-.258.341.125 3.488.125 3.488s.086 3.234-.125 4.382c-.21 1.149.125 1.618.551 2.128.426.51-.466.468-.976.954-.51.486 0 1.089 0 1.089l.188-.014c.09.237.146.484.17.736a.445.445 0 0 1-.125.32c-.34.298-.892 1.766-1.378 2.127-.055.042-.125.096-.192.158-.028 0-.06.012-.097.021a8.44 8.44 0 0 1-.776-1.107h.005zM45.808 28.92a4.542 4.542 0 0 0 2.164-1.021h1.215c.128.285.282.558.463.813-.012.028-.02.055-.032.084a3.24 3.24 0 0 1-.243.483s-1.378.02-2.161.47c-.081.046-.158.1-.23.16-.528.459-1.583.461-2.068.435l-.283-.18-.052.233-.03.025.018-2.14 1.239.638zm14.81 65.583v.172a1.367 1.367 0 0 1 0-.172zm0 .198l.014.138c0-.052-.005-.098-.009-.14l-.005.002z"/>
            <path fill="#D38884" d="M54.403 47.99l4.975 1.677-.995 2.95-4.975-1.679z"/>
            <path fill="#4C4981" d="M88.466 60.986s.724 1.396-.643 3.214c0 0-.483 1.643-.16 2.091.322.448-.111 5.437-.111 5.437s1.115 2.877.553 3.85c0 0-.241 1.068.16 1.613.402.544 1.188 7.48.393 10.188-.795 2.707.01 4.736.01 4.736s-.1.93-.393 1.142C87.983 93.47 89 94.4 89 94.4a1.363 1.363 0 0 1-1.62.508c-1.045-.38-4.06-.127-4.06-.127s-.483-.598 0-1.081c.482-.484 1.327-.442.924-.95-.403-.507-.724-.973-.523-2.115.202-1.141.121-4.356.121-4.356s-.362-3.13-.12-3.467c.24-.338.361-1.186-.242-1.82-.603-.634-1.005-3.262-.805-4.485l-2.25-7.907L76 60.986 82.498 60l5.968.986z"/>
            <path fill="#FEBFBA" d="M84 32.162V37h-6.822L77 36.525s.669-1.772 1.561-2.747c.443-.486.237-1.38-.084-2.156a9.592 9.592 0 0 0-.764-1.453s6.153-3.692 5.842-1.442a7.3 7.3 0 0 0-.063 1.45c.075 1.304.508 1.985.508 1.985z"/>
            <path fill="#000" d="M83.988 28.764a7.86 7.86 0 0 0-.064 1.523c-1.252 1.459-3.27 2.055-5.141 1.519A10.17 10.17 0 0 0 78 30.279s6.308-3.88 5.988-1.515z" opacity=".1"/>
            <path fill="#FEBFBA" d="M85 26.495A4.5 4.5 0 1 1 80.501 22 4.492 4.492 0 0 1 85 26.495z"/>
            <path fill="#000" d="M79.009 33l-1.911 3.093L76 44.415v6.823l.244 2.432 4.53.33 2.015-6.867 1.545-7.03L86 38.66l-3.943-4.537s-.76 1.083-1.62 1.712a.723.723 0 0 1-.876-.011.749.749 0 0 1-.238-.855c.244-.648.465-1.368.295-1.54a1.752 1.752 0 0 0-.813-.424" opacity=".1"/>
            <path fill="#E6E8EC" d="M78.009 33l-1.911 3.093L75 44.415v6.823l.244 2.432 4.53.33 2.015-6.867 1.545-7.03L85 38.66l-3.943-4.537s-.76 1.083-1.62 1.712a.723.723 0 0 1-.876-.011.749.749 0 0 1-.238-.855c.244-.648.465-1.368.295-1.54a1.752 1.752 0 0 0-.813-.424"/>
            <path fill="#000" d="M85 63h4l-.536-2.785L88.381 59l-1.937 1.304z" opacity=".1"/>
            <path fill="#E6E8EC" d="M85 62h4l-.536-2.785L88.381 58l-1.937 1.304z"/>
            <path fill="#000" d="M78.918 32s-3.764 2.124-3.892 2.78c-.128.655-1.026 5.156-1.026 5.156V44l3.72-1.394-.213-5.557 1.325-3.318s.312-1.093.086-1.731z" opacity=".1"/>
            <path fill="#FF718D" d="M78.918 32s-3.764 2.124-3.892 2.78c-.128.655-1.026 5.156-1.026 5.156V44l3.72-1.394-.213-5.557 1.325-3.318s.312-1.093.086-1.731z"/>
            <path fill="#000" d="M89.21 61.35c.04 1.704-.46 3.385-.46 3.385-.627-.605-1.155-2.398-1.344-3.284-.316 1.092-2.83 3.054-2.83 3.054v.595c-.126 1.663-5.385.512-5.385.512l.334-21.398s.417-4.05-.125-5.273c-.542-1.222-.376-3.423-.376-3.423s.501-.895 1.043-1.193c.543-.298 3.576-3.232 3.67-3.325a2.721 2.721 0 0 0 0 .366c.078 1.073.835 1.142.835 1.142.667.273 2.88 3.777 2.88 3.777 1.043.472 1.879 1.918 2.296 2.655.417.737.293 1.99.293 1.99s.709.895.709 1.492.25 1.79.25 1.79l-2.086 4.938.125 7.12s.129 3.375.17 5.08z" opacity=".1"/>
            <path fill="#FF718D" d="M89.212 60.35c.041 1.704-.46 3.385-.46 3.385-.626-.605-1.155-2.399-1.344-3.285-.315 1.092-2.83 3.054-2.83 3.054v.596c-.125 1.663-5.385.512-5.385.512l.028-1.746v-.165l.304-19.485s.417-4.05-.125-5.273c-.542-1.223-.376-3.424-.376-3.424s.501-.896 1.043-1.194c.543-.298 3.576-3.232 3.67-3.325a2.722 2.722 0 0 0 0 .366c.078 1.073.835 1.142.835 1.142.667.274 2.88 3.778 2.88 3.778 1.043.472 1.879 1.919 2.296 2.655.417.737.293 1.99.293 1.99s.709.896.709 1.493c0 .597.25 1.79.25 1.79l-1.847 4.382-.234.553.125 7.121s.126 3.374.168 5.08z"/>
            <path fill="#000" d="M88.999 98.325s-1.647 1.045-2.823 1.424c-1.177.379-3.827.288-4.811 0-.658-.194-.31-.856.14-1.385.19-.227.4-.433.63-.617.492-.379 1.048-1.913 1.39-2.224.343-.31-.107-1.4-.107-1.4s.791-.979 1.176-1.112c.385-.134 2.288 1 2.288 1l1.39.245c-.15.2.492 1.868.62 2.112.06.116.087.557.099.992.014.487.008.965.008.965z" opacity=".1"/>
            <path fill="#626696" d="M88.999 98.325s-1.647 1.045-2.823 1.424c-1.177.379-3.827.288-4.811 0-.658-.194-.31-.856.14-1.385.19-.227.4-.433.63-.617.492-.379 1.048-1.913 1.39-2.224.343-.31-.107-1.4-.107-1.4s.791-.979 1.176-1.112c.385-.134 2.288 1 2.288 1l1.39.245c-.15.2.492 1.868.62 2.112.06.116.087.557.099.992.014.487.008.965.008.965z"/>
            <path fill="#000" d="M88.999 98.733s-1.647.79-2.823 1.077c-1.177.286-3.827.218-4.811 0-.658-.146-.31-.647.14-1.047 1.16.166 5.206.02 5.206.02l2.28-.783c.014.372.008.733.008.733zM86 98s-1.906-1.485-2.85-.836C82.208 97.814 86 98 86 98z" opacity=".1"/>
            <path fill="#4C4981" d="M72.084 75v11.036c.001.403-.088.802-.26 1.17L70.976 89a2.454 2.454 0 0 0-.022 2.035c.13.315.215.593.088.628-.303.084-1.043.51-1.043.51s4.217 4.837 5.782 3.635c1.565-1.203.827-9.202.827-9.202s.087-7.046.173-7.17c.086-.125.218-3.98.218-3.98L72.084 75z"/>
            <path fill="#000" d="M85 31.336L80.804 34H79s.541-.793 1.127-1.056c.587-.264 3.865-2.861 3.968-2.944a.625.625 0 0 0 0 .324c.146.541.905 1.012.905 1.012z" opacity=".1"/>
            <path fill="#FF718D" d="M85 31.336L80.804 34H79s.541-.793 1.127-1.056c.587-.264 3.865-2.861 3.968-2.944a.625.625 0 0 0 0 .324c.146.541.905 1.012.905 1.012z"/>
            <path fill="#000" d="M85 26.635A4.594 4.594 0 0 1 83.532 30v-.062c.044-.731-.091.009.132-.758.065-.215-.092-.451-.245-.618-.154-.166-.44-.235-.612-.088-.173.147-.16.431-.327.587-.208.195-.582.056-.724-.19-.14-.248-.122-.55-.114-.833.007-.283 0-.591-.192-.807-.192-.216-.46-.282-.599-.505-.206-.328.024-.78-.116-1.14-.132-.33-.528-.482-.892-.465-.841.04-1.671.6-2.523.266-.336-.13-.576-.469-.903-.59a2.085 2.085 0 0 0-.417-.096c.925-1.98 3.125-3.059 5.288-2.594 2.163.466 3.706 2.35 3.707 4.528H85z" opacity=".1"/>
            <path fill="#36123A" d="M75.09 24.806a1.524 1.524 0 0 1-.04-.903c.138-.642.537-1.272 1.17-1.515.314-.125.659-.142.986-.223.78-.195 1.42-.737 2.182-.992s1.593-.21 2.357.016c.758.245 1.47.606 2.11 1.069.635.436 1.242.934 1.657 1.57.414.634.617 1.43.4 2.15-.14.465-.44.866-.663 1.298-.39.766-.546 1.625-.61 2.478-.02.26-1.133 1.448-1.34 1.216-.156-.174-.141-.43-.13-.659.043-.703-.09.008.13-.728.063-.207-.092-.435-.243-.595-.15-.16-.431-.225-.6-.085-.17.14-.159.416-.323.565-.205.187-.573.054-.712-.184-.139-.237-.12-.526-.112-.798.01-.273 0-.57-.19-.777-.19-.208-.452-.272-.587-.484-.203-.317.022-.75-.116-1.097-.13-.318-.52-.464-.877-.448-.827.04-1.644.578-2.482.257-.33-.125-.566-.452-.888-.567-.449-.166-.846-.016-1.079-.564z"/>
            <path fill="#000" d="M74.979 97l-10.25-.27c-.62-.35-.778-.716-.717-1.046.113-.608.964-1.086.964-1.086l2.723-.38L70.323 92c.42.253.531 1.014.531 1.014s3.363 2.323 3.816 2.408c.227.042.304.437.324.821.012.253.007.505-.015.757z" opacity=".1"/>
            <path fill="#626696" d="M74.979 97l-10.25-.27c-.62-.35-.778-.716-.717-1.046.113-.608.964-1.086.964-1.086l2.723-.38L70.323 92c.42.253.531 1.014.531 1.014s3.363 2.323 3.816 2.408c.227.042.304.437.324.821.012.253.007.505-.015.757z"/>
            <path fill="#000" d="M74.979 97l-10.25-.205c-.62-.266-.778-.545-.717-.795l10.982.425c.012.192.007.384-.015.575z" opacity=".1"/>
            <g fill="#000" opacity=".1">
                <path d="M83.355 29.486c.054-.125.097-.254.13-.387.061-.214-.093-.449-.243-.614-.15-.165-.43-.232-.598-.088-.168.145-.158.43-.32.584-.205.193-.571.055-.71-.19-.138-.245-.12-.543-.111-.825.009-.28 0-.588-.189-.802-.189-.214-.45-.28-.585-.5-.202-.327.022-.774-.115-1.132-.13-.328-.518-.48-.874-.462-.823.041-1.637.596-2.471.264-.33-.129-.563-.466-.884-.584-.455-.17-.85-.015-1.08-.584a1.629 1.629 0 0 1-.041-.931l.026-.111c-.068.16-.12.327-.155.498-.08.31-.067.638.038.94.23.57.627.415 1.081.584.32.119.555.454.884.584.835.332 1.649-.223 2.472-.264.352-.017.748.129.873.462.137.36-.087.805.115 1.133.13.219.418.303.585.499.167.196.197.516.19.803-.009.286-.028.579.11.824.139.245.505.387.71.19.163-.154.15-.436.32-.583.171-.148.448-.077.599.087.15.164.301.394.243.605zM83.478 30.538c-.156-.18-.141-.444-.13-.68.016-.12.016-.24 0-.36-.218.75-.088.023-.13.747-.013.236-.028.5.13.68.206.24 1.314-.987 1.333-1.255 0-.048.01-.097.013-.145-.294.441-1.05 1.207-1.216 1.013zM85.419 26.724a4.98 4.98 0 0 0-.32.835c.056-.153.12-.302.19-.448.223-.446.518-.86.66-1.34.01-.036.02-.072.028-.108-.154.367-.38.706-.558 1.06z"/>
            </g>
            <path fill="#000" d="M72 87s.214.881.844.992C73.473 88.103 72 87 72 87zM72 92s.457.021.908 0S72 92 72 92zM85 82.997s.587.09.94-.751c.351-.842-.94.751-.94.751zM88 78s-1.207.676-.969.958C87.27 79.24 88 78 88 78zM87 80c.096-.064.809-.49.982-.916C88.156 78.657 87 80 87 80z" opacity=".1"/>
            <path fill="#B15885" d="M60 97.31l-.96.376L57.6 98l-1.262-.44L56 96.557s.563-1.764.584-3c0-.115 0-.224-.008-.327a5.575 5.575 0 0 1 .077-1.412c.047-.277.118-.55.211-.817h2.016l.219 1.115.256 1.333c.092.262.147.535.164.812a.694.694 0 0 1-.036.24.216.216 0 0 0-.013.058c-.005.22.016.441.062.657v.009c.148.844.468 2.085.468 2.085zM65.978 98L63 97.589s.16-.645.29-1.52c.05-.327.094-.688.125-1.059.04-.555.2-1.092.466-1.566a2.14 2.14 0 0 1 .322-.444l1.775.443s.014.38.02.85c.008.706 0 1.626-.106 1.825l-.007.015c-.158.36.093 1.867.093 1.867z"/>
            <path fill="#000" d="M59.98 94l-.008-1 .056.318c.002.187-.01.373-.036.55a1.074 1.074 0 0 0-.012.132zM60 96.41l-.96.321L57.6 97l-1.262-.376-.338-.86s.563-1.51.584-2.567l.069-.197-.256 2.579a.53.53 0 0 0 .185.446c.134.12.322.187.518.185l1.864-.022a.758.758 0 0 0 .511-.196.525.525 0 0 0 .172-.449l-.113-.92c.146.723.466 1.786.466 1.786z" opacity=".1"/>
            <path fill="#626696" d="M57.222 93c-.3 1.01-.671 2-1.113 2.96-.501 1.044.853 2.267 1.521 2.785.212.165.476.255.748.255h.857c.377 0 .732-.171.958-.464.365-.471.845-1.214.805-1.812-.066-.956-.89-2.918-.89-2.918l.009.525.177 1.688a.68.68 0 0 1-.176.531.723.723 0 0 1-.522.233l-1.912.026a.723.723 0 0 1-.53-.22.68.68 0 0 1-.19-.528L57.221 93z"/>
            <path fill="#000" d="M58.821 91l.179.713c-.442.613-1.507.097-2-.19.039-.178.096-.353.173-.523h1.648zM67 93.954c-.556.225-1.697-.44-2-.626.084-.12.186-.23.304-.328l1.678.327s.013.278.018.627z" opacity=".1"/>
            <path fill="#E6E8EC" d="M70.37 70.688c-.279.59-.866 6.902-.773 8.487.092 1.586-.186 4.073-.186 4.073s-1.082 5.72-1.948 7.337a8.69 8.69 0 0 0-.959 3.233c-.618.684-2.535-.777-2.535-.777.494-.28.556-3.451.68-3.7.124-.249.154-1.337.154-1.337l.34-6.528s.155-1.865-.309-2.518c-.463-.653 0-2.612 0-2.612l-.212-5.596-.248-3.233s-.556 3.451-1.02 4.632c-.464 1.182-.464 4.135-.464 4.135-.093 1.928-1.268 4.29-1.268 4.29 0 2.332-1.608 8.052-1.886 8.456-.279.404 0 1.897 0 1.897-.619 1.523-2.735-.405-2.735-.405s.354-1.057.199-1.305c-.155-.249-.2-1.741-.2-1.741s.51.653.107-2.798a16.66 16.66 0 0 1 .474-6.249s.547-2.176.257-4.352c-.29-2.176-.257-6.156-.257-6.156v-4.89l.516-.954s11.658-1.834 12.524-.715c.133.214.217.455.247.706.413 2.221-.255 8.104-.498 8.62z"/>
            <path fill="#000" d="M70 77s-.96.6-1 1c0 0 .905-.594 1-1zM69 79.241S66.218 81.1 65 79c1.272.77 2.69.855 4 .241z" opacity=".1"/>
            <path fill="#000" d="M66 79.867s2.547.599 3 0h-3zM59 76.883s-.745.397-1 .158l1-.158zM59 77.846s-.977.126-1 .276c-.023.15 1-.276 1-.276zM58 63.132s5.462-.058 6.396.38C65.33 63.947 66 63 66 63l-1.494 4s-.639-4.607-6.242-2.882L58 63.132z" opacity=".1"/>
            <path fill="#1E1637" d="M57.637 31.68c-.132.218-.264.503-.132.72.056.069.115.135.178.197.078.11.131.237.155.372.157.657.19 1.398-.164 1.966-.165.265-.404.475-.538.758-.19.394-.146.864-.077 1.299.064.543.215 1.07.447 1.56a2.08 2.08 0 0 0 1.15 1.06c.293.092.646.12.818.383.19.287.08.761.365.946.196.127.45.025.66-.08.293-.145.614-.324.713-.644.062-.203.026-.441.144-.615.095-.137.264-.208.36-.354a.762.762 0 0 0 .086-.312l.176-1.39c.022-.127.028-.256.016-.384-.04-.32-.272-.57-.484-.804-.338-.372-.668-.785-.792-1.28-.188-.771.155-1.564.211-2.357a1.277 1.277 0 0 0-.035-.468c-.08-.2-.199-.38-.35-.529a2.69 2.69 0 0 0-.528-.494c-.448-.287-.931-.226-1.43-.222-.499.004-.684.236-.949.671z"/>
            <path fill="#B15885" d="M57 43.299l-.516.93-.128.124c-.58.524-2.886 2.591-3.196 2.646-.354.062-2.16-2.704-2.16-2.704l2.717-2.207.108-.088L57 43.299zM67 40.29l-4.031 1.665s-3.972.493-2.727-1.788a4.37 4.37 0 0 0 .394-1c.516-1.974-.394-3.872-.394-3.872s4.683-4.317 4.09-1.11c-.295 1.603.368 3.123 1.106 4.248A10.29 10.29 0 0 0 67 40.29z"/>
            <circle cx="62" cy="33" r="4" fill="#000" opacity=".1"/>
            <circle cx="62" cy="33" r="4" fill="#B15885"/>
            <path fill="#000" d="M67 41.083l-4.031 1.867s-3.972.553-2.727-2.006c.171-.352.304-.73.394-1.121.902 1.347 2.273 1.536 2.273 1.536 1.602.195 1.908-1.22 2.53-2.359.447.764.971 1.463 1.561 2.083zM57 43.105l-.468.79-.117.105-.645-.505-1.77-1.39.019-.03.098-.075zM71 62c-1.134.465-2.985.601-3.694.628-1.028.04-2.157.078-4.295 1.048-2.138.969-5.011-.543-5.011-.543V62.9l.505-.892s11.402-1.717 12.25-.67c.13.201.215.427.245.662z" opacity=".1"/>
            <path fill="#FFCDE5" d="M71.993 60.908c-.17 1.265-3.76 1.56-4.836 1.601-1.077.042-2.26.085-4.499 1.138-2.239 1.054-5.248-.589-5.248-.589v-.172c0-.493.006-1.945 0-2.956v-.835c0-.46 0-1.106-.032-1.737a7.737 7.737 0 0 0-.168-1.425c-.202-.805-.018-1.265.173-1.707l.027-.064c.2-.463-.032-1.18-.2-1.854a5.983 5.983 0 0 1-.127-1.163c-.011-.389 0-.692 0-.692.38-.927.307-1.833.158-2.638-.147-.807-.37-1.518-.285-2.04a2.085 2.085 0 0 0-.012-.827.952.952 0 0 0-.326-.564l-.702-.611L54 42.106s.386-.694.822-1.692a19.436 19.436 0 0 0 .825-2.228c.59-2.024 3.759-.844 3.759-.844.043 3.626 3.252 4.005 3.252 4.005 2.028.211 2.113-1.644 3.115-2.697 1.002-1.054 4.615 1.644 4.615 1.644s.028.977-.02 2.285a27.568 27.568 0 0 1-.324 3.486c-.15.885-.366 1.704-.67 2.276a4.714 4.714 0 0 0-.253.577 5.555 5.555 0 0 0-.343 1.981c0 .127 0 .253.013.37.027.428.094.851.2 1.266.038.148.082.295.135.438a126.79 126.79 0 0 1 1.33 3.074c.223.543.451 1.113.66 1.665.307.807.573 1.579.733 2.18.113.455.172.809.144 1.016z"/>
            <path fill="#FF90C9" d="M70 41.697a23.411 23.411 0 0 1-.313 3.152c-.332.075-.672.12-1.014.133-.517.012-1.03-.086-1.547-.099-.555-.013-1.107.071-1.663.102-1.107.063-2.215-.085-3.315-.229l-1.034-.14a8.435 8.435 0 0 1-.847-.144c-.234-.055-.46-.132-.69-.198a13.44 13.44 0 0 0-2.53-.436.85.85 0 0 0-.314-.51l-.678-.553c-.312-.887-.623-1.775-.933-2.662a5.836 5.836 0 0 1-.122-.374A16.91 16.91 0 0 0 55.706 38c.15.454.337.897.56 1.325.133.268.3.52.497.751.482.536 1.196.836 1.905 1.06 1.835.571 3.774.756 5.696.932.625.07 1.254.103 1.883.102.49-.011.978-.065 1.468-.114.77-.07 1.533-.19 2.285-.36zM69 49.145a5.89 5.89 0 0 0-.341 2.04h-.014c-.428.184-.836.423-1.282.556-.478.12-.968.178-1.46.17-.734.023-1.468.043-2.203.06-2.247.057-4.54.093-6.695-.542-.011-.4 0-.713 0-.713.379-.954.306-1.886.158-2.716.218.11.453.283.553.33.402.195.816.36 1.24.492 1.112.345 2.274.465 3.439.52 1.89.093 3.786.063 5.673-.09a6.76 6.76 0 0 0 .932-.107zM70 56.427c-.189.035-.377.075-.565.114-.517.099-1.03.228-1.532.388-.458.156-.896.362-1.36.52-1.088.381-2.249.479-3.399.523a37.345 37.345 0 0 1-5.894-.24 7.983 7.983 0 0 0-.165-1.43c-.196-.807-.017-1.269.17-1.713.52.038 1.097.204 1.394.254.946.155 1.894.339 2.856.353.58-.003 1.16-.037 1.738-.102l1.426-.135c.441-.033.88-.092 1.315-.177.421-.092.832-.231 1.248-.348.574-.16 1.172-.278 1.751-.434.252.571.63 1.458 1.017 2.427zM72 59.034c-.742.208-1.46.48-2.142.816-.527.27-1.032.591-1.59.818a9.47 9.47 0 0 1-1.903.486c-1.245.218-2.496.41-3.754.578-1.86.237-3.78.416-5.611.092 0-.46.007-1.818 0-2.762.669-.134 1.58-.032 2.146-.011 1.317.047 2.616.286 3.925.213a16.49 16.49 0 0 0 1.983-.274l3.719-.67c.203-.025.4-.082.582-.167.164-.103.314-.222.448-.355.405-.355.921-.583 1.43-.798.331.75.601 1.472.767 2.034z"/>
            <path fill="#000" d="M68.954 56.01c.349-.064.697.204 1.046.133-.121.277-.375.316-.594.364a4.45 4.45 0 0 0-.7.239c-.092.036-.623.332-.689.234-.156-.236.794-.945.937-.97zM69.398 58.09a3.092 3.092 0 0 0-.483.354c-.267.204-.58.352-.915.434a1.06 1.06 0 0 0 1.114-.078c.085-.083.185-.153.296-.206.09-.032.19-.029.28-.063.117-.046.364-.313.3-.443-.085-.165-.475-.058-.592.002zM67.085 52.23c.106.178.286.178.435.265.098.065.192.141.282.229.367.307.803.36 1.198.147-.149-.34-.321-.695-.577-.82-.212-.104-.442-.026-.663.033a.788.788 0 0 1-.515.014c-.142-.06-.37-.221-.16.132zM58.172 28.172c-.594.653-.785 1.653-1.536 2.122-.21.132-.454.211-.662.348-.613.4-.798 1.191-.933 1.905-.086.45-.07 1.07.376 1.183.145.036.298 0 .444.029.376.067.566.496.533.876-.032.38-.217.714-.321 1.074a.636.636 0 0 0 .006.482.56.56 0 0 0 .4.249c.501.089 1.012-.204 1.314-.611.301-.407.433-.911.538-1.404.176-.816.302-1.642.377-2.474.063-.713.094-1.458.442-2.087.348-.63 1.13-1.094 1.801-.828.477.187.823.7 1.336.72.152.007.316-.031.45.043a.583.583 0 0 1 .21.266c.544 1.077 1.03 2.251.9 3.45-.082.744-.404 1.476-.337 2.227.047.541.296 1.056.292 1.6-.004.544-.243 1.025-.398 1.533a4.804 4.804 0 0 0-.135 2.21c.028.246.119.482.265.685a.632.632 0 0 0 .665.232l.193 1.31a.56.56 0 0 0 .09.27c.232.295.697-.083 1.074-.041.14.496.668.793 1.179.894.51.1 1.044.063 1.554.17.48.1.93.326 1.419.383 1.172.137 2.336-.927 2.29-2.095-.03-.812-.54-1.52-.809-2.289-.753-2.167.447-4.66-.354-6.814-.251-.688-.702-1.291-1.004-1.962-.48-1.067-.6-2.32-1.359-3.217a5.072 5.072 0 0 0-1.11-.915c-.389-.257-.792-.507-1.244-.62-.762-.191-1.559.03-2.34.114-.828.088-1.625-.124-2.441-.078a7.863 7.863 0 0 0-2.094.372 2.626 2.626 0 0 0-1.071.688z" opacity=".1"/>
            <path fill="#1E1637" d="M58.172 28.172c-.594.653-.785 1.653-1.536 2.122-.21.132-.454.211-.662.348-.613.4-.798 1.191-.933 1.905-.086.45-.07 1.07.376 1.183.145.036.298 0 .444.029.376.067.566.496.533.876-.032.38-.217.714-.321 1.074a.636.636 0 0 0 .006.482.56.56 0 0 0 .4.249c.501.089 1.012-.204 1.314-.611.301-.407.433-.911.538-1.404.176-.816.302-1.642.377-2.474.063-.713.094-1.458.442-2.087.348-.63 1.13-1.094 1.801-.828.477.187.823.7 1.336.72.152.007.316-.031.45.043a.583.583 0 0 1 .21.266c.544 1.077 1.03 2.251.9 3.45-.082.744-.404 1.476-.337 2.227.047.541.296 1.056.292 1.6-.004.544-.243 1.025-.398 1.533a4.804 4.804 0 0 0-.135 2.21c.028.246.119.482.265.685a.632.632 0 0 0 .665.232l.193 1.31a.56.56 0 0 0 .09.27c.232.295.697-.083 1.074-.041.14.496.668.793 1.179.894.51.1 1.044.063 1.554.17.48.1.93.326 1.419.383 1.172.137 2.336-.927 2.29-2.095-.03-.812-.54-1.52-.809-2.289-.753-2.167.447-4.66-.354-6.814-.251-.688-.702-1.291-1.004-1.962-.48-1.067-.6-2.32-1.359-3.217a5.072 5.072 0 0 0-1.11-.915c-.389-.257-.792-.507-1.244-.62-.762-.191-1.559.03-2.34.114-.828.088-1.625-.124-2.441-.078a7.863 7.863 0 0 0-2.094.372 2.626 2.626 0 0 0-1.071.688z"/>
            <path fill="#000" d="M58.03 37.146c.092.335.376.56.564.845.212.331.293.742.225 1.14-.113.639-.602 1.232-.44 1.858.072.221.184.424.33.595.46.617.995 1.264 1.713 1.4a.62.62 0 0 0 .338-.015.711.711 0 0 0 .292-.26c.3-.424.421-.969.33-1.496a7.136 7.136 0 0 1-.15-.72c-.04-.526.236-1.009.465-1.479.23-.47.422-1.03.215-1.507-.147-.339-.463-.547-.77-.714a7.225 7.225 0 0 0-2.143-.745c-.338-.062-.498-.115-.74.188-.194.252-.32.59-.23.91z" opacity=".1"/>
            <path fill="#1E1637" d="M58.03 37.146c.092.335.376.56.564.845.212.331.293.742.225 1.14-.113.639-.602 1.232-.44 1.858.072.221.184.424.33.595.46.617.995 1.264 1.713 1.4a.62.62 0 0 0 .338-.015.711.711 0 0 0 .292-.26c.3-.424.421-.969.33-1.496a7.136 7.136 0 0 1-.15-.72c-.04-.526.236-1.009.465-1.479.23-.47.422-1.03.215-1.507-.147-.339-.463-.547-.77-.714a7.225 7.225 0 0 0-2.143-.745c-.338-.062-.498-.115-.74.188-.194.252-.32.59-.23.91z"/>
            <path fill="#000" d="M69 52a.935.935 0 0 1-.283-.131 2.456 2.456 0 0 1-.472-.454 6.923 6.923 0 0 1-.697-.92c-.225-.367-.579-1.025-.546-1.493.113-.02.338.141.44.21.155.128.29.289.396.474.164.235.353.444.563.622.141.107.276.224.404.352l.013.014c.024.448.085.892.182 1.326z" opacity=".1"/>
            <g fill="#000" opacity=".1">
                <path d="M57.964 35.044c-.3.413-.808.71-1.308.619a.553.553 0 0 1-.398-.252.432.432 0 0 1-.043-.126 4.805 4.805 0 0 0-.089.268.668.668 0 0 0 .007.49c.089.14.235.232.398.252.5.092 1.008-.206 1.308-.619.3-.413.431-.924.537-1.424.038-.18.073-.361.105-.543-.102.475-.233.946-.517 1.335zM56.45 34.354c.063-.166.105-.34.125-.517.031-.378-.161-.821-.532-.89-.145-.026-.298.008-.44-.028-.408-.105-.457-.636-.398-1.074-.04.167-.074.337-.105.503-.085.457-.07 1.086.375 1.2.143.037.295 0 .44.03.335.061.525.427.535.776zM63.864 33.325c0 .055-.013.107-.02.162.064-.26.112-.525.145-.791.125-1.215-.354-2.407-.895-3.5a.59.59 0 0 0-.209-.27c-.132-.075-.296-.036-.449-.042-.511-.021-.853-.541-1.33-.733-.67-.268-1.447.204-1.792.841-.19.377-.31.785-.354 1.205.055-.2.131-.393.229-.575.345-.637 1.125-1.11 1.792-.841.477.191.819.711 1.33.733.153 0 .317-.033.449.042a.59.59 0 0 1 .209.27c.541 1.093 1.025 2.284.895 3.5zM69.825 44.336c-.485-.058-.934-.287-1.411-.389-.509-.108-1.039-.069-1.548-.172-.508-.104-1.035-.402-1.173-.907-.375-.043-.84.341-1.07.042a.575.575 0 0 1-.09-.274l-.192-1.33a.623.623 0 0 1-.662-.235 1.49 1.49 0 0 1-.265-.695 4.985 4.985 0 0 1-.027-1.475 4.982 4.982 0 0 0-.098 2.105c.028.25.12.49.265.695a.623.623 0 0 0 .662.235l.193 1.33a.575.575 0 0 0 .088.273c.232.3.696-.084 1.07-.041.14.503.666.804 1.174.906.509.102 1.039.065 1.548.173.477.102.926.331 1.411.389 1.134.133 2.25-.881 2.28-2.021-.326.856-1.236 1.5-2.155 1.391zM63.946 36.577c0-.552-.25-1.074-.292-1.623-.017-.23-.007-.46.03-.688-.12.428-.172.873-.155 1.317.047.55.295 1.072.292 1.623 0 .042 0 .082-.007.126.08-.244.124-.498.132-.755z"/>
            </g>
            <path fill="#000" d="M66 98l-3-.426s.16-.666.292-1.571l-.043.785c-.011.198.12.368.293.383l1.939.174a.295.295 0 0 0 .234-.084.381.381 0 0 0 .112-.249v-.62l.056-.392c.009.018.015.04.024.06-.16.38.093 1.94.093 1.94z" opacity=".1"/>
            <path fill="#626696" d="M63.71 96s-1.199 2.831-.48 3.6c.517.566 2.317.404 3.242.276.317-.043.549-.37.527-.74-.05-.86-.167-2.326-.389-2.886l-.063.453v.713a.442.442 0 0 1-.126.285.325.325 0 0 1-.262.096l-2.174-.199c-.194-.018-.34-.214-.329-.44L63.71 96z"/>
            <path fill="#985C7E" d="M63.466 31.642c-.06.543.214 1.06.37 1.584a3.813 3.813 0 0 1-.245 2.779c-.17.335-.387.65-.507 1.007-.32.97.308 2.141 1.296 2.422.273.078.567.096.815.235.505.28.645.942.632 1.517-.013.576-.09 1.188.18 1.698.225.43.668.709 1.124.88a3.839 3.839 0 0 0 2.541.04c.28-.086.54-.23.758-.425.354-.338.5-.84.55-1.328a4.428 4.428 0 0 0-.548-2.598c-.369-.655-.903-1.204-1.313-1.831a6.123 6.123 0 0 1-1.003-3.025c-.031-.548.013-1.104-.098-1.643a2.958 2.958 0 0 0-1.29-1.875c-.322-.205-.682-.344-.995-.56-.314-.215-.467-.572-.821-.512-.643.093-1.38 1.04-1.446 1.635z"/>
            <g fill="#000" opacity=".1">
                <path d="M63.88 35.262a3.852 3.852 0 0 0 .112-2.492c-.156-.527-.43-1.045-.37-1.591 0-.018.008-.039.01-.058-.07.14-.116.29-.14.444-.058.546.215 1.065.371 1.59.202.688.208 1.417.017 2.107zM70.586 42.969c-.219.195-.477.34-.758.426a3.823 3.823 0 0 1-2.54-.04c-.457-.171-.903-.452-1.125-.883-.269-.515-.186-1.126-.18-1.705.007-.58-.129-1.242-.632-1.526-.248-.137-.542-.157-.814-.234-.93-.265-1.54-1.322-1.343-2.257a2.95 2.95 0 0 0-.083.21c-.319.975.308 2.151 1.297 2.433.272.078.566.097.814.235.506.283.645.947.632 1.525-.013.578-.089 1.193.18 1.705.225.432.668.712 1.125.883a3.823 3.823 0 0 0 2.54.04c.28-.085.54-.23.758-.426.24-.246.406-.557.475-.894-.081.19-.199.363-.346.508z"/>
            </g>
            <path fill="#FFD2C6" d="M77 98.564L75.852 99 73 98.087l.462-1.116.401-.971 2.626.21.235 1.08zM82 98.347L80.44 99l-1.788-.348-.398-1.114L78 96.84s3.279-1.235 2.74-.712c-.215.209-.054.607.214 1.01.305.428.655.832 1.046 1.208z"/>
            <path fill="#000" d="M77 97l-2.993-.193s0-.02-.007-.054l.369-.753 2.41.163L77 97z" opacity=".1"/>
            <path fill="#CEDDF9" d="M81.267 70.508l-.319.18-4.171 2.322.316 12.887s.064 3.57-.181 5.567c-.033.34-.1.674-.199 1-.474 1.346.222 4.536.222 4.536l-3.37-.25s-.139-1.096-.012-1.82c.126-.722-.727-5.313-.727-5.313s-.695-6.537-1.011-6.724c-.316-.188-.759-2.377-.759-3.098 0-.72-1.17-5.63-1.174-5.722-.005-.093-.632-3.941-.632-4.567 0-.625-.404-4.659-.185-5.66.086-.391.207-.914.322-1.403.18-.76.345-1.443.345-1.443s11.03.72 11.947 2.188c.102.176.173.367.211.566.449 2.019-.623 6.754-.623 6.754z"/>
            <path fill="#000" d="M81.859 68L82 70.632l-.071.182-4.355 2.37.33 13.14s.067 3.64-.189 5.676c-.22-.788-.66-1.87-.636-1.977.033-.16-1.946-4.72-2.771-5.582-.825-.86-1.308-2.934-1.308-2.934s.12-4.273.582-4.847c.462-.575 1.268-7.716 1.268-7.716L81.86 68zM81 96.724a.84.84 0 0 0-.41.144c-.164.159-1.468.142-2.332.113L78 96.536s3.33-.787 2.783-.454c-.218.131-.055.386.217.642z" opacity=".1"/>
            <path fill="#CEDDF9" d="M74.593 68.862s-.557 7.11-1.016 7.664c-.459.554-.577 4.679-.577 4.679s.479 2 1.298 2.832c.82.83 2.786 5.233 2.753 5.387-.033.153.95 2.4.721 2.677-.23.277-.029 1.847.035 1.94.065.092.49.604.194 1.056-.295.452-.262 1.815-.262 1.815s2.655.268 2.884-.132c.23-.4 1.377-.313 1.377-.313s-.983-3.411-.688-4.15c.295-.739-1.246-7.88-2-9.511-.753-1.632.263-6.187.263-6.187l2.36-5.91L82 68l-7.407.862z"/>
            <path fill="#4C4981" d="M69 49l2.614 1.776.386 4.038v3.535L71.658 60l-2.319-.167.084-6.541z"/>
            <path fill="#000" d="M69 49l2.614 1.776.386 4.038v3.535L71.658 60l-2.319-.167.084-6.541z" opacity=".1"/>
            <path fill="#FFD2C6" d="M68 37.584s3.61 3.162 3.407 7.054c-.201 3.891 3.583-1.792 3.583-1.792l1.01-2.8s-4.483-2.269-4-5.204c.484-2.935-4 2.742-4 2.742z"/>
            <circle cx="69" cy="35" r="4" fill="#000" opacity=".1"/>
            <circle cx="69" cy="35" r="4" fill="#FFD2C6"/>
            <path fill="#000" d="M69.933 42s-1.062 1.206-1.406 1.206c-.343 0 .294 4.815-.318 5.743-.613.928.318 2.708.318 2.708l.25 4.75s-.66 5.262-.568 5.491c.09.23.944 0 .944 0l.373-5.298s-.118-3.628.039-4.467c.157-.838-.106-3.747.183-4.43.29-.683.25-2.065.25-2.065L69.933 42z" opacity=".1"/>
            <path fill="#4C4981" d="M69.933 42s-1.062 1.206-1.406 1.206c-.343 0 .294 4.815-.318 5.743-.613.928.318 2.708.318 2.708l.25 4.75s-.66 5.262-.568 5.491c.09.23.944 0 .944 0l.373-5.298s-.118-3.628.039-4.467c.157-.838-.106-3.747.183-4.43.29-.683.25-2.065.25-2.065L69.933 42z"/>
            <path fill="#000" d="M82 63.765c-1.495.125-6.138.482-7.018-.043-.986-.59-4.158-.94-4.982-1.274.172-.762.331-1.448.331-1.448s10.587.722 11.466 2.197c.098.176.166.368.203.568z" opacity=".1"/>
            <path fill="#F86280" d="M83 62.727s-6.545.614-7.616 0c-1.07-.613-4.673-.963-5.205-1.309s.262-3.484.574-4.154c.313-.67.68-1.122.631-1.404-.048-.283.131-.823.247-1.105.116-.282.415-1.023.415-1.023s-.326-.286 0-1.113.045-.195-.901-1.422c-.946-1.227-.345-4.54-.345-4.54L70.997 42l.876.939 1.041 1.114 1.606 1.703 2.182.614 2.14 2.413 2.182 4.523s.211 1.095.555 2.376c.159.595.348 1.227.557 1.813.658 1.837.864 5.232.864 5.232z"/>
            <path fill="#000" d="M82 56.37c-1.542.594-3.582 2.237-4.348 2.954-.984.923-2.783.88-2.655 0 .129-.88-2.485-7.162-2.485-7.162a27.099 27.099 0 0 0-1.25-4.049c-.77-1.937.377-4.56.643-5.113l1.083 1.169 1.671 1.787 2.271.644 2.227 2.532 2.271 4.745s.217 1.148.572 2.492z" opacity=".1"/>
            <path fill="#4C4981" d="M72.84 40.58l-.918 2.381s-1.507 3.03-.668 5.199c.506 1.31.91 2.658 1.212 4.033 0 0 2.534 6.258 2.409 7.134-.125.876 1.62.92 2.576 0s3.96-3.367 5.345-3.147c1.386.22 2.204-.423 2.204-.423s-2.522-3.358-2.397-4.78c.125-1.422-.997-4.838-.997-4.838s-.499-3.736-.854-4.646c-.355-.91-1.547-2.676-2.403-2.478-.856.2-3.474-.015-3.474-.015l-2.035 1.58z"/>
            <path fill="#000" d="M78 81s-.707.762-.962.931c-.256.17.874.085.962-.931zM79 82s-3.117.787-2.997.979C76.123 83.17 79 82 79 82zM78 83s-1.293.942-.938.998C77.416 84.053 78 83 78 83zM72.652 60s-1.64.124.28.762c1.92.64 3.068-.213 3.068-.213L72.652 60z" opacity=".1"/>
            <circle cx="71.5" cy="46.5" r="1" fill="#FFF"/>
            <circle cx="74.5" cy="46.5" r="1" fill="#FFF"/>
            <circle cx="73.5" cy="51.5" r="1" fill="#FFF"/>
            <circle cx="74.5" cy="54.5" r="1" fill="#FFF"/>
            <path fill="#FFF" d="M73 46.759h1.99L76.907 46l.094.29-1.875.71h-2.023z"/>
            <path fill="#4C4981" d="M72 42.598l1.988.402.012-4-1.189 1.032z"/>
            <path fill="#000" d="M67.882 32.539c.228-.056.464-.059.694-.01.264.09.507.237.715.43.535.43 1.107.925 1.23 1.62.122.696-.258 1.495.037 2.151.21.47.745.795.752 1.314 0 .214-.089.416-.152.618-.34 1.086.122 2.25.569 3.29.123.445.487.769.925.824l.616.177a.696.696 0 0 0 .34.041c.282-.062.385-.422.423-.722.03-.412.096-.82.198-1.22.121-.392.35-.764.703-.953.705-.366 1.526.153 2.308.17a.837.837 0 0 0 .51-.128c.365-.255.3-.88 0-1.225-.3-.344-.729-.501-1.126-.708a3.955 3.955 0 0 1-1.048-.779 1.983 1.983 0 0 1-.45-.696c-.132-.383-.093-.804-.07-1.21.067-1.154-.01-2.34-.44-3.405-.428-1.065-1.245-1.996-2.297-2.336-.592-.191-1.225-.189-1.833-.32-.476-.103-.933-.288-1.409-.39-.476-.102-.99-.119-1.427.107-.615.319-.949 1.042-1.527 1.43-.333.223-.772.365-.91.754-.164.463.213.993.055 1.458-.052.151-.157.278-.22.424-.063.147-.076.34.037.45a.38.38 0 0 0 .196.089c.517.102.875-.203 1.171-.594.322-.413.955-.56 1.43-.651z" opacity=".1"/>
            <path fill="#000" d="M78.288 39.005c-.389.054-.715.353-.836.769-.201.647-.508 1.877-.33 2.906.256 1.474.485 2.882.485 2.882v2.496s.058 2.401.403 3.01c.345.607-1.35 5.86-1.35 5.86l-1.551 4.89s-2.355 5.985-.201 6.177c2.153.192 1.88-5.527 1.88-5.527l2.514-4.888 1.35-3.188c.256-1.53.371-3.085.344-4.641-.03-2.72-.145-5.012-.145-5.012s-.603-4.238-1.292-5.006c-.458-.512-.846-.775-1.271-.728z" opacity=".1"/>
            <path fill="#FFD2C6" d="M78.288 39.005c-.389.054-.715.353-.836.769-.201.647-.508 1.877-.33 2.906.256 1.474.485 2.882.485 2.882v2.496s.058 2.401.403 3.01c.345.607-1.35 5.86-1.35 5.86l-1.551 4.89s-2.355 5.985-.201 6.177c2.153.192 1.88-5.527 1.88-5.527l2.514-4.888 1.35-3.188c.256-1.53.371-3.085.344-4.641-.03-2.72-.145-5.012-.145-5.012s-.603-4.238-1.292-5.006c-.458-.512-.846-.775-1.271-.728z"/>
            <path fill="#985C7E" d="M68.882 32.539c.228-.056.464-.059.694-.01.264.09.507.237.715.43.535.43 1.107.925 1.23 1.62.122.696-.258 1.495.037 2.151.21.47.745.795.752 1.314 0 .214-.089.416-.152.618-.34 1.086.122 2.25.569 3.29.123.445.487.769.925.824l.616.177a.696.696 0 0 0 .34.041c.282-.062.385-.422.423-.722.03-.412.096-.82.198-1.22.121-.392.35-.764.703-.953.705-.366 1.526.153 2.308.17a.837.837 0 0 0 .51-.128c.365-.255.3-.88 0-1.225-.3-.344-.729-.501-1.126-.708a3.955 3.955 0 0 1-1.048-.779 1.983 1.983 0 0 1-.45-.696c-.132-.383-.093-.804-.07-1.21.067-1.154-.01-2.34-.44-3.405-.428-1.065-1.245-1.996-2.297-2.336-.592-.191-1.225-.189-1.833-.32-.476-.103-.933-.288-1.409-.39-.476-.102-.99-.119-1.427.107-.615.319-.949 1.042-1.527 1.43-.333.223-.772.365-.91.754-.164.463.213.993.055 1.458-.052.151-.157.278-.22.424-.063.147-.076.34.037.45a.38.38 0 0 0 .196.089c.517.102.875-.203 1.171-.594.322-.413.955-.56 1.43-.651z"/>
            <g fill="#000" opacity=".1">
                <path d="M78.437 39.833c-.838-.017-1.715-.538-2.463-.17-.28.147-.504.38-.637.665.105-.118.232-.216.374-.286.752-.369 1.628.153 2.463.17.19.014.381-.031.545-.128a.59.59 0 0 0 .246-.376.95.95 0 0 1-.528.125zM74.558 42.565a.788.788 0 0 1-.363-.04l-.659-.179a1.59 1.59 0 0 1-.632-.277 1.533 1.533 0 0 1-.356-.549c-.48-1.042-.968-2.21-.606-3.299.089-.196.144-.405.163-.619-.008-.522-.578-.846-.804-1.318-.313-.658.095-1.44-.039-2.156-.133-.715-.742-1.193-1.313-1.627a2.211 2.211 0 0 0-.762-.43 1.811 1.811 0 0 0-.741.01c-.507.09-1.181.239-1.517.654-.315.392-.699.698-1.248.595a.427.427 0 0 1-.212-.088c-.12-.109-.106-.304-.039-.452.068-.147.146-.511-.024-.042-.055.152-.166.28-.235.426-.069.147-.082.343.039.452.06.048.134.078.211.088.55.102.934-.203 1.249-.595.335-.416 1.01-.564 1.516-.655.244-.054.497-.057.742-.009.28.092.54.238.762.43.57.434 1.182.929 1.313 1.627s-.275 1.498.039 2.155c.226.472.796.797.804 1.319-.02.214-.075.423-.164.62-.361 1.088.13 2.255.607 3.298.077.206.198.393.355.549.188.137.404.232.633.277l.658.18c.116.04.24.054.363.039.208-.044.323-.23.39-.438a.392.392 0 0 1-.13.054z"/>
            </g>
            <path fill="#CC8294" d="M75.738 98.195s-1.645-.885-1.802-1.167c-.158-.282-2.473 1.648-2.473 1.648s-1.212.925-1.816 1.128c-.605.203-1.005 1.02-.177 1.087.829.068 4.042.109 4.042.109l2.764-.312 1.724-.266-.327-2.227s-1.79.307-1.935 0z"/>
            <path fill="#CC8294" d="M79.956 98.001s-1.405-1.252-1.981-.956c-.576.296-1.93 1.582-1.93 1.582s-1.278 1.01-1.622 1.238c-.344.228-.749.996 0 1.123.749.128 7.577-.825 7.577-.825s-.085-2.366-.315-2.4c-.23-.036-1.228.494-1.729.238z"/>
            <path fill="#000" d="M89.767 48.532l.126 6.915-3.195 4.062-.747 1.035s-2.28 4.595-5.2 3.188c-.504-.24-.721-.554-.748-.909a.979.979 0 0 1 0-.16c.149-1.728 4.382-4.266 4.382-4.266s3.067-5.258 3.278-5.35c.21-.092 1.176-2.888 1.176-2.888l.421-2.006c.243-.068.49-.119.74-.153l-.233.532z" opacity=".1"/>
            <path fill="#FEBFBA" d="M87.963 47.22l-.406 1.996s-.936 2.784-1.14 2.876c-.204.091-3.172 5.325-3.172 5.325s-6.345 3.916-3.52 5.316c2.824 1.401 5.034-3.173 5.034-3.173l.724-1.03 4.92-6.442s2.36-2.423 1.343-4.071c-1.017-1.648-3.783-.798-3.783-.798z"/>
            <path fill="#000" d="M89.953 42.179l1.162.807s.989.56.73 1.574c-.257 1.014.388 1.332.388 1.332.054.403.185.794.387 1.153.345.623.646 1.331 0 1.643-.645.31-4.733.312-4.733.312s.301-.257-.645-1.34c-.947-1.081-2.023-2.338-2.11-3.102-.086-.764-1.247-2.822-1.118-3.39.13-.568-.041-2.642-.01-3.176.03-.534.612-2.01 1.128-1.88.517.132 2.368-.86 3.573 1.333 1.204 2.192 1.248 4.734 1.248 4.734z" opacity=".1"/>
            <path fill="#FF718D" d="M89.953 42.179l1.162.807s.989.56.73 1.574c-.257 1.014.388 1.332.388 1.332.054.403.185.794.387 1.153.345.623.646 1.331 0 1.643-.645.31-4.733.312-4.733.312s.301-.257-.645-1.34c-.947-1.081-2.023-2.338-2.11-3.102-.086-.764-1.247-2.822-1.118-3.39.13-.568-.041-2.642-.01-3.176.03-.534.612-2.01 1.128-1.88.517.132 2.368-.86 3.573 1.333 1.204 2.192 1.248 4.734 1.248 4.734z"/>
            <path fill="#D38884" d="M53.663 28.798a6.492 6.492 0 0 0-.866 1.882c-.737 2.51-.288 5.32-.288 5.32l-3.684-1.784s-2.996-2.775-1.31-4.064a3.726 3.726 0 0 0 1.27-1.649 2.82 2.82 0 0 0 .196-1.258s6.555-1.156 4.682 1.553z"/>
            <path fill="#000" d="M53.677 28.955a7.528 7.528 0 0 0-.83 2.045h-.097c-1.499 0-2.901-.885-3.75-2.367.153-.43.218-.9.188-1.367 0 0 6.285-1.255 4.49 1.689z" opacity=".1"/>
            <path fill="#D38884" d="M58 25.993a5 5 0 1 1-10 .013 5 5 0 0 1 10-.013z"/>
            <path fill="#000" d="M57.997 26.21c.001.61-.101 1.216-.302 1.79h-.008c-.35-.174-.624-.476-.887-.772l-1.216-1.36c-.244-.275-.526-.57-.893-.575-.18 0-.371.07-.533-.012-.162-.083-.229-.302-.305-.481a1.512 1.512 0 0 0-1.377-.884c-.292 0-.547.049-.698.31-.198.342-.341.685-.628.959-.31.326-.745.49-1.184.45a.395.395 0 0 0-.32.028.327.327 0 0 0-.09.177c-.085.35-.06.718-.119 1.073-.06.355-.24.73-.568.843a.772.772 0 0 1-.682-.137c-.528-1.955.083-4.052 1.566-5.371 1.483-1.32 3.566-1.62 5.337-.77 1.772.848 2.907 2.693 2.91 4.724l-.003.008z" opacity=".1"/>
            <path fill="#1E1637" d="M53.93 24.76c.073.177.126.385.294.47.167.086.34.011.513.012.347 0 .625.293.86.56l1.171 1.325c.254.286.518.581.856.75.338.168.772.182 1.058-.07.287-.252.347-.667.278-1.046-.07-.379-.254-.71-.41-1.052-.158-.341-.3-.71-.27-1.088.027-.349.193-.668.335-.978.328-.73.54-1.592.243-2.337-.209-.522-.633-.907-1.076-1.233-.296-.219-.633-.428-.993-.42-.429.01-.803.317-1.227.382a1.76 1.76 0 0 1-.81-.107c-.59-.198-1.14-.534-1.729-.722a4.076 4.076 0 0 0-1.759-.178c-.253.03-.507.09-.683.274-.176.184-.24.472-.336.723a2.093 2.093 0 0 1-.72.942c-.355.254-.777.38-1.142.607-.365.227-.708.607-.695 1.058.022.183.054.363.093.542.033.412-.075.822-.304 1.157-.232.376-.561.777-.457 1.212.073.308.34.51.54.748.24.288.386.651.618.948.232.296.607.533.953.4.317-.11.49-.474.548-.82.057-.345.033-.704.115-1.044a.337.337 0 0 1 .086-.174c.083-.07.203-.042.308-.026.423.04.841-.12 1.14-.438.277-.267.415-.606.607-.934.144-.252.39-.302.671-.3a1.457 1.457 0 0 1 1.323.858z"/>
            <g fill="#000" opacity=".1">
                <path d="M47.81 22.908c-.015-.117-.048-.23-.07-.345a.819.819 0 0 0-.023.21c.02.165.049.328.089.49.017-.118.02-.237.005-.355zM58.613 23.35c-.141.3-.306.602-.333.935-.008.099-.004.198.011.295a3.2 3.2 0 0 1 .322-.848c.246-.523.425-1.118.38-1.682a3.844 3.844 0 0 1-.38 1.3zM58.68 27.334c-.285.24-.718.227-1.056.066-.337-.16-.598-.443-.85-.717l-1.168-1.268c-.235-.255-.505-.531-.858-.535-.173 0-.356.065-.511-.011-.156-.077-.22-.281-.293-.45a1.456 1.456 0 0 0-1.322-.822c-.28 0-.525.046-.67.287-.19.32-.328.639-.603.894a1.414 1.414 0 0 1-1.137.419c-.105-.016-.225-.043-.307.025a.309.309 0 0 0-.086.166c-.082.326-.058.669-.115 1-.056.33-.23.679-.545.783-.345.117-.719-.105-.95-.382-.231-.278-.38-.631-.618-.907-.192-.222-.448-.412-.53-.692a.69.69 0 0 0-.007.359c.072.295.34.488.537.716.24.276.387.623.618.906.231.284.605.511.95.383.316-.104.489-.453.545-.783.057-.331.033-.674.115-1a.309.309 0 0 1 .086-.166c.082-.068.202-.04.307-.025.422.038.839-.116 1.137-.42.275-.254.413-.579.603-.893.145-.241.39-.288.67-.287a1.456 1.456 0 0 1 1.322.822c.073.169.126.368.293.45.166.081.338.01.511.011.346 0 .623.28.858.535l1.167 1.268c.253.274.515.556.851.717.336.16.77.175 1.056-.066.253-.22.335-.597.286-.937a.897.897 0 0 1-.286.554z"/>
            </g>
            <path fill="#4C4981" d="M45.145 97.49L45 100.346s4.493-.057 5.258.308c.766.364 5.425.345 5.425.345s2.153-.748.953-1.516c-1.2-.768-3.354-.844-3.354-.844s-1.781-2.264-2.112-2.36c-.33-.095-.931-.633-1.304.096s-1.404 1.458-1.404 1.458l-3.317-.345z"/>
            <path fill="#C4E0FF" d="M55.117 67.04c-.53 2.297-2.893 12.328-2.893 12.328s-.814.794-.814 1.713c0 .92-.53 1.881-.53 1.881s.285 9.027-.408 11.368c-.667 2.257-.05 2.144 0 2.131l-1.99 1.67-3.667.042s.163-2.884.285-3.135c.122-.25.978-1.587.449-2.465-.53-.877.162-9.696.733-10.825.57-1.128 0-4.012 0-4.012-.279.7-.484 1.43-.611 2.174-.164 1.086-1.509 2.759-1.509 2.967 0 2.857-3.422 9.612-3.422 9.612s-1.222 4.263-.896 5.057c.326.794-.326 1.63-.774 1.422-.447-.208-4.034 0-4.034 0s-.081-2.508 0-2.717c.082-.21.937-1.087.937-1.087-.285-2.298 1.711-11.41 2.893-12.705 1.182-1.295 1.42-3.97 1.42-3.97s1.1.169.715-.375c-.385-.544.874-3.343.874-3.343s-.408-3.93 0-4.973a5.17 5.17 0 0 0 .326-2.173c0-.294.041-2.425.265-2.927.224-.501-.02-1.838 0-2.548.016-.548.007-1.743 0-2.257v-.251l.305-1.965L44.156 54l5.054 1.212 3.789.753s2.159 2.298 2.77 3.97c.074.208.128.425.161.645.28 1.751-.34 4.432-.813 6.46z"/>
            <path fill="#4C4981" d="M37.56 98.09s-2.584-.247-2.882.986c-.297 1.233-.656 3.518-.656 3.518s-.402 1.277 2.203 1.389c2.606.111 2.564-.36 2.564-.36s-.043-2.197.084-2.588c.127-.392.127-1.893.127-1.893s-.44-1.522-1.44-1.052z"/>
            <path fill="#000" d="M57 60.266c-.034.945-.083 1.734-.083 1.734s-1.825.03-1.787-4.567c0 0-.405 3.492-.85 3.582-.445.09-.636-.537-2.162-.448-1.525.09-3.464-.627-3.686-1.343-.223-.717-2.924-2.687-3.337-2.597-.413.09-.509 1.552-.509 1.552s-1.27.862-1.586 1.433v-.239l.318-1.87L44.758 54l5.255 1.155 3.941.716s2.245 2.189 2.88 3.78c.077.2.132.406.166.615z" opacity=".1"/>
            <path fill="#FFD765" d="M55.891 62s-1.76.031-1.723-4.787c0 0-.391 3.66-.82 3.754-.43.094-.613-.563-2.084-.469-1.471.094-3.34-.657-3.555-1.408-.214-.75-2.82-2.816-3.218-2.722-.398.094-.49 1.627-.49 1.627s-1.226.907-1.532 1.502c-.307.594-.215-1.095 0-2.19.214-1.095.122-3.317 0-4.287-.123-.97-.613-3.441-.197-5.162.415-1.721-.162-5.507-.162-5.507s.039-2.472 0-4.005c-.04-1.533-1.725-2.127-.867-3.754.858-1.627 3.095-3.567 3.095-3.567s1.563.188 2.237-.407a1.41 1.41 0 0 1 .22-.157C47.55 30.019 48.88 30 48.88 30l2.265 2.364s1.114 2.416 1.195 3.004a.346.346 0 0 1 0 .076l.389-2.324s1.63.626 1.63 1.534v1.47s.368 1.597.735 2.348c.368.75-.184 8.103-.184 8.103s.215 2.284.031 3.223c-.184.938.28 2.91.28 2.91s.425 3.566.67 4.255c.245.688 0 5.037 0 5.037z"/>
            <path fill="#000" d="M51 67s-.544 3.454-1.515 5C48.515 73.543 47 77 47 77" opacity=".1"/>
            <rect width="7" height="3" x="46" y="25" fill="#3A3768" rx="1.5"/>
            <circle cx="51.5" cy="26.5" r="1" fill="#E6E8EC"/>
            <path fill="#FFD765" d="M44.993 36.59s-2.549.775-3.434.194C40.674 36.202 39 33.68 39 33.68s.483-3.548.907-3.677c.424-.13.207 3.36.207 3.36s.606 1.347.832 1.347c.227 0 1.782-.193 1.976-.581.195-.388.519-2.78.519-2.78l.259-1.163 1.296.808L46 33.478l-1.007 3.112z"/>
            <path fill="#D38884" d="M41.994 34.995c-1.12.08-2.044-.837-1.992-1.908.059-1.199.166-2.845.31-3.084.233-.382 2.425-3.18 2.425-3.18s6.94-3.531 6.21-.764c-.731 2.767-3.587 3.117-3.587 3.117l-1.295-.636-.033 4.007s-.291 2.327-2.038 2.448z"/>
            <path fill="#000" d="M43.032 75s-.255.747.678.972c.932.224-.678-.972-.678-.972zM41 78s.123 1.632.817 1.967C42.512 80.302 41 78 41 78zM47.082 82s-.406.609.59.944c.995.335-.59-.944-.59-.944zM47.002 81s-.098.767.998 1M46 86s.739 1.086.97.995C47.202 86.904 46 86 46 86zM53 99.014s-2.522-.17-1.902.68c.62.85 1.902-.34 1.902-.34v-.34zM35 100.5s3.197-1.125 2.99 0c-.206 1.125-2.99 0-2.99 0zM42 38.417s2.223.257 3.12-.256c.898-.513 1.166.33.536.733-.63.403-3.656-.477-3.656-.477zM43 40.302c.665.127.518 1.331 1.712.253 1.194-1.078-1.712-.253-1.712-.253zM43 43.926s3.345.463 4-.926M53 34.908V35l-6-4.579c.816-.404 2.257-.421 2.257-.421l2.453 2.162s1.202 2.208 1.29 2.746z" opacity=".1"/>
            <path fill="#FFD765" d="M53 34.908V35l-6-4.579c.816-.404 2.257-.421 2.257-.421l2.453 2.162s1.202 2.208 1.29 2.746z"/>
            <path fill="#000" d="M42 37s3.918-.285 3.967-3c0-.002.667 3.04-3.967 3z" opacity=".1"/>
            <circle cx="52.5" cy="34.5" r="1" fill="#FFF"/>
        </g>
    </g>
</svg>
