<svg xmlns="http://www.w3.org/2000/svg" width="278" height="211" viewBox="0 0 278 211">
    <defs>
        <linearGradient id="a" x1="50%" x2="50%" y1="100.001%" y2="0%">
            <stop offset="0%" stop-color="gray" stop-opacity=".25"/>
            <stop offset="54%" stop-color="gray" stop-opacity=".12"/>
            <stop offset="100%" stop-color="gray" stop-opacity=".1"/>
        </linearGradient>
        <linearGradient id="b" x1="49.984%" x2="49.984%" y1="99.984%" y2=".018%">
            <stop offset="0%" stop-color="gray" stop-opacity=".25"/>
            <stop offset="54%" stop-color="gray" stop-opacity=".12"/>
            <stop offset="100%" stop-color="gray" stop-opacity=".1"/>
        </linearGradient>
        <linearGradient id="c" x1=".02%" x2="100.01%" y1="49.978%" y2="49.978%">
            <stop offset="0%" stop-color="gray" stop-opacity=".25"/>
            <stop offset="54%" stop-color="gray" stop-opacity=".12"/>
            <stop offset="100%" stop-color="gray" stop-opacity=".1"/>
        </linearGradient>
        <linearGradient id="d" x1="49.992%" x2="49.992%" y1="100.011%" y2=".019%">
            <stop offset="0%" stop-color="gray" stop-opacity=".25"/>
            <stop offset="54%" stop-color="gray" stop-opacity=".12"/>
            <stop offset="100%" stop-color="gray" stop-opacity=".1"/>
        </linearGradient>
        <linearGradient id="e" x1="49.984%" x2="49.984%" y1="100.004%" y2="-.031%">
            <stop offset="0%" stop-color="gray" stop-opacity=".25"/>
            <stop offset="54%" stop-color="gray" stop-opacity=".12"/>
            <stop offset="100%" stop-color="gray" stop-opacity=".1"/>
        </linearGradient>
        <linearGradient id="f" x1="49.958%" x2="49.958%" y1="100.082%" y2=".008%">
            <stop offset="0%" stop-color="gray" stop-opacity=".25"/>
            <stop offset="54%" stop-color="gray" stop-opacity=".12"/>
            <stop offset="100%" stop-color="gray" stop-opacity=".1"/>
        </linearGradient>
    </defs>
    <g fill="none" fill-rule="evenodd">
        <path fill="#0DA176" d="M261.384 114.54c-9.774 13.428-6.548 32.595-.899 47.865 1.893 5.112 4.042 10.519 3.061 16.08-1.198 6.8-6.83 11.894-12.685 14.668-10.672 5.057-23.28 4.25-32.826-2.122-8.239-5.499-14.038-14.638-22.436-19.874-14.056-8.762-32.303-4.847-47.946 1.842-11.067 4.732-23.19 10.826-33.975 6.456-7.589-3.074-12.7-10.9-15.388-19.267-1.298-4.04-2.207-8.424-4.793-11.586-1.538-1.88-3.57-3.19-5.66-4.284-19.07-9.999-43.601-3.75-62.09-14.905-12.483-7.534-20.252-22.155-23.48-37.525-3.228-15.37-2.43-31.595-1.144-47.543.914-11.333 2.36-23.444 9.165-32.35C17.486 2.579 29.548-1.163 40.336.31c10.787 1.475 20.459 7.474 28.92 14.636 10.582 8.933 20.319 20.15 33.48 23.541 8.965 2.31 18.49.675 27.809-.047 15.578-1.205 31.101.182 46.53 1.75 14.769 1.5 29.64 3.174 43.629 8.091 9.898 3.48 17.745 10.056 27.064 14.55 6.074 2.93 12.757 3.61 18.474 7.394 7.056 4.662 13.432 12.92 11.362 22.832-1.955 9.421-11.027 14.355-16.22 21.482z" opacity=".1"/>
        <g opacity=".5">
            <path stroke="#535461" stroke-width="2" d="M213.1 175.762s.817-24.387 13.892-38.168c5.489-5.782 9.093-13.126 10.048-21.074.446-3.772.548-7.577.306-11.368"/>
            <path fill="#0DA176" d="M245.537 96.424c-.895 2.724-8.376 8.98-8.376 8.98s-2.292-9.531-1.397-12.253a5.164 5.164 0 0 1 3.847-3.452 5.12 5.12 0 0 1 4.886 1.635 5.23 5.23 0 0 1 1.04 5.087v.003zM248.654 114.21c-2.225 1.796-11.866 2.949-11.866 2.949s3.213-9.258 5.439-11.051a5.112 5.112 0 0 1 5.185-.946 5.185 5.185 0 0 1 3.292 4.15 5.215 5.215 0 0 1-2.05 4.898zM239.833 139.865c-2.813.419-11.72-3.493-11.72-3.493s7.401-6.356 10.215-6.775a5.125 5.125 0 0 1 4.787 1.911 5.233 5.233 0 0 1 .752 5.14 5.157 5.157 0 0 1-4.034 3.226v-.01zM228.824 157.76c-2.702.894-12.138-1.451-12.138-1.451s6.232-7.526 8.934-8.42c2.702-.895 5.611.589 6.499 3.315.887 2.725-.583 5.661-3.285 6.557h-.01zM226.352 114.253c1.313 2.544 9.694 7.526 9.694 7.526s.761-9.776-.551-12.323a5.144 5.144 0 0 0-4.341-2.792 5.134 5.134 0 0 0-4.566 2.397 5.234 5.234 0 0 0-.226 5.19l-.01.002zM213.741 135.344c2.008 2.033 11.471 4.259 11.471 4.259s-2.173-9.56-4.178-11.593a5.115 5.115 0 0 0-7.28-.013 5.227 5.227 0 0 0-.013 7.345v.002zM204.272 157.544c1.637 2.345 10.594 6.154 10.594 6.154s-.539-9.791-2.178-12.139a5.132 5.132 0 0 0-4.712-2.324 5.15 5.15 0 0 0-4.285 3.053 5.232 5.232 0 0 0 .591 5.258l-.01-.002z"/>
            <path stroke="#535461" stroke-width="2" d="M215.974 165.668s-7.417-10.886-6.117-21.129a20.17 20.17 0 0 0-2.343-12.438 33.684 33.684 0 0 0-3.491-5.049"/>
            <path fill="#0DA176" d="M204.807 120.591c.477 1.477-.784 6.631-.784 6.631s-4.037-3.408-4.515-4.882c-.477-1.476.321-3.064 1.784-3.546a2.782 2.782 0 0 1 3.515 1.8v-.003zM211.835 127.324c-.393 1.497-4.23 5.137-4.23 5.137s-1.552-5.074-1.16-6.576a2.785 2.785 0 0 1 3.409-2c1.488.398 2.375 1.938 1.981 3.44zM216.171 141.359c-1.09 1.095-6.22 2.28-6.22 2.28s1.197-5.171 2.29-6.267a2.771 2.771 0 0 1 2.695-.72 2.801 2.801 0 0 1 1.966 1.996 2.83 2.83 0 0 1-.73 2.716v-.005zM217.084 152.727c-.893 1.264-5.76 3.302-5.76 3.302s.313-5.3 1.206-6.565a2.777 2.777 0 0 1 2.534-1.171 2.789 2.789 0 0 1 2.272 1.629c.414.913.315 1.98-.262 2.8l.01.005zM202.136 134.576c1.382.684 6.616.135 6.616.135s-2.786-4.505-4.168-5.187a2.775 2.775 0 0 0-3.727 1.291 2.823 2.823 0 0 0 1.28 3.761zM203.37 147.86c1.523.234 6.354-1.869 6.354-1.869s-3.995-3.457-5.516-3.682c-1.522-.233-2.943.822-3.174 2.358-.232 1.535.814 2.97 2.336 3.203v-.01zM206.322 160.6c1.461.498 6.576-.749 6.576-.749s-3.357-4.089-4.818-4.58a2.782 2.782 0 0 0-3.524 1.782c-.486 1.475.305 3.067 1.766 3.556v-.01z"/>
            <path fill="#FFF" d="M204.807 120.591c.477 1.477-.784 6.631-.784 6.631s-4.037-3.408-4.515-4.882c-.477-1.476.321-3.064 1.784-3.546a2.782 2.782 0 0 1 3.515 1.8v-.003zM211.835 127.324c-.393 1.497-4.23 5.137-4.23 5.137s-1.552-5.074-1.16-6.576a2.785 2.785 0 0 1 3.409-2c1.488.398 2.375 1.938 1.981 3.44zM216.171 141.359c-1.09 1.095-6.22 2.28-6.22 2.28s1.197-5.171 2.29-6.267a2.771 2.771 0 0 1 2.695-.72 2.801 2.801 0 0 1 1.966 1.996 2.83 2.83 0 0 1-.73 2.716v-.005zM217.084 152.727c-.893 1.264-5.76 3.302-5.76 3.302s.313-5.3 1.206-6.565a2.777 2.777 0 0 1 2.534-1.171 2.789 2.789 0 0 1 2.272 1.629c.414.913.315 1.98-.262 2.8l.01.005zM202.136 134.576c1.382.684 6.616.135 6.616.135s-2.786-4.505-4.168-5.187a2.775 2.775 0 0 0-3.727 1.291 2.823 2.823 0 0 0 1.28 3.761zM203.37 147.86c1.523.234 6.354-1.869 6.354-1.869s-3.995-3.457-5.516-3.682c-1.522-.233-2.943.822-3.174 2.358-.232 1.535.814 2.97 2.336 3.203v-.01zM206.322 160.6c1.461.498 6.576-.749 6.576-.749s-3.357-4.089-4.818-4.58a2.782 2.782 0 0 0-3.524 1.782c-.486 1.475.305 3.067 1.766 3.556v-.01z"/>
            <path fill="#474059" d="M202.25 195.187h21.096l5.276-32.462h-31.645z"/>
            <path fill="#000" d="M201.014 162.725l4.927 30.334h17.751l-.346 2.128H202.25l-5.273-32.462z" opacity=".1"/>
        </g>
        <path fill="url(#a)" d="M49.978 10.394h156.18v188.133H49.978z"/>
        <path fill="#FFF" d="M52.06 12.473h152.015v183.975H52.06z"/>
        <path fill="#C0BCCF" d="M111.408 33.261h61.431v3.118h-61.431zM111.408 42.616h61.431v3.118h-61.431z"/>
        <path fill="#0DA176" d="M125.985 51.97h32.277v3.118h-32.277z"/>
        <path fill="#C0BCCF" d="M111.408 93.547h61.431v3.118h-61.431zM111.408 102.901h61.431v3.118h-61.431z" opacity=".5"/>
        <path fill="#0DA176" d="M125.985 112.256h32.277v3.118h-32.277z" opacity=".5"/>
        <path fill="#C0BCCF" d="M111.408 152.793h61.431v3.118h-61.431zM111.408 163.187h61.431v3.118h-61.431z" opacity=".5"/>
        <path fill="#0DA176" d="M125.985 172.542h32.277v3.118h-32.277z" opacity=".5"/>
        <g opacity=".5" transform="translate(60.39 87.31)">
            <path fill="#C0BCCF" d="M34.179 17.26a16.928 16.928 0 0 1-4.72 11.755 16.723 16.723 0 0 1-1.82 1.65l-.046.033c-1 .782-2.085 1.447-3.235 1.983-.591.277-1.197.52-1.816.726l-.228.072a8.46 8.46 0 0 1-.43.13l-.057.018c-3.077.878-6.34.878-9.417 0h-.026c-.25-.073-.501-.148-.732-.23l-.213-.075c-.812-.286-1.6-.634-2.358-1.042l-.047-.025a17.12 17.12 0 0 1-3.34-2.361l-.084-.078a15.92 15.92 0 0 1-1.632-1.71 17.002 17.002 0 0 1-.862-20.555A17.07 17.07 0 0 1 22.22 1.015 17.028 17.028 0 0 1 34.18 17.26z"/>
            <path fill="url(#b)" fill-rule="nonzero" d="M29.512 23.004l-1.295-.581c.02-.196.029-.394.026-.59a4.631 4.631 0 0 0 0-.502c-.128-1.317-.969-2.463-1.563-3.667-.544-1.1-.89-2.286-1.02-3.506-.159-1.502 0-3.06-.552-4.471-.45-1.14-1.337-2.09-2.288-2.932a11.612 11.612 0 0 0-3.674-2.326c-1.39-.5-2.987-.628-4.376-.118-1.254.461-2.22 1.38-3.153 2.274a10.584 10.584 0 0 0-1.78 2.023c-.57.931-.813 2.003-1.004 3.06a46.727 46.727 0 0 0-.617 5.112c-.098 1.43-.25 3.052-1.475 3.928-.596.428-1.437.668-1.71 1.317a1.345 1.345 0 0 0-.09.613 2.25 2.25 0 0 0 .037.519c.018.1.038.197.063.298a21.936 21.936 0 0 0-.883 2.673c-.183.676-.35 1.34-.501 1.983h.622l2.337.055h.033l2.508.058h.012l2.338.055h.057l.675.048h.22l9.348.215h.05l.622.015h.218l1.871.043 2.76.062h.02l2.076.05h.647l-.11-2.173c.456-3.327-.45-3.535-.45-3.535zm-10.501-.266c0 1.843-1.977 4.099-1.977 4.099l-1.989-2.704.073-.105 1.916 2.604s1.977-2.254 1.977-4.099c.046-.094.098-.184.158-.27l.045.14a2.656 2.656 0 0 0-.203.335zm3.04 7.231c0-.093 0-.188-.018-.28-.018-.093-.015-.176-.028-.266-.012-.09-.022-.177-.035-.268-.012-.09-.03-.177-.048-.267-.017-.09-.035-.178-.055-.268 0-.03-.012-.058-.02-.09a9.108 9.108 0 0 0-.09-.354c-.033-.117-.053-.19-.083-.282 0-.043-.025-.086-.04-.126-.015-.04-.043-.135-.065-.202l-.045-.13c-.02-.058-.04-.118-.063-.176-.038-.105-.078-.208-.118-.313-.04-.105-.083-.208-.125-.31-.086-.21-.178-.418-.271-.629-.364-.81-.773-1.61-1.149-2.4-.202-.415-.38-.84-.537-1.273l-.047.063c-.076.107-.144.22-.203.338 0 1.843-1.977 4.099-1.977 4.099l-1.989-2.704-1.74 2.503c-.25.125-.502.551-.697 1.157a8.549 8.549 0 0 0-.158.53c-.035.128-.068.251-.098.394a4.921 4.921 0 0 0-.048.205l-.045.213v.032a17.8 17.8 0 0 0-.088.449c-.027.152-.06.328-.087.5-.02.109-.038.216-.053.323a40.186 40.186 0 0 0-.145.991l-.06.466c.127.384.27.752.418 1.137.094.203.15.42.163.644 3.085.82 6.332.82 9.418 0a.085.085 0 0 1 0-.023 2.61 2.61 0 0 1-.06-.638c.05-.602.134-1.2.25-1.793.037-.292.053-.587.048-.881v-.105c-.008-.096-.01-.18-.013-.263v-.003zm0 0c0-.093 0-.188-.018-.28-.018-.093-.015-.176-.028-.266-.012-.09-.022-.177-.035-.268-.012-.09-.03-.177-.048-.267-.017-.09-.035-.178-.055-.268 0-.03-.012-.058-.02-.09a9.108 9.108 0 0 0-.09-.354c-.033-.117-.053-.19-.083-.282 0-.043-.025-.086-.04-.126-.015-.04-.043-.135-.065-.202l-.045-.13c-.02-.058-.04-.118-.063-.176-.038-.105-.078-.208-.118-.313-.04-.105-.083-.208-.125-.31-.086-.21-.178-.418-.271-.629-.364-.81-.773-1.61-1.149-2.4-.202-.415-.38-.84-.537-1.273l-.047.063c-.076.107-.144.22-.203.338 0 1.843-1.977 4.099-1.977 4.099l-1.989-2.704-1.74 2.503c-.25.125-.502.551-.697 1.157a8.549 8.549 0 0 0-.158.53c-.035.128-.068.251-.098.394a4.921 4.921 0 0 0-.048.205l-.045.213v.032a17.8 17.8 0 0 0-.088.449c-.027.152-.06.328-.087.5-.02.109-.038.216-.053.323a40.186 40.186 0 0 0-.145.991l-.06.466c.127.384.27.752.418 1.137.094.203.15.42.163.644 3.085.82 6.332.82 9.418 0a.085.085 0 0 1 0-.023 2.61 2.61 0 0 1-.06-.638c.05-.602.134-1.2.25-1.793.037-.292.053-.587.048-.881v-.105c-.008-.096-.01-.18-.013-.263v-.003zm0 0c0-.093 0-.188-.018-.28-.018-.093-.015-.176-.028-.266-.012-.09-.022-.177-.035-.268-.012-.09-.03-.177-.048-.267-.017-.09-.035-.178-.055-.268 0-.03-.012-.058-.02-.09a9.108 9.108 0 0 0-.09-.354c-.033-.117-.053-.19-.083-.282 0-.043-.025-.086-.04-.126-.015-.04-.043-.135-.065-.202l-.045-.13c-.02-.058-.04-.118-.063-.176-.038-.105-.078-.208-.118-.313-.04-.105-.083-.208-.125-.31-.086-.21-.178-.418-.271-.629-.364-.81-.773-1.61-1.149-2.4-.202-.415-.38-.84-.537-1.273l-.047.063c-.076.107-.144.22-.203.338 0 1.843-1.977 4.099-1.977 4.099l-1.989-2.704-1.74 2.503c-.25.125-.502.551-.697 1.157a8.549 8.549 0 0 0-.158.53c-.035.128-.068.251-.098.394a4.921 4.921 0 0 0-.048.205l-.045.213v.032a17.8 17.8 0 0 0-.088.449c-.027.152-.06.328-.087.5-.02.109-.038.216-.053.323a40.186 40.186 0 0 0-.145.991l-.06.466c.127.384.27.752.418 1.137.094.203.15.42.163.644 3.085.82 6.332.82 9.418 0a.085.085 0 0 1 0-.023 2.61 2.61 0 0 1-.06-.638c.05-.602.134-1.2.25-1.793.037-.292.053-.587.048-.881v-.105c-.008-.096-.01-.18-.013-.263v-.003zm0 0c0-.093 0-.188-.018-.28-.018-.093-.015-.176-.028-.266-.012-.09-.022-.177-.035-.268-.012-.09-.03-.177-.048-.267-.017-.09-.035-.178-.055-.268 0-.03-.012-.058-.02-.09a9.108 9.108 0 0 0-.09-.354c-.033-.117-.053-.19-.083-.282 0-.043-.025-.086-.04-.126-.015-.04-.043-.135-.065-.202l-.045-.13c-.02-.058-.04-.118-.063-.176-.038-.105-.078-.208-.118-.313-.04-.105-.083-.208-.125-.31-.086-.21-.178-.418-.271-.629-.364-.81-.773-1.61-1.149-2.4-.202-.415-.38-.84-.537-1.273l-.047.063c-.076.107-.144.22-.203.338 0 1.843-1.977 4.099-1.977 4.099l-1.989-2.704-1.74 2.503c-.25.125-.502.551-.697 1.157a8.549 8.549 0 0 0-.158.53c-.035.128-.068.251-.098.394a4.921 4.921 0 0 0-.048.205l-.045.213v.032a17.8 17.8 0 0 0-.088.449c-.027.152-.06.328-.087.5-.02.109-.038.216-.053.323a40.186 40.186 0 0 0-.145.991l-.06.466c.127.384.27.752.418 1.137.094.203.15.42.163.644 3.085.82 6.332.82 9.418 0a.085.085 0 0 1 0-.023 2.61 2.61 0 0 1-.06-.638c.05-.602.134-1.2.25-1.793.037-.292.053-.587.048-.881v-.105c-.008-.096-.01-.18-.013-.263v-.003z"/>
            <path fill="#493545" d="M10.604 12.506h11.537v7.761H10.604z"/>
            <path fill="#C77485" d="M24.057 21.066l-4.828 6.79-5.046-.438s-6.584.436-2.195-4.6c2.11-2.42 2.8-4.438 2.947-5.878.16-1.557-.313-2.444-.313-2.444l5.485-.656a4.08 4.08 0 0 0-.09 2.286c.687 2.844 4.04 4.94 4.04 4.94z"/>
            <path fill="#000" d="M20.014 16.119a5.49 5.49 0 0 1-5.081.816c.16-1.557-.314-2.444-.314-2.444l5.485-.656a4.08 4.08 0 0 0-.09 2.284z" opacity=".1"/>
            <ellipse cx="16.706" cy="11.534" fill="#C77485" rx="5.485" ry="5.476"/>
            <path fill="#000" d="M23.856 21.346l-.128-.5-.11-.441-.163-.65-.03-.121-.025-.1s.13-.393-.73-.266l-.16.028a7.02 7.02 0 0 0-.475.115l-.163.05-.215.068a4.704 4.704 0 0 0-1.821 1.096c-.231.221-.436.468-.61.736-.017.025-.03.048-.045.068-.06.093-.112.19-.158.29 0 1.973-1.976 4.382-1.976 4.382l-1.929-2.782-.037-.055-.46-.666-.162-.215-.056-.075-1.003-1.345-.25-.335-.083-.113-.123-.163-.289-.383-1.128.659-1.505.876-.878 5.696v.158l.028.47.183 3.095v.043l-.321 1.281.047.026c.758.407 1.546.756 2.358 1.041l.213.075c.251.083.487.158.732.23.01.038.016.075.02.113v-.108c3.078.878 6.34.878 9.418 0l.058-.017a8.46 8.46 0 0 0 .429-.13l.228-.073a16.82 16.82 0 0 0 1.816-.726l.21-4.481.15-3.233v-.185l-.857-3.433z" opacity=".1"/>
            <path fill="#FFF" fill-rule="nonzero" d="M22.05 29.671c0-.1 0-.2-.017-.3-.018-.1-.015-.188-.028-.283-.012-.095-.022-.19-.035-.286a11.44 11.44 0 0 0-.103-.57c0-.033-.012-.063-.02-.096a11.72 11.72 0 0 0-.173-.68c0-.046-.025-.09-.04-.133-.015-.043-.043-.145-.065-.218l-.045-.14a5.492 5.492 0 0 0-.063-.188c-.038-.113-.078-.223-.118-.336-.04-.112-.083-.222-.125-.333-.086-.225-.178-.448-.271-.67-.364-.867-.773-1.72-1.149-2.567a14.174 14.174 0 0 1-.537-1.36l-.047.068a2.89 2.89 0 0 0-.203.36c0 1.971-1.977 4.382-1.977 4.382l-1.989-2.892-1.74 2.672c-.25.133-.502.588-.697 1.237a9.492 9.492 0 0 0-.158.568 9.437 9.437 0 0 0-.098.42 5.683 5.683 0 0 0-.048.221l-.045.228v.035c-.03.155-.06.315-.088.478-.027.163-.06.35-.087.528-.02.116-.038.23-.053.346-.035.223-.065.448-.095.67-.018.131-.036.251-.05.389l-.06.5c.127.411.27.817.418 1.215.095.218.15.451.163.688 3.078.878 6.34.878 9.418 0a.095.095 0 0 1 0-.025 2.977 2.977 0 0 1-.06-.683c.05-.642.134-1.282.25-1.915.037-.313.053-.627.048-.942v-.112c-.008-.096-.01-.186-.013-.276zm0 0c0-.1 0-.2-.017-.3-.018-.1-.015-.188-.028-.283-.012-.095-.022-.19-.035-.286a11.44 11.44 0 0 0-.103-.57c0-.033-.012-.063-.02-.096a11.72 11.72 0 0 0-.173-.68c0-.046-.025-.09-.04-.133-.015-.043-.043-.145-.065-.218l-.045-.14a5.492 5.492 0 0 0-.063-.188c-.038-.113-.078-.223-.118-.336-.04-.112-.083-.222-.125-.333-.086-.225-.178-.448-.271-.67-.364-.867-.773-1.72-1.149-2.567a14.174 14.174 0 0 1-.537-1.36l-.047.068a2.89 2.89 0 0 0-.203.36c0 1.971-1.977 4.382-1.977 4.382l-1.989-2.892-1.74 2.672c-.25.133-.502.588-.697 1.237a9.492 9.492 0 0 0-.158.568 9.437 9.437 0 0 0-.098.42 5.683 5.683 0 0 0-.048.221l-.045.228v.035c-.03.155-.06.315-.088.478-.027.163-.06.35-.087.528-.02.116-.038.23-.053.346-.035.223-.065.448-.095.67-.018.131-.036.251-.05.389l-.06.5c.127.411.27.817.418 1.215.095.218.15.451.163.688 3.078.878 6.34.878 9.418 0a.095.095 0 0 1 0-.025 2.977 2.977 0 0 1-.06-.683c.05-.642.134-1.282.25-1.915.037-.313.053-.627.048-.942v-.112c-.008-.096-.01-.186-.013-.276zm0 0c0-.1 0-.2-.017-.3-.018-.1-.015-.188-.028-.283-.012-.095-.022-.19-.035-.286a11.44 11.44 0 0 0-.103-.57c0-.033-.012-.063-.02-.096a11.72 11.72 0 0 0-.173-.68c0-.046-.025-.09-.04-.133-.015-.043-.043-.145-.065-.218l-.045-.14a5.492 5.492 0 0 0-.063-.188c-.038-.113-.078-.223-.118-.336-.04-.112-.083-.222-.125-.333-.086-.225-.178-.448-.271-.67-.364-.867-.773-1.72-1.149-2.567a14.174 14.174 0 0 1-.537-1.36l-.047.068a2.89 2.89 0 0 0-.203.36c0 1.971-1.977 4.382-1.977 4.382l-1.989-2.892-1.74 2.672c-.25.133-.502.588-.697 1.237a9.492 9.492 0 0 0-.158.568 9.437 9.437 0 0 0-.098.42 5.683 5.683 0 0 0-.048.221l-.045.228v.035c-.03.155-.06.315-.088.478-.027.163-.06.35-.087.528-.02.116-.038.23-.053.346-.035.223-.065.448-.095.67-.018.131-.036.251-.05.389l-.06.5c.127.411.27.817.418 1.215.095.218.15.451.163.688 3.078.878 6.34.878 9.418 0a.095.095 0 0 1 0-.025 2.977 2.977 0 0 1-.06-.683c.05-.642.134-1.282.25-1.915.037-.313.053-.627.048-.942v-.112c-.008-.096-.01-.186-.013-.276zm2.659-4.7l-.896-3.567-.153-.61-.042-.169-.218-.87v-.023a.2.2 0 0 0-.018-.113c-.033-.065-.115-.133-.308-.15a1.563 1.563 0 0 0-.221 0 3.826 3.826 0 0 0-.645.12 7.223 7.223 0 0 0-.33.095l-.216.068h-.02a4.788 4.788 0 0 0-1.58.876 4.259 4.259 0 0 0-.803.886l-.048.068a2.89 2.89 0 0 0-.203.36c0 1.97-1.976 4.382-1.976 4.382l-1.989-2.892-.113-.163-.02-.027-.288-.423-.219-.29-.057-.076-1.029-1.37-.326-.443v-.015l-.112-.152-.216-.286-.753.438-1.88 1.094-.868 5.636v.06l.025.411.185 3.137v.178L9.09 32.27c.757.408 1.546.756 2.357 1.042l.214.075c.25.082.486.157.732.23.01.037.016.075.02.113v-.108c3.078.878 6.34.878 9.418 0l.057-.018a8.46 8.46 0 0 0 .43-.13l.227-.072a16.82 16.82 0 0 0 1.816-.726l.208-4.477.15-3.197-.01-.03zm-2.659 4.7c0-.1 0-.2-.017-.3-.018-.1-.015-.188-.028-.283-.012-.095-.022-.19-.035-.286a11.44 11.44 0 0 0-.103-.57c0-.033-.012-.063-.02-.096a11.72 11.72 0 0 0-.173-.68c0-.046-.025-.09-.04-.133-.015-.043-.043-.145-.065-.218l-.045-.14a5.492 5.492 0 0 0-.063-.188c-.038-.113-.078-.223-.118-.336-.04-.112-.083-.222-.125-.333-.086-.225-.178-.448-.271-.67-.364-.867-.773-1.72-1.149-2.567a14.174 14.174 0 0 1-.537-1.36l-.047.068a2.89 2.89 0 0 0-.203.36c0 1.971-1.977 4.382-1.977 4.382l-1.989-2.892-1.74 2.672c-.25.133-.502.588-.697 1.237a9.492 9.492 0 0 0-.158.568 9.437 9.437 0 0 0-.098.42 5.683 5.683 0 0 0-.048.221l-.045.228v.035c-.03.155-.06.315-.088.478-.027.163-.06.35-.087.528-.02.116-.038.23-.053.346-.035.223-.065.448-.095.67-.018.131-.036.251-.05.389l-.06.5c.127.411.27.817.418 1.215.095.218.15.451.163.688 3.078.878 6.34.878 9.418 0a.095.095 0 0 1 0-.025 2.977 2.977 0 0 1-.06-.683c.05-.642.134-1.282.25-1.915.037-.313.053-.627.048-.942v-.112c-.008-.096-.01-.186-.013-.276zm0 0c0-.1 0-.2-.017-.3-.018-.1-.015-.188-.028-.283-.012-.095-.022-.19-.035-.286a11.44 11.44 0 0 0-.103-.57c0-.033-.012-.063-.02-.096a11.72 11.72 0 0 0-.173-.68c0-.046-.025-.09-.04-.133-.015-.043-.043-.145-.065-.218l-.045-.14a5.492 5.492 0 0 0-.063-.188c-.038-.113-.078-.223-.118-.336-.04-.112-.083-.222-.125-.333-.086-.225-.178-.448-.271-.67-.364-.867-.773-1.72-1.149-2.567a14.174 14.174 0 0 1-.537-1.36l-.047.068a2.89 2.89 0 0 0-.203.36c0 1.971-1.977 4.382-1.977 4.382l-1.989-2.892-1.74 2.672c-.25.133-.502.588-.697 1.237a9.492 9.492 0 0 0-.158.568 9.437 9.437 0 0 0-.098.42 5.683 5.683 0 0 0-.048.221l-.045.228v.035c-.03.155-.06.315-.088.478-.027.163-.06.35-.087.528-.02.116-.038.23-.053.346-.035.223-.065.448-.095.67-.018.131-.036.251-.05.389l-.06.5c.127.411.27.817.418 1.215.095.218.15.451.163.688 3.078.878 6.34.878 9.418 0a.095.095 0 0 1 0-.025 2.977 2.977 0 0 1-.06-.683c.05-.642.134-1.282.25-1.915.037-.313.053-.627.048-.942v-.112c-.008-.096-.01-.186-.013-.276zm0 0c0-.1 0-.2-.017-.3-.018-.1-.015-.188-.028-.283-.012-.095-.022-.19-.035-.286a11.44 11.44 0 0 0-.103-.57c0-.033-.012-.063-.02-.096a11.72 11.72 0 0 0-.173-.68c0-.046-.025-.09-.04-.133-.015-.043-.043-.145-.065-.218l-.045-.14a5.492 5.492 0 0 0-.063-.188c-.038-.113-.078-.223-.118-.336-.04-.112-.083-.222-.125-.333-.086-.225-.178-.448-.271-.67-.364-.867-.773-1.72-1.149-2.567a14.174 14.174 0 0 1-.537-1.36l-.047.068a2.89 2.89 0 0 0-.203.36c0 1.971-1.977 4.382-1.977 4.382l-1.989-2.892-1.74 2.672c-.25.133-.502.588-.697 1.237a9.492 9.492 0 0 0-.158.568 9.437 9.437 0 0 0-.098.42 5.683 5.683 0 0 0-.048.221l-.045.228v.035c-.03.155-.06.315-.088.478-.027.163-.06.35-.087.528-.02.116-.038.23-.053.346-.035.223-.065.448-.095.67-.018.131-.036.251-.05.389l-.06.5c.127.411.27.817.418 1.215.095.218.15.451.163.688 3.078.878 6.34.878 9.418 0a.095.095 0 0 1 0-.025 2.977 2.977 0 0 1-.06-.683c.05-.642.134-1.282.25-1.915.037-.313.053-.627.048-.942v-.112c-.008-.096-.01-.186-.013-.276zm0 0c0-.1 0-.2-.017-.3-.018-.1-.015-.188-.028-.283-.012-.095-.022-.19-.035-.286a11.44 11.44 0 0 0-.103-.57c0-.033-.012-.063-.02-.096a11.72 11.72 0 0 0-.173-.68c0-.046-.025-.09-.04-.133-.015-.043-.043-.145-.065-.218l-.045-.14a5.492 5.492 0 0 0-.063-.188c-.038-.113-.078-.223-.118-.336-.04-.112-.083-.222-.125-.333-.086-.225-.178-.448-.271-.67-.364-.867-.773-1.72-1.149-2.567a14.174 14.174 0 0 1-.537-1.36l-.047.068a2.89 2.89 0 0 0-.203.36c0 1.971-1.977 4.382-1.977 4.382l-1.989-2.892-1.74 2.672c-.25.133-.502.588-.697 1.237a9.492 9.492 0 0 0-.158.568 9.437 9.437 0 0 0-.098.42 5.683 5.683 0 0 0-.048.221l-.045.228v.035c-.03.155-.06.315-.088.478-.027.163-.06.35-.087.528-.02.116-.038.23-.053.346-.035.223-.065.448-.095.67-.018.131-.036.251-.05.389l-.06.5c.127.411.27.817.418 1.215.095.218.15.451.163.688 3.078.878 6.34.878 9.418 0a.095.095 0 0 1 0-.025 2.977 2.977 0 0 1-.06-.683c.05-.642.134-1.282.25-1.915.037-.313.053-.627.048-.942v-.112c-.008-.096-.01-.186-.013-.276zm0 0c0-.1 0-.2-.017-.3-.018-.1-.015-.188-.028-.283-.012-.095-.022-.19-.035-.286a11.44 11.44 0 0 0-.103-.57c0-.033-.012-.063-.02-.096a11.72 11.72 0 0 0-.173-.68c0-.046-.025-.09-.04-.133-.015-.043-.043-.145-.065-.218l-.045-.14a5.492 5.492 0 0 0-.063-.188c-.038-.113-.078-.223-.118-.336-.04-.112-.083-.222-.125-.333-.086-.225-.178-.448-.271-.67-.364-.867-.773-1.72-1.149-2.567a14.174 14.174 0 0 1-.537-1.36l-.047.068a2.89 2.89 0 0 0-.203.36c0 1.971-1.977 4.382-1.977 4.382l-1.989-2.892-1.74 2.672c-.25.133-.502.588-.697 1.237a9.492 9.492 0 0 0-.158.568 9.437 9.437 0 0 0-.098.42 5.683 5.683 0 0 0-.048.221l-.045.228v.035c-.03.155-.06.315-.088.478-.027.163-.06.35-.087.528-.02.116-.038.23-.053.346-.035.223-.065.448-.095.67-.018.131-.036.251-.05.389l-.06.5c.127.411.27.817.418 1.215.095.218.15.451.163.688 3.078.878 6.34.878 9.418 0a.095.095 0 0 1 0-.025 2.977 2.977 0 0 1-.06-.683c.05-.642.134-1.282.25-1.915.037-.313.053-.627.048-.942v-.112c-.008-.096-.01-.186-.013-.276zm0 0c0-.1 0-.2-.017-.3-.018-.1-.015-.188-.028-.283-.012-.095-.022-.19-.035-.286a11.44 11.44 0 0 0-.103-.57c0-.033-.012-.063-.02-.096a11.72 11.72 0 0 0-.173-.68c0-.046-.025-.09-.04-.133-.015-.043-.043-.145-.065-.218l-.045-.14a5.492 5.492 0 0 0-.063-.188c-.038-.113-.078-.223-.118-.336-.04-.112-.083-.222-.125-.333-.086-.225-.178-.448-.271-.67-.364-.867-.773-1.72-1.149-2.567a14.174 14.174 0 0 1-.537-1.36l-.047.068a2.89 2.89 0 0 0-.203.36c0 1.971-1.977 4.382-1.977 4.382l-1.989-2.892-1.74 2.672c-.25.133-.502.588-.697 1.237a9.492 9.492 0 0 0-.158.568 9.437 9.437 0 0 0-.098.42 5.683 5.683 0 0 0-.048.221l-.045.228v.035c-.03.155-.06.315-.088.478-.027.163-.06.35-.087.528-.02.116-.038.23-.053.346-.035.223-.065.448-.095.67-.018.131-.036.251-.05.389l-.06.5c.127.411.27.817.418 1.215.095.218.15.451.163.688 3.078.878 6.34.878 9.418 0a.095.095 0 0 1 0-.025 2.977 2.977 0 0 1-.06-.683c.05-.642.134-1.282.25-1.915.037-.313.053-.627.048-.942v-.112c-.008-.096-.01-.186-.013-.276zm0 0c0-.1 0-.2-.017-.3-.018-.1-.015-.188-.028-.283-.012-.095-.022-.19-.035-.286a11.44 11.44 0 0 0-.103-.57c0-.033-.012-.063-.02-.096a11.72 11.72 0 0 0-.173-.68c0-.046-.025-.09-.04-.133-.015-.043-.043-.145-.065-.218l-.045-.14a5.492 5.492 0 0 0-.063-.188c-.038-.113-.078-.223-.118-.336-.04-.112-.083-.222-.125-.333-.086-.225-.178-.448-.271-.67-.364-.867-.773-1.72-1.149-2.567a14.174 14.174 0 0 1-.537-1.36l-.047.068a2.89 2.89 0 0 0-.203.36c0 1.971-1.977 4.382-1.977 4.382l-1.989-2.892-1.74 2.672c-.25.133-.502.588-.697 1.237a9.492 9.492 0 0 0-.158.568 9.437 9.437 0 0 0-.098.42 5.683 5.683 0 0 0-.048.221l-.045.228v.035c-.03.155-.06.315-.088.478-.027.163-.06.35-.087.528-.02.116-.038.23-.053.346-.035.223-.065.448-.095.67-.018.131-.036.251-.05.389l-.06.5c.127.411.27.817.418 1.215.095.218.15.451.163.688 3.078.878 6.34.878 9.418 0a.095.095 0 0 1 0-.025 2.977 2.977 0 0 1-.06-.683c.05-.642.134-1.282.25-1.915.037-.313.053-.627.048-.942v-.112c-.008-.096-.01-.186-.013-.276zm0 0c0-.1 0-.2-.017-.3-.018-.1-.015-.188-.028-.283-.012-.095-.022-.19-.035-.286a11.44 11.44 0 0 0-.103-.57c0-.033-.012-.063-.02-.096a11.72 11.72 0 0 0-.173-.68c0-.046-.025-.09-.04-.133-.015-.043-.043-.145-.065-.218l-.045-.14a5.492 5.492 0 0 0-.063-.188c-.038-.113-.078-.223-.118-.336-.04-.112-.083-.222-.125-.333-.086-.225-.178-.448-.271-.67-.364-.867-.773-1.72-1.149-2.567a14.174 14.174 0 0 1-.537-1.36l-.047.068a2.89 2.89 0 0 0-.203.36c0 1.971-1.977 4.382-1.977 4.382l-1.989-2.892-1.74 2.672c-.25.133-.502.588-.697 1.237a9.492 9.492 0 0 0-.158.568 9.437 9.437 0 0 0-.098.42 5.683 5.683 0 0 0-.048.221l-.045.228v.035c-.03.155-.06.315-.088.478-.027.163-.06.35-.087.528-.02.116-.038.23-.053.346-.035.223-.065.448-.095.67-.018.131-.036.251-.05.389l-.06.5c.127.411.27.817.418 1.215.095.218.15.451.163.688 3.078.878 6.34.878 9.418 0a.095.095 0 0 1 0-.025 2.977 2.977 0 0 1-.06-.683c.05-.642.134-1.282.25-1.915.037-.313.053-.627.048-.942v-.112c-.008-.096-.01-.186-.013-.276z"/>
            <path fill="#000" d="M15.08 23.262l-.167-.023a6.119 6.119 0 0 1-.753-.15l-.093-.025c-.612-.173-1.281-.483-1.432-1.03a.972.972 0 0 1 .015-.532c.085-.298.199-.587.341-.862v-.015c.02-.038.04-.076.063-.112.207-.404.52-.744.906-.984l-.301.047-2.549.413-3.95.636s-.702-.14-1.657 2.489c0 .033-.023.063-.033.098-.23.643-.474 1.447-.725 2.45-.173.697-.33 1.38-.476 2.044-.043.2-.086.398-.126.593A15.92 15.92 0 0 0 5.6 29.801l.083.078a17.12 17.12 0 0 0 3.34 2.361l.048.025c.758.408 1.546.756 2.358 1.042l.213.075c.045-.464.095-.977.156-1.503 0-.052 0-.105.02-.157l.06-.501c.015-.128.032-.25.05-.388.03-.223.06-.448.095-.671a29.013 29.013 0 0 1 .228-1.352v-.035l.046-.228c.015-.075.03-.148.047-.22.03-.143.063-.286.098-.42.05-.204.103-.394.158-.57.2-.648.434-1.103.697-1.236l1.74-2.672.074-.112.032-.05-.062-.005z" opacity=".1"/>
            <path fill="#444176" d="M14.933 23.267L13.084 26.1c-.25.128-.486.57-.684 1.2-.058.184-.116.387-.171.6a29.89 29.89 0 0 0-.567 3.277c0 .05 0 .1-.02.15-.085.697-.155 1.38-.213 1.984-.812-.286-1.6-.634-2.358-1.042l-.047-.025a17.12 17.12 0 0 1-3.34-2.361l-.084-.078a15.92 15.92 0 0 1-1.457-1.502c-.06-.067-.118-.138-.175-.208.027-.13.055-.25.085-.39.143-.664.3-1.345.474-2.038.228-.951.513-1.887.853-2.804a.765.765 0 0 1 .032-.08C6.3 20.503 6.94 20.63 6.94 20.63l4.17-.67 2.634-.426-.083.047c-.29.206-.537.469-.725.771l-.072.123c-.03.048-.058.1-.088.153a4.432 4.432 0 0 0-.346.876.92.92 0 0 0 .06.716c.25.486.963.751 1.547.897l.098.025c.263.058.53.1.798.125z"/>
            <path fill="#000" d="M29.426 28.327l-.103-2.224c.44-3.505-.438-3.723-.438-3.723l-1.044-.5h-.027l-4.196-2.03-.163-.08-.05-.023-.547-.266-.346-.168-.647-.313-.218-.105v.869c0 .25.022.543.042.884.045.856.128 2.003.276 3.355.083.783.188 1.64.319 2.559.077.543.132 1.084.168 1.612a28.326 28.326 0 0 1-.166 5.333l.228-.073a16.82 16.82 0 0 0 1.816-.726 16.673 16.673 0 0 0 3.235-1.983l.046-.032a16.723 16.723 0 0 0 1.82-1.65l-.005-.716z" opacity=".1"/>
            <path fill="#444176" d="M29.647 28.327l-.103-2.229c.44-3.505-.439-3.723-.439-3.723l-1.254-.605h-.025l-4.208-2.038-.193-.093-.038-.018-.308-.15-.41-.198-.807-.39V19.679c0 .25.023.578.045.951.043.799.118 1.846.251 3.09.09.854.203 1.803.351 2.824.077.546.132 1.086.166 1.62.111 1.754.06 3.514-.156 5.258a16.82 16.82 0 0 0 1.816-.726 16.673 16.673 0 0 0 3.235-1.983l.046-.033a16.723 16.723 0 0 0 2.031-1.875v-.478z"/>
            <path fill="#000" d="M11.913 5.528c-.25.346-.23.821-.344 1.252-.268.979-1.331 1.592-1.575 2.579-.143.576.023 1.187-.075 1.772-.178 1.08-1.166 1.81-1.718 2.754a3.71 3.71 0 0 0-.228 3.23c.129.263.236.536.318.816.064.418.037.845-.077 1.252-.188.892-.382 1.873.05 2.677.364.678 1.118 1.076 1.878 1.201a7.313 7.313 0 0 0 2.3-.105c.83-.127 1.68-.275 2.403-.7l-2.716-6.545c-.274-.661-.555-1.345-.552-2.06a4.523 4.523 0 0 1 .338-1.538 13.314 13.314 0 0 1 2.258-3.893c.393.455.363 1.149.692 1.655.29.373.677.662 1.118.833a37.09 37.09 0 0 0 3.96 1.653.52.52 0 0 1 .387.77l-1.023 4.217c-.226.929-.424 2.003.155 2.754.58.751 1.886 1.107 1.894 2.076-.011.153-.011.307 0 .46.067.453.607.671 1.065.694a3.176 3.176 0 0 0 3.188-2.596c.251-1.658-.848-3.185-1.307-4.8-.772-2.717.251-5.904-1.266-8.29-1.229-1.935-3.469-2.46-5.595-2.701-1.493-.175-4.477-.801-5.528.583z" opacity=".1"/>
            <path fill="#493545" d="M11.913 5.278c-.25.345-.23.821-.344 1.252-.268.979-1.331 1.592-1.575 2.578-.143.576.023 1.187-.075 1.773-.178 1.08-1.166 1.81-1.718 2.754a3.71 3.71 0 0 0-.228 3.23c.129.262.236.535.318.816.064.418.037.845-.077 1.252-.188.891-.382 1.873.05 2.676.364.679 1.118 1.077 1.878 1.202a7.313 7.313 0 0 0 2.3-.105c.83-.128 1.68-.275 2.403-.701l-2.716-6.545c-.274-.66-.555-1.344-.552-2.06a4.523 4.523 0 0 1 .338-1.538 13.314 13.314 0 0 1 2.258-3.893c.393.456.363 1.15.692 1.655.29.374.677.662 1.118.834a37.09 37.09 0 0 0 3.96 1.652.52.52 0 0 1 .387.771l-1.023 4.217c-.226.929-.424 2.003.155 2.754.58.75 1.886 1.106 1.894 2.075-.011.154-.011.308 0 .461.067.453.607.67 1.065.693a3.176 3.176 0 0 0 3.188-2.596c.251-1.657-.848-3.185-1.307-4.8-.772-2.716.251-5.903-1.266-8.29-1.229-1.934-3.469-2.46-5.595-2.7-1.493-.176-4.477-.802-5.528.583z"/>
        </g>
        <g opacity=".5" transform="translate(60.39 147.596)">
            <path fill="#C0BCCF" d="M34.179 17.26a16.928 16.928 0 0 1-4.72 11.755 16.723 16.723 0 0 1-1.82 1.65l-.046.033c-1 .782-2.085 1.447-3.235 1.983-.591.277-1.197.52-1.816.726l-.228.072a8.46 8.46 0 0 1-.43.13l-.057.018c-3.077.878-6.34.878-9.417 0h-.026c-.25-.073-.501-.148-.732-.23l-.213-.075c-.812-.286-1.6-.634-2.358-1.042l-.047-.025a17.12 17.12 0 0 1-3.34-2.361l-.084-.078a15.92 15.92 0 0 1-1.632-1.71 17.002 17.002 0 0 1-.862-20.555A17.07 17.07 0 0 1 22.22 1.015 17.028 17.028 0 0 1 34.18 17.26z"/>
            <path fill="url(#c)" d="M29.647 28.232l-.103-2.254c.44-3.563-.439-3.785-.439-3.785l-1.254-.616-.025-.013-4.208-2.07-.193-.095-.025-.103s.082-.25-.334-.293a1.522 1.522 0 0 1-.105-.638c.042-.481.406-.86.69-1.252a5.136 5.136 0 0 0 .825-3.648 8.572 8.572 0 0 0-1.4-3.525l-.08-.118c.098-.36.148-.733.148-1.107 0-2.881-2.92-5.217-6.521-5.217-3.26 0-5.977 1.925-6.448 4.436a2.28 2.28 0 0 0-.198.31c-.662 1.237.361 2.161.394 3.396.022.85-.55 1.58-1.004 2.3-.454.722-.79 1.68-.323 2.392.153.235.384.413.521.658.485.854-.32 1.833-.614 2.77-.034.108-.06.22-.08.332l-1.936.316s-.64-.13-1.528 2.188a25.352 25.352 0 0 0-.885 2.934A68.125 68.125 0 0 0 3.962 28c.058.07.116.142.176.21.452.542.938 1.054 1.457 1.532l.083.08a17.124 17.124 0 0 0 3.34 2.401l.048.025c.757.415 1.545.769 2.358 1.06l.213.075c.25.085.487.16.732.235.01.038.016.076.02.115v-.11c3.076.892 6.343.892 9.418 0l.058-.018c.143-.04.288-.085.429-.132l.228-.073c.62-.21 1.225-.457 1.816-.738a16.627 16.627 0 0 0 3.235-2.016l.045-.032a16.825 16.825 0 0 0 1.82-1.678c.074-.073.145-.15.212-.228l-.003-.475z"/>
            <path fill="#444176" d="M10.37 12c.023.839-.549 1.555-1.003 2.253-.454.699-.79 1.653-.323 2.351.153.23.384.409.521.649.485.839-.32 1.803-.614 2.724-.339 1.064.055 2.253.767 3.117.713.864 1.696 1.447 2.69 1.96a24.021 24.021 0 0 0 6.65 2.364c1.214.223 2.508.323 3.647-.163A3.869 3.869 0 0 0 24.895 23c-.289-1.317-1.255-2.376-1.756-3.62a1.693 1.693 0 0 1-.166-.784c.043-.473.407-.844.69-1.227a5 5 0 0 0 .813-3.563 8.354 8.354 0 0 0-1.4-3.47c-.258-.43-.6-.804-1.003-1.101-.547-.368-1.224-.474-1.876-.566-2.724-.38-5.545-.796-8.292-.937-.867-.045-1.504.126-1.933.937-.655 1.209.366 2.118.399 3.332z"/>
            <path fill="#C77485" d="M24.398 20.515l-5.17 7.339-5.045-.439s-.166 1.753-2.195-4.599c-1.133-3.553 1.171-2.318 1.625-3.302.454-.984 1.254-1.853 1.322-2.58.16-1.556-.313-2.443-.313-2.443l5.485-.656a4.08 4.08 0 0 0-.09 2.286c.687 2.85 4.38 4.394 4.38 4.394z"/>
            <ellipse cx="16.623" cy="9.126" fill="#444176" rx="6.521" ry="5.133"/>
            <path fill="#000" d="M20.014 16.119a5.49 5.49 0 0 1-5.081.816c.16-1.557-.314-2.444-.314-2.444l5.485-.656a4.08 4.08 0 0 0-.09 2.284z" opacity=".1"/>
            <ellipse cx="16.706" cy="11.534" fill="#C77485" rx="5.485" ry="5.476"/>
            <path fill="#000" d="M23.856 21.346l-.128-.5-.11-.441-.163-.65-.03-.121-.025-.1s.13-.393-.73-.266l-.16.028a7.02 7.02 0 0 0-.475.115l-.163.05-.215.068a4.704 4.704 0 0 0-1.821 1.096c-.231.221-.436.468-.61.736-.017.025-.03.048-.045.068-.06.093-.112.19-.158.29 0 1.973-1.976 4.382-1.976 4.382l-1.929-2.782-.037-.055-.46-.666-.162-.215-.056-.075-1.003-1.345-.25-.335-.083-.113-.123-.163-.289-.383-1.128.659-1.505.876-.878 5.696v.158l.028.47.183 3.095v.043l-.321 1.281.047.026c.758.407 1.546.756 2.358 1.041l.213.075c.251.083.487.158.732.23.01.038.016.075.02.113v-.108c3.078.878 6.34.878 9.418 0l.058-.017a8.46 8.46 0 0 0 .429-.13l.228-.073a16.82 16.82 0 0 0 1.816-.726l.21-4.481.15-3.233v-.185l-.857-3.433z" opacity=".1"/>
            <path fill="#444176" fill-rule="nonzero" d="M22.05 29.671c0-.1 0-.2-.017-.3-.018-.1-.015-.188-.028-.283-.012-.095-.022-.19-.035-.286a11.44 11.44 0 0 0-.103-.57c0-.033-.012-.063-.02-.096a11.72 11.72 0 0 0-.173-.68c0-.046-.025-.09-.04-.133-.015-.043-.043-.145-.065-.218l-.045-.14a5.492 5.492 0 0 0-.063-.188c-.038-.113-.078-.223-.118-.336-.04-.112-.083-.222-.125-.333-.086-.225-.178-.448-.271-.67-.364-.867-.773-1.72-1.149-2.567a14.174 14.174 0 0 1-.537-1.36l-.047.068a2.89 2.89 0 0 0-.203.36c0 1.971-1.977 4.382-1.977 4.382l-1.989-2.892-1.74 2.672c-.25.133-.502.588-.697 1.237a9.492 9.492 0 0 0-.158.568 9.437 9.437 0 0 0-.098.42 5.683 5.683 0 0 0-.048.221l-.045.228v.035c-.03.155-.06.315-.088.478-.027.163-.06.35-.087.528-.02.116-.038.23-.053.346-.035.223-.065.448-.095.67-.018.131-.036.251-.05.389l-.06.5c.127.411.27.817.418 1.215.095.218.15.451.163.688 3.078.878 6.34.878 9.418 0a.095.095 0 0 1 0-.025 2.977 2.977 0 0 1-.06-.683c.05-.642.134-1.282.25-1.915.037-.313.053-.627.048-.942v-.112c-.008-.096-.01-.186-.013-.276zm0 0c0-.1 0-.2-.017-.3-.018-.1-.015-.188-.028-.283-.012-.095-.022-.19-.035-.286a11.44 11.44 0 0 0-.103-.57c0-.033-.012-.063-.02-.096a11.72 11.72 0 0 0-.173-.68c0-.046-.025-.09-.04-.133-.015-.043-.043-.145-.065-.218l-.045-.14a5.492 5.492 0 0 0-.063-.188c-.038-.113-.078-.223-.118-.336-.04-.112-.083-.222-.125-.333-.086-.225-.178-.448-.271-.67-.364-.867-.773-1.72-1.149-2.567a14.174 14.174 0 0 1-.537-1.36l-.047.068a2.89 2.89 0 0 0-.203.36c0 1.971-1.977 4.382-1.977 4.382l-1.989-2.892-1.74 2.672c-.25.133-.502.588-.697 1.237a9.492 9.492 0 0 0-.158.568 9.437 9.437 0 0 0-.098.42 5.683 5.683 0 0 0-.048.221l-.045.228v.035c-.03.155-.06.315-.088.478-.027.163-.06.35-.087.528-.02.116-.038.23-.053.346-.035.223-.065.448-.095.67-.018.131-.036.251-.05.389l-.06.5c.127.411.27.817.418 1.215.095.218.15.451.163.688 3.078.878 6.34.878 9.418 0a.095.095 0 0 1 0-.025 2.977 2.977 0 0 1-.06-.683c.05-.642.134-1.282.25-1.915.037-.313.053-.627.048-.942v-.112c-.008-.096-.01-.186-.013-.276zm0 0c0-.1 0-.2-.017-.3-.018-.1-.015-.188-.028-.283-.012-.095-.022-.19-.035-.286a11.44 11.44 0 0 0-.103-.57c0-.033-.012-.063-.02-.096a11.72 11.72 0 0 0-.173-.68c0-.046-.025-.09-.04-.133-.015-.043-.043-.145-.065-.218l-.045-.14a5.492 5.492 0 0 0-.063-.188c-.038-.113-.078-.223-.118-.336-.04-.112-.083-.222-.125-.333-.086-.225-.178-.448-.271-.67-.364-.867-.773-1.72-1.149-2.567a14.174 14.174 0 0 1-.537-1.36l-.047.068a2.89 2.89 0 0 0-.203.36c0 1.971-1.977 4.382-1.977 4.382l-1.989-2.892-1.74 2.672c-.25.133-.502.588-.697 1.237a9.492 9.492 0 0 0-.158.568 9.437 9.437 0 0 0-.098.42 5.683 5.683 0 0 0-.048.221l-.045.228v.035c-.03.155-.06.315-.088.478-.027.163-.06.35-.087.528-.02.116-.038.23-.053.346-.035.223-.065.448-.095.67-.018.131-.036.251-.05.389l-.06.5c.127.411.27.817.418 1.215.095.218.15.451.163.688 3.078.878 6.34.878 9.418 0a.095.095 0 0 1 0-.025 2.977 2.977 0 0 1-.06-.683c.05-.642.134-1.282.25-1.915.037-.313.053-.627.048-.942v-.112c-.008-.096-.01-.186-.013-.276zm2.659-4.7l-.896-3.567-.153-.61-.042-.169-.218-.87v-.023a.2.2 0 0 0-.018-.113c-.033-.065-.115-.133-.308-.15a1.563 1.563 0 0 0-.221 0 3.826 3.826 0 0 0-.645.12 7.223 7.223 0 0 0-.33.095l-.216.068h-.02a4.788 4.788 0 0 0-1.58.876 4.259 4.259 0 0 0-.803.886l-.048.068a2.89 2.89 0 0 0-.203.36c0 1.97-1.976 4.382-1.976 4.382l-1.989-2.892-.113-.163-.02-.027-.288-.423-.219-.29-.057-.076-1.029-1.37-.326-.443v-.015l-.112-.152-.216-.286-.753.438-1.88 1.094-.868 5.636v.06l.025.411.185 3.137v.178L9.09 32.27c.757.408 1.546.756 2.357 1.042l.214.075c.25.082.486.157.732.23.01.037.016.075.02.113v-.108c3.078.878 6.34.878 9.418 0l.057-.018a8.46 8.46 0 0 0 .43-.13l.227-.072a16.82 16.82 0 0 0 1.816-.726l.208-4.477.15-3.197-.01-.03zm-2.659 4.7c0-.1 0-.2-.017-.3-.018-.1-.015-.188-.028-.283-.012-.095-.022-.19-.035-.286a11.44 11.44 0 0 0-.103-.57c0-.033-.012-.063-.02-.096a11.72 11.72 0 0 0-.173-.68c0-.046-.025-.09-.04-.133-.015-.043-.043-.145-.065-.218l-.045-.14a5.492 5.492 0 0 0-.063-.188c-.038-.113-.078-.223-.118-.336-.04-.112-.083-.222-.125-.333-.086-.225-.178-.448-.271-.67-.364-.867-.773-1.72-1.149-2.567a14.174 14.174 0 0 1-.537-1.36l-.047.068a2.89 2.89 0 0 0-.203.36c0 1.971-1.977 4.382-1.977 4.382l-1.989-2.892-1.74 2.672c-.25.133-.502.588-.697 1.237a9.492 9.492 0 0 0-.158.568 9.437 9.437 0 0 0-.098.42 5.683 5.683 0 0 0-.048.221l-.045.228v.035c-.03.155-.06.315-.088.478-.027.163-.06.35-.087.528-.02.116-.038.23-.053.346-.035.223-.065.448-.095.67-.018.131-.036.251-.05.389l-.06.5c.127.411.27.817.418 1.215.095.218.15.451.163.688 3.078.878 6.34.878 9.418 0a.095.095 0 0 1 0-.025 2.977 2.977 0 0 1-.06-.683c.05-.642.134-1.282.25-1.915.037-.313.053-.627.048-.942v-.112c-.008-.096-.01-.186-.013-.276zm0 0c0-.1 0-.2-.017-.3-.018-.1-.015-.188-.028-.283-.012-.095-.022-.19-.035-.286a11.44 11.44 0 0 0-.103-.57c0-.033-.012-.063-.02-.096a11.72 11.72 0 0 0-.173-.68c0-.046-.025-.09-.04-.133-.015-.043-.043-.145-.065-.218l-.045-.14a5.492 5.492 0 0 0-.063-.188c-.038-.113-.078-.223-.118-.336-.04-.112-.083-.222-.125-.333-.086-.225-.178-.448-.271-.67-.364-.867-.773-1.72-1.149-2.567a14.174 14.174 0 0 1-.537-1.36l-.047.068a2.89 2.89 0 0 0-.203.36c0 1.971-1.977 4.382-1.977 4.382l-1.989-2.892-1.74 2.672c-.25.133-.502.588-.697 1.237a9.492 9.492 0 0 0-.158.568 9.437 9.437 0 0 0-.098.42 5.683 5.683 0 0 0-.048.221l-.045.228v.035c-.03.155-.06.315-.088.478-.027.163-.06.35-.087.528-.02.116-.038.23-.053.346-.035.223-.065.448-.095.67-.018.131-.036.251-.05.389l-.06.5c.127.411.27.817.418 1.215.095.218.15.451.163.688 3.078.878 6.34.878 9.418 0a.095.095 0 0 1 0-.025 2.977 2.977 0 0 1-.06-.683c.05-.642.134-1.282.25-1.915.037-.313.053-.627.048-.942v-.112c-.008-.096-.01-.186-.013-.276zm0 0c0-.1 0-.2-.017-.3-.018-.1-.015-.188-.028-.283-.012-.095-.022-.19-.035-.286a11.44 11.44 0 0 0-.103-.57c0-.033-.012-.063-.02-.096a11.72 11.72 0 0 0-.173-.68c0-.046-.025-.09-.04-.133-.015-.043-.043-.145-.065-.218l-.045-.14a5.492 5.492 0 0 0-.063-.188c-.038-.113-.078-.223-.118-.336-.04-.112-.083-.222-.125-.333-.086-.225-.178-.448-.271-.67-.364-.867-.773-1.72-1.149-2.567a14.174 14.174 0 0 1-.537-1.36l-.047.068a2.89 2.89 0 0 0-.203.36c0 1.971-1.977 4.382-1.977 4.382l-1.989-2.892-1.74 2.672c-.25.133-.502.588-.697 1.237a9.492 9.492 0 0 0-.158.568 9.437 9.437 0 0 0-.098.42 5.683 5.683 0 0 0-.048.221l-.045.228v.035c-.03.155-.06.315-.088.478-.027.163-.06.35-.087.528-.02.116-.038.23-.053.346-.035.223-.065.448-.095.67-.018.131-.036.251-.05.389l-.06.5c.127.411.27.817.418 1.215.095.218.15.451.163.688 3.078.878 6.34.878 9.418 0a.095.095 0 0 1 0-.025 2.977 2.977 0 0 1-.06-.683c.05-.642.134-1.282.25-1.915.037-.313.053-.627.048-.942v-.112c-.008-.096-.01-.186-.013-.276zm0 0c0-.1 0-.2-.017-.3-.018-.1-.015-.188-.028-.283-.012-.095-.022-.19-.035-.286a11.44 11.44 0 0 0-.103-.57c0-.033-.012-.063-.02-.096a11.72 11.72 0 0 0-.173-.68c0-.046-.025-.09-.04-.133-.015-.043-.043-.145-.065-.218l-.045-.14a5.492 5.492 0 0 0-.063-.188c-.038-.113-.078-.223-.118-.336-.04-.112-.083-.222-.125-.333-.086-.225-.178-.448-.271-.67-.364-.867-.773-1.72-1.149-2.567a14.174 14.174 0 0 1-.537-1.36l-.047.068a2.89 2.89 0 0 0-.203.36c0 1.971-1.977 4.382-1.977 4.382l-1.989-2.892-1.74 2.672c-.25.133-.502.588-.697 1.237a9.492 9.492 0 0 0-.158.568 9.437 9.437 0 0 0-.098.42 5.683 5.683 0 0 0-.048.221l-.045.228v.035c-.03.155-.06.315-.088.478-.027.163-.06.35-.087.528-.02.116-.038.23-.053.346-.035.223-.065.448-.095.67-.018.131-.036.251-.05.389l-.06.5c.127.411.27.817.418 1.215.095.218.15.451.163.688 3.078.878 6.34.878 9.418 0a.095.095 0 0 1 0-.025 2.977 2.977 0 0 1-.06-.683c.05-.642.134-1.282.25-1.915.037-.313.053-.627.048-.942v-.112c-.008-.096-.01-.186-.013-.276zm0 0c0-.1 0-.2-.017-.3-.018-.1-.015-.188-.028-.283-.012-.095-.022-.19-.035-.286a11.44 11.44 0 0 0-.103-.57c0-.033-.012-.063-.02-.096a11.72 11.72 0 0 0-.173-.68c0-.046-.025-.09-.04-.133-.015-.043-.043-.145-.065-.218l-.045-.14a5.492 5.492 0 0 0-.063-.188c-.038-.113-.078-.223-.118-.336-.04-.112-.083-.222-.125-.333-.086-.225-.178-.448-.271-.67-.364-.867-.773-1.72-1.149-2.567a14.174 14.174 0 0 1-.537-1.36l-.047.068a2.89 2.89 0 0 0-.203.36c0 1.971-1.977 4.382-1.977 4.382l-1.989-2.892-1.74 2.672c-.25.133-.502.588-.697 1.237a9.492 9.492 0 0 0-.158.568 9.437 9.437 0 0 0-.098.42 5.683 5.683 0 0 0-.048.221l-.045.228v.035c-.03.155-.06.315-.088.478-.027.163-.06.35-.087.528-.02.116-.038.23-.053.346-.035.223-.065.448-.095.67-.018.131-.036.251-.05.389l-.06.5c.127.411.27.817.418 1.215.095.218.15.451.163.688 3.078.878 6.34.878 9.418 0a.095.095 0 0 1 0-.025 2.977 2.977 0 0 1-.06-.683c.05-.642.134-1.282.25-1.915.037-.313.053-.627.048-.942v-.112c-.008-.096-.01-.186-.013-.276zm0 0c0-.1 0-.2-.017-.3-.018-.1-.015-.188-.028-.283-.012-.095-.022-.19-.035-.286a11.44 11.44 0 0 0-.103-.57c0-.033-.012-.063-.02-.096a11.72 11.72 0 0 0-.173-.68c0-.046-.025-.09-.04-.133-.015-.043-.043-.145-.065-.218l-.045-.14a5.492 5.492 0 0 0-.063-.188c-.038-.113-.078-.223-.118-.336-.04-.112-.083-.222-.125-.333-.086-.225-.178-.448-.271-.67-.364-.867-.773-1.72-1.149-2.567a14.174 14.174 0 0 1-.537-1.36l-.047.068a2.89 2.89 0 0 0-.203.36c0 1.971-1.977 4.382-1.977 4.382l-1.989-2.892-1.74 2.672c-.25.133-.502.588-.697 1.237a9.492 9.492 0 0 0-.158.568 9.437 9.437 0 0 0-.098.42 5.683 5.683 0 0 0-.048.221l-.045.228v.035c-.03.155-.06.315-.088.478-.027.163-.06.35-.087.528-.02.116-.038.23-.053.346-.035.223-.065.448-.095.67-.018.131-.036.251-.05.389l-.06.5c.127.411.27.817.418 1.215.095.218.15.451.163.688 3.078.878 6.34.878 9.418 0a.095.095 0 0 1 0-.025 2.977 2.977 0 0 1-.06-.683c.05-.642.134-1.282.25-1.915.037-.313.053-.627.048-.942v-.112c-.008-.096-.01-.186-.013-.276zm0 0c0-.1 0-.2-.017-.3-.018-.1-.015-.188-.028-.283-.012-.095-.022-.19-.035-.286a11.44 11.44 0 0 0-.103-.57c0-.033-.012-.063-.02-.096a11.72 11.72 0 0 0-.173-.68c0-.046-.025-.09-.04-.133-.015-.043-.043-.145-.065-.218l-.045-.14a5.492 5.492 0 0 0-.063-.188c-.038-.113-.078-.223-.118-.336-.04-.112-.083-.222-.125-.333-.086-.225-.178-.448-.271-.67-.364-.867-.773-1.72-1.149-2.567a14.174 14.174 0 0 1-.537-1.36l-.047.068a2.89 2.89 0 0 0-.203.36c0 1.971-1.977 4.382-1.977 4.382l-1.989-2.892-1.74 2.672c-.25.133-.502.588-.697 1.237a9.492 9.492 0 0 0-.158.568 9.437 9.437 0 0 0-.098.42 5.683 5.683 0 0 0-.048.221l-.045.228v.035c-.03.155-.06.315-.088.478-.027.163-.06.35-.087.528-.02.116-.038.23-.053.346-.035.223-.065.448-.095.67-.018.131-.036.251-.05.389l-.06.5c.127.411.27.817.418 1.215.095.218.15.451.163.688 3.078.878 6.34.878 9.418 0a.095.095 0 0 1 0-.025 2.977 2.977 0 0 1-.06-.683c.05-.642.134-1.282.25-1.915.037-.313.053-.627.048-.942v-.112c-.008-.096-.01-.186-.013-.276zm0 0c0-.1 0-.2-.017-.3-.018-.1-.015-.188-.028-.283-.012-.095-.022-.19-.035-.286a11.44 11.44 0 0 0-.103-.57c0-.033-.012-.063-.02-.096a11.72 11.72 0 0 0-.173-.68c0-.046-.025-.09-.04-.133-.015-.043-.043-.145-.065-.218l-.045-.14a5.492 5.492 0 0 0-.063-.188c-.038-.113-.078-.223-.118-.336-.04-.112-.083-.222-.125-.333-.086-.225-.178-.448-.271-.67-.364-.867-.773-1.72-1.149-2.567a14.174 14.174 0 0 1-.537-1.36l-.047.068a2.89 2.89 0 0 0-.203.36c0 1.971-1.977 4.382-1.977 4.382l-1.989-2.892-1.74 2.672c-.25.133-.502.588-.697 1.237a9.492 9.492 0 0 0-.158.568 9.437 9.437 0 0 0-.098.42 5.683 5.683 0 0 0-.048.221l-.045.228v.035c-.03.155-.06.315-.088.478-.027.163-.06.35-.087.528-.02.116-.038.23-.053.346-.035.223-.065.448-.095.67-.018.131-.036.251-.05.389l-.06.5c.127.411.27.817.418 1.215.095.218.15.451.163.688 3.078.878 6.34.878 9.418 0a.095.095 0 0 1 0-.025 2.977 2.977 0 0 1-.06-.683c.05-.642.134-1.282.25-1.915.037-.313.053-.627.048-.942v-.112c-.008-.096-.01-.186-.013-.276z"/>
            <path fill="#000" d="M15.08 23.262l-.167-.023a6.119 6.119 0 0 1-.753-.15l-.093-.025c-.612-.173-1.281-.483-1.432-1.03a.972.972 0 0 1 .015-.532c.085-.298.199-.587.341-.862v-.015c.02-.038.04-.076.063-.112.207-.404.52-.744.906-.984l-.301.047-2.549.413-3.95.636s-.702-.14-1.657 2.489c0 .033-.023.063-.033.098-.23.643-.474 1.447-.725 2.45-.173.697-.33 1.38-.476 2.044-.043.2-.086.398-.126.593A15.92 15.92 0 0 0 5.6 29.801l.083.078a17.12 17.12 0 0 0 3.34 2.361l.048.025c.758.408 1.546.756 2.358 1.042l.213.075c.045-.464.095-.977.156-1.503 0-.052 0-.105.02-.157l.06-.501c.015-.128.032-.25.05-.388.03-.223.06-.448.095-.671a29.013 29.013 0 0 1 .228-1.352v-.035l.046-.228c.015-.075.03-.148.047-.22.03-.143.063-.286.098-.42.05-.204.103-.394.158-.57.2-.648.434-1.103.697-1.236l1.74-2.672.074-.112.032-.05-.062-.005z" opacity=".1"/>
            <path fill="#F1D2D7" d="M14.933 23.267L13.084 26.1c-.25.128-.486.57-.684 1.2-.058.184-.116.387-.171.6a29.89 29.89 0 0 0-.567 3.277c0 .05 0 .1-.02.15-.085.697-.155 1.38-.213 1.984-.812-.286-1.6-.634-2.358-1.042l-.047-.025a17.12 17.12 0 0 1-3.34-2.361l-.084-.078a15.92 15.92 0 0 1-1.457-1.502c-.06-.067-.118-.138-.175-.208.027-.13.055-.25.085-.39.143-.664.3-1.345.474-2.038.228-.951.513-1.887.853-2.804a.765.765 0 0 1 .032-.08C6.3 20.503 6.94 20.63 6.94 20.63l4.17-.67 2.634-.426-.083.047c-.29.206-.537.469-.725.771l-.072.123c-.03.048-.058.1-.088.153a4.432 4.432 0 0 0-.346.876.92.92 0 0 0 .06.716c.25.486.963.751 1.547.897l.098.025c.263.058.53.1.798.125z"/>
            <path fill="#000" d="M29.426 28.327l-.103-2.224c.44-3.505-.438-3.723-.438-3.723l-1.044-.5h-.027l-4.196-2.03-.163-.08-.05-.023-.547-.266-.346-.168-.647-.313-.218-.105v.869c0 .25.022.543.042.884.045.856.128 2.003.276 3.355.083.783.188 1.64.319 2.559.077.543.132 1.084.168 1.612a28.326 28.326 0 0 1-.166 5.333l.228-.073a16.82 16.82 0 0 0 1.816-.726 16.673 16.673 0 0 0 3.235-1.983l.046-.032a16.723 16.723 0 0 0 1.82-1.65l-.005-.716z" opacity=".1"/>
            <path fill="#F1D2D7" d="M29.647 28.327l-.103-2.229c.44-3.505-.439-3.723-.439-3.723l-1.254-.605h-.025l-4.208-2.038-.193-.093-.038-.018-.308-.15-.41-.198-.807-.39V19.679c0 .25.023.578.045.951.043.799.118 1.846.251 3.09.09.854.203 1.803.351 2.824.077.546.132 1.086.166 1.62.111 1.754.06 3.514-.156 5.258a16.82 16.82 0 0 0 1.816-.726 16.673 16.673 0 0 0 3.235-1.983l.046-.033a16.723 16.723 0 0 0 2.031-1.875v-.478z"/>
            <path fill="#000" d="M15.5 9.932c.782-.133 1.57-.418 2.347-.25.652.135 1.196.568 1.793.869.576.289 1.207.455 1.851.488.235.03.474-.016.68-.133.31-.215.356-.656.303-1.031-.15-1.067-.817-1.983-1.505-2.815a5.513 5.513 0 0 0-.943-.954c-.9-.663-2.091-.776-3.207-.726-1.274.058-2.569.303-3.675.942-.752.43-2.477 1.787-1.878 2.769.63 1.026 3.248 1.009 4.233.841z" opacity=".1"/>
            <path fill="#444176" d="M15.5 9.682c.782-.133 1.57-.418 2.347-.25.652.135 1.196.568 1.793.868.576.29 1.207.456 1.851.488.235.031.474-.015.68-.132.31-.216.356-.656.303-1.032-.15-1.066-.817-1.983-1.505-2.814a5.513 5.513 0 0 0-.943-.954c-.9-.663-2.091-.776-3.207-.726-1.274.058-2.569.303-3.675.941-.752.431-2.477 1.788-1.878 2.77.63 1.026 3.248 1.008 4.233.84z"/>
        </g>
        <path fill="url(#d)" fill-rule="nonzero" d="M144.3 144.967h.037c.055 1.667.291 3.175.747 3.593 1.085.995 5.583-.996 5.275-2.2l-.299-1.172c1.214-.152 2.252-.498 2.665-1.21l.781 2.41.055.171h.06c.515 4.882 1.682 15.02 2.615 16.378 1.244 1.799 2.674 9.595 2.674 9.595l2.675 15.992s1.03 9.206 1.647 10.202c.18.19.418.313.677.35-.36 1.08-.878 2.342-1.493 3.046-1.244 1.398-2.881 4.198-4.322 3.999-1.44-.2-1.85 2.799.824 3.197 1.48.222 3.842-.047 5.655-.33 0 .8.558 1.721 1.959 1.93 2.674.4 8.23-.799 8.23-.799s4.728-1.99 4.94-3.399c.149-1.02-.575-5.115-.979-7.263.747-1.197-.05-11.526-.05-11.526l-1.44-19.789s.824-10.993 0-12.993c-.515-1.245-.707-6.968-.779-11.06l.996.064c.056-.068.108-.14.154-.217l.249.018s1.244-1.399.206-3.598c-.764-1.635-.62-9.015-.498-12.69l.147-1.742a.498.498 0 0 0 .122-.19 18.25 18.25 0 0 0 5.556-1.681 5.638 5.638 0 0 0 1.458-.886c1.03-.995.41-6.997-1.647-15.992-2.058-8.995-3.909-8.197-3.909-8.197s-4.939-.4-7.203-3.399c-2.264-2.998-3.784-2.958-3.784-2.958a17.018 17.018 0 0 1-.125-1.11c0-.13-.02-.249-.027-.378a6.579 6.579 0 0 0 1.712-2.595c.462-.25 1.032-.331 1.475-.645.113-.082.216-.177.306-.284.444-.41.726-.965.794-1.565a6.4 6.4 0 0 0-.092-1.963c-.157-.955-.388-1.933-.946-2.685-.557-.751-1.39-1.204-2.194-1.625a698.11 698.11 0 0 0-6.547-3.394 3.613 3.613 0 0 0-1.4-.497c-.876-.05-1.662.55-2.369 1.12-.282.221-.552.458-.809.709a4.541 4.541 0 0 0-.594.64c-.826 1.106-1.177 3.192-.814 4.575.114.438.36.565.664.56a6.415 6.415 0 0 0-.684 2.886 6.544 6.544 0 0 0 3.038 5.497c0 .14 0 .276.013.408.01.51-.007 1.021-.05 1.53 0 0-5.474 2.959-6.089 4.357-.614 1.399-2.88 2.399-2.88 2.399s-4.323 2.2-4.323 9.995l-2.264 10.993-.41 20.989s.283-.249.746-.602c-.015.14-.028.283-.04.43a23.697 23.697 0 0 0-.062 2.411l-.03.19zm27.643 54.32c-.084.322-.209.747-.366 1.245-.07-.413-.139-.821-.209-1.21.18-.017.371-.027.575-.034z"/>
        <path fill="#53526B" d="M164.453 197.03s-.794 3.486-1.991 4.84c-1.197 1.355-2.765 4.069-4.149 3.874-1.383-.194-1.784 2.712.794 3.098 2.578.387 7.916-.773 7.916-.773s4.56-1.945 4.756-3.292c.196-1.348-1.19-8.329-1.19-8.329l-6.136.581z"/>
        <path fill="#000" d="M164.453 197.03s-.794 3.486-1.991 4.84c-1.197 1.355-2.765 4.069-4.149 3.874-1.383-.194-1.784 2.712.794 3.098 2.578.387 7.916-.773 7.916-.773s4.56-1.945 4.756-3.292c.196-1.348-1.19-8.329-1.19-8.329l-6.136.581z" opacity=".05"/>
        <path fill="#53526B" d="M171.74 198.071s-.794 3.486-1.99 4.84c-1.196 1.355-2.77 4.068-4.15 3.874-1.38-.195-1.783 2.71.793 3.097 2.576.386 7.922-.776 7.922-.776s4.556-1.945 4.752-3.292c.196-1.346-1.189-8.326-1.189-8.326l-6.139.583z"/>
        <path fill="#5F5D7E" d="M154.097 143.438s1.608 17.084 2.814 18.873c1.206 1.788 2.611 9.535 2.611 9.535l2.612 15.892s1.01 9.139 1.607 10.132c.598.993 8.057.566 8.057.566l-4.638-52.615-13.063-2.383z"/>
        <path fill="#000" d="M154.097 143.438s1.608 17.084 2.814 18.873c1.206 1.788 2.611 9.535 2.611 9.535l2.612 15.892s1.01 9.139 1.607 10.132c.598.993 8.057.566 8.057.566l-4.638-52.615-13.063-2.383z" opacity=".05"/>
        <path fill="#5F5D7E" d="M150.974 135.123l.521 1.65 2.82 8.911.055.17h.015c.379.085 8.37 1.914 10.094 2.475.093.03.184.063.273.103.8.397 1.797 14.706 1.797 14.706s.6 13.516 1.003 14.509c.403.993 2.005 21.461 2.995 20.867.99-.594 8.184 0 8.184 0 .8-.796 0-11.526 0-11.526l-1.419-19.673s.8-10.93 0-12.919c-.8-1.989-.8-15.302-.8-15.302l-16.34-2.543-1.578-.25-7.62-1.178z"/>
        <path fill="#000" d="M150.974 136.74l2.901 9.169.07.18c.39.087 8.612 1.969 10.386 2.546h.178l-4.593-12.123-.132-.35-1.493.096-7.317.482z" opacity=".02"/>
        <path fill="#000" d="M169.658 95.626s-7.174 8.02-11.633 1.402l-4.265 3.008.777 4.611-2.522 34.881s6.592-.201 11.244 1.402c2.645.97 5.594.266 7.56-1.805l-.767-30.67 1.746-9.421-2.14-3.408z" opacity=".1"/>
        <path fill="#53526B" d="M169.658 94.586s-7.174 8.02-11.633 1.402l-4.265 3.008.777 4.612-2.522 34.88s6.592-.2 11.244 1.403c2.645.97 5.594.266 7.56-1.805l-.767-30.67 1.746-9.422-2.14-3.408z"/>
        <g fill="#E82127">
            <path d="M155.338 130.702v1.16h-.39v-.772h-1.428v.772h-.393v-1.157l2.21-.003M154.989 130.328h-1.508a.543.543 0 0 1-.41-.383h2.325a.545.545 0 0 1-.41.383"/>
            <g>
                <path d="M168.625 129.958a.55.55 0 0 1-.407.382h-.635l-.031.011v1.515h-.39v-1.515l-.037-.011h-.635a.557.557 0 0 1-.407-.382h2.542"/>
            </g>
        </g>
        <path fill="#D6DBE6" d="M154.097 136.163s0 4.954-1.196 7.05c-1.197 2.095-8.174.956-8.174.956l1.394-7.05 7.976-.956z"/>
        <path fill="#FDC2CC" d="M145.509 148.37c1.121.977 5.77-.975 5.449-2.136-.224-.823-1.01-3.765-1.455-5.434l-.31-1.173s-2.723-.779-3.684 0c-.35.283-.596 1.398-.71 2.744-.198 2.34.002 5.38.71 6zM155.139 98.617l7.183 5.324s10.674-.592 8.006-5.522a17.837 17.837 0 0 1-2.062-6.967c-.086-.897-.086-1.8 0-2.697 0 0-9.854-8.666-8.622 1.184.097.756.154 1.516.17 2.278.147 7.393-4.675 6.4-4.675 6.4z"/>
        <path fill="#000" d="M159.405 90.09c.093.78.147 1.563.163 2.349a6.256 6.256 0 0 0 3.56 1.108c1.754 0 3.046-1.772 4.212-2.95-.13-1.687.293-1.728.293-1.728s-9.404-8.946-8.228 1.22z" opacity=".1"/>
        <ellipse cx="163.989" cy="86.791" fill="#FDC2CC" rx="6.768" ry="6.756"/>
        <path fill="#000" d="M167.884 92.507s1.116.1 3.348 3.065c2.231 2.965 7.1 3.363 7.1 3.363s1.827-.793 3.856 8.108c2.028 8.9 2.637 14.834 1.623 15.822-1.015.989-5.073 2.377-7.112 2.377 0 0-.609 12.46.405 14.635 1.015 2.176-.203 3.561-.203 3.561l-8.918-.593s-3.045-3.758-3.654-10.284c-.609-6.527-2.637-25.12-1.623-27.296 1.014-2.176 5.478-7.714 5.277-8.307-.201-.594-.1-4.45-.1-4.45z" opacity=".1"/>
        <path fill="#D6DBE6" d="M168.538 92.507s1.501-.04 3.734 2.936c2.232 2.976 7.1 3.372 7.1 3.372s1.828-.794 3.856 8.131c2.029 8.925 2.638 14.874 1.624 15.866-1.015.99-5.075 2.38-7.103 2.38 0 0-.61 12.494.405 14.675 1.014 2.182-.204 3.571-.204 3.571l-8.92-.595s-3.045-3.768-3.654-10.312c-.61-6.544-2.643-25.187-1.629-27.358 1.014-2.172 5.48-7.735 5.278-8.33-.201-.595-.487-4.336-.487-4.336z"/>
        <path fill="#000" d="M145.768 142.399c.9-.716 2.6-1.831 4.165-1.585l-.275-1.184s-2.41-.785-3.261 0c-.315.285-.53 1.408-.63 2.769zM159.421 93.547s-5.03 3.258-5.622 4.642c-.592 1.384-2.762 2.371-2.762 2.371s-4.14 2.173-4.14 9.875l-2.17 10.862 9.862 13.826s1.184-13.826 1.776-17.183c.592-3.358 1.38-9.672 1.38-9.672s2.96-3.752 2.563-4.74c-.396-.986-.887-9.981-.887-9.981z" opacity=".1"/>
        <path fill="#D6DBE6" d="M159.652 93.547s-5.117 2.966-5.692 4.368c-.575 1.401-2.694 2.405-2.694 2.405s-4.039 2.204-4.039 10.02l-2.116 11.02-.384 21.039s3.464-3.407 5.964-1.804c2.5 1.603 4.04-5.21 4.04-5.21s1.154-14.028 1.732-17.435c.577-3.407 1.346-9.812 1.346-9.812s2.886-3.807 2.5-4.809c-.387-1.001-.657-9.782-.657-9.782z"/>
        <path fill="#000" d="M157.124 78.142c.346-.429.746-.814 1.19-1.146.703-.57 1.48-1.166 2.352-1.116.493.064.967.23 1.39.485a681.477 681.477 0 0 1 6.497 3.384c.798.42 1.62.866 2.177 1.622.557.756.783 1.727.94 2.678.13.644.161 1.304.092 1.957a2.437 2.437 0 0 1-.888 1.644c-.582.413-1.38.415-1.867.956-.282.313-.405.75-.605 1.131-.2.38-.547.751-.942.684-.395-.068-.633-.476-.69-.889-.025-.418 0-.838.075-1.251.077-.751-.02-1.547-.467-2.105-.308-.38-.749-.61-1.047-1.001-.713-.941-.387-2.503-1.17-3.386a1.885 1.885 0 0 0-1.795-.5c-.633.13-1.213.465-1.795.75a13.54 13.54 0 0 1-2.46.926c-.713.19-1.539.646-1.782-.28-.372-1.36-.026-3.44.795-4.543z" opacity=".1"/>
        <path fill="#865A61" d="M158.166 78.142c.346-.429.746-.814 1.19-1.146.703-.57 1.48-1.166 2.352-1.116.493.064.967.23 1.39.485 2.17 1.117 3.973.06 6.496 3.384.539.71 1.621.866 2.178 1.622.556.756.782 1.727.938 2.678.131.644.162 1.304.093 1.957a2.438 2.438 0 0 1-.888 1.644c-.582.413-1.38.415-1.867.956-.282.313-.405.75-.605 1.131-.2.38-.546.751-.941.684-.395-.068-.634-.476-.69-.889-.025-.418 0-.838.074-1.251.077-.751-.02-1.547-.467-2.105-.307-.38-.748-.61-1.046-1.001-.713-.941-.387-2.503-1.17-3.386a1.885 1.885 0 0 0-1.795-.5c-.633.13-1.213.465-1.795.75-.786.387-1.61.697-2.46.926-.712.19-1.538.646-1.782-.28-.374-1.36-.026-3.442.795-4.543z"/>
        <path fill="#000" d="M175.577 109.138s2.699 6.626.673 9.355l-4.452-.98s4.048 1.17 3.44-1.169c-.607-2.34.339-7.206.339-7.206zM177.004 125.561s-5.713.415-7.289-.832a14.676 14.676 0 0 0 7.11 3.118l.179-2.286zM153.056 112.256s-3.336 9.075-3.113 10.455c.224 1.38.668 16.57.668 16.57l.667-.198-.224-16.57 2.002-10.257z" opacity=".1"/>
        <path fill="url(#e)" fill-rule="nonzero" d="M177.845 123.874l-68.258-54.785a4.28 4.28 0 0 0-3.026-1.245h-2.9C115.691 52.489 113.65 30.462 99 17.56 84.35 4.66 62.15 5.338 48.322 19.11c-13.828 13.772-14.51 35.883-1.556 50.473 12.953 14.591 35.07 16.625 50.487 4.643v2.886a4.245 4.245 0 0 0 1.25 3.014l68.258 54.784a4.26 4.26 0 0 0 6.036 0l5.03-5.005a4.263 4.263 0 0 0 .018-6.031zm-103.38-56.03c-12.585 0-22.788-10.161-22.788-22.696 0-12.535 10.203-22.696 22.788-22.696s22.788 10.161 22.788 22.696a22.637 22.637 0 0 1-6.67 16.055 22.822 22.822 0 0 1-16.118 6.646v-.005z"/>
        <path fill="#0DA176" fill-rule="nonzero" d="M178.886 122.834L110.628 68.05a4.28 4.28 0 0 0-3.025-1.246h-2.9c12.03-15.354 9.988-37.382-4.662-50.283C85.39 3.62 63.19 4.3 49.363 18.071c-13.828 13.772-14.51 35.882-1.556 50.473 12.954 14.591 35.07 16.625 50.487 4.643v2.886a4.245 4.245 0 0 0 1.25 3.013l68.259 54.785a4.26 4.26 0 0 0 6.035 0l5.03-5.005a4.263 4.263 0 0 0 .018-6.032zm-103.38-56.03c-12.585 0-22.788-10.16-22.788-22.695s10.203-22.696 22.788-22.696c12.586 0 22.788 10.161 22.788 22.696a22.637 22.637 0 0 1-6.669 16.055 22.822 22.822 0 0 1-16.119 6.645v-.005z"/>
        <path fill="#FDC2CC" d="M172.839 118.316s-9.541-10.932-8.2-3.43c.957 5.334 4.575 8.193 6.292 8.765 1.716.571 1.908-5.335 1.908-5.335z"/>
        <path fill="#D6DBE6" d="M176.366 107.06s.203 7.487 1.21 8.498c1.007 1.011-.605 2.225-.605 2.225l-4.031-1.016s1.012 6.677-3.225 5.87c0 0 2.822 2.629 5.644 3.035 2.822.407 2.62-.607 2.62-.607l4.23-5.058-5.843-12.948z"/>
        <path fill="#D6DBE6" d="M177.156 125.768l4.013-.984-.537-2.064-2.483-1.11-3.228 1.664z"/>
        <path fill="#C0BCCF" d="M59.348 44.176a17.057 17.057 0 0 0 4.755 11.844c.57.598 1.183 1.154 1.834 1.662l.046.033c1.006.788 2.1 1.458 3.259 1.998.595.28 1.206.523 1.829.732l.23.073c.141.048.288.09.432.131l.058.018c.073.02.147.043.222.06 1.469.399 2.983.6 4.505.598.253 0 .518 0 .776-.018a17.01 17.01 0 0 0 3.984-.65h.025c.24-.071.478-.144.713-.225h.025l.215-.076a16.67 16.67 0 0 0 2.374-1.05l.048-.024.253-.139a17.136 17.136 0 0 0 3.118-2.24l.083-.078A16.04 16.04 0 0 0 89.6 55.31l.053-.063c.043-.048.083-.096.124-.146a17.134 17.134 0 0 0 .861-20.708 17.193 17.193 0 0 0-19.243-6.585 17.157 17.157 0 0 0-12.047 16.367z"/>
        <path fill="url(#f)" d="M64.893 49.83s3.61-.311 5.264-2.654c1.613-2.28 2.71-2.307 2.764-2.307.041-.305.07-.594.09-.864v-.038a.485.485 0 0 1-.227.103c-.324.05-.607-.262-.769-.595a4.674 4.674 0 0 0-.49-.983c-.398-.47-1.052-.472-1.527-.83a2.156 2.156 0 0 1-.734-1.428 4.01 4.01 0 0 1-.03-.624 7.049 7.049 0 0 1 .103-1.331c.128-.827.316-1.673.769-2.325.453-.652 1.339-.791 1.78-1.408 2.063-2.887 3.534-1.97 5.308-2.94a2.809 2.809 0 0 1 1.136-.421c.712-.043 1.348.477 1.921.971.366.29.695.625.98.999.51.732.797 1.958.773 3.031.013.4-.025.798-.113 1.187-.142.574-.526.536-.947.407 1.074 2.308.341 5.072-1.728 6.512v.262a12.062 12.062 0 0 0 .04 1.251c.04.023 3.998 2.313 4.446 3.399.448 1.086 2.108 1.873 2.108 1.873s1.823.999 2.692 4.135l-.052.062c-.44.541-.915 1.052-1.422 1.529l-.08.08a16.63 16.63 0 0 1-3.265 2.387l-.047.025c-.738.413-1.508.766-2.3 1.056l-.209.077h-.024c-.228.083-.458.155-.69.225h-.025a15.915 15.915 0 0 1-4.611.672 16.009 16.009 0 0 1-4.352-.577c-.073-.017-.144-.04-.215-.06l-.057-.017a8.152 8.152 0 0 1-.418-.133l-.223-.072a16.069 16.069 0 0 1-1.78-.74 16.176 16.176 0 0 1-3.157-2.01l-.044-.032a16.561 16.561 0 0 1-1.982-1.903c-.135-.15-.267-.302-.394-.457-.245-.287-.465-.579-.683-.881 1.31-5.127 2.42-4.612 2.42-4.612z"/>
        <path fill="#FDC2CC" d="M78.025 54.05l5.27-4.14s-3.53.77-3.43-4.976a14.968 14.968 0 0 1 .123-1.772c.904-7.668-6.325-.92-6.325-.92a11.18 11.18 0 0 1 0 2.04v.055a14.458 14.458 0 0 1-1.505 5.418c-1.962 3.833 5.867 4.294 5.867 4.294z"/>
        <path fill="#000" d="M74.587 43.23c.873.889 1.406 2.504 2.719 2.504.95.002 1.879-.29 2.67-.839 0-.52.048-1.092.12-1.72.882-7.695-6.17-.924-6.17-.924s.755-.273.661.979z" opacity=".1"/>
        <ellipse cx="77.049" cy="40.537" fill="#FDC2CC" rx="5.206" ry="5.197"/>
        <path fill="#000" d="M82.476 33.125a5.684 5.684 0 0 0-1.037-.983c-.607-.488-1.282-1.002-2.036-.957a3.117 3.117 0 0 0-1.204.416c-1.88.957-3.44.053-5.627 2.9-.467.609-1.403.751-1.885 1.39-.483.64-.678 1.479-.815 2.296a5.441 5.441 0 0 0-.08 1.68c.057.55.337 1.055.778 1.408.503.353 1.196.355 1.618.819.213.302.387.628.52.97.17.326.471.634.814.586.342-.047.547-.406.596-.752.022-.357 0-.717-.064-1.07-.065-.634.018-1.325.404-1.804.26-.328.649-.524.906-.857.617-.805.337-2.155 1.014-2.902.403-.4.997-.56 1.556-.419.546.15 1.069.368 1.557.647.68.332 1.394.598 2.13.794.617.163 1.333.554 1.543-.25.33-1.183.02-2.967-.688-3.912z" opacity=".1"/>
        <path fill="#865A61" d="M82.476 33.125a5.684 5.684 0 0 0-1.037-.983c-.607-.488-1.282-1.002-2.036-.957a3.117 3.117 0 0 0-1.204.416c-1.88.957-3.44.053-5.627 2.9-.467.609-1.403.751-1.885 1.39-.483.64-.678 1.479-.815 2.296a5.441 5.441 0 0 0-.08 1.68c.057.55.337 1.055.778 1.408.503.353 1.196.355 1.618.819.213.302.387.628.52.97.17.326.471.634.814.586.342-.047.547-.406.596-.752.022-.357 0-.717-.064-1.07-.065-.634.018-1.325.404-1.804.26-.328.649-.524.906-.857.617-.805.337-2.155 1.014-2.902.403-.4.997-.56 1.556-.419.546.15 1.069.368 1.557.647.68.332 1.394.598 2.13.794.617.163 1.333.554 1.543-.25.33-1.183.02-2.967-.688-3.912z"/>
        <path fill="#000" d="M72.204 56.804l-.102 3.916c1.483.403 3.012.607 4.548.605.255 0 .523 0 .783-.018a17.147 17.147 0 0 0 4.022-.658h.026c.242-.071.482-.145.72-.227h.025l.217-.077c.825-.29 1.627-.645 2.397-1.06l.049-.026.255-.14-.396-5.279.63-3.62-3.448-2.35c-.194.28-.41.543-.648.786-.34.356-.739.65-1.178.873-2.474 1.22-5.29-.72-6.69-1.919l-.32-.283a9.846 9.846 0 0 1-.568-.554L70.8 49.437l1.403 7.367z" opacity=".1"/>
        <path fill="#53526B" d="M72.204 56.804l-.102 3.916c1.483.403 3.012.607 4.548.605.255 0 .523 0 .783-.018a17.147 17.147 0 0 0 4.022-.658h.026c.242-.071.482-.145.72-.227h.025l.217-.077c.825-.29 1.627-.645 2.397-1.06l.049-.026.255-.14-.396-5.279.63-3.62-3.448-2.35c-.194.28-.41.543-.648.786-.34.356-.739.65-1.178.873-2.474 1.22-5.29-.72-6.69-1.919l-.32-.283a9.846 9.846 0 0 1-.568-.554L70.8 49.437l1.403 7.367z"/>
        <path fill="#555388" d="M62.472 54.356a16.888 16.888 0 0 0 1.315 1.581 16.872 16.872 0 0 0 1.822 1.688l.045.034c1 .8 2.086 1.48 3.237 2.029.59.283 1.197.532 1.817.743l.228.074c.14.049.286.092.429.133l.058.018c.073.02.145.044.22.062 1.459.405 2.964.609 4.475.607.25 0 .514 0 .77-.018.196-3.269.251-5.893-.055-6.566-.184-.39-.39-.769-.62-1.133-1.24-2.034-3.513-5.093-3.39-5.48.048-.19.082-.382.103-.577.133-1.01.266-2.856.266-2.856-.055 0-1.18.028-2.833 2.329-1.697 2.362-5.398 2.677-5.398 2.677s-1.132-.513-2.49 4.655zM81.23 57.02s.192 1.487.444 3.266h.026l.222-.076c.842-.288 1.66-.64 2.446-1.05l.05-.026.26-.139a17.653 17.653 0 0 0 3.212-2.243l.086-.078a16.28 16.28 0 0 0 1.512-1.516l.055-.063c-.93-3.13-2.863-4.115-2.863-4.115s-1.76-.778-2.241-1.864c-.482-1.086-4.733-3.382-4.733-3.382v.018c0 .194-.067 1.975-.169 3.766-.065 1.164-.146 2.334-.24 3.076a3.5 3.5 0 0 1-.135.713c-.33.765 2.067 3.713 2.067 3.713z"/>
    </g>
</svg>
