<svg xmlns="http://www.w3.org/2000/svg" width="380" height="354" viewBox="0 0 380 354">
    <defs>
        <linearGradient id="a" x1="50.007%" x2="50.007%" y1="100%" y2=".01%">
            <stop offset="0%" stop-color="gray" stop-opacity=".25"/>
            <stop offset="54%" stop-color="gray" stop-opacity=".12"/>
            <stop offset="100%" stop-color="gray" stop-opacity=".1"/>
        </linearGradient>
        <linearGradient id="b" x1="50.001%" x2="50.001%" y1="100.015%" y2=".009%">
            <stop offset="0%" stop-color="gray" stop-opacity=".25"/>
            <stop offset="54%" stop-color="gray" stop-opacity=".12"/>
            <stop offset="100%" stop-color="gray" stop-opacity=".1"/>
        </linearGradient>
        <linearGradient id="c" x1="49.999%" x2="49.999%" y1="100.017%" y2=".009%">
            <stop offset="0%" stop-color="gray" stop-opacity=".25"/>
            <stop offset="54%" stop-color="gray" stop-opacity=".12"/>
            <stop offset="100%" stop-color="gray" stop-opacity=".1"/>
        </linearGradient>
        <linearGradient id="d" x1="50.254%" x2="50.254%" y1="55.5%" y2="44.5%">
            <stop offset="0%" stop-color="gray" stop-opacity=".25"/>
            <stop offset="54%" stop-color="gray" stop-opacity=".12"/>
            <stop offset="100%" stop-color="gray" stop-opacity=".1"/>
        </linearGradient>
        <linearGradient id="e" x1="50.009%" x2="50.009%" y1="100.004%" y2="-.012%">
            <stop offset="0%" stop-color="gray" stop-opacity=".25"/>
            <stop offset="54%" stop-color="gray" stop-opacity=".12"/>
            <stop offset="100%" stop-color="gray" stop-opacity=".1"/>
        </linearGradient>
    </defs>
    <g fill="none" fill-rule="evenodd">
        <path fill="#F4F4F4" d="M182.646 41.576c-1.508 0-3.181 0-4.328.104a4.612 4.612 0 0 0-1.499.36l-7.744 3.275c6.245.182 12.777.125 19.183.068l35.944-.324c3.667-.03 7.517-.073 10.577-.328 2.048-.172 3.57-.422 5.443-.62 6.803-.71 16.725-.574 25.585-.522 8.86.052 19.558-.235 22.677-1.272h-19.019c-2.052 0-4.202 0-6.013-.12-2.115-.141-3.409-.418-5.269-.605-3.078-.308-7.325-.344-11.274-.365-21.677-.115-43.086.48-64.263.35z"/>
        <path fill="url(#a)" d="M22.191 238.818s16.022-72.047 63.63-53.041c47.61 19.006 112.155 9.065 119.02 4.986 6.867-4.08 91.554-38.981 116.731-.906 25.177 38.074 14.191 48.952 14.191 48.952l-313.572.009z"/>
        <path fill="#0DA176" d="M26.418 237.761s15.647-70.935 62.14-52.197c46.494 18.737 109.528 8.923 116.234 4.907 6.706-4.015 89.41-38.367 113.998-.892 24.588 37.475 13.859 48.182 13.859 48.182H26.418z"/>
        <path fill="#F0E4E4" d="M60.233 241.984s18.333-59.897 33.536-40.519c15.203 19.379 67.966 10.57 77.803 9.692 9.837-.879 135.932 30.831 135.932 30.831l-247.271-.004z"/>
        <path fill="url(#b)" d="M376.863 93.112a35.84 35.84 0 0 0-1.206-29.014c-3.319-6.614-8.664-12.091-11.57-18.912-1.686-3.95-2.498-8.208-3.856-12.279a48.188 48.188 0 0 0-25.933-28.446c-5.951-2.624-12.556-4.03-19.014-3.134C304.85 2.773 296.1 9.925 289.127 17.81c-10.14 11.464-18.08 26.762-14.61 41.648 2.34 10.053 9.56 18.432 11.987 28.463 3.139 12.987-2.166 26.663-.471 39.919 1.565 12.248 9.61 23.206 20.435 28.992 12.386 6.619 29.619-.331 41.964-4.648 5.305-1.859 10.91-4.335 13.633-9.252 3.587-6.512.83-14.608 1.7-21.997 1.201-10.229 9.255-18.24 13.098-27.824z"/>
        <path fill="url(#c)" d="M90.394 44.13c-1.686-3.95-2.498-8.209-3.857-12.28A48.187 48.187 0 0 0 60.606 3.405C54.656.78 48.05-.625 41.593.27 31.158 1.716 22.41 8.868 15.437 16.754 5.298 28.22-2.643 43.516.827 58.402c2.341 10.053 9.56 18.432 11.987 28.463 3.138 12.987-2.166 26.664-.471 39.92 1.565 12.247 9.61 23.205 20.434 28.991 12.385 6.62 29.618-.331 41.963-4.648 5.304-1.859 10.91-4.335 13.631-9.252 3.588-6.511.83-14.608 1.7-21.997 1.206-10.255 9.255-18.267 13.103-27.85a35.84 35.84 0 0 0-1.207-29.015c-3.318-6.587-8.663-12.077-11.573-18.884z"/>
        <path fill="#0DA176" d="M283.685 127.387c-1.661-13.002 3.543-26.385.45-39.113-2.38-9.832-9.43-18.041-11.747-27.891-3.404-14.598 4.382-29.59 14.319-40.8 6.834-7.724 15.41-14.736 25.635-16.14 6.313-.896 12.801.49 18.63 3.058a47.223 47.223 0 0 1 25.414 27.873c1.347 3.99 2.124 8.165 3.78 12.034 2.852 6.667 8.083 12.047 11.339 18.53a35.11 35.11 0 0 1 1.18 28.43c-3.767 9.387-11.674 17.242-12.841 27.29-.85 7.24 1.872 15.172-1.662 21.552-2.667 4.815-8.159 7.245-13.358 9.065-12.097 4.232-28.989 11.043-41.126 4.555-10.597-5.703-18.477-16.44-20.013-28.443z"/>
        <path stroke="#333" stroke-width="3" d="M318.072 136.316s17.752-7.19 19.99-11.235c2.238-4.044 5.37-27.863 5.37-27.863M317.543 245.158V90.878"/>
        <path fill="#0DA176" d="M16.336 125.274c-1.662-13.002 3.543-26.385.449-39.113-2.38-9.833-9.43-18.042-11.747-27.892-3.403-14.598 4.383-29.59 14.32-40.799 6.834-7.725 15.41-14.737 25.634-16.14 6.314-.897 12.802.489 18.63 3.058A47.223 47.223 0 0 1 89.037 32.26c1.347 3.99 2.124 8.164 3.78 12.034 2.852 6.666 8.083 12.046 11.338 18.53a35.11 35.11 0 0 1 1.181 28.429c-3.767 9.388-11.674 17.243-12.842 27.29-.848 7.241 1.873 15.172-1.661 21.552-2.667 4.815-8.159 7.245-13.358 9.066-12.097 4.232-28.99 11.042-41.126 4.555-10.597-5.703-18.478-16.441-20.013-28.443z"/>
        <path fill="#000" d="M16.336 125.274c-1.662-13.002 3.543-26.385.449-39.113-2.38-9.833-9.43-18.042-11.747-27.892-3.403-14.598 4.383-29.59 14.32-40.799 6.834-7.725 15.41-14.737 25.634-16.14 6.314-.897 12.802.489 18.63 3.058A47.223 47.223 0 0 1 89.037 32.26c1.347 3.99 2.124 8.164 3.78 12.034 2.852 6.666 8.083 12.046 11.338 18.53a35.11 35.11 0 0 1 1.181 28.429c-3.767 9.388-11.674 17.243-12.842 27.29-.848 7.241 1.873 15.172-1.661 21.552-2.667 4.815-8.159 7.245-13.358 9.066-12.097 4.232-28.99 11.042-41.126 4.555-10.597-5.703-18.478-16.441-20.013-28.443z" opacity=".2"/>
        <path stroke="#333" stroke-width="3" d="M49.666 134.203s17.752-7.19 19.99-11.235c2.238-4.045 5.37-27.864 5.37-27.864M50.194 244.101V89.821"/>
        <path fill="#F0E4E4" d="M72.933 298.284c5.505.358 11.323 2.242 16.332-.04 1.292-.586 2.464-1.433 3.805-1.905 3.082-1.086 6.467-.031 9.57.983a429.071 429.071 0 0 0 74.62 17.177c5.222.719 10.674 1.323 15.65-.353 3.641-1.222 6.794-3.583 10.398-4.907 5.894-2.157 12.405-1.354 18.68-1.014a121.132 121.132 0 0 0 48.296-7.258l.814-.296c7.79-2.968 16.576-1.803 23.295 3.089a57.296 57.296 0 0 0 8.309 4.999c9.794 4.862 13.88 16.536 9.216 26.326l-.107.23c-2.558 5.502-4.691 11.661-9.704 15.155-4.727 3.296-10.93 3.433-16.716 3.446L249.87 354c-3.685 0-7.414 0-10.992-.856-3.215-.78-6.207-2.246-9.172-3.702l-15.898-7.796c-6.4-3.137-13.416-6.366-20.419-4.924-7.155 1.474-12.31 7.408-18.545 11.15-9.673 5.81-22.534 6.04-32.412.569-4.732-2.621-8.841-6.442-14.002-8.088-8.524-2.722-17.58 1.046-26.349 2.85-17.06 3.508-37.18-1.297-50.255-12.914-16.846-14.97 2.942-33.178 21.107-32.005z"/>
        <g opacity=".7">
            <path fill="url(#d)" d="M.92 109.944v-.05a.134.134 0 0 0 0 .05z" transform="translate(88.764 73.97)"/>
            <path fill="url(#e)" fill-rule="nonzero" d="M211.914 62.8c-.643-1.05-2.16-1.399-3.418-1.908-2.852-1.148-4.909-3.622-5.208-6.289-.21-1.786.272-3.819-.955-5.306-.53-.643-1.338-1.094-1.976-1.652-1.406-1.189-2.151-2.819-2.794-4.409a67.29 67.29 0 0 1-3.98-13.958c-.366-2.14-.634-4.332-1.7-6.289-2.454-4.511-8.532-6.762-14.301-7.57-2.276-.318-4.641-.474-6.868.044a17.453 17.453 0 0 0-5.453 2.52 27.794 27.794 0 0 0-4.765 3.72 9.599 9.599 0 0 0-2.512 3.622c-.447 1.34.276 2.135 1.468 2.64a15.218 15.218 0 0 0-3.302 9.505 15.05 15.05 0 0 0 10.41 14.413 4.85 4.85 0 0 1-.54 1.939c-1.441.835-6.724 3.537-12.757 2.278-1.245-.26-2.459.375-3.62 1.594-5.6 5.36-9.968 24.727-9.968 24.727l-16.247 23.373.246.237-.246.353.415.397-13.315 12.395c-.03-.125-.067-.25-.093-.375l-3.798-5.516v-.036l.246-.072 1.785-8.28-3.842.893-.04-.058-.22-.326-14.818-22.1L76.28 57.206l-.42-.808s.18.33.38.679v.027l.036.062v.031l.058.099.026.044.027.05.031.049.023.04.049.08v.027l.035.054v.026l.036.054.04.054.027.03.027.028a.156.156 0 0 0 0-.036v-.054l-.027-.089-.04-.12v-.036l-.045-.12v-.037l-.071-.183v-.027l-.076-.187-.027-.067-.084-.206-.023-.053-.12-.29-.032-.076-.111-.255-.045-.103-.165-.375c-2.066-4.73-5.02-7.097-5.02-7.097a54.505 54.505 0 0 1-16.541-5.624v-.29l-3.846-1.787a40.795 40.795 0 0 1-1.58-5.132A15.023 15.023 0 0 0 60.11 20.93c0-.33 0-.656-.036-.982.287-.077.558-.201.804-.367 1.548-1.076 1.146-3.662 2.534-4.935.634-.58 1.566-.809 2.07-1.51.275-.453.44-.964.482-1.492.34-2.166.447-4.757-1.169-6.186a3.433 3.433 0 0 0-.446-.447c-2.102-1.648-5.216-.285-7.809-.893-1.11-.268-2.088-.893-3.123-1.416C49.298.6 44.492.277 39.887.277c-2.324 0-4.676.076-6.911.715-2.236.638-4.364 1.898-5.64 3.84a12.678 12.678 0 0 0-1.469 3.538 40.205 40.205 0 0 0-1.294 15.16c.201 1.907.62 3.953 2.044 5.239.094.103.192.2.299.3a6.052 6.052 0 0 0 3.333 1.375 5.185 5.185 0 0 0 3.124-.536 51.414 51.414 0 0 1-.616 7.794c-.79.38-6.247 3.127-7.1 6.932a526.173 526.173 0 0 1-8.45 3.274 3.464 3.464 0 0 0-1.634-.054C5.823 49.641 5.234 59.977 5.234 59.977S3.45 89.545 1.098 99.01c-.735 3.2-.865 6.51-.384 9.759v.08c.048.36.101.714.16 1.059a39.084 39.084 0 0 0 2.62 8.884 2.765 2.765 0 0 1 1.383-2.104l.031.273h.032l1.209 10.425s3.543 11.237 5.908 11.827c.107.025.216.038.326.04l.705 3.064.08-.053 2.432 12.028 4.43 19.206 4.73 55.885h1.7l-1.101 7.098s-15.074 18.942-10.643 21.586c4.431 2.645 11.227 3.846 17.724-6.208a16.286 16.286 0 0 1 4.137-6.209 6.104 6.104 0 0 0 2.052-5.199l-1.106-11.068h1.418l-.044-.147h.044a44.666 44.666 0 0 1-1.744-11.98c.004-1.787.194-3.57.566-5.319 1.062-4.78 1.277-12.953 1.277-18.728 0-3.502-.072-6.164-.09-6.736l3.543-31.904s5.32 31.936 7.68 34.598l6.202 38.738 2.481.254-1.298 8.322s-15.074 18.942-10.643 21.586c4.431 2.645 11.227 3.846 17.71-6.217a16.286 16.286 0 0 1 4.137-6.209 6.104 6.104 0 0 0 2.053-5.199l-1.116-11.166 1.134.116s.156-4.18.156-9.947c0-10.179-.446-25.423-3.124-31.301 0 0-.79-7.401-.785-15.486-.04-3.872.222-7.741.785-11.572.804-4.833 1.125-13.208 1.227-20.908l.398-1.715-.375-.201c0-1.742.022-3.426.022-5.007 0-2.234 0-4.27-.027-5.954l.143-.143a5.359 5.359 0 0 0 1.267-1.564c.295-1.183.59-10.349-1.477-16.856a35.59 35.59 0 0 1-1.54-9.076c.037-.107.072-.21.1-.317l-.108.107a64.498 64.498 0 0 1-.062-3.743 5.14 5.14 0 0 0 .165-.505l-.161.165c.045-2.68.214-5.471.424-8.513 0-.245.036-.482.053-.71v-.21c0-.16.032-.317.045-.473l.022-.22c0-.156.036-.312.054-.446v-.165l.08-.59v-.076c.024-.163.05-.323.076-.478l.027-.16c.02-.125.043-.249.067-.371l.031-.152.08-.393v-.08c.033-.155.067-.304.103-.447v-.076c.03-.116.06-.228.09-.335l.03-.112.085-.285.031-.099a5.89 5.89 0 0 1 .112-.335c.04-.111.08-.219.116-.326l.022-.062.094-.228.031-.076.094-.206.027-.058c.08-.165.156-.312.232-.446l.031-.05.085-.138.036-.053.084-.125.027-.036.107-.143v-.027l.067-.08a1.15 1.15 0 0 1 .513-.286c.59 5.619 10.045 15.079 10.045 15.079.856 4.02 10.263 16.298 10.896 17.107l-3.511 2.702.049.031-.344.264 8.862 5.619c.074-.114.155-.224.24-.33l.059.035c.2-.294.423-.57.67-.827a12.981 12.981 0 0 1 2.404-1.75 9.337 9.337 0 0 1 1.946 6.418c-.295 6.208.892 15.079.892 15.079s1.785 1.787 2.954-4.14c0 0 1.625 3.126 3.124 3.698 1.5.572 9.75 0 7.978-5.914 0 0-.183-.268-.486-.732a6.906 6.906 0 0 0 2.807-4.748l11.494-12.708.893.894s5.908-2.957 11.815-12.716c3.905-6.45 6.002-10.568 6.975-12.627l-4.315 13.216-.893 11.533s-3.284 2.988-3.163 8.432a13.73 13.73 0 0 0 .16 2.408c-1.539 4.618-3.012 14.083.348 31.44l1.477 27.5-3.543 42.879.973-.09.504 9.555-.589 8.87s-2.954 11.238 4.137 12.122c7.09.885 5.921-11.546 5.921-11.546v-12.122l-.892-3.546-.576-4.221 7.073-36.88s2.677-7.986 3.543-11.238l.053-.206v-.071l.045-.192v-.085l.062-.281v-.027l.076-.357.022-.112.063-.295.027-.13.076-.38v-.062l.093-.478.027-.147.076-.389.031-.16.085-.447.022-.13.112-.585.027-.134.093-.495.032-.175.098-.527.026-.134.121-.67.027-.143.098-.549.045-.246.084-.482.04-.232.13-.72.022-.129.112-.625.04-.237.094-.531.044-.25.134-.764v-.072l.125-.719.036-.214.102-.59.04-.232.273-1.563.044-.268.103-.599.031-.179.139-.795.138-.808.036-.214.084-.483.063-.357.098-.576.027-.152.13-.746.04-.232.084-.5.045-.255.102-.603v-.107l.12-.72v-.035c.71-4.19 1.223-7.272 1.223-7.272l2.365 31.346s.295 6.803 1.785 8.87l1.785 36.372h.308l-.531 4.43-.892 3.552v12.122s-1.183 12.421 5.908 11.532c7.09-.889 4.136-12.122 4.136-12.122l-.571-8.853.53-10.058h.063s3.543-23.36 3.543-41.4c0-11.118 3.48-21.337 6.15-27.541 1.311.63 3.078-.317 4.814-1.787a17.082 17.082 0 0 0 6.095-13.01v-3.199l1.67-13.868c1.436-.644 2.565-1.515 2.833-2.68 0-.063.026-.143.04-.233.115-.205.2-.426.254-.656.625-2.711-1.102-28.983-2.173-44.219 1.65.059 3.295-.214 4.837-.804l-.232-.107c.178-.058.357-.12.53-.188a6.872 6.872 0 0 1-3.988-4.381 12.425 12.425 0 0 0 5.555-3.256c.255-.246.495-.496.719-.76.856-1.01 1.503-2.376.82-3.484zM14.002 114.945c-.227 4.15-.526 7.339-.79 9.58l-.566-.71-1.035-8.807a32.996 32.996 0 0 1 2.391-.063zM12.94 99.278l1.196-9.693c.246 6.763.263 12.623.156 17.607l-1.338-.223-.014-7.691zm182.129 35.187a3.717 3.717 0 0 0-.942.639 32.379 32.379 0 0 0-1.24-5.94c.09-.197.174-.403.254-.613.07-.193.128-.39.174-.59.04-.098.08-.196.12-.299 1.558-4.153-.53-21.064-1.061-25.133h1.338l.893 22.78s.589-.036 1.495-.143l-1.031 9.299z" transform="translate(88.764 73.97)"/>
        </g>
        <path fill="#333" d="M229.908 295.21l.58 10.902-.58 8.605s-2.908 10.902 4.077 11.764c6.985.862 5.816-11.17 5.816-11.17v-11.777l-.879-3.454-.874-6.313-8.14 1.443zM267.806 294.15l-.58 10.902.58 8.607s2.908 10.903-4.077 11.765c-6.985.863-5.817-11.17-5.817-11.17V302.47l.875-3.446.874-6.314 8.145 1.44z"/>
        <path fill="#FDB797" d="M289.54 194.527l-2.005 16.077v3.099c-.026 4.866-2.27 9.475-6.137 12.603-2.084 1.719-4.228 2.706-5.557 1.214-3.344-3.729 1.672-18.068 5.682-19.788l1.682-14.353 6.335 1.148z"/>
        <path fill="#3AD29F" d="M231.71 194.585s-6.636 7.455-1.442 34.113l1.442 26.658-3.46 41.581 9.233-.892 6.923-35.832s2.597-7.74 3.464-10.892c.867-3.151 5.193-28.952 5.193-28.952l2.31 30.385s.287 6.593 1.73 8.598l1.729 35.264 8.652.571s3.464-22.645 3.464-40.13c0-17.485 8.94-32.666 8.94-32.666s3.752-12.61-2.021-23.793c-5.773-11.182-46.157-4.013-46.157-4.013z"/>
        <g fill="#000" opacity=".1">
            <path d="M251.28 220.528s-4.3 25.731-5.195 28.874c-.895 3.143-3.452 10.862-3.452 10.862l-6.882 35.72-7.464.695v.16l9.192-.854 6.9-35.734s2.588-7.72 3.452-10.862c.569-2.075 2.642-13.983 3.985-21.845l-.537-7.016zM277.733 198.804c-2.602-5.044-12.26-6.344-22.057-6.232 9.184.08 17.884 1.509 20.333 6.232 5.75 11.13 2.015 23.728 2.015 23.728s-8.915 15.135-8.915 32.586c0 16.73-3.175 38.196-3.434 39.91l1.706.11s3.452-22.583 3.452-40.02c0-17.437 8.91-32.586 8.91-32.586s3.74-12.576-2.01-23.728z"/>
        </g>
        <path fill="#333" d="M118.36 298.079l-1.449 9.09s-14.787 18.182-10.44 20.74c4.35 2.556 11.018 3.693 17.398-5.969a15.625 15.625 0 0 1 4.064-5.967 5.801 5.801 0 0 0 2.013-4.995l-1.43-14.04-10.156 1.14zM150.062 298.079l-1.45 9.09s-14.787 18.182-10.439 20.74c4.349 2.556 11.017 3.693 17.397-5.969a15.625 15.625 0 0 1 4.064-5.967 5.801 5.801 0 0 0 2.014-4.995l-1.431-14.04-10.155 1.14z"/>
        <path fill="#535461" d="M102.501 201.722l5.184 25.53 4.317 18.646 4.61 54.21h13.832s-2.879-9.18-1.152-16.927c1.726-7.746 1.152-24.659 1.152-24.659l3.457-30.98s5.183 30.98 7.488 33.562l6.048 37.578 14.088 1.425s1.152-30.98-2.878-39.874c0 0-1.727-16.081 0-26.392 1.726-10.31 1.152-37.292 1.152-37.292l-57.298 5.173z"/>
        <g fill="#000" opacity=".1">
            <path d="M130.307 258.529l2.883-25.779c-.536-3.022-.894-5.027-.894-5.027l-3.447 30.823s.572 16.84-1.149 24.543c-1.721 7.703 1.15 16.84 1.15 16.84h1.457s-2.87-9.133-1.15-16.84c1.722-7.707 1.15-24.56 1.15-24.56zM158.427 260.24s-1.72-16 0-26.259c1.722-10.258 1.15-37.103 1.15-37.103l-1.431.129c.04 1.982.505 27.112-1.15 36.974-1.72 10.276 0 26.259 0 26.259 3.863 8.498 2.956 37.276 2.875 39.525l1.431.147s1.145-30.823-2.875-39.672z"/>
        </g>
        <path fill="#FDA57D" d="M125.033 103.558s1.162 17.754-5.515 19.76c0 0-1.74 12.314 8.706 14.892 10.448 2.577 16.546-18.33 16.546-18.33l-2.323-.86s-3.486-8.028-2.324-11.15l-15.09-4.312z"/>
        <path fill="#FDB797" d="M213.904 179.642l-16.298 14.973 7.147 9.331s3.144-1.695 3.433-5.09l13.724-14.973-8.006-4.241z"/>
        <path fill="#FDA57D" d="M187.039 188.575s4.586 2.253 4.3 8.16c-.286 5.906.862 14.371.862 14.371s1.719 1.687 2.866-3.943c0 0 1.577 2.953 3.01 3.505 1.433.552 9.462 0 7.743-5.626 0 0-5.02-7.173-6.167-11.958l-5.733-8.159-6.881 3.65z"/>
        <path fill="#000" d="M117.785 123.741l9.715 10.904 20.026-12.066 11.41 78.357a2.295 2.295 0 0 1 0 3.155s-32.006 11.172-51.15.572l9.999-80.922z" opacity=".1"/>
        <path fill="#000" d="M117.762 123.741l9.715 10.906 20.026-12.068 11.433 78.355a2.296 2.296 0 0 1 0 3.156s-32.006 11.174-51.15.572l9.976-80.92z" opacity=".1"/>
        <path fill="#E0E0E0" d="M117.762 123.741l9.715 10.906 20.026-12.068 11.433 78.355a2.296 2.296 0 0 1 0 3.156s-32.006 11.174-51.15.572l9.976-80.92z"/>
        <path fill="#000" d="M104.615 126.243s13.548-4.843 17.964-6.834c0 0-6.48 80.018-3.238 87.707 0 0-12.956-2.563-14.726-4.842 0 0 3.83-19.366 0-59.517v-16.514z" opacity=".1"/>
        <path fill="#4D8AF0" d="M104.615 126.243s13.548-4.843 17.964-6.834c0 0-6.48 80.018-3.238 87.707 0 0-12.956-2.563-14.726-4.842 0 0 3.83-19.366 0-59.517v-16.514z"/>
        <path fill="#FDA57D" d="M97.218 188.558l1.44 12.329s3.462 10.894 5.765 11.47c2.303.576 8.646-4.875 8.646-4.875l-8.08-10.038-1.702-14.632-6.07 5.746z"/>
        <path fill="#000" d="M195.858 187.222s-7.507 2.02-9.812 5.477l-8.657-5.477 3.753-2.883s-9.812-12.684-10.68-16.72c0 0-9.236-9.227-9.812-14.705 0 0-2.31.288-2.885 8.648-.576 8.36-.868 14.992 1.155 21.336 2.023 6.344 1.73 15.266 1.443 16.433-.288 1.168-9.237 9.802-23.373 10.956l-1.73-84.766 7.065-8.225s6.787 4.763 18.334 6.784c0 0 2.886 2.308 4.909 6.919 2.022 4.611 0 .866 0 .866l13.565 26.24 14.72 21.91 3.753-.866-1.748 8.073zM102.886 182.812l-5.668 5.515.214 1.882c1.563-1.048 4.202-1.418 6.126-1.542l-.672-5.855z" opacity=".1"/>
        <path fill="#4D8AF0" d="M196.923 187.235s-7.506 2.02-9.812 5.478l-8.657-5.478 3.754-2.882s-9.821-12.68-10.684-16.72c0 0-9.237-9.228-9.812-14.705 0 0-2.31.287-2.886 8.647-.575 8.36-.859 14.992 1.15 21.323 2.01 6.33 1.731 15.266 1.443 16.433-.287 1.168-9.236 9.802-23.372 10.956l-1.73-84.766 7.065-8.225s6.787 4.763 18.334 6.784c0 0 2.886 2.308 4.908 6.919 2.023 4.611 0 .866 0 .866l13.565 26.24 14.72 21.91 3.754-.866-1.74 8.086z"/>
        <path fill="#FDB797" d="M254.008 124.621s2.828 7.046-3.964 7.612c-6.791.567 8.77 18.877 8.77 18.877s14.424-3.099 16.688-9.302c2.264-6.203 1.696-8.74-1.696-11.559-3.391-2.818-8.769-1.41-8.769-1.41s-3.678-1.975-2.546-5.074c1.132-3.1-8.483.856-8.483.856z"/>
        <path fill="#000" d="M259.694 132.917s-5.48.857-7.21-2.283c0 0-4.327 3.708-11.232 2.283-6.905-1.426-12.984 25.09-12.984 25.09L212.4 180.532l7.786 7.41s5.768-2.85 11.541-12.259C237.5 166.275 239.23 162 239.23 162l-4.906 14.825-.867 11.1s-6.348 5.701-.867 15.683c0 0 4.906 4.848 14.138-2.282l11.232-1.999s7.79 9.125 12.13 8.84c4.34-.284 8.653-1.709 10.387-6.273 1.734-4.565-1.154-25.09-1.154-25.09h1.73l.853 21.982s9.807-.569 10.674-4.276c.867-3.707-2.884-53.032-2.884-53.032s-8.087-9.693-13.271-12.259c-5.185-2.566-9.516 12.25-9.516 12.25l-6.64 5.99-.575-14.541z" opacity=".1"/>
        <path fill="#000" d="M259.707 131.858s-3.895.715-5.624-2.423c0 0-5.912 3.848-12.839 2.423-6.927-1.425-12.982 25.081-12.982 25.081L212.4 179.472l7.79 7.412s5.767-2.849 11.54-12.254c5.772-9.405 7.502-13.7 7.502-13.7l-4.906 14.819-.867 11.096s-6.356 5.72-.867 15.707c0 0 4.906 4.846 14.137-2.282l11.23-1.997s7.79 9.121 12.129 8.837c4.34-.284 8.652-1.709 10.386-6.271 1.734-4.563-1.155-25.081-1.155-25.081h1.73l.858 21.938s9.806-.568 10.673-4.274c.867-3.706-2.875-53.007-2.875-53.007s-8.086-9.689-13.27-12.254c-5.184-2.565-9.518 12.254-9.518 12.254l-6.635 5.988-.575-14.545z" opacity=".1"/>
        <path fill="#252A62" d="M259.694 132.941s-3.894.715-5.623-2.423c0 0-5.91 3.848-12.835 2.423-6.925-1.424-12.979 25.083-12.979 25.083L212.4 180.536l7.8 7.413s5.767-2.85 11.538-12.255c5.77-9.405 7.5-13.68 7.5-13.68l-4.904 14.82-.867 11.097s-6.346 5.7-.867 15.677c0 0 4.904 4.847 14.133-2.281l11.227-1.998s7.787 9.122 12.126 8.838c4.338-.284 8.649-1.71 10.382-6.272 1.734-4.563-1.154-25.083-1.154-25.083h1.73l.866 21.95s9.804-.569 10.67-4.275c.867-3.706-2.883-53.015-2.883-53.015s-8.083-9.689-13.266-12.255c-5.182-2.565-9.525 12.273-9.525 12.273l-6.633 5.988-.58-14.537z"/>
        <path fill="#000" d="M124.693 115.182s-7.053 3.46-6.282 8.191l4.013 1.32 2.269-9.51z" opacity=".1"/>
        <path fill="#3A68B4" d="M124.693 114.125s-7.053 3.46-6.282 8.192l4.013 1.319 2.269-9.51z"/>
        <path fill="#000" d="M139.487 123.288l6.34 3.518v-7.645l-3.843-1.865z" opacity=".1"/>
        <path fill="#3A68B4" d="M139.487 123.29l6.34 3.516v-7.64l-3.843-1.87z"/>
        <path fill="#4D8AF0" d="M106.332 188.604s-10.1-.285-10.387 3.718c0 0-4.614-10.01-2.31-19.148 2.306-9.137 4.044-37.744 4.044-37.744s.575-10.01 10.1-11.725c9.524-1.714 0 28.883 0 28.883l-2.597 20.876v7.436l1.73.285-.58 7.42z"/>
        <path fill="#000" d="M104.615 211.78l8.94-4.664 2.684 1.748-10.733 6.706z" opacity=".1"/>
        <path fill="#3E3F49" d="M103.558 211.784l8.942-4.668 2.682 1.753-10.728 6.701z"/>
        <path fill="#000" d="M159.564 211.78l-8.942-4.664-2.682 1.748 10.729 6.706z" opacity=".1"/>
        <path fill="#3E3F49" d="M160.62 211.784l-8.944-4.668-2.679 1.753 10.728 6.701z"/>
        <path fill="#000" d="M124.693 103.558s.087 1.387.074 3.434c2.602 3.803 6.844 6.07 11.373 6.077 1.128 0 2.252-.142 3.347-.422-.398-1.818-.587-3.613-.175-4.762l-14.62-4.327z" opacity=".1"/>
        <circle cx="136.845" cy="97.746" r="14.266" fill="#FDA57D"/>
        <path fill="#000" d="M181.755 184.674l12.573-3.975.108.2-12.394 4.026zM92.991 182.73l12.68-2.031-.152.209s-12.71 2.001-12.341 2.96l-.187-1.137z" opacity=".1"/>
        <path fill="#4D8AF0" d="M106.874 143.713s-.684 13.973.911 17.965"/>
        <g fill="#000" opacity=".1">
            <path d="M165.958 132.152l13.601 26.127 14.76 21.817.252-.058-14.723-21.764-13.191-25.34c.712 1.81-.699-.782-.699-.782zM198.063 179.3l-1.73 7.971s-7.337 1.963-9.748 5.33l.198.125c2.317-3.447 9.838-5.455 9.838-5.455l1.735-8.047-.293.076z"/>
            <path d="M161.037 124.386s2.893 2.298 4.921 6.89c.28.634.483 1.108.622 1.457.474.827 1.136 1.873-.333-1.458-2.028-4.591-4.921-6.889-4.921-6.889-11.578-2.012-18.383-6.755-18.383-6.755l-.108.12c1.158.77 7.729 4.847 18.202 6.635zM158.432 161.721c.451-6.567 1.992-8.132 2.623-8.494v-.112c0-.036-2.316.286-2.893 8.61-.577 8.325-.87 14.928 1.158 21.245 2.028 6.318 1.735 15.2 1.447 16.363-.289 1.163-9.158 9.635-23.169 10.891 14.183-1.149 23.15-9.76 23.435-10.909.284-1.149.577-10.05-1.447-16.362-2.023-6.313-1.73-12.907-1.154-21.232z"/>
        </g>
        <path fill="#000" d="M154.28 137.373s6.65 13.155 6.33 13.737M151.11 178.585c.806-.298 6.492-4.658 7.397-8.454M151.11 182.812c.806-.298 6.492-4.658 7.397-8.454" opacity=".1"/>
        <circle cx="138.958" cy="137.901" r="1" fill="#FFF"/>
        <circle cx="138.958" cy="151.639" r="1" fill="#FFF"/>
        <circle cx="138.958" cy="143.185" r="1" fill="#FFF"/>
        <circle cx="138.958" cy="159.036" r="1" fill="#FFF"/>
        <circle cx="138.958" cy="171.716" r="1" fill="#FFF"/>
        <circle cx="138.958" cy="163.263" r="1" fill="#FFF"/>
        <circle cx="140.015" cy="179.113" r="1" fill="#FFF"/>
        <circle cx="140.015" cy="191.794" r="1" fill="#FFF"/>
        <circle cx="140.015" cy="184.397" r="1" fill="#FFF"/>
        <path fill="#000" d="M242.067 153.224s-.49 11.232.978 14.794M276.86 154.28s3.614 11.812 1.39 20.078M228.25 158.507s4.592 9.51 6.341 9.51M144.265 96.18a9.517 9.517 0 0 0 5.383.672 3.673 3.673 0 0 0 1.624-.51c1.495-1.027 1.112-3.512 2.451-4.707.614-.553 1.518-.773 2.003-1.44.265-.432.425-.92.467-1.423.338-2.134.445-4.703-1.29-6.034-2.034-1.572-5.046-.272-7.564-.878-1.072-.255-2.02-.879-3.003-1.353-4.004-2.007-8.609-2.31-13.084-2.31-2.225 0-4.52.07-6.674.68-2.153.611-4.222 1.81-5.454 3.663a11.996 11.996 0 0 0-1.42 3.373 37.828 37.828 0 0 0-1.25 14.457c.196 1.823.6 3.772 1.98 4.998a5.896 5.896 0 0 0 3.221 1.317c1.642.202 3.662-.285 4.173-1.836.423-1.278-.231-3.074.917-3.776a2.597 2.597 0 0 1 1.566-.22l4.386.299c.619.044 1.3.066 1.78-.316.423-.416.663-.98.667-1.568.192-1.783-.814-7.751 1.736-8.006 2.549-.255 5.303 3.913 7.385 4.918z" opacity=".1"/>
        <path fill="#72351C" d="M144.265 96.18a9.517 9.517 0 0 0 5.383.672 3.673 3.673 0 0 0 1.624-.51c1.495-1.027 1.112-3.512 2.451-4.707.614-.553 1.518-.773 2.003-1.44.265-.432.425-.92.467-1.423.338-2.134.445-4.703-1.29-6.034-2.034-1.572-5.046-.272-7.564-.878-1.072-.255-2.02-.879-3.003-1.353-4.004-2.007-8.609-2.31-13.084-2.31-2.225 0-4.52.07-6.674.68-2.153.611-4.222 1.81-5.454 3.663a11.996 11.996 0 0 0-1.42 3.373 37.828 37.828 0 0 0-1.25 14.457c.196 1.823.6 3.772 1.98 4.998a5.896 5.896 0 0 0 3.221 1.317c1.642.202 3.662-.285 4.173-1.836.423-1.278-.231-3.074.917-3.776a2.597 2.597 0 0 1 1.566-.22l4.386.299c.619.044 1.3.066 1.78-.316.423-.416.663-.98.667-1.568.192-1.783-.814-7.751 1.736-8.006 2.549-.255 5.303 3.908 7.385 4.918z"/>
        <path fill="#000" d="M262.1 123.78c1.133-3.134-8.488.857-8.488.857a9.143 9.143 0 0 1 .542 3.863c2.991.755 6.147.485 8.968-.768-.85-.915-1.63-2.269-1.022-3.952z" opacity=".1"/>
        <circle cx="258.367" cy="113.597" r="14.266" fill="#FDB797"/>
        <path fill="#000" d="M252.335 106.193c2.54.502 5.274 1.625 5.975 3.73.333 1.003.158 2.13.783 3.032.422.511.926.95 1.492 1.3 2.37 1.733 4.19 4.365 3.471 6.932-.53 1.896-2.351 3.414-2.796 5.328-.53 2.273.976 4.489 2.27 6.54 1.295 2.051 2.442 4.52 1.246 6.611-.567.99-1.619 1.776-1.938 2.846-.62 2.07 1.74 3.88 3.952 4.938a42.163 42.163 0 0 0 8.35 2.948c1.497.36 3.044.648 4.384 1.332.854.444 1.591.999 2.428 1.447a10.005 10.005 0 0 0 7.266.733l-2.298-3.22c2.543.75 5.265.66 7.751-.257a6.607 6.607 0 0 1-3.947-4.44 12.074 12.074 0 0 0 6.182-3.676c.845-.977 1.475-2.296.81-3.366-.666-1.07-2.11-1.332-3.341-1.838-2.788-1.105-4.789-3.494-5.09-6.065-.202-1.74.265-3.68-.93-5.115-.518-.621-1.291-1.056-1.934-1.594-1.371-1.145-2.1-2.717-2.73-4.249a64.202 64.202 0 0 1-3.889-13.458c-.355-2.06-.62-4.173-1.663-6.065-2.401-4.35-8.336-6.518-13.98-7.3-2.225-.305-4.536-.443-6.712.045a17.187 17.187 0 0 0-5.328 2.429c-2.608 1.656-5.881 4.045-6.825 6.798-1.075 3.112 4.523 3.157 7.04 3.654z" opacity=".1"/>
        <path fill="#F55F44" d="M253.385 106.21c2.54.502 5.274 1.626 5.975 3.73.333 1.004.158 2.131.783 3.033.422.51.926.95 1.492 1.3 2.37 1.732 4.19 4.365 3.471 6.932-.53 1.895-2.351 3.414-2.796 5.328-.53 2.273.975 4.489 2.27 6.54s2.442 4.52 1.246 6.611c-.567.99-1.619 1.776-1.938 2.846-.62 2.07 1.74 3.88 3.952 4.937a42.161 42.161 0 0 0 8.344 2.93c1.497.36 3.044.65 4.384 1.333.854.444 1.592.999 2.428 1.447a10.003 10.003 0 0 0 7.265.733l-2.284-3.22c2.543.75 5.265.66 7.751-.257a6.607 6.607 0 0 1-3.947-4.44 12.073 12.073 0 0 0 6.182-3.676c.845-.977 1.475-2.296.81-3.366-.666-1.07-2.11-1.332-3.341-1.838-2.788-1.105-4.789-3.494-5.09-6.065-.202-1.74.265-3.68-.93-5.115-.517-.621-1.29-1.056-1.934-1.594-1.371-1.145-2.1-2.717-2.729-4.249a64.205 64.205 0 0 1-3.889-13.458c-.355-2.06-.62-4.173-1.663-6.065-2.401-4.35-8.336-6.518-13.978-7.3-2.226-.305-4.537-.443-6.713.045a17.185 17.185 0 0 0-5.328 2.429c-2.607 1.656-5.88 4.045-6.825 6.798-1.088 3.13 4.514 3.174 7.032 3.672z"/>
        <path fill="#F4F4F4" d="M112.784 22.29c-.9 0-1.913 0-2.606.027a6.195 6.195 0 0 0-.9.09l-4.663.81c3.767.046 7.691.03 11.544.018l21.63-.08c2.205 0 4.523-.019 6.364-.083 1.233-.042 2.142-.106 3.276-.156 4.096-.175 10.064-.142 15.397-.134 5.333.008 11.769-.06 13.646-.318h-11.445c-1.234 0-2.53 0-3.6-.031-1.275-.036-2.049-.103-3.151-.15-1.85-.077-4.406-.085-6.783-.09-13.083-.019-25.968.129-38.71.098zM122.294 63.503c-.9 0-1.913 0-2.606.026a6.195 6.195 0 0 0-.9.09l-4.663.81c3.767.046 7.692.03 11.544.017l21.63-.08c2.206 0 4.523-.018 6.364-.082 1.233-.042 2.143-.106 3.277-.156 4.095-.175 10.063-.142 15.396-.134 5.333.008 11.77-.06 13.646-.318h-11.445c-1.233 0-2.53 0-3.6-.031-1.274-.036-2.048-.103-3.15-.15-1.85-.078-4.407-.085-6.783-.09-13.084-.019-25.969.129-38.71.098z"/>
    </g>
</svg>
