<svg xmlns="http://www.w3.org/2000/svg" width="448" height="350" viewBox="0 0 448 350">
    <defs>
        <linearGradient id="a" x1=".042%" y1="50.012%" y2="50.012%">
            <stop offset="0%" stop-color="gray" stop-opacity=".25"/>
            <stop offset="54%" stop-color="gray" stop-opacity=".12"/>
            <stop offset="100%" stop-color="gray" stop-opacity=".1"/>
        </linearGradient>
    </defs>
    <g fill="none" fill-rule="evenodd">
        <ellipse cx="157" cy="328" fill="#0DA176" opacity=".1" rx="78" ry="15"/>
        <path fill="#0DA176" d="M260.292 49.457c-28.72-.995-56.074-10.274-82.194-20.423-26.12-10.149-51.992-21.39-80.024-26.767-18.03-3.458-38.652-3.951-53.176 5.71C30.914 17.3 26.397 33.35 23.97 48.254c-1.829 11.214-2.903 23.02 2.103 33.52 3.48 7.29 9.647 13.416 13.916 20.4 14.853 24.294 4.354 54.253-11.737 77.975-7.544 11.126-16.308 21.754-22.135 33.586-5.827 11.832-8.52 25.435-3.422 37.538 5.05 11.987 17.09 20.973 30.132 27.3 26.488 12.853 57.69 16.529 88.136 18.615 67.377 4.609 135.109 2.615 202.663.613 25.002-.737 50.11-1.487 74.704-5.354 13.659-2.149 27.757-5.559 37.675-13.79 12.585-10.447 15.705-28.134 7.27-41.232-14.148-21.976-53.253-27.432-63.153-51.012-5.44-12.982.146-27.437 8.059-39.473 16.97-25.826 45.41-48.482 46.906-77.997 1.03-20.272-12.643-40.575-33.784-50.169-22.157-10.056-52.888-8.79-69.228 7.854-16.84 17.12-46.422 23.712-71.783 22.829z" opacity=".1"/>
        <path fill="url(#a)" fill-rule="nonzero" d="M237 160.758l-13.635-9.155 6.878-10.196-36.012-2.86-12.94 9.966-16.2-9.044-13.51 1.619-.16-3.547a99.697 99.697 0 0 0-1.117-11.039c.058-1.108.098-2.38.094-3.764 0-5.83-.793-13.556-4.274-18.708l.802-7.173-6.5-7.647a48.887 48.887 0 0 1 3.562-5.967c.222-.32.445-.63.685-.931 8.436-.607 15.09-7.514 15.09-15.96 0-.39 0-.78-.044-1.166 0-.155-.031-.314-.049-.47.824.444 1.656.887 2.488 1.33.156.222.334.444.53.705l.04.049.25.306.08.093c.089.106.182.208.276.315l.062.07c.236.262.485.528.752.79a.8.8 0 0 1 .09.084l.333.31.094.085c.284.252.587.496.89.727l.098.07.383.262.124.08c.147.089.299.182.445.266l.054.03c.173.094.351.183.53.267l.089.035c.15.065.3.127.445.187l.138.048c.155.054.307.102.467.147l.098.026c.196.049.392.089.592.12h.022c.189.03.38.05.57.058h.13c.17.008.34.008.511 0h.111c.214-.013.426-.038.637-.076a7.043 7.043 0 0 0 2.804-1.002c.217-.144.41-.322.57-.527.89-1.162-.089-2.434-.089-2.434-.347-.825-2.6-1.405-2.6-1.405s-7.122-2.962-7.122-5.32c0-2.359-1.78-14.594-20.16-17.392 0 0-11.957-.67-15.318 5.706l-.07.745c-.989.616-1.808 1.853-2.783 2.216-.421.09-.827.24-1.206.443v-.084a1.144 1.144 0 0 0-.272.35c-.21.415-.335.867-.37 1.33-.1.566-.297 1.11-.582 1.61-.08.142-.17.278-.267.408l-.076.12a3.261 3.261 0 0 0 1.513-.245 7.48 7.48 0 0 1-.445 1.774c.578.018 1.114-.3 1.371-.816v-.035l.058-.08c.112-.206.204-.42.276-.643l-.049.053c.09-.288.17-.58.267-.864.045-.16.119-.31.218-.444a1.08 1.08 0 0 1 .922-.306l-.183 3.844h.08c-.107.28-.238.55-.391.807-.632 1.02-1.78 1.716-2.204 2.833a4.151 4.151 0 0 0-.205 1.675c0 .333.04.67.067 1.002v-.026c.063.886.08 1.729-.4 2.442-.33.488-.86.856-1.042 1.41a1.37 1.37 0 0 0-.067.479c.036.486.138.965.303 1.423a.062.062 0 0 0 0-.027c.11.338.137.697.076 1.047-.2.886-1.282 1.627-1.229 2.473a.95.95 0 0 0 .049.329 1.8 1.8 0 0 0 1.006.886 3.93 3.93 0 0 0 2.261.497c.295-.053.58-.15.846-.288a57.449 57.449 0 0 1-1.113 2.407s-2.75-1.831-4.313 1.902a8.26 8.26 0 0 0-.966 2.5 5.932 5.932 0 0 1-.33 1.028 6.637 6.637 0 0 1-2.973 2.66c-3.187 1.455-16.06 17.445-16.288 21.586a24.067 24.067 0 0 1-.819 4.779 28.327 28.327 0 0 0-.766 11.3c.16 1.222.423 2.427.788 3.604 1.367 4.137 2.28 11.855 2.28 11.855l1.477 13.397c-.054 1.85.026 3.7.24 5.537-1.508 1.716-7.567 8.867-5.252 10.813 1.78 1.534 4.897 1.28 6.646.966-1.473 3.631-3.793 9.944-4.1 14.28-.445 6.414.761 14.913 2.671 18.176 1.91 3.263 8.275 11.633 8.275 11.633s-.298 11.482 1.977 15.653c2.274 4.172 3.191 12.826 3.191 12.826s2.124 7.306 1.06 9.992c-1.064 2.687 1.972 4.921-1.215 6.708-3.188 1.786-7.265 42.053-7.265 42.053s-1.643 26.391 0 27.735c.088.063.182.118.28.164v8.866s-1.14 1.862 3.495 2.239c3.174.252 12.17.824 17.507 1.157l4.135.257s9.794 1.942 14.12 0c4.327-1.942 11.997-1.897 10.857-7.027a14.549 14.549 0 0 0-.605-2.052c-1.25-3.183-3.374-3.547-7.287-4.433a18.43 18.43 0 0 0-.645-.129c-4.123-.714-5.476 1.197-7.786-1.29-2.008-2.15-8.4-4.557-10.577-5.32.054-.16.12-.315.174-.479a3.264 3.264 0 0 1-1.651-.802l5.898.372 3.512.217s8.324 1.654 12.019 0c3.694-1.653 10.193-1.609 9.223-5.967a12.467 12.467 0 0 0-.512-1.746c-1.064-2.705-2.871-3.002-6.196-3.75-.192-.04-.37-.08-.548-.112-3.503-.607-4.652 1.015-6.615-1.095-1.682-1.8-6.993-3.817-8.902-4.504 0-.984-1.336-2.385-2.177-3.79-.988-1.64.837-7.382.837-7.382l1.041-23.82a4.635 4.635 0 0 1 1.247-.354s4.71-4.478 3.645-9.248c-.216-1.442-.33-2.899-.338-4.358 1.55-1.432 3.681-3.546 4.287-4.85.988-2.123 0-12.413 0-12.413v-39.344l7.879.793 7.149.732 2.177.221 7.148.718 16.43 1.654 14.806-2.793 6.406-1.206 13.171-2.482V163L237 160.758zM128.56 54.4l-.918-.097c.303.013.623.07.917.097z"/>
        <path fill="#EFB7B9" d="M205.618 181.114c-4.464 6.365-20.51 2.994-20.51 2.994l-12.434-11.596-1.674-1.57 2.807-5.942s.893.245 2.424.68c8.039 2.327 33.154 10.084 29.387 15.434z"/>
        <path fill="#000" d="M176 165.725c-.526 2.027-1.966 5.063-3.397 7.275L171 171.328l2.688-6.328s.863.26 2.312.725z" opacity=".1"/>
        <path fill="#DCE6F2" d="M133.946 98.186s-11.49 5.047-10.926 17.44a202.42 202.42 0 0 0 2.631 23.821s-2.349 18.65 7.432 23.457a519.681 519.681 0 0 0 18.832 8.76s15.302 1.63 17.204 2.304c1.901.674 7.843-9.624 6.747-11.228-1.096-1.604-15.14-4.967-16.93-7.643-1.79-2.676-5.93-4.329-5.93-4.329s-4.272-2.561-4.563-4.874c-.29-2.313.837-4.037 1.123-5.051.287-1.015 1.011-10.812 1.011-10.812s4.824-34.871-16.63-31.845z"/>
        <path fill="#000" d="M141 140s-16.487 2.59-14.891 8c0 0 5.985-5.84 14.891-8zM141 142s-8.437 7.598-6.786 7.987c1.65.39 6.786-7.987 6.786-7.987zM145.866 144s-3.19 5.344-1.229 4.982c1.96-.362 1.23-4.982 1.23-4.982z" opacity=".1"/>
        <path fill="#000" d="M177.346 165.799l-.951-.27c.271-.884.347-1.6.124-1.932-1.089-1.6-15.031-4.952-16.805-7.626-1.773-2.675-5.889-4.32-5.889-4.32s-4.244-2.555-4.533-4.863c-.29-2.308.83-4.028 1.115-5.04.285-1.013 1.005-10.792 1.005-10.792s4.778-34.79-16.534-31.77c0 0-11.414 5.04-10.858 17.406a202.27 202.27 0 0 0 2.618 23.768s-2.334 18.608 7.382 23.405a515.152 515.152 0 0 0 18.707 8.74s15.197 1.623 17.09 2.3c.716.256 2.009-1.066 3.276-2.883l.72.667 12.382 11.522s15.979 3.355 20.423-2.971c3.756-5.323-21.25-13.034-29.272-15.341z" opacity=".1"/>
        <path fill="#965D7B" d="M127.65 52.481c-.431.083-.844.24-1.22.462-.44.358-.44.97-.55 1.506-.129.744-.43 1.45-.88 2.062.5.036 1.003-.045 1.466-.237a7.276 7.276 0 0 1-.44 1.726 1.43 1.43 0 0 0 1.32-.79c.233-.486.417-.993.55-1.514.042-.156.113-.303.212-.432.404-.47 1.157-.259 1.782-.198a2.948 2.948 0 0 0 2.676-1.26c.665-.988.705-3.516-.88-3.784-1.655-.267-2.685 1.968-4.036 2.46z"/>
        <g fill="#000" opacity=".1">
            <path d="M126.377 53.712c.038-.204.063-.416.11-.62-.4.346-.422.933-.527 1.454-.053.3-.136.595-.248.879a4.745 4.745 0 0 0 .665-1.712zM126.512 57.154a6.87 6.87 0 0 0 .42-1.667 3.043 3.043 0 0 1-1.334.23 4.808 4.808 0 0 1-.484.833c.477.037.956-.04 1.398-.225a6.87 6.87 0 0 1-.421 1.667 1.37 1.37 0 0 0 1.263-.763c.105-.19.19-.389.252-.596a1.268 1.268 0 0 1-1.094.521zM130.208 54.32c-.597-.058-1.322-.262-1.71.192-.091.126-.16.267-.201.417-.038.108-.072.221-.101.333.4-.312 1.048-.145 1.591-.091a2.823 2.823 0 0 0 2.56-1.217c.128-.202.223-.423.282-.654a2.818 2.818 0 0 1-2.42 1.02z"/>
        </g>
        <path fill="#DCE6F2" d="M140.279 89L147 96.963l-.877 8.037L138 92.474z"/>
        <path fill="#000" d="M147 96.963l-.825 7.56-.053.477-7.333-11.306-.789-1.22.23-.352L140.274 89l.455.538z" opacity=".1"/>
        <path fill="#EFB7B9" d="M150.839 78.03c-2.274.66-4.447 2.928-6.337 5.682a48.651 48.651 0 0 0-3.42 5.954 75.49 75.49 0 0 0-1.622 3.522l-.317.75c-.767 1.834-1.194 3.062-1.194 3.062s-17.408-13.257-14.654-14.15c.926-.299 2.142-2.307 3.345-4.838l.15-.322c.763-1.624 1.512-3.437 2.177-5.142A154.542 154.542 0 0 0 131.338 66s26.442 10.02 19.5 12.03z"/>
        <path fill="#444053" d="M161 66s4.004 6.846 9.383 5.913c5.379-.934 3.166-3.677 3.166-3.677L161 66z"/>
        <path fill="#A36468" d="M153.847 318.273c-3.613 1.636-11.782 0-11.782 0l-3.443-.213c-4.472-.284-11.957-.763-14.604-.976-3.863-.315-2.915-1.885-2.915-1.885v-9.488L139.847 301s7.41 2.515 9.44 4.71c1.927 2.094 3.053.484 6.492 1.087.17.031.349.067.537.111 3.264.741 5.035 1.034 6.08 3.717.211.564.38 1.142.506 1.73.966 4.32-5.446 4.29-9.055 5.918z"/>
        <path fill="#000" d="M162 310.739c-.665.407-1.365.757-2.09 1.048-2.436 1.088-4.752 2.413-7.215 3.44-2.462 1.027-5.115 1.76-7.78 1.564-1.396-.1-2.822-.433-4.155-.043-.824.311-1.6.733-2.307 1.252-4.429-.277-11.842-.745-14.464-.953-3.826-.308-2.887-1.841-2.887-1.841v-1.084c.137 0 .292-.039.47-.052a8.533 8.533 0 0 1 2.7.395c1.923.511 3.836 1.014 5.758 1.516a4.467 4.467 0 0 1 2.214-2.764 7.188 7.188 0 0 1 3.57-.801c2.98.039 5.801 1.42 8.777 1.56a4.931 4.931 0 0 0 2.431-.4c.408-.199.767-.489 1.165-.71a8.633 8.633 0 0 1 2.006-.663 44.885 44.885 0 0 0 5.735-1.81c.532-.204 1.152-.573 1.081-1.127-.093-.737-1.275-.823-1.585-1.5a.85.85 0 0 1 .035-.766c.168.03.345.065.531.108 3.22.724 4.974 1.01 6.01 3.63z" opacity=".1"/>
        <path fill="#A36468" d="M149.316 339.152c-4.212 1.908-13.744 0-13.744 0l-4.012-.233c-5.197-.33-13.949-.88-17.039-1.139-4.509-.37-3.4-2.199-3.4-2.199v-11.085L132.99 319s8.646 2.933 11.014 5.496c2.248 2.44 3.547.563 7.577 1.267.2.035.408.079.625.127 3.809.88 5.875 1.21 7.094 4.34.247.657.444 1.332.59 2.018 1.1 5.04-6.363 5-10.575 6.904z"/>
        <path fill="#000" d="M159 330.4c-.779.48-1.597.895-2.446 1.24-2.851 1.284-5.566 2.851-8.448 4.065-2.882 1.215-5.989 2.076-9.113 1.85-1.63-.117-3.3-.522-4.848-.052-.969.373-1.88.876-2.71 1.497-5.165-.326-13.864-.87-16.935-1.127-4.482-.366-3.38-2.176-3.38-2.176v-1.28c.182-.03.366-.05.55-.06a9.78 9.78 0 0 1 3.165.465l6.738 1.793a5.278 5.278 0 0 1 2.613-3.268 8.308 8.308 0 0 1 4.182-.95c3.49.049 6.791 1.68 10.277 1.846a5.753 5.753 0 0 0 2.838-.466c.48-.239.881-.583 1.366-.84a9.668 9.668 0 0 1 2.349-.783 53.219 53.219 0 0 0 6.68-2.141c.622-.244 1.349-.68 1.265-1.332-.11-.87-1.494-.975-1.86-1.776a1.037 1.037 0 0 1 .045-.905c.198.035.405.078.621.126 3.786.836 5.84 1.175 7.051 4.274z" opacity=".1"/>
        <path fill="#444053" d="M140.871 262l-1.211 27.468s-1.816 5.609-.83 7.213c.984 1.605 2.645 3.205 2.041 4.154-.603.948-7.864 11.205-10.21 7.27C128.314 304.17 126 287.12 126 287.12l2.165-21.059L140.87 262zM145.056 193l3.49 4.379v38.083s1.021 10.152 0 12.248c-1.02 2.097-6.195 6.29-6.195 6.29L138 233.034l.94-22.18L145.057 193z"/>
        <path fill="#000" d="M140.871 262l-1.211 27.468s-1.816 5.609-.83 7.213c.984 1.605 2.645 3.205 2.041 4.154-.603.948-7.864 11.205-10.21 7.27C128.314 304.17 126 287.12 126 287.12l2.165-21.059L140.87 262zM145.056 193l3.49 4.379v38.083s1.021 10.152 0 12.248c-1.02 2.097-6.195 6.29-6.195 6.29L138 233.034l.94-22.18L145.057 193z" opacity=".1"/>
        <path fill="#444053" d="M148 176.657v20.723l-3.7 16.132s-1.187 38.928-.151 43.662c1.035 4.733-3.554 9.178-3.554 9.178s-2.666.298-2.666 2.367-4.442 7.992-4.442 7.992l.147 11.545s1.928 21.612-1.035 25.755c-2.964 4.142 1.035 4.737 1.035 4.737-3.7 12.136-21.47 9.325-23.074 7.993-1.603-1.332 0-27.53 0-27.53s3.972-39.963 7.081-41.74c3.11-1.776.151-3.996 1.186-6.66s-1.035-9.915-1.035-9.915-.888-8.588-3.11-12.731c-2.22-4.143-1.927-15.541-1.927-15.541s-6.22-8.29-8.068-11.545c-1.848-3.255-3.038-11.692-2.594-18.06.302-4.302 2.563-10.567 3.998-14.173a87.435 87.435 0 0 1 1.186-2.846l.422.111 24.264 6.35L148 176.657z"/>
        <path fill="#000" d="M150.84 78.235c-2.27.67-4.439 2.971-6.326 5.765h-.493c-5.631.004-10.835-3.093-13.64-8.12A16.172 16.172 0 0 1 129 72.644 158.45 158.45 0 0 0 131.367 66s26.404 10.198 19.474 12.235z" opacity=".1"/>
        <path fill="#EFB7B9" d="M160 66.993a15.981 15.981 0 0 1-10.463 15.019 16.012 16.012 0 0 1-17.722-4.637 15.965 15.965 0 0 1-1.747-18.214 15.614 15.614 0 0 1 1.692-2.44 16.186 16.186 0 0 1 3.678-3.228 16.017 16.017 0 0 1 15.772-.789 15.98 15.98 0 0 1 8.768 13.118c.009.393.022.782.022 1.17z"/>
        <path fill="#000" d="M147 104.524l-.054.476-7.477-11.243a56.245 56.245 0 0 0-1.218 2.967s-17.76-12.86-14.95-13.725c.945-.29 2.186-2.236 3.413-4.688l.153-.311c1.304 3.736 8.88 11.204 12.031 14.196.364.346.666.632.9.84l.48.431.252.243c1.147 1.137 5.984 6.153 6.47 10.814z" opacity=".1"/>
        <path fill="#DCE6F2" d="M152 144.417l-.819 25.96-.144 4.623s-9.702-.886-18.755-1.862c-7.29-.784-14.16-1.63-15.218-2.127-1.35-.625-4.244-1.108-6.525-1.414-1.764-.235-3.15-.359-3.15-.359s-.517.15-1.314.293c-1.737.31-4.788.563-6.565-.958-2.272-1.946 3.699-9.015 5.188-10.713l.329-.367-.563-5.12-1.462-13.274s-.9-7.646-2.25-11.746a21.384 21.384 0 0 1-.779-3.568 28.164 28.164 0 0 1 .756-11.195c.428-1.55.7-3.137.81-4.739.225-4.1 12.937-19.945 16.087-21.385a6.629 6.629 0 0 0 3.222-3.165c.22-.438.384-.9.49-1.378 1.35-5.762 4.766-3.475 4.766-3.475.823 4.507 13.571 16.44 13.571 16.44l.252.247c1.265 1.277 6.898 7.27 6.498 12.384-.08 1.904.208 3.805.85 5.602a93.458 93.458 0 0 1 4.433 24.821l.292 6.475z"/>
        <path fill="#000" d="M133.902 113s-3.146 7.894-5.505 9.171c-2.36 1.277 6.629 2.693 5.505-9.171zM137 127s-7 .705-7 1.763c0 1.057 7-1.763 7-1.763zM144 136s-10.662 22.31-13.642 22.986C127.378 159.662 144 136 144 136zM140 95.266L131.39 99 121 83.342c.218-.442.382-.908.488-1.39 1.343-5.805 4.741-3.5 4.741-3.5.82 4.541 13.502 16.564 13.502 16.564l.269.25z" opacity=".1"/>
        <path fill="#DCE6F2" d="M140 95.266L131.39 99 121 83.342c.218-.442.382-.908.488-1.39 1.343-5.805 4.741-3.5 4.741-3.5.82 4.541 13.502 16.564 13.502 16.564l.269.25z"/>
        <path fill="#000" d="M150.858 174.93s-9.599-.89-18.556-1.87l16.071 4.205v4.895c-.703.636-1.313.965-1.71.796-1.851-.779-16.965-3.226-16.965-3.226s-8.78-4.45-18.253-9.788a7.315 7.315 0 0 1-.668-.419 10.521 10.521 0 0 1-2.805-2.807c-1.75-2.532-2.604-5.784-2.974-8.974a38.785 38.785 0 0 1-.231-5.509 45.14 45.14 0 0 1 .57-6.224A204.589 204.589 0 0 1 104 121.982c.111-12.458 11.798-16.907 11.798-16.907 21.48-1.891 14.82 32.814 14.82 32.814s-1.242 9.788-1.58 10.79c-.339 1-1.554 2.669-1.39 5.005.165 2.336 4.27 5.13 4.27 5.13s4.007 1.877 5.658 4.658c1.202 2.051 9.011 4.832 13.423 6.817l-.142 4.64zM158 57.992a4.8 4.8 0 0 1-.456 2.095 12.762 12.762 0 0 1-.812 1.561 7.25 7.25 0 0 1-1.997 2.385c-1.054.723-2.385.925-3.648 1.219-1.263.293-2.577.762-3.297 1.797a6.126 6.126 0 0 0-.77 2.148 4.529 4.529 0 0 1-.913 2.078 1.84 1.84 0 0 1-2.134.491 2.087 2.087 0 0 1-.825-1.021c-.52-1.127-.652-2.377-.862-3.59-.21-1.215-.506-2.465-1.282-3.442-.775-.978-2.147-1.622-3.365-1.24a3.188 3.188 0 0 0-1.824 1.7 9.456 9.456 0 0 0-.689 2.42 133.654 133.654 0 0 1-2.001 8.873.8.8 0 0 1-.15.333.67.67 0 0 1-.457.184c-1.021.132-2.002-.557-3.032-.482a1.807 1.807 0 0 0-.315.048c-3.413-5.702-2.755-12.848 1.646-17.886l.082-.022a4.947 4.947 0 0 0 1.824-1.105 18.737 18.737 0 0 0 1.824-2.03l.365-.438a20.478 20.478 0 0 1 3.557-3.248c.359-.283.77-.497 1.213-.631.379-.071.767-.083 1.15-.036 1.574.182 3.162.24 4.746.171a31.642 31.642 0 0 1 3.333-.324c2.887.079 5.35 2.039 7.173 4.187.98 1.1 1.856 2.367 1.916 3.805z" opacity=".1"/>
        <path fill="#965D7B" d="M128.536 59.903c-.611 1-1.715 1.681-2.128 2.78-.607 1.593.418 3.578-.523 5-.312.48-.827.835-1.002 1.384-.3.926.518 1.914.307 2.867-.21.953-1.468 1.756-1.134 2.687.198.406.544.72.967.878a3.784 3.784 0 0 0 2.198.488c1.2-.198 2.093-1.375 3.31-1.462.99-.07 1.934.614 2.92.487a.66.66 0 0 0 .439-.189.76.76 0 0 0 .145-.334 143.668 143.668 0 0 0 1.934-8.887 9.564 9.564 0 0 1 .66-2.424 3.15 3.15 0 0 1 1.758-1.703c1.173-.378 2.492.263 3.244 1.242.752.98 1.037 2.23 1.24 3.447.202 1.216.33 2.468.826 3.596a2.1 2.1 0 0 0 .8 1.028c.66.382 1.547.079 2.053-.492.463-.61.765-1.328.88-2.086a6.266 6.266 0 0 1 .742-2.147c.695-1.036 1.965-1.506 3.178-1.8 1.213-.294 2.493-.5 3.517-1.225a7.229 7.229 0 0 0 1.925-2.384c.65-1.133 1.258-2.363 1.205-3.667-.057-1.423-.901-2.692-1.803-3.798-1.758-2.152-4.136-4.114-6.919-4.189-1.076.045-2.15.153-3.213.325-1.528.069-3.058.01-4.576-.176a3.6 3.6 0 0 0-1.108.04c-.427.13-.823.345-1.165.632a20.049 20.049 0 0 0-3.433 3.25 25.172 25.172 0 0 1-2.119 2.458 4.77 4.77 0 0 1-1.758 1.111c-.44.123-.88.035-1.297.171-1.297.409-1.468 2.1-2.07 3.092z"/>
        <path fill="#000" d="M170.385 71.912c-3.513.61-6.425-2.076-8.037-4.036A16.268 16.268 0 0 1 161 66l12.06 2.15.487.088s2.218 2.744-3.162 3.674z" opacity=".1"/>
        <g fill="#000" opacity=".1">
            <path d="M124.546 70.13a3.908 3.908 0 0 0-.257-1.754c0 .046-.04.091-.053.137-.19.612.067 1.246.23 1.88a1.4 1.4 0 0 0 .08-.264zM125.6 62.656c-.045.631-.033 1.265.036 1.894a10.48 10.48 0 0 0-.035-1.894zM156.37 58.387a7.45 7.45 0 0 1-1.94 2.484c-1.024.753-2.314.963-3.545 1.269-1.232.306-2.503.794-3.203 1.872a6.713 6.713 0 0 0-.75 2.237 4.858 4.858 0 0 1-.885 2.168c-.51.594-1.405.913-2.07.511a2.174 2.174 0 0 1-.805-1.068c-.501-1.173-.634-2.47-.833-3.739-.2-1.269-.497-2.565-1.25-3.583-.753-1.018-2.086-1.69-3.27-1.292-.799.318-1.438.958-1.772 1.771a10.191 10.191 0 0 0-.664 2.52 149.014 149.014 0 0 1-1.95 9.24.802.802 0 0 1-.146.347.655.655 0 0 1-.443.196c-.992.133-1.945-.58-2.941-.507-1.228.092-2.127 1.315-3.337 1.516a3.654 3.654 0 0 1-2.215-.507 2.373 2.373 0 0 1-.81-.593c-.21.31-.27.702-.164 1.064.195.425.545.753.974.913.67.4 1.444.578 2.215.506 1.21-.2 2.11-1.424 3.337-1.515.996-.073 1.949.639 2.941.506a.655.655 0 0 0 .443-.196.802.802 0 0 0 .147-.347 148.639 148.639 0 0 0 1.949-9.24c.113-.866.336-1.714.664-2.52a3.209 3.209 0 0 1 1.773-1.771c1.183-.397 2.512.274 3.27 1.292.757 1.018 1.045 2.319 1.249 3.584.203 1.264.332 2.565.833 3.738.152.436.434.81.806 1.069.664.397 1.56.082 2.069-.512.466-.635.77-1.38.886-2.168.116-.786.37-1.544.749-2.237.7-1.077 1.98-1.561 3.203-1.872 1.223-.31 2.512-.516 3.544-1.269a7.45 7.45 0 0 0 1.94-2.483c.656-1.174 1.268-2.452 1.215-3.808a5.047 5.047 0 0 0-.054-.52 9.127 9.127 0 0 1-1.16 2.944z"/>
        </g>
        <path fill="#000" d="M158.002 58.732A14.265 14.265 0 0 1 160 65c-4-2.11-7.764-4.428-9.663-5.234-3.31-1.405-15.685-1.194-20.337-1.063a14.757 14.757 0 0 1 1.697-2.305 15.989 15.989 0 0 1 3.705-3.047c3.727-2.224 8.262-2.907 12.541-1.89 4.28 1.016 7.925 3.642 10.081 7.263l-.022.008zM171.822 69.81c-2.18.712-5.74-.664-9.43-2.636A18.964 18.964 0 0 1 161 65l12.45 2.491c.825.597 1.033 1.448-1.628 2.319z" opacity=".1"/>
        <path fill="#444053" d="M144.634 43.02s-11.731-.673-15.03 5.722l-.531 5.667-.894-.099-.179 3.855s17.93-.785 22.01 1.064c4.081 1.848 16.76 11.164 21.842 9.593 5.081-1.57-.447-3.028-.447-3.028s-6.994-2.976-6.994-5.309-1.734-14.66-19.777-17.465z"/>
        <path fill="#000" d="M122 251s7.677 7.549 11 6.968c0 0-9.396-.813-11-6.968zM121 255s.694 3.301 2.545 2.978C125.396 257.654 121 255 121 255zM133 317s-10.582 7.786-8.797 7.996C125.987 325.206 133 317 133 317z" opacity=".1"/>
        <path fill="#0DA176" d="M147 154.5l34-5.5v32l-32.304-1.681z"/>
        <path fill="#000" d="M147 154.5l34-5.5v32l-32.304-1.681z" opacity=".05"/>
        <path fill="#0DA176" d="M181 149l41 3.033-2.269 27.848L181 181z"/>
        <path fill="#000" d="M181 149l41 3.033-2.269 27.848L181 181z" opacity=".1"/>
        <path fill="#0DA176" d="M193.42 139L181 148.92l40.398 3.08L228 141.849zM134 143.609L165.064 140 181 148.642 146.494 154zM189 156.836V201l-16.137-1.64-7.02-.708-2.138-.222-7.015-.713-9.69-.984V154l34.444 2.322z"/>
        <path fill="#0DA176" d="M222 151v43.513l-13.026 2.485-6.335 1.209L188 201v-44.619z"/>
        <path fill="#000" d="M222 151v43.513l-13.026 2.485-6.335 1.209L188 201v-44.619z" opacity=".05"/>
        <path fill="#0DA176" d="M134 163.19l12.365-9.19L188 156.803 181.87 167z"/>
        <path fill="#FFF" d="M134 163.19l12.365-9.19L188 156.803 181.87 167z" opacity=".1"/>
        <path fill="#0DA176" d="M221.652 151L188 156.3l10.953 9.7L235 160.021z"/>
        <path fill="#FFF" d="M221.652 151L188 156.3l10.953 9.7L235 160.021zM209 196.767L203 198v-9.484l5.62-1.516zM173 193v6l-7-.699V193zM163 195v3l-7-.66V195z" opacity=".1"/>
        <path fill="#000" d="M184.562 190.704c-4.734 6.085-20.368 1.88-20.368 1.88l-11.617-12.18-1.577-1.65 3.083-5.754s.88.292 2.351.806c7.787 2.735 32.114 11.777 28.128 16.898z" opacity=".1"/>
        <path fill="#EFB7B9" d="M183.562 188.704c-4.734 6.085-20.368 1.88-20.368 1.88l-11.617-12.18-1.577-1.65 3.083-5.754s.88.292 2.351.806c7.787 2.735 32.114 11.777 28.128 16.898z"/>
        <path fill="#000" d="M155 171.87c-.592 2.009-2.095 4.983-3.55 7.13l-1.45-1.784 2.836-6.216s.815.316 2.164.87z" opacity=".1"/>
        <path fill="#DCE6F2" d="M115.777 103.076s-11.665 4.45-11.776 16.911c-.026 8.03.419 16.055 1.333 24.032 0 0-3.333 18.58 6.11 23.92 9.443 5.341 18.22 9.791 18.22 9.791s15.086 2.448 16.94 3.227c1.852.779 8.291-9.235 7.291-10.903-1-1.67-14.735-5.786-16.366-8.567-1.63-2.782-5.648-4.655-5.648-4.655s-4.097-2.8-4.261-5.136c-.165-2.336 1.044-4.005 1.386-5.007.342-1 1.582-10.792 1.582-10.792s6.63-34.734-14.811-32.82z"/>
        <path fill="#000" d="M122 144s-16.184 1.94-14.93 8c0 0 6.15-6.114 14.93-8zM122 146s-9.536 6.538-7.785 6.98c1.75.444 7.785-6.98 7.785-6.98zM125.958 148s-3.221 5.265-1.4 4.99c1.82-.275 1.4-4.99 1.4-4.99z" opacity=".1"/>
        <path fill="#0DA176" d="M289.67 49.022s-16.434-1.025-14.514 10.911c0 0-.385 2.109 1.462 3.067 0 0 .03-.895 1.687-.587a7.32 7.32 0 0 0 1.786.09 3.641 3.641 0 0 0 2.188-.936s4.624-1.974 6.423-9.8c0 0 1.332-1.71 1.297-2.15l-2.776 1.232s.947 2.073.199 3.796c0 0-.087-3.72-.623-3.635-.108 0-1.44.72-1.44.72s1.63 3.61.398 6.238c0 0 .467-4.45-.909-5.978l-1.955 1.182s1.908 3.73.615 6.775c0 0 .333-4.67-1.025-6.488l-1.774 1.428s1.795 3.68.701 6.206c0 0-.143-5.436-1.086-5.848 0 0-1.548 1.415-1.781 1.997 0 0 1.223 2.687.462 4.079 0 0-.467-3.622-.865-3.64 0 0-1.544 2.4-1.704 4.03a8.926 8.926 0 0 1 1.328-4.272 4.58 4.58 0 0 0-2.361 1.267s.237-1.697 2.742-1.844c0 0 1.297-1.823 1.617-1.934 0 0-2.491-.215-4 .479 0 0 1.327-1.599 4.459-.896l1.73-1.477s-3.279-.448-4.671.049c0 0 1.6-1.415 5.142-.385l1.903-1.178s-2.794-.626-4.46-.398c0 0 1.757-.98 5.018.08l1.362-.63s-2.05-.417-2.647-.484c-.596-.068-.631-.238-.631-.238a6.853 6.853 0 0 1 3.845.448s2.92-1.088 2.859-1.276z"/>
        <path fill="#0DA176" d="M340.708 109.022s-16.477-1.025-14.552 10.911c0 0-.385 2.109 1.466 3.067 0 0 .03-.895 1.695-.587a7.356 7.356 0 0 0 1.791.09 3.652 3.652 0 0 0 2.168-.931s4.64-1.98 6.443-9.805c0 0 1.332-1.706 1.28-2.145l-2.784 1.227s.95 2.073.204 3.796c0 0-.091-3.72-.625-3.635-.108 0-1.448.72-1.448.72s1.639 3.614.403 6.238c0 0 .469-4.45-.915-5.978l-1.938 1.169s1.912 3.73.616 6.774c0 0 .334-4.67-1.028-6.487l-1.773 1.432s1.795 3.676.702 6.201c0 0-.143-5.435-1.088-5.847 0 0-1.552 1.415-1.79 1.997 0 0 1.23 2.686.467 4.079 0 0-.468-3.622-.867-3.64 0 0-1.548 2.4-1.708 4.03a8.937 8.937 0 0 1 1.335-4.272 4.617 4.617 0 0 0-2.371 1.267s.242-1.697 2.753-1.845c0 0 1.28-1.822 1.622-1.934 0 0-2.498-.215-4.011.48 0 0 1.331-1.6 4.466-.874l1.734-1.477s-3.29-.448-4.683.049c0 0 1.605-1.415 5.156-.385l1.908-1.178s-2.806-.622-4.475-.398c0 0 1.765-.98 5.034.08l1.366-.63s-2.055-.417-2.658-.484c-.603-.068-.633-.238-.633-.238a6.9 6.9 0 0 1 3.859.448s2.931-1.097 2.879-1.285zM239.406 97.803s3.848-16.581-8.043-16.64c0 0-1.975-.75-3.22.966 0 0 .85.184.273 1.82a8.07 8.07 0 0 0-.396 1.788 3.892 3.892 0 0 0 .524 2.383s1.112 5.052 8.355 8.217c0 0 1.425 1.645 1.856 1.663l-.704-3.036s-2.172.613-3.711-.447c0 0 3.62.541 3.624 0 0-.111-.44-1.591-.44-1.591s-3.778 1.046-6.109-.657c0 0 4.227 1.234 5.946.094l-.792-2.2s-3.957 1.31-6.666-.528c0 0 4.463 1.136 6.46.063l-1.078-2.048s-3.87 1.199-6.126-.344c0 0 5.278.778 5.85-.107 0 0-1.1-1.82-1.623-2.16 0 0-2.797.796-4.029-.218 0 0 3.584.138 3.668-.246 0 0-2.054-1.98-3.62-2.428a8.573 8.573 0 0 1 3.91 2.083 4.88 4.88 0 0 0-.818-2.624s1.601.537 1.32 3.13c0 0 1.539 1.609 1.587 1.976 0 0 .638-2.5.229-4.158 0 0 1.32 1.627.075 4.69l1.125 2.034s1.02-3.264.761-4.766c0 0 1.095 1.869-.519 5.302l.814 2.142s1.086-2.745 1.156-4.47c0 0 .647 1.957-.95 5.1l.379 1.493s.756-2.016.923-2.615c.167-.6.339-.604.339-.604a7.413 7.413 0 0 1-1.095 3.845s.576 3.12.765 3.098zM201 104.452s-13.413-10.58-18.207.88c0 0-1.464 1.599-.414 3.513 0 0 .501-.746 1.758.491.446.437.938.816 1.468 1.13a3.606 3.606 0 0 0 2.36.464s4.993 1.015 10.74-4.69c0 0 2.053-.695 2.247-1.103l-3.028-.56s-.317 2.35-1.877 3.401c0 0 1.93-3.271 1.428-3.508-.1-.05-1.612-.232-1.612-.232s-.563 4.088-3.024 5.63c0 0 2.8-3.572 2.452-5.704l-2.298-.13s-.391 4.352-3.134 6.224c0 0 2.8-3.842 2.637-6.214l-2.276.194s-.462 4.231-2.751 5.77c0 0 2.808-4.782 2.232-5.69 0 0-2.079.31-2.593.671 0 0-.4 3.03-1.806 3.8 0 0 1.56-3.406 1.244-3.642 0 0-2.606 1.163-3.63 2.488a8.684 8.684 0 0 1 3.436-2.91 4.507 4.507 0 0 0-2.69-.297s1.117-1.325 3.323.024c0 0 2.066-.82 2.417-.719 0 0-2-1.654-3.656-1.941 0 0 1.995-.603 4.258 1.853l2.281-.245s-2.536-2.317-3.99-2.707c0 0 2.122-.282 4.57 2.693l2.25.106s-2.034-2.187-3.568-2.975c0 0 2.017.186 4.214 3.026l1.5.255s-1.517-1.566-1.992-1.974c-.474-.408-.408-.58-.408-.58a7.324 7.324 0 0 1 3.028 2.652s3.054.746 3.111.556zM246 9.455s-13.413-10.587-18.207.88c0 0-1.464 1.6-.414 3.514 0 0 .501-.746 1.758.491.448.435.942.813 1.473 1.127a3.6 3.6 0 0 0 2.36.463s4.992 1.015 10.74-4.695c0 0 2.053-.69 2.242-1.103l-3.028-.552s-.312 2.35-1.877 3.402c0 0 1.934-3.272 1.433-3.509-.101-.05-1.613-.231-1.613-.231s-.58 4.097-3.041 5.631c0 0 2.795-3.573 2.452-5.706l-2.298-.13s-.396 4.353-3.134 6.221c0 0 2.8-3.843 2.637-6.216l-2.272.195s-.466 4.237-2.756 5.775c0 0 2.813-4.783 2.237-5.692 0 0-2.078.31-2.593.672 0 0-.4 3.032-1.806 3.801 0 0 1.56-3.407 1.244-3.648 0 0-2.606 1.168-3.63 2.494a8.644 8.644 0 0 1 3.437-2.91 4.477 4.477 0 0 0-2.694-.297s1.12-1.326 3.326.023c0 0 2.066-.825 2.417-.719 0 0-2-1.654-3.656-1.946 0 0 1.99-.598 4.254 1.854l2.281-.246s-2.531-2.318-3.99-2.712c0 0 2.122-.278 4.575 2.698l2.25.102s-2.035-2.188-3.573-2.971c0 0 2.021.185 4.219 3.027l1.494.255s-1.52-1.549-1.995-1.947c-.475-.399-.409-.575-.409-.575a7.311 7.311 0 0 1 3.028 2.651s3.054.705 3.129.529zM299 22.476s-5.452-14.997-15.734-9.104c0 0-2.1.415-2.266 2.372 0 0 .827-.283 1.193 1.295a7.13 7.13 0 0 0 .612 1.624 3.74 3.74 0 0 0 1.716 1.616s3.629 3.426 11.565 2.292c0 0 2.096.59 2.48.386l-2.234-2.039s-1.546 1.566-3.432 1.504c0 0 3.41-1.38 3.128-1.824-.058-.087-1.224-1.03-1.224-1.03s-2.708 2.712-5.613 2.534c0 0 4.295-1.138 5.17-2.907l-1.85-1.325s-2.708 2.998-6.028 2.907c0 0 4.469-1.333 5.6-3.177l-2.012-1.076s-2.68 2.878-5.46 2.787c0 0 4.969-2.023 4.982-3.003 0 0-1.908-.884-2.538-.893 0 0-1.993 2.023-3.575 1.84 0 0 3.164-1.682 3.03-2.026 0 0-2.815-.536-4.402-.104a9.34 9.34 0 0 1 4.469-.312 4.745 4.745 0 0 0-2.096-1.66s1.662-.379 2.775 1.797c0 0 2.18.503 2.413.764 0 0-.768-2.288-1.997-3.393 0 0 1.997.628 2.542 3.663l2.047 1.039s-.844-3.078-1.863-4.153c0 0 1.935.93 2.355 4.44l1.832 1.282s-.51-2.707-1.368-4.111c0 0 1.591 1.221 1.877 4.498l1.113.988s-.411-1.968-.58-2.525c-.17-.556-.032-.594-.032-.594a6.491 6.491 0 0 1 1.086 3.58s2.163 2.156 2.319 2.048zM262.69 24.105s-17.013-1.834-15.608 9.853c0 0-.507 2.025 1.347 3.042 0 0 .076-.87 1.796-.478a8.52 8.52 0 0 0 1.849.178 3.94 3.94 0 0 0 2.312-.795s4.897-1.682 7.182-9.18c0 0 1.463-1.586 1.432-2.016l-2.94 1.052s.897 2.055 0 3.69c0 0 .094-3.612-.45-3.556-.112 0-1.53.626-1.53.626s1.508 3.586.099 6.085c0 0 .709-4.294-.642-5.841l-2.088 1.043s1.796 3.716.292 6.602c0 0 .584-4.512-.731-6.342l-1.908 1.304s1.67 3.656.408 6.05c0 0 .13-5.276-.826-5.724 0 0-1.678 1.304-1.952 1.843 0 0 1.135 2.651.278 3.977 0 0-.3-3.534-.696-3.568 0 0-1.723 2.247-1.975 3.833a8.304 8.304 0 0 1 1.598-4.077 4.904 4.904 0 0 0-2.513 1.109s.332-1.63 2.935-1.648c0 0 1.414-1.7 1.796-1.79 0 0-2.572-.335-4.175.26 0 0 1.46-1.486 4.664-.621l1.89-1.343s-3.416-.67-4.862-.235c0 0 1.733-1.304 5.351-.108l2.033-1.048s-2.868-.747-4.605-.613c0 0 1.872-.869 5.198.335l1.445-.543s-2.105-.509-2.724-.604c-.62-.096-.642-.261-.642-.261a7.599 7.599 0 0 1 3.968.626s3.025-.935 2.994-1.117zM410.703 154.105s-17.027-1.836-15.62 9.85c0 0-.508 2.027 1.348 3.045 0 0 .077-.87 1.798-.483.608.131 1.23.191 1.852.178a3.914 3.914 0 0 0 2.315-.796s4.904-1.683 7.17-9.184c0 0 1.465-1.592 1.434-2.018l-2.945 1.048s.9 2.062 0 3.698c0 0 .095-3.62-.45-3.559-.112 0-1.532.622-1.532.622s1.51 3.59.099 6.091c0 0 .71-4.294-.643-5.847l-2.09 1.049s1.798 3.72.297 6.608c0 0 .58-4.516-.738-6.352l-1.91 1.305s1.672 3.66.409 6.052c0 0 .13-5.282-.827-5.725 0 0-1.677 1.305-1.955 1.844 0 0 1.141 2.654.278 3.981 0 0-.3-3.537-.696-3.572 0 0-1.727 2.25-1.978 3.837a8.31 8.31 0 0 1 1.6-4.08 4.87 4.87 0 0 0-2.517 1.11s.332-1.637 2.94-1.654c0 0 1.42-1.701 1.798-1.788 0 0-2.576-.34-4.18.256 0 0 1.46-1.483 4.674-.617l1.888-1.345s-3.38-.617-4.85-.191c0 0 1.735-1.305 5.358-.113l2.036-1.044s-2.872-.749-4.612-.614c0 0 1.875-.87 5.205.335l1.448-.548s-2.108-.509-2.729-.6c-.62-.092-.642-.261-.642-.261a7.585 7.585 0 0 1 3.973.622s3.039-.953 2.994-1.14zM436.72 169.104s-17.046-1.831-15.637 9.85c0 0-.504 2.028 1.35 3.046 0 0 .076-.87 1.8-.479a8.206 8.206 0 0 0 1.85.174 3.972 3.972 0 0 0 2.308-.791s4.905-1.684 7.173-9.19c0 0 1.471-1.587 1.435-2.018l-2.947 1.049s.9 2.062 0 3.698c0 0 .094-3.616-.45-3.56-.113 0-1.535.623-1.535.623s1.512 3.59.1 6.091c0 0 .71-4.294-.644-5.843l-2.093 1.044s1.8 3.72.297 6.609c0 0 .58-4.516-.738-6.348l-1.912 1.305s1.674 3.66.414 6.057c0 0 .126-5.286-.833-5.73 0 0-1.678 1.305-1.957 1.844 0 0 1.143 2.654.279 3.981 0 0-.302-3.537-.698-3.572 0 0-1.728 2.25-1.975 3.838a8.326 8.326 0 0 1 1.597-4.081 4.92 4.92 0 0 0-2.52 1.11s.338-1.637 2.948-1.65c0 0 1.417-1.7 1.8-1.792 0 0-2.579-.335-4.185.26 0 0 1.462-1.487 4.68-.621l1.89-1.345s-3.384-.618-4.856-.191c0 0 1.737-1.305 5.364-.109l2.039-1.048s-2.876-.749-4.617-.614c0 0 1.876-.87 5.21.335l1.45-.544s-2.11-.509-2.727-.604c-.617-.096-.648-.262-.648-.262a7.628 7.628 0 0 1 3.978.627s3.055-.962 3.01-1.149zM379 37.452s-13.413-10.58-18.207.88c0 0-1.464 1.599-.414 3.513 0 0 .501-.746 1.758.491.446.437.938.816 1.468 1.13a3.61 3.61 0 0 0 2.36.464s4.993 1.015 10.745-4.69c0 0 2.048-.695 2.242-1.103l-3.02-.574s-.316 2.35-1.876 3.401c0 0 1.93-3.271 1.428-3.508-.1-.05-1.608-.231-1.608-.231s-.567 4.087-3.028 5.63c0 0 2.8-3.573 2.452-5.705l-2.298-.13s-.392 4.352-3.134 6.224c0 0 2.804-3.841 2.637-6.214l-2.277.195s-.439 4.23-2.75 5.769c0 0 2.812-4.782 2.232-5.69 0 0-2.079.31-2.593.671 0 0-.396 3.031-1.802 3.8 0 0 1.556-3.406 1.24-3.642 0 0-2.607 1.163-3.63 2.488a8.684 8.684 0 0 1 3.436-2.91 4.507 4.507 0 0 0-2.69-.296s1.121-1.326 3.327.023c0 0 2.061-.82 2.413-.719 0 0-2-1.654-3.656-1.941 0 0 1.995-.603 4.258 1.853l2.281-.245s-2.531-2.317-3.99-2.707c0 0 2.122-.282 4.57 2.693l2.255.106s-2.04-2.187-3.573-2.975c0 0 2.021.186 4.214 3.026l1.499.255s-1.516-1.566-1.991-1.974c-.475-.408-.404-.542-.404-.542a7.33 7.33 0 0 1 3.023 2.65s3.046.724 3.103.534zM389 110.458s-4.793-15.94-15.572-10.218c0 0-2.16.318-2.428 2.38 0 0 .856-.256 1.153 1.41a7.46 7.46 0 0 0 .546 1.741c.338.75.924 1.374 1.668 1.776 0 0 3.526 3.742 11.663 2.907 0 0 2.104.705 2.505.513l-2.155-2.237s-1.653 1.576-3.567 1.428c0 0 3.536-1.306 3.262-1.772-.054-.095-1.193-1.135-1.193-1.135s-2.889 2.724-5.841 2.406c0 0 4.433-1 5.408-2.802l-1.823-1.471s-2.906 3.02-6.282 2.785c0 0 4.592-1.206 5.859-3.081l-1.996-1.214s-2.893 2.894-5.699 2.676c0 0 5.162-1.902 5.225-2.924 0 0-1.904-1.01-2.546-1.045 0 0-2.128 2.028-3.745 1.767 0 0 3.307-1.623 3.189-1.989 0 0-2.843-.683-4.478-.304a9.29 9.29 0 0 1 4.555-.127 4.807 4.807 0 0 0-2.05-1.827s1.713-.327 2.734 2.002c0 0 2.191.618 2.419.905 0 0-.67-2.433-1.868-3.638 0 0 2.005.74 2.41 3.942l2.032 1.18s-.71-3.264-1.695-4.413c0 0 1.923 1.057 2.182 4.748l1.823 1.423s-.387-2.855-1.19-4.352c0 0 1.563 1.35 1.69 4.787l1.085 1.088s-.319-2.08-.455-2.672c-.137-.592 0-.675 0-.675a6.875 6.875 0 0 1 .934 3.795s2.077 2.341 2.241 2.237zM285 147.696s-9.013-14.68-17.381-5.894c0 0-1.915.913-1.58 3.08 0 0 .728-.502 1.478 1.095.27.565.605 1.095.997 1.578a3.752 3.752 0 0 0 2.052 1.314s4.345 2.773 11.668-.365c0 0 2.157.118 2.475-.187l-2.647-1.643s-1.09 2.053-2.912 2.441c0 0 2.92-2.28 2.528-2.7-.075-.083-1.434-.803-1.434-.803s-1.91 3.549-4.742 4.064c0 0 3.834-2.258 4.23-4.347l-2.112-.963s-1.84 3.855-5.043 4.562c0 0 3.926-2.504 4.566-4.749l-2.206-.657s-1.861 3.727-4.53 4.297c0 0 4.252-3.366 4.019-4.415 0 0-2.056-.48-2.647-.333 0 0-1.399 2.64-2.978 2.833 0 0 2.612-2.564 2.395-2.902 0 0-2.836.114-4.248.958a8.392 8.392 0 0 1 4.209-1.414 4.678 4.678 0 0 0-2.422-1.264s1.495-.807 3.088 1.246c0 0 2.206 0 2.51.228 0 0-1.323-2.281-2.775-3.134 0 0 2.074.182 3.362 3.289l2.228.611s-1.593-3.079-2.833-3.96c0 0 2.087.52 3.38 4.166l2.082.912s-1.174-2.76-2.352-4.051c0 0 1.836.912 2.934 4.338l1.324.79s-.883-2.003-1.196-2.555c-.313-.552-.19-.68-.19-.68a7.55 7.55 0 0 1 1.946 3.554s2.638 1.815 2.757 1.66z" opacity=".1"/>
        <path fill="#0DA176" d="M345 74.015s-8.617-14.875-17.297-6.41c0 0-1.951.862-1.676 3.012 0 0 .74-.48 1.45 1.13.254.572.574 1.111.953 1.606a3.76 3.76 0 0 0 2.023 1.36s4.28 2.895 11.735 0c0 0 2.164.187 2.493-.108l-2.604-1.715s-1.153 2-2.998 2.332c0 0 3.003-2.191 2.626-2.604-.08-.086-1.42-.849-1.42-.849s-2.026 3.47-4.878 3.893c0 0 3.92-2.123 4.377-4.183l-2.093-1.007s-1.965 3.779-5.207 4.382c0 0 4.023-2.363 4.732-4.572l-2.19-.726s-1.988 3.629-4.684 4.128c0 0 4.373-3.212 4.169-4.26 0 0-2.05-.544-2.661-.417 0 0-1.486 2.581-3.078 2.722 0 0 2.7-2.46 2.497-2.804 0 0-2.856.023-4.298.817a8.515 8.515 0 0 1 4.271-1.27 4.738 4.738 0 0 0-2.4-1.334s1.531-.758 3.105 1.333c0 0 2.218.078 2.515.309 0 0-1.255-2.268-2.692-3.203 0 0 2.076.245 3.278 3.375l2.217.68s-1.503-3.111-2.727-4.028c0 0 2.084.586 3.273 4.247l2.062.984s-1.095-2.78-2.218-4.083c0 0 1.814.966 2.821 4.405l1.3.826s-.834-2.02-1.127-2.577c-.293-.558-.168-.68-.168-.68a7.51 7.51 0 0 1 1.85 3.592s2.54 1.847 2.669 1.697zM290.998 104.653s.465-16.791-11.86-14.424c0 0-2.207-.322-3.138 1.59 0 0 .931 0 .67 1.697a7.329 7.329 0 0 0-.027 1.825 3.679 3.679 0 0 0 1.047 2.204s2.221 4.645 10.42 6.223c0 0 1.821 1.3 2.278 1.23l-1.397-2.786s-2.119 1.031-3.94.33c0 0 3.865-.216 3.758-.753 0-.11-.8-1.45-.8-1.45s-3.698 1.785-6.468.612c0 0 4.656.33 6.179-1.119l-1.3-1.952s-3.808 2.062-7.021.846c0 0 4.866.185 6.71-1.256l-1.55-1.763s-3.758 1.948-6.422.916c0 0 5.644-.321 6.053-1.295 0 0-1.527-1.53-2.142-1.763 0 0-2.728 1.322-4.218.608 0 0 3.725-.59 3.748-.983 0 0-2.547-1.494-4.265-1.604a9.45 9.45 0 0 1 4.493 1.216 4.677 4.677 0 0 0-1.397-2.366s1.774.19 2.017 2.732c0 0 1.941 1.243 2.067 1.587 0 0 .135-2.543-.643-4.06 0 0 1.714 1.3 1.071 4.51l1.597 1.736s.364-3.359-.218-4.756c0 0 1.527 1.583.586 5.223l1.29 1.9s.55-2.87.256-4.558c0 0 1.08 1.763.093 5.117l.708 1.366s.359-2.102.405-2.714c.047-.613.224-.653.224-.653a6.872 6.872 0 0 1-.322 3.936s1.253 2.909 1.458 2.851z"/>
        <ellipse cx="310" cy="318" fill="#0DA176" opacity=".1" rx="12" ry="2"/>
        <ellipse cx="267" cy="348" fill="#0DA176" opacity=".1" rx="12" ry="2"/>
        <ellipse cx="41" cy="332" fill="#0DA176" opacity=".1" rx="12" ry="2"/>
        <ellipse cx="357" cy="346" fill="#0DA176" opacity=".1" rx="12" ry="2"/>
        <ellipse cx="370" cy="320" fill="#0DA176" rx="18" ry="3"/>
        <path fill="#0DA176" d="M376.269 315.234a5.169 5.169 0 0 0 1.675-2.57c.219-1.022-.21-2.245-1.168-2.618-1.076-.418-2.226.338-3.1 1.102-.876.765-1.869 1.641-3.01 1.481a4.715 4.715 0 0 0 1.417-4.362 1.842 1.842 0 0 0-.394-.889c-.599-.65-1.68-.37-2.397.142-2.274 1.628-2.908 4.767-2.921 7.594-.228-1.018-.035-2.08-.04-3.112-.004-1.031-.288-2.223-1.159-2.766a3.415 3.415 0 0 0-1.75-.444c-1.023-.036-2.164.067-2.86.827-.875.942-.643 2.53.11 3.557.752 1.027 1.902 1.69 2.96 2.41a6.666 6.666 0 0 1 2.118 2.05c.062.116.113.238.153.364h6.412a17.682 17.682 0 0 0 3.954-2.766z"/>
        <path fill="#A8A8A8" d="M33 322.717s6.713-.21 8.746-1.689c2.034-1.478 10.334-3.238 10.837-.868.503 2.369 10.093 11.775 2.51 11.838-7.583.062-17.62-1.21-19.64-2.473-2.02-1.263-2.453-6.808-2.453-6.808z"/>
        <path fill="#000" d="M55.23 331.207c-7.587.061-17.628-1.172-19.649-2.397-1.54-.929-2.152-4.268-2.358-5.81H33s.437 5.38 2.446 6.6c2.008 1.221 12.061 2.459 19.648 2.398 2.187 0 2.944-.79 2.905-1.937-.307.7-1.142 1.133-2.77 1.146z" opacity=".2"/>
    </g>
</svg>
