<svg xmlns="http://www.w3.org/2000/svg" id="checked" viewBox="0 0 25.354 25.354">
    <defs>
        <style>
            .cls-1{fill:#2f9785}.cls-2{fill:#37a18e}.cls-3{fill:#f2f1ef}.cls-4{fill:#e6e5e3}
        </style>
    </defs>
    <path id="Path_98" d="M12.677 0A12.677 12.677 0 1 1 0 12.677 12.677 12.677 0 0 1 12.677 0z" class="cls-1" data-name="Path 98"/>
    <path id="Path_95" d="M251.457 114.609l-11.211 11.607.02 1.248h.515l12.142-9.785a12.891 12.891 0 0 0-1.466-3.07z" class="cls-2" data-name="Path 95" transform="translate(-228.163 -108.845)"/>
    <path id="Path_96" d="M114.791 57.481l-2.238-2.218a.8.8 0 0 0-1.109 0l-9.567 9.884-4.14-4.08a.8.8 0 0 0-1.109 0l-1.981 1.961a.777.777 0 0 0 0 1.089l6.616 6.556a1.089 1.089 0 0 0 1.307 0l12.221-12.083a.8.8 0 0 0 0-1.109z" class="cls-3" data-name="Path 96" transform="translate(-89.675 -52.272)"/>
    <path id="Path_97" d="M102.944 110.789l12.221-12.083a.777.777 0 0 0 0-1.089l-.357-.337-12.537 12.32-6.933-6.754-.3.3a.777.777 0 0 0 0 1.089l6.616 6.556a.8.8 0 0 0 .654.218.785.785 0 0 0 .636-.22z" class="cls-4" data-name="Path 97" transform="translate(-90.049 -92.387)"/>
</svg>
