<svg xmlns="http://www.w3.org/2000/svg" viewBox="0 0 15 15"><defs><style>.a{fill:#656565;}.b,.d{fill:none;}.b{stroke:#707070;}.c{stroke:none;}</style></defs><g transform="translate(-1099 -181)"><path class="a" d="M3.663,2.936a.126.126,0,0,1,0-.182L5.612.805A.281.281,0,0,0,5.69.624.281.281,0,0,0,5.612.442L5.248.078A.281.281,0,0,0,5.066,0a.236.236,0,0,0-.182.078L2.936,2.026a.126.126,0,0,1-.182,0L.805.078A.281.281,0,0,0,.624,0,.281.281,0,0,0,.442.078L.078.442A.281.281,0,0,0,0,.624.281.281,0,0,0,.078.805L2.026,2.754a.126.126,0,0,1,0,.182L.078,4.884a.251.251,0,0,0,0,.364l.364.364a.281.281,0,0,0,.182.078.281.281,0,0,0,.182-.078L2.754,3.663a.126.126,0,0,1,.182,0L4.884,5.612a.251.251,0,0,0,.364,0l.364-.364a.251.251,0,0,0,0-.364Z" transform="translate(1103.865 185.914)"/><g class="b" transform="translate(1099 181)"><circle class="c" cx="7.5" cy="7.5" r="7.5"/><circle class="d" cx="7.5" cy="7.5" r="7"/></g></g></svg>