<?xml version="1.0" encoding="UTF-8"?>
<!DOCTYPE svg PUBLIC "-//W3C//DTD SVG 1.1//EN" "http://www.w3.org/Graphics/SVG/1.1/DTD/svg11.dtd">
<!-- Creator: CorelDRAW X8 -->
<svg xmlns="http://www.w3.org/2000/svg" xml:space="preserve" width="101.6mm" height="76.2mm" version="1.1" style="shape-rendering:geometricPrecision; text-rendering:geometricPrecision; image-rendering:optimizeQuality; fill-rule:evenodd; clip-rule:evenodd"
viewBox="0 0 10160 7620"
 xmlns:xlink="http://www.w3.org/1999/xlink">
 <defs>
  <style type="text/css">
   <![CDATA[
    .fil0 {fill:#DC2126}
    .fil1 {fill:#FEFEFE;fill-rule:nonzero}
   ]]>
  </style>
 </defs>
 <g id="Layer_x0020_1">
  <metadata id="CorelCorpID_0Corel-Layer"/>
  <g id="_1004222698848">
   <polygon class="fil0" points="580,309 9580,309 9580,7311 580,7311 "/>
   <path class="fil1" d="M4118 2800c0,348 -258,501 -387,501l-395 0 0 -1007 395 0c142,0 387,154 387,506zm511 0c0,-720 -511,-986 -902,-986l-923 0 0 1978 923 0c391,0 902,-271 902,-992z"/>
   <path class="fil1" d="M7796 2524l172 -506c-223,-128 -541,-204 -884,-189 -589,61 -929,396 -945,992 11,612 356,930 945,991 399,26 712,-76 940,-245l-253 -480c-146,132 -327,204 -541,209 -365,-10 -546,-168 -546,-475 0,-307 198,-491 563,-501 214,10 403,71 549,204z"/>
   <polygon class="fil1" points="5235,2325 6098,2325 6098,1814 4724,1814 4724,3792 5235,3792 5235,3071 6034,3071 6034,2586 5235,2586 "/>
   <polygon class="fil1" points="2174,3792 2676,3792 2676,1814 2174,1814 2174,2524 1409,2524 1409,1814 911,1814 911,3792 1409,3792 1409,3015 2174,3015 "/>
   <path class="fil1" d="M911 5822l1422 0 0 -390 -924 0 0 -356 853 0 0 -355 -853 0 0 -356 924 0 0 -391 -1422 0 0 1848zm2701 -1243c2,257 -249,249 -249,249l-391 0 0 -463 391 0c0,0 248,2 249,214zm462 0c0,-630 -663,-605 -663,-605l-936 0 0 1848 497 0 0 -675 178 0 460 675 568 0 -498 -712c396,-84 394,-531 394,-531zm1884 1208c1,0 0,-995 0,-995l-818 0 0 355 320 0 0 320c-634,152 -784,-179 -784,-559 0,-570 323,-578 463,-578 287,0 321,213 321,213l498 0c-67,-667 -889,-604 -889,-604 -971,0 -924,959 -924,959 0,891 756,957 982,957 254,0 429,-25 831,-68zm1523 -904c0,318 -105,576 -441,576 -337,0 -441,-258 -441,-576 0,-318 104,-576 441,-576 336,0 441,258 441,576zm539 0c0,-676 -438,-959 -980,-959 -541,0 -980,283 -980,959 0,674 439,959 980,959 542,0 980,-285 980,-959z"/>
  </g>
 </g>
</svg>
