<svg xmlns="http://www.w3.org/2000/svg" width="253" height="102" viewBox="0 0 253 102">
    <g fill="none" fill-rule="evenodd">
        <path fill="#FFF" d="M-733-2326H707v3785H-733z"/>
        <g>
            <rect width="252" height="101" x=".5" y=".5" stroke="gray" opacity=".307" rx="8"/>
            <path fill="#100F14" fill-rule="nonzero" stroke="#100F14" stroke-width=".989" d="M84.682 69.917v-5.91h.683v5.91h-.683zm13.35 0v-6.102h.089l3.902 4.634v-4.443h.673v6.112h-.09l-3.901-4.634v4.433h-.674zm16.964-1.076a5.7 5.7 0 0 0 .99.493c.242.087.496.135.753.14.32.02.638-.08.891-.281a1.014 1.014 0 0 0 .09-1.437 2.966 2.966 0 0 0-.902-.583l-.406-.181a2.606 2.606 0 0 1-.99-.724 1.502 1.502 0 0 1-.327-.945c-.011-.414.16-.812.465-1.085.34-.29.775-.44 1.218-.423.245.004.487.037.723.1.237.07.464.172.674.302v.754a3.08 3.08 0 0 0-.812-.402 1.897 1.897 0 0 0-.694-.14 1.108 1.108 0 0 0-.742.24.79.79 0 0 0-.278.634c0 .237.093.465.258.633.24.23.523.411.832.533l.416.18c.386.17.726.433.99.765.22.288.342.64.347 1.005.015.463-.174.909-.515 1.216a1.904 1.904 0 0 1-1.347.472 2.93 2.93 0 0 1-.812-.11 3.926 3.926 0 0 1-.852-.332l-.06-.834.09.01zm16.519-4.835v3.458c-.038.533.109 1.063.415 1.498.31.347.758.532 1.219.502.46.033.908-.157 1.208-.512.306-.439.453-.972.416-1.508v-3.438h.624v3.579a2.71 2.71 0 0 1-.604 1.88 2.064 2.064 0 0 1-1.644.683 2.2 2.2 0 0 1-1.714-.664 2.68 2.68 0 0 1-.614-1.88v-3.567l.694-.03zm16.459 5.91v-5.91h1.228a3.278 3.278 0 0 1 1.862.443c.418.282.658.767.633 1.276.01.407-.14.8-.416 1.096-.29.32-.683.527-1.109.583l2.12 2.513h-.872l-2.03-2.423h-.733v2.423h-.683zm.683-2.965h.594a2.33 2.33 0 0 0 1.308-.311 1.01 1.01 0 0 0 .445-.895 1.01 1.01 0 0 0-.445-.884 2.826 2.826 0 0 0-1.427-.282h-.475v2.372zm16.34.895h2.258l-1.119-2.603-1.138 2.603zm-1.624 2.07l2.724-6.03h.089l2.713 6.03h-.752l-.654-1.497h-2.753l-.644 1.498h-.723zm17.301 0v-6.1h.07l3.902 4.633v-4.443h.673v6.112h-.09l-3.9-4.634v4.433h-.655zm21.53-.381a2.866 2.866 0 0 1-.832.432 2.755 2.755 0 0 1-.91.15 2.844 2.844 0 0 1-.991-.17 3.01 3.01 0 0 1-1.664-1.568 3.512 3.512 0 0 1-.287-1.418 3.132 3.132 0 0 1 .842-2.251 2.734 2.734 0 0 1 2.1-.905 2.954 2.954 0 0 1 1.703.563l-.08.734a2.965 2.965 0 0 0-.792-.503 2.258 2.258 0 0 0-.822-.16 2.076 2.076 0 0 0-1.614.713 2.888 2.888 0 0 0 0 3.599c.4.466.985.728 1.594.713.31.003.618-.062.902-.19.32-.143.616-.332.88-.564l-.049.825h.02zm12.201.382v-5.91h3.199v.562h-2.526v2.01h2.18v.604h-2.18v2.15h2.556v.634l-3.229-.05z"/>
            <path fill="#898D91" fill-rule="nonzero" d="M218.792 60.277H84.533v-.884h134.26v.884z"/>
            <path fill="#100F14" fill-rule="nonzero" d="M84.286 55.222l-.149-5.62c.368.154.745.281 1.13.383.323.084.655.128.99.13a2.099 2.099 0 0 0 1.416-.462c.353-.27.559-.696.554-1.146 0-.603-.495-1.367-1.495-2.291a24.834 24.834 0 0 1-.783-.754 7.82 7.82 0 0 1-1.574-2.252 6.108 6.108 0 0 1-.505-2.492 5.912 5.912 0 0 1 1.891-4.513 6.87 6.87 0 0 1 4.952-1.77 12.2 12.2 0 0 1 1.773.121 8.51 8.51 0 0 1 1.604.392v5.026a7.377 7.377 0 0 0-1.218-.513 3.664 3.664 0 0 0-.99-.16 2.39 2.39 0 0 0-1.516.421c-.353.282-.55.721-.525 1.176 0 .583.476 1.247 1.446 2.01l.892.755a7.137 7.137 0 0 1 1.772 2.372c.412.893.622 1.868.614 2.854a6.075 6.075 0 0 1-1.98 4.805 8.196 8.196 0 0 1-5.546 1.739c-.485 0-.99 0-1.406-.08-.416-.081-.872-.101-1.288-.182l-.06.05zm18.083-12.514h.921a3.082 3.082 0 0 0 1.763-.402c.39-.278.609-.744.574-1.227a1.63 1.63 0 0 0-.534-1.377 2.936 2.936 0 0 0-1.803-.422h-.92v3.428zm0 7.77h1.07a2.692 2.692 0 0 0 1.683-.433c.39-.314.6-.803.565-1.307a1.823 1.823 0 0 0-.585-1.487 2.733 2.733 0 0 0-1.782-.483h-.99v3.73l.04-.02zM97.16 55.16V34.747h6.724a8.052 8.052 0 0 1 5.17 1.437 5.06 5.06 0 0 1 1.782 4.182 5.228 5.228 0 0 1-.653 2.714 4.855 4.855 0 0 1-2.04 1.799c.852.289 1.577.872 2.05 1.648.495.89.735 1.904.693 2.925a5.152 5.152 0 0 1-1.773 4.272 8.207 8.207 0 0 1-5.288 1.437H97.16zm22.5 0h-5.199V34.747h5.2v20.414z"/>
            <path fill="#0083C1" fill-rule="nonzero" d="M140.08 54.367a13.71 13.71 0 0 1-2.97.885c-1.166.217-2.35.324-3.536.321a10.854 10.854 0 0 1-7.922-2.794 10.134 10.134 0 0 1-2.882-7.589 10.619 10.619 0 0 1 3.02-7.76 10.16 10.16 0 0 1 7.576-3.015 11.542 11.542 0 0 1 6.408 1.93l-2.13 4.905a11.897 11.897 0 0 0-2.307-1.055 7.015 7.015 0 0 0-2.09-.332 4.972 4.972 0 0 0-3.743 1.508 5.28 5.28 0 0 0-1.466 3.84 4.742 4.742 0 0 0 1.357 3.517 4.705 4.705 0 0 0 3.486 1.357c.349.001.697-.03 1.04-.09.338-.058.67-.149.99-.272v-5.025h5.2v9.75l-.03-.08zm6.626-6.413l4.397-3.226a1.868 1.868 0 0 0-.663-.422 2.472 2.472 0 0 0-.862-.13c-.787 0-1.538.335-2.07.924a3.038 3.038 0 0 0-.881 2.13c-.01.118-.01.236 0 .353.01.125.03.25.06.371h.02zm8.765 5.79c-.846.552-1.767.976-2.734 1.256-.966.278-1.966.417-2.97.413a7.21 7.21 0 0 1-5.358-2.061 7.286 7.286 0 0 1-2.05-5.357 7.63 7.63 0 0 1 2.149-5.478 7.069 7.069 0 0 1 5.288-2.232 6.472 6.472 0 0 1 4.04 1.327 7.48 7.48 0 0 1 2.516 3.699l-7.735 5.518c.246.103.502.18.763.231.294.055.592.082.891.08a5.87 5.87 0 0 0 2.417-.562 9.604 9.604 0 0 0 2.446-1.628l.376 4.794h-.04zm2.911 1.417V40.446h4.674v1.417a4.229 4.229 0 0 1 1.545-1.226 4.889 4.889 0 0 1 1.981-.412 3.863 3.863 0 0 1 3.13 1.266 5.7 5.7 0 0 1 1.06 3.72v9.92h-4.754v-7.79c.05-.6-.057-1.203-.307-1.749a1.172 1.172 0 0 0-1.06-.492c-.46-.02-.897.2-1.159.583a2.97 2.97 0 0 0-.396 1.688v7.76l-4.714.03zm18.985-7.207l4.397-3.226a1.71 1.71 0 0 0-.664-.422 2.472 2.472 0 0 0-.861-.13 2.813 2.813 0 0 0-2.07.924 3.038 3.038 0 0 0-.881 2.13c-.01.118-.01.236 0 .353.01.125.03.25.059.371h.02zm8.764 5.79c-.842.552-1.76.975-2.723 1.256-.983.28-2 .42-3.02.413a7.21 7.21 0 0 1-5.358-2.061 7.276 7.276 0 0 1-2.04-5.357 7.589 7.589 0 0 1 2.148-5.478 7.04 7.04 0 0 1 5.279-2.232 6.472 6.472 0 0 1 4.04 1.327 7.41 7.41 0 0 1 2.516 3.699l-7.735 5.518c.25.103.509.18.773.231.29.055.586.082.881.08a5.87 5.87 0 0 0 2.417-.562 9.821 9.821 0 0 0 2.456-1.628l.366 4.794zm2.912 1.417V40.446h4.753v1.518a3.427 3.427 0 0 1 1.278-1.206 4.422 4.422 0 0 1 1.891-.443v5.026h-.564a2.572 2.572 0 0 0-1.98.714 2.882 2.882 0 0 0-.674 2.01v7.036l-4.704.06zm15.894-3.538c.403.004.79-.16 1.07-.452a1.57 1.57 0 0 0 0-2.191 1.475 1.475 0 0 0-1.07-.463 1.397 1.397 0 0 0-1.05.463 1.52 1.52 0 0 0-.445 1.095 1.5 1.5 0 0 0 .436 1.096c.275.295.66.459 1.06.452zm1.635 3.538v-1.005c-.398.408-.873.73-1.397.945a4.408 4.408 0 0 1-1.683.312 4.296 4.296 0 0 1-3.318-1.388 5.132 5.132 0 0 1-1.278-3.628 4.935 4.935 0 0 1 1.407-3.679 5.057 5.057 0 0 1 3.723-1.387c.362.005.722.059 1.07.16a5.43 5.43 0 0 1 1.08.443.796.796 0 0 0 0-.16v-.252c.054-.5-.167-.99-.575-1.276a4.398 4.398 0 0 0-2.13-.362c-.603 0-1.178 0-1.703.06-.524.06-.99.09-1.495.16l.565-3.386c.713-.101 1.376-.181 1.98-.222.604-.04 1.208-.07 1.763-.07 2.298 0 3.882.362 4.734 1.106.851.743 1.277 2.11 1.277 4.15v9.48h-4.02zm6.932 0V34.747h4.753v20.414h-4.753z"/>
            <path fill="#0083C1" d="M54.734 45.844c2.603 0 4.803 1.958 5.143 4.577.341 2.62-1.282 5.09-3.796 5.776v15.529c10.964-.738 19.377-10.168 19.013-21.314-.363-11.147-9.371-19.992-20.36-19.992-10.988 0-19.996 8.845-20.36 19.992-.363 11.146 8.05 20.576 19.013 21.314v-15.53c-2.513-.686-4.136-3.156-3.796-5.775.341-2.619 2.54-4.576 5.143-4.577z"/>
        </g>
    </g>
</svg>
