<svg xmlns="http://www.w3.org/2000/svg" xmlns:xlink="http://www.w3.org/1999/xlink" width="223" height="50" viewBox="0 0 223 50">
    <defs>
        <rect id="b" width="383" height="599" x="937" y="609" rx="6"/>
        <filter id="a" width="101.8%" height="101.2%" x="-.9%" y="-.4%" filterUnits="objectBoundingBox">
            <feOffset dy="1" in="SourceAlpha" result="shadowOffsetOuter1"/>
            <feGaussianBlur in="shadowOffsetOuter1" result="shadowBlurOuter1" stdDeviation="1"/>
            <feColorMatrix in="shadowBlurOuter1" values="0 0 0 0 0 0 0 0 0 0 0 0 0 0 0 0 0 0 0.163243007 0"/>
        </filter>
    </defs>
    <g fill="none" fill-rule="evenodd">
        <path fill="#FFF" d="M-967-687H473v13063H-967z"/>
        <g transform="translate(-967 -687)">
            <use fill="#000" filter="url(#a)" xlink:href="#b"/>
            <use fill="#FFF" xlink:href="#b"/>
        </g>
        <path fill="#100F14" fill-rule="nonzero" stroke="#100F14" stroke-width=".664" d="M61.15 47.52v-7.036h.825v7.036h-.824zm16.108 0v-7.264h.108l4.708 5.517v-5.29h.812v7.276h-.108l-4.707-5.516v5.277h-.813zm20.469-1.28c.378.233.778.43 1.195.586.291.104.598.16.908.167.387.024.77-.095 1.075-.335a1.197 1.197 0 0 0 .108-1.711 3.584 3.584 0 0 0-1.088-.694l-.49-.215a3.143 3.143 0 0 1-1.195-.862 1.773 1.773 0 0 1-.394-1.125 1.664 1.664 0 0 1 .562-1.292c.41-.345.934-.524 1.47-.503.294.004.587.044.872.12.285.082.559.203.812.359v.897a3.738 3.738 0 0 0-.98-.478 2.315 2.315 0 0 0-.836-.168 1.349 1.349 0 0 0-.896.288.934.934 0 0 0-.335.753c0 .283.112.554.31.754.292.274.632.49 1.005.634l.501.216c.466.202.876.514 1.195.91a2 2 0 0 1 .419 1.196 1.856 1.856 0 0 1-.622 1.448c-.45.389-1.031.59-1.625.562a3.58 3.58 0 0 1-.98-.132 4.775 4.775 0 0 1-1.027-.394l-.072-.994.108.012zm19.93-5.756V44.6a2.731 2.731 0 0 0 .502 1.783c.374.413.915.633 1.47.598a1.755 1.755 0 0 0 1.458-.61c.37-.522.547-1.156.502-1.795v-4.092h.752v4.26c.05.811-.21 1.611-.728 2.237a2.508 2.508 0 0 1-1.984.814 2.674 2.674 0 0 1-2.067-.79 3.162 3.162 0 0 1-.741-2.237V40.52l.836-.036zm19.86 7.036v-7.036h1.481a3.998 3.998 0 0 1 2.247.526c.504.337.795.914.764 1.52.012.484-.168.953-.501 1.304-.35.382-.825.628-1.339.694l2.557 2.992h-1.051l-2.45-2.884h-.884v2.884h-.824zm.824-3.53h.717a2.84 2.84 0 0 0 1.577-.371c.356-.234.56-.64.538-1.065a1.197 1.197 0 0 0-.538-1.053 3.45 3.45 0 0 0-1.72-.335h-.574v2.824zm19.716 1.065h2.724l-1.35-3.1-1.374 3.1zm-1.96 2.465l3.286-7.18h.108l3.274 7.18h-.908l-.789-1.783h-3.322l-.776 1.783h-.873zm20.875 0v-7.264h.084l4.708 5.517v-5.29h.812v7.276h-.107l-4.708-5.516v5.277h-.789zm25.977-.455a3.475 3.475 0 0 1-1.004.514c-.354.121-.725.182-1.099.18a3.473 3.473 0 0 1-1.195-.203 3.59 3.59 0 0 1-2.007-1.867 4.133 4.133 0 0 1-.347-1.687 3.7 3.7 0 0 1 1.016-2.68 3.32 3.32 0 0 1 2.533-1.078c.357 0 .712.057 1.052.168.358.114.697.283 1.003.503l-.095.873a3.584 3.584 0 0 0-.956-.598 2.757 2.757 0 0 0-.992-.192 2.52 2.52 0 0 0-1.948.85 3.402 3.402 0 0 0 0 4.284 2.472 2.472 0 0 0 1.924.85c.375.003.746-.075 1.087-.228a4.217 4.217 0 0 0 1.064-.67l-.06.981h.024zm14.721.455v-7.036h3.86v.67h-3.047v2.393h2.628v.718h-2.628v2.56h3.083v.754l-3.896-.06z"/>
        <path fill="#898D91" fill-rule="nonzero" d="M222.964 36.044H60.972v-1.053h161.992v1.053z"/>
        <path fill="#100F14" fill-rule="nonzero" d="M60.673 30.026l-.18-6.69c.444.183.9.334 1.363.455a5 5 0 0 0 1.195.156 2.555 2.555 0 0 0 1.708-.55c.427-.323.675-.83.67-1.365 0-.717-.598-1.627-1.805-2.728a29.788 29.788 0 0 1-.944-.897 9.31 9.31 0 0 1-1.9-2.68 7.188 7.188 0 0 1-.609-2.968 6.993 6.993 0 0 1 2.282-5.373 8.357 8.357 0 0 1 5.975-2.106c.715-.003 1.43.045 2.139.144.658.093 1.307.25 1.935.467v5.983a8.967 8.967 0 0 0-1.47-.61 4.475 4.475 0 0 0-1.194-.192 2.912 2.912 0 0 0-1.828.502 1.664 1.664 0 0 0-.634 1.4c0 .694.574 1.484 1.745 2.394l1.075.897a8.506 8.506 0 0 1 2.14 2.824 7.87 7.87 0 0 1 .74 3.398 7.184 7.184 0 0 1-2.39 5.72 9.98 9.98 0 0 1-6.691 2.07c-.586 0-1.195 0-1.697-.096s-1.052-.12-1.553-.215l-.072.06zm21.819-14.898h1.111a3.76 3.76 0 0 0 2.127-.478 1.64 1.64 0 0 0 .693-1.46 1.928 1.928 0 0 0-.645-1.64 3.58 3.58 0 0 0-2.175-.502h-1.111v4.08zm0 9.25h1.29a3.282 3.282 0 0 0 2.032-.515 1.82 1.82 0 0 0 .68-1.555 2.155 2.155 0 0 0-.704-1.771 3.33 3.33 0 0 0-2.151-.575h-1.195v4.44l.048-.024zm-6.285 5.576V5.65h8.113a9.812 9.812 0 0 1 6.237 1.711 5.987 5.987 0 0 1 2.151 4.978 6.157 6.157 0 0 1-.789 3.23 5.834 5.834 0 0 1-2.461 2.143 4.637 4.637 0 0 1 2.473 1.962 6.529 6.529 0 0 1 .837 3.482 6.095 6.095 0 0 1-2.14 5.086 10.003 10.003 0 0 1-6.38 1.71h-8.041zm27.148 0H97.08V5.65h6.274v24.303z"/>
        <path fill="#0083C1" fill-rule="nonzero" d="M127.993 29.009a16.71 16.71 0 0 1-3.584 1.053 23.28 23.28 0 0 1-4.266.382c-3.501.206-6.94-.991-9.56-3.326a11.975 11.975 0 0 1-3.476-9.034 12.55 12.55 0 0 1 3.644-9.238 12.346 12.346 0 0 1 9.14-3.59 14.062 14.062 0 0 1 7.732 2.298l-2.57 5.84a14.448 14.448 0 0 0-2.783-1.257 8.568 8.568 0 0 0-2.521-.395 6.042 6.042 0 0 0-4.517 1.795 6.239 6.239 0 0 0-1.769 4.57 5.604 5.604 0 0 0 1.637 4.189 5.72 5.72 0 0 0 4.206 1.615c.421.001.84-.035 1.255-.108a6.397 6.397 0 0 0 1.195-.323v-5.983h6.273v11.607l-.036-.095zm7.994-7.635l5.305-3.84a2.258 2.258 0 0 0-.8-.503 3.02 3.02 0 0 0-1.04-.156c-.95.001-1.855.4-2.497 1.101a3.592 3.592 0 0 0-1.063 2.537c-.012.14-.012.28 0 .419.013.149.037.297.071.442h.024zm10.575 6.893a12.395 12.395 0 0 1-3.298 1.495c-1.166.331-2.373.496-3.585.491a8.764 8.764 0 0 1-6.464-2.453 8.61 8.61 0 0 1-2.473-6.378 9.017 9.017 0 0 1 2.592-6.521 8.585 8.585 0 0 1 6.381-2.657 7.879 7.879 0 0 1 4.875 1.58 8.903 8.903 0 0 1 3.035 4.403l-9.332 6.57c.297.122.605.214.92.275.355.065.715.097 1.076.096a7.161 7.161 0 0 0 2.915-.67 11.6 11.6 0 0 0 2.952-1.939l.454 5.708h-.048zm3.513 1.687V12.436h5.64v1.687a5.091 5.091 0 0 1 1.864-1.46 5.967 5.967 0 0 1 2.39-.49 4.693 4.693 0 0 1 3.776 1.507 6.72 6.72 0 0 1 1.278 4.428v11.81h-5.735v-9.274a4.121 4.121 0 0 0-.37-2.082 1.421 1.421 0 0 0-1.28-.586 1.612 1.612 0 0 0-1.397.694 3.498 3.498 0 0 0-.478 2.01v9.238l-5.688.036zm22.906-8.58l5.305-3.84a2.067 2.067 0 0 0-.8-.503 3.02 3.02 0 0 0-1.04-.156 3.415 3.415 0 0 0-2.497 1.101 3.592 3.592 0 0 0-1.063 2.537c-.012.14-.012.28 0 .419.013.149.037.297.071.442h.024zm10.575 6.893a12.323 12.323 0 0 1-3.286 1.495 13.126 13.126 0 0 1-3.644.491 8.764 8.764 0 0 1-6.465-2.453 8.598 8.598 0 0 1-2.461-6.378 8.97 8.97 0 0 1 2.593-6.521 8.55 8.55 0 0 1 6.368-2.657 7.879 7.879 0 0 1 4.876 1.58 8.819 8.819 0 0 1 3.035 4.403l-9.333 6.57c.301.122.613.214.932.275.351.065.707.097 1.064.096a7.161 7.161 0 0 0 2.915-.67 11.864 11.864 0 0 0 2.964-1.939l.442 5.708zm3.513 1.687V12.436h5.735v1.807c.381-.605.912-1.1 1.542-1.436a5.395 5.395 0 0 1 2.282-.527v5.983h-.681a3.128 3.128 0 0 0-2.39.85 3.401 3.401 0 0 0-.812 2.393v8.376l-5.676.072zm19.178-4.212a1.78 1.78 0 0 0 1.29-.539 1.82 1.82 0 0 0 .538-1.304c0-.489-.194-.957-.538-1.304a1.791 1.791 0 0 0-1.29-.55 1.696 1.696 0 0 0-1.267.55c-.35.343-.543.814-.537 1.304-.012.489.178.961.525 1.304a1.72 1.72 0 0 0 1.279.539zm1.972 4.212v-1.197a5.018 5.018 0 0 1-1.685 1.125 5.382 5.382 0 0 1-2.032.371 5.218 5.218 0 0 1-4.002-1.651 6.06 6.06 0 0 1-1.542-4.32 5.832 5.832 0 0 1 1.697-4.38 6.149 6.149 0 0 1 4.493-1.65c.436.005.87.07 1.29.19.452.13.888.306 1.303.527a.935.935 0 0 0 0-.191v-.3c.066-.595-.2-1.179-.693-1.519a5.37 5.37 0 0 0-2.57-.43c-.728 0-1.421 0-2.055.071-.633.072-1.195.108-1.804.191l.681-4.032c.86-.12 1.661-.215 2.39-.263a33.203 33.203 0 0 1 2.127-.084c2.772 0 4.684.43 5.711 1.316 1.028.886 1.542 2.513 1.542 4.942v11.284h-4.851zm8.364 0V5.65h5.735v24.303h-5.735z"/>
        <path fill="#0083C1" d="M25.017 18.862a6.264 6.264 0 0 1 6.206 5.449 6.27 6.27 0 0 1-4.58 6.875v18.488C39.87 48.796 50.02 37.569 49.582 24.3 49.144 11.03 38.275.5 25.017.5S.89 11.03.452 24.3c-.439 13.27 9.711 24.496 22.94 25.374V31.186a6.27 6.27 0 0 1-4.58-6.875 6.264 6.264 0 0 1 6.205-5.45z"/>
    </g>
</svg>
