<svg id="Layer_1" data-name="Layer 1" xmlns="http://www.w3.org/2000/svg" viewBox="0 0 213.37 65.17"><defs><style>.cls-1{fill:#fff;stroke:#231f20;stroke-width:0.5px;}.cls-1,.cls-2{stroke-miterlimit:2.61;}.cls-1,.cls-6{fill-rule:evenodd;}.cls-2,.cls-4{fill:#100f14;}.cls-2{stroke:#100f14;stroke-width:0.4px;}.cls-3{fill:#898d91;}.cls-5,.cls-6{fill:#0083c1;}</style></defs><title>SBI Logo</title><path class="cls-1" d="M208,364.25H403.37a8.78,8.78,0,0,1,8.75,8.76v47.15a8.78,8.78,0,0,1-8.75,8.76H208a8.78,8.78,0,0,1-8.76-8.76V373a8.78,8.78,0,0,1,8.76-8.76Z" transform="translate(-199 -364)"/><path class="cls-2" d="M262,415.32v-5.88h.69v5.88Zm13.48,0h0v-6.07h.09l3.94,4.61v-4.42h.68v6.08h-.09l-3.94-4.61v4.41Zm17.13-1.07h0a5.79,5.79,0,0,0,1,.49,2.41,2.41,0,0,0,.76.14,1.33,1.33,0,0,0,.9-.28,1,1,0,0,0,.09-1.43,3,3,0,0,0-.91-.58l-.41-.18a2.63,2.63,0,0,1-1-.72,1.48,1.48,0,0,1-.33-.94,1.39,1.39,0,0,1,.47-1.08,1.8,1.8,0,0,1,1.23-.42,3,3,0,0,1,.73.1,2.76,2.76,0,0,1,.68.3v.75A3.13,3.13,0,0,0,295,410a1.94,1.94,0,0,0-.7-.14,1.13,1.13,0,0,0-.75.24.78.78,0,0,0-.28.63.89.89,0,0,0,.26.63,2.59,2.59,0,0,0,.84.53l.42.18a2.63,2.63,0,0,1,1,.76,1.67,1.67,0,0,1,.35,1,1.55,1.55,0,0,1-.52,1.21,1.94,1.94,0,0,1-1.36.47,3,3,0,0,1-.82-.11,4,4,0,0,1-.86-.33l-.06-.83Zm16.68-4.81h0v3.44a2.28,2.28,0,0,0,.42,1.49,1.53,1.53,0,0,0,1.23.5,1.47,1.47,0,0,0,1.22-.51,2.31,2.31,0,0,0,.42-1.5v-3.42h.63V413a2.67,2.67,0,0,1-.61,1.87,2.1,2.1,0,0,1-1.66.68,2.24,2.24,0,0,1-1.73-.66,2.64,2.64,0,0,1-.62-1.87v-3.55Zm16.62,5.88h0v-5.88h1.24a3.35,3.35,0,0,1,1.88.44,1.44,1.44,0,0,1,.64,1.27,1.53,1.53,0,0,1-.42,1.09,1.84,1.84,0,0,1-1.12.58l2.14,2.5h-.88l-2.05-2.41h-.74v2.41Zm.69-2.95h.6a2.38,2.38,0,0,0,1.32-.31,1,1,0,0,0,.45-.89,1,1,0,0,0-.45-.88,2.89,2.89,0,0,0-1.44-.28h-.48v2.36Zm16.5.89h2.28l-1.13-2.59-1.15,2.59Zm-1.64,2.06h0l2.75-6h.09l2.74,6h-.76l-.66-1.49h-2.78l-.65,1.49Zm17.47,0h0v-6.07H359l3.94,4.61v-4.42h.68v6.08h-.09l-3.94-4.61v4.41Zm21.74-.38h0a2.91,2.91,0,0,1-.84.43,2.82,2.82,0,0,1-.92.15,2.91,2.91,0,0,1-1-.17,2.94,2.94,0,0,1-.84-.48,3,3,0,0,1-.84-1.08,3.45,3.45,0,0,1-.29-1.41,3.09,3.09,0,0,1,.85-2.24,2.78,2.78,0,0,1,2.12-.9,2.84,2.84,0,0,1,.88.14,3,3,0,0,1,.84.42l-.08.73a3,3,0,0,0-.8-.5,2.31,2.31,0,0,0-.83-.16,2.11,2.11,0,0,0-1.63.71,2.84,2.84,0,0,0,0,3.58,2.07,2.07,0,0,0,1.61.71,2.18,2.18,0,0,0,.91-.19,3.53,3.53,0,0,0,.89-.56l-.05.82Zm12.32.38h0v-5.88h3.23V410h-2.55V412h2.2v.6h-2.2v2.14h2.58v.63Z" transform="translate(-199 -364)"/><polygon class="cls-3" points="198.42 41.73 62.85 41.73 62.85 40.85 198.42 40.85 198.42 41.73 198.42 41.73"/><path class="cls-4" d="M261.6,400.7l-.15-5.59a9,9,0,0,0,1.14.38,4.19,4.19,0,0,0,1,.13,2.14,2.14,0,0,0,1.43-.46,1.41,1.41,0,0,0,.56-1.14c0-.6-.5-1.36-1.51-2.28-.35-.32-.61-.57-.79-.75a7.78,7.78,0,0,1-1.59-2.24,6,6,0,0,1-.51-2.48,5.84,5.84,0,0,1,1.91-4.49,7,7,0,0,1,5-1.76,12.5,12.5,0,0,1,1.79.12,8.7,8.7,0,0,1,1.62.39v5a7.51,7.51,0,0,0-1.23-.51,3.75,3.75,0,0,0-1-.16,2.44,2.44,0,0,0-1.53.42,1.39,1.39,0,0,0-.53,1.17c0,.58.48,1.24,1.46,2l.9.75a7.11,7.11,0,0,1,1.79,2.36,6.57,6.57,0,0,1,.62,2.84,6,6,0,0,1-2,4.78,8.36,8.36,0,0,1-5.6,1.73c-.49,0-1,0-1.42-.08s-.88-.1-1.3-.18Zm18.26-12.45h.93a3.15,3.15,0,0,0,1.78-.4,1.37,1.37,0,0,0,.58-1.22,1.61,1.61,0,0,0-.54-1.37,3,3,0,0,0-1.82-.42h-.93v3.41Zm0,7.73h1.08a2.75,2.75,0,0,0,1.7-.43,1.52,1.52,0,0,0,.57-1.3,1.8,1.8,0,0,0-.59-1.48,2.79,2.79,0,0,0-1.8-.48h-1V396Zm-5.26,4.66h0V380.33h6.79a8.22,8.22,0,0,1,5.22,1.43,5,5,0,0,1,1.8,4.16,5.14,5.14,0,0,1-.66,2.7,4.88,4.88,0,0,1-2.06,1.79,3.88,3.88,0,0,1,2.07,1.64,5.45,5.45,0,0,1,.7,2.91,5.09,5.09,0,0,1-1.79,4.25,8.38,8.38,0,0,1-5.34,1.43Zm22.72,0h-5.25V380.33h5.25v20.31Z" transform="translate(-199 -364)"/><path class="cls-5" d="M317.94,399.85a14,14,0,0,1-3,.88,19.51,19.51,0,0,1-3.57.32,11.06,11.06,0,0,1-8-2.78,10,10,0,0,1-2.91-7.55,10.48,10.48,0,0,1,3.05-7.72,10.34,10.34,0,0,1,7.65-3,11.78,11.78,0,0,1,6.47,1.92l-2.15,4.88a12.1,12.1,0,0,0-2.33-1.05,7.18,7.18,0,0,0-2.11-.33,5.06,5.06,0,0,0-3.78,1.5,5.21,5.21,0,0,0-1.48,3.82,4.68,4.68,0,0,0,1.37,3.5,4.79,4.79,0,0,0,3.52,1.35,6,6,0,0,0,1.05-.09,5.36,5.36,0,0,0,1-.27v-5h5.25v9.7Zm6.69-6.38h0l4.44-3.21a1.89,1.89,0,0,0-.67-.42,2.53,2.53,0,0,0-.87-.13,2.84,2.84,0,0,0-2.09.92,3,3,0,0,0-.89,2.12,2.11,2.11,0,0,0,0,.35,2.58,2.58,0,0,0,.06.37Zm8.85,5.76h0a10.38,10.38,0,0,1-2.76,1.25,10.84,10.84,0,0,1-3,.41,7.34,7.34,0,0,1-5.41-2.05,7.19,7.19,0,0,1-2.07-5.33,7.53,7.53,0,0,1,2.17-5.45,7.19,7.19,0,0,1,5.34-2.22,6.6,6.6,0,0,1,4.08,1.32,7.44,7.44,0,0,1,2.54,3.68l-7.81,5.49a4,4,0,0,0,.77.23,4.94,4.94,0,0,0,.9.08,6,6,0,0,0,2.44-.56,9.71,9.71,0,0,0,2.47-1.62l.38,4.77Zm2.94,1.41h0V386h4.72v1.41a4.26,4.26,0,0,1,1.56-1.22,5,5,0,0,1,2-.41,3.93,3.93,0,0,1,3.16,1.26,5.61,5.61,0,0,1,1.07,3.7v9.87h-4.8v-7.75a3.44,3.44,0,0,0-.31-1.74,1.19,1.19,0,0,0-1.07-.49,1.35,1.35,0,0,0-1.17.58,2.92,2.92,0,0,0-.4,1.68v7.72Zm19.17-7.17h0l4.44-3.21a1.73,1.73,0,0,0-.67-.42,2.53,2.53,0,0,0-.87-.13,2.86,2.86,0,0,0-2.09.92,3,3,0,0,0-.89,2.12,2.11,2.11,0,0,0,0,.35,2.58,2.58,0,0,0,.06.37Zm8.85,5.76h0a10.32,10.32,0,0,1-2.75,1.25,11,11,0,0,1-3.05.41,7.34,7.34,0,0,1-5.41-2.05,7.18,7.18,0,0,1-2.06-5.33,7.49,7.49,0,0,1,2.17-5.45,7.16,7.16,0,0,1,5.33-2.22,6.6,6.6,0,0,1,4.08,1.32,7.37,7.37,0,0,1,2.54,3.68l-7.81,5.49a4.12,4.12,0,0,0,.78.23,4.74,4.74,0,0,0,.89.08,6,6,0,0,0,2.44-.56,9.93,9.93,0,0,0,2.48-1.62l.37,4.77Zm2.94,1.41h0V386h4.8v1.51a3.44,3.44,0,0,1,1.29-1.2,4.52,4.52,0,0,1,1.91-.44l0,5h-.57a2.62,2.62,0,0,0-2,.71,2.84,2.84,0,0,0-.68,2v7Zm16.05-3.52h0a1.49,1.49,0,0,0,1.08-.45,1.52,1.52,0,0,0,.45-1.09,1.55,1.55,0,0,0-.45-1.09,1.5,1.5,0,0,0-1.08-.46,1.42,1.42,0,0,0-1.06.46,1.5,1.5,0,0,0-.45,1.09,1.48,1.48,0,0,0,.44,1.09,1.44,1.44,0,0,0,1.07.45Zm1.65,3.52h0v-1a4.2,4.2,0,0,1-1.41.94,4.51,4.51,0,0,1-1.7.31,4.37,4.37,0,0,1-3.35-1.38,5.06,5.06,0,0,1-1.29-3.61,4.87,4.87,0,0,1,1.42-3.66,5.15,5.15,0,0,1,3.76-1.38,4.09,4.09,0,0,1,1.08.16,5.53,5.53,0,0,1,1.09.44.78.78,0,0,0,0-.16v-.25a1.36,1.36,0,0,0-.58-1.27,4.5,4.5,0,0,0-2.15-.36c-.61,0-1.19,0-1.72.06s-1,.09-1.51.16l.57-3.37c.72-.1,1.39-.18,2-.22s1.22-.07,1.78-.07c2.32,0,3.92.36,4.78,1.1s1.29,2.1,1.29,4.13v9.43Zm7,0h0V380.33h4.8v20.31Z" transform="translate(-199 -364)"/><path class="cls-6" d="M231.76,391.37a5.24,5.24,0,0,1,1.36,10.3v15.45a20.57,20.57,0,1,0-2.72,0V401.67a5.24,5.24,0,0,1,1.36-10.3Z" transform="translate(-199 -364)"/></svg>