<svg xmlns="http://www.w3.org/2000/svg" xmlns:xlink="http://www.w3.org/1999/xlink" width="24" height="24" viewBox="0 0 24 24">
    <defs>
        <path id="a" d="M9 11H7v2h2v-2zm4 0h-2v2h2v-2zm4 0h-2v2h2v-2zm2-7h-1V2h-2v2H8V2H6v2H5c-1.11 0-1.99.9-1.99 2L3 20a2 2 0 0 0 2 2h14c1.1 0 2-.9 2-2V6c0-1.1-.9-2-2-2zm0 16H5V9h14v11z"/>
    </defs>
    <g fill="none" fill-rule="evenodd">
        <path fill="#F3F5FB" d="M-967-147H473v704H-967z"/>
        <path fill="#AAA" d="M-306 31H24v1h-330z"/>
        <text fill="#000" font-family="SourceSansPro-Regular, Source Sans Pro" font-size="16" transform="translate(-306 -16)">
            <tspan x="0" y="33">15-Mar-1994</tspan>
        </text>
        <text fill="#AAA" fill-opacity=".54" font-family="SourceSansPro-Regular, Source Sans Pro" font-size="12" transform="translate(-306 -16)">
            <tspan x="0" y="12">Date of Birth</tspan>
        </text>
        <g>
            <g>
                <mask id="b" fill="#fff">
                    <use xlink:href="#a"/>
                </mask>
                <g fill="#000" mask="url(#b)">
                    <path d="M0 0h24v24H0z"/>
                </g>
            </g>
        </g>
    </g>
</svg>
