<svg xmlns="http://www.w3.org/2000/svg" xmlns:xlink="http://www.w3.org/1999/xlink" width="24" height="24" viewBox="0 0 24 24">
    <defs>
        <path id="a" d="M12 8c-2.21 0-4 1.79-4 4s1.79 4 4 4 4-1.79 4-4-1.79-4-4-4zm8.94 3A8.994 8.994 0 0 0 13 3.06V1h-2v2.06A8.994 8.994 0 0 0 3.06 11H1v2h2.06A8.994 8.994 0 0 0 11 20.94V23h2v-2.06A8.994 8.994 0 0 0 20.94 13H23v-2h-2.06zM12 19c-3.87 0-7-3.13-7-7s3.13-7 7-7 7 3.13 7 7-3.13 7-7 7z"/>
    </defs>
    <g fill="none" fill-rule="evenodd">
        <path fill="#F3F5FB" d="M-567-398H873v704H-567z"/>
        <path fill="#AAA" d="M-306 29H24v1h-330z"/>
        <text fill="#000" font-family="SourceSansPro-Regular, Source Sans Pro" font-size="16" transform="translate(-306 -18)">
            <tspan x="0" y="33">210012 - Ghaziabad</tspan>
        </text>
        <text fill="#AAA" fill-opacity=".54" font-family="SourceSansPro-Regular, Source Sans Pro" font-size="12" transform="translate(-306 -18)">
            <tspan x="0" y="12">City and Pincode</tspan>
        </text>
        <g>
            <g>
                <mask id="b" fill="#fff">
                    <use xlink:href="#a"/>
                </mask>
                <g fill="#000" mask="url(#b)">
                    <path d="M0 0h24v24H0z"/>
                </g>
            </g>
        </g>
    </g>
</svg>
