<svg xmlns="http://www.w3.org/2000/svg" xmlns:xlink="http://www.w3.org/1999/xlink" width="46" height="50" viewBox="0 0 46 50">
    <defs>
        <rect id="b" width="382" height="266" rx="12"/>
        <filter id="a" width="109.9%" height="114.3%" x="-5%" y="-6.4%" filterUnits="objectBoundingBox">
            <feOffset dy="2" in="SourceAlpha" result="shadowOffsetOuter1"/>
            <feGaussianBlur in="shadowOffsetOuter1" result="shadowBlurOuter1" stdDeviation="6"/>
            <feColorMatrix in="shadowBlurOuter1" values="0 0 0 0 0.2 0 0 0 0 0.2 0 0 0 0 0.2 0 0 0 0.12 0"/>
        </filter>
    </defs>
    <g fill="none" fill-rule="evenodd">
        <path fill="#FFF" d="M-697-1067H743v3785H-697z"/>
        <g transform="translate(-168 -31)">
            <use fill="#000" filter="url(#a)" xlink:href="#b"/>
            <use fill="#FFF" xlink:href="#b"/>
        </g>
        <path fill="#EA0B4B" fill-rule="nonzero" d="M45.92 15.2h-11.8v-2.4c0-2.647-2.117-4.8-4.72-4.8H15.24c-2.603 0-4.72 2.153-4.72 4.8v2.4h-11.8C-3.883 15.2-6 17.353-6 20v31.2c0 2.647 2.117 4.8 4.72 4.8h47.2c2.603 0 4.72-2.153 4.72-4.8V20c0-2.647-2.117-4.8-4.72-4.8zm-33.04-2.4c0-1.323 1.059-2.4 2.36-2.4H29.4c1.3 0 2.36 1.077 2.36 2.4v2.4H12.88v-2.4zm35.4 38.4c0 1.323-1.06 2.4-2.36 2.4h-47.2c-1.3 0-2.36-1.077-2.36-2.4V33.733a4.608 4.608 0 0 0 2.36.667H17.6V38c0 .663.528 1.2 1.18 1.2h7.08a1.19 1.19 0 0 0 1.18-1.2v-3.6h18.88c.864 0 1.663-.254 2.36-.667V51.2zM19.96 36.8V32h4.72v4.8h-4.72zm28.32-7.2c0 1.323-1.06 2.4-2.36 2.4H27.04v-1.2c0-.663-.528-1.2-1.18-1.2h-7.08a1.19 1.19 0 0 0-1.18 1.2V32H-1.28c-1.3 0-2.36-1.077-2.36-2.4V20c0-1.323 1.06-2.4 2.36-2.4h47.2c1.3 0 2.36 1.077 2.36 2.4v9.6z"/>
    </g>
</svg>
