<svg xmlns="http://www.w3.org/2000/svg" xmlns:xlink="http://www.w3.org/1999/xlink" width="57" height="68" viewBox="0 0 57 68">
    <defs>
        <rect id="b" width="382" height="266" rx="12"/>
        <filter id="a" width="109.9%" height="114.3%" x="-5%" y="-6.4%" filterUnits="objectBoundingBox">
            <feOffset dy="2" in="SourceAlpha" result="shadowOffsetOuter1"/>
            <feGaussianBlur in="shadowOffsetOuter1" result="shadowBlurOuter1" stdDeviation="6"/>
            <feColorMatrix in="shadowBlurOuter1" values="0 0 0 0 0.2 0 0 0 0 0.2 0 0 0 0 0.2 0 0 0 0.12 0"/>
        </filter>
    </defs>
    <g fill="none" fill-rule="evenodd">
        <path fill="#FFF" d="M-283-1060h1440v3785H-283z"/>
        <g transform="translate(-163 -24)">
            <use fill="#000" filter="url(#a)" xlink:href="#b"/>
            <use fill="#FFF" xlink:href="#b"/>
        </g>
        <path fill="#EA0B4B" fill-rule="nonzero" d="M56.355 31.452a4.035 4.035 0 0 0-2.586-1.884v-5.865C53.769 10.644 42.42 0 28.474 0 14.528 0 3.18 10.644 3.18 23.703v5.865a4.032 4.032 0 0 0-2.573 1.934 5.233 5.233 0 0 0-.605 2.604v12.907c-.025.9.183 1.792.605 2.592a4.435 4.435 0 0 0 4.207 2.136h1.994c.082 1.337 1.21 2.38 2.574 2.377h2.264c1.421 0 2.573-1.132 2.573-2.529V29.277c0-1.396-1.152-2.528-2.573-2.528H9.317c-1.42 0-2.573 1.132-2.573 2.528v.102H5.702v-5.676c0-11.681 10.19-21.175 22.721-21.175s22.721 9.494 22.721 21.175v5.676h-1.042v-.102c0-1.396-1.152-2.528-2.573-2.528h-2.162c-1.42 0-2.573 1.132-2.573 2.528v22.4c.031 1.266 1.01 2.314 2.29 2.453A8.157 8.157 0 0 1 43 58.441c-2.02 2.2-5.314 3.464-9.752 3.792v-.556c-.07-1.456-1.322-2.585-2.805-2.528h-5.52c-1.482-.057-2.735 1.072-2.804 2.528v3.793c.07 1.456 1.322 2.585 2.804 2.528h5.571c1.483.057 2.736-1.072 2.805-2.528v-.708c5.21-.342 9.148-1.884 11.657-4.602a10.7 10.7 0 0 0 2.817-6.042c1.299-.074 2.337-1.089 2.419-2.364h1.994a4.435 4.435 0 0 0 4.207-2.137c.422-.799.63-1.69.605-2.591v-12.92a5.235 5.235 0 0 0-.643-2.654zM9.382 49.314V31.856a2.479 2.479 0 0 0 0-.442v-2.086l2.161-.063v22.337H9.382v-2.288zM6.808 31.793v17.42H4.814c-1.492 0-1.84-.62-1.955-.834A2.852 2.852 0 0 1 2.576 47V34.106a2.85 2.85 0 0 1 .27-1.39c.116-.202.463-.834 1.955-.834l2.007-.089zm23.97 31.73v1.732a.348.348 0 0 1-.284.177h-5.57a1.444 1.444 0 0 1-.206 0V61.74a.352.352 0 0 1 .257-.075H30.777v1.858zM47.58 31.856v19.746h-2.174V29.277h2.213l-.039 2.58zm6.51 16.548c-.116.202-.463.834-1.955.834h-1.982V31.907h1.982c1.492 0 1.84.62 1.955.834.208.43.306.903.283 1.378v12.907c.022.475-.075.948-.283 1.378z"/>
    </g>
</svg>
