<svg xmlns="http://www.w3.org/2000/svg" width="64" height="106" viewBox="0 0 64 106">
    <g fill="none" fill-rule="evenodd">
        <path fill="#FFF" d="M-992-1549H448v3785H-992z"/>
        <path fill="#EA0B4B" d="M3.556 0h56.888C62.4 0 64 1.665 64 3.7v29.6c0 2.035-1.6 3.7-3.556 3.7H3.556C1.6 37 0 35.335 0 33.3V3.7C0 1.665 1.6 0 3.556 0z"/>
        <g fill="#FFF">
            <path fill-rule="nonzero" d="M39.205 6c-1.634 0-3.087 1.108-3.632 2.954l-.545 2.584h-9.26c-1.997 0-3.631 1.662-3.631 3.693v.738l1.088 5.539c.364 1.66 1.816 2.954 3.632 2.954h6.174c1.634 0 3.087-1.108 3.632-2.954l2.542-11.816h4.358V6h-4.358zM33.03 20.77h-6.174l-1.089-5.54h8.534l-1.27 5.54z"/>
            <path d="M25.405 26.308h3.631V30h-3.631zM32.668 26.308h3.631V30h-3.631z"/>
        </g>
        <path fill="#EFCCBF" d="M51.4 56.846H28V38.641C28 36.638 26.38 35 24.4 35h-1.8c-1.98 0-3.6 1.638-3.6 3.641v23.667h-5.4c-1.98 0-3.6 1.638-3.6 3.64v12.744l10.8 20.026V106h28.8v-7.282L55 85.974V60.487c0-2.003-1.62-3.64-3.6-3.64z"/>
        <path fill="#C9A8A3" d="M43.947 94L41 91.947l3.316-4.618V81H48v7.355zM20 99h29v7H20zM19 71l-3-9h3z"/>
    </g>
</svg>
