<svg xmlns="http://www.w3.org/2000/svg" width="30" height="48" viewBox="0 0 30 48">
    <g fill="none" fill-rule="evenodd">
        <path fill="#EA0B4B" d="M2.111 0H27.89c.886 0 1.611.765 1.611 1.7v13.6c0 .935-.725 1.7-1.611 1.7H2.11C1.225 17 .5 16.235.5 15.3V1.7C.5.765 1.225 0 2.111 0z"/>
        <g fill="#FFF">
            <path fill-rule="nonzero" d="M17.32 3c-.742 0-1.403.508-1.65 1.354l-.248 1.184h-4.21c-.907 0-1.65.762-1.65 1.693v.338l.495 2.539c.165.761.825 1.354 1.65 1.354h2.807c.743 0 1.403-.508 1.65-1.354l1.156-5.416h1.981V3h-1.98zm-2.806 6.77h-2.806l-.495-2.54h3.879l-.578 2.54z"/>
            <path d="M11.048 12.308h1.65V14h-1.65zM14.349 12.308h1.65V14h-1.65z"/>
        </g>
        <path fill="#EFCCBF" d="M22.9 25.846H12.5v-8.205c0-.903-.72-1.641-1.6-1.641h-.8c-.88 0-1.6.738-1.6 1.641v10.667H6.1c-.88 0-1.6.738-1.6 1.64v5.744l4.8 9.026V48h12.8v-3.282l2.4-5.744V27.487c0-.902-.72-1.64-1.6-1.64z"/>
        <path fill="#C9A8A3" d="M19.763 43l-1.263-.948 1.421-2.13V37H21.5v3.395zM9.5 45h13v3h-13zM8.5 32l-1-4h1z"/>
    </g>
</svg>
