<svg xmlns="http://www.w3.org/2000/svg" id="checked" viewBox="0 0 20.736 20.736">
    <defs>
        <style>
            .cls-1{fill:#2f9785}.cls-2{fill:#37a18e}.cls-3{fill:#f2f1ef}.cls-4{fill:#e6e5e3}
        </style>
    </defs>
    <path id="Path_98" d="M10.368 0A10.368 10.368 0 1 1 0 10.368 10.368 10.368 0 0 1 10.368 0z" class="cls-1" data-name="Path 98"/>
    <path id="Path_95" d="M249.415 114.609l-9.169 9.493.016 1.021h.421l9.931-8a10.544 10.544 0 0 0-1.199-2.514z" class="cls-2" data-name="Path 95" transform="translate(-230.364 -109.895)"/>
    <path id="Path_96" d="M111.082 57.037l-1.831-1.814a.656.656 0 0 0-.907 0l-7.825 8.084-3.386-3.337a.656.656 0 0 0-.907 0l-1.62 1.6a.636.636 0 0 0 0 .891l5.411 5.362a.891.891 0 0 0 1.069 0l10-9.882a.656.656 0 0 0-.004-.904z" class="cls-3" data-name="Path 96" transform="translate(-90.54 -52.776)"/>
    <path id="Path_97" d="M101.464 108.329l10-9.882a.636.636 0 0 0 0-.891l-.292-.275-10.255 10.077-5.67-5.524-.243.243a.636.636 0 0 0 0 .891l5.411 5.362a.658.658 0 0 0 .535.178.642.642 0 0 0 .514-.179z" class="cls-4" data-name="Path 97" transform="translate(-90.918 -93.278)"/>
</svg>
