<?xml version="1.0" encoding="UTF-8"?>
<svg width="76px" height="76px" viewBox="0 0 76 76" version="1.1" xmlns="http://www.w3.org/2000/svg" xmlns:xlink="http://www.w3.org/1999/xlink">
    <!-- Generator: Sketch 54.1 (76490) - https://sketchapp.com -->
    <title>ic copy</title>
    <desc>Created with Sketch.</desc>
    <g id="ic-copy" stroke="none" stroke-width="1" fill="none" fill-rule="evenodd">
        <g id="get-money" transform="translate(4.000000, 3.000000)" fill="#EA0B4B" fill-rule="nonzero">
            <path d="M66.3374194,42.6774194 C66.3091935,42.6068548 66.2668548,42.5504032 66.2245161,42.4939516 C64.4039516,40.25 61.1156452,39.9112903 58.8575806,41.7318548 C56.035,44.0322581 51.9281452,47.3487903 49.2608065,49.5080645 C47.3837903,51.0181452 45.0692742,51.8790323 42.6559677,51.9637097 L35.4301613,52.203629 C35.1337903,52.2177419 34.8656452,52.0625 34.7104032,51.8225806 L33.9059677,50.4395161 C33.7648387,50.2137097 33.7507258,49.9455645 33.863629,49.7056452 C33.9765323,49.4657258 34.1882258,49.296371 34.4422581,49.2540323 L41.9079839,47.8427419 C44.5329839,47.3487903 46.3676613,44.8649194 46.0712903,42.1693548 C45.7890323,39.5725806 43.5874194,37.625 40.9906452,37.625 C40.9200806,37.625 40.8354032,37.625 40.7366129,37.625 L30.7587903,37.2157258 C26.7789516,37.0745968 23.363629,37.8366935 19.3696774,39.7701613 L14.1479032,42.296371 C13.4140323,40.7721774 11.8757258,39.7983871 10.1821774,39.7983871 L4.41,39.7983871 C1.99669355,39.7842742 0.035,41.7318548 0.0208870968,44.1451613 L0.0208870968,65.6391129 C0.035,68.0524194 1.99669355,70 4.41,70 L10.1821774,70 C12.5954839,70 14.5430645,68.0524194 14.5571774,65.6391129 L14.5571774,64.1854839 L20.1035484,63.1693548 C21.8958871,62.9012097 23.0249194,62.8024194 24.9301613,62.8870968 L40.1015323,63.5927419 C45.5632258,63.8326613 50.9120161,62.0262097 55.1035484,58.5262097 L65.6176613,49.8044355 L65.6317742,49.7903226 C67.7345968,47.9979839 68.0450806,44.8508065 66.3374194,42.6774194 Z M11.7345968,65.6391129 C11.7345968,66.4858871 11.0430645,67.1774194 10.1962903,67.1774194 L4.38177419,67.1774194 C3.535,67.1774194 2.84346774,66.4858871 2.84346774,65.6391129 L2.84346774,44.1592742 C2.84346774,43.3125 3.535,42.6209677 4.38177419,42.6209677 L10.1962903,42.6209677 C11.0430645,42.6209677 11.7345968,43.3125 11.7345968,44.1592742 L11.7345968,65.6391129 Z M63.8112097,47.6310484 L53.3112097,56.3387097 C49.6559677,59.3870968 44.9845968,60.953629 40.2285484,60.7560484 L25.0571774,60.0504032 C22.926129,59.9516129 21.6277419,60.078629 19.6660484,60.3608871 C19.6519355,60.3608871 19.6378226,60.3608871 19.6237097,60.375 L14.5571774,61.3064516 L14.5571774,45.2177419 L20.5975,42.296371 C24.1539516,40.5745968 27.16,39.8971774 30.6458871,40.0241935 L40.6942742,40.4334677 C40.7507258,40.4334677 40.8212903,40.4334677 40.8777419,40.4334677 C40.8918548,40.4334677 40.9483065,40.4334677 40.9906452,40.4334677 C42.1479032,40.4475806 43.1358065,41.3084677 43.2769355,42.4657258 C43.4180645,43.6794355 42.5995161,44.8084677 41.3999194,45.0483871 L33.9341935,46.4596774 C31.9725,46.8266129 30.6882258,48.7318548 31.0551613,50.6935484 C31.1398387,51.1028226 31.2809677,51.4979839 31.4926613,51.8508065 L32.2970968,53.2197581 C32.9745161,54.3629032 34.2164516,55.0403226 35.5430645,54.9979839 L42.768871,54.7580645 C45.7890323,54.6451613 48.6962903,53.5584677 51.0531452,51.6814516 C53.7204839,49.5221774 57.8414516,46.2056452 60.6640323,43.9052419 C61.6801613,43.1149194 63.1337903,43.2419355 63.9946774,44.2016129 C64.0229032,44.2580645 64.0652419,44.3145161 64.1075806,44.3709677 C64.9120161,45.3447581 64.785,46.8125 63.8112097,47.6310484 Z" id="Shape"></path>
            <path d="M44.9422581,0 C34.7668548,0 26.4825806,8.28427419 26.4825806,18.4596774 C26.4825806,28.6350806 34.7668548,36.9334677 44.9422581,36.9334677 C55.1176613,36.9334677 63.4019355,28.6491935 63.4019355,18.4737903 C63.4019355,8.2983871 55.1176613,0 44.9422581,0 Z M44.956371,34.1108871 C36.3192742,34.1108871 29.3051613,27.1108871 29.3051613,18.4737903 C29.3051613,18.4737903 29.3051613,18.4737903 29.3051613,18.4596774 C29.3192742,9.83669355 36.3051613,2.83669355 44.9422581,2.82258065 C53.5793548,2.82258065 60.5934677,9.82258065 60.5934677,18.4596774 C60.5934677,27.0967742 53.5934677,34.1108871 44.956371,34.1108871 Z" id="Shape"></path>
            <path d="M50.4604032,14.1129032 L48.5692742,14.1129032 C48.4140323,13.4072581 48.1458871,12.7439516 47.7507258,12.1370968 L50.4604032,12.1370968 C51.2366129,12.1370968 51.8716935,11.5020161 51.8716935,10.7258065 C51.8716935,9.94959677 51.2366129,9.31451613 50.4604032,9.31451613 L39.4241129,9.31451613 C38.6479032,9.31451613 38.0128226,9.94959677 38.0128226,10.7258065 C38.0128226,11.5020161 38.6479032,12.1370968 39.4241129,12.1370968 L42.5854032,12.1370968 C43.9120161,12.1370968 45.0692742,12.983871 45.5914516,14.1129032 L39.4241129,14.1129032 C38.6479032,14.1129032 38.0128226,14.7479839 38.0128226,15.5241935 C38.0128226,16.3004032 38.6479032,16.9354839 39.4241129,16.9354839 L45.5914516,16.9354839 C45.4079839,17.2600806 45.1962903,17.5564516 44.9422581,17.8245968 C44.3071774,18.4455645 43.4604032,18.7842742 42.5854032,18.7701613 L39.4241129,18.7701613 C38.6337903,18.7842742 37.9987097,19.4193548 38.0128226,20.2096774 C38.0128226,20.5907258 38.1821774,20.9576613 38.4503226,21.2258065 L46.3394355,28.6915323 C46.9039516,29.2278226 47.7930645,29.1995968 48.3293548,28.6350806 C48.8656452,28.0705645 48.8374194,27.1814516 48.2729032,26.6451613 L42.9523387,21.6068548 C44.4483065,21.5221774 45.8595968,20.9012097 46.9180645,19.8427419 C47.7225,19.0383065 48.2870161,18.0362903 48.5692742,16.9354839 L50.4604032,16.9354839 C51.2366129,16.9354839 51.8716935,16.3004032 51.8716935,15.5241935 C51.8716935,14.7479839 51.2366129,14.1129032 50.4604032,14.1129032 Z" id="Path"></path>
        </g>
    </g>
</svg>