<svg xmlns="http://www.w3.org/2000/svg" id="Crop-Insurance" viewBox="0 0 20.613 39.096">
    <defs>
        <style>
            .cls-1{fill:#eb697c}
        </style>
    </defs>
    <g id="Group_16" data-name="Group 16">
        <g id="Group_15" data-name="Group 15">
            <path id="Path_6" d="M141.293 25.154a1.169 1.169 0 0 0-1.311-.244 22.358 22.358 0 0 0-5.179 2.784 3.374 3.374 0 0 0-1 2.079 2.773 2.773 0 0 0 .229 1.384l-1.818 1.816v-6.36l3.069-3.064a2.739 2.739 0 0 0 1.128.236 3.337 3.337 0 0 0 2.338-1 22.361 22.361 0 0 0 2.785-5.179 1.178 1.178 0 0 0-1.554-1.554 22.362 22.362 0 0 0-5.179 2.784 3.374 3.374 0 0 0-1 2.079 2.771 2.771 0 0 0 .229 1.384l-1.818 1.816v-6.237l3.068-3.064a2.739 2.739 0 0 0 1.128.236 3.336 3.336 0 0 0 2.338-1 22.361 22.361 0 0 0 2.785-5.179 1.178 1.178 0 0 0-1.554-1.554A22.359 22.359 0 0 0 134.8 10.1a3.373 3.373 0 0 0-1 2.079 2.772 2.772 0 0 0 .229 1.385l-1.818 1.816v-6a3.151 3.151 0 0 0 1.908-2.992 22.35 22.35 0 0 0-1.687-5.633 1.178 1.178 0 0 0-2.2 0 22.351 22.351 0 0 0-1.693 5.631 3.15 3.15 0 0 0 1.907 2.992v6l-1.818-1.815a2.773 2.773 0 0 0 .229-1.385 3.374 3.374 0 0 0-1-2.079 22.361 22.361 0 0 0-5.179-2.784 1.178 1.178 0 0 0-1.554 1.554 22.373 22.373 0 0 0 2.784 5.178 3.337 3.337 0 0 0 2.339 1 2.738 2.738 0 0 0 1.128-.236l3.069 3.064v6.236L128.63 22.3a2.773 2.773 0 0 0 .229-1.385 3.374 3.374 0 0 0-1-2.079 22.362 22.362 0 0 0-5.179-2.784 1.178 1.178 0 0 0-1.55 1.548 22.371 22.371 0 0 0 2.784 5.179 3.337 3.337 0 0 0 2.338 1 2.739 2.739 0 0 0 1.128-.236l3.069 3.064v6.36l-1.818-1.816a2.772 2.772 0 0 0 .229-1.384 3.374 3.374 0 0 0-1-2.079 22.359 22.359 0 0 0-5.179-2.784 1.178 1.178 0 0 0-1.554 1.554 22.372 22.372 0 0 0 2.784 5.178 3.374 3.374 0 0 0 2.08 1q.127.011.253.011a2.742 2.742 0 0 0 1.134-.241l3.069 3.064v1.851h-4.807a.885.885 0 0 0 0 1.769h8.686a.885.885 0 0 0 0-1.769h-2.109v-1.847l3.069-3.064a2.743 2.743 0 0 0 1.134.241c.084 0 .168 0 .253-.011a3.373 3.373 0 0 0 2.079-1 22.365 22.365 0 0 0 2.785-5.179 1.17 1.17 0 0 0-.244-1.307zm-5.723-4.087a1.628 1.628 0 0 1 .485-.981 16.321 16.321 0 0 1 3.21-1.763 16.315 16.315 0 0 1-1.764 3.21 1.265 1.265 0 0 1-1.7.257.906.906 0 0 1-.231-.724zm0-8.736a1.627 1.627 0 0 1 .485-.981 16.32 16.32 0 0 1 3.21-1.763A16.3 16.3 0 0 1 137.5 12.8a1.265 1.265 0 0 1-1.7.257.907.907 0 0 1-.23-.727zm-8.7.722a1.265 1.265 0 0 1-1.7-.257 16.338 16.338 0 0 1-1.764-3.21 16.318 16.318 0 0 1 3.21 1.763 1.627 1.627 0 0 1 .485.981.906.906 0 0 1-.232.722zm0 8.736a1.265 1.265 0 0 1-1.7-.257 16.338 16.338 0 0 1-1.764-3.21 16.319 16.319 0 0 1 3.21 1.763 1.627 1.627 0 0 1 .485.981.906.906 0 0 1-.232.722zm0 8.861a.906.906 0 0 1-.722.228 1.628 1.628 0 0 1-.982-.485 16.34 16.34 0 0 1-1.764-3.21 16.318 16.318 0 0 1 3.21 1.763 1.627 1.627 0 0 1 .485.981.907.907 0 0 1-.228.721zm4.464-22.877c-.554 0-1.023-.634-1.023-1.386a16.329 16.329 0 0 1 1.023-3.518 16.318 16.318 0 0 1 1.023 3.518c-.001.749-.47 1.384-1.024 1.384zm6.166 22.619a1.627 1.627 0 0 1-.981.485.821.821 0 0 1-.95-.95 1.628 1.628 0 0 1 .485-.981 16.32 16.32 0 0 1 3.21-1.763 16.319 16.319 0 0 1-1.764 3.209z" class="cls-1" data-name="Path 6" transform="translate(-121.027)"/>
        </g>
    </g>
    <g id="Group_18" data-name="Group 18" transform="translate(14.848 37.326)">
        <g id="Group_17" data-name="Group 17">
            <path id="Path_7" d="M316.626 488.827h-.267a.885.885 0 1 0 0 1.769h.267a.885.885 0 0 0 0-1.769z" class="cls-1" data-name="Path 7" transform="translate(-315.474 -488.827)"/>
        </g>
    </g>
</svg>
