<svg xmlns="http://www.w3.org/2000/svg" width="333" height="256" viewBox="0 0 333 256">
    <path fill="#FFF" fill-rule="evenodd" d="M119.021 124.694a10.767 10.767 0 0 1 5.88-9.288 10.723 10.723 0 0 1 10.951.735 10.774 10.774 0 0 1 4.59 9.992 154.744 154.744 0 0 0 15.312 82.239c8.497 15.408 22.563 30.379 41.81 24.988a69.513 69.513 0 0 0 32.25-24.304 10.726 10.726 0 0 1 14.976-1.199c4.487 3.746 5.165 10.399 1.526 14.977a89.937 89.937 0 0 1-42.96 31.205c-29.625 8.269-52.815-10.773-66.381-35.387a176.382 176.382 0 0 1-17.954-93.958zm-.254-53.117c-7.907 2.149-12.6 10.293-10.504 18.23a27.459 27.459 0 0 1 32.528 0c.884-2.988.73-6.19-.436-9.079-3.746-8.178-13.098-12.143-21.564-9.143l-.024-.008zm33.25-45.914A58.198 58.198 0 0 0 119.49 4.62 140.14 140.14 0 0 0 71.427.548 110.579 110.579 0 0 0 22.05 13.642C9.258 20.63.939 33.705.017 48.274a77.112 77.112 0 0 0 10.123 39.84 269.578 269.578 0 0 0 60.066 72.158l9.877 8.332c4.616 3.49 11.16 2.697 14.812-1.797 3.651-4.493 3.1-11.076-1.246-14.899l-9.377-7.95a248.127 248.127 0 0 1-55.004-65.766 57.16 57.16 0 0 1-7.814-28.439A22.017 22.017 0 0 1 33.14 31.968a91.383 91.383 0 0 1 39.866-10.002 117.391 117.391 0 0 1 40.565 3.26 37.505 37.505 0 0 1 20.873 12.776c3.427 4.865 10.131 6.04 15.003 2.632a10.711 10.711 0 0 0 2.626-14.97h-.056zm62.247 45.914c7.908 2.149 12.6 10.293 10.504 18.23a27.459 27.459 0 0 0-32.527 0c-.885-2.988-.73-6.19.436-9.079 3.746-8.178 13.098-12.143 21.564-9.143l.023-.008zM198.58 38.002a37.727 37.727 0 0 1 20.873-12.776 120.519 120.519 0 0 1 40.565-3.26 91.383 91.383 0 0 1 39.81 9.962 22.104 22.104 0 0 1 11.718 17.785 56.539 56.539 0 0 1-7.814 28.44 248.127 248.127 0 0 1-55.004 65.765 175.074 175.074 0 0 1-45.936 31.571c-5.815 2.004-3.967-2.313-2.872-7.895a189.194 189.194 0 0 1 13.186-37.955 10.777 10.777 0 0 0-1.216-10.69 10.726 10.726 0 0 0-9.846-4.288c-3.81.435-7.1 2.875-8.63 6.4-11.749 26.936-16.31 44.848-15.684 55.93a20.446 20.446 0 0 0 11.56 19.288 27.357 27.357 0 0 0 20.5-.373 191.12 191.12 0 0 0 53.004-35.642 270.54 270.54 0 0 0 60.066-72.158 77.096 77.096 0 0 0 10.123-39.84c-.927-14.578-9.258-27.659-22.063-34.64A110.832 110.832 0 0 0 261.549.548a141.723 141.723 0 0 0-48.062 4.07 58.19 58.19 0 0 0-32.528 21.045 10.794 10.794 0 0 0-.925 10.735 10.752 10.752 0 0 0 8.815 6.17c3.827.33 7.539-1.41 9.738-4.566h-.007z" opacity=".133"/>
</svg>
