<?xml version="1.0" encoding="UTF-8"?>
<svg width="78px" height="78px" viewBox="0 0 78 78" version="1.1" xmlns="http://www.w3.org/2000/svg" xmlns:xlink="http://www.w3.org/1999/xlink">
    <!-- Generator: Sketch 54.1 (76490) - https://sketchapp.com -->
    <title>Group 14 Copy 8</title>
    <desc>Created with Sketch.</desc>
    <g id="Health" stroke="none" stroke-width="1" fill="none" fill-rule="evenodd">
        <g id="Group-14-Copy-8">
            <text id="Female" font-family="Nunito-Regular, Nunito" font-size="14" font-weight="normal" fill="#EA0B4B">
                <tspan x="17" y="69">Female</tspan>
            </text>
            <rect id="Rectangle-Copy" stroke="#EA0B4B" x="0.5" y="0.5" width="77" height="77" rx="4"></rect>
            <path d="M23.0042262,42.4250999 C23.0683694,41.7458258 23.9974249,34.1410048 32.314101,34.4683769 C29.3121114,33.8402982 27.8874011,33.7692989 27.8874011,33.7692989 C27.4742023,33.5886038 27.3780752,33.2801481 27.5990199,32.8439318 C27.9304368,32.1896074 29.2485825,26.6604967 29.4138318,20.4539819 C29.5790812,14.2474672 35.2026995,11.0106162 38.2142578,11.0106162 C42.8861001,10.8237014 46.3025125,13.1049908 48.4634952,17.8544843 C49.0047101,19.5756823 49.2075489,21.951895 49.0720116,24.9831225 C49.5583643,28.6887604 50.1804374,31.3772254 50.9382309,33.0485173 C51.0381814,33.6043228 50.7706581,33.8847848 50.135661,33.8899034 C47.2887916,34.2755524 45.8653568,34.4683769 45.8653568,34.4683769 C49.6044587,35.1977025 49.9490585,35.0281378 51.7611203,36.1237281 C52.9691616,36.8541217 54.0181663,38.7635742 54.9081343,41.8520856 C55.072888,42.6117546 55.072888,42.9932458 54.42288,42.9932458 C53.772872,42.9932458 43.5077259,42.9932458 23.6469146,42.9932458 C23.6269997,42.9932458 22.9400831,43.104374 23.0042262,42.4250999 Z M34.3242145,18.1113247 C33.5520603,20.7167285 32.7402851,22.3831755 31.8888889,23.1106658 C32.5040555,29.4707139 34.9287734,32.8412327 39.1630427,33.2222222 C41.2184269,33.1783868 42.9347845,31.9654902 44.3121153,29.5835325 C45.7107505,26.5056195 46.2938555,24.1768519 46.0614305,22.5972297 C45.6830789,21.4079516 43.7784267,20.9765939 40.3474736,21.3031563 C37.6777087,21.1183826 35.7230794,20.1263641 34.4835857,18.3271008 C34.3240475,18.1333941 34.32486,18.1083935 34.3242145,18.1113247 Z" id="Combined-Shape" fill="#EA0B4B"></path>
        </g>
    </g>
</svg>