<?xml version="1.0" encoding="UTF-8"?>
<svg width="78px" height="78px" viewBox="0 0 78 78" version="1.1" xmlns="http://www.w3.org/2000/svg" xmlns:xlink="http://www.w3.org/1999/xlink">
    <!-- Generator: Sketch 54.1 (76490) - https://sketchapp.com -->
    <title>female filled</title>
    <desc>Created with Sketch.</desc>
    <g id="Static" stroke="none" stroke-width="1" fill="none" fill-rule="evenodd">
        <g id="female-filled">
            <rect id="Rectangle-Copy" fill="#EA0B4B" x="0" y="0" width="78" height="78" rx="4"></rect>
            <path d="M18.792,69.07 C18.6146658,69.07 18.4746672,69.0163339 18.372,68.909 C18.2693328,68.8016661 18.218,68.6593342 18.218,68.482 L18.218,59.69 C18.218,59.5219992 18.2716661,59.3866672 18.379,59.284 C18.4863339,59.1813328 18.6286658,59.13 18.806,59.13 L23.902,59.13 C24.0700008,59.13 24.2006662,59.1719996 24.294,59.256 C24.3873338,59.3400004 24.434,59.4613325 24.434,59.62 C24.434,59.7693341 24.3873338,59.8859996 24.294,59.97 C24.2006662,60.0540004 24.0700008,60.096 23.902,60.096 L19.352,60.096 L19.352,63.498 L23.622,63.498 C23.7900008,63.498 23.9206662,63.5399996 24.014,63.624 C24.1073338,63.7080004 24.154,63.8293325 24.154,63.988 C24.154,64.1373341 24.1073338,64.2539996 24.014,64.338 C23.9206662,64.4220004 23.7900008,64.464 23.622,64.464 L19.352,64.464 L19.352,68.482 C19.352,68.6593342 19.3030005,68.8016661 19.205,68.909 C19.1069995,69.0163339 18.9693342,69.07 18.792,69.07 Z M31.126,67.418 C31.2286672,67.418 31.317333,67.4599996 31.392,67.544 C31.466667,67.6280004 31.504,67.7353327 31.504,67.866 C31.504,68.0993345 31.3406683,68.313999 31.014,68.51 C30.6779983,68.706001 30.3233352,68.8529995 29.95,68.951 C29.5766648,69.0490005 29.2126684,69.098 28.858,69.098 C27.8033281,69.098 26.9703364,68.7853365 26.359,68.16 C25.7476636,67.5346635 25.442,66.6713388 25.442,65.57 C25.442,64.8699965 25.577332,64.2516694 25.848,63.715 C26.118668,63.1783306 26.4989975,62.7606682 26.989,62.462 C27.4790024,62.1633318 28.0366635,62.014 28.662,62.014 C29.5486711,62.014 30.2533307,62.3033304 30.776,62.882 C31.2986693,63.4606696 31.56,64.2446617 31.56,65.234 C31.56,65.4206676 31.522667,65.5559996 31.448,65.64 C31.373333,65.7240004 31.2520008,65.766 31.084,65.766 L26.576,65.766 C26.6600004,67.3713414 27.4206595,68.174 28.858,68.174 C29.2220018,68.174 29.5346654,68.1250005 29.796,68.027 C30.0573346,67.9289995 30.3373318,67.7960008 30.636,67.628 C30.8786679,67.4879993 31.0419996,67.418 31.126,67.418 Z M28.676,62.896 C28.0786637,62.896 27.6003351,63.0826648 27.241,63.456 C26.8816649,63.8293352 26.6693337,64.3566633 26.604,65.038 L30.566,65.038 C30.5473332,64.3473299 30.3746683,63.8176685 30.048,63.449 C29.7213317,63.0803315 29.2640029,62.896 28.676,62.896 Z M40.814,62.014 C42.3260076,62.014 43.082,62.9146577 43.082,64.716 L43.082,68.51 C43.082,68.6873342 43.0306672,68.8249995 42.928,68.923 C42.8253328,69.0210005 42.6900008,69.07 42.522,69.07 C42.3539992,69.07 42.2163339,69.0210005 42.109,68.923 C42.0016661,68.8249995 41.948,68.6873342 41.948,68.51 L41.948,64.744 C41.948,64.1186635 41.8360011,63.6660014 41.612,63.386 C41.3879989,63.1059986 41.0380024,62.966 40.562,62.966 C39.9926638,62.966 39.5446683,63.1573314 39.218,63.54 C38.8913317,63.9226686 38.728,64.4406634 38.728,65.094 L38.728,68.51 C38.728,68.6873342 38.6743339,68.8249995 38.567,68.923 C38.4596661,69.0210005 38.3220008,69.07 38.154,69.07 C37.9859992,69.07 37.8506672,69.0210005 37.748,68.923 C37.6453328,68.8249995 37.594,68.6873342 37.594,68.51 L37.594,64.744 C37.594,64.1186635 37.4820011,63.6660014 37.258,63.386 C37.0339989,63.1059986 36.6793358,62.966 36.194,62.966 C35.6339972,62.966 35.188335,63.1573314 34.857,63.54 C34.525665,63.9226686 34.36,64.4406634 34.36,65.094 L34.36,68.51 C34.36,68.6873342 34.3086672,68.8249995 34.206,68.923 C34.1033328,69.0210005 33.9680008,69.07 33.8,69.07 C33.6319992,69.07 33.4943339,69.0210005 33.387,68.923 C33.2796661,68.8249995 33.226,68.6873342 33.226,68.51 L33.226,62.602 C33.226,62.4339992 33.2796661,62.2986672 33.387,62.196 C33.4943339,62.0933328 33.6319992,62.042 33.8,62.042 C33.9586675,62.042 34.0893328,62.0909995 34.192,62.189 C34.2946672,62.2870005 34.346,62.4199992 34.346,62.588 L34.346,63.26 C34.5513344,62.8586647 34.8359982,62.5506677 35.2,62.336 C35.5640018,62.1213323 35.9839976,62.014 36.46,62.014 C37.5240053,62.014 38.2193317,62.4619955 38.546,63.358 C38.742001,62.9473313 39.0406647,62.6206679 39.442,62.378 C39.8433353,62.1353321 40.3006641,62.014 40.814,62.014 Z M47.94,62.014 C49.6480085,62.014 50.502,62.909991 50.502,64.702 L50.502,68.51 C50.502,68.6780008 50.4530005,68.8133328 50.355,68.916 C50.2569995,69.0186672 50.1240008,69.07 49.956,69.07 C49.7879992,69.07 49.6526672,69.0186672 49.55,68.916 C49.4473328,68.8133328 49.396,68.6780008 49.396,68.51 L49.396,67.838 C49.2186658,68.2393353 48.9480018,68.5496656 48.584,68.769 C48.2199982,68.9883344 47.8000024,69.098 47.324,69.098 C46.8853311,69.098 46.4816685,69.0093342 46.113,68.832 C45.7443315,68.6546658 45.4526677,68.4073349 45.238,68.09 C45.0233323,67.7726651 44.916,67.4226686 44.916,67.04 C44.916,66.5266641 45.0466654,66.1276681 45.308,65.843 C45.5693346,65.5583319 45.9986637,65.3530006 46.596,65.227 C47.1933363,65.1009994 48.0239947,65.038 49.088,65.038 L49.396,65.038 L49.396,64.576 C49.396,64.0159972 49.2816678,63.6053346 49.053,63.344 C48.8243322,63.0826654 48.4533359,62.952 47.94,62.952 C47.3053302,62.952 46.6613366,63.1246649 46.008,63.47 C45.7559987,63.6286675 45.5786672,63.708 45.476,63.708 C45.3639994,63.708 45.270667,63.6660004 45.196,63.582 C45.121333,63.4979996 45.084,63.3906673 45.084,63.26 C45.084,63.1293327 45.1236663,63.0150005 45.203,62.917 C45.2823337,62.8189995 45.4106658,62.7186672 45.588,62.616 C45.9146683,62.4293324 46.2856646,62.2823339 46.701,62.175 C47.1163354,62.0676661 47.5293313,62.014 47.94,62.014 Z M47.478,68.202 C48.0380028,68.202 48.4976649,68.0130019 48.857,67.635 C49.2163351,67.2569981 49.396,66.7693363 49.396,66.172 L49.396,65.766 L49.144,65.766 C48.3226626,65.766 47.6973355,65.8009996 47.268,65.871 C46.8386645,65.9410003 46.5330009,66.0576659 46.351,66.221 C46.1689991,66.3843342 46.078,66.6246651 46.078,66.942 C46.078,67.3060018 46.2109987,67.6069988 46.477,67.845 C46.7430013,68.0830012 47.0766647,68.202 47.478,68.202 Z M53.148,69.07 C52.9799992,69.07 52.8423339,69.0210005 52.735,68.923 C52.6276661,68.8249995 52.574,68.6873342 52.574,68.51 L52.574,59.62 C52.574,59.4426658 52.6276661,59.3050005 52.735,59.207 C52.8423339,59.1089995 52.9799992,59.06 53.148,59.06 C53.3066675,59.06 53.4396661,59.1089995 53.547,59.207 C53.6543339,59.3050005 53.708,59.4426658 53.708,59.62 L53.708,68.51 C53.708,68.6873342 53.6543339,68.8249995 53.547,68.923 C53.4396661,69.0210005 53.3066675,69.07 53.148,69.07 Z M61.1,67.418 C61.2026672,67.418 61.291333,67.4599996 61.366,67.544 C61.440667,67.6280004 61.478,67.7353327 61.478,67.866 C61.478,68.0993345 61.3146683,68.313999 60.988,68.51 C60.6519983,68.706001 60.2973352,68.8529995 59.924,68.951 C59.5506648,69.0490005 59.1866684,69.098 58.832,69.098 C57.7773281,69.098 56.9443364,68.7853365 56.333,68.16 C55.7216636,67.5346635 55.416,66.6713388 55.416,65.57 C55.416,64.8699965 55.551332,64.2516694 55.822,63.715 C56.092668,63.1783306 56.4729976,62.7606682 56.963,62.462 C57.4530024,62.1633318 58.0106635,62.014 58.636,62.014 C59.5226711,62.014 60.2273307,62.3033304 60.75,62.882 C61.2726693,63.4606696 61.534,64.2446617 61.534,65.234 C61.534,65.4206676 61.496667,65.5559996 61.422,65.64 C61.347333,65.7240004 61.2260008,65.766 61.058,65.766 L56.55,65.766 C56.6340004,67.3713414 57.3946595,68.174 58.832,68.174 C59.1960018,68.174 59.5086654,68.1250005 59.77,68.027 C60.0313346,67.9289995 60.3113318,67.7960008 60.61,67.628 C60.8526679,67.4879993 61.0159996,67.418 61.1,67.418 Z M58.65,62.896 C58.0526637,62.896 57.5743351,63.0826648 57.215,63.456 C56.8556649,63.8293352 56.6433337,64.3566633 56.578,65.038 L60.54,65.038 C60.5213332,64.3473299 60.3486683,63.8176685 60.022,63.449 C59.6953317,63.0803315 59.2380029,62.896 58.65,62.896 Z" id="Female" fill="#FFFFFF" fill-rule="nonzero"></path>
            <path d="M23.0042262,42.4250999 C23.0683694,41.7458258 23.9974249,34.1410048 32.314101,34.4683769 C29.3121114,33.8402982 27.8874011,33.7692989 27.8874011,33.7692989 C27.4742023,33.5886038 27.3780752,33.2801481 27.5990199,32.8439318 C27.9304368,32.1896074 29.2485825,26.6604967 29.4138318,20.4539819 C29.5790812,14.2474672 35.2026995,11.0106162 38.2142578,11.0106162 C42.8861001,10.8237014 46.3025125,13.1049908 48.4634952,17.8544843 C49.0047101,19.5756823 49.2075489,21.951895 49.0720116,24.9831225 C49.5583643,28.6887604 50.1804374,31.3772254 50.9382309,33.0485173 C51.0381814,33.6043228 50.7706581,33.8847848 50.135661,33.8899034 C47.2887916,34.2755524 45.8653568,34.4683769 45.8653568,34.4683769 C49.6044587,35.1977025 49.9490585,35.0281378 51.7611203,36.1237281 C52.9691616,36.8541217 54.0181663,38.7635742 54.9081343,41.8520856 C55.072888,42.6117546 55.072888,42.9932458 54.42288,42.9932458 C53.772872,42.9932458 43.5077259,42.9932458 23.6469146,42.9932458 C23.6269997,42.9932458 22.9400831,43.104374 23.0042262,42.4250999 Z M34.3242145,18.1113247 C33.5520603,20.7167285 32.7402851,22.3831755 31.8888889,23.1106658 C32.5040555,29.4707139 34.9287734,32.8412327 39.1630427,33.2222222 C41.2184269,33.1783868 42.9347845,31.9654902 44.3121153,29.5835325 C45.7107505,26.5056195 46.2938555,24.1768519 46.0614305,22.5972297 C45.6830789,21.4079516 43.7784267,20.9765939 40.3474736,21.3031563 C37.6777087,21.1183826 35.7230794,20.1263641 34.4835857,18.3271008 C34.3240475,18.1333941 34.32486,18.1083935 34.3242145,18.1113247 Z" id="Combined-Shape" fill="#FFFFFF"></path>
        </g>
    </g>
</svg>