<?xml version="1.0" encoding="UTF-8"?>
<svg width="76px" height="76px" viewBox="0 0 76 76" version="1.1" xmlns="http://www.w3.org/2000/svg" xmlns:xlink="http://www.w3.org/1999/xlink">
    <!-- Generator: Sketch 54.1 (76490) - https://sketchapp.com -->
    <title>ic copy 3</title>
    <desc>Created with Sketch.</desc>
    <g id="ic-copy-3" stroke="none" stroke-width="1" fill="none" fill-rule="evenodd">
        <g id="headset" transform="translate(10.000000, 4.000000)" fill="#EA0B4B" fill-rule="nonzero">
            <path d="M56.3546332,31.4517237 C55.7954534,30.4990386 54.8589841,29.8168788 53.7686077,29.5681599 L53.7686077,23.7025651 C53.7686077,10.6440319 42.4209736,0 28.4744482,0 C14.5279228,0 3.18028865,10.6440319 3.18028865,23.7025651 L3.18028865,29.5681599 C2.08557004,29.8318904 1.15263884,30.5331703 0.607128986,31.5022892 C0.183040108,32.3054901 -0.0252250022,33.2019211 0.0024364642,34.106411 L0.0024364642,47.0132478 C-0.0229734875,47.9134712 0.185130801,48.8053197 0.607128986,49.6047282 C1.46897665,51.0584856 3.10872265,51.8912357 4.81424504,51.7411194 L6.80844378,51.7411194 C6.8901416,53.0779441 8.01863294,54.1200669 9.38160345,54.1176966 L11.645984,54.1176966 C13.0671722,54.1176966 14.2191436,52.9858201 14.2191436,51.589423 L14.2191436,29.2774084 C14.2191436,27.8810113 13.0671722,26.7491348 11.645984,26.7491348 L9.31727446,26.7491348 C7.89608621,26.7491348 6.74411479,27.8810113 6.74411479,29.2774084 L6.74411479,29.3785393 L5.70198513,29.3785393 L5.70198513,23.7025651 C5.70198513,12.021941 15.8916974,2.52827361 28.422985,2.52827361 C40.9542726,2.52827361 51.1439848,12.021941 51.1439848,23.7025651 L51.1439848,29.3785393 L50.1018552,29.3785393 L50.1018552,29.2774084 C50.1018552,27.8810113 48.9498838,26.7491348 47.5286955,26.7491348 L45.3672414,26.7491348 C43.9460531,26.7491348 42.7940817,27.8810113 42.7940817,29.2774084 L42.7940817,51.6779126 C42.8249596,52.9434715 43.8035644,53.991441 45.0841938,54.130338 C44.8387787,55.738162 44.1134693,57.2383763 42.9999345,58.4410445 C40.9800042,60.6406425 37.6863598,61.9047793 33.2476594,62.2334549 L33.2476594,61.6772347 C33.178184,60.2206331 31.9258594,59.0917589 30.4429153,59.1489611 L24.9234878,59.1489611 C23.4405438,59.0917589 22.1882191,60.2206331 22.1187438,61.6772347 L22.1187438,65.4696451 C22.1882191,66.9262468 23.4405438,68.0551209 24.9234878,67.9979187 L30.4943785,67.9979187 C31.9773226,68.0551209 33.2296472,66.9262468 33.2991226,65.4696451 L33.2991226,64.7617285 C38.5097709,64.4204116 42.4467052,62.8781647 44.9555358,60.1602705 C46.5188912,58.4878176 47.5048938,56.3730747 47.7731457,54.1176966 C49.0716264,54.0435866 50.1095747,53.0291168 50.1919158,51.7537608 L52.1861145,51.7537608 C53.8914761,51.903877 55.5313829,51.0711269 56.3932306,49.6173696 C56.8152287,48.8179611 57.023333,47.9261126 56.9979231,47.0258891 L56.9979231,34.106411 C57.0225289,33.1815369 56.8007547,32.2664599 56.3546332,31.4517237 Z M9.38160345,49.3139768 L9.38160345,31.8562475 C9.39479089,31.7089755 9.39479089,31.5610715 9.38160345,31.4137996 L9.38160345,29.3279739 L11.5430576,29.264767 L11.5430576,51.6020644 L9.38160345,51.6020644 L9.38160345,49.3139768 Z M6.80844378,31.7930406 L6.80844378,49.2128458 L4.81424504,49.2128458 C3.32181243,49.2128458 2.97443588,48.5934188 2.85864369,48.3785155 C2.65053941,47.949025 2.55324181,47.4757638 2.57559613,47.0006064 L2.57559613,34.106411 C2.54713055,33.6280932 2.63992512,33.1502495 2.8457779,32.7158605 C2.96157008,32.5135986 3.30894664,31.8815302 4.80137924,31.8815302 L6.80844378,31.7930406 Z M30.7774261,63.5228745 L30.7774261,65.2547419 C30.7201733,65.357611 30.6133871,65.4242942 30.4943785,65.431721 L24.9234878,65.431721 C24.8549775,65.4366196 24.7861454,65.4366196 24.7176351,65.431721 L24.7176351,61.7404416 C24.7895227,61.6822913 24.8823173,61.6549543 24.974951,61.6645933 L30.5458417,61.6645933 C30.6873655,61.6645933 30.7774261,61.6645933 30.7774261,61.6645933 L30.7774261,63.5228745 L30.7774261,63.5228745 Z M47.5801587,31.8562475 L47.5801587,51.6020644 L46.5637606,51.6020644 L46.4093711,51.6020644 L46.3064447,51.6020644 L45.4058388,51.6020644 L45.4058388,29.2774084 L47.6187561,29.2774084 L47.5801587,31.8562475 Z M54.0902527,48.4037983 C53.9744605,48.6060602 53.6270839,49.2381286 52.1346513,49.2381286 L50.1533184,49.2381286 L50.1533184,31.906813 L52.1346513,31.906813 C53.6270839,31.906813 53.9744605,32.52624 54.0902527,32.7411432 C54.2983569,33.1706337 54.3956545,33.6438949 54.3733002,34.1190524 L54.3733002,47.0258891 C54.3954937,47.5010466 54.2983569,47.9743078 54.0902527,48.4037983 Z" id="Shape"></path>
        </g>
    </g>
</svg>