<svg xmlns="http://www.w3.org/2000/svg" id="Health-Insurance" viewBox="0 0 34.572 37.039">
    <defs>
        <style>
            .cls-1{fill:#eb697c}
        </style>
    </defs>
    <g id="Group_20" data-name="Group 20">
        <g id="Group_19" data-name="Group 19">
            <path id="Path_8" d="M50.275 283.806a2.915 2.915 0 0 0-2.805-.144l-6.32 3.068v-.33a2.81 2.81 0 0 0-2.83-2.865H32.2a12.713 12.713 0 0 1-3.719-.577l-3.988-1.243V280.1a.881.881 0 0 0-.853-.946h-5.586a1.013 1.013 0 0 0-1.008.946v14.8a.987.987 0 0 0 1.008.915h5.584a.854.854 0 0 0 .853-.915v-1.49l.666.5a9.66 9.66 0 0 0 6.011 2.1h5.379a9.483 9.483 0 0 0 5.372-1.65l8.454-5.766a2.853 2.853 0 0 0-.1-4.779zM22.63 293.954h-3.723v-12.936h3.723zm26.693-6.9l-8.454 5.762a7.63 7.63 0 0 1-4.322 1.326h-5.38a7.793 7.793 0 0 1-4.844-1.684l-1.832-1.434v-7.362l3.437 1.072a14.569 14.569 0 0 0 4.27.66h6.121a.949.949 0 0 1 .969 1v1.125a16.077 16.077 0 0 1-6.375.42.912.912 0 0 0-1.048.771.937.937 0 0 0 .78 1.067 15.006 15.006 0 0 0 2.375.182 18.893 18.893 0 0 0 5.569-.86h.011a.931.931 0 0 0 .1-.041h.007l7.621-3.721a1 1 0 0 1 1.433.9 1 1 0 0 1-.438.815z" class="cls-1" data-name="Path 8" transform="translate(-17.046 -258.962)"/>
            <path id="Path_9" d="M19.462 12.227a2.8 2.8 0 0 0 2.743.145L28.463 9.3v.333a2.968 2.968 0 0 0 2.954 2.926h6.121a12.272 12.272 0 0 1 3.657.547l3.926 1.212v1.608a.957.957 0 0 0 .977.914h5.584a.878.878 0 0 0 .884-.914V1.134a.907.907 0 0 0-.884-.947H46.1a.986.986 0 0 0-.977.947v1.49l-.6-.512A9.5 9.5 0 0 0 38.569 0H33.19a9.5 9.5 0 0 0-5.372 1.666l-8.454 5.775a2.86 2.86 0 0 0 .1 4.786zm27.521-10.18h3.722v12.936h-3.722zM20.414 8.982L28.868 3.2a7.645 7.645 0 0 1 4.322-1.342h5.379a7.637 7.637 0 0 1 4.782 1.7l1.77 1.45v7.362l-3.375-1.042a14.13 14.13 0 0 0-4.207-.63h-6.122a1.105 1.105 0 0 1-1.093-1.065v-1.12a16.59 16.59 0 0 1 6.437-.42.943.943 0 0 0 1.079-.771.926.926 0 0 0-.765-1.067 18.273 18.273 0 0 0-7.934.677.466.466 0 0 0-.053.022l-.054.022-7.622 3.724a1 1 0 0 1-1.433-.9 1 1 0 0 1 .435-.818z" class="cls-1" data-name="Path 9" transform="translate(-18.04)"/>
            <path id="Path_10" d="M205.466 207.725a2.918 2.918 0 0 0-4.386 2.523c0 .955.66 2.045 2.018 3.332a18.934 18.934 0 0 0 1.828 1.517.931.931 0 0 0 1.08 0 18.944 18.944 0 0 0 1.828-1.517c1.358-1.288 2.018-2.378 2.018-3.332a2.918 2.918 0 0 0-4.386-2.523zm2.525 2.523c0 .592-1.242 1.914-2.525 2.928-1.283-1.012-2.525-2.333-2.525-2.928A1.059 1.059 0 0 1 204 209.19a1.047 1.047 0 0 1 .781.344.931.931 0 0 0 1.373 0 1.047 1.047 0 0 1 .781-.344 1.059 1.059 0 0 1 1.057 1.059z" class="cls-1" data-name="Path 10" transform="translate(-187.767 -192.33)"/>
        </g>
    </g>
</svg>
