<svg xmlns="http://www.w3.org/2000/svg" id="Health-Insurance" viewBox="0 0 27.626 29.597">
    <defs>
        <style>
            .cls-1{fill:#ea0b4b}
        </style>
    </defs>
    <g id="Group_20" data-name="Group 20">
        <g id="Group_19" data-name="Group 19">
            <path id="Path_8" d="M43.6 282.872a2.329 2.329 0 0 0-2.242-.115l-5.05 2.451v-.266a2.246 2.246 0 0 0-2.261-2.289h-4.894a10.158 10.158 0 0 1-2.972-.461L23 281.2v-1.285a.7.7 0 0 0-.682-.756h-4.466a.81.81 0 0 0-.806.756v11.824a.789.789 0 0 0 .806.731h4.462a.683.683 0 0 0 .682-.731v-1.19l.532.4a7.719 7.719 0 0 0 4.8 1.674h4.3a7.577 7.577 0 0 0 4.292-1.323l6.756-4.608a2.28 2.28 0 0 0-.078-3.819zm-22.091 8.109h-2.976v-10.337h2.975zm21.33-5.515l-6.756 4.6a6.1 6.1 0 0 1-3.454 1.06h-4.3a6.227 6.227 0 0 1-3.871-1.346L23 288.638v-5.883l2.747.857a11.643 11.643 0 0 0 3.412.528h4.892a.758.758 0 0 1 .774.8v.9a12.847 12.847 0 0 1-5.094.336.729.729 0 0 0-.837.616.749.749 0 0 0 .624.852 11.99 11.99 0 0 0 1.9.146 15.1 15.1 0 0 0 4.45-.687.749.749 0 0 0 .08-.033h.006l6.09-2.974a.8.8 0 0 1 1.145.715.8.8 0 0 1-.351.654z" class="cls-1" data-name="Path 8" transform="translate(-17.046 -263.02)"/>
            <path id="Path_9" d="M19.192 9.77a2.234 2.234 0 0 0 2.192.115l5-2.451V7.7a2.371 2.371 0 0 0 2.36 2.338h4.892a9.806 9.806 0 0 1 2.922.437l3.137.969v1.286a.765.765 0 0 0 .781.73h4.462a.7.7 0 0 0 .706-.73V.906a.724.724 0 0 0-.707-.757h-4.46a.788.788 0 0 0-.777.757V2.1l-.482-.409A7.6 7.6 0 0 0 34.46 0h-4.3a7.59 7.59 0 0 0-4.29 1.332l-6.756 4.614a2.285 2.285 0 0 0 .078 3.825zm21.991-8.134h2.975v10.337h-2.975zM19.952 7.177l6.756-4.617a6.109 6.109 0 0 1 3.454-1.073h4.3a6.1 6.1 0 0 1 3.821 1.359L39.7 4v5.888L37 9.055a11.291 11.291 0 0 0-3.362-.5h-4.893a.883.883 0 0 1-.873-.851V6.8a13.257 13.257 0 0 1 5.144-.335.753.753 0 0 0 .862-.616.74.74 0 0 0-.611-.849 14.6 14.6 0 0 0-6.34.541.373.373 0 0 0-.042.018c-.014.006-.029.011-.043.018L20.75 8.55a.8.8 0 0 1-1.145-.715.8.8 0 0 1 .347-.658z" class="cls-1" data-name="Path 9" transform="translate(-18.056)"/>
            <path id="Path_10" d="M204.585 207.646a2.332 2.332 0 0 0-3.505 2.016 4.1 4.1 0 0 0 1.613 2.663 15.126 15.126 0 0 0 1.461 1.212.744.744 0 0 0 .863 0 15.135 15.135 0 0 0 1.461-1.212 4.1 4.1 0 0 0 1.613-2.663 2.332 2.332 0 0 0-3.505-2.016zm2.018 2.016c0 .473-.993 1.529-2.018 2.339-1.025-.809-2.017-1.864-2.017-2.339a.846.846 0 0 1 .845-.846.837.837 0 0 1 .624.275.744.744 0 0 0 1.1 0 .837.837 0 0 1 .624-.275.847.847 0 0 1 .839.846z" class="cls-1" data-name="Path 10" transform="translate(-190.442 -195.344)"/>
        </g>
    </g>
</svg>
