<svg xmlns="http://www.w3.org/2000/svg" width="59" height="59" viewBox="0 0 59 59">
    <path fill="#EA0B4B" fill-rule="nonzero" d="M58.146 12.628L49.104 1.364A3.581 3.581 0 0 0 46.304 0a3.582 3.582 0 0 0-2.799 1.363l-9.04 11.265A3.955 3.955 0 0 0 34 16.796c.621 1.296 1.872 2.102 3.263 2.102h.3v3.277h-9.34c-1.86 0-3.374 1.575-3.374 3.513v4.504a2.943 2.943 0 0 0-.126-.002H15.72a3.587 3.587 0 0 0-3.584 3.583v4a2.964 2.964 0 0 0-.126-.002H3.584A3.588 3.588 0 0 0 0 41.355v15.916C0 58.226.774 59 1.729 59h51.548c.976 0 1.77-.794 1.77-1.771V18.898h.3c1.391 0 2.642-.806 3.264-2.103.655-1.364.472-3-.465-4.167zm-46.01 42.915H3.457V41.355c0-.07.057-.126.127-.126h8.426c.07 0 .126.056.126.126v14.188zm12.713 0h-9.256v-21.77c0-.07.057-.126.127-.126h9.003c.068 0 .124.054.126.122v21.774zm12.713 0h-9.255V25.688c0-.024.003-.042.007-.056h9.242c.003.01.005.023.007.038v29.873zm14.028 0H41.02V18.898h10.57v36.645zM55.494 15.3c-.025.053-.078.14-.147.14H37.263c-.066 0-.116-.075-.146-.139-.023-.047-.128-.295.044-.51l9.041-11.264c.02-.026.062-.07.103-.07.04 0 .081.044.103.07l9.042 11.265c.171.214.067.46.044.508z"/>
</svg>
