<svg xmlns="http://www.w3.org/2000/svg" width="79" height="64" viewBox="0 0 79 64">
    <g fill="none" fill-rule="evenodd">
        <path fill="#FFF" d="M-120-1988h1440v3785H-120z"/>
        <path fill="#AAA" d="M17.174 10.855c4.198.386 7.633 2.027 10.304 4.923 2.672 2.896 4.008 6.564 4.008 11.005 0 4.826-1.432 8.736-4.294 11.728C24.33 41.504 20.704 43 16.315 43c-4.961 0-8.92-1.834-11.878-5.502C1.479 33.83 0 28.134 0 20.412 0 5.546 4.866-7.293 14.598-18.104 16.506-20.034 18.7-21 21.18-21c2.1 0 3.912.724 5.439 2.172 1.526 1.448 2.29 3.137 2.29 5.068 0 2.124-.764 3.958-2.29 5.502-4.962 5.213-8.11 11.584-9.446 19.113zm47.514 0c4.198.386 7.633 2.027 10.305 4.923C77.664 18.674 79 22.342 79 26.783c0 4.826-1.431 8.736-4.293 11.728C71.844 41.504 68.219 43 63.83 43c-4.962 0-8.921-1.834-11.879-5.502-2.958-3.668-4.437-9.364-4.437-17.086 0-14.866 4.866-27.705 14.598-38.516C64.021-20.034 66.215-21 68.696-21c2.099 0 3.911.724 5.438 2.172 1.527 1.448 2.29 3.137 2.29 5.068 0 2.124-.763 3.958-2.29 5.502-4.961 5.213-8.11 11.584-9.446 19.113z" opacity=".266"/>
    </g>
</svg>
