<svg xmlns="http://www.w3.org/2000/svg" id="LifeTerm-Insurance" viewBox="0 0 50.648 31.889">
    <defs>
        <style>
            .cls-1{fill:#eb697c}
        </style>
    </defs>
    <g id="Group_21" data-name="Group 21">
        <path id="Path_11" d="M18.529 37.767a1.693 1.693 0 0 1-1.838-1.267L14.2 24.579l-1.64 2.83a1.927 1.927 0 0 1-1.615.978H1.876a1.876 1.876 0 1 1 0-3.752h8l3.566-6.026a1.875 1.875 0 0 1 3.451.573l1.507 7.285 3.436-19.075a1.851 1.851 0 0 1 1.847-1.514h.008a1.846 1.846 0 0 1 1.841 1.528L29.2 28.818l1.181-2.991a1.877 1.877 0 0 1 1.744-1.195h16.647a1.877 1.877 0 0 1 0 3.754H33.4l-3.175 8.023a1.875 1.875 0 0 1-3.593-.375l-2.993-17.493-3.264 17.908a1.678 1.678 0 0 1-1.822 1.315.062.062 0 0 1-.024.003z" class="cls-1" data-name="Path 11" transform="translate(0 -5.878)"/>
    </g>
</svg>
