<?xml version="1.0" encoding="UTF-8"?>
<svg width="78px" height="78px" viewBox="0 0 78 78" version="1.1" xmlns="http://www.w3.org/2000/svg" xmlns:xlink="http://www.w3.org/1999/xlink">
    <!-- Generator: Sketch 54.1 (76490) - https://sketchapp.com -->
    <title>Group 2</title>
    <desc>Created with Sketch.</desc>
    <g id="Health" stroke="none" stroke-width="1" fill="none" fill-rule="evenodd">
        <g id="Group-2">
            <rect id="Rectangle" fill="#EA0B4B" x="0" y="0" width="78" height="78" rx="4"></rect>
            <text id="Male" font-family="Nunito-Regular, Nunito" font-size="14" font-weight="normal" fill="#FFFFFF">
                <tspan x="24" y="69">Male</tspan>
            </text>
            <path d="M38.8610836,29.5439474 C33.8847969,29.6752382 31.5240527,24.0990589 31.1735343,20.1803279 C30.9259746,15.4174671 33.2013595,11.0927409 39.1735343,11 C42.5521647,11 46.5888301,13.5561698 46.5888301,18.6263249 C46.6097781,23.1984617 43.8688457,29.5439474 38.8610836,29.5439474 Z M34.0179425,15.6912301 C32.0595243,17.7683546 31.9559477,19.8825877 33.097692,22.7495322 C34.2394363,25.6164767 35.8459974,28.259583 38.5100117,28.3114754 C41.5225028,28.3114754 45.2585509,24.2459083 45.3508146,21.026386 C45.4648877,17.9187271 44.3809761,16.7302731 42.0990799,17.4610239 C38.0252372,17.7748649 35.4928651,17.1840404 34.5019636,15.6885504 C34.2821632,15.3205794 33.9992475,15.6905599 34.0179425,15.6912301 Z" id="Combined-Shape" fill="#FFFFFF"></path>
            <path d="M33.0439573,28.3727381 C28.4328342,29.1671642 25.9828792,31.9985031 25.230907,35.6793149 C24.4789349,39.3601267 25.5636176,41.5791405 28.4849551,42.3363563 C30.102843,42.6034977 36.3489871,42.7117033 47.2233876,42.6609731 C51.0748242,42.547559 53.4453802,40.7756931 52.733653,36.5562663 C52.2660145,32.3685931 49.7314154,29.6680363 45.1298558,28.4545961 L45.1298445,28.4546388 C44.7757304,28.3612582 44.398898,28.4689243 44.1475678,28.7352885 L40.0148944,33.1151693 C39.446359,33.7177131 38.4970118,33.7452825 37.894468,33.1767471 C37.8705584,33.154187 37.8473969,33.1308471 37.8250209,33.106765 L33.4263835,28.3727381 C33.3676964,28.3318963 33.240221,28.3318963 33.0439573,28.3727381 Z" id="Path-5" fill="#FFFFFF"></path>
        </g>
    </g>
</svg>