<?xml version="1.0" encoding="UTF-8"?>
<svg width="78px" height="78px" viewBox="0 0 78 78" version="1.1" xmlns="http://www.w3.org/2000/svg" xmlns:xlink="http://www.w3.org/1999/xlink">
    <!-- Generator: Sketch 54.1 (76490) - https://sketchapp.com -->
    <title>male outline</title>
    <desc>Created with Sketch.</desc>
    <g id="Static" stroke="none" stroke-width="1" fill="none" fill-rule="evenodd">
        <g id="male-outline">
            <g id="Group-10">
                <rect id="Rectangle" stroke="#EA0B4B" x="0.5" y="0.5" width="77" height="77" rx="4"></rect>
                <path d="M33.982,59.06 C34.1593342,59.06 34.2969995,59.1136661 34.395,59.221 C34.4930005,59.3283339 34.542,59.4706658 34.542,59.648 L34.542,68.51 C34.542,68.6780008 34.4953338,68.8133328 34.402,68.916 C34.3086662,69.0186672 34.1780008,69.07 34.01,69.07 C33.8419992,69.07 33.7160004,69.0186672 33.632,68.916 C33.5479996,68.8133328 33.506,68.6780008 33.506,68.51 L33.506,61.356 L30.468,67.18 C30.3373327,67.450668 30.1460013,67.586 29.894,67.586 C29.6513321,67.586 29.4600007,67.450668 29.32,67.18 L26.268,61.426 L26.268,68.51 C26.268,68.6780008 26.2236671,68.8133328 26.135,68.916 C26.0463329,69.0186672 25.9180008,69.07 25.75,69.07 C25.5819992,69.07 25.4513338,69.0186672 25.358,68.916 C25.2646662,68.8133328 25.218,68.6780008 25.218,68.51 L25.218,59.648 C25.218,59.4706658 25.2693328,59.3283339 25.372,59.221 C25.4746672,59.1136661 25.6146658,59.06 25.792,59.06 C26.0253345,59.06 26.2119993,59.195332 26.352,59.466 L29.908,66.284 L33.422,59.466 C33.496667,59.3166659 33.5783329,59.211667 33.667,59.151 C33.7556671,59.090333 33.8606661,59.06 33.982,59.06 Z M39.61,62.014 C41.3180085,62.014 42.172,62.909991 42.172,64.702 L42.172,68.51 C42.172,68.6780008 42.1230005,68.8133328 42.025,68.916 C41.9269995,69.0186672 41.7940008,69.07 41.626,69.07 C41.4579992,69.07 41.3226672,69.0186672 41.22,68.916 C41.1173328,68.8133328 41.066,68.6780008 41.066,68.51 L41.066,67.838 C40.8886658,68.2393353 40.6180018,68.5496656 40.254,68.769 C39.8899982,68.9883344 39.4700024,69.098 38.994,69.098 C38.5553311,69.098 38.1516685,69.0093342 37.783,68.832 C37.4143315,68.6546658 37.1226677,68.4073349 36.908,68.09 C36.6933323,67.7726651 36.586,67.4226686 36.586,67.04 C36.586,66.5266641 36.7166654,66.1276681 36.978,65.843 C37.2393346,65.5583319 37.6686637,65.3530006 38.266,65.227 C38.8633363,65.1009994 39.6939947,65.038 40.758,65.038 L41.066,65.038 L41.066,64.576 C41.066,64.0159972 40.9516678,63.6053346 40.723,63.344 C40.4943322,63.0826654 40.1233359,62.952 39.61,62.952 C38.9753302,62.952 38.3313366,63.1246649 37.678,63.47 C37.4259987,63.6286675 37.2486672,63.708 37.146,63.708 C37.0339994,63.708 36.940667,63.6660004 36.866,63.582 C36.791333,63.4979996 36.754,63.3906673 36.754,63.26 C36.754,63.1293327 36.7936663,63.0150005 36.873,62.917 C36.9523337,62.8189995 37.0806658,62.7186672 37.258,62.616 C37.5846683,62.4293324 37.9556646,62.2823339 38.371,62.175 C38.7863354,62.0676661 39.1993313,62.014 39.61,62.014 Z M39.148,68.202 C39.7080028,68.202 40.1676649,68.0130019 40.527,67.635 C40.8863351,67.2569981 41.066,66.7693363 41.066,66.172 L41.066,65.766 L40.814,65.766 C39.9926626,65.766 39.3673355,65.8009996 38.938,65.871 C38.5086645,65.9410003 38.2030009,66.0576659 38.021,66.221 C37.8389991,66.3843342 37.748,66.6246651 37.748,66.942 C37.748,67.3060018 37.8809987,67.6069988 38.147,67.845 C38.4130013,68.0830012 38.7466647,68.202 39.148,68.202 Z M44.818,69.07 C44.6499992,69.07 44.5123339,69.0210005 44.405,68.923 C44.2976661,68.8249995 44.244,68.6873342 44.244,68.51 L44.244,59.62 C44.244,59.4426658 44.2976661,59.3050005 44.405,59.207 C44.5123339,59.1089995 44.6499992,59.06 44.818,59.06 C44.9766675,59.06 45.1096661,59.1089995 45.217,59.207 C45.3243339,59.3050005 45.378,59.4426658 45.378,59.62 L45.378,68.51 C45.378,68.6873342 45.3243339,68.8249995 45.217,68.923 C45.1096661,69.0210005 44.9766675,69.07 44.818,69.07 Z M52.77,67.418 C52.8726672,67.418 52.961333,67.4599996 53.036,67.544 C53.110667,67.6280004 53.148,67.7353327 53.148,67.866 C53.148,68.0993345 52.9846683,68.313999 52.658,68.51 C52.3219983,68.706001 51.9673352,68.8529995 51.594,68.951 C51.2206648,69.0490005 50.8566684,69.098 50.502,69.098 C49.4473281,69.098 48.6143364,68.7853365 48.003,68.16 C47.3916636,67.5346635 47.086,66.6713388 47.086,65.57 C47.086,64.8699965 47.221332,64.2516694 47.492,63.715 C47.762668,63.1783306 48.1429976,62.7606682 48.633,62.462 C49.1230025,62.1633318 49.6806635,62.014 50.306,62.014 C51.1926711,62.014 51.8973307,62.3033304 52.42,62.882 C52.9426693,63.4606696 53.204,64.2446617 53.204,65.234 C53.204,65.4206676 53.166667,65.5559996 53.092,65.64 C53.017333,65.7240004 52.8960008,65.766 52.728,65.766 L48.22,65.766 C48.3040004,67.3713414 49.0646595,68.174 50.502,68.174 C50.8660018,68.174 51.1786654,68.1250005 51.44,68.027 C51.7013346,67.9289995 51.9813318,67.7960008 52.28,67.628 C52.5226679,67.4879993 52.6859996,67.418 52.77,67.418 Z M50.32,62.896 C49.7226637,62.896 49.2443351,63.0826648 48.885,63.456 C48.5256649,63.8293352 48.3133337,64.3566633 48.248,65.038 L52.21,65.038 C52.1913332,64.3473299 52.0186683,63.8176685 51.692,63.449 C51.3653317,63.0803315 50.9080029,62.896 50.32,62.896 Z" id="Male" fill="#EA0B4B" fill-rule="nonzero"></path>
            </g>
            <g id="Group-11" transform="translate(25.000000, 11.000000)" fill="#EA0B4B">
                <path d="M13.8610836,18.5439474 C8.88479693,18.6752382 6.52405268,13.0990589 6.17353431,9.18032787 C5.92597458,4.41746715 8.20135947,0.0927408582 14.1735343,3.55271368e-15 C17.5521647,3.55271368e-15 21.5888301,2.55616984 21.5888301,7.62632492 C21.6097781,12.1984617 18.8688457,18.5439474 13.8610836,18.5439474 Z M9.01794246,4.69123007 C7.05952429,6.7683546 6.95594766,8.88258774 8.09769197,11.7495322 C9.23943628,14.6164767 10.8459974,17.259583 13.5100117,17.3114754 C16.5225028,17.3114754 20.2585509,13.2459083 20.3508146,10.026386 C20.4648877,6.91872711 19.3809761,5.73027306 17.0990799,6.46102388 C13.0252372,6.77486491 10.4928651,6.18404041 9.50196364,4.68855037 C9.28216321,4.32057943 8.99924749,4.69055993 9.01794246,4.69123007 Z" id="Combined-Shape"></path>
                <path d="M8.04395733,17.3727381 C3.43283424,18.1671642 0.982879159,20.9985031 0.230907049,24.6793149 C-0.521065061,28.3601267 0.563617632,30.5791405 3.48495513,31.3363563 C5.10284298,31.6034977 11.3489871,31.7117033 22.2233876,31.6609731 C26.0748242,31.547559 28.4453802,29.7756931 27.733653,25.5562663 C27.2660145,21.3685931 24.7314154,18.6680363 20.1298558,17.4545961 L20.1298445,17.4546388 C19.7757304,17.3612582 19.398898,17.4689243 19.1475678,17.7352885 L15.0148944,22.1151693 C14.446359,22.7177131 13.4970118,22.7452825 12.894468,22.1767471 C12.8705584,22.154187 12.8473969,22.1308471 12.8250209,22.106765 L8.42638353,17.3727381 C8.36769635,17.3318963 8.24022096,17.3318963 8.04395733,17.3727381 Z" id="Path-5"></path>
            </g>
        </g>
    </g>
</svg>