<svg xmlns="http://www.w3.org/2000/svg" width="67" height="70" viewBox="0 0 67 70">
    <g fill="#EA0B4B" fill-rule="nonzero">
        <path d="M65.885 42.677a.801.801 0 0 0-.112-.183 5.18 5.18 0 0 0-7.316-.762c-2.804 2.3-6.883 5.617-9.532 7.776a11.033 11.033 0 0 1-6.56 2.456l-7.176.24a.808.808 0 0 1-.715-.381l-.8-1.383a.76.76 0 0 1-.041-.734.781.781 0 0 1 .575-.452l7.414-1.411c2.608-.494 4.43-2.978 4.135-5.674a5.083 5.083 0 0 0-5.046-4.544h-.252l-9.91-.41c-3.953-.14-7.345.622-11.311 2.555l-5.187 2.526a4.37 4.37 0 0 0-3.938-2.498H4.38C1.983 39.784.035 41.732.02 44.145V65.64C.036 68.052 1.984 70 4.38 70h5.733c2.397 0 4.331-1.948 4.345-4.36v-1.455l5.509-1.016c1.78-.268 2.901-.367 4.793-.282l15.068.706a21.657 21.657 0 0 0 14.9-5.067l10.443-8.722.014-.014c2.088-1.792 2.396-4.94.7-7.113zM11.655 65.64c0 .847-.687 1.538-1.528 1.538H4.352a1.537 1.537 0 0 1-1.528-1.538V44.16c0-.846.687-1.538 1.528-1.538h5.775c.84 0 1.528.691 1.528 1.538v21.48zm51.721-18.008l-10.428 8.708a18.972 18.972 0 0 1-12.994 4.417l-15.068-.706c-2.116-.098-3.406.029-5.354.31-.014 0-.028 0-.042.015l-5.032.931V45.218l6-2.922c3.531-1.721 6.517-2.399 9.98-2.272l9.979.41h.294c1.15.014 2.13.874 2.271 2.032a2.36 2.36 0 0 1-1.864 2.582l-7.415 1.412c-1.948.367-3.224 2.272-2.86 4.234.085.409.225.804.435 1.157l.799 1.369a3.601 3.601 0 0 0 3.224 1.778l7.176-.24c3-.113 5.887-1.2 8.228-3.077 2.65-2.159 6.742-5.475 9.546-7.776a2.422 2.422 0 0 1 3.308.297c.028.056.07.113.112.169a2.347 2.347 0 0 1-.295 3.26zM44.636 0C34.53 0 26.302 8.284 26.302 18.46c0 10.175 8.228 18.473 18.334 18.473S62.97 28.65 62.97 18.473C62.97 8.299 54.742 0 44.636 0zm.014 34.11c-8.578 0-15.545-7-15.545-15.636v-.014c.014-8.623 6.953-15.623 15.531-15.637 8.578 0 15.545 7 15.545 15.637S53.228 34.11 44.65 34.11z"/>
        <path d="M50.117 14.113h-1.879a5.947 5.947 0 0 0-.813-1.976h2.692a1.41 1.41 0 0 0 1.401-1.411 1.41 1.41 0 0 0-1.401-1.411H39.155a1.41 1.41 0 0 0-1.401 1.41c0 .777.63 1.412 1.401 1.412h3.14c1.318 0 2.467.847 2.986 1.976h-6.126a1.41 1.41 0 0 0-1.401 1.411c0 .776.63 1.411 1.401 1.411h6.126a4.49 4.49 0 0 1-.645.89 3.26 3.26 0 0 1-2.34.945h-3.14a1.417 1.417 0 0 0-1.402 1.44c0 .38.168.748.434 1.016l7.836 7.466A1.39 1.39 0 0 0 48 28.635a1.413 1.413 0 0 0-.056-1.99l-5.284-5.038a6.022 6.022 0 0 0 3.938-1.764 6.33 6.33 0 0 0 1.64-2.908h1.879a1.41 1.41 0 0 0 1.401-1.41 1.41 1.41 0 0 0-1.401-1.412z"/>
    </g>
</svg>
