<svg xmlns="http://www.w3.org/2000/svg" width="57" height="48" viewBox="0 0 57 48">
    <path fill="#EA0B4B" fill-rule="nonzero" d="M51.92 7.2h-11.8V4.8c0-2.647-2.117-4.8-4.72-4.8H21.24c-2.603 0-4.72 2.153-4.72 4.8v2.4H4.72C2.117 7.2 0 9.353 0 12v31.2C0 45.847 2.117 48 4.72 48h47.2c2.603 0 4.72-2.153 4.72-4.8V12c0-2.647-2.117-4.8-4.72-4.8zM18.88 4.8c0-1.323 1.059-2.4 2.36-2.4H35.4c1.3 0 2.36 1.077 2.36 2.4v2.4H18.88V4.8zm35.4 38.4c0 1.323-1.06 2.4-2.36 2.4H4.72c-1.3 0-2.36-1.077-2.36-2.4V25.733a4.608 4.608 0 0 0 2.36.667H23.6V30c0 .663.528 1.2 1.18 1.2h7.08a1.19 1.19 0 0 0 1.18-1.2v-3.6h18.88c.864 0 1.663-.254 2.36-.667V43.2zM25.96 28.8V24h4.72v4.8h-4.72zm28.32-7.2c0 1.323-1.06 2.4-2.36 2.4H33.04v-1.2c0-.663-.528-1.2-1.18-1.2h-7.08a1.19 1.19 0 0 0-1.18 1.2V24H4.72c-1.3 0-2.36-1.077-2.36-2.4V12c0-1.323 1.06-2.4 2.36-2.4h47.2c1.3 0 2.36 1.077 2.36 2.4v9.6z"/>
</svg>
