<?xml version="1.0" encoding="UTF-8"?>
<svg width="76px" height="76px" viewBox="0 0 76 76" version="1.1" xmlns="http://www.w3.org/2000/svg" xmlns:xlink="http://www.w3.org/1999/xlink">
    <!-- Generator: Sketch 54.1 (76490) - https://sketchapp.com -->
    <title>ic copy 5</title>
    <desc>Created with Sketch.</desc>
    <g id="ic-copy-5" stroke="none" stroke-width="1" fill="none" fill-rule="evenodd">
        <g id="Group-23" transform="translate(10.000000, 10.000000)">
            <circle id="Oval" stroke="#EA0B4B" stroke-width="2.5" cx="28" cy="28" r="28"></circle>
            <g id="group-(1)" transform="translate(13.548387, 9.935484)" fill="#EA0B4B" fill-rule="nonzero">
                <path d="M23.4634273,17.2092567 C22.0276672,15.9834502 20.3366608,15.0454418 18.4861255,14.4911641 C20.7301654,13.1267882 22.2403724,10.6431978 22.2403724,7.81851332 C22.2403724,3.51220196 18.7626423,0.0266479663 14.4659972,0.0266479663 C10.1693521,0.0266479663 6.69162197,3.52286115 6.69162197,7.81851332 C6.69162197,10.6431978 8.19119366,13.1267882 10.4458688,14.4911641 C8.61660406,15.0454418 6.94686821,15.972791 5.52174335,17.1772791 C2.80062902,19.5332088 1.19115965,22.4858035 0.693335222,26.0350631 C0.618888401,26.6213184 0.57634736,27.228892 0.57634736,27.8364656 L0.57634736,28.5612903 C0.57634736,31.6950912 3.10753929,34.2319776 6.23430578,34.2319776 L22.7189591,34.2319776 C25.8457256,34.2319776 28.3769175,31.6950912 28.3769175,28.5612903 L28.3769175,27.8364656 C28.3769175,27.228892 28.3343765,26.6213184 28.2599296,26.0350631 C27.8233327,22.356343 26.2244986,19.4144075 23.4634273,17.2092567 Z M8.6763469,7.91243731 C8.6763469,4.72062717 11.2645033,2.12664813 14.4491489,2.12664813 C17.6337945,2.12664813 20.2219509,4.72062717 20.2219509,7.91243731 C20.2219509,10.9927874 17.8056643,13.5158373 14.7827784,13.6880938 C14.6715686,13.6880938 14.5603587,13.6880938 14.4491489,13.6880938 C14.3379391,13.6880938 14.2267292,13.6880938 14.1155194,13.6880938 C11.0926336,13.5158373 8.6763469,10.9927874 8.6763469,7.91243731 Z M21.9721556,32.0640634 L6.7336002,32.0640634 C4.71817836,32.0640634 3.0763469,30.4185383 3.0763469,28.3985823 L3.0763469,27.7285482 C3.0763469,21.6095596 7.95268463,16.6040101 14.0186128,16.4266481 C14.1267574,16.4365016 14.2447333,16.4365016 14.3528779,16.4365016 C14.4610225,16.4365016 14.5789984,16.4365016 14.687143,16.4266481 C20.7530712,16.6040101 25.6294089,21.6095596 25.6294089,27.7285482 L25.6294089,28.3985823 C25.6294089,30.4185383 23.9875774,32.0640634 21.9721556,32.0640634 Z" id="Shape"></path>
            </g>
        </g>
    </g>
</svg>