<?xml version="1.0" encoding="UTF-8"?>
<svg width="76px" height="76px" viewBox="0 0 76 76" version="1.1" xmlns="http://www.w3.org/2000/svg" xmlns:xlink="http://www.w3.org/1999/xlink">
    <!-- Generator: Sketch 54.1 (76490) - https://sketchapp.com -->
    <title>ic</title>
    <desc>Created with Sketch.</desc>
    <g id="ic" stroke="none" stroke-width="1" fill="none" fill-rule="evenodd">
        <g id="icon-(1)" transform="translate(2.000000, 14.000000)" fill="#EA0B4B" fill-rule="nonzero">
            <path d="M67.8292505,0 L27.643622,0.0229412301 C25.3400356,0.0191176918 23.4652882,1.90794564 23.4690832,4.23265696 L23.4690832,6.16354383 C22.6152003,5.79266061 21.5563855,5.53266 20.2053529,5.53266 C18.5165622,5.53266 17.1161942,5.91501383 16.9605977,5.96471983 C16.6342247,6.05648475 16.338212,6.21707336 16.0839446,6.44266213 L0.767182262,19.9626937 C0.266237606,20.4100477 -0.0145950036,21.0562257 0.000585137465,21.7291685 L0.133411372,43.9859852 C0.163771654,45.1712821 1.51480421,46.1386373 2.69506018,46.1921669 C2.75578074,46.1921669 8.46730882,46.4330498 13.5147057,46.4330498 C16.5924793,46.4330498 18.7632395,46.3527555 20.1484274,46.1768727 C24.1863449,45.6645186 25.9510363,44.4639275 26.6834781,43.6992198 C27.4424852,43.1409832 28.1180014,42.5903937 28.823878,42.0398042 C28.2356475,44.211574 29.2185617,46.5783442 31.2830608,47.6298173 C31.9509871,47.9739357 32.702404,48.1574656 33.446231,48.1574656 C34.7706983,48.1574656 35.9851095,47.6030525 36.8731478,46.6854033 C37.3095769,47.2818753 37.863652,47.8018765 38.5619385,48.1651126 C39.2336597,48.4977605 39.9812817,48.6812903 40.7289036,48.6812903 C42.5429305,48.6812903 44.1823857,47.6604056 45.0021133,46.0315782 L48.1785579,39.730387 C48.7591983,38.5756785 48.8806394,37.2642048 48.4783656,36.0406725 C48.3493344,35.6430245 48.1444025,35.2721413 47.9167004,34.9280229 L67.7988902,34.9394935 C70.1024766,34.9394935 71.9810191,33.0506655 71.9848141,30.7336013 L71.9999942,4.25942173 C72.0037893,1.93088687 70.1328369,0 67.8292505,0 Z M37.7930586,37.9052919 L34.5153111,44.9034404 C34.0717357,45.8704573 32.9176546,46.2818636 32.0187275,45.7941138 C31.1040985,45.2893989 30.739032,44.0763865 31.1983092,43.0924044 L33.8950907,37.3539227 C33.8950907,37.3539227 34.778316,35.0254478 36.1875512,35 C36.4623324,35.0084826 36.7292627,35.0721021 36.9804913,35.2120651 C37.4201412,35.4580606 37.7498787,35.8609843 37.9029711,36.3741819 C38.0599889,36.8873794 38.0285854,37.4260248 37.7930586,37.9052919 Z M34.4643711,32.7335426 L31.2933608,35.5707237 L31.3227609,35.5707237 C29.3361545,37.2517124 26.9715468,39.1172 24.0609373,41.216386 C23.8425366,41.372185 23.8257366,41.3557851 23.6703361,41.5689837 C23.661936,41.5771836 22.7001329,42.413578 19.3821221,42.8153753 C18.4749192,42.9260746 16.576513,42.9096747 12.6495003,42.9096747 C9.23488918,42.9096747 4.98447538,42.9588744 2.66186783,42.8809749 L2.69966796,22.4385112 L18.2985186,9.09310026 C18.71852,9.01520078 19.356922,8.92500138 20.0499243,8.92500138 C21.0663276,8.92500138 21.7677299,9.1013002 22.1457311,9.46619777 L22.1457311,26.3416852 C22.1457311,27.1985795 22.6077326,27.9857742 23.3637351,28.4285713 C23.4519353,28.477771 23.5527357,28.469571 23.645136,28.5105707 L23.645136,28.6909695 L23.8761367,28.5761703 C24.5187388,28.7852689 25.2117411,28.8139687 25.824943,28.4818709 C29.7015556,26.4318846 37.0473795,23.1724064 40.2477899,23.1724064 C40.3905903,23.1724064 40.5123907,23.1724064 40.596391,23.1888062 C40.6089911,23.2175061 40.6215911,23.2339059 40.6383912,23.2585058 C40.7055914,23.5824036 41.0247924,26.3949849 34.4643711,32.7335426 Z M45.7905408,37.9155422 L42.5125557,44.9077583 C42.0650224,45.8739554 40.9069319,46.2807752 40.0118653,45.793439 C39.1010958,45.2976273 38.7399285,44.0814055 39.199239,43.0982575 L42.4811499,36.1060414 C42.799134,35.4280084 43.4311767,35 44.1378082,35 C44.432238,35 44.7148906,35.0805164 44.9818403,35.2245985 C45.4293736,35.4703854 45.7552092,35.881443 45.904387,36.3814924 C46.0614162,36.8984926 46.0260846,37.4366814 45.7905408,37.9155422 Z M69.2068483,30.7221307 C69.2030532,31.505956 68.5806675,32.1253692 67.8140703,32.1253692 L39.4423867,32.1177222 C41.7611532,29.2347743 43.0932106,26.6500623 43.3133226,24.4094689 C43.4765092,22.6353471 42.9565893,21.5035797 42.5732908,20.9415196 C42.0989114,20.0391645 41.2351247,19.4546533 38.7076312,19.4546533 C35.4021555,19.4546533 29.6102415,22.5971117 26.2136849,24.225939 L26.2136849,16.3265088 L69.2106433,16.3265088 L69.2068483,30.7221307 Z M69.2106433,10.791183 L26.2508441,10.7618575 L26.2508441,4.99059649 C26.2508441,3.79998065 26.8732299,2.83810382 27.639827,2.83810382 L67.8292505,2.791183 C68.5882575,2.791183 69.2220284,3.83517127 69.2220284,5.019922 L69.2106433,10.791183 Z" id="Shape"></path>
            <polygon id="Path" points="65.9612903 29.4447484 65.9311215 25.7472 54.9987097 25.7397677 55.0326496 29.4447484"></polygon>
        </g>
    </g>
</svg>