<svg xmlns="http://www.w3.org/2000/svg" width="60" height="60" viewBox="0 0 60 60">
    <g fill="none" fill-rule="evenodd" transform="translate(2 2)">
        <circle cx="28" cy="28" r="28" stroke="#EA0B4B" stroke-width="2.5"/>
        <path fill="#EA0B4B" fill-rule="nonzero" d="M37.463 28.21a13.75 13.75 0 0 0-4.977-2.719 7.812 7.812 0 0 0 3.754-6.672c0-4.307-3.477-7.792-7.774-7.792-4.297 0-7.774 3.496-7.774 7.792 0 2.824 1.5 5.308 3.754 6.672a13.864 13.864 0 0 0-4.924 2.686c-2.721 2.356-4.33 5.309-4.829 8.858a14.368 14.368 0 0 0-.117 1.801v.725a5.662 5.662 0 0 0 5.658 5.671H36.72a5.662 5.662 0 0 0 5.658-5.67v-.726c0-.607-.043-1.215-.117-1.8-.437-3.68-2.036-6.622-4.797-8.827zm-14.787-9.298c0-3.191 2.589-5.785 5.773-5.785 3.185 0 5.773 2.594 5.773 5.785 0 3.08-2.416 5.604-5.44 5.776h-.666c-3.023-.172-5.44-2.695-5.44-5.776zm13.296 24.152H20.734a3.667 3.667 0 0 1-3.658-3.665v-.67c0-6.12 4.877-11.125 10.943-11.302.108.01.226.01.334.01.108 0 .226 0 .334-.01 6.066.177 10.942 5.183 10.942 11.302v.67a3.667 3.667 0 0 1-3.657 3.665z"/>
    </g>
</svg>
