<?xml version="1.0" encoding="UTF-8"?>
<svg width="76px" height="76px" viewBox="0 0 76 76" version="1.1" xmlns="http://www.w3.org/2000/svg" xmlns:xlink="http://www.w3.org/1999/xlink">
    <!-- Generator: Sketch 54.1 (76490) - https://sketchapp.com -->
    <title>ic copy 4</title>
    <desc>Created with Sketch.</desc>
    <g id="ic-copy-4" stroke="none" stroke-width="1" fill="none" fill-rule="evenodd">
        <g id="briefcase" transform="translate(10.000000, 14.000000)" fill="#EA0B4B" fill-rule="nonzero">
            <path d="M51.9198617,7.20010687 L40.1199585,7.20010687 L40.1199585,4.80003375 C40.1199585,2.15279832 38.0031533,0 35.3999309,0 L21.2399585,0 C18.6368467,0 16.5199309,2.15268582 16.5199309,4.80003375 L16.5199309,7.19999438 L4.72002766,7.19999438 C2.11680524,7.20010687 0,9.35279269 0,12.0000281 L0,43.1999663 C0,45.8472017 2.11680524,48 4.72002766,48 L51.9199723,48 C54.5230841,48 56.64,45.8473142 56.64,43.1999663 L56.64,12.0000281 C56.6398894,9.35279269 54.5230841,7.20010687 51.9198617,7.20010687 Z M18.88,4.80003375 C18.88,3.47703478 19.9390111,2.40007312 21.2399585,2.40007312 L35.3999309,2.40007312 C36.7008783,2.40007312 37.7598894,3.47703478 37.7598894,4.80003375 L37.7598894,7.19999438 L18.88,7.19999438 L18.88,4.80003375 Z M54.2799309,43.2000787 C54.2799309,44.5230777 53.2209198,45.6000394 51.9199723,45.6000394 L4.72002766,45.6000394 C3.4190802,45.6000394 2.36006914,44.5230777 2.36006914,43.2000787 L2.36006914,25.7325549 C3.0571159,26.1458796 3.85649059,26.4001294 4.72002766,26.4001294 L23.6000277,26.4001294 L23.6000277,30.0001266 C23.6000277,30.663426 24.1278185,31.2001631 24.7800622,31.2001631 L31.8600484,31.2001631 C32.5122921,31.2001631 33.040083,30.663426 33.040083,30.0001266 L33.040083,26.4001294 L51.920083,26.4001294 C52.78362,26.4001294 53.5831053,26.1459921 54.2800415,25.7325549 L54.2800415,43.2000787 L54.2799309,43.2000787 Z M25.9599862,28.80009 L25.9599862,24.0000562 L30.6800138,24.0000562 L30.6800138,28.80009 L25.9599862,28.80009 L25.9599862,28.80009 Z M54.2799309,21.6000956 C54.2799309,22.9230946 53.2209198,24.0000562 51.9199723,24.0000562 L33.0399723,24.0000562 L33.0399723,22.8000197 C33.0399723,22.1367202 32.5121815,21.5999831 31.8599378,21.5999831 L24.7799516,21.5999831 C24.1277079,21.5999831 23.599917,22.1367202 23.599917,22.8000197 L23.599917,24.0000562 L4.72002766,24.0000562 C3.4190802,24.0000562 2.36006914,22.9230946 2.36006914,21.6000956 L2.36006914,12.0001406 C2.36006914,10.6771417 3.4190802,9.60018 4.72002766,9.60018 L51.9199723,9.60018 C53.2209198,9.60018 54.2799309,10.6771417 54.2799309,12.0001406 L54.2799309,21.6000956 Z" id="Shape"></path>
        </g>
    </g>
</svg>