<svg xmlns="http://www.w3.org/2000/svg" width="64" height="51" viewBox="0 0 64 51">
    <g fill="none" fill-rule="evenodd">
        <path fill="#EA0B4B" d="M2.586 0H43.96c1.422 0 2.585 1.21 2.585 2.69v21.528c0 1.48-1.163 2.691-2.585 2.691H2.586C1.164 26.91 0 25.7 0 24.22V2.69C0 1.21 1.164 0 2.586 0z"/>
        <g transform="translate(16 4.364)">
            <path fill="#FFF" fill-rule="nonzero" d="M12.293 7.818c0-.301-.326-.545-.727-.545H4.079c-.401 0-.726.244-.726.545 0 .301.325.546.726.546h7.487c.401 0 .727-.245.727-.546zM10.803 10.727c0-.301-.272-.545-.606-.545H3.958c-.334 0-.605.244-.605.545 0 .302.27.546.605.546h6.239c.334 0 .606-.244.606-.546zM10.058 13.636a.545.545 0 0 0-.545-.545H3.898a.545.545 0 0 0 0 1.09h5.615a.545.545 0 0 0 .545-.545zM11.566 4.364H4.079c-.401 0-.726.244-.726.545 0 .301.325.546.726.546h7.487c.401 0 .727-.245.727-.546 0-.301-.326-.545-.727-.545z"/>
            <rect width="13.773" height="16.682" x=".75" y=".75" stroke="#FFF" stroke-width="1.5" rx="4.5"/>
        </g>
        <g fill-rule="nonzero">
            <path fill="#EFCCBF" d="M63.025 45.231l-8.14-8.14a15.668 15.668 0 0 1-4.703 4.703l8.14 8.14c1.3 1.3 3.407 1.3 4.703 0a3.324 3.324 0 0 0 0-4.703zM54.545 28c0-7.43-6.024-13.455-13.454-13.455-7.43 0-13.455 6.025-13.455 13.455s6.025 13.455 13.455 13.455S54.545 35.43 54.545 28zM41.091 38.09c-5.565 0-10.09-4.525-10.09-10.09 0-5.564 4.525-10.09 10.09-10.09 5.564 0 10.091 4.526 10.091 10.09 0 5.565-4.527 10.09-10.091 10.09z"/>
            <path fill="#C9A8A3" d="M33.455 28.403c.216 2.206 2.33 1.538 2.25 0 0-3.165 2.525-5.74 5.628-5.74 2.175-.151 2.027-2.38 0-2.297-4.343 0-7.878 3.606-7.878 8.037z"/>
        </g>
    </g>
</svg>
