<?xml version="1.0" encoding="UTF-8"?>
<svg width="76px" height="76px" viewBox="0 0 76 76" version="1.1" xmlns="http://www.w3.org/2000/svg" xmlns:xlink="http://www.w3.org/1999/xlink">
    <!-- Generator: Sketch 54.1 (76490) - https://sketchapp.com -->
    <title>ic copy 2</title>
    <desc>Created with Sketch.</desc>
    <g id="ic-copy-2" stroke="none" stroke-width="1" fill="none" fill-rule="evenodd">
        <g id="support-(2)-copy" transform="translate(2.000000, 2.000000)" fill="#EA0B4B" fill-rule="nonzero">
            <path d="M63.1131593,28.8226319 C59.9897461,28.8226319 57.0531007,30.0393676 54.8448486,32.2476196 L50.9425048,36.1499633 L27.1230469,36.1499633 C23.5420532,36.1499633 20.175293,37.5446777 17.6434937,40.076477 L11.1467285,46.5732422 L10.3787843,45.8052978 C9.55535892,44.9813233 8.21942142,44.9813233 7.39599609,45.8052978 L0.617431641,52.583313 C0.221923828,52.9788208 0,53.515503 0,54.074707 C0,54.6344605 0.221923828,55.1705933 0.617980922,55.5666504 L16.4338989,71.3820191 C16.8453368,71.7940063 17.3853149,72 17.925293,72 C18.465271,72 19.0052491,71.7940063 19.416687,71.3820191 L26.1952515,64.6040039 C26.5907593,64.2084961 26.8132324,63.671814 26.8132324,63.1126098 C26.8132324,62.5528564 26.5907593,62.0167236 26.1952515,61.6212158 L25.4273071,60.8532715 L27.8366089,58.4439697 L47.2977906,58.4439697 C47.8569946,58.4439697 48.3936767,58.2214965 48.7891845,57.8259887 L71.3825684,35.2320556 C71.7786255,34.8365478 72,34.2993164 72,33.7401124 C72,33.1803589 71.7769775,32.6436767 71.3814697,32.2476196 C69.1726684,30.0393676 66.2365723,28.8226319 63.1131593,28.8226319 Z M18.120255,67.8226319 L4,53.7029385 L7.87974496,49.8226319 L22,63.9428869 L18.120255,67.8226319 Z M46.7883253,56.0059545 L26.4267038,56.0059545 C25.8416096,56.0059545 25.2800802,56.2383492 24.8662611,56.6525176 L22.5939331,59.0844395 L13,49.312864 L19.7975527,42.3137489 C21.6131836,40.4965848 24.0271281,39.4956777 26.5945305,39.4956777 L47.1027127,39.4956777 L42.0604426,45.5422054 L31.1545866,45.5422054 C29.9361194,45.5422054 28.9475516,46.5310325 28.9475516,47.7511038 C28.9475516,48.9705999 29.9361194,49.9600023 31.1545866,49.9600023 L42.9748678,49.9600023 C43.5605368,49.9600023 44.1214915,49.7270324 44.5353105,49.312864 L57.7206826,34.1155144 C59.1977866,32.6371632 61.161703,31.8226319 63.2509145,31.8226319 C64.5826071,31.8226319 66.8631472,33.1539667 68,33.7769449 L46.7883253,56.0059545 Z" id="Shape"></path>
            <path d="M24.7033081,31.3313598 L47.2966919,31.3313598 C48.4617921,31.3313598 49.4060669,30.387085 49.4060669,29.2219848 L49.4060669,26.9626465 C49.4060669,20.7729492 45.4855957,16.8283081 42.317688,15.1314697 C43.9052124,13.5247192 44.8873902,11.3192139 44.8873902,8.88739017 C44.8873902,3.98693841 40.9004516,0 36,0 C31.0995484,0 27.1126098,3.98693841 27.1126098,8.88739017 C27.1126098,11.3219605 28.0969848,13.5302124 29.6883546,15.1369629 C25.4696046,17.3973999 22.5939331,21.8490601 22.5939331,26.9604492 L22.5939331,29.2219848 C22.5939331,30.387085 23.5382079,31.3313598 24.7033081,31.3313598 Z M36.0939331,3 C39.1270547,3 41.5939331,5.46752553 41.5939331,8.5 C41.5939331,11.5331214 39.1270547,14 36.0939331,14 C33.0608116,14 30.5939331,11.5331214 30.5939331,8.5 C30.5939331,5.46752553 33.0608116,3 36.0939331,3 L36.0939331,3 Z M25.5939331,27.8207542 C25.5939331,21.8538738 30.3030811,17 36.0939331,17 C41.8923188,17 46.5939331,21.8357551 46.5939331,27.8233426 L46.5939331,28 L25.5939331,28 L25.5939331,27.8207542 Z" id="Shape"></path>
        </g>
    </g>
</svg>