<svg xmlns="http://www.w3.org/2000/svg" width="72" height="72" viewBox="0 0 72 72">
    <g fill="#EA0B4B" fill-rule="nonzero">
        <path d="M63.113 28.823c-3.123 0-6.06 1.216-8.268 3.425l-3.902 3.902h-23.82a13.319 13.319 0 0 0-9.48 3.926l-6.496 6.497-.768-.768a2.109 2.109 0 0 0-2.983 0L.617 52.583a2.11 2.11 0 0 0 .001 2.984l15.816 15.815c.411.412.951.618 1.491.618.54 0 1.08-.206 1.492-.618l6.778-6.778a2.11 2.11 0 0 0 0-2.983l-.768-.768 2.41-2.409h19.46a2.11 2.11 0 0 0 1.492-.618l22.594-22.594a2.108 2.108 0 0 0-.002-2.984 11.618 11.618 0 0 0-8.268-3.425zm-44.993 39L4 53.703l3.88-3.88L22 63.943l-3.88 3.88zm28.668-11.817H26.427c-.585 0-1.147.232-1.56.647l-2.273 2.431L13 49.313l6.798-7a9.546 9.546 0 0 1 6.797-2.817h20.508l-5.043 6.046H31.155a2.208 2.208 0 0 0 0 4.418h11.82c.586 0 1.146-.233 1.56-.647l13.186-15.197a7.767 7.767 0 0 1 5.53-2.293c1.332 0 3.612 1.331 4.749 1.954L46.788 56.006zM24.703 31.331h22.594a2.11 2.11 0 0 0 2.11-2.109v-2.26c0-6.19-3.921-10.134-7.09-11.83a8.86 8.86 0 0 0 2.57-6.245C44.887 3.987 40.9 0 36 0s-8.887 3.987-8.887 8.887c0 2.435.984 4.643 2.575 6.25-4.218 2.26-7.094 6.712-7.094 11.823v2.262a2.11 2.11 0 0 0 2.11 2.11zM36.093 3c3.034 0 5.5 2.468 5.5 5.5 0 3.033-2.466 5.5-5.5 5.5a5.506 5.506 0 0 1-5.5-5.5c0-3.032 2.468-5.5 5.5-5.5zm-10.5 24.82c0-5.966 4.71-10.82 10.5-10.82 5.8 0 10.5 4.836 10.5 10.823V28h-21v-.18z"/>
    </g>
</svg>
