<svg xmlns="http://www.w3.org/2000/svg" width="299" height="255" viewBox="0 0 299 255">
    <defs>
        <linearGradient id="a" x1="0%" y1="50%" y2="50%">
            <stop offset="0%" stop-color="gray" stop-opacity=".25"/>
            <stop offset="54%" stop-color="gray" stop-opacity=".12"/>
            <stop offset="100%" stop-color="gray" stop-opacity=".1"/>
        </linearGradient>
        <linearGradient id="b" x1="42.436%" x2="57.4%" y1="99.166%" y2=".587%">
            <stop offset="0%" stop-color="gray" stop-opacity=".25"/>
            <stop offset="54%" stop-color="gray" stop-opacity=".12"/>
            <stop offset="100%" stop-color="gray" stop-opacity=".1"/>
        </linearGradient>
        <linearGradient id="c" x1="50%" x2="50%" y1="100%" y2="0%">
            <stop offset="0%" stop-color="gray" stop-opacity=".25"/>
            <stop offset="54%" stop-color="gray" stop-opacity=".12"/>
            <stop offset="100%" stop-color="gray" stop-opacity=".1"/>
        </linearGradient>
        <linearGradient id="d" x1="58.129%" x2="41.903%" y1="99.375%" y2=".63%">
            <stop offset="0%" stop-color="gray" stop-opacity=".25"/>
            <stop offset="54%" stop-color="gray" stop-opacity=".12"/>
            <stop offset="100%" stop-color="gray" stop-opacity=".1"/>
        </linearGradient>
        <linearGradient id="e" x1="49.981%" x2="49.981%" y1="100%" y2="-.009%">
            <stop offset="0%" stop-color="gray" stop-opacity=".25"/>
            <stop offset="54%" stop-color="gray" stop-opacity=".12"/>
            <stop offset="100%" stop-color="gray" stop-opacity=".1"/>
        </linearGradient>
        <linearGradient id="f" x1="50%" x2="50%" y1="99.994%" y2="0%">
            <stop offset="0%" stop-color="gray" stop-opacity=".25"/>
            <stop offset="54%" stop-color="gray" stop-opacity=".12"/>
            <stop offset="100%" stop-color="gray" stop-opacity=".1"/>
        </linearGradient>
    </defs>
    <g fill="none" fill-rule="evenodd" transform="translate(-1513 -444)">
        <path fill="#F2F4F6" d="M0 0h2760v2955H0z"/>
        <rect width="741" height="551" x="1293" y="324" fill="#FFF" rx="6"/>
        <g transform="translate(1513 444)">
            <path fill="url(#a)" d="M-12.563 34.813h186.604v135.055H-12.563z" opacity=".5" transform="rotate(-81.42 149.091 22.902)"/>
            <path fill="#F5F5F5" d="M138.864 182.06L166.088 1.626 296.233 21.26l-27.224 180.436z"/>
            <path fill="#E0E0E0" d="M171.612 82.49l93.93 14.171-.858 5.694-93.931-14.172zM169.465 96.72l93.93 14.172-.858 5.693-93.931-14.172zM224.023 43.817l48.39 7.3-.86 5.694-48.39-7.3z"/>
            <path fill="#EA0B4B" d="M226.147 58.695l39.85 6.013-.858 5.693-39.851-6.012z"/>
            <path fill="#E0E0E0" d="M167.315 110.953l82.548 12.454-.86 5.694-82.547-12.455zM165.166 125.185l71.16 10.737-.858 5.693-71.16-10.736zM163.02 139.417l62.621 9.448-.859 5.694-62.622-9.449zM160.872 153.65l79.7 12.024-.86 5.694-79.699-12.025z"/>
            <path fill="#6C63FF" d="M158.728 167.88l31.309 4.724-.86 5.694-31.308-4.724z"/>
            <path fill="url(#b)" d="M38.26 22.33A19.214 19.214 0 1 0 6.283 33.634v.085a6.576 6.576 0 0 0 1.947 1.705l.037-.082c.774.897 4.336 2.683 8.642 3.32h.096c2.727.416 5.758.379 8.57-.637l.082-.136a6.845 6.845 0 0 0 1.977-.958l.061-.212A19.193 19.193 0 0 0 38.26 22.33z" opacity=".5" transform="translate(176.59 29.318)"/>
            <circle cx="195.767" cy="48.082" r="18.637" fill="#F5F5F5" transform="rotate(-81.42 195.767 48.082)"/>
            <path fill="#FDA57D" d="M187.272 54.222s-4.432-.304-4.49 7.871a6.378 6.378 0 0 0 1.888 1.647l3.73-7.988-1.128-1.53zM201.522 56.373s4.336 1.022 1.97 8.846a6.378 6.378 0 0 1-2.29 1.023l-1.211-8.73 1.53-1.14z"/>
            <path fill="#333" d="M189.44 41.144s-3.007 5.765-4.06 5.022c0 0 9.565 11.158 20.71 3.123a29.284 29.284 0 0 0-3.348-6.137l-13.302-2.008z"/>
            <circle cx="196.593" cy="41.645" r="8.26" fill="#333" transform="rotate(-81.42 196.593 41.645)"/>
            <path fill="#000" d="M201.436 56.36l-14.25-2.149-2.188 5.5s-1.18 2.519-.382 3.828c.798 1.309 9.474 5.314 16.704 2.727a7.517 7.517 0 0 0 .907-4.722c-.358-2.775-.16-.218-.16-.218l-.63-4.967z" opacity=".1"/>
            <path fill="#000" d="M201.627 56.39l-14.25-2.148-2.185 5.495s-1.18 2.52-.382 3.829c.798 1.309 9.474 5.315 16.705 2.727a7.517 7.517 0 0 0 .907-4.721c-.358-2.775-.16-.219-.16-.219l-.635-4.963z" opacity=".1"/>
            <path fill="#FDD835" d="M201.522 56.373l-14.25-2.148-2.189 5.499s-1.18 2.52-.382 3.828c.798 1.31 9.474 5.315 16.705 2.728a7.517 7.517 0 0 0 .906-4.722c-.357-2.775-.16-.218-.16-.218l-.63-4.967z"/>
            <path fill="#000" d="M192.352 50.17l5.7.86-.776 5.144a2.294 2.294 0 0 1-2.611 1.926l-1.167-.176a2.294 2.294 0 0 1-1.926-2.61l.776-5.145h.004z" opacity=".1"/>
            <path fill="#FDA57D" d="M192.38 49.958l5.7.86-.777 5.145a2.294 2.294 0 0 1-2.61 1.926l-1.163-.176a2.294 2.294 0 0 1-1.927-2.61l.776-5.145z"/>
            <path fill="#000" d="M192.273 50.765a8.294 8.294 0 0 0 5.696.876l.106-.699-5.7-.859-.102.682z" opacity=".1"/>
            <circle cx="196.325" cy="43.417" r="8.26" fill="#FDA57D" transform="rotate(-81.42 196.325 43.417)"/>
            <path fill="#333" d="M188.966 39.13l15.58 2.348s-.382-6.477-6.331-6.978c-5.95-.501-9.25 4.63-9.25 4.63z"/>
            <ellipse cx="188.376" cy="41.858" fill="#FDA57D" rx="1.442" ry="1" transform="rotate(-81.42 188.376 41.858)"/>
            <ellipse cx="204.336" cy="44.268" fill="#FDA57D" rx="1.442" ry="1" transform="rotate(-81.42 204.336 44.268)"/>
            <path fill="#000" d="M188.942 39.34l15.58 2.35s-.382-6.477-6.331-6.979c-5.949-.5-9.249 4.63-9.249 4.63z" opacity=".1"/>
            <path fill="url(#c)" d="M14.173 9.875h135.439V197.01H14.172z" opacity=".5" transform="rotate(-9.181 245.368 116.568)"/>
            <path fill="#F5F5F5" d="M1.921 48.89l129.885-21.292 29.52 180.075-129.884 21.293z"/>
            <path fill="#E0E0E0" d="M32.042 124.132l93.743-15.367.931 5.682-93.743 15.368zM34.37 138.337l93.743-15.368.931 5.682-93.743 15.368zM70.044 71.23l48.293-7.916.931 5.682-48.292 7.917z"/>
            <path fill="#EA0B4B" d="M76.631 84.737l39.772-6.52.931 5.682-39.771 6.52z"/>
            <path fill="#E0E0E0" d="M36.698 152.54l82.383-13.505.931 5.682-82.382 13.506zM39.026 166.741l71.018-11.642.932 5.682-71.018 11.642zM41.355 180.947l62.496-10.245.932 5.682-62.497 10.246zM43.684 195.148l79.539-13.04.931 5.683-79.539 13.04z"/>
            <path fill="#EA0B4B" d="M46.014 209.354l31.247-5.123.931 5.682-31.246 5.123z"/>
            <path fill="url(#d)" d="M39.56 16.861a19.752 19.752 0 1 0-27.717 21.157l.027.085a6.76 6.76 0 0 0 2.441 1.044v-.092c1.04.634 5.09 1.258 9.505.521h.095c2.8-.453 5.752-1.449 8.182-3.33 0 0 0-.055.034-.157a7.036 7.036 0 0 0 1.633-1.562v-.225a19.732 19.732 0 0 0 5.8-17.44z" opacity=".5" transform="translate(25.91 63.41)"/>
            <circle cx="45.981" cy="83.459" r="19.159" fill="#F5F5F5" transform="rotate(-9.31 45.98 83.46)"/>
            <path fill="#EA0B4B" d="M39.007 92.199s-4.432 1.108-1.91 9.12a6.56 6.56 0 0 0 2.37 1.022l1.128-8.993-1.588-1.15zM53.625 89.802s4.565-.371 4.718 8.035a6.56 6.56 0 0 1-1.92 1.705l-3.94-8.161 1.142-1.579z"/>
            <circle cx="44.139" cy="76.943" r="8.492" fill="#333" transform="rotate(-9.31 44.14 76.943)"/>
            <path fill="#4D8AF0" d="M53.54 89.816l-14.618 2.386-.406 6.072s-.341 2.84.835 3.866c1.176 1.026 10.95 2.209 17.185-2.618a7.728 7.728 0 0 0-.603-4.906c-1.227-2.601-.228-.164-.228-.164l-2.165-4.636z"/>
            <path fill="#4D8AF0" d="M53.734 89.785l-14.618 2.387-.406 6.071s-.34 2.84.835 3.866c1.177 1.026 10.95 2.21 17.186-2.618a7.728 7.728 0 0 0-.604-4.906c-1.227-2.6-.228-.163-.228-.163l-2.165-4.637z"/>
            <path fill="#EA0B4B" d="M53.625 89.802L39.007 92.19 38.6 98.27s-.34 2.84.835 3.866c1.176 1.026 10.95 2.21 17.186-2.618a7.728 7.728 0 0 0-.604-4.906c-1.227-2.6-.228-.163-.228-.163l-2.165-4.647z"/>
            <path fill="#000" d="M42.7 86.609l5.847-.959.875 5.34a2.294 2.294 0 0 1-1.893 2.635l-1.322.216a2.294 2.294 0 0 1-2.635-1.893l-.875-5.339h.003z" opacity=".1"/>
            <path fill="#FDA57D" d="M42.665 86.392l5.847-.958.875 5.339a2.294 2.294 0 0 1-1.892 2.635l-1.323.217a2.294 2.294 0 0 1-2.635-1.893l-.875-5.34h.003z"/>
            <path fill="#000" d="M42.808 87.235c2 .396 4.075.063 5.85-.94l-.12-.72-5.846.961.116.7z" opacity=".1"/>
            <circle cx="44.44" cy="78.763" r="8.492" fill="#FDA57D" transform="rotate(-9.31 44.44 78.763)"/>
            <path fill="#000" d="M35.935 77.11l15.985-2.618s-2.423-6.232-8.396-4.827c-5.973 1.404-7.589 7.445-7.589 7.445z" opacity=".1"/>
            <path fill="#333" d="M35.898 76.895l15.999-2.621s-2.424-6.232-8.397-4.827c-5.973 1.404-7.602 7.448-7.602 7.448z"/>
            <ellipse cx="36.275" cy="80.248" fill="#FDA57D" rx="1" ry="1.487" transform="rotate(-9.181 36.275 80.248)"/>
            <ellipse cx="52.544" cy="77.064" fill="#FDA57D" rx="1" ry="1.483" transform="rotate(-9.31 52.544 77.064)"/>
            <path fill="url(#c)" d="M.215.16H135.27v186.603H.215z" opacity=".5" transform="translate(96.136 56.25)"/>
            <path fill="#FFF" d="M98.069 57.784h131.618v182.478H98.069z"/>
            <path fill="url(#e)" d="M.078 20.444a20.195 20.195 0 1 1 31.463 16.763v.088a6.914 6.914 0 0 1-2.291 1.46l-.027-.09c-.945.812-4.926 2.111-9.501 2.098h-.1c-2.897 0-6.04-.512-8.808-2.008 0 0-.024-.055-.062-.154a7.193 7.193 0 0 1-1.905-1.306l-.031-.228A20.175 20.175 0 0 1 .078 20.444z" opacity=".5" transform="translate(115.568 79.09)"/>
            <circle cx="135.839" cy="99.535" r="19.589" fill="#F5F5F5"/>
            <path fill="#BE7C5E" d="M128.155 106.998s-4.668.378-3.433 8.9a6.706 6.706 0 0 0 2.222 1.416l2.625-8.888-1.414-1.428zM143.301 106.998s4.667.378 3.433 8.9a6.706 6.706 0 0 1-2.223 1.416l-2.614-8.915 1.404-1.401z"/>
            <path fill="#333" d="M128.356 93.058s-.358 1.047-.87 2.257c-1.111 2.645.157 12.811 2.816 13.895 2.983 1.217 6.907 1.995 10.981.508 3.542-1.292 4.633-12.862 2.13-15.682-.293-.34-.6-.658-.92-.978h-14.137z"/>
            <circle cx="135.852" cy="92.455" r="8.683" fill="#333"/>
            <path fill="#000" d="M143.213 106.998h-15.147l-1.415 6.058s-.832 2.805.201 4.04c1.033 1.234 10.681 4.04 17.772.2a7.902 7.902 0 0 0 .201-5.048c-.808-2.826-.201-.201-.201-.201l-1.411-5.05z" opacity=".1"/>
            <path fill="#000" d="M143.414 106.998H128.26l-1.415 6.058s-.831 2.805.202 4.04c1.033 1.234 10.68 4.04 17.771.2a7.902 7.902 0 0 0 .201-5.048c-.808-2.826-.2-.201-.2-.201l-1.405-5.05z" opacity=".1"/>
            <path fill="#333" d="M143.301 106.998h-15.146l-1.415 6.058s-.832 2.805.2 4.04c1.034 1.234 10.682 4.04 17.773.2a7.902 7.902 0 0 0 .2-5.048c-.807-2.826-.2-.201-.2-.201l-1.412-5.05z"/>
            <path fill="#000" d="M132.801 101.97h6.058v5.583a2.294 2.294 0 0 1-2.294 2.295h-1.473a2.294 2.294 0 0 1-2.294-2.295v-5.584h.003z" opacity=".1"/>
            <path fill="#BE7C5E" d="M132.801 101.744h6.058v5.584a2.294 2.294 0 0 1-2.294 2.295h-1.473a2.294 2.294 0 0 1-2.294-2.295v-5.584h.003z"/>
            <path fill="#000" d="M132.811 102.603a8.72 8.72 0 0 0 6.058 0v-.743h-6.058v.743z" opacity=".1"/>
            <circle cx="135.852" cy="94.34" r="8.683" fill="#BE7C5E"/>
            <path fill="#333" d="M127.548 91.043h16.561s-1.415-6.688-7.674-6.259c-6.259.43-8.887 6.26-8.887 6.26z"/>
            <ellipse cx="127.35" cy="93.972" fill="#BE7C5E" rx="1" ry="1.514"/>
            <ellipse cx="144.314" cy="93.972" fill="#BE7C5E" rx="1" ry="1.514"/>
            <path fill="#000" d="M127.548 91.265h16.561s-1.415-6.689-7.674-6.26c-6.259.43-8.887 6.26-8.887 6.26z" opacity=".1"/>
            <path fill="#E0E0E0" d="M115.619 136.909h94.994v5.758h-94.994zM115.619 151.302h94.994v5.758h-94.994zM161.68 90.852h48.938v5.758H161.68z"/>
            <path fill="#EA0B4B" d="M165.995 105.245h40.302v5.758h-40.302z"/>
            <path fill="#E0E0E0" d="M115.619 165.695h83.482v5.758h-83.482zM115.619 180.089h71.966v5.758h-71.966zM115.619 194.485h63.331v5.758h-63.331zM115.619 208.878h80.601v5.758h-80.601z"/>
            <path fill="#EA0B4B" d="M115.619 223.272h31.664v5.758h-31.664z"/>
            <circle cx="29.001" cy="28.827" r="28.769" fill="url(#f)" opacity=".5" transform="translate(193.295 197.386)"/>
            <circle cx="222.297" cy="226.214" r="27.075" fill="#0DA176"/>
            <path fill="#FFF" d="M210.545 222.6l10.153 9.307 14.383-21.15 5.08 4.23-19.463 25.381-14.383-16.074z"/>
        </g>
    </g>
</svg>
