<svg xmlns="http://www.w3.org/2000/svg" width="71" height="48" viewBox="0 0 71 48">
    <g fill="#EA0B4B" fill-rule="nonzero">
        <path d="M66.887 0L27.26.023c-2.272-.004-4.12 1.858-4.117 4.15v1.904c-.842-.365-1.886-.622-3.218-.622-1.666 0-3.047.377-3.2.426-.322.09-.614.25-.864.471L.757 19.683A2.268 2.268 0 0 0 0 21.425L.13 43.37c.03 1.17 1.363 2.123 2.527 2.176.06 0 5.692.237 10.669.237 3.035 0 5.176-.079 6.542-.252 3.981-.506 5.722-1.69 6.444-2.443.748-.55 1.414-1.094 2.11-1.637-.58 2.142.39 4.475 2.426 5.512.658.34 1.4.52 2.133.52a4.69 4.69 0 0 0 3.379-1.451c.43.588.977 1.1 1.665 1.459.663.328 1.4.509 2.137.509a4.708 4.708 0 0 0 4.214-2.613l3.132-6.213c.573-1.138.693-2.431.296-3.638a4.57 4.57 0 0 0-.554-1.097l19.606.012c2.272 0 4.124-1.863 4.128-4.148L71 4.2c.004-2.296-1.841-4.2-4.113-4.2zM37.268 37.375l-3.232 6.9c-.437.954-1.576 1.36-2.462.878-.902-.497-1.262-1.693-.809-2.664l2.66-5.658s.87-2.296 2.26-2.32c.27.008.534.07.782.208.433.243.759.64.91 1.146a2.038 2.038 0 0 1-.109 1.51zm-3.282-5.1l-3.127 2.798h.029c-1.96 1.657-4.291 3.497-7.161 5.567-.216.153-.232.137-.385.347-.009.008-.957.833-4.23 1.23-.894.108-2.766.092-6.638.092-3.367 0-7.559.049-9.85-.028l.038-20.157L18.044 8.966a9.716 9.716 0 0 1 1.727-.166c1.003 0 1.694.174 2.067.534v16.639c0 .845.456 1.621 1.201 2.058.087.048.187.04.278.08v.178l.228-.113c.633.206 1.317.235 1.921-.093 3.823-2.021 11.067-5.235 14.223-5.235.14 0 .26 0 .344.016.012.029.024.045.041.069.066.32.381 3.093-6.088 9.342zm11.169 5.11l-3.233 6.894c-.441.953-1.583 1.354-2.466.874-.898-.49-1.254-1.689-.801-2.658l3.236-6.894c.314-.669.937-1.09 1.634-1.09.29 0 .569.079.832.22.441.243.763.648.91 1.141.155.51.12 1.04-.112 1.513zm23.09-7.093a1.377 1.377 0 0 1-1.373 1.384l-27.977-.008c2.286-2.842 3.6-5.39 3.817-7.6.16-1.75-.352-2.865-.73-3.42-.468-.89-1.32-1.466-3.812-1.466-3.26 0-8.971 3.099-12.32 4.705v-7.789h42.4l-.004 14.194zm.004-19.652l-42.363-.029v-5.69c0-1.174.614-2.123 1.37-2.123l39.631-.046c.749 0 1.374 1.03 1.374 2.198l-.012 5.69z"/>
        <path d="M64.395 28.958l-.03-4.94-10.702-.01.033 4.95z"/>
    </g>
</svg>
