<svg xmlns="http://www.w3.org/2000/svg" width="58" height="52" viewBox="0 0 58 52">
    <path fill="none" fill-rule="evenodd" stroke="#EA0B4B" stroke-width="2.8" d="M20.085 36.425a9.476 9.476 0 0 1-.925-4.097c0-5.275 4.298-9.552 9.6-9.552s9.6 4.277 9.6 9.552a9.478 9.478 0 0 1-.849 3.933l7.208 4.689-7.208-4.689a9.604 9.604 0 0 1-8.751 5.62 9.605 9.605 0 0 1-8.675-5.456l-6.96 4.498A5.92 5.92 0 0 1 14 44.03C14 47.327 11.314 50 8 50s-6-2.673-6-5.97c0-3.297 2.686-5.97 6-5.97 2.17 0 4.07 1.146 5.124 2.863l6.961-4.498zM28.76 13.94c-3.314 0-6-2.673-6-5.97 0-3.297 2.686-5.97 6-5.97s6 2.673 6 5.97c0 3.297-2.686 5.97-6 5.97zM50 49.88c-3.314 0-6-2.672-6-5.97 0-3.297 2.686-5.97 6-5.97s6 2.673 6 5.97c0 3.298-2.686 5.97-6 5.97zM29 13.94v8.012-8.012z"/>
</svg>
