<svg xmlns="http://www.w3.org/2000/svg" viewBox="0 0 6 6"><defs><style>.a{fill:#656565;}</style></defs><path class="a" d="M3.863,3.1a.132.132,0,0,1,0-.192L5.918.849A.3.3,0,0,0,6,.658.3.3,0,0,0,5.918.466L5.534.082A.3.3,0,0,0,5.342,0a.249.249,0,0,0-.192.082L3.1,2.137a.132.132,0,0,1-.192,0L.849.082A.3.3,0,0,0,.658,0,.3.3,0,0,0,.466.082L.082.466A.3.3,0,0,0,0,.658.3.3,0,0,0,.082.849L2.137,2.9a.132.132,0,0,1,0,.192L.082,5.151a.265.265,0,0,0,0,.384l.384.384A.3.3,0,0,0,.658,6a.3.3,0,0,0,.192-.082L2.9,3.863a.132.132,0,0,1,.192,0L5.151,5.918a.265.265,0,0,0,.384,0l.384-.384a.265.265,0,0,0,0-.384Z"/></svg>