<svg xmlns="http://www.w3.org/2000/svg" width="470" height="336" viewBox="0 0 470 336">
    <defs>
        <linearGradient id="a" x1="49.998%" x2="49.998%" y1="100.04%" y2=".002%">
            <stop offset="0%" stop-color="gray" stop-opacity=".25"/>
            <stop offset="54%" stop-color="gray" stop-opacity=".12"/>
            <stop offset="100%" stop-color="gray" stop-opacity=".1"/>
        </linearGradient>
        <linearGradient id="b" x1="-.012%" x2="99.985%" y1="49.981%" y2="49.981%">
            <stop offset="0%" stop-color="gray" stop-opacity=".25"/>
            <stop offset="54%" stop-color="gray" stop-opacity=".12"/>
            <stop offset="100%" stop-color="gray" stop-opacity=".1"/>
        </linearGradient>
    </defs>
    <g fill="none" fill-rule="evenodd">
        <g transform="translate(-1 -18)">
            <ellipse cx="261.489" cy="345.92" fill="#0DA176" fill-rule="nonzero" opacity=".1" rx="70.507" ry="7.799"/>
            <path fill="#0DA176" fill-rule="nonzero" d="M459.403 245.867c-10.971 22.64-33.26 37.78-56.351 47.763-31.092 13.445-65.331 18.778-99.1 16.523-5.92-.391-11.82-1.02-17.7-1.888a223.239 223.239 0 0 1-59.18-17.25 226.47 226.47 0 0 1-15.986-7.997 204.407 204.407 0 0 1-24.974-16.332 199.244 199.244 0 0 1-5.89-4.676c-1.343-1.107-2.673-2.24-4.023-3.338-2.85-2.317-5.783-4.519-9.055-6.167-.987-.498-1.999-.944-3.032-1.338-10.36-3.941-22.305-2.454-33.09.62-8.196 2.316-16.18 5.518-24.388 7.802a80.962 80.962 0 0 1-11.116 2.363 59.156 59.156 0 0 1-24.986-2.177l-.69-.215a61.975 61.975 0 0 1-3.441-1.194l-.69-.264a53.693 53.693 0 0 1-3.234-1.367l-.69-.314a60.073 60.073 0 0 1-3.234-1.624c-.38-.198-.756-.413-1.128-.615a67.607 67.607 0 0 1-16.176-12.595c-.136-.136-.264-.276-.413-.413a63.975 63.975 0 0 1-1.925-2.172c-.231-.273-.463-.546-.69-.827a64.68 64.68 0 0 1-2.144-2.771c-.103-.137-.202-.277-.301-.413a59.726 59.726 0 0 1-6.969-12.599 8.515 8.515 0 0 1-.16-.413 65.725 65.725 0 0 1-1.508-4.325 44.259 44.259 0 0 1-.52-1.85 13.542 13.542 0 0 1-.15-.55c-2.259-8.972-2.503-18.303-2.503-27.58v-3.243c.066-15.007.298-30.27 2.512-45.07 0-.103.029-.206.045-.306a140.757 140.757 0 0 1 3.02-14.796 109.153 109.153 0 0 1 5.085-14.994c5.093-11.979 12.499-22.88 20.723-32.984 20.695-25.407 47.863-46.767 79.66-54.735 34.265-8.605 72.345-.36 99.984 21.644 8.426 6.709 15.998 14.652 25.461 19.795 8.262 4.477 17.932 6.332 26.78 2.809 7.311-2.892 12.07-4.358 20.281-3.916 17 .959 33.76 4.466 49.717 10.405.645.235 1.29.48 1.93.723 41.6 15.924 77.367 47.544 95.947 88.178.493 1.074.97 2.156 1.433 3.246 11.083 25.867 15.081 56.215 2.859 81.437z" opacity=".1"/>
            <path fill="#0DA176" fill-rule="nonzero" d="M106.634 102.97v156.619a80.962 80.962 0 0 1-11.116 2.363 59.156 59.156 0 0 1-24.986-2.177l-.69-.215a61.975 61.975 0 0 1-3.441-1.194l-.69-.264a53.693 53.693 0 0 1-3.234-1.367l-.69-.314a60.073 60.073 0 0 1-3.234-1.624c-.38-.198-.756-.413-1.128-.615a67.607 67.607 0 0 1-16.176-12.595c-.136-.136-.264-.276-.413-.413a63.975 63.975 0 0 1-1.925-2.172c-.231-.273-.463-.546-.69-.827a64.68 64.68 0 0 1-2.144-2.771c-.103-.137-.202-.277-.301-.413a59.726 59.726 0 0 1-6.969-12.599 8.515 8.515 0 0 1-.16-.413 65.725 65.725 0 0 1-1.508-4.325 44.259 44.259 0 0 1-.52-1.85 13.542 13.542 0 0 1-.15-.55c-2.259-8.972-2.503-18.303-2.503-27.58v-3.243c.066-15.007.298-30.27 2.512-45.07 0-.103.029-.206.045-.306a140.757 140.757 0 0 1 3.02-14.796h42.17v-21.29h8.43V85.874h18.101v17.097h8.39zM459.403 245.867c-10.971 22.64-33.26 37.78-56.351 47.763-31.092 13.445-65.331 18.778-99.1 16.523-5.92-.391-11.82-1.02-17.7-1.888a223.239 223.239 0 0 1-59.18-17.25 226.47 226.47 0 0 1-15.986-7.997 204.407 204.407 0 0 1-24.974-16.332 199.244 199.244 0 0 1-5.89-4.676c-1.343-1.107-2.673-2.24-4.023-3.338-2.85-2.317-5.783-4.519-9.055-6.167-.987-.498-1.999-.944-3.032-1.338v-64.092h76.662v14.263h33.644V97.005h39.601v41.72h19.588v-24.701h16.184V87.637h7.435V72.262c.644.236 1.289.48 1.93.723v14.652h7.244v26.403h16.18v24.702h23.847v94.109h37.903V164.41h12.214c11.083 25.887 15.081 56.235 2.859 81.457z" opacity=".1"/>
            <path fill="#0DA176" fill-rule="nonzero" d="M286.253 112.702h17.7v17.7h-17.7zM286.253 149.395h17.7v17.7h-17.7zM286.253 186.083h17.7v17.7h-17.7zM286.253 222.776h17.7v17.7h-17.7zM286.253 259.469h17.7v17.7h-17.7zM303.953 296.158v13.978c-5.921-.39-11.821-1.02-17.7-1.888v-12.09h17.7zM169.949 209.951h61.956v8.018h-61.956zM169.949 234.297h61.956v8.018h-61.956zM231.905 258.647v8.014h-45.784a199.242 199.242 0 0 1-5.89-4.676c-1.343-1.107-2.673-2.239-4.024-3.338h55.698zM231.905 283.018v8.018h-4.833a232.8 232.8 0 0 1-15.986-8.018h20.82zM333.516 160.63h11.52v11.52h-11.52zM84.022 106.939h11.52v11.52h-11.52zM84.022 133.706h11.52v11.52h-11.52zM84.022 160.473h11.52v11.52h-11.52zM84.022 187.236h11.52v11.52h-11.52zM84.022 214.003h11.52v11.52h-11.52zM84.022 240.77h11.52v11.52h-11.52zM377.508 160.63h11.52v11.52h-11.52zM333.516 189.053h11.52v11.52h-11.52zM377.508 189.053h11.52v11.52h-11.52zM333.516 217.472h11.52v11.52h-11.52zM377.508 217.472h11.52v11.52h-11.52zM333.516 245.896h11.52v11.52h-11.52zM377.508 245.896h11.52v11.52h-11.52zM333.516 274.319h11.52v11.52h-11.52zM377.508 274.319h11.52v11.52h-11.52zM333.516 310.17v-7.432h11.52v6.374zM26.47 139.055v6.61h44.062v-6.61H26.469zm3.924 6.197h-3.235v-5.783h3.235v5.783zm3.924 0h-3.235v-5.783h3.235v5.783zm3.924 0h-3.234v-5.783h3.234v5.783zm3.924 0h-3.234v-5.783h3.234v5.783zm3.924 0h-3.234v-5.783h3.234v5.783zm3.924 0H46.78v-5.783h3.234v5.783zm3.925 0h-3.235v-5.783h3.235v5.783zm3.924 0h-3.235v-5.783h3.235v5.783zm3.924 0h-3.234v-5.783h3.234v5.783zm3.924 0h-3.234v-5.783h3.234v5.783zm4.13 0h-3.44v-5.783h3.44v5.783zM26.47 158.247v6.588h44.062v-6.588H26.469zm3.924 6.175h-3.235v-5.762h3.235v5.762zm3.924 0h-3.235v-5.762h3.235v5.762zm3.924 0h-3.234v-5.762h3.234v5.762zm3.924 0h-3.234v-5.762h3.234v5.762zm3.924 0h-3.234v-5.762h3.234v5.762zm3.924 0H46.78v-5.762h3.234v5.762zm3.925 0h-3.235v-5.762h3.235v5.762zm3.924 0h-3.235v-5.762h3.235v5.762zm3.924 0h-3.234v-5.762h3.234v5.762zm3.924 0h-3.234v-5.762h3.234v5.762zm4.13 0h-3.44v-5.762h3.44v5.762zM26.47 177.434v6.588h44.062v-6.588H26.469zm3.924 6.175h-3.235v-5.762h3.235v5.762zm3.924 0h-3.235v-5.762h3.235v5.762zm3.924 0h-3.234v-5.762h3.234v5.762zm3.924 0h-3.234v-5.762h3.234v5.762zm3.924 0h-3.234v-5.762h3.234v5.762zm3.924 0H46.78v-5.762h3.234v5.762zm3.925 0h-3.235v-5.762h3.235v5.762zm3.924 0h-3.235v-5.762h3.235v5.762zm3.924 0h-3.234v-5.762h3.234v5.762zm3.924 0h-3.234v-5.762h3.234v5.762zm4.13 0h-3.44v-5.762h3.44v5.762zM26.47 196.62v6.61h44.062v-6.61H26.469zm3.924 6.197h-3.235v-5.783h3.235v5.783zm3.924 0h-3.235v-5.783h3.235v5.783zm3.924 0h-3.234v-5.783h3.234v5.783zm3.924 0h-3.234v-5.783h3.234v5.783zm3.924 0h-3.234v-5.783h3.234v5.783zm3.924 0H46.78v-5.783h3.234v5.783zm3.925 0h-3.235v-5.783h3.235v5.783zm3.924 0h-3.235v-5.783h3.235v5.783zm3.924 0h-3.234v-5.783h3.234v5.783zm3.924 0h-3.234v-5.783h3.234v5.783zm4.13 0h-3.44v-5.783h3.44v5.783zM26.639 215.808c.157.62.334 1.239.52 1.85v-1.437h3.235v5.783h-1.727c.05.136.103.277.161.413h41.72v-6.61h-43.91zm7.679 6.196h-3.235v-5.783h3.235v5.783zm3.924 0h-3.234v-5.783h3.234v5.783zm3.924 0h-3.234v-5.783h3.234v5.783zm3.924 0h-3.234v-5.783h3.234v5.783zm3.924 0H46.78v-5.783h3.234v5.783zm3.925 0h-3.235v-5.783h3.235v5.783zm3.924 0h-3.235v-5.783h3.235v5.783zm3.924 0h-3.234v-5.783h3.234v5.783zm3.924 0h-3.234v-5.783h3.234v5.783zm4.13 0h-3.44v-5.783h3.44v5.783zM35.797 234.995c.099.136.198.277.301.413h2.144v2.772c.227.276.458.549.69.826v-3.594h3.234v5.783h-1.31c.129.136.257.277.414.413h29.282V235l-34.755-.004zm10.293 6.196h-3.234v-5.783h3.234v5.783zm3.924 0H46.78v-5.783h3.234v5.783zm3.925 0h-3.235v-5.783h3.235v5.783zm3.924 0h-3.235v-5.783h3.235v5.783zm3.924 0h-3.234v-5.783h3.234v5.783zm3.924 0h-3.234v-5.783h3.234v5.783zm4.13 0h-3.44v-5.783h3.44v5.783zM57.425 254.182c.372.21.747.413 1.128.615v-.202h3.234v1.826l.69.314v-2.14h3.234v3.507l.69.264v-3.771h3.44v4.957l.69.215v-5.585H57.426zM193.291 81.854s-9.843-.591-8.674 6.307a1.681 1.681 0 0 0 .872 1.772s.02-.512 1.012-.338c.353.061.712.08 1.07.053a2.21 2.21 0 0 0 1.305-.54s2.767-1.145 3.845-5.668c0 0 .798-.987.765-1.24l-1.653.711s.566 1.198.12 2.194c0 0-.054-2.153-.372-2.099-.066 0-.863.413-.863.413s.975 2.09.24 3.606c0 0 .28-2.573-.546-3.453l-1.169.682s1.14 2.156.368 3.916c0 0 .198-2.698-.615-3.751l-1.058.826s1.07 2.127.413 3.585c0 0-.087-3.139-.648-3.378a6.61 6.61 0 0 0-1.07 1.152s.735 1.545.28 2.359c0 0-.28-2.095-.507-2.103 0 0-.926 1.388-1.02 2.338.044-.881.319-1.736.797-2.478-.534.1-1.026.354-1.417.73 0 0 .144-.978 1.652-1.065 0 0 .764-1.053.967-1.115 0 0-1.492-.124-2.396.277 0 0 .797-.926 2.668-.509l1.05-.85s-1.992-.269-2.818.02c0 0 .959-.826 3.078-.223l1.14-.681a10.418 10.418 0 0 0-2.673-.232s1.053-.566 3.003.05l.826-.368s-1.239-.24-1.586-.277c-.347-.037-.38-.14-.38-.14a4.263 4.263 0 0 1 2.305.256s1.722-.644 1.69-.74zM167.442 115.407s-3.363 9.274 3.58 10.12a1.69 1.69 0 0 0 1.95-.334s-.487-.165-.037-1.066a4.63 4.63 0 0 0 .352-1.012 2.218 2.218 0 0 0-.145-1.404s-.31-2.978-4.346-5.296c0 0-.718-1.045-.97-1.086l.21 1.793s1.31-.203 2.136.508c0 0-2.065-.558-2.12-.24 0 .066.154.946.154.946s2.28-.343 3.527.797c0 0-2.387-1-3.47-.458l.323 1.313s2.396-.483 3.862.76c0 0-2.532-.958-3.771-.475l.491 1.24s2.342-.414 3.557.62c0 0-3.036-.827-3.425-.34.212.481.481.935.802 1.351 0 0 1.69-.264 2.342.413 0 0-2.086-.326-2.16-.107 0 0 1.065 1.28 1.95 1.652a5.052 5.052 0 0 1-2.145-1.462 2.8 2.8 0 0 0 .302 1.561s-.9-.413-.554-1.875c0 0-.793-1.033-.797-1.24 0 0-.541 1.393-.413 2.372 0 0-.665-1.025.273-2.702l-.525-1.239s-.826 1.805-.764 2.685c0 0-.512-1.148.66-3.011l-.33-1.285a10.22 10.22 0 0 0-.979 2.478s-.243-1.169.9-2.866l-.119-.888s-.582 1.107-.719 1.441c-.136.335-.24.327-.24.327a4.23 4.23 0 0 1 .901-2.136s-.128-1.85-.243-1.855zM232.723 107.596s-3.367 9.27 3.581 10.116a1.673 1.673 0 0 0 1.946-.334s-.483-.161-.037-1.066c.156-.321.275-.66.355-1.008a2.235 2.235 0 0 0-.149-1.409s-.31-2.978-4.341-5.295c0 0-.719-1.041-.97-1.086l.206 1.796s1.317-.194 2.144.508c0 0-2.066-.561-2.12-.24 0 .067.153.947.153.947s2.28-.343 3.524.793c0 0-2.388-1-3.466-.459l.322 1.314s2.392-.48 3.858.76c0 0-2.532-.954-3.767-.475l.492 1.24s2.342-.414 3.556.615c0 0-3.04-.826-3.424-.339.211.482.48.937.801 1.355 0 0 1.69-.269 2.338.413 0 0-2.086-.326-2.16-.112 0 0 1.07 1.28 1.954 1.653-.83-.294-1.57-.8-2.144-1.467-.055.54.05 1.085.301 1.566 0 0-.9-.413-.557-1.88 0 0-.793-1.028-.793-1.239 0 0-.546 1.392-.413 2.375 0 0-.661-1.024.272-2.701l-.52-1.24s-.826 1.806-.769 2.69c0 0-.512-1.153.661-3.016l-.326-1.284c-.432.78-.761 1.613-.979 2.478 0 0-.248-1.169.896-2.867l-.12-.884s-.578 1.107-.718 1.442c-.14.335-.236.322-.236.322.096-.781.406-1.52.897-2.135 0 0-.136-1.847-.248-1.847zM139.407 183.386s-3.363 9.273 3.58 10.116a1.681 1.681 0 0 0 1.95-.334s-.487-.162-.037-1.062a4.49 4.49 0 0 0 .352-1.012 2.23 2.23 0 0 0-.145-1.409s-.31-2.978-4.341-5.295c0 0-.723-1.041-.975-1.087l.21 1.797s1.31-.202 2.14.508c0 0-2.065-.561-2.123-.24 0 .067.153.947.153.947s2.28-.343 3.527.793c0 0-2.387-1-3.47-.459l.327 1.314s2.392-.48 3.858.76c0 0-2.532-.954-3.771-.475l.491 1.24s2.342-.414 3.557.615c0 0-3.036-.827-3.425-.34.212.484.482.94.806 1.356 0 0 1.685-.269 2.338.413 0 0-2.086-.327-2.16-.112 0 0 1.065 1.28 1.95 1.653a5.056 5.056 0 0 1-2.14-1.467c-.055.54.048 1.084.297 1.566 0 0-.896-.413-.554-1.88 0 0-.793-1.028-.797-1.239 0 0-.54 1.396-.413 2.375 0 0-.66-1.024.273-2.701l-.52-1.24s-.827 1.806-.769 2.69c0 0-.512-1.153.66-3.012l-.33-1.289c-.432.78-.76 1.614-.979 2.479 0 0-.243-1.17.9-2.867l-.119-.884s-.582 1.107-.719 1.442c-.136.334-.24.322-.24.322.099-.781.41-1.52.901-2.136 0 0-.128-1.846-.243-1.846zM126.056 95.98s-3.366 9.274 3.577 10.12a1.69 1.69 0 0 0 1.95-.334s-.483-.165-.037-1.065a4.42 4.42 0 0 0 .351-1.012 2.235 2.235 0 0 0-.145-1.409s-.31-2.978-4.34-5.291c0 0-.72-1.045-.976-1.087l.21 1.793s1.31-.202 2.14.508c0 0-2.065-.558-2.118-.24 0 .066.152.946.152.946s2.276-.343 3.524.793c0 0-2.388-.995-3.466-.458l.322 1.318s2.392-.484 3.858.76c0 0-2.532-.959-3.767-.48l.492 1.24s2.342-.413 3.552.615c0 0-3.036-.826-3.424-.334.212.481.482.935.805 1.35 0 0 1.686-.264 2.338.413 0 0-2.086-.326-2.16-.107 0 0 1.07 1.28 1.95 1.652a5.027 5.027 0 0 1-2.14-1.462c-.055.539.05 1.082.302 1.561 0 0-.901-.413-.558-1.875 0 0-.793-1.033-.797-1.24 0 0-.541 1.397-.413 2.376 0 0-.661-1.024.272-2.701l-.52-1.24s-.826 1.805-.769 2.685c0 0-.512-1.148.661-3.011l-.33-1.285c-.431.781-.76 1.614-.98 2.479 0 0-.243-1.173.901-2.867l-.12-.888s-.578 1.107-.718 1.442c-.14.334-.24.322-.24.322.098-.781.41-1.52.9-2.136 0 0-.127-1.846-.239-1.85zM151.018 146.462s2.598 9.5 8.757 6.196a1.685 1.685 0 0 0 1.4-1.396s-.491.148-.644-.847c-.06-.354-.158-.7-.293-1.033a2.255 2.255 0 0 0-.934-1.066s-1.97-2.25-6.609-1.821c0 0-1.19-.438-1.417-.326l1.202 1.346s.954-.921 2.04-.826c0 0-2.02.74-1.866 1.024.029.062.669.686.669.686s1.652-1.594 3.337-1.384c0 0-2.527.562-3.098 1.624l1.025.892s1.673-1.776 3.59-1.607c0 0-2.62.678-3.355 1.785l1.124.739s1.652-1.698 3.259-1.55c0 0-2.95 1.091-2.99 1.699.449.273.93.49 1.433.644 0 0 1.239-1.19 2.144-1.02 0 0-1.892.933-1.83 1.156 0 0 1.61.413 2.54.215a5.015 5.015 0 0 1-2.594.037c.268.473.666.857 1.148 1.107 0 0-.975.178-1.536-1.214 0 0-1.24-.384-1.368-.558 0 0 .36 1.45 1.029 2.177 0 0-1.132-.454-1.334-2.363l-1.144-.718s.375 1.945.925 2.64c0 0-1.082-.645-1.198-2.843l-1.012-.859c.098.892.314 1.767.64 2.602 0 0-.876-.826-.921-2.862l-.607-.653s.165 1.24.244 1.59c.078.352 0 .414 0 .414a4.23 4.23 0 0 1-.496-2.264s-1.17-1.43-1.26-1.363zM221.5 154.967s2.598 9.5 8.761 6.196a1.681 1.681 0 0 0 1.396-1.396s-.487.148-.644-.847a4.436 4.436 0 0 0-.293-1.033 2.243 2.243 0 0 0-.93-1.065s-1.97-2.252-6.609-1.822c0 0-1.19-.438-1.42-.326l1.205 1.346s.954-.92 2.04-.826c0 0-2.019.74-1.87 1.029.029.057.669.681.669.681s1.652-1.594 3.337-1.384c0 0-2.523.562-3.093 1.624l1.02.892s1.677-1.776 3.59-1.607c0 0-2.62.678-3.355 1.785l1.124.739s1.652-1.698 3.263-1.549c0 0-2.95 1.09-2.995 1.702a6.44 6.44 0 0 0 1.438.64s1.239-1.19 2.14-1.02c0 0-1.892.938-1.826 1.156 0 0 1.61.413 2.54.215a5.015 5.015 0 0 1-2.594.037c.266.474.666.859 1.148 1.107 0 0-.974.178-1.54-1.214 0 0-1.24-.384-1.368-.558 0 0 .364 1.45 1.033 2.181 0 0-1.132-.458-1.334-2.367l-1.144-.718s.371 1.945.92 2.64c0 0-1.081-.645-1.197-2.843l-1.008-.859c.098.891.312 1.766.636 2.602 0 0-.876-.826-.917-2.862l-.607-.653s.165 1.24.244 1.59c.078.352 0 .414 0 .414a4.23 4.23 0 0 1-.496-2.264s-1.17-1.45-1.264-1.363z" opacity=".1"/>
            <path fill="#0DA176" fill-rule="nonzero" d="M394.881 295.77l4.16 4.39 6.597-11.623-.595-1.305z"/>
            <path fill="#000" fill-rule="nonzero" d="M394.881 295.77l4.16 4.39 6.597-11.623-.595-1.305z" opacity=".2"/>
            <path fill="#636780" fill-rule="nonzero" d="M102.47 285.819c0 22.058-15.106 26.738-30.245 26.738-15.139 0-23.66-18.588-23.66-40.654 0-22.067 12.272-39.944 27.41-39.944 15.14 0 26.495 31.802 26.495 53.86z"/>
            <path fill="#000" fill-rule="nonzero" d="M102.47 285.819c0 22.058-15.106 26.738-30.245 26.738-15.139 0-23.66-18.588-23.66-40.654 0-22.067 12.272-39.944 27.41-39.944 15.14 0 26.495 31.802 26.495 53.86z" opacity=".2"/>
            <path fill="#636780" fill-rule="nonzero" d="M92.003 272.613c0 22.058-9.724 39.944-21.72 39.944-11.995 0-22.194-17.886-22.194-39.944 0-3.048-.47-6.014-.12-8.864 2.194-17.791 11.98-31.076 22.306-31.076 12.004 0 21.728 17.882 21.728 39.94z"/>
            <path fill="#0DA176" fill-rule="nonzero" d="M89.838 175.385S70.8 196.732 64.753 214.523l164.401 18.15 88.066-18.15s-34.88-41.794-44.305-43.41c-9.427-1.614-183.077 4.272-183.077 4.272z"/>
            <path fill="#000" fill-rule="nonzero" d="M89.838 175.385S70.8 196.732 64.753 214.523l164.401 18.15 88.066-18.15s-34.88-41.794-44.305-43.41c-9.427-1.614-183.077 4.272-183.077 4.272z" opacity=".4"/>
            <path fill="#0DA176" fill-rule="nonzero" d="M210.471 229.691l26.387 74.03v-18.737l7.344-20.975 20.348-9.01 25.8 11.707 9.228 2.883.806-17.076-30.675-15.122-14.28-6.853-32.686-2.85-9.017-1.611z"/>
            <path fill="#0DA176" fill-rule="nonzero" d="M222.24 237.39l24.007 2.756c-1.09-9.587 6.027-9.587 6.027-9.587l-24.016-4.156h-11.211"/>
            <path fill="#636780" fill-rule="nonzero" d="M236.858 315.105h17.018l49.283-1.652s1.066 9.397 14.045 7.188c0 0 7.146.458 7.914-3.425.769-3.883-16.275-39.766-16.275-39.766l-23.235-17.349-21.066-5.114-15.123 4.45-9.608 15.283-6.047 20.922 3.094 19.463z"/>
            <path fill="#000" fill-rule="nonzero" d="M236.858 315.105h17.018l49.283-1.652s1.066 9.397 14.045 7.188c0 0 7.146.458 7.914-3.425.769-3.883-16.275-39.766-16.275-39.766l-23.235-17.349-21.066-5.114-15.123 4.45-9.608 15.283-6.047 20.922 3.094 19.463z" opacity=".2"/>
            <path fill="#0DA176" fill-rule="nonzero" d="M93.151 180.495c-2.437 1.99-10.137 9.133-16.552 24.234a3.652 3.652 0 0 0 2.892 5.06l38.655 5.01a5.84 5.84 0 0 0 6.427-4.402l6.795-27.721a2.768 2.768 0 0 0-2.742-3.429l-33.777.628a2.739 2.739 0 0 0-1.698.62z"/>
            <path fill="#FFF" fill-rule="nonzero" d="M93.151 180.495c-2.437 1.99-10.137 9.133-16.552 24.234a3.652 3.652 0 0 0 2.892 5.06l38.655 5.01a5.84 5.84 0 0 0 6.427-4.402l6.795-27.721a2.768 2.768 0 0 0-2.742-3.429l-33.777.628a2.739 2.739 0 0 0-1.698.62z" opacity=".2"/>
            <path fill="#0DA176" fill-rule="nonzero" d="M149.324 179.185l43.53-.413c3.135-.029 5.944 2.065 7.001 5.263l13.574 30.827c1.202 3.61-1.397 7.369-4.957 7.163l-63.539-4.185c-5.27-.306-9-5.68-7.782-11.219l4.606-20.93c.83-3.784 3.953-6.473 7.567-6.506z"/>
            <path fill="#FFF" fill-rule="nonzero" d="M149.324 179.185l43.53-.413c3.135-.029 5.944 2.065 7.001 5.263l13.574 30.827c1.202 3.61-1.397 7.369-4.957 7.163l-63.539-4.185c-5.27-.306-9-5.68-7.782-11.219l4.606-20.93c.83-3.784 3.953-6.473 7.567-6.506z" opacity=".2"/>
            <path fill="#0DA176" fill-rule="nonzero" d="M216.99 178.69c11.9-.215 43.438-1.116 59.126-4.73 0 0 26.924 20.281 34.99 35.582 0 0-41.967 10.215-70.952 11.599a10.984 10.984 0 0 1-10.397-6.196l-15.411-31.939a2.999 2.999 0 0 1 2.643-4.317z"/>
            <path fill="#FFF" fill-rule="nonzero" d="M216.99 178.69c11.9-.215 43.438-1.116 59.126-4.73 0 0 26.924 20.281 34.99 35.582 0 0-41.967 10.215-70.952 11.599a10.984 10.984 0 0 1-10.397-6.196l-15.411-31.939a2.999 2.999 0 0 1 2.643-4.317z" opacity=".2"/>
            <path fill="#FFF" fill-rule="nonzero" d="M232.079 183.312c4.956-.087 14.626-.343 24.07-1.05a45.243 45.243 0 0 1 37.27 15.073l.306.347a5.882 5.882 0 0 1-3.214 9.608c-10.417 2.235-28.163 5.647-41.86 6.308a7.848 7.848 0 0 1-7.464-4.428l-10.996-22.79a2.14 2.14 0 0 1 1.888-3.068z" opacity=".1"/>
            <path fill="#0DA176" fill-rule="nonzero" d="M236.858 303.721v11.384l-125.846-19.211c-6.167-2.136-9.847-.827-9.847-.827-4.544-2.218-7.849-10.872-7.944-11.152l2.376-6.878-19.29-31.905-25.665 1.065c4.036-32.265 15.656-33.805 15.656-33.805l150.77 13.995 19.79 77.334z"/>
            <path fill="#000" fill-rule="nonzero" d="M209.736 235.767c-.988 1.083-2.793 2.066-6.122 1.975-5.101-.124-6.068-4.478-6.196-7.076a12.165 12.165 0 0 1 .054-1.908l6.683-2.045 1.367 1.276 4.036 3.78a2.854 2.854 0 0 1 .178 3.998z" opacity=".1"/>
            <path fill="#DCE0ED" fill-rule="nonzero" d="M209.736 235.412c-.988 1.082-2.793 2.065-6.122 1.975-5.101-.124-6.068-4.478-6.196-7.076a12.165 12.165 0 0 1 .054-1.909l6.683-2.044 1.367 1.276 4.036 3.78a2.854 2.854 0 0 1 .178 3.998z"/>
            <path fill="#000" fill-rule="nonzero" d="M205.527 227.634c-.856 2.177-3.383 2.768-3.383 2.768l-4.722-.091a12.165 12.165 0 0 1 .054-1.909l6.683-2.044 1.368 1.276z" opacity=".1"/>
            <path fill="#F0F0F4" fill-rule="nonzero" d="M188.492 210.967s-10.674 1.429-7.828 11.078c2.156 7.311 6.968 7.803 9.174 7.617a36.536 36.536 0 0 1 3.862-.14l8.44.17s4.766-1.112 3.432-5.916-7.472-13.61-17.08-12.81z"/>
            <ellipse cx="130.699" cy="233.739" fill="#000" fill-rule="nonzero" opacity=".2" rx="4.924" ry="6.407"/>
            <rect width="18.431" height="4.341" x="122.721" y="231.82" fill="#000" fill-rule="nonzero" opacity=".1" rx="2.171" transform="rotate(6.09 131.937 233.99)"/>
            <rect width="18.431" height="4.341" x="122.722" y="231.462" fill="#F0F0F4" fill-rule="nonzero" rx="2.171" transform="rotate(6.09 131.937 233.633)"/>
            <path fill="#000" fill-rule="nonzero" d="M49.097 275.55s-8.835-8.72 1.896-29.708c0 0 13.76-20.819 35.111 1.958 0 0 12.277 13.697 15.833 35.582l-8.36.177s-8.01-38.787-31.493-36.829c0-.004-17.08 3.02-12.987 28.82z" opacity=".1"/>
            <path fill="#000" fill-rule="nonzero" d="M48.75 276.616s-8.84-8.716 1.896-29.712c0 0 13.76-20.815 35.111 1.958 0 0 12.277 13.701 15.837 35.581l-8.364.178s-8.018-38.779-31.501-36.825c0 0-17.08 3.024-12.979 28.82z" opacity=".1"/>
            <path fill="#0DA176" fill-rule="nonzero" d="M48.75 275.905s-8.84-8.72 1.896-29.712c0 0 13.76-20.814 35.111 1.958 0 0 12.277 13.697 15.837 35.582l-8.364.177s-8.018-38.783-31.501-36.829c0 0-17.08 3.028-12.979 28.824z"/>
            <path fill="#000" fill-rule="nonzero" d="M48.75 275.905s-8.84-8.72 1.896-29.712c0 0 13.76-20.814 35.111 1.958 0 0 12.277 13.697 15.837 35.582l-8.364.177s-8.018-38.783-31.501-36.829c0 0-17.08 3.028-12.979 28.824z" opacity=".2"/>
            <path d="M236.858 303.721v11.384l-125.846-19.211c-6.167-2.136-9.847-.827-9.847-.827-4.544-2.218-7.849-10.872-7.944-11.152l8.365-.178 24.198 3.379 87.946 12.632s15.598 1.78 16.486 2.478c.888.698 6.642 1.495 6.642 1.495z"/>
            <path fill="#000" fill-rule="nonzero" d="M236.858 303.366v11.384l-125.846-19.216c-6.167-2.131-9.847-.826-9.847-.826-4.544-2.218-7.849-10.872-7.944-11.153l8.365-.177 24.198 3.379 87.946 12.631s15.598 1.78 16.486 2.479c.888.698 6.642 1.499 6.642 1.499z" opacity=".1"/>
            <path fill="#0DA176" fill-rule="nonzero" d="M236.858 303.721v11.384l-125.846-19.211c-6.167-2.136-9.847-.827-9.847-.827-4.544-2.218-7.849-10.872-7.944-11.152l8.365-.178 24.198 3.379 87.946 12.632s15.598 1.78 16.486 2.478c.888.698 6.642 1.495 6.642 1.495z"/>
            <path fill="#000" fill-rule="nonzero" d="M236.858 303.721v11.384l-125.846-19.211c-6.167-2.136-9.847-.827-9.847-.827-4.544-2.218-7.849-10.872-7.944-11.152l8.365-.178 24.198 3.379 87.946 12.632s15.598 1.78 16.486 2.478c.888.698 6.642 1.495 6.642 1.495z" opacity=".2"/>
            <path d="M406.703 261.848s-41.988 21.352-93.766 19.216c0 0-11.64.575-12.45-.491-.81-1.066 3.003 4.486 3.003 4.486s1.437-1.504 2.863-1.504c1.425 0 7.939.484 7.939.484s74.435-3.152 93.473-20.055l-1.062-2.136z"/>
            <path fill="#000" fill-rule="nonzero" d="M125.606 287.149c-7.82-25.106-7.402-42.616-5.676-52.873 1.876-11.153 5.668-16.411 5.705-16.46l.285.21c-.037.05-3.784 5.27-5.643 16.341-1.718 10.236-2.131 27.655 5.672 52.695l-.343.087z" opacity=".2"/>
            <path fill="#0DA176" fill-rule="nonzero" d="M407.889 276.149c.314 1.169 1.045 4.4-.116 5.27-.442.331-.826 1.145-1.123 2.111a32.851 32.851 0 0 0-1.008 5.007l-12.103 13.52-20.46 8.009-48.927 3.379-29.535-48.036-66.36-39.027 18.118-1.003c18.121-1.008 69.56-12.392 69.56-12.392l58.19 12.854a38.994 38.994 0 0 1 23.338 15.37c7.084 9.914 10.327 20.654 10.327 20.654.876 1.05 1.214 2.768 1.264 4.651.066 3.07-.636 6.564-1.02 8.233-.145.623-.244.995-.244.995s.033.14.099.405z"/>
            <path fill="#000" fill-rule="nonzero" d="M230.212 301.524s-3.557-38.056 23.131-48.383c0 0 37.54-15.845 59.602 27.213l11.207 24.557s3.2 6.047 11.92 5.87c0 0 41.097-1.24 62.787-15.123l6.762-7.848s-3.379 11.029-6.762 13.52c0 0-13.342 15.655-61.915 18.505 0 0-19.864 2.132-25.854-16.725 0 0-8.125-42.699-49.403-42.344 0 0-24.25.475-24.846 42.224l-6.63-1.466z" opacity=".1"/>
            <path fill="#0DA176" fill-rule="nonzero" d="M230.212 302.234s-3.557-38.052 23.131-48.383c0 0 37.54-15.84 59.602 27.213l11.207 24.553s3.2 6.048 11.92 5.87c0 0 41.097-1.24 62.787-15.122l6.783-7.828s-3.379 11.029-6.762 13.52c0 0-13.342 15.659-61.915 18.505 0 0-19.864 2.136-25.854-16.725 0 0-8.125-42.699-49.403-42.344 0 0-24.251.48-24.846 42.228l-6.65-1.487z"/>
            <path fill="#000" fill-rule="nonzero" d="M230.212 302.234s-3.557-38.052 23.131-48.383c0 0 37.54-15.84 59.602 27.213l11.207 24.553s3.2 6.048 11.92 5.87c0 0 41.097-1.24 62.787-15.122l6.783-7.828s-3.379 11.029-6.762 13.52c0 0-13.342 15.659-61.915 18.505 0 0-19.864 2.136-25.854-16.725 0 0-8.125-42.699-49.403-42.344 0 0-24.251.48-24.846 42.228l-6.65-1.487zM224.049 301.086l-1.607-52.943a54.48 54.48 0 0 0-.413-10.74c-.05-.223-1.326-5.684-3.032-8.786-1.095-1.598-2.024-2.086-2.066-2.094l-.946-.256 1.058-.079c.731.14 1.425.9 2.065 1.962 1.165 1.599 2.536 4.408 3.26 9.195.493 3.57.632 7.18.412 10.777l1.607 52.93-.338.034z" opacity=".2"/>
            <path fill="#000" fill-rule="nonzero" d="M256.718 261.82l-.347.057c0-.04-.74-4.432-3.176-7.922-5.11-7.316-6.779-12.277-6.969-15.59a8.534 8.534 0 0 1 .413-3.395c.797-2.235 2.933-3.887 5.833-4.705l.62.103c-2.789.785-5.37 2.603-6.135 4.722a8.336 8.336 0 0 0-.413 3.35c.207 3.242 1.88 8.108 6.907 15.316 2.52 3.553 3.263 8.018 3.267 8.064zM370.676 244.566c-22.67-13.528-70.66-26.11-71.143-26.234l.09-.347c.484.128 48.524 12.722 71.234 26.275l-.181.306z" opacity=".2"/>
            <path fill="#000" fill-rule="nonzero" d="M403.634 263.315c-8.558-15.056-31.604-27.47-49.432-35.235a320.541 320.541 0 0 0-37.035-13.383l.095-.343a320.541 320.541 0 0 1 37.08 13.4c17.878 7.786 40.994 20.24 49.602 35.383l-.31.178z" opacity=".2"/>
            <ellipse cx="393.698" cy="245.111" fill="#000" fill-rule="nonzero" opacity=".1" rx="4.098" ry="17.407" transform="rotate(-37 393.698 245.111)"/>
            <ellipse cx="393.7" cy="244.399" fill="#DCE0ED" fill-rule="nonzero" rx="4.098" ry="17.407" transform="rotate(-37 393.7 244.4)"/>
            <ellipse cx="394.172" cy="244.436" fill="#000" fill-rule="nonzero" opacity=".1" rx="2.66" ry="14.375" transform="rotate(-37 394.172 244.436)"/>
            <ellipse cx="394.173" cy="244.082" fill="#F0F0F4" fill-rule="nonzero" rx="2.66" ry="14.375" transform="rotate(-37 394.173 244.082)"/>
            <path fill="#000" fill-rule="nonzero" d="M350.927 271.725s1.156-8.72 8.01-10.678c0 0 23.305-6.741 28.377-6.84 0 0 5.246-1.607 8.716 2.305l3.556 4.804s2.479 3.916-3.023 4.626c0 0-28.168 10.327-40.382 11.4a17.22 17.22 0 0 0-2.065.315c-1.785.371-5.531.479-3.19-5.932z" opacity=".1"/>
            <path fill="#F0F0F4" fill-rule="nonzero" d="M351.286 271.37s1.157-8.72 8.005-10.678c0 0 23.306-6.741 28.378-6.84 0 0 5.246-1.612 8.716 2.304l3.56 4.804s2.48 3.912-3.027 4.627c0 0-28.163 10.326-40.378 11.4-.694.063-1.384.168-2.065.314-1.789.372-5.535.48-3.189-5.931z"/>
            <path fill="#000" fill-rule="nonzero" d="M353.74 270.626s1.078-7.456 7.435-9.129c0 0 21.67-5.783 26.383-5.853 0 0 4.878-1.375 8.104 1.97l3.305 4.11s2.313 3.35-2.813 3.958c0 0-26.185 8.84-37.54 9.752-.64.055-1.275.144-1.904.269-1.665.293-5.147.4-2.97-5.077z" opacity=".1"/>
            <path fill="#636780" fill-rule="nonzero" d="M354.1 270.263s1.073-7.436 7.434-9.13c0 0 21.67-5.782 26.383-5.852 0 0 4.878-1.38 8.104 1.97l3.305 4.13s2.313 3.347-2.813 3.958c0 0-26.189 8.84-37.544 9.752-.636.055-1.27.145-1.896.269-1.673.297-5.155.388-2.974-5.097z"/>
            <path fill="#F0F0F4" fill-rule="nonzero" d="M355.929 265.67l-.045-.356c.318-.037 31.967-3.97 38.778-9.228l.22.281c-6.89 5.308-37.648 9.133-38.953 9.302zM354.264 269.767l-.062-.351c.347-.062 35.165-6.51 42.675-11.153l.19.302c-7.568 4.68-42.452 11.136-42.803 11.202zM353.442 273.142l-.066-.347c.413-.079 40.481-7.642 45.438-12.074l.235.264c-5.01 4.498-43.954 11.847-45.607 12.157z"/>
            <path fill="#000" fill-rule="nonzero" d="M395.142 273.324s-15.102 6.299-30.98 9.124a48.765 48.765 0 0 0-4.168.942c-1.611.438-3.9.934-5.143.611-2.045-.537-3.177 1.954-.967 3.912l.14.124a7.902 7.902 0 0 0 5.879 1.941l3.4-.285s27.58-6.047 35.271-10.764c0 0 3.511-2.408 3.78-5.118.268-2.71.586-4.845-2.198-3.243-2.784 1.603-5.014 2.756-5.014 2.756z" opacity=".1"/>
            <path fill="#F0F0F4" fill-rule="nonzero" d="M395.48 272.977c-.561.23-15.386 6.344-30.98 9.116-1.404.25-2.794.565-4.168.942-1.606.438-3.899.933-5.142.611-2.066-.537-3.177 1.954-.967 3.912l.066.058a8.12 8.12 0 0 0 6.06 2.011l3.271-.272h.054c.946-.207 27.676-6.118 35.235-10.74h.029c.235-.17 3.507-2.5 3.763-5.11.268-2.71.59-4.845-2.198-3.242a155.491 155.491 0 0 1-4.99 2.747l-.033-.033z"/>
            <path fill="#000" fill-rule="nonzero" d="M393.465 274.968s-12.392 5.155-25.697 8.083c-1.322.29-2.632.628-3.933 1.004-1.301.376-3.16.826-4.192.694-1.768-.235-2.611 1.528-.628 2.714l.062.037a7.654 7.654 0 0 0 4.994 1.008l3.065-.413s23.21-5.84 29.53-9.526c0 0 2.891-1.854 2.966-3.717.074-1.863.256-3.305-2.037-2.065-2.292 1.239-4.13 2.18-4.13 2.18z" opacity=".1"/>
            <path fill="#636780" fill-rule="nonzero" d="M393.816 274.612c-.265.112-12.533 5.184-25.689 8.084a61.72 61.72 0 0 0-3.937 1.004c-1.3.376-3.155.826-4.192.694-1.768-.236-2.61 1.524-.624 2.714a7.848 7.848 0 0 0 5.122 1.036l2.982-.413c.48-.12 23.256-5.873 29.518-9.5.1-.066 2.892-1.888 2.962-3.718.07-1.83.256-3.325-2.036-2.065a126.913 126.913 0 0 1-4.131 2.18l.025-.016z"/>
            <ellipse cx="339.83" cy="289.714" fill="#000" fill-rule="nonzero" opacity=".1" rx="4.678" ry="3.462" transform="rotate(-87.138 339.83 289.714)"/>
            <ellipse cx="339.734" cy="289.693" fill="#F0F0F4" fill-rule="nonzero" rx="4.672" ry="3.457" transform="rotate(-87.15 339.734 289.693)"/>
            <path fill="#000" fill-rule="nonzero" d="M360.146 293.25s-18.113 2.76-22.917 3.028c-4.804.268-5.526 2.933-5.526 2.933s-1.157 6.761 5.514 4.804l23.66-2.669s3.206.091 3.206-4.271v-.979c.01-.548.065-1.093.165-1.632.128-.681-.223-1.788-4.102-1.214z" opacity=".1"/>
            <path fill="#F0F0F4" fill-rule="nonzero" d="M360.502 292.895s-18.113 2.759-22.917 3.023c-4.804.265-5.515 2.937-5.515 2.937s-1.156 6.762 5.515 4.804l23.664-2.668s3.202.09 3.202-4.271v-.98c.01-.547.065-1.093.165-1.63.132-.682-.236-1.79-4.114-1.215zM407.773 281.42c-.442.33-.826 1.144-1.123 2.11l-5.866 4.156a.48.48 0 0 1-.756-.388v-4.362c0-1.272.666-2.451 1.756-3.107l6.105-3.68c.314 1.169 1.057 4.39-.116 5.27z"/>
            <path fill="#636780" fill-rule="nonzero" d="M366.26 293.477l-.273 4.412a2.945 2.945 0 0 0 3.346 3.147 81.044 81.044 0 0 0 28.312-10.17l.772-9.013a1.268 1.268 0 0 0-1.764-1.293c-4.956 2.21-18.245 7.874-26.68 8.956a4.284 4.284 0 0 0-3.713 3.961z"/>
            <path fill="#0DA176" fill-rule="nonzero" d="M368.986 291.205v7.171s22.062-5.213 26.953-8.728v-6.803a110.822 110.822 0 0 1-26.953 8.36zM407.662 275.091c-1.12-.078-2.016-1.999-2.016-4.35 0-2.35.934-4.353 2.065-4.353.367.017.71.186.946.467.091 3.069-.611 6.564-.995 8.236z"/>
            <path fill="#F0F0F4" fill-rule="nonzero" d="M408.017 274.732c-1.12-.074-2.012-1.995-2.012-4.345 0-2.35.93-4.358 2.066-4.358.368.019.712.19.95.47.082 3.07-.62 6.564-1.004 8.233z"/>
            <path fill="#636780" fill-rule="nonzero" d="M306.538 305.126c0 39.097-16.522 39.943-38.072 39.943-17.217 0-24.264-17.881-24.264-39.943 0-22.062 5.531-39.894 22.744-39.894 17.212 0 39.592 17.836 39.592 39.894z"/>
            <path fill="#000" fill-rule="nonzero" d="M306.538 305.126c0 39.097-16.522 39.943-38.072 39.943-17.217 0-24.264-17.881-24.264-39.943 0-22.062 5.531-39.894 22.744-39.894 17.212 0 39.592 17.836 39.592 39.894z" opacity=".2"/>
            <ellipse cx="265.921" cy="305.126" fill="#636780" fill-rule="nonzero" rx="21.719" ry="39.944"/>
            <path fill="#F0F0F4" fill-rule="nonzero" d="M79.817 281.42c0 11.979-3.47 21.587-10.678 21.587s-15.775-9.72-15.775-21.707 2.995-22.533 10.203-22.533c7.208 0 16.25 10.665 16.25 22.653z"/>
            <path fill="#636780" fill-rule="nonzero" d="M79.813 280.953c0 .909-.025 1.8-.074 2.677a33.872 33.872 0 0 1-1.008 6.823c-1.17 4.412-3.305 7.477-6.42 8.06-.366.067-.738.1-1.11.099a8.728 8.728 0 0 1-4.61-1.496c-2.97-1.892-5.709-5.423-7.1-9.839a20.918 20.918 0 0 1-.955-5.002c-.033-.463-.05-.934-.05-1.405-.037-3.263.289-6.52.971-9.711a17.878 17.878 0 0 1 2.099-5.519c1.272-2.003 2.961-3.197 5.126-3.197a8.484 8.484 0 0 1 4.515 1.525 17.593 17.593 0 0 1 4.956 5.126 21.938 21.938 0 0 1 3.66 11.859z"/>
            <path fill="#F0F0F4" fill-rule="nonzero" d="M79.73 283.646a33.872 33.872 0 0 1-1 6.807c-.148-.169-4.229-4.886-7.294-1.858-2.251 2.218-.355 7.27.876 9.913-.367.067-.739.1-1.111.1a8.728 8.728 0 0 1-4.61-1.496v-.339s1.813-5.65-3.024-9.133c0 0-2.35-.933-4.097-.371a20.918 20.918 0 0 1-.955-5.003c.413-.326 3.243-2.75 2.086-7.32a33.273 33.273 0 0 0-1.165-3.795 17.878 17.878 0 0 1 2.12-5.51s.929 5.043 4.485 5.345c3.557.301 5.11-6.824 5.156-7.023a17.593 17.593 0 0 1 4.956 5.127s-5.68 2.362-4.023 8.65c1.215 4.452 5.329 5.613 7.6 5.906z"/>
            <ellipse cx="67.66" cy="279.96" fill="#636780" fill-rule="nonzero" rx="2.668" ry="4.626" transform="rotate(-8.049 67.66 279.96)"/>
            <path fill="#F0F0F4" fill-rule="nonzero" d="M269.71 306.794c0 14.363-3.062 25.867-9.419 25.867-6.357 0-13.916-11.645-13.916-26.023 0-14.38 2.644-26.999 9-26.999 6.358 0 14.334 12.793 14.334 27.155z"/>
            <path fill="#636780" fill-rule="nonzero" d="M269.71 306.253c0 1.102-.023 2.172-.067 3.21a54.46 54.46 0 0 1-.892 8.162c-1.029 5.287-2.892 8.955-5.663 9.658-.321.076-.65.115-.98.115-1.33 0-2.726-.636-4.064-1.792-2.635-2.268-5.04-6.523-6.283-11.793a33.48 33.48 0 0 1-.826-5.994 32.285 32.285 0 0 1-.045-1.685 70.684 70.684 0 0 1 .859-11.632 26.234 26.234 0 0 1 1.884-6.61c1.123-2.4 2.614-3.829 4.523-3.829 1.284 0 2.652.657 3.982 1.826 1.59 1.4 3.122 3.528 4.386 6.142a33.297 33.297 0 0 1 3.185 14.222z"/>
            <path fill="#F0F0F4" fill-rule="nonzero" d="M269.643 309.455a54.46 54.46 0 0 1-.892 8.162c-.128-.207-3.718-5.857-6.436-2.23-1.982 2.66-.314 8.71.773 11.887-.321.077-.65.116-.98.116-1.33 0-2.726-.636-4.064-1.793v-.413s1.599-6.77-2.668-10.942c0 0-2.066-1.12-3.615-.446a33.48 33.48 0 0 1-.826-5.994c.364-.392 2.859-3.304 1.838-8.77-.388-2.064-.735-3.54-1.024-4.543a26.234 26.234 0 0 1 1.884-6.609s.826 6.047 3.957 6.403c3.13.355 4.506-8.17 4.543-8.406 1.59 1.4 3.123 3.527 4.387 6.142 0 0-5.01 2.834-3.548 10.364 1.029 5.357 4.66 6.729 6.671 7.072z"/>
            <ellipse cx="257.932" cy="305.661" fill="#636780" fill-rule="nonzero" rx="2.363" ry="5.523" transform="rotate(-4.68 257.932 305.661)"/>
            <path fill="#000" fill-rule="nonzero" d="M317.918 244.252l-.144.326c-.14-.066-12.442-5.37-58.057-13.11-2.131-.361-4.334-.73-6.61-1.104-.21-.029-.412-.066-.631-.099a1440.272 1440.272 0 0 0-24.247-3.717l.05-.356c12.04 1.735 22.553 3.388 31.723 4.957 45.5 7.733 57.772 13.04 57.916 13.103z" opacity=".2"/>
            <path fill="#000" fill-rule="nonzero" d="M86.695 176.657s4.13-7.022 18.266-7.646c0 0 103.308-13.495 168.532.529 0 0 5.568 2.478-.475 3.932-6.043 1.454-144.93 6.481-186.323 3.185z" opacity=".1"/>
            <path fill="#FFF" fill-rule="nonzero" d="M86.695 175.947s4.13-7.022 18.266-7.65c0 0 103.308-13.491 168.532.532 0 0 5.568 2.479-.475 3.933-6.043 1.454-144.93 6.481-186.323 3.185z"/>
            <path fill="#000" fill-rule="nonzero" d="M77.025 205.444c6.415-15.102 14.115-22.244 16.552-24.239a2.76 2.76 0 0 1 1.693-.62l33.797-.627c.929-.021 1.804.43 2.326 1.197a2.763 2.763 0 0 0-2.68-1.908l-33.798.628a2.726 2.726 0 0 0-1.694.62c-2.437 1.99-10.136 9.133-16.551 24.234a3.64 3.64 0 0 0 .293 3.42 3.635 3.635 0 0 1 .062-2.705zM137.862 207.13l4.605-20.931c.827-3.788 3.958-6.473 7.568-6.506l43.53-.413a7.022 7.022 0 0 1 4.543 1.628 7.1 7.1 0 0 0-5.238-2.293l-43.53.413c-3.613.037-6.736 2.722-7.567 6.51l-4.626 20.926a9.5 9.5 0 0 0 3.065 9.336 9.57 9.57 0 0 1-2.35-8.67zM231.98 215.944l-15.408-31.938a2.999 2.999 0 0 1 2.644-4.3c11.735-.215 42.579-1.095 58.474-4.585-1-.781-1.574-1.215-1.574-1.215-15.697 3.614-47.226 4.515-59.127 4.73a2.999 2.999 0 0 0-2.643 4.3l15.411 31.926a10.996 10.996 0 0 0 6.304 5.618 10.975 10.975 0 0 1-4.082-4.536z" opacity=".1"/>
            <path fill="#0DA176" fill-rule="nonzero" d="M230.216 302.234h6.642v2.045h-6.642z"/>
            <path fill="#000" fill-rule="nonzero" d="M230.216 302.234h6.642v2.045h-6.642z" opacity=".2"/>
            <path fill="#0DA176" fill-rule="nonzero" d="M101.276 281.998l-8.166 1.409c.05.282.129.559.235.826.161.413 9.088-.318 9.088-.318l-.86-.178-.297-1.739z"/>
            <path fill="#000" fill-rule="nonzero" d="M101.276 281.998l-8.166 1.409c.05.282.129.559.235.826.161.413 9.088-.318 9.088-.318l-.86-.178-.297-1.739z" opacity=".2"/>
            <path fill="#000" fill-rule="nonzero" d="M70.465 302.02c-7.204 0-15.775-9.72-15.775-21.707 0-8.216 1.409-15.759 4.614-19.687-4.13 3.333-5.94 11.74-5.94 21.013 0 11.979 8.572 21.706 15.775 21.706 2.438 0 4.441-1.098 6.035-3.015a7.274 7.274 0 0 1-4.709 1.69zM261.704 331.066c-6.452 0-14.127-11.669-14.127-26.064 0-9.868 1.24-18.923 4.13-23.64-3.717 4.002-5.316 14.098-5.316 25.234 0 14.396 7.675 26.065 14.127 26.065 2.181 0 3.978-1.322 5.403-3.619-1.198 1.306-2.602 2.024-4.217 2.024z" opacity=".1"/>
            <ellipse cx="323.752" cy="260.47" fill="#000" fill-rule="nonzero" opacity=".1" rx="10.632" ry="20.757" transform="rotate(-45 323.752 260.47)"/>
            <ellipse cx="324.107" cy="260.116" fill="#DCE0ED" fill-rule="nonzero" rx="10.632" ry="20.757" transform="rotate(-45 324.107 260.116)"/>
            <ellipse cx="325.126" cy="259.808" fill="#000" fill-rule="nonzero" opacity=".1" rx="7.795" ry="17.613" transform="rotate(-45 325.126 259.808)"/>
            <ellipse cx="325.127" cy="259.449" fill="#F0F0F4" fill-rule="nonzero" rx="7.795" ry="17.613" transform="rotate(-45 325.127 259.449)"/>
            <path fill="#0DA176" fill-rule="nonzero" d="M448.382 328.51s-17.464-1.054-15.407 11.185c0 0-.413 2.16 1.553 3.144 0 0 .029-.905 1.792-.6a7.976 7.976 0 0 0 1.896.092 3.924 3.924 0 0 0 2.318-.959s4.911-2.028 6.82-10.05c0 0 1.412-1.75 1.354-2.201l-2.945 1.24s1.008 2.126.215 3.894c0 0-.095-3.816-.66-3.717-.117 0-1.533.735-1.533.735s1.735 3.718.413 6.394c0 0 .495-4.543-.967-6.126l-2.065 1.21s2.024 3.826.652 6.949c0 0 .352-4.788-1.09-6.655l-1.88 1.466s1.905 3.772.744 6.362c0 0-.153-5.573-1.152-5.994 0 0-1.653 1.45-1.892 2.045 0 0 1.3 2.734.491 4.18 0 0-.495-3.718-.9-3.718 0 0-1.653 2.479-1.81 4.131 0 0 .07-2.507 1.413-4.383a4.92 4.92 0 0 0-2.507 1.302s.252-1.74 2.891-1.892c0 0 1.355-1.867 1.715-1.979 0 0-2.644-.223-4.247.488 0 0 1.413-1.653 4.734-.897l1.855-1.512s-3.482-.479-4.957.05c0 0 1.698-1.454 5.456-.413l2.02-1.206s-2.965-.64-4.733-.413c0 0 1.863-1.008 5.328.082l1.442-.648s-2.173-.413-2.809-.492c-.636-.078-.673-.244-.673-.244a7.543 7.543 0 0 1 4.085.455s3.09-1.111 3.04-1.305z"/>
            <ellipse cx="436.354" cy="343.905" fill="#0DA176" fill-rule="nonzero" opacity=".1" rx="12.359" ry="2.09"/>
            <ellipse cx="475.099" cy="304.944" fill="#0DA176" fill-rule="nonzero" opacity=".1" rx="6.968" ry="1.177"/>
            <path fill="#0DA176" fill-rule="nonzero" d="M423.767 302.25s-11.888-.714-10.487 7.614a2.036 2.036 0 0 0 1.057 2.143s.02-.62 1.24-.413c.426.073.86.093 1.292.062a2.693 2.693 0 0 0 1.578-.652s3.342-1.38 4.643-6.84c0 0 .958-1.195.921-1.5l-2.003.855s.681 1.45.144 2.652c0 0-.066-2.598-.45-2.536-.078 0-1.041.5-1.041.5s1.177 2.523.29 4.353c0 0 .334-3.106-.662-4.168l-1.408.826s1.375 2.607.442 4.73c0 0 .24-3.26-.74-4.544l-1.28.996s1.293 2.569.504 4.329c0 0-.104-3.792-.781-4.081 0 0-1.12.987-1.293 1.396 0 0 .888 1.863.339 2.846 0 0-.339-2.528-.616-2.54 0 0-1.115 1.652-1.239 2.82a6.101 6.101 0 0 1 .963-2.982 3.379 3.379 0 0 0-1.71.884s.173-1.181 1.982-1.284c0 0 .926-1.273 1.17-1.351 0 0-1.798-.149-2.892.334 0 0 .962-1.115 3.222-.607l1.264-1.032s-2.371-.327-3.375.033c0 0 1.157-.988 3.718-.269l1.375-.826s-2.02-.434-3.222-.277c0 0 1.268-.685 3.627.058l.983-.442s-1.479-.293-1.913-.339c-.433-.045-.458-.165-.458-.165a5.134 5.134 0 0 1 2.78.31s2.086-.76 2.036-.892z"/>
            <ellipse cx="415.58" cy="312.73" fill="#0DA176" fill-rule="nonzero" opacity=".1" rx="8.414" ry="1.421"/>
            <ellipse cx="25.99" cy="325.639" fill="#0DA176" fill-rule="nonzero" opacity=".1" rx="12.359" ry="2.09"/>
            <path fill="#A8A8A8" fill-rule="nonzero" d="M17.692 315.927s7.047-.214 9.174-1.73 10.843-3.305 11.372-.893c.529 2.413 10.595 12.07 2.635 12.132-7.96.062-18.493-1.239-20.616-2.532-2.123-1.293-2.565-6.977-2.565-6.977z"/>
            <path fill="#000" fill-rule="nonzero" d="M41.014 324.594c-7.96.062-18.493-1.24-20.613-2.532-1.615-.984-2.259-4.515-2.478-6.143h-.235s.446 5.688 2.565 6.977c2.119 1.289 12.656 2.598 20.616 2.532 2.297 0 3.09-.826 3.048-2.065-.318.76-1.193 1.214-2.903 1.23z" opacity=".2"/>
            <path fill="url(#a)" fill-rule="nonzero" d="M284.2 211.405c1.181-3.173-.926-6.515-.926-6.515l-.169-7.261c.93-1.921-2.272-6.68-2.272-6.68s-.76-3.593-1.433-3.924c-.674-.33-1.43-1.838-1.43-1.838a1.111 1.111 0 0 0-.644-.983 47.742 47.742 0 0 1-3.073-6.75c-.471-1.288-.888-2.664-.62-4.01a7.13 7.13 0 0 1 .302-1c.029-.07.054-.136.078-.207.025-.07 0-.058.033-.082l.03-.075a5.18 5.18 0 0 0 .495-2.143c-.095-1.55-1.52-2.681-2.937-3.338-1.417-.657-3.007-1.082-4.13-2.177-1.397-1.367-1.719-3.445-2.066-5.37-.347-1.925-.826-4.002-2.404-5.16-1.396-1.023-3.305-1.044-5.01-.755a16.692 16.692 0 0 0-6.46 2.573c-1.88 1.264-3.557 2.937-5.73 3.594-.797.24-1.652.335-2.43.595a5.994 5.994 0 0 0-3.613 3.618c-.03.079-.05.157-.079.236a4.967 4.967 0 0 0-.095.293c-.029.1-.041.17-.058.252-.016.083-.05.194-.066.293-.016.1-.029.17-.037.252-.008.083-.029.203-.037.302-.008.1 0 .165 0 .248v.314a13.239 13.239 0 0 0-2.313 2.891c-2.776 4.403-6.234 10.769-7.77 13.631l-.075.14v-.086s-6.778 6.803-2.82 5.886c.272-.063.548-.113.825-.148l-.07.776v.02c-.632.794-3.37 3.537 1.723 5.57 4.225 1.684 12.863 2.114 15.696 2.213l-.248 1.194c-4.378 3.59-2.693 7.683-2.775 10.356-.083 2.672-.508 5.844-.508 5.844s-1.855 3.008-1.6 4.594c.257 1.586-1.346 4.176-1.346 4.176s-2.358 2.586-2.106 4.259c.252 1.673-.413 3.837-.413 3.837s-1.599 2.925-.926 4.593c.674 1.67.339 2.59.339 2.59s-3.453.5-3.718 2.338c-.264 1.838-3.366 2.503-3.366 2.503s-5.556 2.004-6.907 2.925c-1.35.921-8.5 7.596-8.5 7.596s-7.184 7.39-7.564 8.134c-.38.743-4.61 3.944-2.652 6.952.1.148.199.301.302.45a25.581 25.581 0 0 0 7.77 7.365c1.354.826 2.705 1.768 3.106 2.392.884 1.38 15.663 10.834 15.663 10.834s6.494 5.709 10.674 9.687l.318 1.912c-.053.083-.107.17-.16.269a1.16 1.16 0 0 0 .412 1.132l.058.338s1.685 14.198 3.201 20.836c1.004 4.39.29 7.703-.305 9.442-1.57-1.739-1.756-2.367-1.756-2.367a17.873 17.873 0 0 0-1.074 3.5 5.834 5.834 0 0 0-.05.499.128.128 0 0 0-.111.05l-.59.826c-.645.888-1.211 1.834-1.785 2.767-1.326 2.152-5.486 3.156-5.486 3.156-.35.191-.725.33-1.115.413-1.168.2-2.358.235-3.536.107a5.783 5.783 0 0 0-1.045.257 4.044 4.044 0 0 0-.793.363c-1.813 1.173-1.152 3.338-1.152 3.338l.045.029.045.029.075.045.111.07.095.054.1.062.103.058.128.07.107.062.273.144.128.07.177.092.145.07.194.095.19.086c.108.054.22.104.335.153l.194.087.223.09.215.088.223.086.413.153.206.07.294.1.223.07.338.099.186.05c.17.05.343.09.52.132l.174.037c.137.033.273.062.413.087l.104.024h.086c.15.03.298.05.45.075h.133l.595.07h.136c.157 0 .314.025.475.033H233.557c.207 0 .413-.008.62-.025h.128l.508-.05.223-.032.446-.075.211-.041c.215-.045.413-.095.648-.153a40.307 40.307 0 0 1 14.458-1.239c3.717.314 4.651-.958 4.651-.958a2.21 2.21 0 0 0 .24-.446c.033-.076.062-.153.086-.232 0-.053.033-.107.046-.16.012-.055.037-.162.053-.245.017-.082 0-.115.03-.173.028-.058 0-.066 0-.1.01-.08.017-.161.02-.243a9.187 9.187 0 0 0-.149-2.14 24.565 24.565 0 0 0-1.355-4.543l-.264.181c-.03-.135-.06-.272-.087-.413-.908-4.895-1.239-16.638-1.239-17.881a2.226 2.226 0 0 0 1.413-.488c.07-.058.107-.095.107-.095 3.156-2.565 1.607-14.28.566-15.907-1.04-1.628-1.239-9.988-1.61-12.648-.178-1.264-.827-1.632-1.707-1.653a3.668 3.668 0 0 0-.367 0c-.124-2.478.24-8.306.52-12.284 0-.256.037-.508.054-.748l.797.041 1.177-7.022s.678-2.56 4.808-9.91c4.131-7.348 4.544-15.361 4.544-15.361s1.264-2.42.925-3.507c-.086-.281-.223-1.074-.384-2.103a27.515 27.515 0 0 1 4.416-2.156c4.416-1.784 7.728-5.126 9.265-6.783l.244-.264c.38.576.727 1.174 1.04 1.789 0 0 3.623-2.508 5.474-4.68.2-.248.358-.527.467-.827 1.115-2.775-.025-8.711-.025-8.711 1.45-2.565-.355-4.907-.355-4.907z"/>
            <path fill="url(#b)" fill-rule="nonzero" d="M3.26 19.7c-.17.31-1.385 1.036-2.863 1.837a84.487 84.487 0 0 1-.257-2.143c-.086-.922 1.88-5.048 1.88-5.048s3.763-5.048 3.676-5.808c-.087-.76 1.454-2.94 1.454-2.94L10.562.065a2.478 2.478 0 0 0 .351 2.59c1.029 1.347.17 4.04.17 4.04l.21 3.395v.339c-.12.12-.669.644-1.883 1.739-1.12 1.008-.921 1.318-.793 1.4-.256.455.057.533.057.533.1 0 .199-.008.298-.025l-.273.252c-2.082 1.95-5.134 4.82-5.44 5.37z" opacity=".1" transform="translate(262.712 208.6)"/>
            <path fill="#985C7E" fill-rule="nonzero" d="M243.417 165.707c-1.02 1.065.14 2.56-.652 3.717-.45.649-1.442 1.058-2.004 1.653-1.094 1.19-.268 2.71.26 4.064 1.934 4.932-.966 10.554-7.022 13.631a12.685 12.685 0 0 0 8.324.682c2.71-.723 4.795-2.412 5.34-4.329.414-1.359.059-2.805.757-4.106 1.086-2.028 4.411-3.247 5.394-5.295.769-1.607-.07-3.342-1.049-4.895a38.853 38.853 0 0 0-4.184-5.461c-.95-1.037-.95-1.446-2.479-1.169a7.315 7.315 0 0 0-2.685 1.508z"/>
            <path fill="#985C7E" fill-rule="nonzero" d="M252.46 180.164a15.874 15.874 0 0 1-.971 4.28c-.579 1.75-1.173 3.523-2.169 5.08-.995 1.558-2.458 2.892-4.242 3.367a5.312 5.312 0 0 0 4.42 1.276c1.136-.202 2.284-.776 3.383-.413.505.223.993.484 1.458.78 1.62.827 3.717.216 4.89-1.176a5.556 5.556 0 0 0 .856-5.139c-.33-1.045-.921-2-1.24-3.057-.45-1.561-.272-3.304-1.028-4.742-1.099-2.065-4.13-3.304-6.22-4.13-.104 1.123.912 2.552.862 3.874z"/>
            <path fill="#000" fill-rule="nonzero" d="M249.597 176.31a15.882 15.882 0 0 1-.97 4.267c-.575 1.756-1.17 3.528-2.17 5.08-1 1.554-2.453 2.892-4.238 3.367a5.287 5.287 0 0 0 4.416 1.277c1.136-.198 2.284-.777 3.383-.413.506.22.994.479 1.458.776 1.62.826 3.718.215 4.891-1.177a5.543 5.543 0 0 0 .855-5.139c-.33-1.045-.921-1.999-1.24-3.056-.45-1.562-.272-3.305-1.028-4.742-1.098-2.066-4.151-3.305-6.22-4.13-.104 1.135.912 2.548.863 3.89z" opacity=".1"/>
            <path fill="#ECB4B6" fill-rule="nonzero" d="M251.646 272.658s-1.24 15.152-.707 17.18c.533 2.028 1.454 29.435 1.454 29.435s.372 15.978 1.615 19.332c1.244 3.354-8.406 2.4-8.736 2.359-.33-.042-2.73-6.833-2.73-6.833s2.358-4.13.867-10.74c-1.491-6.609-3.143-20.653-3.143-20.653l-2.743-16.543s.372-3.891-1.074-6.085c-1.446-2.193-3.305-16.556-2.892-17.799.413-1.243 10.253-3.974 10.253-3.974l4.238 5.548 3.598 8.773z"/>
            <path fill="#000" fill-rule="nonzero" d="M233.694 265.48v.293l.09.859c.517 4.796 1.702 11.979 2.69 13.478.987 1.5 1.127 3.796 1.115 5.093v.413c0 .368-.033.587-.033.587l2.102 12.735.091.541.541 3.284s1.653 14.077 3.148 20.653c.728 2.97.662 6.078-.19 9.014-.041.136-.083.268-.124.388a8.41 8.41 0 0 1-.558 1.318s.34.958.781 2.16l.306.826c.058.149.111.293.165.442.64 1.69 1.318 3.379 1.483 3.4.326.04 9.976.99 8.732-2.36a9.914 9.914 0 0 1-.372-1.494c-.945-5.127-1.239-17.837-1.239-17.837s-.909-27.403-1.45-29.435c-.355-1.35.075-8.513.413-13.152.162-2.326.302-4.015.302-4.015l-3.602-8.774-4.238-5.547s-7.064 1.962-9.472 3.304l-.07.038c-.293.131-.54.347-.71.62-.104.321-.054 1.523.099 3.167z" opacity=".07"/>
            <path fill="#000" fill-rule="nonzero" d="M240.096 284.625s4.676 1.24 4.263 2.607l-4.263-2.607z" opacity=".05"/>
            <path fill="#000" fill-rule="nonzero" d="M242.583 334.131s.508 1.434 1.086 2.991c.661.314 1.165.508 1.165.508s1.801-1.673-.578-4.13c-.384-.414-.71-.748-.991-1.066a9.133 9.133 0 0 1-.682 1.697z" opacity=".1"/>
            <path fill="#CC8294" fill-rule="nonzero" d="M240.299 334.941c.181.991 2.358 2.09 3.536 2.623.446.198.751.318.751.318.22-.227.39-.497.5-.793.273-.723.322-1.9-1.078-3.35-.33-.339-.615-.644-.867-.925-1.578-1.756-1.764-2.384-1.764-2.384a18.002 18.002 0 0 0-1.05 3.47 3.33 3.33 0 0 0-.028 1.041z"/>
            <path fill="#000" fill-rule="nonzero" d="M240.299 334.941c.181.991 2.358 2.09 3.536 2.623.64 1.69 1.317 3.379 1.482 3.4.327.04 9.976.99 8.733-2.36a9.914 9.914 0 0 1-.372-1.494l-2.677 1.887c-1.363.971-3.412.248-3.412.248l-2.503-2.156-.624-.533a3.718 3.718 0 0 1-1.098-.264 5.312 5.312 0 0 1-2.152-1.727c-.475-.504-.744-.644-.884-.665a3.33 3.33 0 0 0-.03 1.041z" opacity=".1"/>
            <path fill="#CC8294" fill-rule="nonzero" d="M224.924 345.557a17.093 17.093 0 0 0 5.92 2.37c1.789.362 3.637.31 5.402-.152a39.324 39.324 0 0 1 14.198-1.24c3.643.31 4.572-.95 4.572-.95.608-.825.587-2.263.343-3.717a24.627 24.627 0 0 0-1.313-4.506s-1.653 1.16-3.024 2.131c-1.371.97-3.412.252-3.412.252l-3.127-2.693c-1.987-.145-3.25-1.987-3.25-1.987-.872-.934-1.05-.624-1.05-.624l-.595.802c-.636.884-1.194 1.817-1.76 2.746-1.3 2.132-5.37 3.132-5.37 3.132a4.337 4.337 0 0 1-1.094.388 12.5 12.5 0 0 1-3.482.103 4.622 4.622 0 0 0-1.743.595c-1.884 1.152-1.215 3.35-1.215 3.35z"/>
            <circle cx="243.806" cy="338.811" r="1" fill="#4B4B5B" fill-rule="nonzero"/>
            <circle cx="239.84" cy="340.501" r="1" fill="#4B4B5B" fill-rule="nonzero"/>
            <circle cx="241.406" cy="342.905" r="1" fill="#4B4B5B" fill-rule="nonzero"/>
            <circle cx="235.949" cy="342.091" r="1" fill="#4B4B5B" fill-rule="nonzero"/>
            <circle cx="242.05" cy="339.857" r="1" fill="#4B4B5B" fill-rule="nonzero"/>
            <circle cx="243.599" cy="342.736" r="1" fill="#4B4B5B" fill-rule="nonzero"/>
            <circle cx="237.919" cy="341.443" r="1" fill="#4B4B5B" fill-rule="nonzero"/>
            <circle cx="233.818" cy="342.583" r="1" fill="#4B4B5B" fill-rule="nonzero"/>
            <path fill="#000" fill-rule="nonzero" d="M224.924 345.557s5.548 3.812 11.322 2.218a39.324 39.324 0 0 1 14.198-1.24c3.643.31 4.572-.95 4.572-.95.268-.4.429-.862.467-1.342 0-.095 0-.19.025-.285a9.653 9.653 0 0 0-.149-2.065c-.76.566-2.33 1.24-5.514 1.359-5.507.173-12.772 1.582-12.772 1.582l-7.023-.29s-3.932-.85-3.915-2.316c-1.88 1.131-1.21 3.329-1.21 3.329z" opacity=".1"/>
            <path fill="#CC8294" fill-rule="nonzero" d="M234.772 346.92c.115.022.233.032.35.029 1.24 0 4.23-.653 6.015-1.07a8.402 8.402 0 0 1 1.537-.219c1.652-.087 5.696-.28 7.976-.264h.054a12.041 12.041 0 0 0 4.78-1.157c0-.095 0-.19.024-.285a11.834 11.834 0 0 1-4.858 1.19c-2.28 0-6.345.182-7.989.268a8.951 8.951 0 0 0-1.582.223c-1.582.372-5.37 1.219-6.262 1.041l-.045.244z"/>
            <path fill="#000" fill-rule="nonzero" d="M237.605 285.608c0 .368-.033.587-.033.587l2.103 12.735c.376.359.74.702 1.082 1.036a27.676 27.676 0 0 1 2.937 3.098c1.24 1.925 5.63.934 5.548.748-.083-.186-1.884-9.253-1.884-9.253l-1.425-3.664s-1.487.93-2.95-.62c-.92-.978-2.982-2.89-4.382-4.171l-.987-.9c0 .148-.004.293-.009.404z" opacity=".03"/>
            <path fill="#000" fill-rule="nonzero" d="M233.698 265.517v.256l.09.859c.306-.112.608-.232.905-.364l.413-.19a21.748 21.748 0 0 0 3.846-2.379l-3.602-1.549-1.066-.458c-.292.131-.54.347-.71.62-.083.321-.033 1.544.124 3.205z" opacity=".05"/>
            <path fill="#ECB4B6" fill-rule="nonzero" d="M202.775 268.664c.1.149.195.298.298.446a25.263 25.263 0 0 0 7.638 7.3c1.334.825 2.66 1.755 3.056 2.374.868 1.363 15.4 10.74 15.4 10.74s6.761 5.99 10.847 9.943l.52.504.252.247c.302.294.574.57.826.827a19.751 19.751 0 0 1 1.128 1.23c.077.093.149.19.215.29 1.239 1.925 5.63.93 5.547.743-.082-.186-1.892-9.244-1.892-9.244l-1.429-3.664a2.226 2.226 0 0 1-1.875.124 2.891 2.891 0 0 1-1.07-.748c-.921-.975-2.987-2.891-4.387-4.168-.826-.76-1.42-1.297-1.42-1.297l-4.66-5.275s-5.96-7.761-10.43-9.686c0 0 5.035-2.066 8.629-2.61a15.697 15.697 0 0 0 3.994-.967l.413-.195a21.938 21.938 0 0 0 3.846-2.379l-3.59-1.545-18.935-8.141c-.115 0-1.214.074-2.02.128l-.855.058s-7.059 7.327-7.435 8.075c-.376.748-4.535 3.895-2.61 6.89z"/>
            <path fill="#000" fill-rule="nonzero" d="M223.64 265.256s-8.134.996-9.749 2.673c0 0 7.142.496 7.435 1.43 0 0-4.08-2.764-5.217-2.066l7.53-2.037z" opacity=".03"/>
            <path fill="#000" fill-rule="nonzero" d="M240.534 299.975l.252.248c.302.293.574.57.826.826.364.367.665.69.897.958l1.053-1.363a4.354 4.354 0 0 0-1.198-.727 2.065 2.065 0 0 0-1.822.058h-.008z" opacity=".05"/>
            <path fill="#CC8294" fill-rule="nonzero" d="M241.05 303.019c.274.14.559.257.851.351l.827-1.09 1.07-1.388a4.288 4.288 0 0 0-1.199-.723 2.065 2.065 0 0 0-1.821.054c-.417.26-.753.63-.97 1.07 0 0-.315.929 1.242 1.726z"/>
            <path fill="#000" fill-rule="nonzero" d="M240.881 302.846l.17.169c.273.14.558.257.85.351l.827-1.09c.077.092.148.188.214.289 1.24 1.925 5.63.93 5.548.743-.083-.186-1.88-9.244-1.88-9.244l-1.429-3.664a2.226 2.226 0 0 1-1.875.124c-.33.338-.388.764 0 1.3a8.74 8.74 0 0 1 1.408 4.132c.558 1.536-1.136 3.42-2.11 4.213a3.04 3.04 0 0 1-.525.351c-.208.125-.373.309-.475.529a10 10 0 0 0-.723 1.797z" opacity=".05"/>
            <path fill="#CC8294" fill-rule="nonzero" d="M241.377 302.846l1.883 1.891a14.09 14.09 0 0 1 5.7 7.113c.193.564.417 1.116.674 1.653.288.742.454 1.526.492 2.321.045.483.066.958.082 1.372.011.529.21 1.037.562 1.433l.025.025c.785.879 2.12.993 3.044.26.066-.054.103-.09.103-.09 3.102-2.545 1.582-14.16.558-15.776-1.024-1.615-1.21-9.914-1.586-12.54-.174-1.24-.826-1.62-1.677-1.653-.851-.033-1.97.334-2.941.442h-.157c-1.93.153-5.626.723-4.333 2.511a8.674 8.674 0 0 1 1.408 4.131c.686 1.892-2.065 4.317-2.635 4.544-.57.227-1.202 2.363-1.202 2.363z"/>
            <circle cx="244.099" cy="301.677" r="1" fill="#4B4B5B" fill-rule="nonzero"/>
            <circle cx="244.937" cy="303.734" r="1" fill="#4B4B5B" fill-rule="nonzero"/>
            <circle cx="247.515" cy="307.046" r="1" fill="#4B4B5B" fill-rule="nonzero"/>
            <circle cx="246.239" cy="305.345" r="1" fill="#4B4B5B" fill-rule="nonzero"/>
            <circle cx="248.585" cy="309.009" r="1" fill="#4B4B5B" fill-rule="nonzero"/>
            <path fill="#000" fill-rule="nonzero" d="M250.774 310.694s.459 5.39 0 7.91a2.235 2.235 0 0 0 3.07.285c.065-.054.102-.09.102-.09 3.103-2.545 1.583-14.16.558-15.776-1.024-1.615-1.21-9.913-1.586-12.54-.174-1.24-.826-1.62-1.677-1.653-.851-.033-1.97.335-2.941.442 0 2.631.149 8.675.826 10.682.905 2.594 1.648 10.74 1.648 10.74z" opacity=".1"/>
            <path fill="#000" fill-rule="nonzero" d="M252.141 299.727c.579 2.036 1.446 7.621 1.368 10.603-.062 2.19.19 6.457.33 8.567.066-.053.103-.09.103-.09 3.102-2.545 1.582-14.16.558-15.776-1.024-1.615-1.21-9.913-1.586-12.54-.174-1.24-.826-1.62-1.677-1.653.115 2.685.446 9.278.904 10.889z" opacity=".1"/>
            <path fill="#CC8294" fill-rule="nonzero" d="M250.026 288.983c.116 2.119.463 7.77 1.033 9.385.71 2.024 1.462 11.706 1.495 12.12h-.247c0-.104-.785-10.067-1.483-12.058-.583-1.652-.93-7.262-1.041-9.418l.243-.029z"/>
            <path fill="#FF718D" fill-rule="nonzero" d="M248.209 184.65s-4.015.715-6.291 1.557c-2.276.843-2.61 1.301-2.61 1.301l-2.36.372v-2.524s-8.45.624-9.302.281a.202.202 0 0 1-.053-.033c-.413-.413.248 3.272-.372 4.057-.62.784-3.305 3.502 1.698 5.518 5.002 2.016 16.349 2.222 16.349 2.222l3.23-6.373-.29-6.378z"/>
            <path fill="#ECB4B6" fill-rule="nonzero" d="M260.915 196.823l-8.935-1.904a21.645 21.645 0 0 0 2.586-6.84c.326-1.913.281-3.958-.599-5.746-2.57-5.213 6.948-7.952 6.948-7.952s3.482 5.37 6.609 8.092c1.05.905 2.065 1.512 2.892 1.512 3.333.004-9.501 12.838-9.501 12.838z"/>
            <path fill="#000" fill-rule="nonzero" d="M212.817 254.446s3.887 9.191 7.435 9.356c2.144.1 8.753 1.008 13.681 1.715l.442.061a21.938 21.938 0 0 0 3.846-2.379l-3.59-1.545-18.935-8.141c-.115 0-1.214.074-2.02.128l-.859.805z" opacity=".1"/>
            <path fill="#000" fill-rule="nonzero" d="M240.633 262.476c3.38.488-.913 3.891-.913 3.891s1.653 1.24 3.561 5.783c1.908 4.544 2.817 4.222 2.817 4.222l5.292.29c.16-2.326.301-4.016.301-4.016l-3.602-8.773-4.238-5.548s-7.063 1.962-9.472 3.305l-.07.037c-.293.132-.54.347-.71.62-.108.346 6.881-1.455 7.034.19zM260.915 196.823l-8.935-1.904a21.645 21.645 0 0 0 2.586-6.84l2.797 2.697a6.907 6.907 0 0 0 3.829-1.12c.493-.33.933-.734 1.305-1.197 1.987-2.479 4.383-5.713 4.383-5.713s.28-.128.665-.269c1.049.905 2.065 1.512 2.891 1.512 3.313 0-9.521 12.834-9.521 12.834z" opacity=".1"/>
            <path fill="#FF718D" fill-rule="nonzero" d="M212.817 253.69s3.887 9.191 7.435 9.36c3.549.17 19.456 2.566 19.456 2.566s1.652 1.239 3.56 5.783c1.909 4.543 2.818 4.225 2.818 4.225l6.126.33 1.16-6.951s.661-2.57 4.718-9.856c4.056-7.287 4.469-15.23 4.469-15.23s1.24-2.404.913-3.478c-.326-1.074-1.409-9.608-1.491-10.517-.083-.908 1.821-4.956 1.821-4.956s3.644-4.957 3.56-5.713c-.082-.756 1.41-2.892 1.41-2.892l3.304-5.448c-.37.847-.238 1.83.343 2.549.991 1.326.161 3.973.161 3.973l.202 3.342.046.801s-.496.496-1.85 1.74c-1.356 1.243-.715 1.404-.715 1.404 4.225-.578 7.534 6.295 7.534 6.295s3.56-2.478 5.37-4.639c.195-.239.35-.508.458-.797 1.1-2.755-.024-8.641-.024-8.641 1.433-2.566-.351-4.887-.351-4.887 1.16-3.143-.91-6.456-.91-6.456l-.164-7.204c.908-1.9-2.24-6.61-2.24-6.61s-.743-3.56-1.408-3.89c-.665-.33-1.404-1.822-1.404-1.822.082-1.652-4.309-1.822-4.717-1.904a8.026 8.026 0 0 1-1.5-.876 13.012 13.012 0 0 0-1.318-.78c-.747-.331-2.734.582-2.734.582s-2.396 3.226-4.387 5.713c-.37.463-.808.868-1.301 1.197a6.907 6.907 0 0 1-3.817 1.107l-2.85-2.746-8.41.512-1.958 9.686c-4.308 3.557-2.652 7.617-2.735 10.265-.082 2.648-.495 5.783-.495 5.783s-1.822 2.982-1.574 4.544c.248 1.561-1.326 4.13-1.326 4.13s-2.317 2.566-2.065 4.222c.252 1.656-.413 3.808-.413 3.808s-1.57 2.892-.91 4.544c.662 1.652.331 2.57.331 2.57s-3.395.495-3.643 2.317c-.248 1.821-3.305 2.478-3.305 2.478s-5.46 1.987-6.79 2.892c-1.33.904-8.39 7.575-8.39 7.575z"/>
            <path fill="#000" fill-rule="nonzero" d="M282.361 213.21s-6.196.747-6.956 1.652c-.76.905 6.196.995 6.196.995l.76-2.647zM273.17 218.142s4.544-1.615 4.677-1.12c.132.496-4.676 3.23-4.676 3.23v-2.11zM271.266 209.323c-.789 1.243-7.307 9.257-7.307 9.257l7.022-10.249.285.992zM270.312 207.13c-.495.66-5.754 9.273-5.754 9.273l5.3-9.687.454.413zM281.308 196.823s-2.028-2.858-4.015-1.037c-1.987 1.822 4.015 1.037 4.015 1.037zM267.127 194.378s-5.175 0-7.7 1.16c-2.523 1.161 2.236-3.478 7.7-1.16zM261.188 190.49h.764s1.78-.66 2.234-2.031c.455-1.372 4.036-.12 4.036-.12s.516.388.062-.248 1.574-2.648 2.478-3.974c.071-.102.124-.215.157-.334-.422-.289-.862-.551-1.317-.785-.748-.33-2.735.582-2.735.582s-2.396 3.23-4.387 5.713a5.754 5.754 0 0 1-1.292 1.198z" opacity=".1"/>
            <path fill="#FF718D" fill-rule="nonzero" d="M261.188 189.991h.764s1.78-.66 2.234-2.032c.455-1.372 4.036-.12 4.036-.12s.516.388.062-.248 1.574-2.648 2.478-3.974c.071-.103.124-.218.157-.338a13.012 13.012 0 0 0-1.317-.781c-.748-.33-2.735.582-2.735.582s-2.396 3.226-4.387 5.713a5.754 5.754 0 0 1-1.292 1.198z"/>
            <circle cx="255.078" cy="195.179" r="1" fill="#E7C7CA" fill-rule="nonzero"/>
            <circle cx="245.636" cy="208.026" r="1" fill="#E7C7CA" fill-rule="nonzero"/>
            <circle cx="249.043" cy="199.917" r="1" fill="#E7C7CA" fill-rule="nonzero"/>
            <circle cx="244.111" cy="216.378" r="1" fill="#E7C7CA" fill-rule="nonzero"/>
            <circle cx="237.114" cy="230.786" r="1" fill="#E7C7CA" fill-rule="nonzero"/>
            <circle cx="236.565" cy="238.167" r="1" fill="#E7C7CA" fill-rule="nonzero"/>
            <path fill="#ECB4B6" fill-rule="nonzero" d="M228.547 184.65l1.115 3.602 3.52-.248 3.143-3.354s.206-.603.529-1.5c.793-2.218 2.292-6.245 3.118-7.484 1.157-1.735 1.905-8.939 1.905-8.939s-1.273-2.892-4.904 2.891c-2.73 4.362-6.13 10.674-7.637 13.524a112.25 112.25 0 0 1-.79 1.508zM244.132 235.073c0 .884 3.718 1.297 5.473 1.446l.9.062c-.412.934 1.78 8.055 1.78 8.055.187-.011.372-.034.554-.07 2.892-.583 8.596-4.569 8.596-4.569s.124-1.367 6.023-3.763c4.341-1.772 7.592-5.085 9.108-6.729.288-.345.598-.67.93-.975l-5.238-5.407s-.847.785-1.962 1.838c-2.04 1.93-4.986 4.75-5.283 5.296-.455.826-8.65 4.833-8.65 4.833-1.822-1.574-5.754-1.904-5.754-1.904s-6.477.727-6.477 1.887z"/>
            <path fill="#000" fill-rule="nonzero" d="M253.84 216.403c-.249.495-11.468 7.947-13.372 8.071-1.904.124 1.78-3.56 1.904-3.602.124-.041 11.467-4.47 11.467-4.47zM193.411 334.73l-.5-.115.5.115z" opacity=".1"/>
            <path fill="#FFF" fill-rule="nonzero" d="M226.056 342.232a4.544 4.544 0 0 1 1.743-.595c1.16.128 2.333.092 3.482-.108a8.303 8.303 0 0 0-.256 3.061l-1.053-.041s-3.932-.855-3.916-2.317z" opacity=".3"/>
            <path fill="#000" fill-rule="nonzero" d="M193.636 334.773l-.27-.055.27.055zM193.376 334.718h-.06.06z" opacity=".1"/>
            <path fill="#FFF" fill-rule="nonzero" d="M250.126 315.808c.045.483.066.958.082 1.371.011.53.21 1.037.562 1.433l.025.025c.133-.976.194-1.96.181-2.945-.086.128-.458.14-.85.116z" opacity=".3"/>
            <path fill="#000" fill-rule="nonzero" d="M270.296 224.945c2.697-.17 4.998 2.631 6.25 4.544.287-.346.598-.671.929-.975l-5.217-5.39s-.864.768-1.962 1.82z" opacity=".1"/>
            <path fill="#000" fill-rule="nonzero" d="M270.27 224.226c4.227-.578 7.535 6.295 7.535 6.295s3.561-2.478 5.37-4.638c.195-.241.35-.512.459-.802-.983-2.363-3.697-6.3-10.856-4.8l.046.802s-.496.495-1.85 1.735c-1.356 1.239-.703 1.408-.703 1.408z" opacity=".1"/>
            <path fill="#FF718D" fill-rule="nonzero" d="M270.27 224.722c4.227-.578 7.535 6.295 7.535 6.295s3.561-2.478 5.37-4.639c.195-.239.35-.508.459-.797-.983-2.363-3.697-6.303-10.856-4.804l.046.801s-.496.496-1.85 1.74c-1.356 1.243-.703 1.404-.703 1.404z"/>
            <path fill="#FFF" fill-rule="nonzero" d="M270.27 224.722c4.227-.578 7.535 6.295 7.535 6.295s3.561-2.478 5.37-4.639c.195-.239.35-.508.459-.797-.983-2.363-3.697-6.303-10.856-4.804l.046.801s-.496.496-1.85 1.74c-1.356 1.243-.703 1.404-.703 1.404z" opacity=".1"/>
            <path fill="#000" fill-rule="nonzero" d="M228.547 184.65l1.115 3.602 3.52-.248 3.143-3.354s.206-.603.529-1.5c-.446.253-3.487 1.938-5.329 2.029-1.466.074-2.007-1.297-2.19-2.028-.487.937-.788 1.499-.788 1.499z" opacity=".1"/>
            <path fill="#000" fill-rule="nonzero" d="M227.448 185.914l.231-.268c.827-.959 1.57-1.698 1.57-1.698.085.644.33 1.256.715 1.78a1.81 1.81 0 0 0 1.561.694 9.914 9.914 0 0 0 3.09-.913 30.748 30.748 0 0 0 2.292-1.148v.995l.021.992v2.276s.867 6.043-7.163 2.817c0 0 .5-2.218-2.552-1.797l.235-3.73z" opacity=".1"/>
            <path fill="#FF718D" fill-rule="nonzero" d="M236.907 183.617l.042 1.987v2.276s.867 6.043-7.163 2.817c0 0 .582-2.569-3.304-1.652-3.887.917 2.78-5.84 2.78-5.84s.28 2.573 2.275 2.478c1.996-.095 5.37-2.066 5.37-2.066z"/>
            <path fill="#FFF" fill-rule="nonzero" d="M236.907 183.617l.042 1.987v2.276s.867 6.043-7.163 2.817c0 0 .582-2.569-3.304-1.652-3.887.917 2.78-5.84 2.78-5.84s.28 2.573 2.275 2.478c1.996-.095 5.37-2.066 5.37-2.066z" opacity=".1"/>
            <path fill="#000" fill-rule="nonzero" d="M252.224 246.87c-.083-.123-.413-10.016-1.698-10.264-1.284-.248-4.47 1.074-4.47 1.074l.58 7.906 5.588 1.285z" opacity=".1"/>
            <path fill="#000" fill-rule="nonzero" d="M250.485 236.581c-.413.934 1.78 8.055 1.78 8.055.186-.011.371-.034.554-.07-.203-2.946-.632-8.035-1.55-8.208a4.395 4.395 0 0 0-1.685.161l.9.062z" opacity=".1"/>
            <path fill="#FF718D" fill-rule="nonzero" d="M252.72 246.623c-.083-.124-.413-10.017-1.698-10.27-1.285-.251-4.47 1.079-4.47 1.079l.579 7.906 5.589 1.285z"/>
            <path fill="#FFF" fill-rule="nonzero" d="M252.72 246.623c-.083-.124-.413-10.017-1.698-10.27-1.285-.251-4.47 1.079-4.47 1.079l.579 7.906 5.589 1.285z" opacity=".1"/>
            <path fill="#985C7E" fill-rule="nonzero" d="M241.24 187.851c1-1.553 1.595-3.325 2.17-5.08.294-.844.542-1.703.743-2.574a10.248 10.248 0 0 0 7.022 4.362c.31.643.585 1.303.826 1.975a5.535 5.535 0 0 1-.847 5.134c-1.156 1.396-3.271 1.991-4.89 1.177a10.083 10.083 0 0 0-1.459-.776c-1.099-.347-2.247.227-3.383.413a5.291 5.291 0 0 1-4.415-1.28c1.796-.46 3.254-1.798 4.233-3.35z"/>
            <circle cx="252.72" cy="175.054" r="10.265" fill="#000" fill-rule="nonzero" opacity=".1"/>
            <circle cx="252.72" cy="174.385" r="10.265" fill="#ECB4B6" fill-rule="nonzero"/>
            <path fill="#985C7E" fill-rule="nonzero" d="M245.123 171.18c-1.206-.826-2.982-.17-4.254-.9a3.177 3.177 0 0 1-1.28-1.682c-1.112-2.933.64-6.609 3.614-7.604.776-.26 1.602-.352 2.387-.591 2.136-.653 3.784-2.31 5.634-3.56a16.28 16.28 0 0 1 6.35-2.554c1.685-.289 3.552-.268 4.927.748 1.55 1.148 2.045 3.214 2.363 5.118.318 1.904.64 3.961 2.007 5.32 1.095 1.083 2.656 1.508 4.053 2.16 1.396.653 2.796 1.773 2.891 3.305.07 1.202-.686 2.293-.921 3.474-.264 1.334.145 2.702.607 3.978a47.664 47.664 0 0 0 5.114 10.153 27.676 27.676 0 0 1-8.13 3c-1.172.235-2.407.387-3.543.02-1.438-.459-2.512-1.698-3.206-3.04a10.112 10.112 0 0 1-1.082-3.834c-.202-2.664.632-5.522-.55-7.918a2.735 2.735 0 0 0-1.036-1.194c-.52-.306-1.153-.343-1.727-.525-.991-.31-1.788-1.04-2.548-1.751l-2.735-2.544a7.7 7.7 0 0 0-2.127-1.566c-1.454-.615-3.169-.264-4.544.508-1.21.678-2.607 1.694-3.83 1.041"/>
            <g fill="#000" fill-rule="nonzero" opacity=".1">
                <path d="M244.297 170.992l-.727-.25c.224.147.473.232.727.25zM244.297 170.951l.826.28a1.997 1.997 0 0 0-.466-.295c-.12.015-.24.02-.36.015z"/>
                <path d="M270.808 190.206c-1.173.231-2.404.384-3.544.02-1.438-.462-2.512-1.697-3.206-3.044a10.112 10.112 0 0 1-1.082-3.833c-.202-2.664.632-5.519-.545-7.919a2.772 2.772 0 0 0-1.012-1.193c-.52-.306-1.148-.343-1.727-.52-.991-.315-1.788-1.046-2.548-1.752l-2.735-2.54a7.7 7.7 0 0 0-2.127-1.566c-1.454-.616-3.168-.265-4.544.508-.863.483-1.817 1.136-2.743 1.24.165.061.322.143.467.243l-.826-.232a1.739 1.739 0 0 1-.727-.206l.727.206c.12.013.24.013.36 0-1.166-.446-2.67 0-3.789-.652a3.172 3.172 0 0 1-1.288-1.69 5.42 5.42 0 0 1-.277-2.676 5.73 5.73 0 0 0-.054 3.998 3.176 3.176 0 0 0 1.289 1.686c1.115.644 2.623.206 3.788.656.921-.099 1.88-.752 2.743-1.239 1.38-.772 3.093-1.123 4.543-.508a7.7 7.7 0 0 1 2.128 1.566l2.734 2.544c.76.71 1.557 1.442 2.549 1.751.574.182 1.206.22 1.726.525.445.291.796.706 1.008 1.194 1.182 2.396.347 5.254.55 7.918.103 1.337.47 2.64 1.082 3.834.694 1.342 1.768 2.581 3.205 3.04 1.136.367 2.371.215 3.54-.02a27.676 27.676 0 0 0 8.134-3c-.19-.285-.376-.574-.558-.863a27.787 27.787 0 0 1-7.241 2.524zM273.794 171.333a12.14 12.14 0 0 0-.578 1.743c-.025.128-.041.26-.054.388a8.228 8.228 0 0 0 .632-2.131z"/>
            </g>
            <path fill="#000" fill-rule="nonzero" d="M251.22 190.88c-1.156 1.391-3.271 1.986-4.89 1.172a10.302 10.302 0 0 0-1.459-.776c-1.098-.347-2.247.227-3.383.413a5.312 5.312 0 0 1-3.804-.826c-.2.078-.404.145-.611.202a5.3 5.3 0 0 0 4.415 1.276c1.136-.202 2.285-.776 3.383-.413.506.223.993.484 1.458.781 1.62.826 3.718.215 4.891-1.177a5.258 5.258 0 0 0 1.12-3.664 5.11 5.11 0 0 1-1.12 3.011z" opacity=".1"/>
        </g>
        <path stroke="#0DA176" stroke-dasharray="9" stroke-linecap="square" d="M1056 403H646.53v-580a6 6 0 0 0-6-6H272"/>
    </g>
</svg>
