<svg xmlns="http://www.w3.org/2000/svg" xmlns:xlink="http://www.w3.org/1999/xlink" width="15" height="15" viewBox="0 0 15 15">
    <defs>
        <path id="a" d="M7.792 12.75h1.416v-1.417H7.792v1.417zM8.5 1.417A7.086 7.086 0 0 0 1.417 8.5 7.086 7.086 0 0 0 8.5 15.583 7.086 7.086 0 0 0 15.583 8.5 7.086 7.086 0 0 0 8.5 1.417zm0 12.75A5.674 5.674 0 0 1 2.833 8.5 5.674 5.674 0 0 1 8.5 2.833 5.674 5.674 0 0 1 14.167 8.5 5.674 5.674 0 0 1 8.5 14.167zm0-9.917a2.833 2.833 0 0 0-2.833 2.833h1.416c0-.779.638-1.416 1.417-1.416.78 0 1.417.637 1.417 1.416 0 1.417-2.125 1.24-2.125 3.542h1.416c0-1.594 2.125-1.77 2.125-3.542A2.833 2.833 0 0 0 8.5 4.25z"/>
    </defs>
    <g fill="none" fill-rule="evenodd" transform="translate(-1 -1)">
        <mask id="b" fill="#fff">
            <use xlink:href="#a"/>
        </mask>
        <g fill="#000" fill-opacity=".54" mask="url(#b)">
            <path d="M0 0h17v17H0z"/>
        </g>
    </g>
</svg>
