<svg xmlns="http://www.w3.org/2000/svg" width="481" height="354" viewBox="0 0 481 354">
    <defs>
        <linearGradient id="a" x1="50.039%" x2="50.039%" y1="99.991%" y2=".008%">
            <stop offset="0%" stop-color="gray" stop-opacity=".25"/>
            <stop offset="54%" stop-color="gray" stop-opacity=".12"/>
            <stop offset="100%" stop-color="gray" stop-opacity=".1"/>
        </linearGradient>
    </defs>
    <g fill="none" fill-rule="evenodd">
        <path fill="#EAEAEA" d="M279.345 53.053c-30.822-1.068-60.18-11.024-88.21-21.908C163.103 20.261 135.332 8.2 105.25 2.43c-19.35-3.71-41.48-4.225-57.07 6.14C33.175 18.551 28.33 35.8 25.725 51.777c-1.962 12.032-3.115 24.678 2.255 35.957 3.731 7.816 10.356 14.39 14.938 21.878 15.934 26.065 4.68 58.202-12.602 83.646-8.085 11.939-17.5 23.324-23.75 36.034C.314 242-2.579 256.556 2.888 269.517c5.425 12.85 18.342 22.499 32.337 29.285 28.426 13.786 61.924 17.734 94.588 19.968 72.31 4.927 145.004 2.8 217.502.672 26.83-.795 53.776-1.6 80.173-5.748 14.654-2.302 29.784-5.957 40.42-14.785 13.51-11.207 16.858-30.184 7.804-44.25-15.181-23.568-57.163-29.422-67.775-54.717-5.842-13.922.158-29.43 8.646-42.344 18.21-27.703 48.735-52.002 50.343-83.666 1.106-21.747-13.569-43.527-36.255-53.815-23.785-10.786-56.76-9.429-74.306 8.424-18.058 18.385-49.807 25.457-77.02 24.512z"/>
        <path fill="#D0D2D5" d="M282.596 321.617l-82.969-1.064.243-2.127 4.012-35.103h72.863l5.362 35.103.408 2.659z"/>
        <path fill="#000" d="M282.515 321.085h-41.404l-41.484-.532.243-2.127h82.237z" opacity=".1"/>
        <path fill="#D0D2D5" d="M185.799 318.957h110.093v2.659H185.799z"/>
        <path fill="#444053" d="M400.93 72.49a6.923 6.923 0 0 0-6.888-6.957H86.585a6.923 6.923 0 0 0-6.892 6.956v186.36H400.93V72.49z"/>
        <path fill="#D0D2D5" d="M79.693 256.999v21.827a6.893 6.893 0 0 0 6.892 6.893h307.457a6.893 6.893 0 0 0 6.889-6.893V257H79.693z"/>
        <path fill="#0DA176" d="M92.989 77.233H389.23v167.533H92.989z" opacity=".1"/>
        <path fill="#EA0B4B" d="M241.907 277.435a7.186 7.186 0 0 0 5.65-2.74c.205-.261.39-.536.558-.822l-3.94-.646 4.255.034a7.17 7.17 0 0 0 .136-5.693l-5.714 2.978 5.271-3.872a7.178 7.178 0 1 0-11.858 8.033 7.178 7.178 0 0 0 5.642 2.728z"/>
        <path fill="#000" d="M249.09 285.719l33.097 33.238-5.076-33.238z" opacity=".1"/>
        <rect width="194.445" height="116.582" x="101.69" y="107.459" fill="#FFF" rx="2.6"/>
        <path fill="#FFF" d="M93.18 77.25h296.135v9.786H93.18z"/>
        <rect width="8.51" height="5.957" x="94.457" y="78.952" fill="#EA0B4B" rx=".78"/>
        <rect width="89.351" height="5.957" x="195.721" y="78.952" fill="#EA0B4B" opacity=".3" rx=".58"/>
        <path fill="#444053" fill-rule="nonzero" d="M282.421 82.543h-.217l-.08-.068c.273-.324.423-.733.425-1.157a1.761 1.761 0 1 0-1.757 1.774 1.817 1.817 0 0 0 1.157-.425l.08.068v.221l1.362 1.362.426-.426-1.396-1.349zm-1.633 0a1.23 1.23 0 1 1 1.225-1.225 1.217 1.217 0 0 1-1.225 1.225z"/>
        <circle cx="385.06" cy="81.931" r="2.978" fill="#EA0B4B"/>
        <rect width="27.656" height="18.721" x="310.175" y="97.673" fill="#FFF" rx="2.43"/>
        <rect width="35.74" height="2.978" x="345.065" y="97.673" fill="#FFF" rx=".61"/>
        <rect width="35.74" height="2.978" x="345.065" y="104.056" fill="#FFF" rx=".61"/>
        <rect width="35.74" height="2.978" x="345.065" y="110.438" fill="#FFF" rx=".61"/>
        <rect width="27.656" height="18.721" x="310.175" y="127.032" fill="#FFF" rx="2.43"/>
        <rect width="35.74" height="2.978" x="345.065" y="127.032" fill="#FFF" rx=".61"/>
        <rect width="35.74" height="2.978" x="345.065" y="133.414" fill="#FFF" rx=".61"/>
        <rect width="35.74" height="2.978" x="345.065" y="139.796" fill="#FFF" rx=".66"/>
        <rect width="27.656" height="18.721" x="310.175" y="156.39" fill="#FFF" rx="2.43"/>
        <rect width="35.74" height="2.978" x="345.065" y="156.39" fill="#FFF" rx=".66"/>
        <rect width="35.74" height="2.978" x="345.065" y="162.772" fill="#FFF" rx=".66"/>
        <rect width="35.74" height="2.978" x="345.065" y="169.154" fill="#FFF" rx=".66"/>
        <rect width="27.656" height="18.721" x="310.175" y="185.748" fill="#FFF" rx="2.43"/>
        <rect width="35.74" height="2.978" x="345.065" y="185.748" fill="#FFF" rx=".66"/>
        <rect width="35.74" height="2.978" x="345.065" y="192.13" fill="#FFF" rx=".66"/>
        <rect width="35.74" height="2.978" x="345.065" y="198.512" fill="#FFF" rx=".66"/>
        <rect width="27.656" height="18.721" x="310.175" y="215.106" fill="#FFF" rx="2.43"/>
        <rect width="35.74" height="2.978" x="345.065" y="215.106" fill="#FFF" rx=".66"/>
        <rect width="35.74" height="2.978" x="345.065" y="221.488" fill="#FFF" rx=".66"/>
        <rect width="35.74" height="2.978" x="345.065" y="227.87" fill="#FFF" rx=".66"/>
        <path fill="#333" d="M129.738 138.354h43.752v2.268h-43.752z" opacity=".1"/>
        <path fill="#EA0B4B" d="M133.626 126.364h4.212v11.99h-4.212zM139.783 126.364h4.212v11.99h-4.212zM145.94 126.364h4.212v11.99h-4.212zM152.097 126.364h4.212v11.99h-4.212zM158.253 126.364h4.212v11.99h-4.212zM164.414 126.364h4.212v11.99h-4.212z" opacity=".1"/>
        <path fill="#0DA176" d="M133.626 128.631h4.212v1.298h-4.212zM139.783 128.631h4.212v1.298h-4.212zM145.94 128.631h4.212v1.298h-4.212zM152.097 128.631h4.212v1.298h-4.212zM158.253 128.631h4.212v1.298h-4.212zM164.414 128.631h4.212v1.298h-4.212zM133.626 134.465h4.212v1.298h-4.212zM139.783 134.465h4.212v1.298h-4.212zM145.94 134.465h4.212v1.298h-4.212zM152.097 134.465h4.212v1.298h-4.212zM158.253 134.465h4.212v1.298h-4.212zM164.414 134.465h4.212v1.298h-4.212z" opacity=".1"/>
        <path fill="#333" d="M225.662 144.187h43.752v2.268h-43.752z" opacity=".1"/>
        <path fill="#EA0B4B" d="M229.551 132.197h4.212v11.99h-4.212zM235.708 132.197h4.212v11.99h-4.212zM241.865 132.197h4.212v11.99h-4.212zM248.026 132.197h4.212v11.99h-4.212zM254.182 132.197h4.212v11.99h-4.212zM260.339 132.197h4.212v11.99h-4.212z" opacity=".1"/>
        <path fill="#0DA176" d="M229.551 134.465h4.212v1.298h-4.212zM235.708 134.465h4.212v1.298h-4.212zM241.865 134.465h4.212v1.298h-4.212zM248.026 134.465h4.212v1.298h-4.212zM254.182 134.465h4.212v1.298h-4.212zM260.339 134.465h4.212v1.298h-4.212zM229.551 140.298h4.212v1.298h-4.212zM235.708 140.298h4.212v1.298h-4.212zM241.865 140.298h4.212v1.298h-4.212zM248.026 140.298h4.212v1.298h-4.212zM254.182 140.298h4.212v1.298h-4.212zM260.339 140.298h4.212v1.298h-4.212z" opacity=".1"/>
        <path fill="#333" d="M225.662 160.713h43.752v2.268h-43.752z" opacity=".1"/>
        <path fill="#EA0B4B" d="M229.551 148.723h4.212v11.99h-4.212zM235.708 148.723h4.212v11.99h-4.212zM241.865 148.723h4.212v11.99h-4.212zM248.026 148.723h4.212v11.99h-4.212zM254.182 148.723h4.212v11.99h-4.212zM260.339 148.723h4.212v11.99h-4.212z" opacity=".1"/>
        <path fill="#0DA176" d="M229.551 150.99h4.212v1.298h-4.212zM235.708 150.99h4.212v1.298h-4.212zM241.865 150.99h4.212v1.298h-4.212zM248.026 150.99h4.212v1.298h-4.212zM254.182 150.99h4.212v1.298h-4.212zM260.339 150.99h4.212v1.298h-4.212zM229.551 156.824h4.212v1.298h-4.212zM235.708 156.824h4.212v1.298h-4.212zM241.865 156.824h4.212v1.298h-4.212zM248.026 156.824h4.212v1.298h-4.212zM254.182 156.824h4.212v1.298h-4.212zM260.339 156.824h4.212v1.298h-4.212z" opacity=".1"/>
        <path fill="#EA0B4B" d="M156.577 163.997a12.105 12.105 0 0 1-.894-1.314l6.302-1.034-6.808.05a11.514 11.514 0 0 1-.221-9.096l9.126 4.731-8.428-6.195a11.488 11.488 0 1 1 18.963 12.85c.513.647.953 1.35 1.31 2.093l-8.177 4.255 8.718-2.923a11.488 11.488 0 0 1-1.85 10.769 11.488 11.488 0 1 1-18.041 0 11.488 11.488 0 0 1 0-14.198v.012z" opacity=".1"/>
        <path fill="#EA0B4B" d="M177.077 171.094c0 2.572-.866 5.07-2.46 7.089a11.488 11.488 0 1 1-18.04 0c-1.545-1.945 20.5-8.378 20.5-7.089z" opacity=".1"/>
        <path fill="#3F3D56" d="M167.435 199.831c.02.03.039.062.056.094h-3.898c.021-.03.034-.064.055-.094a3.774 3.774 0 0 1-.502-1.919 3.94 3.94 0 0 1 .234-1.353c.217.034.485.073.796.107a13.658 13.658 0 0 0 3.523-.102.038.038 0 0 0 0 .02c.155.428.233.879.23 1.333a3.774 3.774 0 0 1-.494 1.914z" opacity=".2"/>
        <path fill="#EA0B4B" d="M153.428 199.925h-21.7a11.424 11.424 0 0 1 .123-7.888 11.488 11.488 0 0 1-4.19-13.57c-.436-.3-.85-.63-1.238-.99l5.71-2.847-6.493 2.06a11.488 11.488 0 0 1-2.893-8.625l10.13 1.83-9.879-3.434a11.488 11.488 0 1 1 21.908 6.68 11.637 11.637 0 0 1 1.885 1.638l-6.561 6.472 7.467-5.37a11.488 11.488 0 0 1 1.413 10.85c4.234 2.932 6 8.325 4.318 13.194z" opacity=".1"/>
        <path fill="#EA0B4B" d="M153.428 199.925h-21.7a11.424 11.424 0 0 1 .123-7.888c-2.041-1.413 17.118-14.071 17.497-12.837.764 2.46.676 5.106-.251 7.51a11.488 11.488 0 0 1 4.331 13.215zM251.608 184.378a11.445 11.445 0 0 1-5.748 4.833c.103.819.118 1.646.047 2.468l-9.195-.553 8.982 1.949a11.488 11.488 0 0 1-1.37 3.472 11.305 11.305 0 0 1-3.064 3.36h-12.517v.329h-12.765a11.488 11.488 0 0 1 7.08-8.118 11.488 11.488 0 0 1 7.289-12.186 11.641 11.641 0 0 1-.094-1.587l5.936 2.344-5.872-3.45a11.488 11.488 0 0 1 4.506-7.906l5.408 8.756-4.055-9.641a11.488 11.488 0 0 1 15.432 15.93z" opacity=".1"/>
        <path fill="#EA0B4B" d="M244.324 196.564a11.305 11.305 0 0 1-3.064 3.36h-12.517v.329h-12.765a11.488 11.488 0 0 1 7.08-8.118c-.106-.852 2.366-.724 5.663-.17 6.463 1.084 16.041 3.867 15.603 4.599z" opacity=".1"/>
        <path fill="#EE8E9E" d="M190.067 165.925s1.574 8.51-1.94 11.288c-3.515 2.778 2.978 19.431 13.691 17.487 10.714-1.944 15.08-15.913 15.08-15.913s-10.731-2.221-6.753-13.509l-20.078.647z"/>
        <path fill="#000" d="M190.067 165.925s1.574 8.51-1.94 11.288c-3.515 2.778 2.978 19.431 13.691 17.487 10.714-1.944 15.08-15.913 15.08-15.913s-10.731-2.221-6.753-13.509l-20.078.647z" opacity=".1"/>
        <circle cx="199.55" cy="154.407" r="17.764" fill="#EE8E9E"/>
        <path fill="#EA0B4B" d="M228.743 188.177v12.076h-58.657v-11.527a7.437 7.437 0 0 1 4.54-6.85l1.68-.715c4.255-1.812 9.425-4.063 11.114-5 .185-.092.36-.204.52-.335.922-.924.74.276.74.276s-.026.23-.043.626c-.102 2.719.29 13.402 12.811 12.513 12.216-.85 12.765-9.114 12.641-11.543a6.574 6.574 0 0 0-.055-.672c.845.2 1.672.47 2.472.808 2.553.945 6.323 2.46 7.33 3.174.316.221.699.451 1.116.685.473.264.915.58 1.319.94a7.45 7.45 0 0 1 2.472 5.544z"/>
        <path fill="#000" d="M216.506 177.834c-1.034 4.79-4.28 13.764-15.981 13.998-12.467.247-13.19-12.151-13.11-15.67.188-.09.364-.203.524-.336.928-.924.74.276.74.276s-1.57 14.156 12.765 13.14c14.334-1.018 12.573-12.212 12.573-12.212 0-.068 1.068.302 2.489.804z" opacity=".1"/>
        <path fill="#454B69" d="M178.523 155.296a3.042 3.042 0 0 1 3.204 1.17c.647.907.745 2 .826 3.047.77.161 1.204-.71 1.276-1.37.285-2.685.306-5.42 1.208-8.016.902-2.596 2.872-5.106 5.897-6.098a6.842 6.842 0 0 1 3.221-.306c.643.107 1.247.332 1.885.426 2.213.366 4.617-.681 6.689.046 1.302.46 2.127 1.52 2.736 2.579a5.565 5.565 0 0 0 1.063 1.544c.881.792 2.26.996 3.523 1.243 1.264.247 2.643.676 3.183 1.65.485.881.128 1.898-.034 2.851-.25 1.51.002 3.06.719 4.413.234.425.71.94 1.276.8.254-.086.468-.26.605-.49 1.45-2.034 1.412-4.68 3.233-6.514.609-.613 1.396-1.09 1.987-1.702a3.863 3.863 0 0 0 1.03-3.506c-.328-1.404-1.451-2.553-2.357-3.787a14.892 14.892 0 0 1-2.523-5.237.949.949 0 0 1 0-.685c.172-.224.393-.404.646-.528a2.442 2.442 0 0 0 .826-3.119c-.515-1.05-1.647-1.85-2.923-2.327a19.062 19.062 0 0 0-3.987-.851c-.894.128-1.94-.379-2.217-1.093-.123-.32-.123-.664-.247-.983a2.255 2.255 0 0 0-1.701-1.192 4.978 4.978 0 0 0-2.277.162c-.85.238-1.817.596-2.553.179-.387-.217-.6-.613-1.017-.792-.85-.357-1.727.366-2.335.962a5.684 5.684 0 0 1-2.107 1.417 3.136 3.136 0 0 1-2.612-.175c-.583-.37-.877-.966-1.34-1.438a5.046 5.046 0 0 0-3.17-1.276 11.16 11.16 0 0 0-3.578.391 21.606 21.606 0 0 0-6.285 2.638 6.752 6.752 0 0 0-2.412 2.242 5.106 5.106 0 0 0-.54 2.31c-.094 2.515.74 5.162 2.914 6.923-1.328.553-1.774 1.91-2.085 3.115-.498 1.923-.996 3.876-.808 5.833.093 1.013.37 2.025.22 3.034-.118.475-.184.961-.195 1.45.128.552.577.971 1.136 1.06z"/>
        <g fill="#000" opacity=".1">
            <path d="M221.773 146.272c-.19.417-.45.8-.766 1.132-.59.62-1.378 1.102-1.987 1.701-1.82 1.822-1.782 4.485-3.233 6.519-.136.23-.35.402-.604.485-.553.145-1.03-.358-1.277-.8a7.318 7.318 0 0 1-.634-1.702l-.085.426c-.25 1.51.003 3.06.72 4.412.233.425.71.94 1.276.8.253-.086.467-.26.604-.49 1.45-2.033 1.412-4.68 3.233-6.514.609-.612 1.396-1.089 1.987-1.702a3.863 3.863 0 0 0 1.03-3.506 4.57 4.57 0 0 0-.264-.761zM217.808 133.678a1.783 1.783 0 0 0-.647.527.94.94 0 0 0 0 .68c.168.662.383 1.31.643 1.941a2.442 2.442 0 0 0 .825-3.119 2.978 2.978 0 0 0-.298-.497 2.45 2.45 0 0 1-.523.468zM180.28 137.622a7.888 7.888 0 0 1-2.786-4.932 6.646 6.646 0 0 0-.128 1.158 8.859 8.859 0 0 0 1.4 5.263 2.978 2.978 0 0 1 1.514-1.49zM213.2 150.927c.162-.958.519-1.975.034-2.851-.54-.979-1.919-1.404-3.183-1.651-1.263-.247-2.642-.455-3.523-1.242-.439-.451-.799-.974-1.063-1.545-.6-1.06-1.434-2.127-2.736-2.578-2.072-.728-4.476.314-6.689-.047-.638-.107-1.242-.328-1.885-.426a6.808 6.808 0 0 0-3.22.307c-3.026.995-4.996 3.506-5.898 6.097-.902 2.591-.923 5.327-1.208 8.016-.072.655-.506 1.532-1.276 1.37-.081-1.051-.18-2.127-.826-3.05a3.042 3.042 0 0 0-3.204-1.167 1.557 1.557 0 0 1-.898-.574c.047.39.047.784 0 1.174-.119.475-.185.962-.195 1.451.112.557.552.99 1.11 1.094a3.042 3.042 0 0 1 3.204 1.17c.647.906.745 2 .826 3.046.77.162 1.204-.71 1.276-1.37.285-2.685.306-5.42 1.208-8.016.902-2.595 2.872-5.106 5.898-6.097a6.842 6.842 0 0 1 3.22-.306c.643.106 1.247.332 1.885.425 2.213.366 4.617-.68 6.689.047 1.302.46 2.127 1.519 2.736 2.578a5.565 5.565 0 0 0 1.063 1.545c.881.791 2.26.995 3.523 1.242 1.264.247 2.553.647 3.12 1.549-.022-.064 0-.128.012-.191zM177.608 149.603a8.084 8.084 0 0 0-.14-2.37 10.56 10.56 0 0 0-.08 2.485c0 .213.046.426.076.634.047-.25.11-.498.144-.749z"/>
        </g>
        <path fill="#444053" d="M156.785 217.42v-7.68c0-.12.098-.216.217-.216h.873c.12 0 .217.097.217.217v3.195l3.54-3.28a.579.579 0 0 1 .948.425v6.957a.579.579 0 0 1-.948.425l-3.54-3.259v3.178c0 .12-.098.217-.217.217h-.873a.217.217 0 0 1-.217-.178zM242.32 209.74v7.68a.217.217 0 0 1-.221.218h-.851a.217.217 0 0 1-.217-.217v-3.196l-3.54 3.277a.583.583 0 0 1-.953-.426v-6.982a.583.583 0 0 1 .953-.426l3.54 3.26v-3.174c0-.12.097-.217.217-.217h.85a.217.217 0 0 1 .222.204z"/>
        <path fill="#444053" fill-rule="nonzero" d="M198.108 217.753h-1.732a.851.851 0 0 1-.85-.851v-6.357c0-.47.38-.851.85-.851h1.732c.47 0 .851.38.851.85v6.358c0 .47-.38.85-.85.85zm5.489-.851v-6.357a.851.851 0 0 0-.851-.851h-1.749a.851.851 0 0 0-.85.85v6.358c0 .47.38.85.85.85h1.732a.851.851 0 0 0 .868-.85z"/>
        <path fill="#444053" d="M148.493 199.389h102.115v1.136H148.493z" opacity=".6"/>
        <circle cx="180.025" cy="199.955" r="2.693" fill="#444053"/>
        <path fill="#444053" d="M148.493 199.389h31.532v1.136h-31.532z"/>
        <ellipse cx="407.219" cy="322.744" fill="#EA0B4B" rx="25.303" ry="4.867"/>
        <ellipse cx="406.798" cy="320.676" fill="#3F3D56" rx="2.944" ry="3.855"/>
        <ellipse cx="406.798" cy="315.962" fill="#3F3D56" rx="2.944" ry="3.855"/>
        <ellipse cx="406.798" cy="311.252" fill="#3F3D56" rx="2.944" ry="3.855"/>
        <ellipse cx="406.798" cy="306.538" fill="#3F3D56" rx="2.944" ry="3.855"/>
        <ellipse cx="406.798" cy="301.823" fill="#3F3D56" rx="2.944" ry="3.855"/>
        <ellipse cx="406.798" cy="297.109" fill="#3F3D56" rx="2.944" ry="3.855"/>
        <ellipse cx="406.798" cy="292.395" fill="#3F3D56" rx="2.944" ry="3.855"/>
        <path fill="#EA0B4B" d="M417.822 260.143c.402-.514.769-1.054 1.098-1.617l-7.744-1.276 8.374.064a14.156 14.156 0 0 0 .268-11.182l-11.225 5.83 10.357-7.613a14.113 14.113 0 1 0-23.308 15.794 14.402 14.402 0 0 0-1.609 2.553l10.05 5.22-10.713-3.595a14.122 14.122 0 0 0 2.272 13.25c-4.547 5.784-3.886 14.092 1.52 19.084 5.405 4.992 13.74 4.992 19.144 0 5.406-4.992 6.067-13.3 1.52-19.084a14.117 14.117 0 0 0 0-17.445l-.004.017z"/>
        <path fill="#000" d="M392.625 268.866a14.04 14.04 0 0 0 3.017 8.722c-4.547 5.784-3.886 14.092 1.52 19.084 5.405 4.992 13.74 4.992 19.144 0 5.406-4.992 6.067-13.3 1.52-19.084 1.89-2.396-25.2-10.305-25.2-8.722z" opacity=".1"/>
        <ellipse cx="123.389" cy="344.878" fill="#EAEAEA" rx="42.123" ry="8.935"/>
        <path fill="url(#a)" fill-rule="nonzero" d="M137.494 343.84c-.85-.311-1.761-.26-2.65-.358a8.203 8.203 0 0 1-4.877-2.366 8.935 8.935 0 0 1-1.948-2.978c.28.102.561.209.85.323-.85-1.987.043-4.216.826-6.224a268.437 268.437 0 0 0 3.766-10.267c2.978-8.718 5.53-17.785 5.475-27.06 0-3.354-.616-6.523-.736-9.872-.089-2.485.294-4.965.277-7.454 0-.35 0-.694-.026-1.043a6.608 6.608 0 0 0 2.243-5.386 12.969 12.969 0 0 0-.226-1.566c-.15-.898-.35-1.787-.595-2.664-.281-.923-.664-1.808-.992-2.71-.634-1.749-1.064-3.57-1.604-5.348.2.02.396.073.579.157a1.247 1.247 0 0 1-.273-.557 13.79 13.79 0 0 1-.51-3.476l.362-.162a9.05 9.05 0 0 0-.175-3.442c.204-1.826.523-3.664.72-5.48.071-.681.042-1.536-.584-1.702-.127-.975-.178-1.962-.23-2.945l-.531-10.284c-.18-3.442-.358-6.88-.426-10.326-.047-2.187-.072-4.45-.591-6.544a7.914 7.914 0 0 0-.302-2.978c-.792-2.506-3.251-4.493-5.744-4.353a11.428 11.428 0 0 0-2.72-2.748 47.638 47.638 0 0 1 1.584-3.166c3.99-1.298 6.91-5.233 6.91-9.914a10.82 10.82 0 0 0-1.17-4.931c.073-.188.135-.38.187-.574a4.719 4.719 0 0 0-.192-2.762 8.084 8.084 0 0 0-.425-.987c-.111-.213-.23-.425-.354-.63l-.217-.327a6.118 6.118 0 0 0-.425-.579 14.083 14.083 0 0 0-.97-1.166 9.599 9.599 0 0 0-1.396-1.242 6.152 6.152 0 0 0-2.297-1.06c-.48-.094-.97-.139-1.46-.131-.293 0-.591 0-.885.025-.595.034-1.187.077-1.778.072-.196 0-.396 0-.592-.03a21.542 21.542 0 0 1-3.08-.642l-.51-.106a9.74 9.74 0 0 0-1.927-.17h-.473c-.472.022-.942.07-1.409.144l-.468.073a13.445 13.445 0 0 0-3.425 1.016 6.61 6.61 0 0 0-.425.213l-.085.047c-.115.06-.23.123-.34.191l-.065.039-.361.23-.03.02c-3.378 2.273-5.374 6.579-5.88 10.85-.566 4.796.425 9.63 1.417 14.348l.893 4.255c.038.191.081.378.12.57a9.36 9.36 0 0 0-2.805 3.889c-.85 2.127-.872 4.429-.804 6.735 0 .468.026.936.073 1.404-.107.885-.2 1.774-.26 2.668-.268 4.127.234 8.275.102 12.411-.102 3.187-.583 6.382-.349 9.548.204 2.808.958 5.531 1.702 8.241l1.072 3.864c.035.2.128.385.268.532a.808.808 0 0 0 .6.123 36.217 36.217 0 0 0-1.744 4.885 15.105 15.105 0 0 0-.63 3.14c-.14 1.948.31 3.884.762 5.778.68 2.836 1.358 5.684 2.034 8.543l1.425 5.995c.936 3.94 1.876 7.906 2.05 11.96a25.976 25.976 0 0 1-.425 6.08 52.98 52.98 0 0 0-.527 18.224 89.351 89.351 0 0 0 3.442 15.066 15.95 15.95 0 0 1 1.05-.51l-.148.276c-.49.851-.945 1.723-1.362 2.617-.28.58-.524 1.179-.727 1.791-.545 1.702-.63 3.515-.707 5.306-.039.344-.008.693.09 1.025.234.643.906.97 1.531 1.15 1.839.523 3.749.335 5.66.089a.685.685 0 0 0 .038.123c.234.642.902.97 1.531 1.149 2.63.749 5.404.042 8.114-.213 2.71-.255 5.374-.068 7.982-.694a3.8 3.8 0 0 0 1.107-.425 3.62 3.62 0 0 0 1.395-1.936 2.48 2.48 0 0 0 .162-.634c.106-.932-.69-1.753-1.532-2.063zm-8.999-39.404a10.722 10.722 0 0 1-.85 2.885 55.057 55.057 0 0 0-4.366 13.687 63.46 63.46 0 0 0-.966 9.467c-.043 2.34.047 4.791-.928 6.893l.354-.055c-.111.204-.217.425-.32.587l-.05.093a9.224 9.224 0 0 1-1.162-3.259c0-.038-.192-.068-.485-.085a88.045 88.045 0 0 1-1.243-20.376c.006-.827.12-1.65.34-2.447.218-.685.584-1.31.852-1.974.425-1.115.71-2.278.85-3.463.464-3.03.644-6.094.537-9.157-.102-2.889.566-5.76 1.136-8.637.272-1.366.523-2.736.66-4.106l.025-.276a41.216 41.216 0 0 1 5.225 13.564c.514 2.18.646 4.433.391 6.659zm-18.21-61.49l.136.118c.411.362.79.76 1.132 1.187.17.187.292.412.357.656.128.62-.387 1.149-.808 1.604a7.233 7.233 0 0 0-.515.621 518.67 518.67 0 0 0-.29-4.187h-.012z"/>
        <path fill="#333" d="M104.396 216.276l-.468 3.612c-.157 1.226-.315 2.447-.4 3.677-.285 4.093.243 8.203.106 12.305-.11 3.157-.612 6.31-.37 9.462.217 2.783 1.009 5.489 1.8 8.17l1.123 3.829c.039.2.136.384.281.527.216.128.474.17.72.115l4.986-.45c-.32-1.464-.673-2.98-.851-4.481-.136-1.174-.217-2.357-.302-3.54-.264-3.685-.566-7.37-.851-11.063l-.532-6.467c-.226-2.808-.46-5.629-1.166-8.356a16.632 16.632 0 0 0-4.076-7.34z"/>
        <path fill="#333" d="M104.396 216.276l-.468 3.612c-.157 1.226-.315 2.447-.4 3.677-.285 4.093.243 8.203.106 12.305-.11 3.157-.612 6.31-.37 9.462.217 2.783 1.009 5.489 1.8 8.17l1.123 3.829c.039.2.136.384.281.527.216.128.474.17.72.115l4.986-.45c-.32-1.464-.673-2.98-.851-4.481-.136-1.174-.217-2.357-.302-3.54-.264-3.685-.566-7.37-.851-11.063l-.532-6.467c-.226-2.808-.46-5.629-1.166-8.356a16.632 16.632 0 0 0-4.076-7.34z" opacity=".1"/>
        <path fill="#A26565" d="M113.28 339.249c-.293.576-.549 1.17-.766 1.778-.57 1.68-.655 3.485-.74 5.259-.038.342-.006.688.093 1.017.247.638.953.962 1.613 1.136 2.761.745 5.672.047 8.51-.209 2.838-.255 5.641-.068 8.382-.685a4.28 4.28 0 0 0 1.161-.404 3.62 3.62 0 0 0 1.468-1.914c.083-.202.138-.414.166-.63.09-.936-.723-1.745-1.608-2.05-.885-.307-1.851-.26-2.783-.354a8.765 8.765 0 0 1-7.76-7.323c-.035-.204-4.613-.08-5.107.183-.561.31-.902 1.081-1.22 1.604a37.357 37.357 0 0 0-1.409 2.592z"/>
        <path fill="#000" d="M113.28 339.249c-.293.576-.549 1.17-.766 1.778-.57 1.68-.655 3.485-.74 5.259-.038.342-.006.688.093 1.017.247.638.953.962 1.613 1.136 2.761.745 5.672.047 8.51-.209 2.838-.255 5.641-.068 8.382-.685a4.28 4.28 0 0 0 1.161-.404 3.62 3.62 0 0 0 1.468-1.914c.083-.202.138-.414.166-.63.09-.936-.723-1.745-1.608-2.05-.885-.307-1.851-.26-2.783-.354a8.765 8.765 0 0 1-7.76-7.323c-.035-.204-4.613-.08-5.107.183-.561.31-.902 1.081-1.22 1.604a37.357 37.357 0 0 0-1.409 2.592z" opacity=".1"/>
        <path fill="#A26565" d="M120.875 340.602c-.295.573-.55 1.166-.766 1.774-.574 1.702-.66 3.485-.74 5.259a2.48 2.48 0 0 0 .093 1.017c.243.638.95.961 1.609 1.14 2.76.74 5.675.043 8.51-.213 2.833-.255 5.645-.068 8.381-.685a4.093 4.093 0 0 0 1.162-.425 3.604 3.604 0 0 0 1.468-1.915c.082-.202.138-.413.166-.63.089-.931-.724-1.744-1.609-2.05-.885-.307-1.85-.256-2.782-.354a8.77 8.77 0 0 1-7.761-7.318c-.034-.204-4.612-.085-5.106.179-.566.31-.906 1.08-1.225 1.604a57.229 57.229 0 0 0-1.4 2.617z"/>
        <path fill="#454B69" d="M140.672 295.403c.06 9.194-2.612 18.18-5.748 26.805a245.58 245.58 0 0 1-3.953 10.173c-.825 1.992-1.757 4.204-.872 6.17-2.553-.97-5.148-1.54-7.833-1.094 1.021-2.085.923-4.51.97-6.807a59.695 59.695 0 0 1 1.004-9.382 52.334 52.334 0 0 1 4.591-13.569 10.34 10.34 0 0 0 .89-2.859c.348-2.187.076-4.434-.38-6.6a39.344 39.344 0 0 0-5.488-13.444l-.025.272a39.685 39.685 0 0 1-.69 4.072c-.6 2.846-1.302 5.697-1.195 8.56a46.305 46.305 0 0 1-.562 9.076 13.798 13.798 0 0 1-.915 3.43c-.293.659-.676 1.276-.906 1.96a8.935 8.935 0 0 0-.357 2.426c-.34 6.923 0 13.951 1.412 20.738-2.37-.187-4.74.498-6.858 1.561a84.475 84.475 0 0 1-3.617-14.934 49.62 49.62 0 0 1 .553-18.066c.402-1.98.552-4.003.447-6.02-.183-4.021-1.17-7.953-2.153-11.859l-1.498-5.956c-.709-2.837-1.418-5.66-2.127-8.472-.472-1.876-.949-3.795-.8-5.727.104-1.06.326-2.104.664-3.114a34.758 34.758 0 0 1 4.71-9.633c8.199.46 16.496-.306 24.678-.936a1.655 1.655 0 0 1 1.157.196c.279.283.445.658.468 1.055l3.076 17.445c.498 2.424.79 4.887.872 7.36 0 2.468-.383 4.927-.289 7.391.128 3.319.757 6.459.774 9.782z"/>
        <path fill="#000" d="M123.836 285.068a39.685 39.685 0 0 1-.69 4.072c-1.782-3.085-3.705-6.093-5.347-9.254-.426-.813-.826-1.639-1.23-2.464l-1.213-2.468a34.814 34.814 0 0 1-.655-1.4 10.114 10.114 0 0 1-.762-2.127c.596-.11 2.068 1.498 2.51 1.919a34.31 34.31 0 0 1 2.554 2.825 30.98 30.98 0 0 1 2.663 3.489 16.968 16.968 0 0 1 2.17 5.408z" opacity=".1"/>
        <path fill="#EFB7B9" d="M130.665 200.435s-4.552 7.255-3.71 8.774c.842 1.519-14.339-1.349-14.339-1.349s8.267-7.254 7.42-10.292c-.846-3.038 10.63 2.867 10.63 2.867z"/>
        <circle cx="126.619" cy="192.339" r="10.292" fill="#EFB7B9"/>
        <path fill="#000" d="M130.818 208.043a10.45 10.45 0 0 0-4.327-3.48 15.479 15.479 0 0 0-3.076-.758l-4.106-.723c-1.004-.179-2.08-.345-3.017.068-.473.243-.904.56-1.276.94-1.425 1.324-2.808 2.774-4.6 3.54-.489.209-1 .362-1.489.57-2.004.851-3.501 2.664-4.348 4.68-.894 2.103-.92 4.388-.851 6.672-.001.79.077 1.576.234 2.349.205.736.465 1.456.779 2.153a39.387 39.387 0 0 1 1.42 4.565 144.633 144.633 0 0 1 2.656 12.34c.06.595.234 1.173.515 1.701.396.53.876.99 1.42 1.366.433.355.83.75 1.188 1.179.178.175.31.391.387.63.132.612-.426 1.14-.851 1.586a7.684 7.684 0 0 0-1.923 3.349 1.349 1.349 0 0 0-.307.923c.09.233.123.484.098.732a1.65 1.65 0 0 1-.387.6 2.268 2.268 0 0 0-.425 1.821 28.886 28.886 0 0 0 10.075 2.357c.851.043 1.702.043 2.553.145.604.076 1.2.2 1.804.272.877.082 1.758.105 2.638.068 4.582-.093 9.297-.208 13.505-2.025.395-2.157-.46-4.357-.996-6.484-.85-3.404-1.064-6.889-1.702-10.323-.425-2.344-1.064-4.654-1.425-7.016-.362-2.361-.426-4.808.204-7.105.574-2.034.749-4.11 1.345-6.14.595-2.03 1.012-4.23.34-6.238-.851-2.484-3.434-4.454-6.055-4.314z"/>
        <path fill="#A26565" d="M135.873 186.88c.502-1.826-.485-3.728-1.66-5.212-1.276-1.596-2.901-3.034-4.897-3.434-1.62-.328-3.301.068-4.952-.064-1.46-.115-2.864-.642-4.315-.85a13.666 13.666 0 0 0-3.948.148 14.998 14.998 0 0 0-3.595 1.004c-4.383 1.945-6.948 6.736-7.544 11.488-.596 4.753.447 9.544 1.485 14.22l.94 4.229c.979 4.404 1.957 8.824 2.217 13.326.26 4.502-.226 9.122-2.076 13.232a28.46 28.46 0 0 0 13.075-14.802c.663-1.74 1.157-3.548 1.897-5.259.634-1.472 1.447-2.868 2.008-4.37.635-1.695.94-3.496.898-5.305-.034-1.362-.26-2.715-.221-4.076.038-1.362.387-2.779 1.327-3.766.851-.872 2.021-1.276 3.098-1.842a12.896 12.896 0 0 0 4.336-3.617c.676-.885.714-1.276.885-2.28.17-1.005.778-1.804 1.042-2.77z"/>
        <path fill="#EFB7B9" d="M135.886 264.194c.106 1.06-.085 2.127.144 3.178.175.783.58 1.49.817 2.255.236.884.358 1.795.362 2.71.034.766-.025 1.702-.706 2.06-.298.157-.655.157-.966.293-.31.137-.575.507-.396.796.179.29.485.243.766.298.28.055.583.345.426.579a.485.485 0 0 1-.247.157 3.012 3.012 0 0 0-.8.383.817.817 0 0 0-.328.779.48.48 0 0 0 .685.314 2.127 2.127 0 0 0-.2.851c1.09.468 2.31-.144 3.332-.736.441-.246.868-.519 1.276-.817a6.382 6.382 0 0 0 2.485-5.433c-.049-.522-.13-1.04-.242-1.553a23.368 23.368 0 0 0-.626-2.642c-.294-.915-.693-1.787-1.038-2.685-.732-1.91-1.204-3.91-1.868-5.846a.885.885 0 0 0-.32-.507.898.898 0 0 0-.471-.089 7.74 7.74 0 0 0-2.217.204c-.426.128-1.153.426-1.353.851-.2.426.119.783.31 1.136a9.522 9.522 0 0 1 1.175 3.464z"/>
        <path fill="#000" d="M135.192 212.494c.219.223.402.479.545.757 1.464 2.66 1.48 5.838 1.549 8.871.076 3.404.263 6.808.45 10.233l.558 10.212c.055.974.106 1.948.247 2.914.655.166.68 1.017.608 1.702-.472 4.161-1.642 8.446-.425 12.45.047.205.145.395.285.553a3.323 3.323 0 0 0-1.902-.026c-.609.128-1.196.353-1.808.494-.775.174-1.651.25-2.179.85a42.225 42.225 0 0 1-1.425-5.496c-.29-1.702-.37-3.455-1.06-5.03-.276-.634-.65-1.22-.991-1.83-1.783-3.182-2.66-6.777-3.514-10.326a15.075 15.075 0 0 1-.273-5.13c.124-.782.195-1.571.213-2.362a18.143 18.143 0 0 0-.328-2.485 16.658 16.658 0 0 1 .498-7.195c.638-2.166 1.2-4.446 2.553-6.267 1.353-1.821 4.14-2.86 6.4-2.89z" opacity=".1"/>
        <path fill="#333" d="M135.699 212.153c.218.225.402.482.544.762 1.464 2.655 1.48 5.837 1.549 8.871.077 3.404.264 6.808.451 10.212l.557 10.211c.056.975.107 1.949.247 2.915.655.166.68 1.017.604 1.702-.468 4.16-1.638 8.441-.425 12.45.047.205.145.395.285.552a3.323 3.323 0 0 0-1.902-.025c-.608.127-1.196.353-1.808.49-.775.178-1.651.25-2.179.85a41.787 41.787 0 0 1-1.412-5.523c-.29-1.702-.37-3.45-1.06-5.025-.3-.626-.63-1.236-.991-1.83-1.787-3.182-2.66-6.781-3.515-10.33a15.07 15.07 0 0 1-.272-5.131c.32-1.604.281-3.26-.115-4.846a16.636 16.636 0 0 1 .498-7.191c.638-2.166 1.2-4.446 2.553-6.267 1.353-1.821 4.131-2.813 6.39-2.847z"/>
        <g fill="#000" opacity=".1">
            <path d="M134.214 181.668c-1.277-1.596-2.902-3.034-4.898-3.434-1.62-.328-3.301.068-4.952-.064-1.46-.115-2.864-.642-4.315-.85a13.666 13.666 0 0 0-3.948.148 14.998 14.998 0 0 0-3.595 1.004c-.623.279-1.217.617-1.775 1.009a15.13 15.13 0 0 1 3.179-.851c1.3-.241 2.629-.292 3.944-.15 1.455.188 2.855.711 4.319.826 1.646.132 3.327-.26 4.952.064 1.996.4 3.63 1.842 4.893 3.438 1.179 1.48 2.162 3.382 1.664 5.212-.264.962-.877 1.804-1.043 2.795-.166.992-.208 1.396-.889 2.28a12.926 12.926 0 0 1-3.123 2.907c.328-.153.664-.306.983-.472a12.896 12.896 0 0 0 4.336-3.617c.676-.885.714-1.276.885-2.28.17-1.005.778-1.83 1.042-2.796.502-1.783-.485-3.685-1.66-5.17zM126.512 197.415c.177-.183.369-.35.575-.498-.983.476-2.017.893-2.77 1.702-.94.983-1.276 2.404-1.328 3.765-.05 1.362.192 2.715.222 4.072a14.215 14.215 0 0 1-.898 5.31c-.562 1.502-1.374 2.893-2.008 4.37-.736 1.702-1.23 3.514-1.894 5.254a28.507 28.507 0 0 1-10.811 13.454c-.026.055-.047.115-.072.17a28.46 28.46 0 0 0 13.075-14.802c.663-1.74 1.157-3.549 1.897-5.26.634-1.471 1.447-2.867 2.008-4.369.635-1.695.94-3.496.898-5.306-.034-1.361-.26-2.714-.221-4.076.038-1.361.387-2.8 1.327-3.786z"/>
        </g>
    </g>
</svg>
