<svg xmlns="http://www.w3.org/2000/svg" width="24" height="24" viewBox="0 0 24 24">
    <g fill="none" fill-rule="evenodd">
        <path fill="#F4F4F4" d="M-284-545h1440V719H-284z"/>
        <path fill="#FFF" stroke="#EA0B4B" d="M-163.5-250.5V273a3.5 3.5 0 0 0 3.5 3.5h1192a3.5 3.5 0 0 0 3.5-3.5v-556a3.5 3.5 0 0 0-3.5-3.5H642a3.5 3.5 0 0 0-3.5 3.5v32.5h-802z"/>
        <path fill="#5DDDD3" d="M12 0c6.627 0 12 5.372 12 12 0 6.627-5.373 12-12 12-6.628 0-12-5.373-12-12C0 5.372 5.373 0 12 0z"/>
        <g fill="#F5A209">
            <path d="M21.11 11.464H2.89L12 6.086zM2.89 11.464h18.22v10.755H2.89z"/>
        </g>
        <path fill="#FFF" d="M4.761 3.64H16.22l3.02 3.018V22.22H4.76V3.64z"/>
        <path fill="#ECF0F1" fill-rule="nonzero" d="M6.944 7.624h10.111v.228H6.945v-.228zm0 2.456h10.111v.228H6.945v-.228zm0 .423h10.111v.228H6.945v-.228zm0 .423h10.111v.228H6.945v-.228zm0 .423h10.112v.228H6.944v-.228zm0-3.302h10.111v.228H6.945v-.228zm0 .423h10.111v.228H6.945V8.47zm0 .423h10.112v.228H6.944v-.228zm0 .423h7.745v.228H6.944v-.228zm0 2.456h7.745V12H6.944v-.228z"/>
        <path fill="#FFCA4F" d="M16.22 3.64v3.018h3.019z"/>
        <path fill="#B3B3B3" d="M10.229 19.98h3.43v.334h-3.43z"/>
        <g fill="#FBB429">
            <path d="M2.89 11.464L12 16.84 2.89 22.22zM21.11 11.464L12 16.84l9.11 5.378z"/>
        </g>
        <path fill="#F5A209" d="M12 16.841L2.89 22.22h18.22z"/>
        <path fill="#F7FAFA" d="M19.238 9.678v-3.02H16.22z"/>
        <path fill="#FFCA4F" d="M4.868.778a2.865 2.865 0 1 1 0 5.731 2.865 2.865 0 0 1 0-5.73z"/>
        <g fill="#FFF">
            <path fill-rule="nonzero" d="M5.085 4.4c-.09.103-.19.186-.3.249a.67.67 0 0 1-.334.093.677.677 0 0 1-.357-.107.775.775 0 0 1-.282-.33 1.1 1.1 0 0 1-.108-.49c0-.218.056-.437.168-.657a1.27 1.27 0 0 1 .417-.494.88.88 0 0 1 .485-.165c.12 0 .234.03.343.094a.808.808 0 0 1 .28.286l.073-.32h.367L5.54 3.943c-.042.193-.062.299-.062.32 0 .037.014.069.042.096.028.027.063.04.102.04.073 0 .17-.042.287-.125a1.15 1.15 0 0 0 .374-.443 1.27 1.27 0 0 0 .137-.57c0-.23-.06-.444-.177-.643a1.259 1.259 0 0 0-.527-.478 1.678 1.678 0 0 0-.774-.179 1.77 1.77 0 0 0-.884.226c-.267.15-.474.366-.62.647-.147.28-.22.582-.22.904 0 .336.073.626.22.869.147.243.359.423.636.539.277.116.584.174.922.174.36 0 .663-.06.906-.182.244-.121.426-.27.547-.443h.372c-.07.144-.19.292-.361.442-.17.15-.373.269-.608.356a2.45 2.45 0 0 1-.85.131 2.9 2.9 0 0 1-.845-.118 1.785 1.785 0 0 1-.66-.352 1.573 1.573 0 0 1-.41-.543 2.046 2.046 0 0 1-.174-.84c0-.335.07-.655.207-.958.168-.372.407-.657.716-.855.309-.198.684-.297 1.124-.297.342 0 .649.07.92.21.272.139.487.347.643.623.134.237.201.495.201.774 0 .399-.14.752-.42 1.061-.25.278-.524.416-.821.416a.518.518 0 0 1-.23-.043.277.277 0 0 1-.129-.125.536.536 0 0 1-.039-.179zm-1.001-.558c0 .188.045.335.134.439.09.105.192.157.308.157a.52.52 0 0 0 .244-.07.88.88 0 0 0 .244-.205c.078-.09.142-.206.19-.345.05-.14.075-.28.075-.42 0-.187-.046-.333-.139-.436a.44.44 0 0 0-.34-.155.498.498 0 0 0-.249.067.776.776 0 0 0-.226.216 1.199 1.199 0 0 0-.175.361 1.312 1.312 0 0 0-.066.39z"/>
            <path d="M22.187 2.771l.874.788.08.072-.08.072-.874.789-.13-.145.686-.618h-3.208v-.195h3.208l-.686-.619.13-.144z"/>
            <path d="M19.015 3.319l-.874.788-.08.072.08.072.874.788.13-.144-.687-.619h3.209v-.194h-3.209l.686-.62-.13-.143z"/>
        </g>
    </g>
</svg>
