<svg xmlns="http://www.w3.org/2000/svg" width="24" height="24" viewBox="0 0 24 24">
    <g fill="none" fill-rule="evenodd">
        <path fill="#F4F4F4" d="M-246-545h1440V719H-246z"/>
        <path fill="#FFF" stroke="#EA0B4B" d="M-125.5-250.5V273a3.5 3.5 0 0 0 3.5 3.5h1192a3.5 3.5 0 0 0 3.5-3.5v-556a3.5 3.5 0 0 0-3.5-3.5H680a3.5 3.5 0 0 0-3.5 3.5v32.5h-802z"/>
        <path fill="#1976D2" d="M21 0H3C1.345 0 0 1.345 0 3v18c0 1.654 1.345 3 3 3h18c1.654 0 3-1.346 3-3V3c0-1.655-1.346-3-3-3z"/>
        <path fill="#FAFAFA" d="M20 12.308h-3.667V9.385c0-.807.657-.731 1.467-.731h1.467V5h-2.934c-2.43 0-4.4 1.963-4.4 4.385v2.923H9v3.654h2.933V24h4.4v-8.038h2.2L20 12.308z"/>
    </g>
</svg>
