<svg xmlns="http://www.w3.org/2000/svg" width="24" height="15" viewBox="0 0 24 15">
    <g fill="none" fill-rule="evenodd">
        <path fill="#F4F4F4" d="M-208-550h1440V714H-208z"/>
        <path fill="#FFF" stroke="#EA0B4B" d="M-87.5-255.5V268a3.5 3.5 0 0 0 3.5 3.5h1192a3.5 3.5 0 0 0 3.5-3.5v-556a3.5 3.5 0 0 0-3.5-3.5H718a3.5 3.5 0 0 0-3.5 3.5v32.5h-802z"/>
        <g fill="#F44336">
            <path d="M24 6.2h-2.8V3h-1.4v3.2H17v1.6h2.8V11h1.4V7.8H24zM7.5 9h4.243A4.509 4.509 0 0 1 7.5 12 4.505 4.505 0 0 1 3 7.5C3 5.019 5.019 3 7.5 3c1.075 0 2.11.385 2.915 1.086l1.97-2.262A7.433 7.433 0 0 0 7.5 0C3.364 0 0 3.365 0 7.5 0 11.636 3.365 15 7.5 15c4.136 0 7.5-3.364 7.5-7.5V6H7.5v3z"/>
        </g>
    </g>
</svg>
