<svg xmlns="http://www.w3.org/2000/svg" width="451" height="354" viewBox="0 0 451 354">
    <defs>
        <linearGradient id="a" x1="49.997%" x2="49.997%" y1="100%" y2="0%">
            <stop offset="0%" stop-color="gray" stop-opacity=".25"/>
            <stop offset="54%" stop-color="gray" stop-opacity=".12"/>
            <stop offset="100%" stop-color="gray" stop-opacity=".1"/>
        </linearGradient>
        <linearGradient id="b" x1="49.997%" x2="49.997%" y1="100.006%" y2=".005%">
            <stop offset="0%" stop-color="gray" stop-opacity=".25"/>
            <stop offset="54%" stop-color="gray" stop-opacity=".12"/>
            <stop offset="100%" stop-color="gray" stop-opacity=".1"/>
        </linearGradient>
    </defs>
    <g fill="none" fill-rule="evenodd">
        <path fill="#EAEAEA" fill-rule="nonzero" d="M220.402 31.042c-16.13-1.934-31.215-7.876-46.44-12.9a415.02 415.02 0 0 0-51.715-13.364c-18.652-3.566-37.88-5.89-56.58-4.228-18.7 1.661-36.945 7.638-48.871 18.565C-3.41 37.65-1.705 65.745 4.968 90.508c7.92 29.38 21.612 58.423 44.025 83.445 15.93 17.787 35.92 33.185 55.731 48.47 11.2 8.625 22.504 17.31 35.586 24.092 12.17 6.3 25.607 10.819 38.949 15.272 14.247 4.76 28.528 9.547 43.237 13.186 46.95 11.616 96.377 11.252 144.703 10.218 17.008-.36 34.786-.952 49.054-7.595 11.118-5.193 19.041-13.606 25.044-22.578 7.855-11.753 12.814-25.78 7.236-38.888-8.223-19.335-36.404-30.726-45.787-49.767-12.022-24.434 11.33-50.261 4.722-75.695-2.748-10.58-10.499-20.145-18.713-29.064-19.591-21.266-45.63-40.637-80.628-37.806-29.631 2.388-56.657 10.974-87.725 7.244z"/>
        <path fill="url(#a)" fill-rule="nonzero" d="M148.143 19.158h135.455c7.393 0 13.392 5.98 13.416 13.373v296.59c-.024 7.392-6.023 13.372-13.416 13.372H148.143c-7.392 0-13.391-5.98-13.415-13.373V32.526c.026-7.39 6.025-13.368 13.415-13.368z"/>
        <rect width="159.811" height="319.621" x="135.961" y="21.634" fill="#333" fill-rule="nonzero" rx="26.87" transform="rotate(-180 215.866 181.444)"/>
        <path fill="#FFF" fill-rule="nonzero" d="M284 311.524H147.729V51.37H284z"/>
        <circle cx="231.97" cy="36.499" r="1.238" fill="#FFF" fill-rule="nonzero"/>
        <path fill="#FFF" fill-rule="nonzero" d="M224.772 37.737h-25.255a1 1 0 0 1-1-1v-.48a1 1 0 0 1 1-1h25.255a1 1 0 0 1 1 1v.48a1 1 0 0 1-1 1z"/>
        <circle cx="216.485" cy="323.91" r="8.673" fill="#FFF" fill-rule="nonzero"/>
        <ellipse cx="209.375" cy="332.725" fill="#EAEAEA" fill-rule="nonzero" opacity=".258" rx="109.922" ry="21.205"/>
        <path fill="#0DA176" fill-rule="nonzero" d="M163.286 91.676h105.161v140.648H163.286z" opacity=".1"/>
        <path fill="url(#b)" fill-rule="nonzero" d="M253.33 159.858c-.259-.294-.523-.58-.796-.865 2.09-2.372 4.259-4.808 4.237-7.855-.021-3.709-3.31-6.552-4.54-10.057-1.67-4.76.65-9.876 1.602-14.831a27.818 27.818 0 0 0-6.033-22.91c-.965-1.143-2.086-2.247-3.527-2.697-2.185-.692-4.514.269-6.79.55-7.526.926-14.372-5.557-21.932-4.977-.501.02-.994.13-1.455.33-.978.466-1.506 1.496-2.111 2.388-2.35 3.462-6.293 5.193-10.218 6.924a5.487 5.487 0 0 0-1.393.64c-1.178.55-2.337 1.121-3.432 1.77-5.453 3.272-6.319 7.466-4.618 10.962a10.702 10.702 0 0 0 2.649 3.367 6.318 6.318 0 0 1-.156.628c-1.112 3.999-5.007 7.586-4.297 11.745.156.81.448 1.587.865 2.298 1.156 2.09 3.068 3.895 3.804 6.163.076.23.138.464.186.7.398 1.983-.234 3.87-1.103 5.743-8.292 1.918-17.657 5.449-18.384 11.685-1.273 10.845-5.098 40.8-5.098 40.8s-2.562 13.85 3.61 15.537c1.942.528 4.76-.16 8.801-2.882l-.216.64c-.047.143-.095.282-.138.433a126.873 126.873 0 0 0-4.233 16.229h59.548a65.29 65.29 0 0 0-2.324-10.2c-.073-.243-.147-.464-.212-.671a45.635 45.635 0 0 0 5.194 1.87c2.194.657 3.955.648 5.37.229 5.154-1.537 5.7-8.517 5.7-8.517l2.215-17.016 2.649-25.373c.391-1.1.589-2.26.584-3.428 0-2.445-.83-5.734-4.007-9.352zm-45.214-15.977c.03-.295.052-.593.069-.888l.078.052c0 .282-.03.563-.06.84v.048a11.196 11.196 0 0 1-.563 2.596c.23-.868.388-1.754.476-2.648zm30.05 61.374c-1.328.606-3.098-.264-3.098-.264.152.277.294.545.433.814v.03l-.095-.052-1.017-.52a25.07 25.07 0 0 1 1.999-5.945 49.534 49.534 0 0 0 2.069-4.839c.255-.727.467-1.393.64-2.008-.03 2.726.101 5.452.394 8.162.38 2.947-.35 4.185-1.324 4.622z"/>
        <path fill="#B0605D" fill-rule="nonzero" d="M197.474 110.117c-1.415.965-2.9 2.081-3.402 3.721-.813 2.644 1.23 5.297 1.429 8.058.367 5.016-5.306 9.162-4.47 14.126.57 3.401 4.058 5.712 4.73 9.088.977 4.933-4.367 9.282-3.948 14.28.226 2.671 2.082 4.939 4.185 6.592a20.379 20.379 0 0 0 10.226 4.198c-.246-4.289-3.431-8.197-2.882-12.46.377-2.92 2.432-5.314 3.622-8.01 2.09-4.734 1.42-10.213.17-15.233-1.251-5.02-3.065-9.984-3.156-15.147-.056-3.116 1.407-7.69.334-10.646-1.303-3.583-4.41-.22-6.838 1.433z"/>
        <path fill="#000" fill-rule="nonzero" d="M197.907 109.251c-1.415.965-2.9 2.082-3.402 3.722-.813 2.644 1.23 5.297 1.428 8.058.368 5.016-5.305 9.161-4.47 14.125.571 3.402 4.06 5.713 4.73 9.088.978 4.934-4.367 9.283-3.947 14.281.225 2.67 2.082 4.938 4.185 6.591a20.379 20.379 0 0 0 10.226 4.198c-.246-4.289-3.432-8.196-2.882-12.46.377-2.92 2.432-5.313 3.622-8.01 2.09-4.734 1.42-10.213.169-15.233-1.25-5.02-3.064-9.984-3.155-15.147-.056-3.115 1.407-7.69.333-10.645-1.302-3.584-4.41-.221-6.837 1.432z" opacity=".1"/>
        <path fill="#FFB9B9" fill-rule="nonzero" d="M202.485 174.304s-22.936-23.37-5.626-21.638c3.926.394 6.583-.308 8.344-1.623 2.008-1.497 2.852-3.791 3.086-6.184.476-4.76-1.476-9.954-1.476-9.954s23.37-18.609 18.609 4.76a39.84 39.84 0 0 0-.909 7.223c-.078 4.96 1.554 6.86 3.843 7.639 3.86 1.32 9.599-.528 12.213 3.747 4.76 7.807-38.084 16.03-38.084 16.03z"/>
        <path fill="#000" fill-rule="nonzero" d="M225.422 139.683a39.84 39.84 0 0 0-.909 7.223c-.623.215-1.257.396-1.9.54a18.643 18.643 0 0 1-14.324-2.596c.476-4.76-1.476-9.953-1.476-9.953s23.37-18.583 18.609 4.786z" opacity=".05"/>
        <path fill="#FFB9B9" fill-rule="nonzero" d="M237.106 128.431c0 10.277-8.331 18.609-18.608 18.609-10.278 0-18.61-8.332-18.61-18.609 0-.346 0-.692.031-1.034.574-10.05 9.034-17.82 19.096-17.54 10.062.279 18.077 8.509 18.091 18.574z"/>
        <path fill="#000" fill-rule="nonzero" d="M202.485 174.304s-22.936-23.37-5.626-21.638c3.926.394 6.583-.308 8.344-1.623-3.328 5.557-7.119 15.536 9.833 14.606 15.514-.866 15.25-7.046 13.32-11.105 3.86 1.32 9.599-.528 12.213 3.748 4.76 7.79-38.084 16.012-38.084 16.012z" opacity=".05"/>
        <path fill="#333" fill-rule="nonzero" d="M255.685 173.382a5.89 5.89 0 0 1-.403.922l-5.88 4.488-.75.575-9.81 7.487s.9 1.575-.385 6.189a41.701 41.701 0 0 1-2.645 6.794 25.308 25.308 0 0 0-1.956 5.894.67.67 0 0 1 0 .091c-.073.377-.138.749-.19 1.117a31.592 31.592 0 0 0 .346 11.212c.208.987.403 1.658.48 1.909l.04.117s.207.554.519 1.523l.026.087a65.923 65.923 0 0 1 2.45 10.537h-58.082a128.422 128.422 0 0 1 4.22-16.276l.212-.632c-.355.243-.701.472-1.035.68-4.024 2.527-6.695 2.791-8.447 1.817-4.877-2.713-2.636-15.047-2.636-15.047s3.735-29.709 4.977-40.463c.714-6.184 9.854-9.685 17.947-11.59a95.736 95.736 0 0 1 12.476-2.033h.087s-.121.147-.325.432l-.026.035c-.151.199-.346.454-.562.766a29.826 29.826 0 0 0-3.536 6.323c-1.342 3.53-1.57 7.387 2.354 9.347 1.978.991 5.007 1.502 9.473 1.255 6.903-.38 10.685-1.822 12.585-3.657a5.163 5.163 0 0 0 1.562-2.817c.498-2.631-1.103-5.4-2.215-6.95a15.112 15.112 0 0 0-.987-1.23l11.347.81a22.556 22.556 0 0 1 14.675 6.764c.268.273.528.559.779.866 4.96 5.751 4.033 10.685 3.315 12.658z"/>
        <path fill="#000" fill-rule="nonzero" d="M187.771 172.573s.866 6.924-.865 9.088c-1.731 2.164-2.164 12.117 0 18.176l.865-27.264z" opacity=".05"/>
        <rect width="29.428" height="12.117" x="189.935" y="187.282" fill="#CDD0DB" fill-rule="nonzero" rx="3.75"/>
        <rect width="29.428" height="12.117" x="189.935" y="187.282" fill="#000" fill-rule="nonzero" opacity=".05" rx="3.75"/>
        <rect width="29.428" height="12.117" x="189.935" y="187.715" fill="#CDD0DB" fill-rule="nonzero" rx="3.75"/>
        <circle cx="213.088" cy="193.558" r="1.298" fill="#9DA7C0" fill-rule="nonzero"/>
        <path fill="#000" fill-rule="nonzero" d="M177.411 206.475a8.417 8.417 0 0 1 4.89-5.15c1.48-.614 3.285-1.73 4.198-3.769 1.705-3.778 4.735-7.673 12.524-5.076 7.79 2.597-2.164 4.328-2.164 4.328s17.744-2.597 10.82 2.596c-6.925 5.193-15.58 8.223-15.58 8.223l-4.263 4.513c-2.596 2.757-7.106 2.744-9.52-.19-1.082-1.324-1.65-3.107-.905-5.475z" opacity=".05"/>
        <path fill="#FFB9B9" fill-rule="nonzero" d="M176.978 205.61a8.417 8.417 0 0 1 4.89-5.15c1.48-.614 3.285-1.731 4.198-3.77 1.705-3.777 4.735-7.672 12.525-5.076 7.79 2.597-2.164 4.328-2.164 4.328s17.743-2.597 10.819 2.597c-6.924 5.193-15.58 8.222-15.58 8.222l-4.262 4.514c-2.597 2.757-7.106 2.744-9.521-.19-1.082-1.325-1.649-3.108-.905-5.475z"/>
        <path fill="#000" fill-rule="nonzero" d="M237.972 214.55l-3.03 7.358-3.894-2.852-10.82-7.967-7.356-4.76c-10.387-7.79 0-9.089 0-9.089-3.895-1.73 0-3.462 0-3.462 13.848-3.03 11.252 8.223 11.252 8.223l8.772 4.548 2.912 1.51 2.164 6.492z" opacity=".05"/>
        <path fill="#FFB9B9" fill-rule="nonzero" d="M238.837 213.685l-3.029 7.357-3.895-2.852-10.819-7.967-7.357-4.76c-10.386-7.79 0-9.088 0-9.088-3.895-1.731 0-3.462 0-3.462 13.849-3.03 11.252 8.222 11.252 8.222l8.772 4.549 2.913 1.51 2.163 6.491z"/>
        <path fill="#000" fill-rule="nonzero" d="M238.837 213.685l-3.029 7.357-3.895-2.852c3.51.126 7.656-1.57 1.83-12.506l2.913 1.51 2.181 6.491z" opacity=".05"/>
        <path fill="#333" fill-rule="nonzero" d="M254.85 169.976l.835 3.406-2.566 25.157-2.164 16.877s-.866 11.252-10.82 8.223c-9.953-3.03-10.818-6.059-10.818-6.059s14.28 4.76 5.193-12.117c0 0 5.193 2.596 4.327-4.328-.865-6.924 0-19.041 0-19.041l16.013-12.118z"/>
        <path fill="#000" fill-rule="nonzero" d="M237.106 128.431a18.609 18.609 0 0 1-14.493 18.15c-.623-1.8-1.064-3.592-.61-5.414.866-3.535 4.96-6.115 4.505-9.728a2.398 2.398 0 0 0-.433-1.134c-.913-1.203-2.774-.606-4.254-.307-3.825.761-8.015-1.822-9.053-5.583a12.65 12.65 0 0 1-12.87 2.982c.573-10.05 9.034-17.82 19.095-17.54 10.062.279 18.077 8.509 18.092 18.574h.021z" opacity=".05"/>
        <path fill="#B0605D" fill-rule="nonzero" d="M213.227 123.55c1.034 3.76 5.227 6.344 9.049 5.578 1.48-.295 3.34-.892 4.254.311.233.335.375.724.41 1.13.46 3.618-3.621 6.193-4.5 9.733-.904 3.644 1.731 7.162 2.315 10.87.308 2.03 0 4.099 0 6.15 0 2.052.485 4.259 2.008 5.626 1.524 1.368 4.328 1.394 5.354-.39 4.868 2.576 2.925 10.551 6.62 14.632 2.04 2.25 5.393 2.792 8.418 2.506a3.549 3.549 0 0 0 1.978-.64c.5-.494.838-1.128.97-1.818.763-2.89.632-5.942-.377-8.755-.485-1.346-1.182-2.705-1-4.12.139-1.108.8-2.073 1.502-2.942 2.324-2.883 5.496-5.67 5.474-9.374-.021-3.705-3.232-6.492-4.431-9.954-1.632-4.73.632-9.797 1.562-14.714a27.909 27.909 0 0 0-5.89-22.72c-.943-1.133-2.038-2.228-3.462-2.678-2.133-.684-4.405.268-6.634.545-7.357.922-14.026-5.51-21.409-4.934a3.93 3.93 0 0 0-1.42.325c-.956.463-1.47 1.489-2.064 2.371-3.258 4.869-9.663 6.258-14.683 9.279-14.64 8.815 4.738 24.776 15.956 13.982z"/>
        <path stroke="#535461" stroke-width="2" d="M302.527 337.655s-6.266-31.748 6.639-53.507a49.032 49.032 0 0 0 6.764-30.268 82.463 82.463 0 0 0-3.03-14.774"/>
        <path fill="#EA0B4B" fill-rule="nonzero" d="M320.959 225.344c-.347 3.787-8.223 14.143-8.223 14.143s-5.85-11.616-5.5-15.407a6.89 6.89 0 1 1 13.718 1.26l.005.004zM330.371 247.367c-2.35 2.99-14.584 7.41-14.584 7.41s1.402-12.932 3.752-15.922a6.89 6.89 0 0 1 10.82 8.512h.012zM326.58 283.183c-3.54 1.393-16.328-.97-16.328-.97s7.738-10.455 11.278-11.849a6.89 6.89 0 0 1 5.05 12.819zM317.613 309.637c-3.254 1.974-16.259 1.805-16.259 1.805s5.86-11.61 9.114-13.584a6.89 6.89 0 1 1 7.145 11.78zM301.315 254.188c2.476 2.89 14.883 6.785 14.883 6.785s-1.947-12.861-4.418-15.748a6.89 6.89 0 1 0-10.465 8.963zM291.22 285.256c3.223 2.016 16.232 2.02 16.232 2.02s-5.704-11.684-8.932-13.705a6.89 6.89 0 1 0-7.3 11.685zM285.546 316.804c2.838 2.532 15.657 4.739 15.657 4.739s-3.648-12.485-6.492-15.017a6.89 6.89 0 1 0-9.17 10.282l.005-.004zM193.358 68.247c0-9.05-7.335-16.385-16.384-16.385h-89.27c-9.05 0-16.385 7.336-16.385 16.385 0 9.049 7.336 16.384 16.385 16.384l74.638-.143 17.168 14.978V84.41a16.371 16.371 0 0 0 13.848-16.163z"/>
        <circle cx="90.534" cy="68.809" r="5.652" fill="#FFF" fill-rule="nonzero"/>
        <circle cx="109.74" cy="68.809" r="5.652" fill="#FFF" fill-rule="nonzero"/>
        <circle cx="128.95" cy="68.809" r="5.652" fill="#FFF" fill-rule="nonzero"/>
        <path fill="#EA0B4B" fill-rule="nonzero" d="M163.069 254.828h45.007v13.416h-45.007z"/>
        <path fill="#EA0B4B" fill-rule="nonzero" d="M223.223 254.828h45.007v13.416h-45.007z" opacity=".1"/>
    </g>
</svg>
