<svg xmlns="http://www.w3.org/2000/svg" width="445" height="304" viewBox="0 0 445 304">
    <defs>
        <linearGradient id="a" x1="99.989%" x2="0%" y1="50.002%" y2="50.002%">
            <stop offset="0%" stop-color="gray" stop-opacity=".25"/>
            <stop offset="54%" stop-color="gray" stop-opacity=".12"/>
            <stop offset="100%" stop-color="gray" stop-opacity=".1"/>
        </linearGradient>
    </defs>
    <g fill="none" fill-rule="evenodd">
        <path fill="#F4F4F4" d="M-799-389H641V875H-799z"/>
        <path fill="#FFF" stroke="#EA0B4B" d="M-678.5-94.5V429a3.5 3.5 0 0 0 3.5 3.5H517a3.5 3.5 0 0 0 3.5-3.5v-556a3.5 3.5 0 0 0-3.5-3.5H127a3.5 3.5 0 0 0-3.5 3.5v32.5h-802z"/>
        <g>
            <path fill="gray" d="M444.517 127.717c-2.707 10.926-16.603 16.403-24.388 24.554-14.671 15.363-8.958 37.798.35 55.766 3.116 6.016 6.652 12.386 5.332 18.837-1.608 7.89-10.157 13.659-19.134 16.717-16.357 5.57-35.947 4.243-50.984-3.462-12.993-6.657-22.3-17.467-35.515-23.84-22.117-10.631-50.268-6.599-74.286.71-16.988 5.182-35.565 11.924-52.448 6.513-11.879-3.811-20.092-13.088-24.567-22.9-2.158-4.747-3.727-9.887-7.852-13.648-2.453-2.24-5.655-3.827-8.93-5.162-29.942-12.227-67.766-5.679-96.831-19.24-19.637-9.157-32.212-26.43-37.778-44.444-5.565-18.014-4.919-36.901-3.505-55.455 1.005-13.197 2.808-27.256 13.035-37.433 10.82-10.764 29.385-14.75 46.17-12.72 16.786 2.03 31.995 9.339 45.38 17.925 16.747 10.736 32.24 24.1 52.776 28.447 13.986 2.962 28.696 1.34 43.121.777 24.115-.936 48.239 1.164 72.218 3.431 11.683 1.114 23.406 2.282 34.989 3.975 2.596.377 5.192.785 7.789 1.222 1.3.222 2.601.45 3.894.687 1.013.183 2.022.388 3.03.57 1.592.309 3.178.632 4.76.971 4.54.97 9.039 2.07 13.49 3.319 15.478 4.351 27.886 12.254 42.502 17.773 9.526 3.599 19.913 4.592 28.933 9.172 11.1 5.625 21.296 15.449 18.449 26.938z" opacity=".1"/>
            <circle cx="366.5" cy="146.5" r="39.5" fill="#EA0B4B"/>
            <circle cx="323.5" cy="135.5" r="39.5" fill="#EA0B4B"/>
            <circle cx="276.5" cy="135.5" r="39.5" fill="#EA0B4B"/>
            <circle cx="262.5" cy="146.5" r="39.5" fill="#EA0B4B"/>
            <circle cx="236.5" cy="150.5" r="39.5" fill="#EA0B4B"/>
            <circle cx="225.5" cy="117.5" r="39.5" fill="#EA0B4B"/>
            <circle cx="237.5" cy="81.5" r="39.5" fill="#EA0B4B"/>
            <circle cx="259.5" cy="81.5" r="39.5" fill="#EA0B4B"/>
            <circle cx="272.5" cy="65.5" r="39.5" fill="#EA0B4B"/>
            <circle cx="305.5" cy="83.5" r="39.5" fill="#EA0B4B"/>
            <circle cx="380.5" cy="117.5" r="39.5" fill="#EA0B4B"/>
            <circle cx="358.5" cy="98.5" r="39.5" fill="#EA0B4B"/>
            <circle cx="342.5" cy="78.5" r="39.5" fill="#EA0B4B"/>
            <circle cx="315.5" cy="48.5" r="39.5" fill="#EA0B4B"/>
            <circle cx="367.5" cy="81.5" r="39.5" fill="#EA0B4B"/>
            <g fill="#000" opacity=".1" transform="translate(186 9)">
                <ellipse cx="180.589" cy="137.607" rx="39.878" ry="39.793"/>
                <ellipse cx="138.179" cy="126.735" rx="39.878" ry="39.793"/>
                <ellipse cx="91.494" cy="127.124" rx="39.878" ry="39.793"/>
                <ellipse cx="76.32" cy="137.607" rx="39.878" ry="39.793"/>
                <ellipse cx="50.641" cy="141.102" rx="39.878" ry="39.793"/>
                <ellipse cx="40.136" cy="109.655" rx="39.878" ry="39.793"/>
                <ellipse cx="51.807" cy="73.159" rx="39.878" ry="39.793"/>
                <ellipse cx="73.983" cy="73.159" rx="39.878" ry="39.793"/>
                <ellipse cx="86.825" cy="56.853" rx="39.878" ry="39.793"/>
                <ellipse cx="119.506" cy="74.712" rx="39.878" ry="39.793"/>
                <ellipse cx="195.763" cy="109.655" rx="39.878" ry="39.793"/>
                <ellipse cx="172.807" cy="89.854" rx="39.878" ry="39.793"/>
                <ellipse cx="158.022" cy="70.053" rx="39.878" ry="39.793"/>
                <ellipse cx="130.011" cy="40.159" rx="39.878" ry="39.793"/>
                <ellipse cx="182.145" cy="73.159" rx="39.878" ry="39.793"/>
            </g>
            <path fill="#67647E" d="M346.055 216s24.809-20.799 12.536-50.415L346.317 161 333 201.897 346.055 216z"/>
            <path fill="#000" d="M347.11 160l2.89 1.097-12.867 40.152 11.226 12.322c-.93.938-1.507 1.429-1.507 1.429L334 200.897 347.11 160z" opacity=".1"/>
            <ellipse cx="225.5" cy="267.5" fill="gray" opacity=".1" rx="216.5" ry="36.5"/>
            <path fill="#EA0B4B" d="M392.42 212s-8.14 7.925-3.544 19.686C393.472 243.446 381 263 381 263l.4-.062c16.717-2.873 25.025-21.487 15.728-35.318-3.475-5.134-6.314-11.168-4.709-15.62z"/>
            <path stroke="#FFF" d="M392.157 212s-4.49 9.714 0 17.64c4.489 7.924.782 30.163-11.157 33.36"/>
            <path fill="#EA0B4B" d="M406 243.097s-8.958-1.416-9.772 6.564c-.815 7.981-17.228 9.087-17.228 9.087l.309.203c13.548 8.829 26.498 5.631 24.544-6.107-.722-4.365-.664-8.749 2.147-9.747z"/>
            <path fill="#000" d="M406 243.097s-8.958-1.416-9.772 6.564c-.815 7.981-17.228 9.087-17.228 9.087l.309.203c13.548 8.829 26.498 5.631 24.544-6.107-.722-4.365-.664-8.749 2.147-9.747z" opacity=".2"/>
            <path stroke="#FFF" d="M406 243s-6.95 1.55-6.383 7.88c.567 6.33-10.326 13.953-20.617 7.922"/>
            <path fill="#67647E" d="M237 172.332l3.148 12.659s22.244 2.913 37.074 1.082a19.222 19.222 0 0 0 7.394-2.68c1.252-.743 3.23-1.066 5.932.967 4.63 3.505 27.35 31.548 23.67 60.643-.587 4.507-4.11 8.058-8.596 8.662a30.105 30.105 0 0 0-12.666 4.814L281.712 266 397 263.468l-11.969-14.555s-8.189-6.96-14.489-7.595c-1.838-.183-3.354-1.877-4.579-4.179-7.177-13.496-15.76-26.185-25.066-38.302-6.777-8.826-12.465-18.127-11.934-23.97 1.26-13.923 0-36.704 0-36.704L305.025 135s3.149 30.38-25.83 37.971c-28.978 7.591-42.195-.639-42.195-.639z"/>
            <g fill="#000" opacity=".1">
                <path d="M256.744 178.106s13.322 8.21 42.507.63c29.186-7.58 26.011-37.897 26.011-37.897l4.588.594c-.086-1.943-.152-3.11-.152-3.11l-24.106-3.156s3.17 30.32-26.01 37.897c-29.182 7.576-42.508-.63-42.508-.63l3.17 12.634s8.559 1.111 18.624 1.527l-2.124-8.49zM313.093 264.08a30.48 30.48 0 0 1 12.755-4.805c4.506-.596 8.052-4.124 8.652-8.61 3.725-29.038-19.166-57.077-23.816-60.56-5.076-3.79-7.614.63-7.614.63-1.796.47-3.623.816-5.466 1.038 8.222 10.884 19.986 31.763 17.234 53.205-.6 4.486-4.146 8.014-8.652 8.61a30.48 30.48 0 0 0-12.756 4.805l-11.323 7.506 29.19-.634 1.796-1.185z"/>
            </g>
            <path stroke="#535461" stroke-width="2" d="M256.06 234s-2.692-8.144.504-14.14c1.358-2.507 1.767-5.338 1.166-8.07a19.93 19.93 0 0 0-1.3-3.79"/>
            <path fill="#0DA176" d="M257.987 204.585c0 .874-2 3.415-2 3.415S254 205.46 254 204.585s.895-1.585 2-1.585 2 .71 2 1.585h-.013zM261.675 209.767C261.128 210.585 258 212 258 212s.059-3.331.606-4.15c.346-.55.974-.875 1.64-.848a1.835 1.835 0 0 1 1.562.977 1.714 1.714 0 0 1-.133 1.791v-.003zM260.058 219.735c-.844.49-4.058.152-4.058.152s1.675-3.186 2.52-3.676a1.518 1.518 0 0 1 1.708.113c.51.387.804 1.06.77 1.764-.036.704-.394 1.334-.94 1.65v-.003zM259.308 226.155c-.823.584-4.308.845-4.308.845s1.283-3.115 2.107-3.694c.822-.534 1.939-.352 2.53.413.59.765.446 1.84-.329 2.436zM253.57 211.736c.782.62 4.43 1.264 4.43 1.264s-.89-2.956-1.689-3.576c-.788-.59-2.007-.56-2.752.065-.745.625-.745 1.62 0 2.247h.012zM251.942 220.735c.844.49 4.058.152 4.058.152s-1.674-3.186-2.519-3.676c-.844-.49-1.873-.098-2.298.876-.425.974-.085 2.161.759 2.652v-.004zM250.692 229.155c.823.584 4.308.845 4.308.845s-1.283-3.115-2.107-3.694c-.822-.534-1.939-.352-2.53.413a1.722 1.722 0 0 0 .329 2.436z"/>
            <path fill="#A8A8A8" d="M251 233.459s4.33-.908 5.483-2.12c1.153-1.21 6.35-3.326 6.93-1.815.58 1.512 7.795 6.654 2.884 7.561-4.91.908-11.546 1.2-12.973.604-1.427-.596-2.324-4.23-2.324-4.23z"/>
            <path fill="#000" d="M266.3 236.706c-4.913.792-11.56 1.047-12.989.527-1.1-.401-1.864-2.336-2.166-3.233l-.145.028s.867 3.17 2.311 3.697c1.444.527 8.092.266 12.99-.527 1.417-.23 1.821-.765 1.669-1.445-.123.433-.615.775-1.67.953z" opacity=".2"/>
            <path fill="#A8A8A8" d="M324 260.866s13.24-2.621 16.775-6.113c3.534-3.492 19.421-9.605 21.186-5.238 1.765 4.367 23.844 19.21 8.845 21.83-14.998 2.621-35.311 3.492-39.726 1.746-4.415-1.746-7.08-12.225-7.08-12.225z"/>
            <path fill="#000" d="M370.806 269.794c-15.003 2.576-35.323 3.432-39.74 1.716-3.361-1.308-5.7-7.59-6.624-10.51l-.442.09s2.65 10.3 7.063 12.017c4.412 1.716 24.728.86 39.739-1.716 4.335-.748 5.574-2.49 5.105-4.697-.366 1.44-1.878 2.55-5.101 3.1z" opacity=".2"/>
            <path fill="#EA0B4B" d="M414 185.496a8.396 8.396 0 0 1-1.488 4.504 8.398 8.398 0 0 1-1.512-4.496c0-2.485.658-4.5 1.488-4.504.83-.004 1.504 2.011 1.512 4.496zM305 182.5a8.397 8.397 0 0 1-1.5 4.5 8.397 8.397 0 0 1-1.5-4.5c0-2.485.67-4.5 1.5-4.5s1.5 2.015 1.5 4.5zM423.681 226.121c.813 1.444 1.27 3.136 1.319 4.879-1.364-.593-2.56-1.637-3.453-3.012-1.319-2.18-1.908-4.366-1.319-4.879.59-.513 2.138.836 3.453 3.012zM378 203.5a8.397 8.397 0 0 1-1.5 4.5 8.397 8.397 0 0 1-1.5-4.5c0-2.485.67-4.5 1.5-4.5s1.5 2.023 1.5 4.5zM350 189.5a8.397 8.397 0 0 1-1.5 4.5 8.397 8.397 0 0 1-1.5-4.5c0-2.485.67-4.5 1.5-4.5s1.5 2.015 1.5 4.5zM332.978 198.296a8.558 8.558 0 0 1 .997 4.704 8.76 8.76 0 0 1-3.632-3.226c-1.275-2.19-1.72-4.295-.997-4.705.723-.409 2.361 1.037 3.632 3.227z"/>
            <path fill="#0DA176" d="M321.466 239.095A9.312 9.312 0 0 1 317 241c.37-1.486 1.194-2.846 2.378-3.925 1.888-1.609 3.89-2.461 4.466-1.905.575.556-.49 2.316-2.378 3.925z"/>
            <path fill="#000" d="M321.466 239.095A9.312 9.312 0 0 1 317 241c.37-1.486 1.194-2.846 2.378-3.925 1.888-1.609 3.89-2.461 4.466-1.905.575.556-.49 2.316-2.378 3.925z" opacity=".1"/>
            <path fill="#EA0B4B" d="M347.466 237.095A9.312 9.312 0 0 1 343 239c.37-1.486 1.194-2.846 2.378-3.925 1.888-1.609 3.89-2.461 4.466-1.905.575.556-.49 2.313-2.378 3.925z"/>
            <path fill="#EA0B4B" d="M347.466 237.095A9.312 9.312 0 0 1 343 239c.37-1.486 1.194-2.846 2.378-3.925 1.888-1.609 3.89-2.461 4.466-1.905.575.556-.49 2.313-2.378 3.925z" opacity=".1"/>
            <path fill="#EA0B4B" d="M352.464 263.098c-1.261 1.003-2.808 1.663-4.464 1.902.369-1.487 1.194-2.85 2.38-3.929 1.888-1.605 3.89-2.456 4.464-1.901.575.555-.489 2.32-2.38 3.928z"/>
            <path fill="#EA0B4B" d="M352.464 263.098c-1.261 1.003-2.808 1.663-4.464 1.902.369-1.487 1.194-2.85 2.38-3.929 1.888-1.605 3.89-2.456 4.464-1.901.575.555-.489 2.32-2.38 3.928z" opacity=".1"/>
            <path fill="#EA0B4B" d="M34.71 220.492C40.592 229.336 38.715 261 38.715 261S9.151 251.03 3.27 242.19c-5.881-8.844-3.61-20.87 5.073-26.86 8.683-5.99 20.49-3.678 26.371 5.166l-.003-.004z"/>
            <path fill="#EA0B4B" d="M34.71 220.492C40.592 229.336 38.715 261 38.715 261S9.151 251.03 3.27 242.19c-5.881-8.844-3.61-20.87 5.073-26.86 8.683-5.99 20.49-3.678 26.371 5.166l-.003-.004z" opacity=".1"/>
            <path stroke="#FFF" d="M8 216s22.609 17.162 31 45"/>
            <path fill="#EA0B4B" d="M44.985 237.077S28.815 234.443 39.86 260c0 0 11.235-4.087 12.111-14.256.36-4.095-2.546-7.8-6.764-8.626l-.22-.041z"/>
            <path stroke="#FFF" d="M44.534 237s2.612 14.162-4.534 23"/>
            <path fill="#A8A8A8" d="M393 261.436s6.622-1.31 8.387-3.057c1.765-1.747 9.714-4.805 10.597-2.622.882 2.182 11.92 9.608 4.416 10.915-7.505 1.308-17.66 1.747-19.866.876-2.206-.872-3.534-6.112-3.534-6.112z"/>
            <path fill="#000" d="M416.4 265.056c-7.505 1.189-17.66 1.584-19.866.794-1.68-.605-2.849-3.497-3.313-4.85l-.221.042s1.324 4.752 3.534 5.545c2.21.794 12.361.396 19.866-.793 2.167-.35 2.786-1.147 2.554-2.168-.197.66-.952 1.175-2.554 1.43z" opacity=".2"/>
            <circle cx="366.5" cy="137.5" r="39.5" fill="#EA0B4B"/>
            <circle cx="323.5" cy="126.5" r="39.5" fill="#EA0B4B"/>
            <circle cx="276.5" cy="126.5" r="39.5" fill="#EA0B4B"/>
            <circle cx="262.5" cy="137.5" r="39.5" fill="#EA0B4B"/>
            <circle cx="236.5" cy="140.5" r="39.5" fill="#EA0B4B"/>
            <circle cx="225.5" cy="109.5" r="39.5" fill="#EA0B4B"/>
            <circle cx="237.5" cy="72.5" r="39.5" fill="#EA0B4B"/>
            <circle cx="259.5" cy="72.5" r="39.5" fill="#EA0B4B"/>
            <circle cx="272.5" cy="56.5" r="39.5" fill="#EA0B4B"/>
            <circle cx="305.5" cy="74.5" r="39.5" fill="#EA0B4B"/>
            <circle cx="380.5" cy="109.5" r="39.5" fill="#EA0B4B"/>
            <circle cx="358.5" cy="88.5" r="39.5" fill="#EA0B4B"/>
            <circle cx="342.5" cy="69.5" r="39.5" fill="#EA0B4B"/>
            <circle cx="315.5" cy="39.5" r="39.5" fill="#EA0B4B"/>
            <circle cx="367.5" cy="72.5" r="39.5" fill="#EA0B4B"/>
            <path fill="#000" d="M406 78.803S368.619 61.716 346 92M308 43.005S267.042 41.777 259 79M258 124.808S220.619 107.71 198 138" opacity=".1"/>
            <path fill="#EA0B4B" d="M95.51 223s1.998 2.727-.925 6.836c-2.924 4.11-5.334 7.597-4.369 10.164 0 0 4.409-7.65 8.009-7.756 3.6-.106 1.23-4.645-2.716-9.244z"/>
            <path fill="#000" d="M95.45 223c.176.263.315.55.412.854 3.542 4.288 5.431 8.291 2.025 8.394-3.17.094-6.977 5.938-7.887 7.414.03.115.065.228.107.338 0 0 4.459-7.642 8.1-7.749 3.642-.106 1.234-4.656-2.757-9.251z" opacity=".1"/>
            <path fill="#FFD037" d="M99.245 226.79c0 1.22-.109 2.21-.245 2.21s-.245-.965-.245-2.21.136-.646.272-.646c.137 0 .218-.574.218.646z"/>
            <path fill="#FFD037" d="M101.286 228.505c-1.172.352-2.196.564-2.28.474-.085-.09.791-.447 1.963-.8 1.172-.35.707-.095.797 0 .09.097.691-.014-.48.326z"/>
            <path fill="#EA0B4B" d="M84.491 223s-1.998 2.727.925 6.836c2.923 4.11 5.333 7.597 4.368 10.164 0 0-4.408-7.65-8.008-7.756-3.6-.106-1.234-4.645 2.715-9.244z"/>
            <path fill="#000" d="M84.55 223a3.42 3.42 0 0 0-.412.854c-3.542 4.288-5.43 8.291-2.025 8.394 3.17.094 6.978 5.938 7.887 7.414-.03.115-.065.228-.107.338 0 0-4.459-7.642-8.1-7.749-3.641-.106-1.237-4.656 2.758-9.251z" opacity=".1"/>
            <path fill="#FFD037" d="M78.755 226.79c0 1.22.109 2.21.245 2.21s.245-.965.245-2.21-.136-.646-.272-.646c-.137 0-.218-.574-.218.646z"/>
            <path fill="#FFD037" d="M78.708 228.505c1.175.352 2.202.564 2.286.474.085-.09-.794-.447-1.968-.8-1.175-.35-.71-.095-.8 0-.09.097-.672-.014.482.326z"/>
            <path fill="#A8A8A8" d="M81 241.433s5.912-.194 7.698-1.559c1.786-1.365 9.096-2.99 9.535-.806.438 2.183 8.883 10.872 2.209 10.93-6.674.058-15.508-1.117-17.286-2.283-1.779-1.166-2.156-6.282-2.156-6.282z"/>
            <path fill="#000" d="M100.562 247.296c-6.676.054-15.512-1.043-17.29-2.131-1.356-.826-1.895-3.795-2.076-5.165H81s.385 4.783 2.152 5.867c1.767 1.085 10.614 2.185 17.29 2.131 1.925 0 2.591-.702 2.557-1.722-.266.622-.994 1.008-2.437 1.02z" opacity=".2"/>
            <path fill="#0DA176" d="M46.462 279.724a4.23 4.23 0 0 0 1.488-2.099c.195-.835-.186-1.833-1.041-2.138-.957-.341-1.979.276-2.753.904-.773.628-1.663 1.34-2.678 1.205 1.061-.898 1.54-2.25 1.26-3.561a1.444 1.444 0 0 0-.35-.726c-.533-.53-1.493-.302-2.13.116-2.022 1.329-2.585 3.892-2.597 6.2-.202-.83-.03-1.698-.039-2.54-.007-.843-.256-1.816-1.026-2.259a3.289 3.289 0 0 0-1.555-.345c-.91-.032-1.92.055-2.542.676-.777.77-.571 2.065.101 2.904.673.839 1.691 1.38 2.632 1.968.754.418 1.397.99 1.881 1.673.057.095.104.195.14.298h5.695a15.943 15.943 0 0 0 3.514-2.276zM400.462 284.724a4.23 4.23 0 0 0 1.488-2.099c.195-.835-.186-1.833-1.041-2.138-.957-.341-1.979.276-2.753.904-.773.628-1.663 1.34-2.678 1.205 1.061-.898 1.54-2.25 1.26-3.561a1.444 1.444 0 0 0-.35-.726c-.533-.53-1.493-.302-2.13.116-2.022 1.329-2.585 3.892-2.597 6.2-.202-.83-.03-1.698-.039-2.54-.007-.843-.256-1.816-1.026-2.259a3.289 3.289 0 0 0-1.555-.345c-.91-.032-1.92.055-2.542.676-.777.77-.571 2.065.101 2.904.673.839 1.691 1.38 2.632 1.968.754.418 1.397.99 1.881 1.673.057.095.104.195.14.298h5.695a15.943 15.943 0 0 0 3.514-2.276z"/>
            <path fill="#DC9BA3" d="M268.542 283.326s-.399 5.543.398 6.463c0 0-18.3 2.956-20.587 2.032-2.287-.924-1.247-2.4 0-2.955 1.247-.556 7.488-2.588 8.317-6.464 0 0-2.702-1.108 6.03.354 8.731 1.462 5.842.57 5.842.57z"/>
            <path fill="#000" d="M268.542 283.326s-.399 5.543.398 6.463c0 0-18.3 2.956-20.587 2.032-2.287-.924-1.247-2.4 0-2.955 1.247-.556 7.488-2.588 8.317-6.464 0 0-2.702-1.108 6.03.354 8.731 1.462 5.842.57 5.842.57z" opacity=".05"/>
            <path fill="#FFD2D9" d="M338 224s-2.225 3.68-.81 10.842c1.415 7.162-3.64 7.158-3.64 7.158h-10.111L320 232.984l4.854.392s3.237-.819 1.822-8.388L338 224zM306.73 214.523a2002.136 2002.136 0 0 0 4.59 14.204l.746 2.273 6.771-6.915s-.299-.686-.743-1.645c-.99-2.128-2.717-5.602-3.566-5.882 0 0 9.436-.612 12.31 1.625 2.875 2.238 2.053-6.104 2.053-6.104s-5.54-.39-7.592-1.626c-2.053-1.235-13.133-2.44-13.133-2.44s-3.692-.612-1.435 6.51zM246 274.87l1.444 11.13 3.713-.418s.226-.226.605-.586c1.001-.933 3.085-2.76 5.079-3.764a5.973 5.973 0 0 1 2.159-.682l-4.129-6.55a21.876 21.876 0 0 1-3.08.966c-1.089.271-2.202.411-3.32.418a5.774 5.774 0 0 1-2.471-.514z"/>
            <path fill="#E9E9EF" d="M257.361 282.557c1.8 1.619 9.987-1.824 11.388 3.443l1.286-4.995 3.962-15.37.543-2.114 3.3-.144 37.868-1.638 2.144-.093 1.148-.05-1.5-.753-9.987-5.019s-3.598-.256-8.56-.946c-7.52-1.045-18.177-3.105-24.195-6.75-9.986-6.078-13.78 14.38-13.78 14.38s-1.53 5.189-2.679 10.304a60.425 60.425 0 0 0-1.206 6.695c-.172 1.564-.118 2.697.268 3.05z"/>
            <path fill="#000" d="M257.37 282.558c1.816 1.618 10.085-1.824 11.5 3.442l1.3-4.994 4-15.366.55-2.115 3.436-.213 36.951-2.282 2.28-.143.705-.043.908-.058-10.995-4.963s-3.634-.256-8.644-.947c-7.597-1.044-18.36-3.104-24.437-6.748-10.086-6.077-13.917 14.377-13.917 14.377s-1.546 5.188-2.706 10.302a59.864 59.864 0 0 0-1.218 6.693c-.158 1.572-.104 2.705.286 3.058z" opacity=".05"/>
            <path fill="#000" d="M252 274.802l3.506 3.716 1.397 1.482a6.525 6.525 0 0 1 2.097-.566L254.991 274c-.975.33-1.974.598-2.991.802z" opacity=".1"/>
            <path fill="#E9E9EF" d="M253 274.516l3.96 4.574 1.907 2.2v.598c2.327.53 9.613-.98 11.219-1.326l.314-.069c4.653.198 21.855-9.748 21.855-9.748s18.819 3.183 27.92 2.387c5.084-.446 6.51-2.253 6.778-3.767a3.863 3.863 0 0 0-.302-2.203l-8.144-5.623-1.078-.763-1.721-1.193s-2.994-.667-6.794-1.49c-5.941-1.289-13.856-2.962-15.457-3.08-2.63-.199-9.307 1.99-13.154 6.366a11.33 11.33 0 0 1-2.218 1.78l-.104.069c-1.082.705-2.412 1.452-3.878 2.218-4.898 2.535-11.428 5.261-15.918 7.05-3.072 1.23-5.185 2.02-5.185 2.02z"/>
            <path fill="#000" d="M247 274l1.253 10 3.222-.376s.196-.203.525-.526c-.714 0-1.89-.207-2.138-1.826 0 0 1.242-4.754-.717-6.802A4.866 4.866 0 0 1 247 274z" opacity=".1"/>
            <path fill="#DC9BA3" d="M248.95 281.9s2.023-7.089-2.63-7.9l-7.687 3.04-8.916.609s-2.326 3.8 1.4 8.062a11.438 11.438 0 0 0 8.117 3.843l9.715.446 3.051-6.269s-2.632.598-3.05-1.832z"/>
            <path fill="#000" d="M299 255c.997.284 5.12 1.475 9.341 3.11a52.72 52.72 0 0 1 6.086 2.732c.41.225.8.45 1.167.675.963.55 1.825 1.254 2.55 2.08 2.44 3.072 6.025 4.728 7.81 5.403a3.703 3.703 0 0 0-.295-2.132l-7.958-5.44 1.137-.048-1.486-.715.89-.055-10.776-4.717s-3.555-.237-8.466-.893zM312 228.61l.795 2.39 7.205-7.27s-.318-.722-.79-1.73c-.934 1.881-5.281 5.184-7.21 6.61z" opacity=".1"/>
            <path fill="#333" d="M335.293 232.014c.241-.686.417-1.393.527-2.112l8.745 3.025s6 4.558 5.392 14.487c0 0-7.408-2.718-10.683.505l-.066.57a26.298 26.298 0 0 1-7.174 15.075c-1.618 1.693-3.142 3.6-3.95 5.436 0 0-5.695-1.62-9.154-6.08-3.458-4.462-19.93-9.106-19.93-9.106s8.749.201 9.97-2.839c1.22-3.04 5.29-9.525 3.867-14.588-1.423-5.064-2.238-6.687-2.238-6.687s8.343-5.875 7.731-7.7l5.29 6.08 2.441.812a3.87 3.87 0 0 0-.288 1.484c-.14 5.502 7.665 6.822 9.52 1.638z"/>
            <path fill="#000" d="M326.324 227.226A19.418 19.418 0 0 0 326 225l12-1s-.821.67-1.191 3.169C335.4 227.935 333.758 229 332 229a9.838 9.838 0 0 1-5.676-1.774z" opacity=".1"/>
            <circle cx="332" cy="220" r="9" fill="#FFD2D9"/>
            <path fill="#844F6E" d="M338.763 222h-1.228v-3.662l-1.23-3.878s-6.147-3.018-9.029-2.37l-2.237 2.143s-.617-5.17 3.074-7.11c3.69-1.94 10.242-1.078 11.883.413 1.641 1.49 4.318 4.096 2.253 11.206l-.6 1.75s-2.477-.862-2.886 1.508z"/>
            <g fill="#000" opacity=".05">
                <path d="M322.051 226.49l-.666-.225-3.067-3.576a.882.882 0 0 0 .02-.528l3.713 4.328zM326.326 233.115a4.655 4.655 0 0 1-2.791-4.525v-.346l.062.075 2.437.822a3.97 3.97 0 0 0-.288 1.503c-.025.86.175 1.713.58 2.47zM302.628 254.227c5.093 1.79 11.987 4.611 14.086 7.353l.155.197c-5.578-3.867-17.83-7.385-17.83-7.385a31.337 31.337 0 0 0 3.59-.165zM325.855 267.742c.806-1.853 2.336-3.79 3.944-5.509a26.81 26.81 0 0 0 7.163-15.273l.066-.578c3.25-3.286 10.667-.512 10.667-.512.39-6.381-1.884-10.572-3.593-12.783l.448.158s5.991 4.619 5.384 14.679c0 0-7.397-2.754-10.667.511l-.067.579a26.81 26.81 0 0 1-7.163 15.273c-1.616 1.716-3.138 3.647-3.944 5.508 0 0-4.952-1.432-8.417-5.287a20.945 20.945 0 0 0 6.179 3.234z"/>
            </g>
            <path fill="#FFD2D9" d="M329.186 243.832s9.497 14.488 14.47 18.69c4.973 4.202 6.344-1.891 6.344-1.891v-13.439l-8.737-1.05-.095 1.276-.107 1.457-8.129-9.257s-8.13-7.772-9.714-3.151c-1.584 4.62 5.968 7.365 5.968 7.365z"/>
            <path fill="#000" d="M341 248.16c1.214.667 2.5 1.207 3.839 1.61 1.912.557 4.102-.029 5.161-.387v-1.428l-8.919-.955-.081 1.16z" opacity=".1"/>
            <path fill="#000" d="M349.523 245.982l.477 2.127s-2.907 1.446-5.323.654a20.59 20.59 0 0 1-4.631-2.381c-.357-.198 1.485-2.382 1.485-2.382l7.992 1.982z"/>
            <path fill="#000" d="M291 270a16.784 16.784 0 0 0-4.596-2.61A16.203 16.203 0 0 1 282 265" opacity=".1"/>
            <path fill="#FFF" d="M229.744 278.024l.342-.024c-.498 1.284-1.207 4.423 1.739 7.851a11.817 11.817 0 0 0 8.397 4.032l9.778.465-.314.652-10.091-.469a11.817 11.817 0 0 1-8.398-4.031c-3.867-4.485-1.453-8.476-1.453-8.476z" opacity=".2"/>
            <path fill="#0F0" d="M264.172 286.82a5.705 5.705 0 0 1-.097.36c-.199-.112-.483-.33.097-.36z" opacity=".05"/>
            <path fill="#FFF" d="M248.31 292.195c2.04.947 17.382-1.813 19.454-2.195.041.202.122.394.236.565 0 0-17.516 3.256-19.706 2.238-1.144-.522-1.407-1.209-1.255-1.832.126.436.485.87 1.27 1.224z" opacity=".2"/>
            <path fill="#000" d="M326.404 215.367a13.738 13.738 0 0 1-5.2-5.421 1.195 1.195 0 0 1-.192-.837c.145-.542.872-.637 1.398-.87.978-.435 1.39-1.527 2.03-2.375 1.12-1.423 2.968-2.112 4.78-1.783.934.183 1.798.634 2.748.763 2.034.29 4.25-.908 6.075 0 .833.417 1.398 1.2 1.893 1.97 1.245 1.936 2.804 3.994 1.673 6.255-.648 1.298-1.685 2.375-3.142 2.753-1.457.378-3.141.06-4.626-.092-1.217-.13-2.497-.382-3.722-.275-1.446.145-2.345.714-3.715-.088z" opacity=".1"/>
            <path fill="#844F6E" d="M326.404 215.367a13.738 13.738 0 0 1-5.2-5.421 1.195 1.195 0 0 1-.192-.837c.145-.542.872-.637 1.398-.87.978-.435 1.39-1.527 2.03-2.375 1.12-1.423 2.968-2.112 4.78-1.783.934.183 1.798.634 2.748.763 2.034.29 4.25-.908 6.075 0 .833.417 1.398 1.2 1.893 1.97 1.245 1.936 2.804 3.994 1.673 6.255-.648 1.298-1.685 2.375-3.142 2.753-1.457.378-3.141.06-4.626-.092-1.217-.13-2.497-.382-3.722-.275-1.446.145-2.345.718-3.715-.088z"/>
            <path fill="url(#a)" fill-rule="nonzero" d="M159 264.344c0 4.197.236 6.97.236 6.97s6.047.335 5.878 5.893c-.169 5.558 23.505 6.736 23.505 6.736v-.168-1.26c2.25.332 4.658.601 6.008.472-.09.433-.197.89-.3 1.295-.11.11-2.29 2.294-2.218 4.618-.04 1.17.495 2.371 2.227 3.37 4.996 2.894 20.557 1.283 20.557 1.283 2.36-1.537 3.148-2.843 3.104-3.928.075-1.599-1.534-2.73-3.01-3.459a5.354 5.354 0 0 0-3.682-.39c-1.666.366-3.377.49-5.08.37.066-.335.154-.666.264-.99 1.598.448 2.7.78 2.7.78s8.293-4.376 4.839-11.447a5.818 5.818 0 0 0-2.361-2.313c2.664-4.552 5.193-9.91 4.942-13.514-.421-6.015-12.469-4.704-16.982-3.998l-8.699-8.46c0-6.24.193-13.405-.393-14.957-1.039-2.695-.693-2.34-1.381-3.534l-.028-.043c-.393-.631-1.463-1.634-1.739-1.497-.117-1.24-.1-2.489.051-3.725 4.391-1.423 7.369-5.475 7.39-10.055a10.333 10.333 0 0 0-1.181-4.8l.118-.052-1.141-5.561a.917.917 0 0 1 .051-.722c.118-.156.319-.203.472-.312a1.07 1.07 0 0 0 .185-1.31 1.789 1.789 0 0 0-.429-.542c-.96-1.08-3.002-.695-4.257-.855-1.7-.214-3.482-.526-5.09.308-.347.213-.709.401-1.083.562a4.698 4.698 0 0 1-1.574.148 16.031 16.031 0 0 0-2.856.254c-1.228-.44-2.672-.05-3.809.624a8.307 8.307 0 0 0-3.997 7.613c.1.944.282 1.877.547 2.789l2.105 8.132c.134.679.401 1.326.787 1.903.093.122.198.235.314.335a1.83 1.83 0 0 0 1.676.632c.08-.019.158-.046.233-.082-.072.856-.24 1.701-.5 2.52-2.408.694-5.902 3.12-10.096 10.14-5.382 8.994-6.28 22.255-6.303 30.227z"/>
            <path fill="#5F5D7E" d="M203 275h-23v-17h23z"/>
            <path fill="#5F5D7E" d="M197.106 255.897s17.382-3.588 17.877 3.588C215.48 266.662 204.72 281 204.72 281l-9.752-1.956 2.812-11.087s-11.09-2.448-11.753-2.609c-.663-.161 11.079-9.45 11.079-9.45z"/>
            <path fill="#000" d="M197.106 255.897s17.382-3.588 17.877 3.588C215.48 266.662 204.72 281 204.72 281l-9.752-1.956 2.812-11.087s-11.09-2.448-11.753-2.609c-.663-.161 11.079-9.45 11.079-9.45z" opacity=".1"/>
            <path fill="#5F5D7E" d="M207 282.58s-1.664 2.897-1.177 4.12c.486 1.222-11.823-1.68-11.823-1.68s1-3.508.832-3.954c-.169-.446 12.168 1.514 12.168 1.514z"/>
            <path fill="#FDC2CC" d="M195 260.01l1.25 1.18.803.761s4.085 6.922 9.357 2.665c5.271-4.258-4.094-7.446-5.966-7.609a2.359 2.359 0 0 1-1.764-1.334 6.011 6.011 0 0 1-.617-1.673L195 260.01z"/>
            <path fill="#000" d="M195 260.01l1.25 1.18.803.761s4.085 6.922 9.357 2.665c5.271-4.258-4.094-7.446-5.966-7.609a2.359 2.359 0 0 1-1.764-1.334 6.011 6.011 0 0 1-.617-1.673L195 260.01z" opacity=".05"/>
            <path fill="#000" d="M207 282.58s-1.664 2.897-1.177 4.12c.486 1.222-11.823-1.68-11.823-1.68s1-3.508.832-3.954c-.169-.446 12.168 1.514 12.168 1.514zM195 260.02l1.357.98c0-1.892 1.57-3.631 2.643-4.609a4.336 4.336 0 0 1-.67-1.391l-3.33 5.02z" opacity=".1"/>
            <path fill="#C4C8E2" d="M187 244l12 11.089s-4.176 3.374-3.303 6.911L187 252.998V244z"/>
            <path fill="#000" d="M189 244v9l1.393 1.443 4.136 4.278 3.168 3.279c-.87-3.536 3.303-6.91 3.303-6.91L189 244z" opacity=".1"/>
            <path fill="#D39999" d="M187.49 227s0 3.499-2.973 2.502c-2.972-.998-.661 39.498-.661 39.498s8.586-6.5 6.933-11.165c-1.654-4.665-1.98-8.176-1.825-12.833.156-4.658-1.474-18.002-1.474-18.002z"/>
            <path fill="#FDC2CC" d="M186.77 218.575s-2.321 7.174 0 12.6c2.323 5.426-13.77-2.977-13.77-2.977s3.558-1.925 2.322-11.198l11.449 1.575z"/>
            <path fill="#000" d="M190.228 250.175a50.503 50.503 0 0 0 0 5.437L194 260a33.453 33.453 0 0 0-1.87-3.561c-.586-.944-.717-4.707-.747-9.002L190 246c.146 2.318.228 4.175.228 4.175z" opacity=".1"/>
            <path fill="#C4C8E2" d="M187.016 227.285c-.186-.862 1.271.436 1.738 1.19l.024.042c.673 1.16.337.82 1.346 3.443 1.01 2.623-.336 21.637 1.188 23.955A36.581 36.581 0 0 1 194 261l-2.688-.985s-1.01-2.952-1.679-3.609-.336-6.723-.336-6.723-.503-10.494-1.01-12.79c-.4-1.846-.875-7.796-1.27-9.608z"/>
            <path fill="#000" d="M187.016 227.285c-.186-.862 1.271.436 1.738 1.19l.024.042c.673 1.16.337.82 1.346 3.443 1.01 2.623-.336 21.637 1.188 23.955A36.581 36.581 0 0 1 194 261l-2.688-.985s-1.01-2.952-1.679-3.609-.336-6.723-.336-6.723-.503-10.494-1.01-12.79c-.4-1.846-.875-7.796-1.27-9.608z" opacity=".1"/>
            <path fill="#5F5D7E" d="M183 268.048s25.918-.979 29.2 5.867S207.608 285 207.608 285s-10.99-3.421-13.452-2.933c-2.463.487-11.156-1.306-11.156-1.306v-12.713z"/>
            <path fill="#FDC2CC" d="M198 262.926s6.235-3.373 9.7-1.192c3.464 2.181 3.117 8.092-1.73 8.259-4.848.167-7.448-2.697-7.448-2.697l-.522-4.37z"/>
            <path fill="#C4C8E2" d="M179.523 225.444s-5.415-3.579-13.37 9.58c-7.954 13.157-5.92 35.772-5.92 35.772s5.92.326 5.753 5.69C165.82 281.85 189 283 189 283s-.339-53.337-2.707-54.793c-2.369-1.456-6.77-2.763-6.77-2.763z"/>
            <path fill="#000" d="M178.97 235.016a7.126 7.126 0 0 1 2.962 5.797c.027 4.874.146 15.375.641 17.361.652 2.604 10.422 6.02 15.472 5.859 0 0 2.444 4.555-.488 5.532-2.931.978-20.843 0-20.843 0s-7.003-7.97-7.165-14.953c-.16-6.982-1.15-14.807 0-16.272.94-1.238 4.874-6.53 9.42-3.324z" opacity=".1"/>
            <path fill="#C4C8E2" d="M178.95 234.014a7.124 7.124 0 0 1 2.982 5.804c.027 4.872.146 15.372.641 17.358.652 2.603 10.422 6.019 15.472 5.858 0 0 2.444 4.554-.488 5.532-2.931.977-20.843 0-20.843 0s-7.003-7.97-7.165-14.951c-.16-6.981-1.15-14.805 0-16.27.921-1.23 4.854-6.536 9.402-3.33z"/>
            <path fill="#4C4C56" d="M213.092 284.754c2.394 1.101 5.169 3.37-.09 6.815 0 0-15.012 1.556-19.851-1.247-4.84-2.804 0-7.322 0-7.322s11.073 2.749 16.387 1.406a5.368 5.368 0 0 1 3.554.348z"/>
            <path fill="#000" d="M213.092 286.75c2.394 1.113 5.169 3.369-.09 6.819 0 0-15.012 1.557-19.851-1.248-4.84-2.805 0-7.321 0-7.321s11.073 2.747 16.387 1.408a5.369 5.369 0 0 1 3.554.342zM179 246s.92 10.637 7 13M188 220.715a19.697 19.697 0 0 0-.959 4.206c-1.024.334-2.521-.504-3.664-.504-2.972 0-3.82-3.227-5.673-5.193 0-.875-1.528 1.169-1.704.078l12 1.413z" opacity=".1"/>
            <path fill="#FDC2CC" d="M173 213.49c-.001.867.105 1.73.317 2.571l.035.133a10.5 10.5 0 1 0-.352-2.7v-.004z"/>
            <path fill="#000" d="M166.158 233.49a39.934 39.934 0 0 1 3.784-5.49 42.688 42.688 0 0 0-3.106 4.651c-7.956 13.598-5.922 36.925-5.922 36.925s5.922.336 5.754 5.874c-.151 4.971 18.508 6.427 22.332 6.672V283s-23.185-1.187-23.018-6.724c.168-5.537-5.754-5.873-5.754-5.873s-2.014-23.316 5.93-36.913zM174.811 201.095c1.073-.66 2.43-1.047 3.586-.613.885-.167 1.782-.25 2.682-.25.492.038.987-.011 1.463-.144a7.815 7.815 0 0 0 1.019-.551c1.513-.82 3.191-.512 4.788-.3 1.3.171 3.494-.31 4.245 1.206.233.42.163.947-.172 1.288-.146.11-.334.153-.445.309a.942.942 0 0 0-.05.71l1.073 5.468a3.96 3.96 0 0 1-3.191.148 8.898 8.898 0 0 1-.843-.39c-.8.53-1.628.128-2.597.34a2.957 2.957 0 0 0-1.463.975 8.748 8.748 0 0 0-2.173 4.41c-.107.62-.249 1.385-.838 1.561a3.78 3.78 0 0 1-.679.07c-1.064.14-1.501 1.426-2.187 2.273-.835 1.03-2.333 1.703-2.425 3.038-.023.344.05.722-.138 1.011a.833.833 0 0 1-.52.328 1.745 1.745 0 0 1-1.71-.78 5.328 5.328 0 0 1-.723-1.871l-1.98-8.005a16.41 16.41 0 0 1-.518-2.734c-.181-3.02 1.276-5.898 3.796-7.497z" opacity=".1"/>
            <path fill="#865A61" d="M174.811 201.095c1.073-.66 2.43-1.047 3.586-.613.885-.167 1.782-.25 2.682-.25.492.038.987-.011 1.463-.144a7.815 7.815 0 0 0 1.019-.551c1.513-.82 3.191-.512 4.788-.3 1.3.171 3.494-.31 4.245 1.206.233.42.163.947-.172 1.288-.146.11-.334.153-.445.309a.942.942 0 0 0-.05.71l1.073 5.468a3.96 3.96 0 0 1-3.191.148 8.898 8.898 0 0 1-.843-.39c-.8.53-1.628.128-2.597.34a2.957 2.957 0 0 0-1.463.975 8.748 8.748 0 0 0-2.173 4.41c-.107.62-.249 1.385-.838 1.561a3.78 3.78 0 0 1-.679.07c-1.064.14-1.501 1.426-2.187 2.273-.835 1.03-2.333 1.703-2.425 3.038-.023.344.05.722-.138 1.011a.833.833 0 0 1-.52.328 1.745 1.745 0 0 1-1.71-.78 5.328 5.328 0 0 1-.723-1.871l-1.98-8.005a16.41 16.41 0 0 1-.518-2.734c-.181-3.02 1.276-5.898 3.796-7.497z"/>
        </g>
    </g>
</svg>
