<svg xmlns="http://www.w3.org/2000/svg" width="24" height="30" viewBox="0 0 24 30">
    <g fill="none" fill-rule="evenodd">
        <path fill="#F4F4F4" d="M-398-542h1440V722H-398z"/>
        <path fill="#FFF" stroke="#EA0B4B" d="M-277.5-247.5V276a3.5 3.5 0 0 0 3.5 3.5H918a3.5 3.5 0 0 0 3.5-3.5v-556a3.5 3.5 0 0 0-3.5-3.5H528a3.5 3.5 0 0 0-3.5 3.5v32.5h-802z"/>
        <path fill="#9BC9FF" d="M16.5 26.5v1a2 2 0 0 1-2 2h-12a2 2 0 0 1-2-2v-1h16zM16.5 2A1.5 1.5 0 0 0 15 .5H2A1.5 1.5 0 0 0 .5 2v1.5h16V2z"/>
        <g fill="#57A4FF">
            <path fill-rule="nonzero" d="M16.5 22.5a.5.5 0 0 0-.5.5v3H1V4h15v3a.5.5 0 0 0 1 0V2a2 2 0 0 0-2-2H2a2 2 0 0 0-2 2v25.5A2.503 2.503 0 0 0 2.5 30h12a2.503 2.503 0 0 0 2.5-2.5V23a.5.5 0 0 0-.5-.5zM2 1h13a1 1 0 0 1 1 1v1H1V2a1 1 0 0 1 1-1zm12.5 28h-12A1.5 1.5 0 0 1 1 27.5V27h15v.5a1.5 1.5 0 0 1-1.5 1.5z"/>
            <path d="M9.5 27.5h-2a.5.5 0 0 0 0 1h2a.5.5 0 0 0 0-1zM12 12.5a1 1 0 0 1 1 1 .5.5 0 0 0 1 0 2 2 0 1 0-2 2 1 1 0 1 1-1 1 .5.5 0 0 0-1 0 2 2 0 1 0 2-2 1 1 0 0 1 0-2zM22 14.5a1 1 0 1 1 1-1 .5.5 0 0 0 1 0 2 2 0 1 0-2 2 1 1 0 1 1-1 1 .5.5 0 0 0-1 0 2 2 0 1 0 2-2zM18 11.5c-.37.001-.727.14-1 .39A1.494 1.494 0 0 0 14.5 13v5a.5.5 0 0 0 1 0v-5a.5.5 0 0 1 1 0v5a.5.5 0 0 0 1 0v-5a.5.5 0 0 1 1 0v5a.5.5 0 0 0 1 0v-5a1.5 1.5 0 0 0-1.5-1.5z"/>
        </g>
    </g>
</svg>
