<svg xmlns="http://www.w3.org/2000/svg" width="24" height="20" viewBox="0 0 24 20">
    <g fill="none" fill-rule="evenodd">
        <path fill="#F4F4F4" d="M-322-547h1440V717H-322z"/>
        <path fill="#FFF" stroke="#EA0B4B" d="M-201.5-252.5V271a3.5 3.5 0 0 0 3.5 3.5H994a3.5 3.5 0 0 0 3.5-3.5v-556a3.5 3.5 0 0 0-3.5-3.5H604a3.5 3.5 0 0 0-3.5 3.5v32.5h-802z"/>
        <path fill="#03A9F4" d="M24 2.273c-.892.385-1.843.641-2.835.765A4.832 4.832 0 0 0 23.33.36a9.927 9.927 0 0 1-3.12 1.173A4.967 4.967 0 0 0 16.614 0C13.893 0 11.7 2.177 11.7 4.846c0 .384.033.753.114 1.105A14 14 0 0 1 1.67.883a4.82 4.82 0 0 0-.673 2.449c0 1.678.877 3.165 2.185 4.026A4.917 4.917 0 0 1 .96 6.761v.054c0 2.354 1.706 4.31 3.942 4.76-.4.107-.837.16-1.29.16-.315 0-.633-.019-.932-.084a4.958 4.958 0 0 0 4.598 3.375 9.985 9.985 0 0 1-6.1 2.066c-.404 0-.791-.017-1.178-.066A14.01 14.01 0 0 0 7.548 19.2c9.054 0 14.004-7.385 14.004-13.786 0-.214-.008-.42-.018-.626A9.734 9.734 0 0 0 24 2.273z"/>
    </g>
</svg>
