<svg xmlns="http://www.w3.org/2000/svg" width="415" height="261" viewBox="0 0 415 261">
    <defs>
        <linearGradient id="a" x1="50%" x2="50%" y1="100%" y2="0%">
            <stop offset="0%" stop-color="gray" stop-opacity=".25"/>
            <stop offset="54%" stop-color="gray" stop-opacity=".12"/>
            <stop offset="100%" stop-color="gray" stop-opacity=".1"/>
        </linearGradient>
        <linearGradient id="b" x1="50.004%" x2="50.004%" y1="100%" y2="0%">
            <stop offset="0%" stop-color="gray" stop-opacity=".25"/>
            <stop offset="54%" stop-color="gray" stop-opacity=".12"/>
            <stop offset="100%" stop-color="gray" stop-opacity=".1"/>
        </linearGradient>
        <linearGradient id="c" x1="50%" x2="50%" y1="100%" y2="0%">
            <stop offset="0%" stop-color="gray" stop-opacity=".25"/>
            <stop offset="54%" stop-color="gray" stop-opacity=".12"/>
            <stop offset="100%" stop-color="gray" stop-opacity=".1"/>
        </linearGradient>
        <linearGradient id="d" x1="55.947%" x2="46.045%" y1="96.402%" y2="6.399%">
            <stop offset="0%" stop-opacity=".12"/>
            <stop offset="55%" stop-opacity=".09"/>
            <stop offset="100%" stop-opacity=".02"/>
        </linearGradient>
        <linearGradient id="e" x1="303.85%" x2="303.85%" y1="1073.766%" y2="977.687%">
            <stop offset="0%" stop-opacity=".12"/>
            <stop offset="55%" stop-opacity=".09"/>
            <stop offset="100%" stop-opacity=".02"/>
        </linearGradient>
        <linearGradient id="f" x1="307.337%" x2="307.337%" y1="1006.24%" y2="910.162%">
            <stop offset="0%" stop-opacity=".12"/>
            <stop offset="55%" stop-opacity=".09"/>
            <stop offset="100%" stop-opacity=".02"/>
        </linearGradient>
    </defs>
    <g fill="none" fill-rule="evenodd">
        <path fill="url(#a)" d="M0 14h197v111H0z"/>
        <path fill="#FFF" d="M2 29h193v93H2z"/>
        <path fill="url(#b)" d="M15 37h67v70H15z"/>
        <path fill="#E0E0E0" d="M17 38h63v67H17z"/>
        <path fill="#9C0F46" d="M2 15h193v14H2z" opacity=".2"/>
        <path fill="#E0E0E0" d="M106 58h73v5h-73z"/>
        <path fill="#F5F5F5" d="M106 78h73v5h-73z"/>
        <path fill="#9C0F46" d="M105 68h43v5h-43zM105 88h30v5h-30z" opacity=".2"/>
        <path fill="#9C0F46" d="M140 88h30v5h-30z"/>
        <path fill="url(#a)" d="M209 14h197v111H209z"/>
        <path fill="#FFF" d="M211 29h193v93H211z"/>
        <path fill="url(#b)" d="M224 37h67v70h-67z"/>
        <path fill="#EA0B4B" d="M226 38h63v67h-63z" opacity=".8"/>
        <path fill="#FFF" d="M275.52 64.389c-.467-3.986-1.17-7.98-2.691-11.707-1.522-3.727-3.966-7.153-7.37-9.27a8.413 8.413 0 0 0-4.073-1.408c-2.664-.094-5.126 1.708-6.498 3.999-.464.793-.87 1.62-1.213 2.473a5.754 5.754 0 0 0-4.766 5.276 14.686 14.686 0 0 0-8.864 14.604c.468 6.269 4.864 11.543 10.934 13.118v2.502C244.529 85.667 240.02 91.5 240 98.184V105h29.294v-6.83c-.021-6.684-4.528-12.517-10.979-14.208V81.46c6.463-1.675 10.978-7.52 10.979-14.213v-.103l1.648 3.675c1.568 3.502 3.174 7.257 2.56 11.05 3.007-5.159 2.758-11.557 2.019-17.48z"/>
        <path fill="#EA0B4B" d="M211 15h193v14H211z" opacity=".2"/>
        <path fill="#E0E0E0" d="M315 58h73v5h-73z"/>
        <path fill="#F5F5F5" d="M315 78h73v5h-73z"/>
        <path fill="#EA0B4B" d="M314 68h43v5h-43zM314 88h30v5h-30z" opacity=".2"/>
        <path fill="#EA0B4B" d="M349 88h30v5h-30z"/>
        <path fill="url(#a)" d="M209 150h197v111H209z"/>
        <path fill="#FFF" d="M211 166h193v93H211z"/>
        <path fill="url(#b)" d="M224 174h67v70h-67z"/>
        <path fill="#EA0B4B" d="M226 175h63v67h-63z" opacity=".8"/>
        <path fill="#EA0B4B" d="M211 152h193v14H211z" opacity=".2"/>
        <path fill="#E0E0E0" d="M315 195h73v5h-73z"/>
        <path fill="#F5F5F5" d="M315 215h73v5h-73z"/>
        <path fill="#EA0B4B" d="M314 205h43v5h-43zM314 225h30v5h-30z" opacity=".2"/>
        <path fill="#EA0B4B" d="M349 225h30v5h-30z"/>
        <path fill="url(#a)" d="M0 150h197v111H0z"/>
        <path fill="#FFF" d="M2 166h193v93H2z"/>
        <path fill="url(#b)" d="M15 175h67v70H15z"/>
        <path fill="#EA0B4B" d="M17 175h63v67H17z" opacity=".8"/>
        <path fill="#EA0B4B" d="M2 152h193v14H2z" opacity=".2"/>
        <path fill="#E0E0E0" d="M106 195h73v5h-73z"/>
        <path fill="#F5F5F5" d="M106 215h73v5h-73z"/>
        <path fill="#EA0B4B" d="M105 205h43v5h-43zM105 225h30v5h-30z" opacity=".2"/>
        <path fill="#EA0B4B" d="M140 225h30v5h-30z"/>
        <path fill="#FFF" d="M52.75 223.206v-2.4c7.313-1.906 12.081-9.005 11.13-16.57C62.927 196.67 56.552 191 49 191c-7.553 0-13.928 5.67-14.88 13.236-.951 7.565 3.817 14.664 11.13 16.57v2.4c-6.344 1.731-10.759 7.533-10.78 14.169V244h29.06v-6.625c-.021-6.636-4.436-12.438-10.78-14.17z"/>
        <circle cx="49" cy="202" r="16" fill="#FFF"/>
        <path fill="#FFF" d="M64.632 203s-.93 17.277 6.368 19.162c0 0-15.081 8.014-18-9.428L64.632 203zM33.368 203s.93 17.277-6.368 19.162c0 0 15.081 8.014 18-9.428L33.368 203z"/>
        <path fill="#FFF" stroke="#FFF" d="M37.26 65.96a11.441 11.441 0 0 1-1.24-5.894 7.905 7.905 0 0 1 2.575-5.348c1.693-1.454 3.99-1.968 6.207-2.148 2.217-.181 4.467-.072 6.65-.504A13.897 13.897 0 0 0 60.33 46a18.985 18.985 0 0 1-.047 5.158c-.33 1.692-1.193 3.356-2.65 4.278 1.763-.822 1.575 1.108 1.188 2.263.877 1.065 3 1.24 3.108 2.62a8.735 8.735 0 0 1-.443 4.073c-.533 1.27.038 3.508-1.326 3.608"/>
        <path fill="#FFF" d="M58 56s7.354.664 2.12 12M52.75 85.206v-2.4c7.313-1.906 12.081-9.005 11.13-16.57C62.927 58.67 56.552 53 49 53c-7.553 0-13.928 5.67-14.88 13.236-.951 7.565 3.817 14.664 11.13 16.57v2.4c-6.344 1.731-10.759 7.533-10.78 14.169V106h29.06v-6.625c-.021-6.636-4.436-12.438-10.78-14.17zM260.75 223.206v-2.4c7.313-1.906 12.081-9.005 11.13-16.57C270.927 196.67 264.552 191 257 191c-7.553 0-13.928 5.67-14.88 13.236-.951 7.565 3.817 14.664 11.13 16.57v2.4c-6.344 1.731-10.759 7.533-10.78 14.169V244h29.06v-6.625c-.021-6.636-4.436-12.438-10.78-14.17z"/>
        <circle cx="257" cy="204" r="16" fill="#FFF"/>
        <path fill="#FFF" d="M257.857 186.589c1.286-.319 2.634-.469 3.835-1.022A6.23 6.23 0 0 0 265.24 180a10.767 10.767 0 0 1 1.588 3.123c.228.589.285 1.229.165 1.848a1.454 1.454 0 0 1-1.329 1.135c1.244.244 2.582.469 3.741-.028 1.16-.497 1.922-2.087 1.136-3.077a9.421 9.421 0 0 1 1.762 2.51 3.176 3.176 0 0 1-.132 2.95c-.712 1.06-2.144 1.36-3.426 1.336a47.16 47.16 0 0 0 3.393.084c.635.05 1.27-.088 1.828-.394.523-.356.791-1.153.377-1.632a7.552 7.552 0 0 1-1.38 8.24c-1.339 1.383-3.233 2.27-4.175 3.944-.57 1.008-.721 2.19-1.074 3.283a9.477 9.477 0 0 1-2.06 3.54 6.176 6.176 0 0 1-3.934 2.125c-2.106.16-4.052-1.163-5.493-2.701-1.442-1.539-2.596-3.358-4.24-4.69-2.357-1.923-5.777-2.378-7.987-4.394 1.267-2.373 4.094-4.723 6.153-6.453a19.345 19.345 0 0 1 7.704-4.16z"/>
        <circle cx="184.5" cy="21.5" r="21.5" fill="url(#c)"/>
        <circle cx="393.5" cy="21.5" r="21.5" fill="url(#c)"/>
        <circle cx="184.5" cy="158.5" r="21.5" fill="url(#c)"/>
        <circle cx="393.5" cy="158.5" r="21.5" fill="url(#c)"/>
        <circle cx="184.5" cy="21.5" r="19.5" fill="#FFF"/>
        <circle cx="184.5" cy="158.5" r="19.5" fill="#FFF"/>
        <circle cx="393.5" cy="158.5" r="19.5" fill="#FFF"/>
        <circle cx="393.5" cy="21.5" r="19.5" fill="#FFF"/>
        <path fill="url(#d)" d="M413 4.336L406.014 0l-13.426 21.325-9.073-5.555L379 22.968l13.185 7.944L395.466 33z"/>
        <path fill="#0DA176" d="M413 3.845L406.626 0 393.25 21.867l-9.376-5.658L380 22.54l12.563 7.566L395.778 32z"/>
        <path fill="url(#e)" d="M413 139.336L406.014 135l-13.426 21.325-9.073-5.555-4.515 7.198 13.185 7.944 3.281 2.088z"/>
        <path fill="#0DA176" d="M413 139.845L406.626 136l-13.375 21.867-9.376-5.658L380 158.54l12.563 7.566 3.215 1.894z"/>
        <path fill="url(#f)" d="M204 139.336L197.014 135l-13.426 21.325-9.073-5.555-4.515 7.198 13.185 7.944 3.281 2.088z"/>
        <path fill="#0DA176" d="M203 139.845L196.626 136l-13.375 21.867-9.376-5.658L170 158.54l12.563 7.566 3.215 1.894z"/>
    </g>
</svg>
