<svg xmlns="http://www.w3.org/2000/svg" width="508" height="354" viewBox="0 0 508 354">
    <defs>
        <linearGradient id="a" x1="49.988%" x2="49.988%" y1="100%" y2="-.007%">
            <stop offset="0%" stop-color="gray" stop-opacity=".25"/>
            <stop offset="54%" stop-color="gray" stop-opacity=".12"/>
            <stop offset="100%" stop-color="gray" stop-opacity=".1"/>
        </linearGradient>
    </defs>
    <g fill="none" fill-rule="evenodd">
        <path fill="#EAEAEA" d="M296.7 55.621c-32.313-1.123-63.09-11.553-92.483-22.967C174.823 21.24 145.719 8.593 114.179 2.57c-20.287-3.89-43.484-4.438-59.83 6.436C38.62 19.492 33.537 37.542 30.8 54.303 28.75 66.92 27.536 80.192 33.173 92c3.91 8.198 10.855 15.089 15.658 22.943 16.706 27.321 4.898 61.013-13.211 87.69-8.488 12.513-18.344 24.466-24.9 37.777-6.556 13.312-9.587 28.585-3.855 42.176 5.687 13.48 19.233 23.587 33.902 30.702 29.803 14.45 64.909 18.588 99.17 20.93 75.803 5.188 152.016 2.94 228.018.694 28.13-.834 56.38-1.678 84.052-6.027 15.368-2.416 31.235-6.25 42.39-15.478 14.16-11.748 17.67-31.645 8.183-46.374-15.917-24.71-59.915-30.852-71.054-57.37-6.127-14.594.164-30.856 9.062-44.391 19.093-29.044 51.093-54.518 52.78-87.717 1.159-22.797-14.225-45.63-38.011-56.42-24.935-11.309-59.506-9.886-77.89 8.833C358.514 49.196 325.23 56.61 296.7 55.62z"/>
        <path fill="#EA0B4B" d="M43.114 163.948S5.797 148.251.89 176.556c0 0-2.552 4.413.998 8.058 0 0 .764-1.957 4.37.065a18.559 18.559 0 0 0 4.073 1.658 9.167 9.167 0 0 0 5.802-.31s12.278-.664 22.603-16.726c0 0 4.429-2.736 4.649-3.765l-7.4.5s.57 5.417-2.496 8.667c0 0 2.716-8.408 1.413-8.643-.265-.05-3.91.43-3.91.43s.944 9.422-3.994 14.295c0 0 4.583-9.582 2.591-14.125l-5.462 1.053s1.498 9.911-3.905 15.673c0 0 4.444-10.186 2.727-15.358l-5.228 1.757s1.258 9.692-3.26 14.48c0 0 3.944-12.288 2.087-13.98 0 0-4.704 1.907-5.707 2.995 0 0 .744 6.99-2.127 9.512 0 0 1.762-8.488.888-8.838 0 0-5.462 4.114-7.13 7.664 0 0 2.078-5.422 6.446-8.488 0 0-3.67-.619-6.49.914 0 0 1.887-3.6 7.814-1.892 0 0 4.388-3.04 5.267-2.996 0 0-5.607-2.496-9.656-2.187 0 0 4.344-2.496 11.024 1.673l5.218-1.883s-7.24-3.71-10.865-3.694c0 0 4.823-1.868 12.218 3.325l5.342-1.088s-5.991-3.67-10.03-4.524c0 0 4.843-.769 11.573 4.269l3.65-.305s-4.419-2.606-5.757-3.24c-1.338-.634-1.278-1.044-1.278-1.044a17.42 17.42 0 0 1 8.568 4.125s7.57-.17 7.6-.635zM41.746 135.808s-13.236-30.592-32.27-16.561c0 0-4.024 1.168-3.994 5.342 0 0 1.568-.729 2.562 2.531a15.029 15.029 0 0 0 1.498 3.3 7.49 7.49 0 0 0 3.62 3.121s7.674 6.601 22.967 2.941c0 0 4.194.894 4.908.415l-4.673-3.93s-2.751 3.545-6.436 3.715c0 0 6.406-3.445 5.767-4.329-.13-.18-2.572-1.967-2.572-1.967s-4.803 6.131-10.485 6.226c0 0 8.183-3.086 9.586-6.915L28.38 127.2s-4.763 6.736-11.25 7.085c0 0 8.444-3.52 10.371-7.574l-4.109-1.932s-4.773 6.49-10.17 6.735c0 0 9.346-5.053 9.201-7.115 0 0-3.88-1.548-5.112-1.458 0 0-3.53 4.569-6.681 4.44 0 0 5.887-4.04 5.567-4.744 0 0-5.592-.67-8.603.5 0 0 4.324-2.038 8.663-1.369 0 0-1.827-2.462-4.369-3.146 0 0 3.176-1.063 5.722 3.32 0 0 4.334.7 4.843 1.219 0 0-1.902-4.688-4.493-6.8 0 0 3.994.998 5.592 7.274l4.174 1.853s-2.187-6.331-4.354-8.383c0 0 3.93 1.637 5.367 8.937l3.795 2.392s-1.468-5.593-3.38-8.404c0 0 3.315 2.307 4.439 9.133l2.346 1.897s-1.143-4.064-1.578-5.203c-.434-1.138-.164-1.348-.164-1.348a14.305 14.305 0 0 1 2.74 7.33s4.514 4.224 4.809 3.97z" opacity=".1"/>
        <path fill="url(#a)" fill-rule="nonzero" d="M465.977 333.105c-.5-1.808-.999-3.64-1.997-5.213a18.114 18.114 0 0 0-3.276-3.58c-3.62-3.29-8.068-6.63-12.867-5.797-1.488.325-2.925.85-4.274 1.558-.699.324-1.403.649-2.122.924a10.585 10.585 0 0 1-6.405.559c-1.099-.295-2.122-.824-3.206-1.154a10.345 10.345 0 0 0-1.578-.34 29.049 29.049 0 0 0 3.046-1.602c5.387-3.33 9.686-9.322 9.082-15.663-.2-2.147-.939-4.199-1.667-6.22-.64-1.768-1.28-3.538-1.923-5.308-.829-2.302-1.682-4.644-3.2-6.556-1.688-2.127-4.084-3.57-6.561-4.649-5.322-2.311-11.14-3.125-16.881-3.914l-.4-.055v-62.032a3.994 3.994 0 0 0-3.994-4.02H400.2l-.999-6.106c-.953-5.797-1.937-11.709-4.608-16.931-1.748-3.42-4.534-6.676-8.284-7.35a8.258 8.258 0 0 1-2.157-.499c-1.098-.54-1.697-1.738-2.546-2.626-2.177-2.282-5.717-2.317-8.638-3.495-2.576-1.024-4.683-2.956-7.03-4.44-2.347-1.482-5.267-2.54-7.869-1.572 0 .19-.035.375-.055.564l-1.667-.749c-1.798-.828-3.635-1.687-5.078-3.055-1.858-1.753-2.846-4.065-3.615-6.531-.08-.26-.155-.5-.23-.774a23.232 23.232 0 0 0 6.212-11.868c.134.434.274.874.409 1.313.123.447.29.88.5 1.293.069.137.147.268.234.395.165.245.37.46.609.634.237.172.513.28.804.314.139.02.28.02.42 0a2.307 2.307 0 0 0 1.677-1.433c.08-.196.138-.4.175-.609a3.15 3.15 0 0 0 .035-.38v-.12-.259-.14-.38c0-.099-.03-.199-.05-.294-.02-.095 0-.055 0-.08-.025-.13-.055-.254-.08-.384a.5.5 0 0 1 0-.085l-.075-.315-.045-.19v-.05c-.05-.194-.095-.394-.14-.593a17.196 17.196 0 0 1-.274-5.278c.3-2.586.777-5.148 1.428-7.669l.104-.454.12-.53c.08-.36.155-.719.23-1.078.065-.305.125-.614.18-.924.055-.31.095-.544.134-.819v-.1c.306-1.86.388-3.751.245-5.632-.235-2.61-1.043-5.082-2.82-7.055-1.254-1.393-2.902-2.421-4.065-3.884-1.094-1.373-1.708-3.06-2.836-4.404-3.12-3.725-11.124-6.596-16.037-7.095-5.628-.57-14.72.869-19.253 4.194-1.678 1.228-2.826 2.996-3.995 4.679-2.147 3.125-4.588 6.24-8.028 7.988-1.303.66-2.791 1.159-3.655 2.307a6.286 6.286 0 0 0-.999 2.591 51.033 51.033 0 0 0-1.028 9.886 12.188 12.188 0 0 0 .549 4.294c.07.19.155.385.245.57.08.164.17.33.264.499l.06.105a20.746 20.746 0 0 1 1.603 2.72c.11.268.19.545.24.83a6.136 6.136 0 0 1-.14 2.192c0 .11-.04.214-.065.32l-.045.229c0 .07 0 .145-.04.215-.04.216-.075.43-.105.644 0 .15-.03.304-.035.459a3.75 3.75 0 0 0 .345 1.797c.065.134.144.261.234.38.18.24.41.436.674.574a7.56 7.56 0 0 0 1.848.44c1.867.419 3.035 1.847 3.794 3.6.169.393.317.794.445 1.203.311 1.024.545 2.07.699 3.13.849-.045 1.343-.794 1.642-1.612a7.59 7.59 0 0 0 .235-.824c.115-.525.23-1.049.35-1.573a23.212 23.212 0 0 0 9.117 10.046c.14.41.274.824.4 1.243.653 2.262.968 4.633-.166 6.61-.808 1.404-2.171 2.272-3.69 2.872a2.442 2.442 0 0 0-.823-.704c-1.318-.66-2.896.144-3.995 1.128-1.997 1.807-3.624 4.399-6.256 4.993-.948.22-1.997.175-2.79.754a6.45 6.45 0 0 0-1.294 1.702 5.957 5.957 0 0 1-5.113 2.547c-.913-.045-1.997-.255-2.621.414-.464.5-.5 1.293-.999 1.768-.674.659-1.767.334-2.706.294-1.37.004-2.68.57-3.62 1.568a8.518 8.518 0 0 0-2.177-5.442c-1.348-1.388-3.22-2.102-4.818-3.19-3.994-2.717-5.991-7.49-8.073-11.864-2.082-4.374-4.829-8.987-9.372-10.58-1.044-.37-2.497-.4-2.966.614-.16.423-.186.885-.075 1.323.44 2.327 2.097 4.194 3.53 6.067 2.412 3.155 4.434 7.015 3.85 10.96-.684 4.668-4.843 8.293-5.343 12.98-.22 2.068.305 4.145.3 6.222 0 1.298-.205 2.611.075 3.875.297.96.648 1.901 1.053 2.82.45 1.51.682 3.075.69 4.65.352 6.616.703 13.235 1.053 19.856.264 4.938-.814 9.811-1.903 14.67a46.03 46.03 0 0 0-3.125 8.987c-1.228 5.407-1.263 11.169.5 16.431.943 2.861 2.39 5.543 3.165 8.453 0 .065.03.125.045.185.075.62.16 1.238.274 1.853.142.71.327 1.41.554 2.097a14.944 14.944 0 0 0 1.099 3.43 9.596 9.596 0 0 0 2.996 3.495c-.72 1.408-1.883 2.541-2.657 3.92-1.348 2.386-1.403 5.317-.913 8.023.943 5.223 3.764 9.891 7.49 13.686a4.334 4.334 0 0 0-.5 0 7.829 7.829 0 0 0-3.415 1.223c-7.884 4.608-12.393 14.48-10.745 23.517.324 1.767.889 3.555 2.067 4.898a7.769 7.769 0 0 0 3.64 2.232c.873.262 1.772.43 2.681.499 6.146.5 12.098-2.352 18.26-2.591a49.175 49.175 0 0 1 6.116.284c2.965.247 5.938.403 8.917.47 4.838.114 7.564-1.174 10.655-4.794a12.922 12.922 0 0 0 1.882-2.965c2.627-.15 5.527-.38 7.63-.555l.03.295c.114.998.29 2.147 1.088 2.78a3.89 3.89 0 0 0 1.498.61c5.048 1.243 10.155 2.497 15.348 2.497a64.768 64.768 0 0 0 7.29-.565l9.137-1.053a46.54 46.54 0 0 1 7.844 1.707c2.636.9 5.103 2.232 7.679 3.28 5.992 2.432 12.442 3.301 18.828 4.15 1.089.145 2.337.245 3.146-.5 1.039-.998.689-2.67.4-4.069a22.24 22.24 0 0 1-.285-1.727 86.628 86.628 0 0 1 12.612 4.379l.719.314c.205 1.089 1.213 1.962 2.177 3.136.316.493.686.95 1.103 1.363a3.62 3.62 0 0 0 1.583.574 73.956 73.956 0 0 0 20.471.924 20.97 20.97 0 0 1 4.22-.145c1.033.14 2.052.37 3.045.689l5.782 1.653c4.259 1.223 8.628 2.456 13.046 2.182a17.33 17.33 0 0 0 2.667-.385c3.495-.809 6.755-2.766 8.433-5.912 2.251-4.279 1.158-9.536-.125-14.21zm-169.59-78.095a18.17 18.17 0 0 1-1.668 6.246c-.62 1.253-1.418 2.407-1.997 3.665-.55 1.138-.96 3.29-1.204 5.652-.3-.05-.604-.095-.903-.13.444-1.558.778-3.156 1.223-4.718 1.053-3.715 2.786-7.225 4.548-10.715z"/>
        <path fill="#FBBEBE" d="M304.08 331.801c-1.053-2.396-2.052-5.152-.998-7.549a6.416 6.416 0 0 1 3.32-3.12 15.977 15.977 0 0 1 4.494-1.109 62.716 62.716 0 0 1 14.61-.2c.354 2.806-.395 5.652-1.04 8.363-.583 2.497-.918 2.866-3.494 2.996-1.668.09-16.497 1.503-16.891.62z"/>
        <ellipse cx="348.543" cy="295.662" fill="#464353" rx="71.399" ry="19.972"/>
        <ellipse cx="348.543" cy="295.662" fill="#000" opacity=".1" rx="71.399" ry="19.972"/>
        <path fill="#FBBEBE" d="M361.345 190.231a22.214 22.214 0 0 1-11.454 10.406 28.75 28.75 0 0 1-9.067 1.727c-3.39.155-6.85-.065-10.036-1.223-4.274-1.548-7.824-4.713-10.485-8.403-2.662-3.69-4.494-7.904-6.087-12.153-.839-2.212-1.637-4.569-1.243-6.905 2.571-.584 5.387-1.443 6.715-3.725 1.134-1.957.82-4.304.165-6.54-.185-.635-.4-1.264-.614-1.868-.5-1.448-2.222-4.2-1.023-5.437.763-.784 3.964-1.184 5.067-1.693 3.4-1.568 6.536-3.835 10.27-4.579 3.231-.644 6.567-.04 9.792.63.428.062.839.21 1.208.434.422.355.733.822.9 1.348.918 2.237 1.457 4.708 2.196 7.04.769 2.442 1.757 4.733 3.61 6.466 1.443 1.353 3.28 2.202 5.078 3.026l4.423 2.027c.787.294 1.501.756 2.092 1.353.579.795.925 1.735 1 2.716a25.374 25.374 0 0 1-2.507 15.353z"/>
        <path fill="#000" d="M347.629 159.29a22.968 22.968 0 0 1-27.776 4.124c-.185-.634-.4-1.263-.614-1.867-.5-1.448-2.222-4.2-1.023-5.437.763-.784 3.964-1.184 5.067-1.693 3.4-1.568 6.536-3.835 10.27-4.579 3.231-.644 6.567-.04 9.792.63.428.062.839.21 1.208.434.422.355.733.822.9 1.348.898 2.237 1.437 4.708 2.176 7.04z" opacity=".1"/>
        <circle cx="331.067" cy="142.379" r="22.968" fill="#FBBEBE"/>
        <path fill="#F86D70" d="M401.044 216.919l-1.888-11.434c-.953-5.737-1.937-11.584-4.603-16.752-1.753-3.385-4.534-6.61-8.284-7.28a8.014 8.014 0 0 1-2.157-.499c-1.098-.529-1.697-1.717-2.54-2.596-2.178-2.257-5.723-2.292-8.639-3.44-2.576-.999-4.683-2.92-7.03-4.389-2.346-1.468-5.267-2.496-7.864-1.558-.42 4.469-.863 9.038-2.76 13.107a19.612 19.612 0 0 1-29.589 7.37c-4.449-3.35-7.3-8.519-8.628-13.926-.324-1.318-.694-2.83-1.907-3.435-1.313-.66-2.891.14-3.994 1.108-2.023 1.793-3.63 4.36-6.257 4.963-.948.22-1.997.175-2.786.75a6.341 6.341 0 0 0-1.298 1.682 5.992 5.992 0 0 1-5.108 2.526c-.913-.045-1.997-.254-2.621.41-.464.5-.5 1.278-.999 1.742-.674.654-1.767.335-2.706.3-1.777-.075-3.43 1.063-4.448 2.496-1.019 1.433-1.498 3.206-1.998 4.923 5.458 12.153 10.45 24.321 15.908 36.474.256.458.391.973.394 1.498a3.65 3.65 0 0 1-.679 1.498c-2.676 4.299-2.591 9.706-2.296 14.759.294 5.053.654 10.39-1.603 14.919-.614 1.243-1.413 2.381-1.997 3.625-1.368 2.816-1.863 11.823-1.064 14.849h112.84c-2.151-5.917-1.332-17.79-.883-24.071.315-4.394-.5-8.783-.849-13.177-.734-8.972-.185-17.485-1.667-26.442z"/>
        <path fill="#464353" d="M406.82 277.114c1.663-.635 3.495-.405 5.278-.165 5.737.784 11.559 1.588 16.876 3.88 2.497 1.068 4.873 2.496 6.56 4.598 1.499 1.892 2.372 4.209 3.201 6.49l1.918 5.238c.729 1.997 1.468 4.035 1.672 6.157.6 6.286-3.7 12.212-9.107 15.478-5.407 3.265-11.773 4.428-17.975 5.647a573.984 573.984 0 0 0-18.603 3.994 74.894 74.894 0 0 1-8.753 1.723c-6.61.749-13.52-.355-19.802 1.832-2.496.874-4.948 2.172-7.54 2.776a46.899 46.899 0 0 1-5.207.839l-11.888 1.358c-2.418.323-4.851.51-7.29.56-5.192 0-10.3-1.229-15.343-2.457a3.88 3.88 0 0 1-1.498-.604c-.799-.63-.974-1.743-1.088-2.752-.51-4.463-.956-8.932-1.339-13.406-.12-1.453-.21-3.025.585-4.249.998-1.497 2.945-1.967 4.723-2.256a123.266 123.266 0 0 1 22.808-1.583c2.9-2.901 7.684-2.916 11.483-4.494a34.147 34.147 0 0 0 4.05-2.202 52.925 52.925 0 0 1 22.223-7.025 20.696 20.696 0 0 0 4.549-.649c2.94-.914 5.622-3.4 8.643-2.79.374-1.034.634-2.418 1.498-3.126.429-.365.958-.61 1.353-1 .834-.843.908-2.171.784-3.35-.125-1.178-.405-2.386-.1-3.534.126-.435.313-.85.554-1.234 1.503-2.626 3.765-3.944 6.775-3.694z"/>
        <path fill="#000" d="M406.82 277.114c1.663-.635 3.495-.405 5.278-.165 5.737.784 11.559 1.588 16.876 3.88 2.497 1.068 4.873 2.496 6.56 4.598 1.499 1.892 2.372 4.209 3.201 6.49l1.918 5.238c.729 1.997 1.468 4.035 1.672 6.157.6 6.286-3.7 12.212-9.107 15.478-5.407 3.265-11.773 4.428-17.975 5.647a573.984 573.984 0 0 0-18.603 3.994 74.894 74.894 0 0 1-8.753 1.723c-6.61.749-13.52-.355-19.802 1.832-2.496.874-4.948 2.172-7.54 2.776a46.899 46.899 0 0 1-5.207.839l-11.888 1.358c-2.418.323-4.851.51-7.29.56-5.192 0-10.3-1.229-15.343-2.457a3.88 3.88 0 0 1-1.498-.604c-.799-.63-.974-1.743-1.088-2.752-.51-4.463-.956-8.932-1.339-13.406-.12-1.453-.21-3.025.585-4.249.998-1.497 2.945-1.967 4.723-2.256a123.266 123.266 0 0 1 22.808-1.583c2.9-2.901 7.684-2.916 11.483-4.494a34.147 34.147 0 0 0 4.05-2.202 52.925 52.925 0 0 1 22.223-7.025 20.696 20.696 0 0 0 4.549-.649c2.94-.914 5.622-3.4 8.643-2.79.374-1.034.634-2.418 1.498-3.126.429-.365.958-.61 1.353-1 .834-.843.908-2.171.784-3.35-.125-1.178-.405-2.386-.1-3.534.126-.435.313-.85.554-1.234 1.503-2.626 3.765-3.944 6.775-3.694z" opacity=".05"/>
        <path fill="#3F3D56" d="M308.674 334.887c-3.09 3.58-5.812 4.858-10.65 4.743a156.49 156.49 0 0 1-8.917-.464 50.03 50.03 0 0 0-6.112-.285c-6.161.24-12.108 3.061-18.254 2.567a12.942 12.942 0 0 1-2.681-.5 7.804 7.804 0 0 1-3.62-2.201c-1.178-1.334-1.743-3.101-2.067-4.849-1.643-8.957 2.86-18.713 10.745-23.272a7.879 7.879 0 0 1 3.415-1.213 8.094 8.094 0 0 1 3.455.759l.075.03a26.128 26.128 0 0 1 8.558 5.712c.37.425.814.781 1.308 1.053a4.494 4.494 0 0 0 1.543.29l6.56.414c1.112.033 2.217.186 3.296.455 1.19.415 2.347.916 3.465 1.498 3.53 1.577 7.444 1.997 11.26 2.606.367.02.717.16.998.4.152.189.258.41.31.648a12.737 12.737 0 0 1-2.687 11.609z"/>
        <path fill="#000" d="M274.043 310.202a39.394 39.394 0 0 0-6.566 8.208 41.082 41.082 0 0 0-5.362 16.247 30.157 30.157 0 0 0-.055 6.296 7.804 7.804 0 0 1-3.62-2.206c-1.178-1.334-1.743-3.101-2.067-4.849-1.643-8.957 2.86-18.713 10.745-23.272a7.879 7.879 0 0 1 3.415-1.213 8.094 8.094 0 0 1 3.455.759l.055.03z" opacity=".1"/>
        <path fill="#FBBEBE" d="M401.108 322.62c3.67-.1 7.79-.285 10.486 2.186 2.571 2.337 2.91 6.191 3.08 9.662l.195 4.029c.06 1.228.11 2.496-.384 3.635-.88 1.997-3.29 2.96-5.493 2.846-2.202-.115-4.224-1.079-6.236-1.948a87.726 87.726 0 0 0-16.976-5.347c.19-2.786.506-5.559.949-8.318.304-1.913.354-5.113 1.632-6.7 1.354-1.678 3.116-.77 4.953-.46 2.579.393 5.19.532 7.794.414z"/>
        <path fill="#464353" d="M304.135 282.137c0 .499-.783 0-.853-.535-.55-4.039-3.755-7.37-7.49-8.987-3.735-1.618-7.989-1.703-12.033-1.318-6.116.579-12.956 2.92-15.218 8.638-.53 1.338-.77 2.786-1.418 4.069-.72 1.408-1.893 2.531-2.672 3.9-1.343 2.366-1.398 5.267-.913 7.943 1.303 7.14 6.186 13.246 12.103 17.475 5.916 4.23 12.832 6.756 19.727 9.033a342.112 342.112 0 0 0 55.92 13.356c3.076.464 6.182.894 9.128 1.882 2.636.884 5.103 2.207 7.68 3.246 5.99 2.406 12.437 3.265 18.823 4.109 1.088.14 2.336.24 3.14-.5 1.039-.963.694-2.64.4-4.024a21.644 21.644 0 0 1 2.54-15.348c1.07-1.798 2.457-3.64 2.258-5.722-.24-2.427-2.657-4.144-5.063-4.534-2.407-.39-4.853.185-7.27.5-.834.11-1.742.18-2.496-.245a4.938 4.938 0 0 1-.969-.859 10.95 10.95 0 0 0-12.752-1.782c-.894.499-2.247-.614-3.175-1.034l-10.49-4.758c-12.064-5.457-24.186-10.94-36.948-14.395a7.759 7.759 0 0 1-2.846-1.183c-.635-.5-1.089-1.178-1.673-1.733-1.273-1.203-3.046-1.682-4.574-2.536-1.527-.854-3.225-2.946-2.866-4.658z"/>
        <path fill="#3F3D56" d="M466.002 347.39c-1.678 3.11-4.933 5.047-8.428 5.846-.877.198-1.769.325-2.667.38-4.418.274-8.782-.95-13.041-2.157l-5.782-1.638a18.25 18.25 0 0 0-3.046-.68 20.9 20.9 0 0 0-4.214.146 74.69 74.69 0 0 1-20.47-.919 3.61 3.61 0 0 1-1.584-.564 7.864 7.864 0 0 1-1.103-1.353c-1.573-1.893-3.265-2.996-1.403-5.493 1.073-1.448 3.066-2.172 3.9-3.834.833-1.663.3-4.024-.195-5.742-.674-2.372-2.891-3.395-3.685-5.572-.594-1.643.404-3.55 1.907-4.444 1.503-.894 3.36-.964 5.093-.734 1.733.23 3.43.72 5.173.854 5.123.41 10.36-2.232 15.278-.744 1.084.33 2.107.854 3.206 1.143a10.66 10.66 0 0 0 6.406-.554c.719-.27 1.423-.594 2.122-.914a17.09 17.09 0 0 1 4.269-1.542c4.798-.824 9.247 2.496 12.866 5.737a18.194 18.194 0 0 1 3.27 3.545c1 1.557 1.529 3.37 1.998 5.157 1.323 4.629 2.417 9.831.13 14.075z"/>
        <path fill="#000" d="M466.002 347.39c-1.678 3.11-4.933 5.047-8.428 5.846a16.322 16.322 0 0 0 1.772-8.568c-.3-4.748-2.386-9.222-5.048-13.166a46.634 46.634 0 0 0-5.562-6.776c-1.588-1.597-3.54-2.866-5.247-4.329a17.09 17.09 0 0 1 4.269-1.542c4.798-.824 9.247 2.496 12.866 5.737a18.194 18.194 0 0 1 3.27 3.545c1 1.557 1.529 3.37 1.998 5.157 1.303 4.649 2.397 9.851.11 14.095z" opacity=".1"/>
        <path fill="#3F3D56" d="M315.2 105.102c-1.678 1.213-2.826 2.955-3.995 4.628-2.152 3.09-4.588 6.176-8.028 7.899-1.303.654-2.791 1.148-3.655 2.287a6.161 6.161 0 0 0-.974 2.561 50.753 50.753 0 0 0-1.028 9.786c0 1.638.07 3.325.794 4.813.684 1.398 1.917 2.582 2.172 4.105.194 1.188-.245 2.371-.4 3.565-.155 1.193.115 2.606 1.218 3.175.595.224 1.216.37 1.848.434 3.32.74 4.434 4.634 4.938 7.854 1.128-.065 1.638-1.358 1.872-2.411l3.46-15.384c.375-1.667.999-3.6 2.662-4.184 1.113-.384 2.331-.025 3.495.075 4.568.375 8.433-3.155 12.901-4.129a16.477 16.477 0 0 1 4.35-.284c3.524.174 7.623 1.622 8.372 4.913.125.534.2 1.173.7 1.438.499.264.998.04 1.547 0 2.237-.225 3.555 2.291 4.2 4.348l2.346 7.49c.35 1.133.939 2.466 2.167 2.611 1.133.14 2.097-.934 2.267-1.997.17-1.064-.2-2.167-.445-3.235-1.103-4.919.585-9.951 1.613-14.88 1.029-4.927 1.213-10.59-2.237-14.384-1.253-1.373-2.9-2.397-4.069-3.845-1.088-1.358-1.703-3.025-2.831-4.359-3.12-3.68-11.124-6.52-16.032-6.99-5.587-.614-14.695.81-19.228 4.1z"/>
        <g fill="#000" opacity=".1">
            <path d="M356.182 147.192c-1.228-.15-1.818-1.498-2.167-2.611-.782-2.5-1.564-4.996-2.347-7.49-.644-2.062-1.962-4.578-4.199-4.348-.5.054-1.088.26-1.548 0-.459-.26-.574-.904-.699-1.438-.749-3.296-4.848-4.739-8.373-4.914-1.456-.095-2.918 0-4.349.285-4.493.999-8.333 4.494-12.901 4.13-1.179-.096-2.397-.455-3.495-.07-1.683.579-2.287 2.496-2.662 4.183l-3.46 15.379c-.234 1.058-.744 2.351-1.872 2.411-.5-3.215-1.618-7.11-4.938-7.849a7.849 7.849 0 0 1-1.848-.434 2.167 2.167 0 0 1-.963-1.073c-.09.464-.195.928-.255 1.393-.15 1.188.115 2.606 1.218 3.175.595.224 1.216.37 1.848.434 3.32.74 4.434 4.634 4.938 7.854 1.128-.065 1.638-1.358 1.872-2.411l3.46-15.384c.375-1.667.999-3.6 2.662-4.184 1.113-.384 2.331-.025 3.495.075 4.568.375 8.433-3.155 12.901-4.129 1.424-.285 2.88-.38 4.33-.284 3.524.174 7.623 1.622 8.372 4.913.125.534.2 1.173.7 1.438.499.264.998.04 1.547 0 2.237-.225 3.555 2.291 4.2 4.348.778 2.5 1.56 4.997 2.346 7.49.35 1.133.939 2.466 2.167 2.611 1.133.14 2.097-.934 2.267-1.997a6.78 6.78 0 0 0-.3-2.651 2.062 2.062 0 0 1-1.947 1.148zM300.49 137.686c-.254-1.523-1.497-2.707-2.171-4.105a8.213 8.213 0 0 1-.74-2.995c0 .559-.05 1.118-.054 1.682 0 1.638.07 3.325.794 4.813.554 1.134 1.468 2.132 1.927 3.286a7.52 7.52 0 0 0 .245-2.681zM359.617 127.06c-.909 4.354-2.327 8.788-1.887 13.152.284-3.22 1.223-6.46 1.887-9.656.553-2.425.749-4.918.58-7.4a30.527 30.527 0 0 1-.58 3.905z"/>
        </g>
        <path fill="#FBBEBE" d="M302.458 238.987c-.604 9.916-7.88 18.11-10.65 27.646-.69 2.387-1.104 4.864-2.092 7.135-1.997 4.569-6.107 7.884-10.485 10.22a15.748 15.748 0 0 1-5.163 1.878 9.896 9.896 0 0 1-9.941-5.287c-1.143-2.322-1.303-4.993-1.997-7.49-.774-2.88-2.222-5.537-3.166-8.368-1.737-5.208-1.702-10.91-.5-16.262a49.93 49.93 0 0 1 5.358-13.261 83.12 83.12 0 0 1 1.069-1.828 41.531 41.531 0 0 1 3.46-4.993c2.996-3.61 6.845-6.386 10.655-9.122.29-.24.632-.41.999-.499h.06c.429-.015.855.085 1.233.29a97.642 97.642 0 0 1 15.153 8.208c1.718 1.143 4.429 2.422 5.328 4.369.898 1.947.809 5.247.679 7.364z"/>
        <path fill="#F86D70" d="M282.636 193.357a5.168 5.168 0 0 0-1.109 1.772 83.812 83.812 0 0 0-7.04 28.77c.011.484-.1.963-.324 1.393-.22.286-.467.551-.734.794a2.756 2.756 0 0 0 .47 3.994c.823-1.553 2.795-2.057 4.548-2.192 8.393-.664 16.591 3.24 25.01 2.946-.595-2.052-1.449-4.024-1.933-6.101-2.142-9.222 3.2-19.263-.075-28.146-.654-1.777-1.747-3.525-3.47-4.304a9.242 9.242 0 0 0-2.222-.589c-2.127-.384-6.36-2.027-8.418-1.368-.759.245-1.058.959-1.687 1.388-.934.614-2.202.829-3.016 1.643z"/>
        <path fill="#000" d="M286.076 275.915a14.724 14.724 0 0 1-12.482 7.245 9.836 9.836 0 0 1-3.995-.734c-3.19-1.408-4.993-4.893-5.662-8.318-.669-3.425-.46-6.96-.933-10.42-.38-2.757-1.189-5.433-1.608-8.184-1.029-6.805.998-13.526 2.441-20.301.35-.614.704-1.223 1.069-1.828a41.531 41.531 0 0 1 3.46-4.993c2.996-3.61 6.845-6.386 10.655-9.122h-3.994a.684.684 0 0 1 1.083.475c.394 3.495 5.322 6.99 6.396 10.385.664 2.087 1.463 4.134 1.997 6.261.421 1.812.741 3.645.959 5.492.709 5.17 1.414 10.33 2.117 15.479.884 6.286 1.642 13.081-1.503 18.563z" opacity=".1"/>
        <path fill="#FBBEBE" d="M279.465 210.358l4.818-15.114c.72-2.262 1.448-4.558 1.533-6.935.085-2.377-.539-4.868-2.202-6.566-1.348-1.373-3.215-2.082-4.813-3.155-3.994-2.691-5.991-7.405-8.073-11.744-2.082-4.339-4.824-8.877-9.367-10.485-1.049-.37-2.497-.4-2.966.604a2.122 2.122 0 0 0-.075 1.308c.44 2.307 2.092 4.15 3.53 5.992 2.412 3.12 4.429 6.94 3.85 10.845-.69 4.623-4.843 8.208-5.343 12.857-.22 2.047.305 4.099.3 6.16 0 1.279-.21 2.582.075 3.83.295.966.647 1.912 1.053 2.836.445 1.493.677 3.041.69 4.599l1.053 19.652c.569 10.63-5.198 20.97-3.61 31.456.42 2.75 1.228 5.427 1.608 8.183.499 3.46.264 6.99.933 10.42.67 3.43 2.497 6.91 5.662 8.319 1.266.52 2.627.77 3.995.734a14.724 14.724 0 0 0 12.482-7.245c3.146-5.492 2.387-12.278 1.528-18.539l-2.117-15.478a50.164 50.164 0 0 0-.959-5.492c-.529-2.127-1.328-4.174-1.997-6.261-2.142-6.826-3.745-14-1.588-20.781z"/>
        <rect width="111.343" height="70.9" x="300.361" y="211.531" fill="#3F3D56" rx="7.97"/>
        <rect width="111.343" height="70.9" x="300.361" y="211.531" fill="#000" opacity=".2" rx="7.97"/>
        <circle cx="355.782" cy="246.981" r="2.996" fill="#FFF"/>
        <path fill="#3F3D56" d="M224.403 305.07h6.047c6.893 0 12.482 5.588 12.482 12.481v18.53H211.92v-18.53c0-6.893 5.588-12.482 12.482-12.482z"/>
        <path fill="#000" d="M224.403 305.07h6.047c6.893 0 12.482 5.588 12.482 12.481v18.53H211.92v-18.53c0-6.893 5.588-12.482 12.482-12.482z" opacity=".1"/>
        <circle cx="226.191" cy="309.413" r="2.481" fill="#3F3D56"/>
        <circle cx="226.191" cy="306.312" r="2.481" fill="#3F3D56"/>
        <circle cx="226.191" cy="303.212" r="2.481" fill="#3F3D56"/>
        <circle cx="226.191" cy="300.111" r="2.481" fill="#3F3D56"/>
        <circle cx="226.191" cy="297.01" r="2.481" fill="#3F3D56"/>
        <circle cx="226.191" cy="293.91" r="2.481" fill="#3F3D56"/>
        <circle cx="226.191" cy="290.809" r="2.481" fill="#3F3D56"/>
        <circle cx="229.91" cy="292.048" r="2.481" fill="#3F3D56"/>
        <circle cx="232.392" cy="290.809" r="2.481" fill="#3F3D56"/>
        <circle cx="234.873" cy="289.566" r="2.481" fill="#3F3D56"/>
        <circle cx="226.191" cy="287.704" r="2.481" fill="#3F3D56"/>
        <circle cx="226.191" cy="284.603" r="2.481" fill="#3F3D56"/>
        <circle cx="226.191" cy="281.502" r="2.481" fill="#3F3D56"/>
        <circle cx="226.191" cy="278.402" r="2.481" fill="#3F3D56"/>
        <path fill="#EA0B4B" d="M236.471 270.398c-.614.09-1.233.155-1.852.195a14.26 14.26 0 0 0 1.597-1.638 10.595 10.595 0 0 0-1.498-2.91 5.103 5.103 0 0 1-1.997.628c-.614.09-1.233.16-1.852.2a34.157 34.157 0 0 0 2.372-2.496 10.535 10.535 0 1 0 3.33 6.001l-.1.02zM244.764 282.726a4.908 4.908 0 0 1-2.087.699c-.614.09-1.233.154-1.852.194a18.175 18.175 0 0 0 1.837-1.907 6.211 6.211 0 1 0 2.102.999v.015z"/>
        <circle cx="222.466" cy="292.048" r="2.481" fill="#3F3D56"/>
        <circle cx="219.984" cy="290.809" r="2.481" fill="#3F3D56"/>
        <circle cx="217.503" cy="289.566" r="2.481" fill="#3F3D56"/>
        <path fill="#EA0B4B" d="M207.612 282.726a4.883 4.883 0 0 0 2.087.699c.614.09 1.233.154 1.852.194a17.685 17.685 0 0 1-1.837-1.907 6.211 6.211 0 1 1-2.102.999v.015z"/>
        <path fill="#3F3D56" d="M224.403 306.931h6.047c6.893 0 12.482 5.589 12.482 12.483v16.412c0 1.169-.948 2.117-2.117 2.117h-26.777a2.117 2.117 0 0 1-2.117-2.117v-16.412c0-6.894 5.588-12.483 12.482-12.483z"/>
        <g fill="#000" opacity=".1">
            <path d="M236.66 271.077a9.402 9.402 0 0 1-.798.76c.284 0 .564-.046.849-.076-.01-.23-.025-.46-.05-.684zM232.137 268.111c.624-.04 1.238-.105 1.857-.194a5.992 5.992 0 0 0 1.613-.44c-.252-.499-.543-.978-.869-1.433-.31.19-.646.332-.998.425-.49.589-1.026 1.138-1.603 1.642zM216.884 273.439a10.525 10.525 0 0 1 16.227-8.868l.16-.17a10.535 10.535 0 1 0-13.89 15.843 10.485 10.485 0 0 1-2.497-6.805z"/>
        </g>
        <g fill="#000" opacity=".1">
            <path d="M240.825 284.858c.619-.04 1.238-.105 1.852-.195a4.843 4.843 0 0 0 2.087-.7 6.206 6.206 0 0 1 2.497 4.395c.024-.217.036-.436.035-.654a6.181 6.181 0 0 0-2.497-4.993 4.908 4.908 0 0 1-2.087.699l-.5.06c-.425.498-.89.962-1.387 1.388zM241.074 282.74c.208.003.414.018.62.046.324-.345.644-.714.968-1.074a6.191 6.191 0 0 0-7.789 5.992c0 .21 0 .414.03.619a6.201 6.201 0 0 1 6.171-5.582z"/>
        </g>
        <g fill="#000" opacity=".1">
            <path d="M211.551 284.858c-.619-.04-1.238-.105-1.852-.195a4.818 4.818 0 0 1-2.087-.7 6.206 6.206 0 0 0-2.497 4.395 5.682 5.682 0 0 1-.035-.654 6.181 6.181 0 0 1 2.497-4.993 4.883 4.883 0 0 0 2.087.699l.5.06c.423.5.887.964 1.387 1.388zM211.302 282.74a5.173 5.173 0 0 0-.625.046c-.32-.345-.639-.714-.963-1.074a6.191 6.191 0 0 1 7.789 5.992c0 .21 0 .414-.03.619a6.201 6.201 0 0 0-6.171-5.582z"/>
        </g>
        <path fill="#EA0B4B" d="M78.943 89.698h112.841v43.938H78.943z"/>
        <rect width="185.238" height="43.938" x="78.943" y="89.698" stroke="#3F3D56" stroke-width="9" rx="12"/>
        <path fill="#FFF" fill-rule="nonzero" d="M180.43 109.316a9.037 9.037 0 0 0-16.891-2.392 7.23 7.23 0 0 0 .784 14.42h15.688a6.046 6.046 0 0 0 6.031-6.057 5.957 5.957 0 0 0-5.612-5.971zm-6.935 3.56v4.583h-3.865v-4.583h-4.099l6.032-6.037 6.031 6.037h-4.099z"/>
    </g>
</svg>
