<svg xmlns="http://www.w3.org/2000/svg" width="346" height="354" viewBox="0 0 346 354">
    <defs>
        <linearGradient id="a" x1="49.998%" x2="49.998%" y1="100%" y2="0%">
            <stop offset="0%" stop-color="gray" stop-opacity=".25"/>
            <stop offset="54%" stop-color="gray" stop-opacity=".12"/>
            <stop offset="100%" stop-color="gray" stop-opacity=".1"/>
        </linearGradient>
        <linearGradient id="b" x1="50%" x2="50%" y1="99.994%" y2="-.006%">
            <stop offset="0%" stop-color="#B3B3B3" stop-opacity=".25"/>
            <stop offset="54%" stop-color="#B3B3B3" stop-opacity=".1"/>
            <stop offset="100%" stop-color="#B3B3B3" stop-opacity=".05"/>
        </linearGradient>
        <linearGradient id="c" x1="65.361%" x2="34.092%" y1="101.276%" y2="8.587%">
            <stop offset="0%" stop-opacity=".12"/>
            <stop offset="55%" stop-opacity=".09"/>
            <stop offset="100%" stop-opacity=".02"/>
        </linearGradient>
        <linearGradient id="d" x1="50%" x2="50%" y1="100%" y2="0%">
            <stop offset="0%" stop-color="gray" stop-opacity=".25"/>
            <stop offset="54%" stop-color="gray" stop-opacity=".12"/>
            <stop offset="100%" stop-color="gray" stop-opacity=".1"/>
        </linearGradient>
        <linearGradient id="e" x1="49.998%" x2="49.998%" y1="100%" y2="0%">
            <stop offset="0%" stop-color="gray" stop-opacity=".25"/>
            <stop offset="54%" stop-color="gray" stop-opacity=".12"/>
            <stop offset="100%" stop-color="gray" stop-opacity=".1"/>
        </linearGradient>
        <linearGradient id="f" x1="50%" x2="50%" y1="99.994%" y2="0%">
            <stop offset="0%" stop-color="#B3B3B3" stop-opacity=".25"/>
            <stop offset="54%" stop-color="#B3B3B3" stop-opacity=".1"/>
            <stop offset="100%" stop-color="#B3B3B3" stop-opacity=".05"/>
        </linearGradient>
        <linearGradient id="g" x1="57.963%" x2="42.441%" y1="99.292%" y2="1.538%">
            <stop offset="0%" stop-opacity=".12"/>
            <stop offset="55%" stop-opacity=".09"/>
            <stop offset="100%" stop-opacity=".02"/>
        </linearGradient>
        <linearGradient id="h" x1="49.998%" x2="49.998%" y1="100.002%" y2="0%">
            <stop offset="0%" stop-color="gray" stop-opacity=".25"/>
            <stop offset="54%" stop-color="gray" stop-opacity=".12"/>
            <stop offset="100%" stop-color="gray" stop-opacity=".1"/>
        </linearGradient>
        <linearGradient id="i" x1="50%" x2="50%" y1="100%" y2="0%">
            <stop offset="0%" stop-color="#B3B3B3" stop-opacity=".25"/>
            <stop offset="54%" stop-color="#B3B3B3" stop-opacity=".1"/>
            <stop offset="100%" stop-color="#B3B3B3" stop-opacity=".05"/>
        </linearGradient>
        <linearGradient id="j" x1="53.817%" x2="48.761%" y1="96.154%" y2="-.252%">
            <stop offset="0%" stop-opacity=".12"/>
            <stop offset="55%" stop-opacity=".09"/>
            <stop offset="100%" stop-opacity=".02"/>
        </linearGradient>
        <linearGradient id="k" x1="50%" x2="50%" y1="100%" y2="0%">
            <stop offset="0%" stop-color="gray" stop-opacity=".25"/>
            <stop offset="54%" stop-color="gray" stop-opacity=".12"/>
            <stop offset="100%" stop-color="gray" stop-opacity=".1"/>
        </linearGradient>
        <linearGradient id="l" x1="50%" x2="50%" y1="100%" y2="0%">
            <stop offset="0%" stop-color="gray" stop-opacity=".25"/>
            <stop offset="54%" stop-color="gray" stop-opacity=".12"/>
            <stop offset="100%" stop-color="gray" stop-opacity=".1"/>
        </linearGradient>
        <linearGradient id="m" x1="52.724%" x2="47.665%" y1="95.975%" y2="1.852%">
            <stop offset="0%" stop-opacity=".12"/>
            <stop offset="55%" stop-opacity=".09"/>
            <stop offset="100%" stop-opacity=".02"/>
        </linearGradient>
    </defs>
    <g fill="none" fill-rule="evenodd">
        <path fill="url(#a)" d="M24.987 39.946l153.55-.046-.06 202.073-153.55.045z" transform="rotate(-15.709 101.732 140.96)"/>
        <path fill="url(#b)" d="M7.94 43.533l154.327-.045-.022 77.234-154.328.045z" transform="rotate(-15.37 85.092 82.128)"/>
        <path fill="#EEE" d="M3.009 66.491l144.657-39.809 52.402 190.853-144.656 39.809z"/>
        <path fill="#333" d="M2.79 66.356l144.99-39.9 19.973 72.741-144.99 39.9z"/>
        <path fill="#BDBDBD" d="M58.893 151.229l39.33-10.824.825 3.002-39.33 10.824z"/>
        <path fill="#F5F5F5" d="M62.192 163.245l39.33-10.824.825 3.002-39.33 10.824z"/>
        <path fill="#69F0AE" d="M60.544 157.238l102.66-28.252.825 3.002-102.66 28.252z"/>
        <path fill="#FFF" d="M67.085 77.913l39.33-10.824.825 3.002-39.331 10.824zM68.917 84.585l63.33-17.428.824 3.002-63.33 17.428z"/>
        <path fill="#000" d="M84.968 89.503l35.995-9.905a1.729 1.729 0 0 1 2.126 1.209 1.73 1.73 0 0 1-1.21 2.126L85.884 92.84a1.729 1.729 0 0 1-2.126-1.209 1.73 1.73 0 0 1 1.21-2.127z" opacity=".2"/>
        <ellipse cx="43.028" cy="159.366" fill="#69F0AE" rx="7.262" ry="7.269" transform="rotate(-15.37 43.028 159.366)"/>
        <path fill="#BDBDBD" d="M66.871 180.261l39.33-10.824.825 3.003-39.33 10.823z"/>
        <path fill="#F5F5F5" d="M70.166 192.277l39.33-10.823.825 3.002-39.331 10.823z"/>
        <path fill="#E0E0E0" d="M68.518 186.27l102.66-28.252.824 3.002-102.66 28.252z"/>
        <ellipse cx="50.997" cy="188.399" fill="#E0E0E0" rx="7.262" ry="7.269" transform="rotate(-15.37 50.997 188.4)"/>
        <path fill="#BDBDBD" d="M74.839 209.29l39.33-10.824.825 3.003-39.33 10.823z"/>
        <path fill="#F5F5F5" d="M78.138 221.301l39.33-10.823.825 3.002-39.33 10.823z"/>
        <path fill="#E0E0E0" d="M76.487 215.299l102.66-28.252.824 3.002-102.66 28.252z"/>
        <ellipse cx="58.97" cy="217.431" fill="#E0E0E0" rx="7.262" ry="7.269" transform="rotate(-15.37 58.97 217.431)"/>
        <path fill="url(#c)" d="M19.119 99.59c2.805 9.733 12.453 15.818 22.435 14.149 9.982-1.67 17.13-10.562 16.623-20.68-.507-10.118-8.508-18.25-18.607-18.91l1.414 4.94a6.778 6.778 0 0 1-4.62 8.363 6.769 6.769 0 0 1-8.354-4.625l-1.414-4.94a19.973 19.973 0 0 0-7.477 21.703z"/>
        <path fill="#EA0B4B" d="M56.69 87.218C54.003 77.444 44.427 71.24 34.424 72.79c-10.004 1.55-17.258 10.364-16.869 20.494.39 10.13 8.3 18.358 18.392 19.134l-1.362-4.957a6.78 6.78 0 0 1 4.714-8.31 6.769 6.769 0 0 1 8.297 4.722l1.363 4.957a19.985 19.985 0 0 0 7.731-21.613z"/>
        <ellipse cx="37.063" cy="89.63" fill="#FFF" stroke="#FFF" rx="7.693" ry="7.7" transform="rotate(-15.37 37.063 89.63)"/>
        <path fill="#FFF" stroke="#FFF" d="M39.944 99.105c-3.52 1-5.587 4.709-4.628 8.303l1.337 4.953a19.37 19.37 0 0 0 12.78-3.58l-1.338-4.954c-.98-3.592-4.622-5.702-8.151-4.722zM29.057 90.892a7.466 7.466 0 0 1-1.841-3.525 5.15 5.15 0 0 1 .724-3.852c.84-1.22 2.23-1.952 3.635-2.455 1.405-.504 2.877-.832 4.21-1.492a9.259 9.259 0 0 0 4.672-5.42c.443 1.051.738 2.157.877 3.288a4.157 4.157 0 0 1-.959 3.172c.998-.836 1.214.428 1.17 1.23.753.523 2.159.262 2.475 1.117a5.65 5.65 0 0 1 .432 2.665c-.12.902.642 2.222-.22 2.526"/>
        <path fill="#FFF" d="M40.662 80.56s5.26-.997 3.696 7.94"/>
        <path fill="url(#d)" d="M302.697 338.851h-49.954v-203.31h93.284z"/>
        <path fill="#BDBDBD" d="M300.25 338.851h-49.101v-203.31h91.689z"/>
        <path fill="url(#e)" d="M168.697 79.867l153.962-.019-.024 202.645-153.962.018z" transform="rotate(-6.05 245.666 181.18)"/>
        <path fill="url(#f)" d="M161.891 80.027l154.318-.019-.01 77.24-154.317.018z" transform="rotate(-6.05 239.045 118.637)"/>
        <path fill="#F5F5F5" d="M160.572 89.894l149.186-15.83 20.838 196.83-149.187 15.83z"/>
        <path fill="#333" d="M160.379 89.727l149.53-15.866 7.942 75.02-149.53 15.865z"/>
        <path fill="#BDBDBD" d="M202.017 182.576l40.562-4.304.328 3.096-40.563 4.304z"/>
        <path fill="#F5F5F5" d="M203.328 194.965l40.562-4.304.328 3.096-40.563 4.304z"/>
        <path fill="#EA0B4B" d="M202.67 188.771l105.876-11.234.328 3.096-105.876 11.234z"/>
        <path fill="#FFF" d="M221.96 111.556l40.561-4.304.328 3.096-40.562 4.304zM222.684 118.44l65.313-6.93.328 3.096-65.313 6.93z"/>
        <path fill="#000" d="M237.725 125.887l37.122-3.939a1.73 1.73 0 0 1 .364 3.44l-37.122 3.94a1.73 1.73 0 0 1-.364-3.44z" opacity=".2"/>
        <ellipse cx="185.039" cy="188.031" fill="#69F0AE" rx="7.261" ry="7.269" transform="rotate(-6.05 185.04 188.031)"/>
        <path fill="#BDBDBD" d="M205.188 212.513l40.563-4.304.328 3.096-40.563 4.304z"/>
        <path fill="#F5F5F5" d="M206.5 224.902l40.562-4.304.328 3.096-40.562 4.304z"/>
        <path fill="#E0E0E0" d="M205.842 218.708l105.876-11.234.328 3.096-105.876 11.234z"/>
        <ellipse cx="188.211" cy="217.968" fill="#E0E0E0" rx="7.261" ry="7.269" transform="rotate(-6.05 188.21 217.968)"/>
        <path fill="#BDBDBD" d="M208.356 242.45l40.562-4.303.328 3.096-40.562 4.304z"/>
        <path fill="#F5F5F5" d="M209.667 254.84l40.562-4.305.328 3.097-40.562 4.303z"/>
        <path fill="#E0E0E0" d="M209.01 248.646l105.875-11.234.328 3.096-105.875 11.234z"/>
        <ellipse cx="191.378" cy="247.906" fill="#E0E0E0" rx="7.261" ry="7.269" transform="rotate(-6.05 191.378 247.906)"/>
        <path fill="url(#g)" d="M170.76 124.879c1.18 10.186 9.711 17.858 19.835 17.837 10.123-.02 18.623-7.727 19.763-17.918 1.14-10.192-5.44-19.63-15.302-21.947l.603 5.168c.413 3.734-2.217 7.11-5.897 7.57-3.7.432-7.048-2.244-7.495-5.989l-.604-5.168c-7.527 3.804-11.889 11.983-10.903 20.447z"/>
        <path fill="#0DA176" d="M210.375 118.543c-1.07-10.21-9.513-17.987-19.634-18.083-10.12-.096-18.705 7.519-19.963 17.708-1.258 10.188 5.21 19.716 15.04 22.156l-.542-5.18c-.382-3.758 2.3-7.124 6.002-7.533 3.704-.388 7.021 2.333 7.424 6.089l.543 5.18c7.564-3.721 12.016-11.855 11.13-20.337z"/>
        <ellipse cx="190.439" cy="118.249" fill="#FFF" stroke="#FFF" rx="7.692" ry="7.701" transform="rotate(-6.05 190.439 118.25)"/>
        <path fill="#FFF" stroke="#FFF" d="M191.16 127.605c-3.794.416-6.542 3.839-6.15 7.661l.556 5.268a20.375 20.375 0 0 0 13.758-1.46l-.555-5.267c-.408-3.824-3.81-6.596-7.609-6.202zM182.237 118.797a7.123 7.123 0 0 1-1.246-3.684 4.954 4.954 0 0 1 1.347-3.591c1.03-1.047 2.532-1.534 4.005-1.798 1.473-.264 2.97-.329 4.414-.792 2.389-.725 4.375-2.34 5.517-4.486.267 1.08.379 2.19.332 3.3a4.028 4.028 0 0 1-1.473 2.905c1.122-.649 1.131.598.963 1.367.66.62 2.094.588 2.267 1.464a5.36 5.36 0 0 1 0 2.632c-.27.848.274 2.243-.635 2.396"/>
        <path fill="#FFF" d="M196.135 110.027s5.181-.096 2.336 7.973"/>
        <path fill="url(#h)" d="M104.446 0h153.878v202.514H104.446z"/>
        <path fill="url(#i)" d="M104.446 0h154.676v77.338H104.446z"/>
        <path fill="#F5F5F5" d="M106.838 1.595H256.73v197.73H106.838z"/>
        <path fill="#333" d="M106.041 1.595H256.73v75.743H106.041z"/>
        <path fill="#BDBDBD" d="M137.932 98.068h40.662v3.189h-40.662z"/>
        <path fill="#F5F5F5" d="M137.932 110.824h40.662v3.189h-40.662z"/>
        <path fill="#EA0B4B" d="M137.932 104.446H244.77v3.189H137.932z"/>
        <path fill="#FFF" d="M165.838 29.5H206.5v3.189h-40.662zM165.838 36.676h65.378v3.189h-65.378z"/>
        <rect width="40.662" height="3.189" x="177.797" y="45.446" fill="#000" opacity=".2" rx="1.595"/>
        <circle cx="120.392" cy="102.054" r="7.176" fill="#EA0B4B"/>
        <path fill="#BDBDBD" d="M137.932 128.365h40.662v3.189h-40.662z"/>
        <path fill="#F5F5F5" d="M137.932 141.122h40.662v3.189h-40.662z"/>
        <path fill="#E0E0E0" d="M137.932 134.743H244.77v3.189H137.932z"/>
        <circle cx="120.392" cy="132.351" r="7.176" fill="#E0E0E0"/>
        <path fill="#BDBDBD" d="M137.932 158.662h40.662v3.189h-40.662z"/>
        <path fill="#F5F5F5" d="M137.932 170.622h40.662v3.189h-40.662z"/>
        <path fill="#E0E0E0" d="M137.932 165.041H244.77v3.189H137.932z"/>
        <circle cx="120.392" cy="161.851" r="7.176" fill="#E0E0E0"/>
        <path fill="url(#j)" d="M113.218 38.367c.127 10.198 7.817 18.682 17.883 19.728 10.067 1.047 19.314-5.675 21.505-15.632 2.19-9.957-3.37-19.988-12.933-23.328l.061 5.174c.045 3.766-2.947 6.856-6.684 6.903-3.723.034-6.774-2.967-6.831-6.718l-.061-5.174c-7.862 2.97-13.036 10.586-12.94 19.047z"/>
        <path fill="#EA0B4B" d="M153.081 36.066c-.004-10.22-7.593-18.815-17.646-19.986-10.054-1.172-19.38 5.452-21.69 15.403-2.31 9.95 3.133 20.069 12.655 23.53v-5.189c.01-3.76 3.026-6.806 6.75-6.817 3.724.01 6.74 3.057 6.75 6.817v5.185c7.908-2.878 13.18-10.454 13.181-18.943z"/>
        <circle cx="133.547" cy="33.088" r="7.574" fill="#FFF" stroke="#FFF"/>
        <path fill="#FFF" stroke="#FFF" d="M133.547 43.054c-3.738.01-6.766 2.957-6.777 6.595v5.016a20.607 20.607 0 0 0 13.554 0v-5.016c-.01-3.638-3.038-6.585-6.777-6.595zM125.226 32.98a7.273 7.273 0 0 1-.834-3.85 5.098 5.098 0 0 1 1.736-3.493c1.143-.941 2.691-1.285 4.187-1.412 1.495-.127 3.009-.047 4.485-.33a9.385 9.385 0 0 0 5.985-3.963 12.01 12.01 0 0 1-.034 3.366 4.136 4.136 0 0 1-1.784 2.782c1.191-.537 1.06.72.805 1.478.589.696 2.026.81 2.098 1.713.12.897.018 1.809-.299 2.66-.362.828.024 2.292-.897 2.353"/>
        <path fill="#FFF" d="M139.527 25.514s5.863.492 1.69 8.77"/>
        <path fill="url(#k)" d="M90.778 144.805L57.056 121.19H10.365V354h291.81V144.805z"/>
        <path fill="#FFF" d="M12.757 146.703v203.311h287.027V146.703H91.854"/>
        <path fill="#BDBDBD" d="M91.69 146.703L58.585 123.58h-45.83v23.122"/>
        <path fill="url(#l)" d="M77.338 176.203h157.865v143.514H77.338z"/>
        <path fill="#FFF" d="M79.73 177.797h154.676v139.527H79.73z"/>
        <path fill="#BDBDBD" d="M127.568 282.243h60.595v4.784h-60.595z"/>
        <path fill="#E0E0E0" d="M90.892 292.608h132.351v4.784H90.892zM90.892 302.176h132.351v4.784H90.892z"/>
        <path fill="url(#m)" d="M118.8 231.443c.24 19.147 14.85 35.076 33.974 37.044 19.125 1.968 36.695-10.65 40.861-29.343 4.167-18.694-6.393-37.53-24.558-43.806l.119 9.717c.066 7.044-5.593 12.819-12.665 12.925-7.072.066-12.87-5.57-12.977-12.613l-.118-9.717c-14.97 5.563-24.824 19.882-24.636 35.793z"/>
        <path fill="#BDBDBD" d="M194.54 227.543c-.003-19.191-14.42-35.332-33.523-37.534-19.103-2.202-36.827 10.234-41.215 28.918-4.388 18.685 5.954 37.684 24.05 44.181v-9.736c.028-7.046 5.745-12.751 12.806-12.78 7.06.029 12.777 5.734 12.806 12.78v9.736c15.039-5.39 25.071-19.619 25.077-35.565z"/>
        <rect width="4.784" height="15.946" x="153.081" y="231.216" fill="#FFF" stroke="#FFF" rx="2.392"/>
        <circle cx="155.473" cy="219.257" r="14.351" fill="#FFF" stroke="#FFF"/>
        <path fill="#FFF" stroke="#FFF" d="M155.456 236.797c-7.024.029-12.711 5.728-12.74 12.768v9.727a37.734 37.734 0 0 0 25.514 0v-9.708c-.018-7.06-5.729-12.776-12.774-12.787zM141.11 218.356a13.872 13.872 0 0 1-1.558-7.269 9.672 9.672 0 0 1 3.241-6.59c2.13-1.795 5.02-2.43 7.812-2.651 2.793-.222 5.62-.09 8.365-.622a17.495 17.495 0 0 0 11.167-7.48c.177 2.118.353 4.27-.062 6.36-.414 2.09-1.501 4.138-3.336 5.254 2.221-1.017 1.978 1.365 1.497 2.791 1.1 1.314 3.774 1.53 3.913 3.23.138 1.7.114 3.456-.558 5.023-.672 1.568.048 4.327-1.668 4.45"/>
        <path fill="#FFF" d="M167.432 204.905s10.261.887 2.957 15.946"/>
    </g>
</svg>
